<svg xmlns="http://www.w3.org/2000/svg" xmlns:xlink="http://www.w3.org/1999/xlink" width="126.376" height="126.376" viewBox="0 0 126.376 126.376">
  <defs>
    <filter id="Path_874925" x="0" y="0" width="126.376" height="126.376" filterUnits="userSpaceOnUse">
      <feOffset dy="3" input="SourceAlpha"/>
      <feGaussianBlur stdDeviation="3" result="blur"/>
      <feFlood flood-opacity="0.161"/>
      <feComposite operator="in" in2="blur"/>
      <feComposite in="SourceGraphic"/>
    </filter>
  </defs>
  <g id="Group_1206946" data-name="Group 1206946" transform="translate(6789 8712)">
    <g id="Group_1205984" data-name="Group 1205984" transform="translate(-7885.051 -12584)">
      <g id="Group_1205731" data-name="Group 1205731" transform="translate(359 -295)">
        <g id="Group_1205682" data-name="Group 1205682" transform="translate(461.051 -2077.874)">
          <g id="Group_1200232" data-name="Group 1200232" transform="translate(285 6250.874)">
            <g id="Group_1187153" data-name="Group 1187153">
              <g id="Group_1182177" data-name="Group 1182177">
                <g id="Group_1181903" data-name="Group 1181903">
                  <g id="Group_1181438" data-name="Group 1181438">
                    <g id="Group_1111314" data-name="Group 1111314">
                      <g transform="matrix(1, 0, 0, 1, -9, -6)" filter="url(#Path_874925)">
                        <g id="Path_874925-2" data-name="Path 874925" transform="translate(9 6)" fill="#ffc94a">
                          <path d="M 54.1878662109375 106.8763656616211 C 47.07439041137695 106.8763656616211 40.17448043823242 105.4835205078125 33.67983627319336 102.7365036010742 C 27.40597343444824 100.0828857421875 21.77115821838379 96.28368377685547 16.93191146850586 91.44444274902344 C 12.09268188476562 86.60519409179688 8.293481826782227 80.97038269042969 5.639866352081299 74.696533203125 C 2.892850875854492 68.20187377929688 1.500004649162292 61.30196380615234 1.500004649162292 54.1884880065918 C 1.500004649162292 47.07439422607422 2.892850875854492 40.17448806762695 5.639866352081299 33.67982482910156 C 8.293481826782227 27.40597915649414 12.09268188476562 21.77116394042969 16.93191146850586 16.93191719055176 C 21.77115821838379 12.09267139434814 27.40597343444824 8.293471336364746 33.67983627319336 5.639855861663818 C 40.17448043823242 2.892840623855591 47.07439041137695 1.499994397163391 54.1878662109375 1.499994397163391 C 61.30134201049805 1.499994397163391 68.20124816894531 2.892840623855591 74.69589996337891 5.639855861663818 C 80.96975708007812 8.293471336364746 86.60457611083984 12.09267139434814 91.44381713867188 16.93191719055176 C 96.28305053710938 21.77116394042969 100.0822525024414 27.40597915649414 102.7358627319336 33.67982482910156 C 105.4828796386719 40.17448806762695 106.8757247924805 47.07439422607422 106.8757247924805 54.18787002563477 C 106.8757247924805 61.30196380615234 105.4828796386719 68.20187377929688 102.7358627319336 74.696533203125 C 100.0822525024414 80.97038269042969 96.28305053710938 86.60519409179688 91.44381713867188 91.44444274902344 C 86.60457611083984 96.28368377685547 80.96975708007812 100.0828857421875 74.69589996337891 102.7365036010742 C 68.20124816894531 105.4835205078125 61.30134201049805 106.8763656616211 54.1878662109375 106.8763656616211 Z" stroke="none"/>
                          <path d="M 54.1878662109375 2.999992370605469 C 47.2762336730957 2.999992370605469 40.57291412353516 4.352981567382812 34.26416778564453 7.0213623046875 C 28.16909790039062 9.599342346191406 22.69454956054688 13.29059600830078 17.99258422851562 17.99257659912109 C 13.29059600830078 22.69454193115234 9.599349975585938 28.16909790039062 7.021369934082031 34.26416015625 C 4.352981567382812 40.57292938232422 3 47.27622985839844 3 54.18849563598633 C 3 61.10012817382812 4.352981567382812 67.80344390869141 7.021369934082031 74.11219787597656 C 9.599349975585938 80.20726013183594 13.29059600830078 85.68180847167969 17.99258422851562 90.38378143310547 C 22.69454956054688 95.08576202392578 28.16909790039062 98.77701568603516 34.26416778564453 101.3549957275391 C 40.57291412353516 104.0233764648438 47.2762336730957 105.3763656616211 54.1878662109375 105.3763656616211 C 61.0994987487793 105.3763656616211 67.80281066894531 104.0233764648438 74.11156463623047 101.3549957275391 C 80.20663452148438 98.77701568603516 85.68118286132812 95.08576202392578 90.38314819335938 90.38378143310547 C 95.08512878417969 85.68180847167969 98.77638244628906 80.20726013183594 101.3543701171875 74.11219787597656 C 104.0227508544922 67.80344390869141 105.375732421875 61.10012817382812 105.375732421875 54.1878776550293 C 105.375732421875 47.27622985839844 104.0227508544922 40.57292938232422 101.3543701171875 34.26416015625 C 98.77638244628906 28.16909790039062 95.08512878417969 22.69454193115234 90.38314819335938 17.99257659912109 C 85.68118286132812 13.29059600830078 80.20663452148438 9.599342346191406 74.11156463623047 7.0213623046875 C 67.80281066894531 4.352981567382812 61.0994987487793 2.999992370605469 54.1878662109375 2.999992370605469 M 54.1878662109375 -7.62939453125e-06 C 84.11499786376953 -7.62939453125e-06 108.375732421875 24.26072692871094 108.375732421875 54.1878776550293 L 108.375732421875 54.18849563598633 C 108.375732421875 84.11563110351562 84.11499786376953 108.3763656616211 54.1878662109375 108.3763656616211 C 24.26073455810547 108.3763656616211 0 84.11563110351562 0 54.18849563598633 L 0 54.1878776550293 C 0 24.26072692871094 24.26073455810547 -7.62939453125e-06 54.1878662109375 -7.62939453125e-06 Z" stroke="none" fill="#fff"/>
                        </g>
                      </g>
                    </g>
                  </g>
                </g>
              </g>
            </g>
          </g>
        </g>
      </g>
    </g>
    <g id="Artboard431" transform="translate(-6764 -8708.061)">
      <g id="Group_1206945" data-name="Group 1206945" transform="translate(7 27.061)">
        <g id="Group_1206944" data-name="Group 1206944" transform="translate(1.017 1.025)">
          <g id="Group_1206941" data-name="Group 1206941" transform="translate(14.211 14.208)">
            <path id="Path_1270552" data-name="Path 1270552" d="M144.689,183.414a18.62,18.62,0,1,0-18.62-18.62A18.656,18.656,0,0,0,144.689,183.414Z" transform="translate(-126.069 -146.173)" fill="#ffd064" fill-rule="evenodd"/>
            <path id="Path_1270553" data-name="Path 1270553" d="M265.53,146.191a18.619,18.619,0,0,1,0,37.206c.259.011.521.018.785.018a18.62,18.62,0,0,0,0-37.241C266.051,146.173,265.789,146.18,265.53,146.191Z" transform="translate(-247.695 -146.173)" fill="#f5b829" fill-rule="evenodd"/>
            <path id="Path_1270554" data-name="Path 1270554" d="M174.7,209.034a14.218,14.218,0,1,0-14.22-14.218A14.245,14.245,0,0,0,174.7,209.034Z" transform="translate(-156.078 -176.196)" fill="#ffc338" fill-rule="evenodd"/>
            <path id="Path_1270555" data-name="Path 1270555" d="M162.176,194.817a14.219,14.219,0,0,1,13.369-14.194c-.279-.015-.563-.024-.847-.024a14.218,14.218,0,1,0,0,28.435c.284,0,.567-.009.847-.024A14.219,14.219,0,0,1,162.176,194.817Z" transform="translate(-156.078 -176.196)" fill="#f5b829" fill-rule="evenodd"/>
          </g>
          <g id="Group_1206942" data-name="Group 1206942" transform="translate(41.107 30.126)">
            <path id="Path_1270556" data-name="Path 1270556" d="M374.5,285.543l-3.367-.355V278a3.988,3.988,0,0,0-7.975,0v7.547l-3.367-.893V278a7.354,7.354,0,1,1,14.709,0Z" transform="translate(-356.799 -270.641)" fill="#685e68" fill-rule="evenodd"/>
            <path id="Path_1270557" data-name="Path 1270557" d="M337.729,343.72h18.007a1.347,1.347,0,0,1,1.344,1.344v14.312a1.346,1.346,0,0,1-1.344,1.343H337.729a1.346,1.346,0,0,1-1.344-1.343V345.064A1.347,1.347,0,0,1,337.729,343.72Z" transform="translate(-336.385 -334.374)" fill="#837683" fill-rule="evenodd"/>
            <path id="Path_1270558" data-name="Path 1270558" d="M476.022,343.72h1.494a1.347,1.347,0,0,1,1.344,1.344v14.312a1.346,1.346,0,0,1-1.344,1.343h-1.494a1.346,1.346,0,0,0,1.344-1.343V345.064A1.347,1.347,0,0,0,476.022,343.72Z" transform="translate(-458.164 -334.374)" fill="#685e68" fill-rule="evenodd"/>
            <path id="Path_1270559" data-name="Path 1270559" d="M399.442,370.253a2.618,2.618,0,0,1,1.372,4.846v3.994a1.373,1.373,0,0,1-2.746,0V375.1a2.618,2.618,0,0,1,1.374-4.846Z" transform="translate(-389.095 -357.514)" fill="#d1d1d6" fill-rule="evenodd"/>
          </g>
          <g id="Group_1206943" data-name="Group 1206943">
            <path id="Path_1270560" data-name="Path 1270560" d="M31.987,37.427A12.114,12.114,0,0,1,35.538,38.9l2.307-1.024,2.719,2.719L39.54,42.9a12.114,12.114,0,0,1,1.472,3.551l2.354.906v3.846l-2.354.906a12.123,12.123,0,0,1-1.472,3.549l1.024,2.307-2.719,2.72-2.307-1.025a12.117,12.117,0,0,1-3.551,1.473l-.906,2.353H27.234l-.906-2.355a12.123,12.123,0,0,1-3.549-1.472l-2.307,1.025-2.72-2.72,1.025-2.306A12.155,12.155,0,0,1,17.3,52.111l-2.353-.906V47.359l2.353-.906A12.118,12.118,0,0,1,18.776,42.9l-1.025-2.307,2.72-2.719L22.777,38.9a12.151,12.151,0,0,1,3.551-1.472l.906-2.354h3.846Z" transform="translate(-14.95 -35.073)" fill="#837683" fill-rule="evenodd"/>
            <path id="Path_1270561" data-name="Path 1270561" d="M72.376,38.22l.775-.344,2.719,2.719L74.846,42.9a12.114,12.114,0,0,1,1.472,3.551l2.354.906v3.846l-2.354.906a12.123,12.123,0,0,1-1.472,3.549l1.024,2.307-2.719,2.72-.775-.344,2.376-2.376-1.025-2.307A12.123,12.123,0,0,0,75.2,52.111l2.355-.906V47.359L75.2,46.453A12.114,12.114,0,0,0,73.727,42.9l1.025-2.307Zm-16.943,0,.344-.344L58.083,38.9c-.163.091-.324.185-.482.284Zm11.86-.792A12.114,12.114,0,0,1,70.844,38.9l-.636.284a15.849,15.849,0,0,0-4.034-1.755l-.906-2.354h1.119ZM58.084,59.663l-2.307,1.025-.344-.344,2.168-.963Q57.838,59.527,58.084,59.663Zm12.759,0a12.117,12.117,0,0,1-3.551,1.473l-.906,2.353H65.267l.906-2.353a15.886,15.886,0,0,0,4.036-1.755Z" transform="translate(-50.256 -35.073)" fill="#685e68" fill-rule="evenodd"/>
            <path id="Path_1270562" data-name="Path 1270562" d="M79.243,92.5a6.864,6.864,0,1,1-6.863,6.864A6.864,6.864,0,0,1,79.243,92.5Z" transform="translate(-65.035 -85.158)" fill="#eceff1" fill-rule="evenodd"/>
            <path id="Path_1270563" data-name="Path 1270563" d="M79.243,92.5c.156,0,.311.006.466.017a6.863,6.863,0,0,0,0,13.7c-.155.01-.31.015-.466.015a6.864,6.864,0,0,1,0-13.728Z" transform="translate(-65.035 -85.158)" fill="#d1d1d6" fill-rule="evenodd"/>
          </g>
        </g>
        <path id="Path_1270564" data-name="Path 1270564" d="M52.83,30.554l-1.621,1.621a1.023,1.023,0,1,1-1.447-1.447l3.367-3.367a1.023,1.023,0,0,1,1.447,0l3.367,3.367A1.023,1.023,0,1,1,56.5,32.175l-1.621-1.621V41.039a1.023,1.023,0,0,1-2.046,0ZM18.138,85.062l-3.367-3.367a1.023,1.023,0,1,1,1.447-1.447l1.621,1.621V71.384a1.023,1.023,0,1,1,2.046,0V81.869l1.621-1.621a1.023,1.023,0,0,1,1.447,1.447l-3.367,3.367A1.023,1.023,0,0,1,18.138,85.062ZM21.5,57.519H20.309a1.023,1.023,0,0,1-.955-.656L18.637,55a13.192,13.192,0,0,1-2.852-1.182l-1.828.81a1.023,1.023,0,0,1-1.138-.212L10.1,51.7a1.023,1.023,0,0,1-.211-1.139l.812-1.826A13.183,13.183,0,0,1,9.52,45.886l-1.864-.718A1.023,1.023,0,0,1,7,44.214V40.37a1.023,1.023,0,0,1,.656-.955L9.52,38.7A13.2,13.2,0,0,1,10.7,35.846L9.891,34.02a1.023,1.023,0,0,1,.211-1.139l2.717-2.717a1.023,1.023,0,0,1,1.139-.211l1.826.812a13.107,13.107,0,0,1,2.849-1.181l.721-1.868a1.023,1.023,0,0,1,.955-.655h3.844a1.023,1.023,0,0,1,.955.656l.717,1.867a13.1,13.1,0,0,1,2.848,1.18l1.827-.812a1.023,1.023,0,0,1,1.139.211l2.717,2.717a1.023,1.023,0,0,1,.212,1.138l-.809,1.827A13.087,13.087,0,0,1,34.94,38.7l1.863.717a1.023,1.023,0,0,1,.656.955v1.191A19.652,19.652,0,0,1,60.1,56.989a8.111,8.111,0,0,1,7.457,8.062v1.943h.562a2.316,2.316,0,0,1,2.312,2.312V83.05a2.312,2.312,0,0,1-2.312,2.312H50.83a2.316,2.316,0,0,1-2.315-2.312V79A19.646,19.646,0,0,1,21.5,57.519ZM37.458,43.643v.571a1.023,1.023,0,0,1-.656.955l-1.863.717q-.165.584-.383,1.149a15.132,15.132,0,0,1,6.3-1.365A15.287,15.287,0,0,1,55.786,57.861a8.016,8.016,0,0,1,2.246-.767A17.6,17.6,0,0,0,37.458,43.643Zm-3.331,5.924.441,1a1.023,1.023,0,0,1-.212,1.138l-2.717,2.717a1.023,1.023,0,0,1-1.138.212l-1-.441a13.184,13.184,0,0,0,19.01,17.455V69.306a2.319,2.319,0,0,1,2.315-2.312h.559V65.051a8.067,8.067,0,0,1,2.545-5.875,13.231,13.231,0,0,0-13.082-11.46,13.1,13.1,0,0,0-6.724,1.851Zm-7.154,5.052q-.565.217-1.148.381l-.717,1.863a1.023,1.023,0,0,1-.955.656h-.571A17.59,17.59,0,0,0,48.515,76.749V74.08A15.234,15.234,0,0,1,26.973,54.619ZM65.512,66.994V65.051a6.039,6.039,0,1,0-12.077,0v1.943h1.189V65.051a4.851,4.851,0,1,1,9.7,0v1.943Zm-8.842,0h.693a17.431,17.431,0,0,0,1.018-4.526,2.823,2.823,0,0,0-1.712,2.583Zm2.86,0H62.28V65.051a2.824,2.824,0,0,0-1.84-2.634,19.486,19.486,0,0,1-.909,4.578Zm-19.7-14V51.913a1.023,1.023,0,1,1,2.046,0v1.069a5.271,5.271,0,0,1,4.106,3.213,1.023,1.023,0,0,1-1.886.793,3.543,3.543,0,0,0-4.642-1.774,2.363,2.363,0,0,0-1.666,2.3,2.044,2.044,0,0,0,1.31,1.772,7.073,7.073,0,0,0,1.934.564c2.381.39,5.029,1.432,5.375,4.263h0c.344,2.848-2.1,4.406-4.531,4.738v1.056a1.023,1.023,0,1,1-2.046,0V68.841a5.276,5.276,0,0,1-4.53-3.857,1.023,1.023,0,0,1,1.986-.494,3.5,3.5,0,0,0,3.729,2.385,4.772,4.772,0,0,0,2.522-.727,1.807,1.807,0,0,0,.839-1.784,2.223,2.223,0,0,0-1.147-1.69,7.216,7.216,0,0,0-2.527-.8h0c-2.316-.381-4.821-1.5-4.956-4.256h0A4.345,4.345,0,0,1,38.7,53.31a5.849,5.849,0,0,1,1.125-.315Zm11,16.046a.268.268,0,0,0-.269.266V83.05a.268.268,0,0,0,.269.266H68.12a.266.266,0,0,0,.266-.266V69.306a.266.266,0,0,0-.266-.266Zm8.645,1.21a3.539,3.539,0,0,1,2.342,6.189v3.323a2.342,2.342,0,0,1-4.684,0s0-3.323,0-3.323a3.538,3.538,0,0,1,2.342-6.189Zm0,2.046a1.492,1.492,0,0,0-.782,2.762,1.023,1.023,0,0,1,.486.871v3.834a.3.3,0,0,0,.591,0V75.93a1.023,1.023,0,0,1,.486-.871,1.493,1.493,0,0,0-.782-2.762ZM24.1,30.808l-.654-1.7H21.011l-.657,1.7a1.023,1.023,0,0,1-.718.627,11.062,11.062,0,0,0-3.249,1.347,1.023,1.023,0,0,1-.952.064l-1.665-.74L12.046,33.83l.74,1.665a1.023,1.023,0,0,1-.064.952A11.161,11.161,0,0,0,11.371,39.7a1.023,1.023,0,0,1-.627.716l-1.7.653v2.439l1.7.653a1.023,1.023,0,0,1,.627.715,11.137,11.137,0,0,0,1.35,3.251,1.023,1.023,0,0,1,.065.954l-.74,1.665,1.724,1.724,1.665-.738a1.023,1.023,0,0,1,.949.063,11.15,11.15,0,0,0,3.255,1.348,1.023,1.023,0,0,1,.719.628l.653,1.7H23.45l.654-1.7a1.023,1.023,0,0,1,.718-.628A11.021,11.021,0,0,0,28.07,51.8a1.023,1.023,0,0,1,.952-.065l1.665.738,1.725-1.725-.738-1.665a1.024,1.024,0,0,1,.063-.949,11.167,11.167,0,0,0,1.348-3.252,1.024,1.024,0,0,1,.628-.718l1.7-.653V41.073l-1.7-.653a1.023,1.023,0,0,1-.628-.719,11.042,11.042,0,0,0-1.346-3.253,1.023,1.023,0,0,1-.064-.951l.738-1.665-1.724-1.724-1.665.74a1.023,1.023,0,0,1-.952-.064,11.063,11.063,0,0,0-3.249-1.347,1.024,1.024,0,0,1-.718-.628Zm-1.874,3.754A7.729,7.729,0,1,1,14.5,42.29,7.728,7.728,0,0,1,22.229,34.563Zm0,2.046a5.683,5.683,0,1,0,5.685,5.681A5.679,5.679,0,0,0,22.229,36.609Z" transform="translate(-7 -27.061)" fill-rule="evenodd"/>
      </g>
    </g>
  </g>
</svg>
