<svg xmlns="http://www.w3.org/2000/svg" xmlns:xlink="http://www.w3.org/1999/xlink" width="111.776" height="111.776" viewBox="0 0 111.776 111.776">
  <defs>
    <filter id="Path_874925" x="0" y="0" width="111.776" height="111.776" filterUnits="userSpaceOnUse">
      <feOffset dy="3" input="SourceAlpha"/>
      <feGaussianBlur stdDeviation="3" result="blur"/>
      <feFlood flood-opacity="0.161"/>
      <feComposite operator="in" in2="blur"/>
      <feComposite in="SourceGraphic"/>
    </filter>
  </defs>
  <g id="Group_1207398" data-name="Group 1207398" transform="translate(-3794 5781)">
    <g id="Group_1206771" data-name="Group 1206771" transform="translate(2998 -7600.883)">
      <g id="Group_1204844" data-name="Group 1204844" transform="translate(520 -4424.991)">
        <g id="Group_1200232" data-name="Group 1200232" transform="translate(285 6250.874)">
          <g id="Group_1187153" data-name="Group 1187153">
            <g id="Group_1182177" data-name="Group 1182177">
              <g id="Group_1181903" data-name="Group 1181903">
                <g id="Group_1181438" data-name="Group 1181438">
                  <g id="Group_1111314" data-name="Group 1111314">
                    <g transform="matrix(1, 0, 0, 1, -9, -6)" filter="url(#Path_874925)">
                      <g id="Path_874925-2" data-name="Path 874925" transform="translate(9 6)" fill="#dcd9d3">
                        <path d="M 46.88790893554688 92.2763671875 C 40.75992202758789 92.2763671875 34.8160285949707 91.07652282714844 29.22134971618652 88.71018218994141 C 23.81676292419434 86.42423248291016 18.96264266967773 83.15139007568359 14.79381561279297 78.98255157470703 C 10.62497520446777 74.81372833251953 7.35213565826416 69.95960998535156 5.066188812255859 64.55502319335938 C 2.699842214584351 58.9603385925293 1.500002264976501 53.01644515991211 1.500002264976501 46.88844680786133 C 1.500002264976501 40.75992584228516 2.699842214584351 34.81603240966797 5.066188812255859 29.22135353088379 C 7.35213565826416 23.8167667388916 10.62497520446777 18.962646484375 14.79381561279297 14.79381942749023 C 18.96264266967773 10.62497997283936 23.81676292419434 7.352139949798584 29.22134971618652 5.066193103790283 C 34.8160285949707 2.699846506118774 40.75992202758789 1.500006437301636 46.88790893554688 1.500006437301636 C 53.01589584350586 1.500006437301636 58.95978927612305 2.699846506118774 64.55446624755859 5.066193103790283 C 69.95905303955078 7.352139949798584 74.81317901611328 10.62497997283936 78.98200225830078 14.79381942749023 C 83.15084075927734 18.962646484375 86.42368316650391 23.8167667388916 88.70962524414062 29.22135353088379 C 91.07597351074219 34.81603240966797 92.27581787109375 40.75992584228516 92.27581787109375 46.88791275024414 C 92.27581787109375 53.01644515991211 91.07597351074219 58.9603385925293 88.70962524414062 64.55502319335938 C 86.42368316650391 69.95960998535156 83.15084075927734 74.81372833251953 78.98200225830078 78.98255157470703 C 74.81317901611328 83.15139007568359 69.95905303955078 86.42423248291016 64.55446624755859 88.71018218994141 C 58.95978927612305 91.07652282714844 53.01589584350586 92.2763671875 46.88790893554688 92.2763671875 Z" stroke="none"/>
                        <path d="M 46.88790893554688 2.999992370605469 C 40.96175003051758 2.999992370605469 35.2144660949707 4.159965515136719 29.80567932128906 6.44769287109375 C 24.57989501953125 8.658004760742188 19.88602447509766 11.82290649414062 15.85446929931641 15.85446929931641 C 11.82290649414062 19.88602447509766 8.658012390136719 24.57989501953125 6.44769287109375 29.80567932128906 C 4.159965515136719 35.2144660949707 2.999992370605469 40.96175003051758 2.999992370605469 46.88845062255859 C 2.999992370605469 52.81460952758789 4.159965515136719 58.56189346313477 6.44769287109375 63.97069549560547 C 8.658012390136719 69.19646453857422 11.82290649414062 73.89033508300781 15.85446929931641 77.92189025878906 C 19.88602447509766 81.95343780517578 24.57989501953125 85.11833953857422 29.80567932128906 87.32865142822266 C 35.2144660949707 89.61637878417969 40.96175003051758 90.77635192871094 46.88790893554688 90.77635192871094 C 52.81406784057617 90.77635192871094 58.56135177612305 89.61637878417969 63.97013854980469 87.32865142822266 C 69.1959228515625 85.11833953857422 73.88979339599609 81.95343780517578 77.92134857177734 77.92189025878906 C 81.95291137695312 73.89033508300781 85.11781311035156 69.19646453857422 87.328125 63.97069549560547 C 89.61585235595703 58.56189346313477 90.77582550048828 52.81460952758789 90.77582550048828 46.88790893554688 C 90.77582550048828 40.96175003051758 89.61585235595703 35.2144660949707 87.328125 29.80567932128906 C 85.11781311035156 24.57989501953125 81.95291137695312 19.88602447509766 77.92134857177734 15.85446929931641 C 73.88979339599609 11.82290649414062 69.1959228515625 8.658004760742188 63.97013854980469 6.44769287109375 C 58.56135177612305 4.159965515136719 52.81406784057617 2.999992370605469 46.88790893554688 2.999992370605469 M 46.88790893554688 -7.62939453125e-06 C 72.78337860107422 -7.62939453125e-06 93.77582550048828 20.99243927001953 93.77582550048828 46.88790893554688 L 93.77582550048828 46.88845062255859 C 93.77582550048828 72.783935546875 72.78337860107422 93.77635192871094 46.88790893554688 93.77635192871094 C 20.99243927001953 93.77635192871094 -7.62939453125e-06 72.783935546875 -7.62939453125e-06 46.88845062255859 L -7.62939453125e-06 46.88790893554688 C -7.62939453125e-06 20.99243927001953 20.99243927001953 -7.62939453125e-06 46.88790893554688 -7.62939453125e-06 Z" stroke="none" fill="#fff"/>
                      </g>
                    </g>
                  </g>
                </g>
              </g>
            </g>
          </g>
        </g>
      </g>
    </g>
    <g id="human-rights_17940469" transform="translate(3801.665 -5760.049)">
      <path id="Path_1271985" data-name="Path 1271985" d="M44.074,395.707a7.874,7.874,0,1,1-15.747,0Z" transform="translate(-6.196 -347.061)" fill="#ffd987" fill-rule="evenodd"/>
      <path id="Path_1271986" data-name="Path 1271986" d="M79.437,58.378h1.75a5.075,5.075,0,0,1,5.06,5.06v2.093H74.377V63.438a5.075,5.075,0,0,1,5.06-5.06Z" transform="translate(-47.002 -48.143)" fill="#88f288" fill-rule="evenodd"/>
      <path id="Path_1271987" data-name="Path 1271987" d="M338.426,58.378h1.75a5.075,5.075,0,0,1,5.06,5.06v2.093H333.366V63.438a5.075,5.075,0,0,1,5.06-5.06Z" transform="translate(-276.501 -48.143)" fill="#88f288" fill-rule="evenodd"/>
      <circle id="Ellipse_13043" data-name="Ellipse 13043" cx="2.7" cy="2.7" r="2.7" transform="translate(60.1 4.834)" fill="#ebdbd6"/>
      <path id="Path_1271988" data-name="Path 1271988" d="M292.377,138.478h1.75a5.075,5.075,0,0,1,5.06,5.06v2.093H287.317v-2.093A5.075,5.075,0,0,1,292.377,138.478Z" transform="translate(-235.695 -119.122)" fill="#ffeb87" fill-rule="evenodd"/>
      <circle id="Ellipse_13044" data-name="Ellipse 13044" cx="2.7" cy="2.7" r="2.7" transform="translate(54.69 14.133) rotate(-3.555)" fill="#ebdbd6"/>
      <path id="Path_1271989" data-name="Path 1271989" d="M384.473,138.478h1.75a5.075,5.075,0,0,1,5.06,5.06v2.093H379.413v-2.093A5.075,5.075,0,0,1,384.473,138.478Z" transform="translate(-317.305 -119.122)" fill="#85caff" fill-rule="evenodd"/>
      <circle id="Ellipse_13045" data-name="Ellipse 13045" cx="2.7" cy="2.7" r="2.7" transform="translate(65.176 14.134) rotate(-3.555)" fill="#ebdbd6"/>
      <circle id="Ellipse_13046" data-name="Ellipse 13046" cx="2.7" cy="2.7" r="2.7" transform="translate(30.61 4.834)" fill="#ebdbd6"/>
      <path id="Path_1271990" data-name="Path 1271990" d="M125.484,138.478h1.75a5.075,5.075,0,0,1,5.06,5.06v2.093H120.424v-2.093A5.075,5.075,0,0,1,125.484,138.478Z" transform="translate(-87.806 -119.122)" fill="#ffd987" fill-rule="evenodd"/>
      <circle id="Ellipse_13047" data-name="Ellipse 13047" cx="2.7" cy="2.7" r="2.7" transform="translate(35.688 14.13) rotate(-3.555)" fill="#ebdbd6"/>
      <path id="Path_1271991" data-name="Path 1271991" d="M68.684,240.667a3.7,3.7,0,0,1-3.7-3.7A2.07,2.07,0,1,1,68.851,238h35.767a2.07,2.07,0,1,1,3.866-1.03,3.7,3.7,0,0,1-3.7,3.7Z" transform="translate(-38.68 -204.562)" fill="#c9b0a9" fill-rule="evenodd"/>
      <path id="Path_1271992" data-name="Path 1271992" d="M361.117,395.707a7.874,7.874,0,1,1-15.747,0Z" transform="translate(-287.138 -347.061)" fill="#ffd987" fill-rule="evenodd"/>
      <path id="Path_1271993" data-name="Path 1271993" d="M33.387,138.478h1.75a5.075,5.075,0,0,1,5.06,5.06v2.093H28.327v-2.093a5.075,5.075,0,0,1,5.06-5.06Z" transform="translate(-6.196 -119.122)" fill="#ff879b" fill-rule="evenodd"/>
      <circle id="Ellipse_13048" data-name="Ellipse 13048" cx="2.7" cy="2.7" r="2.7" transform="translate(25.366 13.955)" fill="#ebdbd6"/>
      <g id="Group_1207397" data-name="Group 1207397" transform="translate(21.335 4.049)">
        <path id="Path_1271994" data-name="Path 1271994" d="M192.958,286.5V276.055a10.3,10.3,0,0,1,1.257-5.047,9.816,9.816,0,0,0,1.158-4.756V261.1l-8.115.035a2.2,2.2,0,0,0-2.189-2.189h-3.228c-1.88,0-2.966.41-3.582,1.239-.857,1.154-.849,3.491-.661,4.85.488,3.527,2.533,6.185,2.679,8.673V286.5h12.68Z" transform="translate(-159.715 -229.92)" fill="#ebdbd6" fill-rule="evenodd"/>
        <path id="Path_1271995" data-name="Path 1271995" d="M222.3,215.82a2.246,2.246,0,0,1,2.24,2.24v4.172a2.24,2.24,0,0,1-4.48,0V218.06a2.246,2.246,0,0,1,2.24-2.24Z" transform="translate(-197.434 -191.706)" fill="#ebdbd6" fill-rule="evenodd"/>
        <path id="Path_1271996" data-name="Path 1271996" d="M182.961,220.493a2.246,2.246,0,0,1,2.24,2.24v4.172a2.24,2.24,0,0,1-4.48,0v-4.172A2.246,2.246,0,0,1,182.961,220.493Z" transform="translate(-162.572 -195.847)" fill="#ebdbd6" fill-rule="evenodd"/>
        <path id="Path_1271997" data-name="Path 1271997" d="M261.644,219.754a2.246,2.246,0,0,1,2.24,2.24v4.172a2.24,2.24,0,0,1-4.48,0v-4.172A2.246,2.246,0,0,1,261.644,219.754Z" transform="translate(-232.296 -195.192)" fill="#ebdbd6" fill-rule="evenodd"/>
        <path id="Path_1271998" data-name="Path 1271998" d="M300.782,231.557a2.041,2.041,0,0,1,2.035,2.035v3.237a2.035,2.035,0,1,1-4.071,0v-3.237a2.041,2.041,0,0,1,2.035-2.035Z" transform="translate(-267.159 -205.651)" fill="#ebdbd6" fill-rule="evenodd"/>
        <path id="Path_1271999" data-name="Path 1271999" d="M22.927,24.417a4.27,4.27,0,0,1,4.265-4.263h1.751a4.27,4.27,0,0,1,4.265,4.263v1.3H22.927ZM63.083,4.049h-.566a3.5,3.5,0,0,0-2.434,5.688,5.868,5.868,0,0,0-3.683,3.62,3.489,3.489,0,0,0-1.559,5.5,5.865,5.865,0,0,0-4.018,5.56v2.093a.8.8,0,0,0,.8.8H73.98a.8.8,0,0,0,.8-.8V24.417a5.864,5.864,0,0,0-4.018-5.559,3.49,3.49,0,0,0-1.559-5.5,5.868,5.868,0,0,0-3.683-3.62,3.5,3.5,0,0,0-2.434-5.688Zm-29.489,0h-.567a3.5,3.5,0,0,0-2.433,5.688,5.868,5.868,0,0,0-3.683,3.62,3.489,3.489,0,0,0-1.559,5.5,5.865,5.865,0,0,0-4.018,5.56v2.093a.8.8,0,0,0,.8.8h22.36a.8.8,0,0,0,.8-.8V24.417a5.864,5.864,0,0,0-4.018-5.559,3.5,3.5,0,0,0-1.559-5.5,5.881,5.881,0,0,0-3.683-3.62,3.5,3.5,0,0,0-2.434-5.688Zm-5.524,10.7a1.9,1.9,0,1,1-1.9,1.9A1.9,1.9,0,0,1,28.069,14.753Zm4.363-3.72a4.273,4.273,0,0,0-3.721,2.187,3.49,3.49,0,0,1,2.069,5.637,5.85,5.85,0,0,1,2.53,1.666,5.926,5.926,0,0,1,2.53-1.662A3.494,3.494,0,0,1,37.9,13.22a4.267,4.267,0,0,0-3.721-2.187H32.433Zm.878-5.4a1.9,1.9,0,1,1-1.9,1.9A1.907,1.907,0,0,1,33.311,5.632Zm7.146,11.024a1.9,1.9,0,1,1-1.9-1.9A1.907,1.907,0,0,1,40.457,16.656Zm3.233,7.761v1.3H34.8v-1.3a5.877,5.877,0,0,0-.56-2.5,4.274,4.274,0,0,1,3.441-1.76h1.751a4.265,4.265,0,0,1,4.259,4.263ZM66.1,55.723a7.084,7.084,0,0,1-7.031-6.279H73.135A7.084,7.084,0,0,1,66.1,55.723Zm0-17.807,4.868,9.934H61.236Zm-8.315-2.69v-.993h8.15a.79.79,0,0,0,.686-.4.78.78,0,0,0,.005-.8,1.273,1.273,0,1,1,2.377-.633,2.9,2.9,0,0,1-2.9,2.9H57.789Zm-2.832,1.238a1.239,1.239,0,0,1-1.24-1.238V31.989a1.238,1.238,0,1,1,2.475,0v3.237A1.238,1.238,0,0,1,54.957,36.463Zm-4.275,0a1.446,1.446,0,0,1-1.092-.5,2.915,2.915,0,0,0-.351-2.249V30.85a1.443,1.443,0,0,1,2.887,0v4.171a1.445,1.445,0,0,1-1.443,1.442ZM44.76,32.275V30.4a1.443,1.443,0,0,1,2.887,0v2.031a2.962,2.962,0,0,0-.955-.158Zm-4.479.651V30.934a1.443,1.443,0,0,1,2.887,0v1.345a6.167,6.167,0,0,0-2.887.647ZM30.007,35.308a2.9,2.9,0,0,1-2.9-2.9,1.273,1.273,0,1,1,2.377.633.8.8,0,0,0,.692,1.194H38.69v.709c-.038.12-.077.243-.11.367H30.007ZM25.139,47.849l4.868-9.934,4.868,9.934Zm4.868,7.873a7.093,7.093,0,0,1-7.036-6.279H37.038A7.088,7.088,0,0,1,30.007,55.722ZM73.98,47.849H72.751L67.306,36.738A4.5,4.5,0,0,0,70.6,32.405a2.865,2.865,0,1,0-5.73,0c0,.078,0,.156.005.233H57.789v-.65a2.837,2.837,0,0,0-2.832-2.831,2.8,2.8,0,0,0-1.509.438,3.035,3.035,0,0,0-4.8-1,3.035,3.035,0,0,0-4.923.052,3.032,3.032,0,0,0-5.033,2.282v1.7H31.231a1.662,1.662,0,0,0,.011-.233,2.868,2.868,0,0,0-5.735,0,4.5,4.5,0,0,0,3.3,4.333L23.36,47.849H22.131a.8.8,0,0,0-.8.8,8.669,8.669,0,1,0,17.338,0,.8.8,0,0,0-.8-.8H36.648L31.286,36.9h7.064a12.833,12.833,0,0,0,.082,2.365A20,20,0,0,0,40,44.294,11.921,11.921,0,0,1,41.1,47.853V60.63a.8.8,0,1,0,1.592,0V47.782a12.949,12.949,0,0,0-1.229-4.1,18.539,18.539,0,0,1-1.454-4.631c-.209-1.5-.1-3.443.51-4.264.291-.393.917-.917,2.942-.917h3.227A1.394,1.394,0,0,1,48.08,35.26a1.549,1.549,0,0,1-1.493,1.4l-2.569.331a.8.8,0,0,0-.346,1.453A8.474,8.474,0,0,1,47.7,45.836a.8.8,0,0,0,1.6,0,9.987,9.987,0,0,0-3.2-7.508l.7-.09a3.523,3.523,0,0,0,1.959-.879,3.025,3.025,0,0,0,4.111-.229,2.838,2.838,0,0,0,2.1.926,2.794,2.794,0,0,0,1.235-.285v2.606a8.95,8.95,0,0,1-1.065,4.38,11.183,11.183,0,0,0-1.35,5.419V60.629a.8.8,0,0,0,1.6,0V50.177a9.446,9.446,0,0,1,1.164-4.671,10.692,10.692,0,0,0,1.251-5.128V36.9h7.036L59.463,47.849H58.234a.793.793,0,0,0-.8.8,8.669,8.669,0,1,0,17.338,0,.8.8,0,0,0-.8-.8Zm-.8-22.137H62.9v-1.3a4.27,4.27,0,0,1,4.265-4.263H68.92a4.27,4.27,0,0,1,4.265,4.263Zm-20.768-1.3a4.27,4.27,0,0,1,4.265-4.263h1.751a4.282,4.282,0,0,1,3.441,1.76,5.875,5.875,0,0,0-.56,2.5v1.3h-8.9v-1.3Zm5.143-9.664a1.9,1.9,0,1,1-1.9,1.9A1.9,1.9,0,0,1,57.559,14.752Zm4.369-3.72h1.745a4.267,4.267,0,0,1,3.721,2.187,3.492,3.492,0,0,0-2.064,5.638,5.845,5.845,0,0,0-2.53,1.665,5.925,5.925,0,0,0-2.53-1.662,3.494,3.494,0,0,0-2.064-5.64,4.267,4.267,0,0,1,3.721-2.187Zm.873-5.4a1.9,1.9,0,1,1-1.9,1.9A1.907,1.907,0,0,1,62.8,5.632Zm7.146,11.024a1.9,1.9,0,1,1-1.9-1.9A1.9,1.9,0,0,1,69.946,16.656Z" transform="translate(-21.335 -4.049)" fill-rule="evenodd"/>
      </g>
    </g>
  </g>
</svg>
