<svg xmlns="http://www.w3.org/2000/svg" xmlns:xlink="http://www.w3.org/1999/xlink" width="126.376" height="126.376" viewBox="0 0 126.376 126.376">
  <defs>
    <filter id="Path_874925" x="0" y="0" width="126.376" height="126.376" filterUnits="userSpaceOnUse">
      <feOffset dy="3" input="SourceAlpha"/>
      <feGaussianBlur stdDeviation="3" result="blur"/>
      <feFlood flood-opacity="0.161"/>
      <feComposite operator="in" in2="blur"/>
      <feComposite in="SourceGraphic"/>
    </filter>
  </defs>
  <g id="Group_1206952" data-name="Group 1206952" transform="translate(5784 8712)">
    <g id="Group_1205990" data-name="Group 1205990" transform="translate(-6880.051 -12584)">
      <g id="Group_1205731" data-name="Group 1205731" transform="translate(359 -295)">
        <g id="Group_1205682" data-name="Group 1205682" transform="translate(461.051 -2077.874)">
          <g id="Group_1200232" data-name="Group 1200232" transform="translate(285 6250.874)">
            <g id="Group_1187153" data-name="Group 1187153">
              <g id="Group_1182177" data-name="Group 1182177">
                <g id="Group_1181903" data-name="Group 1181903">
                  <g id="Group_1181438" data-name="Group 1181438">
                    <g id="Group_1111314" data-name="Group 1111314">
                      <g transform="matrix(1, 0, 0, 1, -9, -6)" filter="url(#Path_874925)">
                        <g id="Path_874925-2" data-name="Path 874925" transform="translate(9 6)" fill="#ffc94a">
                          <path d="M 54.1878662109375 106.8763656616211 C 47.07439041137695 106.8763656616211 40.17448043823242 105.4835205078125 33.67983627319336 102.7365036010742 C 27.40597343444824 100.0828857421875 21.77115821838379 96.28368377685547 16.93191146850586 91.44444274902344 C 12.09268188476562 86.60519409179688 8.293481826782227 80.97038269042969 5.639866352081299 74.696533203125 C 2.892850875854492 68.20187377929688 1.500004649162292 61.30196380615234 1.500004649162292 54.1884880065918 C 1.500004649162292 47.07439422607422 2.892850875854492 40.17448806762695 5.639866352081299 33.67982482910156 C 8.293481826782227 27.40597915649414 12.09268188476562 21.77116394042969 16.93191146850586 16.93191719055176 C 21.77115821838379 12.09267139434814 27.40597343444824 8.293471336364746 33.67983627319336 5.639855861663818 C 40.17448043823242 2.892840623855591 47.07439041137695 1.499994397163391 54.1878662109375 1.499994397163391 C 61.30134201049805 1.499994397163391 68.20124816894531 2.892840623855591 74.69589996337891 5.639855861663818 C 80.96975708007812 8.293471336364746 86.60457611083984 12.09267139434814 91.44381713867188 16.93191719055176 C 96.28305053710938 21.77116394042969 100.0822525024414 27.40597915649414 102.7358627319336 33.67982482910156 C 105.4828796386719 40.17448806762695 106.8757247924805 47.07439422607422 106.8757247924805 54.18787002563477 C 106.8757247924805 61.30196380615234 105.4828796386719 68.20187377929688 102.7358627319336 74.696533203125 C 100.0822525024414 80.97038269042969 96.28305053710938 86.60519409179688 91.44381713867188 91.44444274902344 C 86.60457611083984 96.28368377685547 80.96975708007812 100.0828857421875 74.69589996337891 102.7365036010742 C 68.20124816894531 105.4835205078125 61.30134201049805 106.8763656616211 54.1878662109375 106.8763656616211 Z" stroke="none"/>
                          <path d="M 54.1878662109375 2.999992370605469 C 47.2762336730957 2.999992370605469 40.57291412353516 4.352981567382812 34.26416778564453 7.0213623046875 C 28.16909790039062 9.599342346191406 22.69454956054688 13.29059600830078 17.99258422851562 17.99257659912109 C 13.29059600830078 22.69454193115234 9.599349975585938 28.16909790039062 7.021369934082031 34.26416015625 C 4.352981567382812 40.57292938232422 3 47.27622985839844 3 54.18849563598633 C 3 61.10012817382812 4.352981567382812 67.80344390869141 7.021369934082031 74.11219787597656 C 9.599349975585938 80.20726013183594 13.29059600830078 85.68180847167969 17.99258422851562 90.38378143310547 C 22.69454956054688 95.08576202392578 28.16909790039062 98.77701568603516 34.26416778564453 101.3549957275391 C 40.57291412353516 104.0233764648438 47.2762336730957 105.3763656616211 54.1878662109375 105.3763656616211 C 61.0994987487793 105.3763656616211 67.80281066894531 104.0233764648438 74.11156463623047 101.3549957275391 C 80.20663452148438 98.77701568603516 85.68118286132812 95.08576202392578 90.38314819335938 90.38378143310547 C 95.08512878417969 85.68180847167969 98.77638244628906 80.20726013183594 101.3543701171875 74.11219787597656 C 104.0227508544922 67.80344390869141 105.375732421875 61.10012817382812 105.375732421875 54.1878776550293 C 105.375732421875 47.27622985839844 104.0227508544922 40.57292938232422 101.3543701171875 34.26416015625 C 98.77638244628906 28.16909790039062 95.08512878417969 22.69454193115234 90.38314819335938 17.99257659912109 C 85.68118286132812 13.29059600830078 80.20663452148438 9.599342346191406 74.11156463623047 7.0213623046875 C 67.80281066894531 4.352981567382812 61.0994987487793 2.999992370605469 54.1878662109375 2.999992370605469 M 54.1878662109375 -7.62939453125e-06 C 84.11499786376953 -7.62939453125e-06 108.375732421875 24.26072692871094 108.375732421875 54.1878776550293 L 108.375732421875 54.18849563598633 C 108.375732421875 84.11563110351562 84.11499786376953 108.3763656616211 54.1878662109375 108.3763656616211 C 24.26073455810547 108.3763656616211 0 84.11563110351562 0 54.18849563598633 L 0 54.1878776550293 C 0 24.26072692871094 24.26073455810547 -7.62939453125e-06 54.1878662109375 -7.62939453125e-06 Z" stroke="none" fill="#fff"/>
                        </g>
                      </g>
                    </g>
                  </g>
                </g>
              </g>
            </g>
          </g>
        </g>
      </g>
    </g>
    <g id="servicios-ecologicos" transform="translate(-5752.279 -8684)">
      <path id="Path_1270625" data-name="Path 1270625" d="M59,32a26.778,26.778,0,0,0-.26-3.71l3.98-2.07-2.47-7.6-4.43.66a26.929,26.929,0,0,0-4.37-5.99l2.01-4.02-6.47-4.7L43.8,7.71a27.029,27.029,0,0,0-7.06-2.29L36,1H28l-.74,4.42A27.029,27.029,0,0,0,20.2,7.71L17.01,4.57l-6.47,4.7,2.01,4.02a26.929,26.929,0,0,0-4.37,5.99l-4.43-.66-2.47,7.6,3.98,2.07a26.6,26.6,0,0,0,0,7.42L1.28,37.78l2.47,7.6,4.43-.66a26.929,26.929,0,0,0,4.37,5.99l-2.01,4.02,6.47,4.7,3.19-3.14a27.029,27.029,0,0,0,7.06,2.29L28,63h8l.74-4.42a27.029,27.029,0,0,0,7.06-2.29l3.19,3.14,6.47-4.7-2.01-4.02a26.929,26.929,0,0,0,4.37-5.99l4.43.66,2.47-7.6-3.98-2.07A26.778,26.778,0,0,0,59,32ZM32,56A24,24,0,1,1,56,32,24,24,0,0,1,32,56Z" fill="#b3b3b3"/>
      <path id="Path_1270626" data-name="Path 1270626" d="M32,8A24,24,0,1,0,56,32,24,24,0,0,0,32,8Zm2,44.9a20.049,20.049,0,0,1-4,0,21,21,0,1,1,4,0Z" fill="#a0a0a0"/>
      <path id="Path_1270627" data-name="Path 1270627" d="M44.81,33.35A20.4,20.4,0,0,1,45,36.21C45,48,34,48,34,48V40Z" fill="#5bb234"/>
      <path id="Path_1270628" data-name="Path 1270628" d="M30,40v8S19,48,19,36.21a20.4,20.4,0,0,1,.19-2.86Z" fill="#87cc46"/>
      <path id="Path_1270629" data-name="Path 1270629" d="M41.66,24.49l-7.8,4.96A83.5,83.5,0,0,0,32,15a28.777,28.777,0,0,1,9.66,9.49Z" fill="#5bb234"/>
      <path id="Path_1270630" data-name="Path 1270630" d="M44.81,33.35,34,40V35c0-1.96-.05-3.82-.14-5.55l7.8-4.96a22.164,22.164,0,0,1,3.15,8.86Z" fill="#87cc46"/>
      <path id="Path_1270631" data-name="Path 1270631" d="M33.86,29.45c.09,1.73.14,3.59.14,5.55V52.9a20.049,20.049,0,0,1-4,0V35c0-1.96.05-3.82.14-5.55A83.5,83.5,0,0,1,32,15a83.5,83.5,0,0,1,1.86,14.45Z" fill="#549b2c"/>
      <path id="Path_1270632" data-name="Path 1270632" d="M22.34,24.49l7.8,4.96C30.05,31.18,30,33.04,30,35v5L19.19,33.35a22.164,22.164,0,0,1,3.15-8.86Z" fill="#5bb234"/>
      <path id="Path_1270633" data-name="Path 1270633" d="M32,15a83.5,83.5,0,0,0-1.86,14.45l-7.8-4.96A28.777,28.777,0,0,1,32,15Z" fill="#87cc46"/>
      <g id="Group_1206951" data-name="Group 1206951">
        <path id="Path_1270634" data-name="Path 1270634" d="M32,10a22,22,0,0,0-2.1,43.9A20.371,20.371,0,0,0,32,54a20.132,20.132,0,0,0,2.094-.1A22,22,0,0,0,32,10ZM44,36.21c0,8.717-6.456,10.391-9,10.713V40.559l8.963-5.514c.021.378.037.76.037,1.165Zm-9,2V35c0-1.712-.044-3.39-.118-5.015l6.434-4.091a21.125,21.125,0,0,1,2.4,6.951ZM34.757,27.7a93.324,93.324,0,0,0-1.285-10.54,28.282,28.282,0,0,1,6.806,7.025Zm-5.514,0-5.521-3.51a28.387,28.387,0,0,1,6.805-7.022A93.426,93.426,0,0,0,29.243,27.7Zm-6.559-1.8,6.434,4.091C29.044,31.61,29,33.288,29,35v3.211l-8.721-5.366a21.082,21.082,0,0,1,2.405-6.951Zm-2.647,9.151L29,40.559v6.364c-2.544-.322-9-2-9-10.713,0-.4.016-.786.037-1.165ZM31,51.974V35c0-1.882.047-3.731.139-5.5.184-3.55.524-6.582.861-8.925.338,2.341.677,5.371.861,8.925.092,1.767.139,3.616.139,5.5V51.974A19.623,19.623,0,0,1,31,51.974Zm4-.224V48.921c2.878-.347,11-2.253,11-12.711a20.99,20.99,0,0,0-.2-2.984,23.2,23.2,0,0,0-3.287-9.255,29.578,29.578,0,0,0-10.037-9.85,1,1,0,0,0-.956,0,29.576,29.576,0,0,0-10.036,9.848,23.188,23.188,0,0,0-3.286,9.24,21.1,21.1,0,0,0-.2,3C18,46.667,26.12,48.573,29,48.92v2.83a20,20,0,1,1,6,0Z" fill="#252525"/>
        <path id="Path_1270635" data-name="Path 1270635" d="M63.182,36.894,59.82,35.145a27.565,27.565,0,0,0,0-6.29l3.362-1.749a1,1,0,0,0,.489-1.2l-2.47-7.6a1,1,0,0,0-1.1-.681l-3.744.557a28.067,28.067,0,0,0-3.7-5.076l1.7-3.395a1,1,0,0,0-.306-1.257l-6.47-4.7a1,1,0,0,0-1.289.1L43.6,6.509a28.1,28.1,0,0,0-5.984-1.941L36.986.835A1,1,0,0,0,36,0H28a1,1,0,0,0-.986.835l-.625,3.733A28.1,28.1,0,0,0,20.4,6.509L17.711,3.857a1,1,0,0,0-1.289-.1l-6.47,4.7a1,1,0,0,0-.306,1.257l1.7,3.4a28.067,28.067,0,0,0-3.7,5.076L3.9,17.631a1,1,0,0,0-1.1.681l-2.47,7.6a1,1,0,0,0,.489,1.2L4.18,28.855a27.565,27.565,0,0,0,0,6.29L.818,36.894a1,1,0,0,0-.489,1.2l2.47,7.6a1,1,0,0,0,1.1.681l3.744-.557a28.067,28.067,0,0,0,3.7,5.076l-1.7,3.4a1,1,0,0,0,.306,1.257l6.47,4.7a1,1,0,0,0,1.289-.1L20.4,57.5a28.1,28.1,0,0,0,5.984,1.941l.625,3.733A1,1,0,0,0,28,64h8a1,1,0,0,0,.986-.835l.625-3.733A28.1,28.1,0,0,0,43.6,57.491l2.694,2.652a1,1,0,0,0,1.289.1l6.47-4.7a1,1,0,0,0,.306-1.257l-1.7-3.4a28.067,28.067,0,0,0,3.7-5.076l3.744.557a1,1,0,0,0,1.1-.681l2.47-7.6a1,1,0,0,0-.491-1.192Zm-3.621,7.372-3.593-.536a1.006,1.006,0,0,0-1.029.517,25.99,25.99,0,0,1-4.208,5.769,1,1,0,0,0-.175,1.141l1.631,3.263-5.1,3.7L44.5,55.577a1,1,0,0,0-1.137-.187,26.037,26.037,0,0,1-6.8,2.206,1,1,0,0,0-.811.819L35.153,62H28.847l-.6-3.585a1,1,0,0,0-.811-.819,26.037,26.037,0,0,1-6.8-2.206,1,1,0,0,0-1.137.187l-2.587,2.546-5.1-3.7,1.631-3.263a1,1,0,0,0-.175-1.141A25.99,25.99,0,0,1,9.06,44.25a1,1,0,0,0-1.029-.517l-3.593.536-1.946-5.99L5.722,36.6a1,1,0,0,0,.528-1.025,25.643,25.643,0,0,1,0-7.144A1,1,0,0,0,5.722,27.4L2.493,25.724l1.946-5.99,3.593.536a1.007,1.007,0,0,0,1.029-.517,25.99,25.99,0,0,1,4.208-5.769,1,1,0,0,0,.175-1.141L11.813,9.58l5.1-3.7L19.5,8.423a1,1,0,0,0,1.137.187,26.037,26.037,0,0,1,6.8-2.206,1,1,0,0,0,.811-.819L28.847,2h6.306l.6,3.585a1,1,0,0,0,.811.819,26.037,26.037,0,0,1,6.8,2.206A1,1,0,0,0,44.5,8.423l2.587-2.546,5.1,3.7L50.556,12.84a1,1,0,0,0,.175,1.141,25.99,25.99,0,0,1,4.208,5.769,1.01,1.01,0,0,0,1.029.517l3.593-.536,1.946,5.99L58.278,27.4a1,1,0,0,0-.528,1.025,25.643,25.643,0,0,1,0,7.144,1,1,0,0,0,.528,1.025l3.229,1.679Z" fill="#252525"/>
      </g>
    </g>
  </g>
</svg>
