<svg xmlns="http://www.w3.org/2000/svg" xmlns:xlink="http://www.w3.org/1999/xlink" width="111.776" height="111.776" viewBox="0 0 111.776 111.776">
  <defs>
    <filter id="Path_874925" x="0" y="0" width="111.776" height="111.776" filterUnits="userSpaceOnUse">
      <feOffset dy="3" input="SourceAlpha"/>
      <feGaussianBlur stdDeviation="3" result="blur"/>
      <feFlood flood-opacity="0.161"/>
      <feComposite operator="in" in2="blur"/>
      <feComposite in="SourceGraphic"/>
    </filter>
  </defs>
  <g id="Group_1207396" data-name="Group 1207396" transform="translate(-3794.173 5961.517)">
    <g id="Group_1206769" data-name="Group 1206769" transform="translate(2998.173 -7781.4)">
      <g id="Group_1204844" data-name="Group 1204844" transform="translate(520 -4424.991)">
        <g id="Group_1200232" data-name="Group 1200232" transform="translate(285 6250.874)">
          <g id="Group_1187153" data-name="Group 1187153">
            <g id="Group_1182177" data-name="Group 1182177">
              <g id="Group_1181903" data-name="Group 1181903">
                <g id="Group_1181438" data-name="Group 1181438">
                  <g id="Group_1111314" data-name="Group 1111314">
                    <g transform="matrix(1, 0, 0, 1, -9, -6)" filter="url(#Path_874925)">
                      <g id="Path_874925-2" data-name="Path 874925" transform="translate(9 6)" fill="#dcd9d3">
                        <path d="M 46.88790893554688 92.2763671875 C 40.75992202758789 92.2763671875 34.8160285949707 91.07652282714844 29.22134971618652 88.71018218994141 C 23.81676292419434 86.42423248291016 18.96264266967773 83.15139007568359 14.79381561279297 78.98255157470703 C 10.62497520446777 74.81372833251953 7.35213565826416 69.95960998535156 5.066188812255859 64.55502319335938 C 2.699842214584351 58.9603385925293 1.500002264976501 53.01644515991211 1.500002264976501 46.88844680786133 C 1.500002264976501 40.75992584228516 2.699842214584351 34.81603240966797 5.066188812255859 29.22135353088379 C 7.35213565826416 23.8167667388916 10.62497520446777 18.962646484375 14.79381561279297 14.79381942749023 C 18.96264266967773 10.62497997283936 23.81676292419434 7.352139949798584 29.22134971618652 5.066193103790283 C 34.8160285949707 2.699846506118774 40.75992202758789 1.500006437301636 46.88790893554688 1.500006437301636 C 53.01589584350586 1.500006437301636 58.95978927612305 2.699846506118774 64.55446624755859 5.066193103790283 C 69.95905303955078 7.352139949798584 74.81317901611328 10.62497997283936 78.98200225830078 14.79381942749023 C 83.15084075927734 18.962646484375 86.42368316650391 23.8167667388916 88.70962524414062 29.22135353088379 C 91.07597351074219 34.81603240966797 92.27581787109375 40.75992584228516 92.27581787109375 46.88791275024414 C 92.27581787109375 53.01644515991211 91.07597351074219 58.9603385925293 88.70962524414062 64.55502319335938 C 86.42368316650391 69.95960998535156 83.15084075927734 74.81372833251953 78.98200225830078 78.98255157470703 C 74.81317901611328 83.15139007568359 69.95905303955078 86.42423248291016 64.55446624755859 88.71018218994141 C 58.95978927612305 91.07652282714844 53.01589584350586 92.2763671875 46.88790893554688 92.2763671875 Z" stroke="none"/>
                        <path d="M 46.88790893554688 2.999992370605469 C 40.96175003051758 2.999992370605469 35.2144660949707 4.159965515136719 29.80567932128906 6.44769287109375 C 24.57989501953125 8.658004760742188 19.88602447509766 11.82290649414062 15.85446929931641 15.85446929931641 C 11.82290649414062 19.88602447509766 8.658012390136719 24.57989501953125 6.44769287109375 29.80567932128906 C 4.159965515136719 35.2144660949707 2.999992370605469 40.96175003051758 2.999992370605469 46.88845062255859 C 2.999992370605469 52.81460952758789 4.159965515136719 58.56189346313477 6.44769287109375 63.97069549560547 C 8.658012390136719 69.19646453857422 11.82290649414062 73.89033508300781 15.85446929931641 77.92189025878906 C 19.88602447509766 81.95343780517578 24.57989501953125 85.11833953857422 29.80567932128906 87.32865142822266 C 35.2144660949707 89.61637878417969 40.96175003051758 90.77635192871094 46.88790893554688 90.77635192871094 C 52.81406784057617 90.77635192871094 58.56135177612305 89.61637878417969 63.97013854980469 87.32865142822266 C 69.1959228515625 85.11833953857422 73.88979339599609 81.95343780517578 77.92134857177734 77.92189025878906 C 81.95291137695312 73.89033508300781 85.11781311035156 69.19646453857422 87.328125 63.97069549560547 C 89.61585235595703 58.56189346313477 90.77582550048828 52.81460952758789 90.77582550048828 46.88790893554688 C 90.77582550048828 40.96175003051758 89.61585235595703 35.2144660949707 87.328125 29.80567932128906 C 85.11781311035156 24.57989501953125 81.95291137695312 19.88602447509766 77.92134857177734 15.85446929931641 C 73.88979339599609 11.82290649414062 69.1959228515625 8.658004760742188 63.97013854980469 6.44769287109375 C 58.56135177612305 4.159965515136719 52.81406784057617 2.999992370605469 46.88790893554688 2.999992370605469 M 46.88790893554688 -7.62939453125e-06 C 72.78337860107422 -7.62939453125e-06 93.77582550048828 20.99243927001953 93.77582550048828 46.88790893554688 L 93.77582550048828 46.88845062255859 C 93.77582550048828 72.783935546875 72.78337860107422 93.77635192871094 46.88790893554688 93.77635192871094 C 20.99243927001953 93.77635192871094 -7.62939453125e-06 72.783935546875 -7.62939453125e-06 46.88845062255859 L -7.62939453125e-06 46.88790893554688 C -7.62939453125e-06 20.99243927001953 20.99243927001953 -7.62939453125e-06 46.88790893554688 -7.62939453125e-06 Z" stroke="none" fill="#fff"/>
                      </g>
                    </g>
                  </g>
                </g>
              </g>
            </g>
          </g>
        </g>
      </g>
    </g>
    <g id="investment_11495575" transform="translate(3808.417 -5963.155)">
      <g id="Group_1207394" data-name="Group 1207394" transform="translate(9.297 26.124)">
        <g id="Group_1207360" data-name="Group 1207360" transform="translate(0 38.694)">
          <g id="Group_1207355" data-name="Group 1207355" transform="translate(2.407)">
            <path id="Path_1271960" data-name="Path 1271960" d="M38.572,350.531l7.427-4.3c1.394-.808,2.811-1.38,4.343-.883a52.2,52.2,0,0,0,7.342,2.256,2.063,2.063,0,0,1,1.427,2.471,2,2,0,0,1-2.471,1.427l.994.159a4.63,4.63,0,0,0,3.183-.554l7.141-4.159c5.55-3.233,6.366,1.741,4.52,2.877L59.519,357.8a4.752,4.752,0,0,1-3.848.543l-9.4-2.518-3.481,2.01a1.406,1.406,0,0,1-1.917-.514l-2.815-4.875A1.406,1.406,0,0,1,38.572,350.531Z" transform="translate(-37.873 -345.16)" fill="#f6dccd" fill-rule="evenodd"/>
          </g>
          <g id="Group_1207356" data-name="Group 1207356" transform="translate(15.985 3.585)">
            <path id="Path_1271961" data-name="Path 1271961" d="M154.855,375.843a2.038,2.038,0,0,1-2.3.983c-1.54-.407-3.077-.825-4.616-1.237a.772.772,0,0,1,.4-1.492Z" transform="translate(-147.364 -374.07)" fill="#f1cbbc" fill-rule="evenodd"/>
          </g>
          <g id="Group_1207357" data-name="Group 1207357" transform="translate(2.407)">
            <path id="Path_1271962" data-name="Path 1271962" d="M38.571,350.531l7.427-4.3c1.394-.808,2.811-1.38,4.343-.883.914.3,2.137.775,3.513,1.234l-14.387,8.306-1.408-2.439a1.406,1.406,0,0,1,.512-1.916Z" transform="translate(-37.872 -345.16)" fill="#f1cbbc" fill-rule="evenodd"/>
          </g>
          <g id="Group_1207358" data-name="Group 1207358" transform="translate(0 2.698)">
            <path id="Path_1271963" data-name="Path 1271963" d="M22.429,367.452l5.89,10.407a1.054,1.054,0,0,1-.4,1.433l-2,1.134a1.054,1.054,0,0,1-1.433-.4L18.6,369.622a1.054,1.054,0,0,1,.4-1.433l2-1.134A1.054,1.054,0,0,1,22.429,367.452Z" transform="translate(-18.46 -366.919)" fill="#d1d1d6" fill-rule="evenodd"/>
          </g>
          <g id="Group_1207359" data-name="Group 1207359" transform="translate(2.744 2.698)">
            <path id="Path_1271964" data-name="Path 1271964" d="M44.913,374.6l1.043,1.842,1.031,1.822a1.054,1.054,0,0,1-.394,1.431l.716-.4a1.055,1.055,0,0,0,.4-1.433l-1.034-1.828-2.077-3.67-2.079-3.674-.7-1.236a1.055,1.055,0,0,0-1.224-.487L41.8,369.1l2.077,3.67,1.034,1.828Z" transform="translate(-40.591 -366.919)" fill="#b1b1b5" fill-rule="evenodd"/>
          </g>
        </g>
        <g id="Group_1207370" data-name="Group 1207370" transform="translate(6.326 1.031)">
          <g id="Group_1207363" data-name="Group 1207363" transform="translate(0 19.183)">
            <g id="Group_1207361" data-name="Group 1207361">
              <path id="Path_1271965" data-name="Path 1271965" d="M75.084,196.134H70.092a.621.621,0,0,0-.62.62V210.83H75.7V196.754A.621.621,0,0,0,75.084,196.134Z" transform="translate(-69.472 -196.134)" fill="#fe646f" fill-rule="evenodd"/>
            </g>
            <g id="Group_1207362" data-name="Group 1207362" transform="translate(4.372)">
              <path id="Path_1271966" data-name="Path 1271966" d="M105.966,196.134h-1.24a.621.621,0,0,1,.62.62V210.83h1.24V196.754A.621.621,0,0,0,105.966,196.134Z" transform="translate(-104.726 -196.134)" fill="#fd4755" fill-rule="evenodd"/>
            </g>
          </g>
          <g id="Group_1207366" data-name="Group 1207366" transform="translate(10.356 13.907)">
            <g id="Group_1207364" data-name="Group 1207364">
              <path id="Path_1271967" data-name="Path 1271967" d="M158.592,153.589H153.6a.621.621,0,0,0-.62.62v19.352h6.232V154.209A.621.621,0,0,0,158.592,153.589Z" transform="translate(-152.98 -153.589)" fill="#6cf5c2" fill-rule="evenodd"/>
            </g>
            <g id="Group_1207365" data-name="Group 1207365" transform="translate(4.372)">
              <path id="Path_1271968" data-name="Path 1271968" d="M189.473,153.589h-1.24a.621.621,0,0,1,.62.62v19.352h1.24V154.209A.621.621,0,0,0,189.473,153.589Z" transform="translate(-188.233 -153.589)" fill="#00e499" fill-rule="evenodd"/>
            </g>
          </g>
          <g id="Group_1207369" data-name="Group 1207369" transform="translate(17.548)">
            <g id="Group_1207367" data-name="Group 1207367">
              <path id="Path_1271969" data-name="Path 1271969" d="M216.93,41.584l-5.853,6.634a.408.408,0,0,0,.324.674h2.726V63.4c0,3.973.011,7.949.011,11.923h6.232c0-3.974.011-7.95.011-11.923v-14.5h2.726a.408.408,0,0,0,.324-.674l-5.853-6.634A.436.436,0,0,0,216.93,41.584Z" transform="translate(-210.975 -41.44)" fill="#8ac9fe" fill-rule="evenodd"/>
            </g>
            <g id="Group_1207368" data-name="Group 1207368" transform="translate(5.659 0)">
              <path id="Path_1271970" data-name="Path 1271970" d="M256.908,41.584l-.3.336,5.557,6.3a.408.408,0,0,1-.324.674h1.24a.408.408,0,0,0,.324-.674l-5.853-6.634A.436.436,0,0,0,256.908,41.584Zm2.2,33.735c0-3.974.011-7.95.011-11.923v-14.5h1.24V63.4c0,3.973-.011,7.949-.011,11.923Z" transform="translate(-256.612 -41.44)" fill="#60b7ff" fill-rule="evenodd"/>
            </g>
          </g>
        </g>
        <g id="Group_1207380" data-name="Group 1207380" transform="translate(40.424)">
          <g id="Group_1207373" data-name="Group 1207373" transform="translate(8.742 11.388)">
            <g id="Group_1207371" data-name="Group 1207371">
              <path id="Path_1271971" data-name="Path 1271971" d="M422.444,124.961a7.533,7.533,0,0,0-7.506,6.9,7.536,7.536,0,0,0,8.742-6.8A7.587,7.587,0,0,0,422.444,124.961Z" transform="translate(-414.938 -124.961)" fill="#6cf5c2" fill-rule="evenodd"/>
            </g>
            <g id="Group_1207372" data-name="Group 1207372" transform="translate(0 0.071)">
              <path id="Path_1271972" data-name="Path 1271972" d="M415.139,131.155a7.505,7.505,0,0,0-.2,1.21,7.536,7.536,0,0,0,8.742-6.8l-.2-.03a7.537,7.537,0,0,1-8.341,5.621Z" transform="translate(-414.938 -125.534)" fill="#00e499" fill-rule="evenodd"/>
            </g>
          </g>
          <g id="Group_1207376" data-name="Group 1207376" transform="translate(0 11.388)">
            <g id="Group_1207374" data-name="Group 1207374">
              <path id="Path_1271973" data-name="Path 1271973" d="M345.677,124.961a7.533,7.533,0,0,1,7.506,6.9,7.536,7.536,0,0,1-8.742-6.8A7.587,7.587,0,0,1,345.677,124.961Z" transform="translate(-344.441 -124.961)" fill="#6cf5c2" fill-rule="evenodd"/>
            </g>
            <g id="Group_1207375" data-name="Group 1207375" transform="translate(0 0.071)">
              <path id="Path_1271974" data-name="Path 1271974" d="M352.982,131.155a7.505,7.505,0,0,1,.2,1.21,7.536,7.536,0,0,1-8.742-6.8l.2-.03a7.537,7.537,0,0,0,8.341,5.621Z" transform="translate(-344.441 -125.534)" fill="#00e499" fill-rule="evenodd"/>
            </g>
          </g>
          <g id="Group_1207379" data-name="Group 1207379" transform="translate(6.014)">
            <g id="Group_1207377" data-name="Group 1207377">
              <path id="Path_1271975" data-name="Path 1271975" d="M396.436,34.006a6.748,6.748,0,0,1-.769,9.882,7.8,7.8,0,0,1-.929-.876,6.748,6.748,0,0,1,.769-9.882A7.8,7.8,0,0,1,396.436,34.006Z" transform="translate(-392.939 -33.13)" fill="#6cf5c2" fill-rule="evenodd"/>
            </g>
            <g id="Group_1207378" data-name="Group 1207378" transform="translate(0 4.7)">
              <path id="Path_1271976" data-name="Path 1271976" d="M398.209,71.148a6.893,6.893,0,0,1-2.539,5.94,7.805,7.805,0,0,1-.929-.876,6.752,6.752,0,0,1-1.77-5.182,6.857,6.857,0,0,0,1.77,3.942,7.806,7.806,0,0,0,.929.876A7.009,7.009,0,0,0,398.209,71.148Z" transform="translate(-392.943 -71.03)" fill="#00e499" fill-rule="evenodd"/>
            </g>
          </g>
        </g>
        <g id="Group_1207390" data-name="Group 1207390" transform="translate(41.543 21.279)">
          <g id="Group_1207383" data-name="Group 1207383">
            <g id="Group_1207381" data-name="Group 1207381" transform="translate(0 0)">
              <path id="Path_1271977" data-name="Path 1271977" d="M355.3,209.759a1.846,1.846,0,0,1-1.84-1.84v-1.351a1.846,1.846,0,0,1,1.84-1.84h11.566a1.846,1.846,0,0,1,1.84,1.84v1.351a1.846,1.846,0,0,1-1.84,1.84,1.846,1.846,0,0,1,1.84,1.84v1.351a1.846,1.846,0,0,1-1.84,1.84,1.846,1.846,0,0,1,1.84,1.84v1.351a1.846,1.846,0,0,1-1.84,1.84,1.846,1.846,0,0,1,1.84,1.84v1.351a1.846,1.846,0,0,1-1.84,1.84,1.846,1.846,0,0,1,1.84,1.84v1.351a1.846,1.846,0,0,1-1.84,1.84H355.3a1.846,1.846,0,0,1-1.84-1.84v-1.351a1.846,1.846,0,0,1,1.84-1.84,1.846,1.846,0,0,1-1.84-1.84v-1.351a1.846,1.846,0,0,1,1.84-1.84,1.846,1.846,0,0,1-1.84-1.84v-1.351a1.846,1.846,0,0,1,1.84-1.84,1.846,1.846,0,0,1-1.84-1.84V211.6A1.846,1.846,0,0,1,355.3,209.759Z" transform="translate(-353.462 -204.728)" fill="#ffe177" fill-rule="evenodd"/>
            </g>
            <g id="Group_1207382" data-name="Group 1207382" transform="translate(12.167)">
              <path id="Path_1271978" data-name="Path 1271978" d="M451.573,204.727h1.24a1.846,1.846,0,0,1,1.84,1.84v1.351a1.846,1.846,0,0,1-1.84,1.84,1.846,1.846,0,0,1,1.84,1.84v1.351a1.846,1.846,0,0,1-1.84,1.84,1.846,1.846,0,0,1,1.84,1.84v1.351a1.846,1.846,0,0,1-1.84,1.84,1.846,1.846,0,0,1,1.84,1.84v1.351a1.846,1.846,0,0,1-1.84,1.84,1.846,1.846,0,0,1,1.84,1.84v1.351a1.846,1.846,0,0,1-1.84,1.84h-1.24a1.846,1.846,0,0,0,1.84-1.84v-1.351a1.846,1.846,0,0,0-1.84-1.84,1.846,1.846,0,0,0,1.84-1.84v-1.351a1.846,1.846,0,0,0-1.84-1.84,1.846,1.846,0,0,0,1.84-1.84V216.63a1.846,1.846,0,0,0-1.84-1.84,1.846,1.846,0,0,0,1.84-1.84V211.6a1.846,1.846,0,0,0-1.84-1.84,1.846,1.846,0,0,0,1.84-1.84v-1.351A1.846,1.846,0,0,0,451.573,204.727Z" transform="translate(-451.573 -204.727)" fill="#ffd064" fill-rule="evenodd"/>
            </g>
          </g>
          <g id="Group_1207386" data-name="Group 1207386" transform="translate(0 5.031)">
            <g id="Group_1207384" data-name="Group 1207384">
              <path id="Path_1271979" data-name="Path 1271979" d="M366.869,245.3H355.3a1.846,1.846,0,0,0-1.84,1.84v1.351a1.846,1.846,0,0,0,1.84,1.84h11.566a1.846,1.846,0,0,0,1.84-1.84V247.14A1.846,1.846,0,0,0,366.869,245.3Z" transform="translate(-353.462 -245.3)" fill="#ffc338" fill-rule="evenodd"/>
            </g>
            <g id="Group_1207385" data-name="Group 1207385" transform="translate(12.167)">
              <path id="Path_1271980" data-name="Path 1271980" d="M452.813,245.3h-1.24a1.846,1.846,0,0,1,1.84,1.84v1.351a1.846,1.846,0,0,1-1.84,1.84h1.24a1.846,1.846,0,0,0,1.84-1.84V247.14A1.846,1.846,0,0,0,452.813,245.3Z" transform="translate(-451.573 -245.3)" fill="#f5b829" fill-rule="evenodd"/>
            </g>
          </g>
          <g id="Group_1207389" data-name="Group 1207389" transform="translate(0 15.094)">
            <g id="Group_1207387" data-name="Group 1207387">
              <path id="Path_1271981" data-name="Path 1271981" d="M366.869,326.447H355.3a1.846,1.846,0,0,0-1.84,1.84v1.351a1.846,1.846,0,0,0,1.84,1.84h11.566a1.846,1.846,0,0,0,1.84-1.84v-1.351A1.845,1.845,0,0,0,366.869,326.447Z" transform="translate(-353.462 -326.447)" fill="#ffc338" fill-rule="evenodd"/>
            </g>
            <g id="Group_1207388" data-name="Group 1207388" transform="translate(12.167)">
              <path id="Path_1271982" data-name="Path 1271982" d="M452.813,326.447h-1.24a1.846,1.846,0,0,1,1.84,1.84v1.351a1.846,1.846,0,0,1-1.84,1.84h1.24a1.846,1.846,0,0,0,1.84-1.84v-1.351A1.845,1.845,0,0,0,452.813,326.447Z" transform="translate(-451.573 -326.447)" fill="#f5b829" fill-rule="evenodd"/>
            </g>
          </g>
        </g>
        <g id="Group_1207393" data-name="Group 1207393" transform="translate(42.425 38.454)">
          <g id="Group_1207391" data-name="Group 1207391">
            <circle id="Ellipse_13042" data-name="Ellipse 13042" cx="7.623" cy="7.623" r="7.623" transform="translate(0 3.507) rotate(-13.3)" fill="#ffc338"/>
          </g>
          <g id="Group_1207392" data-name="Group 1207392" transform="translate(8.519 1.574)">
            <path id="Path_1271983" data-name="Path 1271983" d="M429.92,355.914a7.623,7.623,0,0,1,0,15.247c-.22,0-.437-.01-.653-.028a7.623,7.623,0,0,0,0-15.191c.215-.018.433-.028.653-.028Z" transform="translate(-429.267 -355.914)" fill="#f5b829" fill-rule="evenodd"/>
          </g>
        </g>
      </g>
      <g id="Group_1207395" data-name="Group 1207395" transform="translate(7.999 25.133)">
        <path id="Path_1271984" data-name="Path 1271984" d="M16.614,47.331h4.248V60.042H16.614Zm10.357-5.275h4.247V60.042H26.971ZM37.32,47.82q-.005-6.605-.006-13.213a.992.992,0,0,0-.992-.992H34.875l4.574-5.183,4.573,5.183H42.577a.993.993,0,0,0-.992.992q0,6.607-.006,13.213,0,6.11-.005,12.222H37.325Q37.325,53.932,37.32,47.82ZM47.888,60.042h-4.33q0-6.11.005-12.221T43.568,35.6H45.3A1.417,1.417,0,0,0,46.6,34.77a1.377,1.377,0,0,0-.227-1.492l-5.853-6.634a1.428,1.428,0,0,0-2.135,0l-5.853,6.634A1.372,1.372,0,0,0,32.3,34.77,1.417,1.417,0,0,0,33.6,35.6H35.33q0,6.113.006,12.222t0,12.221H33.2V41.063a.991.991,0,0,0-.992-.992H25.978a.992.992,0,0,0-.992.992V60.042h-2.14v-13.7a.991.991,0,0,0-.992-.992H15.622a.992.992,0,0,0-.992.992v13.7H12.569a.992.992,0,0,0,0,1.985H47.888a.992.992,0,1,0,0-1.985Zm16.422,15.4a2.437,2.437,0,0,1-.574,1.941,3.416,3.416,0,0,1-1.85,1.028V78.6a.992.992,0,1,1-1.984,0v-.208a3.218,3.218,0,0,1-2.417-2.325.992.992,0,1,1,1.926-.48,1.459,1.459,0,0,0,1.559.942,1.871,1.871,0,0,0,1.266-.446.463.463,0,0,0,.106-.4c-.026-.211-.086-.7-1.6-.953-2.542-.418-2.988-1.868-3.028-2.7a2.824,2.824,0,0,1,2.19-2.853v-.227a.992.992,0,0,1,1.984,0v.218a3.215,3.215,0,0,1,2.167,1.906.992.992,0,0,1-1.829.769,1.432,1.432,0,0,0-1.688-.78c-.205.046-.873.246-.842.87.008.152.03.615,1.368.835,1.98.325,3.074,1.224,3.249,2.671Zm-3.417,4.967a6.631,6.631,0,1,0-6.632-6.631A6.639,6.639,0,0,0,60.892,80.407Zm-9.061-9.686V69.37a.849.849,0,0,1,.849-.848h1.391a8.591,8.591,0,0,0-1.5,3.038A.849.849,0,0,1,51.831,70.721Zm0-6.383a.85.85,0,0,1,.849-.848H64.246a.85.85,0,0,1,.849.848V65.69a.84.84,0,0,1-.155.482,8.591,8.591,0,0,0-8.71.366H52.68a.85.85,0,0,1-.849-.848Zm0-5.031a.85.85,0,0,1,.849-.849H64.246a.85.85,0,0,1,.849.849v1.35a.849.849,0,0,1-.849.848H52.68a.849.849,0,0,1-.849-.848Zm0-5.031a.849.849,0,0,1,.849-.848H64.246a.849.849,0,0,1,.849.848v1.351a.85.85,0,0,1-.849.848H52.68a.85.85,0,0,1-.849-.848Zm0-5.032a.85.85,0,0,1,.849-.848H64.246a.85.85,0,0,1,.849.848V50.6a.85.85,0,0,1-.849.848H52.68a.85.85,0,0,1-.849-.848ZM50.866,38.5h.09a6.581,6.581,0,0,1,5.721,3.385L54.7,40.449a.992.992,0,1,0-1.167,1.6L55.01,43.13A6.6,6.6,0,0,1,50.866,38.5Zm5.875-7.45a5.869,5.869,0,0,1,1.579-3.576c.058.061.117.123.173.186h0a5.794,5.794,0,0,1,1.532,4.288,5.681,5.681,0,0,1-.571,2.11V31.5a.992.992,0,0,0-1.984,0v2.723A5.631,5.631,0,0,1,56.741,31.054ZM66.06,38.5a6.6,6.6,0,0,1-4.145,4.626L63.4,42.054a.992.992,0,1,0-1.167-1.6L60.248,41.89A6.586,6.586,0,0,1,66.06,38.5Zm.508,28.8a8.613,8.613,0,1,1-14.292,6.473c0-.085,0-.168.006-.252a2.836,2.836,0,0,1-2.436-2.8V69.37a2.823,2.823,0,0,1,.681-1.84,2.822,2.822,0,0,1-.681-1.84V64.338a2.824,2.824,0,0,1,.681-1.84,2.822,2.822,0,0,1-.681-1.84v-1.35a2.821,2.821,0,0,1,.681-1.84,2.823,2.823,0,0,1-.681-1.84V54.276a2.82,2.82,0,0,1,.681-1.84,2.825,2.825,0,0,1-.681-1.84V49.244a2.836,2.836,0,0,1,2.833-2.832h4.79V45.5c-.08,0-.163.005-.243.005A8.522,8.522,0,0,1,48.732,37.7a.991.991,0,0,1,.827-1.061,8.61,8.61,0,0,1,1.4-.114,8.5,8.5,0,0,1,5.787,2.266,8.673,8.673,0,0,1,.727.762v-2.21a8.668,8.668,0,0,1-.674-.67,7.754,7.754,0,0,1-2.035-5.754,7.962,7.962,0,0,1,2.9-5.55,1,1,0,0,1,1.259-.015,8.717,8.717,0,0,1,1.047.988A7.758,7.758,0,0,1,62,32.091a7.912,7.912,0,0,1-2.551,5.236v2.222a8.873,8.873,0,0,1,.728-.762A8.5,8.5,0,0,1,65.97,36.52a8.635,8.635,0,0,1,1.4.114.99.99,0,0,1,.827,1.061A8.521,8.521,0,0,1,59.7,45.508c-.081,0-.162,0-.244-.005v.909h4.792a2.836,2.836,0,0,1,2.833,2.832V50.6a2.823,2.823,0,0,1-.681,1.84,2.818,2.818,0,0,1,.681,1.84v1.351a2.82,2.82,0,0,1-.681,1.84,2.818,2.818,0,0,1,.681,1.84v1.35A2.819,2.819,0,0,1,66.4,62.5a2.821,2.821,0,0,1,.681,1.84V65.69a2.835,2.835,0,0,1-.51,1.613Zm-54.1,2.769a.724.724,0,1,1-.821-.612A.724.724,0,0,1,12.465,70.072ZM46.081,68.7,32.955,76.778a3.839,3.839,0,0,1-3.12.437l-9.52-2.551a.992.992,0,0,0-.753.1l-1.142.658-3.234-5.714,5.092-2.948c1.554-.9,2.6-1.135,3.6-.81.434.14.939.322,1.521.534a37.987,37.987,0,0,0,5.969,1.77,1.09,1.09,0,0,1,.739,1.285c-.057.212-.231.851-1.281.735-1.045-.216-2.046-.5-3.1-.8-.51-.145-1.035-.295-1.579-.441a.993.993,0,0,0-.513,1.918c.527.141,1.045.288,1.546.433,1.111.316,2.16.616,3.3.848l.02,0,.02,0,.9.146a5.645,5.645,0,0,0,3.88-.684l7.233-4.213c1.865-1.087,3.326-1.261,3.81-.453a1.351,1.351,0,0,1-.25,1.664ZM18.087,79.011a.076.076,0,0,0,.027-.1L12.149,68.37a.077.077,0,0,0-.044-.034.075.075,0,0,0-.023,0,.069.069,0,0,0-.032.008l-2.03,1.149a.077.077,0,0,0-.027.1l5.967,10.542a.079.079,0,0,0,.1.027Zm23.435-13.24-7.232,4.213c-.1.057-.2.109-.3.156.009-.028.016-.058.025-.086a3.091,3.091,0,0,0-2.1-3.7.924.924,0,0,0-.129-.033,35.907,35.907,0,0,1-5.723-1.7c-.576-.208-1.118-.4-1.584-.556a6.276,6.276,0,0,0-5.2.98L14.209,67.98l-.334-.588a2.059,2.059,0,0,0-2.8-.778l-2.03,1.149a2.06,2.06,0,0,0-.776,2.8l5.966,10.541a2.04,2.04,0,0,0,1.242.968,2.069,2.069,0,0,0,.554.075,2.029,2.029,0,0,0,1.007-.267l2.03-1.148a2.062,2.062,0,0,0,.776-2.8l-.444-.783.8-.463,9.124,2.446a6.236,6.236,0,0,0,1.612.217A5.791,5.791,0,0,0,34,78.469l13.126-8.083a3.316,3.316,0,0,0,.913-4.372C47.614,65.312,45.9,63.22,41.523,65.771Z" transform="translate(-7.999 -25.133)" fill="#242222" fill-rule="evenodd"/>
      </g>
    </g>
  </g>
</svg>
