<svg xmlns="http://www.w3.org/2000/svg" xmlns:xlink="http://www.w3.org/1999/xlink" width="111.776" height="111.776" viewBox="0 0 111.776 111.776">
  <defs>
    <filter id="Path_874925" x="0" y="0" width="111.776" height="111.776" filterUnits="userSpaceOnUse">
      <feOffset dy="3" input="SourceAlpha"/>
      <feGaussianBlur stdDeviation="3" result="blur"/>
      <feFlood flood-opacity="0.161"/>
      <feComposite operator="in" in2="blur"/>
      <feComposite in="SourceGraphic"/>
    </filter>
  </defs>
  <g id="Group_1207117" data-name="Group 1207117" transform="translate(-587.051 -1410)">
    <g id="Group_1206254" data-name="Group 1206254" transform="translate(-208.949 -409.883)">
      <g id="Group_1204844" data-name="Group 1204844" transform="translate(520 -4424.991)">
        <g id="Group_1200232" data-name="Group 1200232" transform="translate(285 6250.874)">
          <g id="Group_1187153" data-name="Group 1187153">
            <g id="Group_1182177" data-name="Group 1182177">
              <g id="Group_1181903" data-name="Group 1181903">
                <g id="Group_1181438" data-name="Group 1181438">
                  <g id="Group_1111314" data-name="Group 1111314">
                    <g transform="matrix(1, 0, 0, 1, -9, -6)" filter="url(#Path_874925)">
                      <g id="Path_874925-2" data-name="Path 874925" transform="translate(9 6)" fill="#ffc94a">
                        <path d="M 46.88790893554688 92.2763671875 C 40.75992202758789 92.2763671875 34.8160285949707 91.07652282714844 29.22134971618652 88.71018218994141 C 23.81676292419434 86.42423248291016 18.96264266967773 83.15139007568359 14.79381561279297 78.98255157470703 C 10.62497520446777 74.81372833251953 7.35213565826416 69.95960998535156 5.066188812255859 64.55502319335938 C 2.699842214584351 58.9603385925293 1.500002264976501 53.01644515991211 1.500002264976501 46.88844680786133 C 1.500002264976501 40.75992584228516 2.699842214584351 34.81603240966797 5.066188812255859 29.22135353088379 C 7.35213565826416 23.8167667388916 10.62497520446777 18.962646484375 14.79381561279297 14.79381942749023 C 18.96264266967773 10.62497997283936 23.81676292419434 7.352139949798584 29.22134971618652 5.066193103790283 C 34.8160285949707 2.699846506118774 40.75992202758789 1.500006437301636 46.88790893554688 1.500006437301636 C 53.01589584350586 1.500006437301636 58.95978927612305 2.699846506118774 64.55446624755859 5.066193103790283 C 69.95905303955078 7.352139949798584 74.81317901611328 10.62497997283936 78.98200225830078 14.79381942749023 C 83.15084075927734 18.962646484375 86.42368316650391 23.8167667388916 88.70962524414062 29.22135353088379 C 91.07597351074219 34.81603240966797 92.27581787109375 40.75992584228516 92.27581787109375 46.88791275024414 C 92.27581787109375 53.01644515991211 91.07597351074219 58.9603385925293 88.70962524414062 64.55502319335938 C 86.42368316650391 69.95960998535156 83.15084075927734 74.81372833251953 78.98200225830078 78.98255157470703 C 74.81317901611328 83.15139007568359 69.95905303955078 86.42423248291016 64.55446624755859 88.71018218994141 C 58.95978927612305 91.07652282714844 53.01589584350586 92.2763671875 46.88790893554688 92.2763671875 Z" stroke="none"/>
                        <path d="M 46.88790893554688 2.999992370605469 C 40.96175003051758 2.999992370605469 35.2144660949707 4.159965515136719 29.80567932128906 6.44769287109375 C 24.57989501953125 8.658004760742188 19.88602447509766 11.82290649414062 15.85446929931641 15.85446929931641 C 11.82290649414062 19.88602447509766 8.658012390136719 24.57989501953125 6.44769287109375 29.80567932128906 C 4.159965515136719 35.2144660949707 2.999992370605469 40.96175003051758 2.999992370605469 46.88845062255859 C 2.999992370605469 52.81460952758789 4.159965515136719 58.56189346313477 6.44769287109375 63.97069549560547 C 8.658012390136719 69.19646453857422 11.82290649414062 73.89033508300781 15.85446929931641 77.92189025878906 C 19.88602447509766 81.95343780517578 24.57989501953125 85.11833953857422 29.80567932128906 87.32865142822266 C 35.2144660949707 89.61637878417969 40.96175003051758 90.77635192871094 46.88790893554688 90.77635192871094 C 52.81406784057617 90.77635192871094 58.56135177612305 89.61637878417969 63.97013854980469 87.32865142822266 C 69.1959228515625 85.11833953857422 73.88979339599609 81.95343780517578 77.92134857177734 77.92189025878906 C 81.95291137695312 73.89033508300781 85.11781311035156 69.19646453857422 87.328125 63.97069549560547 C 89.61585235595703 58.56189346313477 90.77582550048828 52.81460952758789 90.77582550048828 46.88790893554688 C 90.77582550048828 40.96175003051758 89.61585235595703 35.2144660949707 87.328125 29.80567932128906 C 85.11781311035156 24.57989501953125 81.95291137695312 19.88602447509766 77.92134857177734 15.85446929931641 C 73.88979339599609 11.82290649414062 69.1959228515625 8.658004760742188 63.97013854980469 6.44769287109375 C 58.56135177612305 4.159965515136719 52.81406784057617 2.999992370605469 46.88790893554688 2.999992370605469 M 46.88790893554688 -7.62939453125e-06 C 72.78337860107422 -7.62939453125e-06 93.77582550048828 20.99243927001953 93.77582550048828 46.88790893554688 L 93.77582550048828 46.88845062255859 C 93.77582550048828 72.783935546875 72.78337860107422 93.77635192871094 46.88790893554688 93.77635192871094 C 20.99243927001953 93.77635192871094 -7.62939453125e-06 72.783935546875 -7.62939453125e-06 46.88845062255859 L -7.62939453125e-06 46.88790893554688 C -7.62939453125e-06 20.99243927001953 20.99243927001953 -7.62939453125e-06 46.88790893554688 -7.62939453125e-06 Z" stroke="none" fill="#fff"/>
                      </g>
                    </g>
                  </g>
                </g>
              </g>
            </g>
          </g>
        </g>
      </g>
    </g>
    <g id="Layer_66" transform="translate(613.836 1429.173)">
      <g id="Group_1207116" data-name="Group 1207116" transform="translate(0 0)">
        <g id="Group_1206970" data-name="Group 1206970" transform="translate(4.669 30.314)">
          <g id="Group_1206969" data-name="Group 1206969">
            <path id="Path_1270863" data-name="Path 1270863" d="M23.279,126.855a2.788,2.788,0,0,1-2.151-.524,7.97,7.97,0,0,0,.574,4.592c.914,2.285-2.531,4.185-2.227,7.372l3.439-.868a5.975,5.975,0,0,0,1.18-.434l1.686-.831a1.9,1.9,0,0,0,1.058-1.7v-2.068a6.846,6.846,0,0,1-3.559-5.537Z" transform="translate(-19.456 -126.331)" fill="#fcdd86"/>
          </g>
        </g>
        <g id="Group_1206972" data-name="Group 1206972" transform="translate(0.6 41.469)">
          <g id="Group_1206971" data-name="Group 1206971">
            <path id="Path_1270864" data-name="Path 1270864" d="M26.652,176.309a2.454,2.454,0,0,1-2.808-1.962c-2.505,4.4-5.048,2.341-6.132,1.089a.536.536,0,0,1-.131-.344h-.773a.536.536,0,0,1-.131.344c-1.193,1.378-4.153,3.731-6.886-2.619L5.15,173.989a2.8,2.8,0,0,0-2.11,2.557L2.5,191.357a.777.777,0,0,0,.776.821H7.6a.526.526,0,0,0,.526-.526v-9.258l.763,2.443a16.557,16.557,0,0,1,.752,4.934v1.881a.526.526,0,0,0,.526.526H20.589L20.818,188a2.325,2.325,0,0,1,1.754-2.126l2.841-.715c.159-.547.287-.931.855-2.762v2.546l.879-.221,1.363-.672A2.126,2.126,0,0,0,29.9,182.1v-.915a5.912,5.912,0,0,1-3.248-4.872Z" transform="translate(-2.5 -172.817)" fill="#fc657e"/>
          </g>
        </g>
        <g id="Group_1206974" data-name="Group 1206974" transform="translate(15.678 40.341)">
          <g id="Group_1206973" data-name="Group 1206973">
            <path id="Path_1270865" data-name="Path 1270865" d="M71.869,169.112a14.913,14.913,0,0,1-2.216-1,9.07,9.07,0,0,1-3.91,2.849.559.559,0,0,0-.272.9c1.083,1.252,3.626,3.307,6.132-1.089A2.442,2.442,0,0,1,71.869,169.112Z" transform="translate(-65.337 -168.114)" fill="#edf4fc"/>
          </g>
        </g>
        <g id="Group_1206976" data-name="Group 1206976" transform="translate(7.893 40.341)">
          <g id="Group_1206975" data-name="Group 1206975">
            <path id="Path_1270866" data-name="Path 1270866" d="M39.5,170.963a9.068,9.068,0,0,1-3.91-2.849l-1.289.635a5.969,5.969,0,0,1-1.18.434l-.234.059c2.733,6.35,5.693,4,6.886,2.619A.559.559,0,0,0,39.5,170.963Z" transform="translate(-32.891 -168.114)" fill="#edf4fc"/>
          </g>
        </g>
        <g id="Group_1206978" data-name="Group 1206978" transform="translate(10.596 36.375)">
          <g id="Group_1206977" data-name="Group 1206977">
            <path id="Path_1270867" data-name="Path 1270867" d="M53.158,155.358a1.9,1.9,0,0,1-1.058-1.7v-2.068a6.782,6.782,0,0,1-6.489,0v2.068a1.9,1.9,0,0,1-1.058,1.7l-.4.2a9.07,9.07,0,0,0,3.91,2.849.567.567,0,0,1,.4.554h.773a.567.567,0,0,1,.4-.554,9.068,9.068,0,0,0,3.91-2.849Z" transform="translate(-44.156 -151.589)" fill="#f9d0b4"/>
          </g>
        </g>
        <g id="Group_1206983" data-name="Group 1206983" transform="translate(0 40.869)">
          <g id="Group_1206980" data-name="Group 1206980" transform="translate(22.953 9.576)">
            <g id="Group_1206979" data-name="Group 1206979">
              <path id="Path_1270868" data-name="Path 1270868" d="M97.158,210.232a.6.6,0,0,0-.663.415c-.219.705-.372,1.2-.488,1.563-.161.513-.247.789-.331,1.074a1.082,1.082,0,0,0,1.992-.038v-2.42a.6.6,0,0,0-.51-.593Z" transform="translate(-95.652 -210.225)"/>
            </g>
          </g>
          <g id="Group_1206982" data-name="Group 1206982">
            <g id="Group_1206981" data-name="Group 1206981">
              <path id="Path_1270869" data-name="Path 1270869" d="M18.689,189.678H8.337v-1.807a17.139,17.139,0,0,0-.78-5.113l-.763-2.443a.6.6,0,0,0-1.172.179v9.184H1.378a.177.177,0,0,1-.129-.055.185.185,0,0,1-.048-.143l.538-14.8A2.187,2.187,0,0,1,3.4,172.671L8.04,171.5a.6.6,0,1,0-.294-1.163L3.1,171.507a3.385,3.385,0,0,0-2.563,3.117L0,189.424a1.377,1.377,0,0,0,1.375,1.454H5.7a1.127,1.127,0,0,0,1.126-1.125v-5.037a15.931,15.931,0,0,1,.315,3.155v1.882a1.127,1.127,0,0,0,1.125,1.125H18.69a.6.6,0,1,0,0-1.2Z" transform="translate(0 -170.318)"/>
            </g>
          </g>
        </g>
        <g id="Group_1206985" data-name="Group 1206985" transform="translate(18.54 30.314)">
          <g id="Group_1206984" data-name="Group 1206984">
            <path id="Path_1270870" data-name="Path 1270870" d="M82.971,126.33a2.788,2.788,0,0,1-2.151.524,6.845,6.845,0,0,1-3.559,5.537v2.068a1.9,1.9,0,0,0,1.058,1.7l1.686.831a5.956,5.956,0,0,0,.927.363,2.474,2.474,0,0,1,.615-.725h0v-2.142a7.855,7.855,0,0,1,.851-3.563v0A7.969,7.969,0,0,0,82.971,126.33Z" transform="translate(-77.261 -126.33)" fill="#fcdd86"/>
          </g>
        </g>
        <g id="Group_1206987" data-name="Group 1206987" transform="translate(22.099 25.182)">
          <g id="Group_1206986" data-name="Group 1206986">
            <path id="Path_1270871" data-name="Path 1270871" d="M92.55,104.944a2.831,2.831,0,0,0-.438.035v5.164c0,.154-.007.306-.017.457a2.846,2.846,0,1,0,.455-5.656Z" transform="translate(-92.095 -104.944)" fill="#f9d0b4"/>
          </g>
        </g>
        <g id="Group_1206989" data-name="Group 1206989" transform="translate(8.474 22.798)">
          <g id="Group_1206988" data-name="Group 1206988">
            <path id="Path_1270872" data-name="Path 1270872" d="M48.538,96.56a5.654,5.654,0,0,1-2.489-1.433.453.453,0,0,0-.65.036c-1.039,1.213-4.722,4.891-10.083,3.364v4.062a6.821,6.821,0,0,0,13.642,0V97.079A.535.535,0,0,0,48.538,96.56Z" transform="translate(-35.316 -95.007)" fill="#f9d0b4"/>
          </g>
        </g>
        <g id="Group_1206991" data-name="Group 1206991" transform="translate(5.189 25.722)">
          <g id="Group_1206990" data-name="Group 1206990">
            <path id="Path_1270873" data-name="Path 1270873" d="M24.91,111.85v-4.062a11.086,11.086,0,0,1-1.443-.524.868.868,0,0,0-.943.162,2.839,2.839,0,0,0,2.4,4.881C24.917,112.156,24.91,112,24.91,111.85Z" transform="translate(-21.624 -107.191)" fill="#f9d0b4"/>
          </g>
        </g>
        <g id="Group_1206993" data-name="Group 1206993" transform="translate(6.02 15.076)">
          <g id="Group_1206992" data-name="Group 1206992">
            <path id="Path_1270874" data-name="Path 1270874" d="M34.364,62.829A9.3,9.3,0,0,0,25.089,72.1V73.78c.023-.023.044-.048.068-.071a.867.867,0,0,1,.943-.162,11.084,11.084,0,0,0,1.443.524C32.9,75.6,36.588,71.92,37.627,70.707a.453.453,0,0,1,.65-.036A5.654,5.654,0,0,0,40.766,72.1a.535.535,0,0,1,.419.52v.347a2.835,2.835,0,0,1,2.454.8V72.1a9.3,9.3,0,0,0-9.275-9.275Z" transform="translate(-25.089 -62.829)" fill="#fcdd86"/>
          </g>
        </g>
        <g id="Group_1206995" data-name="Group 1206995" transform="translate(21.678 24.582)">
          <g id="Group_1206994" data-name="Group 1206994">
            <path id="Path_1270875" data-name="Path 1270875" d="M91.216,102.444c-.107,0-.212.005-.316.015a.6.6,0,0,0,.111,1.195c.067-.006.135-.01.2-.01a2.248,2.248,0,1,1,0,4.5,1.981,1.981,0,0,1-.211-.012.6.6,0,0,0-.129,1.193,3.144,3.144,0,0,0,.341.019,3.448,3.448,0,0,0,0-6.9Z" transform="translate(-90.34 -102.444)"/>
          </g>
        </g>
        <g id="Group_1206997" data-name="Group 1206997" transform="translate(12.815 32.035)">
          <g id="Group_1206996" data-name="Group 1206996">
            <path id="Path_1270876" data-name="Path 1270876" d="M58.349,133.644a.6.6,0,0,0-.845.074,2.14,2.14,0,0,1-3.041,0,.6.6,0,1,0-.92.771,3.332,3.332,0,0,0,4.88,0A.6.6,0,0,0,58.349,133.644Z" transform="translate(-53.403 -133.504)"/>
          </g>
        </g>
        <g id="Group_1207000" data-name="Group 1207000" transform="translate(7.875 22.198)">
          <g id="Group_1206999" data-name="Group 1206999">
            <g id="Group_1206998" data-name="Group 1206998">
              <path id="Path_1270877" data-name="Path 1270877" d="M46.774,94.075a5.151,5.151,0,0,1-2.221-1.292,1.068,1.068,0,0,0-.779-.274,1.039,1.039,0,0,0-.73.364c-.949,1.107-4.435,4.61-9.464,3.178a.6.6,0,0,0-.764.577v4.062a7.421,7.421,0,1,0,14.842,0v-5.51A1.131,1.131,0,0,0,46.774,94.075Zm-.316,6.614a6.221,6.221,0,1,1-12.442,0v-3.3c5.139,1.058,8.7-2.333,9.839-3.623a6.246,6.246,0,0,0,2.6,1.464Z" transform="translate(-32.816 -92.507)"/>
            </g>
          </g>
        </g>
        <g id="Group_1207002" data-name="Group 1207002" transform="translate(4.589 25.121)">
          <g id="Group_1207001" data-name="Group 1207001">
            <path id="Path_1270878" data-name="Path 1270878" d="M21.325,105.91a11.754,11.754,0,0,0,1.521.552.6.6,0,1,0,.329-1.154,10.515,10.515,0,0,1-1.365-.5,1.462,1.462,0,0,0-1.6.274,3.445,3.445,0,0,0,2.359,5.958c.1,0,.191-.005.285-.014a.6.6,0,0,0-.111-1.195c-.058.005-.116.008-.175.008a2.25,2.25,0,0,1-2.248-2.248,2.222,2.222,0,0,1,.71-1.636.267.267,0,0,1,.291-.051Z" transform="translate(-19.125 -104.687)"/>
          </g>
        </g>
        <g id="Group_1207004" data-name="Group 1207004" transform="translate(5.42 14.477)">
          <g id="Group_1207003" data-name="Group 1207003">
            <path id="Path_1270879" data-name="Path 1270879" d="M32.464,60.329A9.886,9.886,0,0,0,22.589,70.2v1.534a.6.6,0,1,0,1.2,0V70.2a8.675,8.675,0,1,1,17.351,0V71.7a.6.6,0,0,0,1.2,0V70.2A9.886,9.886,0,0,0,32.464,60.329Z" transform="translate(-22.589 -60.329)"/>
          </g>
        </g>
        <g id="Group_1207006" data-name="Group 1207006" transform="translate(23.075 29.859)">
          <g id="Group_1207005" data-name="Group 1207005">
            <path id="Path_1270880" data-name="Path 1270880" d="M97.955,124.929a.6.6,0,0,0-1.181.21,7.647,7.647,0,0,1-.568,4.119l-.01.026a.6.6,0,0,0,1.123.423l0-.012A8.71,8.71,0,0,0,97.955,124.929Z" transform="translate(-96.162 -124.434)"/>
          </g>
        </g>
        <g id="Group_1207008" data-name="Group 1207008" transform="translate(4.069 29.858)">
          <g id="Group_1207007" data-name="Group 1207007">
            <path id="Path_1270881" data-name="Path 1270881" d="M20.359,129.253a7.643,7.643,0,0,1-.568-4.121.6.6,0,0,0-1.181-.211,8.709,8.709,0,0,0,.634,4.777c.331.829-.108,1.617-.853,2.834a7.1,7.1,0,0,0-1.427,4.21.6.6,0,0,0,.6.563H17.6a.6.6,0,0,0,.562-.636,6.073,6.073,0,0,1,1.253-3.51c.745-1.218,1.515-2.477.944-3.906Z" transform="translate(-16.956 -124.427)"/>
          </g>
        </g>
        <g id="Group_1207011" data-name="Group 1207011" transform="translate(15.078 39.741)">
          <g id="Group_1207010" data-name="Group 1207010">
            <g id="Group_1207009" data-name="Group 1207009">
              <path id="Path_1270882" data-name="Path 1270882" d="M70.524,166.987a.6.6,0,0,0-.384-.349,5.42,5.42,0,0,1-.834-.326l-1.289-.635a.6.6,0,0,0-.721.148,8.509,8.509,0,0,1-3.632,2.666,1.172,1.172,0,0,0-.784.8,1.143,1.143,0,0,0,.236,1.065,4.547,4.547,0,0,0,3.248,1.8q.146,0,.3-.014c1.316-.129,2.515-1.127,3.563-2.966a.6.6,0,0,0,.068-.41,1.837,1.837,0,0,1,.2-1.255.6.6,0,0,0,.032-.518Zm-1.447,1.766c-.813,1.367-1.665,2.1-2.535,2.188a3.28,3.28,0,0,1-2.474-1.321,9.332,9.332,0,0,0,3.829-2.666l.878.433q.194.1.4.179a3.017,3.017,0,0,0-.1,1.186Z" transform="translate(-62.836 -165.615)"/>
            </g>
          </g>
        </g>
        <g id="Group_1207014" data-name="Group 1207014" transform="translate(7.293 39.741)">
          <g id="Group_1207013" data-name="Group 1207013">
            <g id="Group_1207012" data-name="Group 1207012">
              <path id="Path_1270883" data-name="Path 1270883" d="M38.566,169.289a1.172,1.172,0,0,0-.784-.8,8.509,8.509,0,0,1-3.632-2.666.6.6,0,0,0-.721-.148l-1.289.635a5.373,5.373,0,0,1-1.062.39l-.234.059a.6.6,0,0,0-.4.819c1.19,2.765,2.6,4.291,4.182,4.536a2.9,2.9,0,0,0,.444.034,4.483,4.483,0,0,0,3.264-1.8A1.144,1.144,0,0,0,38.566,169.289Zm-3.761,1.642c-1.027-.159-2.05-1.26-2.979-3.2a6.552,6.552,0,0,0,.844-.345l.878-.433a9.33,9.33,0,0,0,3.829,2.666A3.189,3.189,0,0,1,34.805,170.931Z" transform="translate(-30.391 -165.615)"/>
            </g>
          </g>
        </g>
        <g id="Group_1207016" data-name="Group 1207016" transform="translate(17.94 35.979)">
          <g id="Group_1207015" data-name="Group 1207015">
            <path id="Path_1270884" data-name="Path 1270884" d="M77.083,153.762l-.4-.2a1.288,1.288,0,0,1-.723-1.163v-1.865a.6.6,0,1,0-1.2,0V152.4a2.481,2.481,0,0,0,1.392,2.239l.4.2a.6.6,0,1,0,.531-1.076Z" transform="translate(-74.762 -149.938)"/>
          </g>
        </g>
        <g id="Group_1207018" data-name="Group 1207018" transform="translate(14.351 43.144)">
          <g id="Group_1207017" data-name="Group 1207017">
            <path id="Path_1270885" data-name="Path 1270885" d="M61.1,179.8h-.688a.6.6,0,1,0,0,1.2H61.1a.6.6,0,1,0,0-1.2Z" transform="translate(-59.807 -179.797)"/>
          </g>
        </g>
        <g id="Group_1207020" data-name="Group 1207020" transform="translate(9.996 35.994)">
          <g id="Group_1207019" data-name="Group 1207019">
            <path id="Path_1270886" data-name="Path 1270886" d="M43.711,150a.6.6,0,0,0-.6.6v1.85a1.288,1.288,0,0,1-.723,1.163l-.4.2a.6.6,0,1,0,.531,1.076l.4-.2a2.48,2.48,0,0,0,1.392-2.239V150.6A.6.6,0,0,0,43.711,150Z" transform="translate(-41.655 -150)"/>
          </g>
        </g>
        <g id="Group_1207022" data-name="Group 1207022" transform="translate(38.187 21.611)">
          <g id="Group_1207021" data-name="Group 1207021">
            <path id="Path_1270887" data-name="Path 1270887" d="M173.618,92.43a.388.388,0,0,0-.374-.381,7.536,7.536,0,0,1-5.2-1.877.39.39,0,0,0-.579.036,7.847,7.847,0,0,1-7.857,2.582.386.386,0,0,0-.467.373v5.829a7.24,7.24,0,1,0,14.48,0V92.543C173.619,92.506,173.619,92.468,173.618,92.43Z" transform="translate(-159.139 -90.06)" fill="#f9c1a8"/>
          </g>
        </g>
        <g id="Group_1207024" data-name="Group 1207024" transform="translate(35.836 14.866)">
          <g id="Group_1207023" data-name="Group 1207023">
            <path id="Path_1270888" data-name="Path 1270888" d="M164.6,63.388a4.093,4.093,0,0,0-2.113.59,4.14,4.14,0,0,0-3.547-2.024h-2.124a7.5,7.5,0,0,0-7.473,7.473v3.349a3,3,0,0,1,2.351-.626V71.8a.386.386,0,0,1,.467-.373,7.847,7.847,0,0,0,7.857-2.582.39.39,0,0,1,.579-.036,7.538,7.538,0,0,0,5.2,1.877.388.388,0,0,1,.374.381c0,.038,0,.075,0,.113v.968a3,3,0,0,1,2.561.811V67.524A4.148,4.148,0,0,0,164.6,63.388Z" transform="translate(-149.343 -61.954)" fill="#414344"/>
          </g>
        </g>
        <g id="Group_1207026" data-name="Group 1207026" transform="translate(52.649 25.025)">
          <g id="Group_1207025" data-name="Group 1207025">
            <path id="Path_1270889" data-name="Path 1270889" d="M219.89,104.29a2.994,2.994,0,0,0-.465.037v5.481c0,.163-.007.325-.018.485a3.021,3.021,0,1,0,.483-6Z" transform="translate(-219.407 -104.29)" fill="#f9c1a8"/>
          </g>
        </g>
        <g id="Group_1207028" data-name="Group 1207028" transform="translate(34.699 25.025)">
          <g id="Group_1207027" data-name="Group 1207027">
            <path id="Path_1270890" data-name="Path 1270890" d="M148.092,109.807v-5.481a3.024,3.024,0,1,0,.018,5.966C148.1,110.132,148.092,109.971,148.092,109.807Z" transform="translate(-144.605 -104.289)" fill="#f9c1a8"/>
          </g>
        </g>
        <g id="Group_1207030" data-name="Group 1207030" transform="translate(33.429 36.908)">
          <g id="Group_1207029" data-name="Group 1207029">
            <path id="Path_1270891" data-name="Path 1270891" d="M165.911,162.291a2.857,2.857,0,0,0-2.155-2.612l-5.623-1.415-1.987-.98a2.5,2.5,0,0,1-1.4-2.243v-1.232a7.19,7.19,0,0,1-6.671.108v1.124a2.5,2.5,0,0,1-1.4,2.243l-1.8.886a2.458,2.458,0,0,1-2.5,3.692h0a5.913,5.913,0,0,1-3.077,4.784v1A2.128,2.128,0,0,0,140.7,169.6l1.363.672,4.576,1.152a2.325,2.325,0,0,1,1.754,2.125l.229,4.182h17.295a.794.794,0,0,0,.793-.838Z" transform="translate(-139.312 -153.808)" fill="#70d6f9"/>
          </g>
        </g>
        <g id="Group_1207032" data-name="Group 1207032" transform="translate(40.489 36.908)">
          <g id="Group_1207031" data-name="Group 1207031">
            <path id="Path_1270892" data-name="Path 1270892" d="M178.507,157.284a2.5,2.5,0,0,1-1.4-2.243v-1.232a7.19,7.19,0,0,1-6.671.108v1.124a2.5,2.5,0,0,1-1.4,2.243l-.312.154a5.66,5.66,0,0,0,10.086,0Z" transform="translate(-168.734 -153.808)" fill="#f9c1a8"/>
          </g>
        </g>
        <g id="Group_1207035" data-name="Group 1207035" transform="translate(37.587 21.012)">
          <g id="Group_1207034" data-name="Group 1207034">
            <g id="Group_1207033" data-name="Group 1207033">
              <path id="Path_1270893" data-name="Path 1270893" d="M172.316,90.52a.985.985,0,0,0-.956-.968,6.985,6.985,0,0,1-4.8-1.706.99.99,0,0,0-1.469.092,7.2,7.2,0,0,1-7.265,2.368.99.99,0,0,0-.827.2.979.979,0,0,0-.363.765V97.1a7.84,7.84,0,1,0,15.68,0V90.52Zm-1.2,6.574a6.64,6.64,0,0,1-13.28,0V91.529a8.459,8.459,0,0,0,8.051-2.67,8.175,8.175,0,0,0,5.229,1.884Z" transform="translate(-156.637 -87.563)"/>
            </g>
          </g>
        </g>
        <g id="Group_1207039" data-name="Group 1207039" transform="translate(35.236 14.267)">
          <g id="Group_1207038" data-name="Group 1207038">
            <g id="Group_1207037" data-name="Group 1207037">
              <g id="Group_1207036" data-name="Group 1207036">
                <path id="Path_1270894" data-name="Path 1270894" d="M162.7,60.889a4.688,4.688,0,0,0-1.918.413,4.76,4.76,0,0,0-3.741-1.847h-2.124a8.082,8.082,0,0,0-8.073,8.073v3.349a.6.6,0,0,0,.975.468,2.4,2.4,0,0,1,1.511-.532,2.457,2.457,0,0,1,.373.03.6.6,0,0,0,.692-.593v-.085a8.46,8.46,0,0,0,8.051-2.67,8.175,8.175,0,0,0,5.229,1.884v.87a.6.6,0,0,0,.692.593,2.457,2.457,0,0,1,.373-.03,2.41,2.41,0,0,1,1.68.68.6.6,0,0,0,1.016-.432V65.625A4.741,4.741,0,0,0,162.7,60.889Zm3.536,9.048a3.6,3.6,0,0,0-1.361-.321v-.459a.985.985,0,0,0-.956-.968,6.985,6.985,0,0,1-4.8-1.706.99.99,0,0,0-1.469.092,7.2,7.2,0,0,1-7.265,2.368.99.99,0,0,0-.827.2.976.976,0,0,0-.319.472,3.622,3.622,0,0,0-1.195.237V67.528a6.881,6.881,0,0,1,6.873-6.873h2.124a3.56,3.56,0,0,1,3.032,1.733.6.6,0,0,0,.823.206,3.523,3.523,0,0,1,5.34,3.031Z" transform="translate(-146.842 -59.455)"/>
              </g>
            </g>
          </g>
        </g>
        <g id="Group_1207041" data-name="Group 1207041" transform="translate(54.96 48.226)">
          <g id="Group_1207040" data-name="Group 1207040">
            <path id="Path_1270895" data-name="Path 1270895" d="M229.639,200.974a.6.6,0,0,0-.6.6v11.818a.6.6,0,1,0,1.2,0V201.574A.6.6,0,0,0,229.639,200.974Z" transform="translate(-229.039 -200.974)"/>
          </g>
        </g>
        <g id="Group_1207043" data-name="Group 1207043" transform="translate(34.904 48.226)">
          <g id="Group_1207042" data-name="Group 1207042">
            <path id="Path_1270896" data-name="Path 1270896" d="M146.059,200.974a.6.6,0,0,0-.6.6v4.105a.6.6,0,1,0,1.2,0v-4.105A.6.6,0,0,0,146.059,200.974Z" transform="translate(-145.459 -200.974)"/>
          </g>
        </g>
        <g id="Group_1207046" data-name="Group 1207046" transform="translate(52.049 24.426)">
          <g id="Group_1207045" data-name="Group 1207045">
            <g id="Group_1207044" data-name="Group 1207044">
              <path id="Path_1270897" data-name="Path 1270897" d="M217.989,101.79a3.659,3.659,0,0,0-.556.044.6.6,0,0,0-.508.593v5.481c0,.132-.005.273-.017.445a.6.6,0,0,0,.5.633,3.621,3.621,0,1,0,.578-7.2Zm.135,6.042v-4.838a2.423,2.423,0,0,1,0,4.838Z" transform="translate(-216.906 -101.79)"/>
            </g>
          </g>
        </g>
        <g id="Group_1207049" data-name="Group 1207049" transform="translate(34.1 24.425)">
          <g id="Group_1207048" data-name="Group 1207048">
            <g id="Group_1207047" data-name="Group 1207047">
              <path id="Path_1270898" data-name="Path 1270898" d="M146.792,107.907v-5.481a.6.6,0,0,0-.508-.593,3.622,3.622,0,1,0-.556,7.2,3.614,3.614,0,0,0,.578-.05.6.6,0,0,0,.5-.633C146.8,108.18,146.792,108.039,146.792,107.907Zm-1.2-.076a2.423,2.423,0,0,1,0-4.838Z" transform="translate(-142.105 -101.789)"/>
            </g>
          </g>
        </g>
        <g id="Group_1207054" data-name="Group 1207054" transform="translate(38.49 36.554)">
          <g id="Group_1207051" data-name="Group 1207051" transform="translate(0 0.033)">
            <g id="Group_1207050" data-name="Group 1207050">
              <path id="Path_1270899" data-name="Path 1270899" d="M164.11,152.469a.6.6,0,0,0-.6.6v.954a1.889,1.889,0,0,1-1.06,1.705l-1.711.844a.6.6,0,1,0,.531,1.076l1.711-.844a3.082,3.082,0,0,0,1.73-2.781v-.954A.6.6,0,0,0,164.11,152.469Z" transform="translate(-160.404 -152.469)"/>
            </g>
          </g>
          <g id="Group_1207053" data-name="Group 1207053" transform="translate(3.651)">
            <g id="Group_1207052" data-name="Group 1207052">
              <path id="Path_1270900" data-name="Path 1270900" d="M194.9,175.738l-.8-14.6a3.443,3.443,0,0,0-2.608-3.161l-5.561-1.4-1.93-.952a1.89,1.89,0,0,1-1.06-1.705v-.986a.6.6,0,1,0-1.2,0v.986a3.083,3.083,0,0,0,1.73,2.781l1.987.98a.6.6,0,0,0,.119.044l5.623,1.415a2.247,2.247,0,0,1,1.7,2.063l.8,14.6a.195.195,0,0,1-.194.205H176.217a.6.6,0,1,0,0,1.2h17.295a1.394,1.394,0,0,0,1.392-1.471Z" transform="translate(-175.617 -152.333)"/>
            </g>
          </g>
        </g>
        <g id="Group_1207056" data-name="Group 1207056" transform="translate(39.97 40.089)">
          <g id="Group_1207055" data-name="Group 1207055">
            <path id="Path_1270901" data-name="Path 1270901" d="M177.369,167.177a.6.6,0,0,0-.817.228,5.059,5.059,0,0,1-8.856-.032.6.6,0,1,0-1.049.581,6.258,6.258,0,0,0,10.951.039.6.6,0,0,0-.228-.817Z" transform="translate(-166.571 -167.063)"/>
          </g>
        </g>
        <g id="Group_1207058" data-name="Group 1207058" transform="translate(42.984 32.059)">
          <g id="Group_1207057" data-name="Group 1207057">
            <path id="Path_1270902" data-name="Path 1270902" d="M184.11,133.74a.6.6,0,0,0-.845.075,2.165,2.165,0,0,1-3.077,0,.6.6,0,0,0-.92.77,3.356,3.356,0,0,0,4.916,0,.6.6,0,0,0-.074-.845Z" transform="translate(-179.128 -133.6)"/>
          </g>
        </g>
        <g id="Group_1207060" data-name="Group 1207060" transform="translate(47.611 27.37)">
          <g id="Group_1207059" data-name="Group 1207059">
            <path id="Path_1270903" data-name="Path 1270903" d="M199.364,114.06a.953.953,0,1,0,.953.953A.953.953,0,0,0,199.364,114.06Z" transform="translate(-198.411 -114.06)"/>
          </g>
        </g>
        <g id="Group_1207062" data-name="Group 1207062" transform="translate(41.669 27.37)">
          <g id="Group_1207061" data-name="Group 1207061">
            <path id="Path_1270904" data-name="Path 1270904" d="M174.6,114.06a.953.953,0,1,0,.953.953A.953.953,0,0,0,174.6,114.06Z" transform="translate(-173.649 -114.06)"/>
          </g>
        </g>
        <g id="Group_1207064" data-name="Group 1207064" transform="translate(17.376 27.85)">
          <g id="Group_1207063" data-name="Group 1207063">
            <path id="Path_1270905" data-name="Path 1270905" d="M73.364,116.06a.953.953,0,1,0,.953.953A.953.953,0,0,0,73.364,116.06Z" transform="translate(-72.411 -116.06)"/>
          </g>
        </g>
        <g id="Group_1207066" data-name="Group 1207066" transform="translate(11.434 27.85)">
          <g id="Group_1207065" data-name="Group 1207065">
            <path id="Path_1270906" data-name="Path 1270906" d="M48.6,116.06a.953.953,0,1,0,.953.953A.953.953,0,0,0,48.6,116.06Z" transform="translate(-47.649 -116.06)"/>
          </g>
        </g>
        <g id="Group_1207068" data-name="Group 1207068" transform="translate(24.737 36.836)">
          <g id="Group_1207067" data-name="Group 1207067">
            <path id="Path_1270907" data-name="Path 1270907" d="M114.227,156.116h-.007a5.6,5.6,0,0,1-4.511-2.279.793.793,0,0,0-1.282,0,5.6,5.6,0,0,1-4.511,2.279l-.175,0a.631.631,0,0,0-.65.632v4.495a5.892,5.892,0,0,0,11.784,0v-4.491A.638.638,0,0,0,114.227,156.116Z" transform="translate(-103.09 -153.51)" fill="#f9c1a8"/>
          </g>
        </g>
        <g id="Group_1207070" data-name="Group 1207070" transform="translate(22.824 30.582)">
          <g id="Group_1207069" data-name="Group 1207069">
            <path id="Path_1270908" data-name="Path 1270908" d="M103.008,127.447a7.891,7.891,0,0,0-7.891,7.891v2.142a2.443,2.443,0,0,1,1.913-.509v-.035a.631.631,0,0,1,.65-.632l.175,0a5.6,5.6,0,0,0,4.511-2.279.793.793,0,0,1,1.282,0,5.6,5.6,0,0,0,4.511,2.279h.007a.638.638,0,0,1,.647.633v.03a2.445,2.445,0,0,1,2.084.66v-2.293A7.89,7.89,0,0,0,103.008,127.447Z" transform="translate(-95.117 -127.447)" fill="#414344"/>
          </g>
        </g>
        <g id="Group_1207072" data-name="Group 1207072" transform="translate(36.506 40.075)">
          <g id="Group_1207071" data-name="Group 1207071">
            <path id="Path_1270909" data-name="Path 1270909" d="M152.527,167.009a2.457,2.457,0,0,0-.378.03v4.46c0,.133-.006.264-.015.4a2.459,2.459,0,1,0,.393-4.886Z" transform="translate(-152.134 -167.009)" fill="#f9c1a8"/>
          </g>
        </g>
        <g id="Group_1207074" data-name="Group 1207074" transform="translate(21.899 40.075)">
          <g id="Group_1207073" data-name="Group 1207073">
            <path id="Path_1270910" data-name="Path 1270910" d="M94.1,171.5v-4.46a2.461,2.461,0,1,0,.015,4.855C94.106,171.764,94.1,171.632,94.1,171.5Z" transform="translate(-91.262 -167.009)" fill="#f9c1a8"/>
          </g>
        </g>
        <g id="Group_1207076" data-name="Group 1207076" transform="translate(18.689 49.745)">
          <g id="Group_1207075" data-name="Group 1207075">
            <path id="Path_1270911" data-name="Path 1270911" d="M101.706,214.209a2.325,2.325,0,0,0-1.754-2.125l-4.576-1.152-1.617-.8a2.035,2.035,0,0,1-1.135-1.826v-1a5.851,5.851,0,0,1-5.429.088v.915a2.036,2.036,0,0,1-1.135,1.826l-1.617.8-4.576,1.152a2.325,2.325,0,0,0-1.754,2.126l-.229,4.181h24.052Z" transform="translate(-77.884 -207.306)" fill="#f5c84c"/>
          </g>
        </g>
        <g id="Group_1207078" data-name="Group 1207078" transform="translate(26.611 49.745)">
          <g id="Group_1207077" data-name="Group 1207077">
            <path id="Path_1270912" data-name="Path 1270912" d="M118.851,210.135a2.035,2.035,0,0,1-1.135-1.826v-1a5.851,5.851,0,0,1-5.429.088v.915a2.036,2.036,0,0,1-1.135,1.826l-.254.125a4.606,4.606,0,0,0,8.208,0Z" transform="translate(-110.898 -207.306)" fill="#f9c1a8"/>
          </g>
        </g>
        <g id="Group_1207080" data-name="Group 1207080" transform="translate(38.276 57.227)">
          <g id="Group_1207079" data-name="Group 1207079">
            <path id="Path_1270913" data-name="Path 1270913" d="M160.108,238.487a.6.6,0,0,0-.6.6v2.939a.6.6,0,1,0,1.2,0v-2.939A.6.6,0,0,0,160.108,238.487Z" transform="translate(-159.508 -238.487)"/>
          </g>
        </g>
        <g id="Group_1207082" data-name="Group 1207082" transform="translate(21.954 57.227)">
          <g id="Group_1207081" data-name="Group 1207081">
            <path id="Path_1270914" data-name="Path 1270914" d="M92.092,238.487a.6.6,0,0,0-.6.6v2.939a.6.6,0,0,0,1.2,0v-2.939A.6.6,0,0,0,92.092,238.487Z" transform="translate(-91.492 -238.487)"/>
          </g>
        </g>
        <g id="Group_1207084" data-name="Group 1207084" transform="translate(36.019 39.476)">
          <g id="Group_1207083" data-name="Group 1207083">
            <path id="Path_1270915" data-name="Path 1270915" d="M150.983,164.509a2.983,2.983,0,0,0-.346.02.6.6,0,1,0,.138,1.192,1.8,1.8,0,0,1,.208-.012,1.86,1.86,0,0,1,0,3.72,1.667,1.667,0,0,1-.206-.014.6.6,0,1,0-.149,1.19,2.85,2.85,0,0,0,.355.023,3.06,3.06,0,1,0,0-6.119Z" transform="translate(-150.102 -164.509)"/>
          </g>
        </g>
        <g id="Group_1207086" data-name="Group 1207086" transform="translate(21.3 39.476)">
          <g id="Group_1207085" data-name="Group 1207085">
            <path id="Path_1270916" data-name="Path 1270916" d="M92.645,169.956a.6.6,0,0,0-.657-.536c-.054.005-.109.009-.165.009a1.86,1.86,0,0,1,0-3.72c.05,0,.1,0,.148.006a.6.6,0,1,0,.1-1.2c-.082-.007-.166-.011-.25-.011a3.06,3.06,0,0,0,0,6.12,2.744,2.744,0,0,0,.286-.015A.6.6,0,0,0,92.645,169.956Z" transform="translate(-88.763 -164.509)"/>
          </g>
        </g>
        <g id="Group_1207088" data-name="Group 1207088" transform="translate(18.089 49.342)">
          <g id="Group_1207087" data-name="Group 1207087">
            <path id="Path_1270917" data-name="Path 1270917" d="M100.4,212.9a2.913,2.913,0,0,0-2.206-2.674l-4.514-1.136-1.56-.769a1.426,1.426,0,0,1-.8-1.287v-.807a.6.6,0,0,0-1.2,0v.806a2.619,2.619,0,0,0,1.47,2.364l1.617.8a.612.612,0,0,0,.119.044l4.576,1.152a1.717,1.717,0,0,1,1.3,1.576l.195,3.549H76.616l.195-3.548a1.717,1.717,0,0,1,1.3-1.577l4.576-1.152a.6.6,0,0,0,.119-.044l1.617-.8a2.618,2.618,0,0,0,1.47-2.364v-.706a.6.6,0,0,0-1.2,0v.706a1.426,1.426,0,0,1-.8,1.287l-1.56.769-4.514,1.136a2.913,2.913,0,0,0-2.206,2.675l-.229,4.182a.6.6,0,0,0,.6.633h24.052a.6.6,0,0,0,.6-.633Z" transform="translate(-75.382 -205.626)"/>
          </g>
        </g>
        <g id="Group_1207090" data-name="Group 1207090" transform="translate(26.111 52.234)">
          <g id="Group_1207089" data-name="Group 1207089">
            <path id="Path_1270918" data-name="Path 1270918" d="M117.742,217.753a.6.6,0,0,0-.816.232,4,4,0,0,1-6.991.042.6.6,0,0,0-1.041.6,5.2,5.2,0,0,0,9.08-.054A.6.6,0,0,0,117.742,217.753Z" transform="translate(-108.814 -217.677)"/>
          </g>
        </g>
        <g id="Group_1207092" data-name="Group 1207092" transform="translate(28.529 45.687)">
          <g id="Group_1207091" data-name="Group 1207091">
            <path id="Path_1270919" data-name="Path 1270919" d="M123.129,190.535a.6.6,0,0,0-.845.074,1.65,1.65,0,0,1-2.332,0,.6.6,0,1,0-.92.771,2.842,2.842,0,0,0,4.171,0A.6.6,0,0,0,123.129,190.535Z" transform="translate(-118.892 -190.395)"/>
          </g>
        </g>
        <g id="Group_1207094" data-name="Group 1207094" transform="translate(32.406 41.983)">
          <g id="Group_1207093" data-name="Group 1207093">
            <path id="Path_1270920" data-name="Path 1270920" d="M135.824,174.96a.775.775,0,1,0,.775.775A.775.775,0,0,0,135.824,174.96Z" transform="translate(-135.049 -174.96)"/>
          </g>
        </g>
        <g id="Group_1207096" data-name="Group 1207096" transform="translate(27.571 41.983)">
          <g id="Group_1207095" data-name="Group 1207095">
            <path id="Path_1270921" data-name="Path 1270921" d="M115.673,174.96a.775.775,0,1,0,.775.775A.775.775,0,0,0,115.673,174.96Z" transform="translate(-114.898 -174.96)"/>
          </g>
        </g>
        <g id="Group_1207098" data-name="Group 1207098" transform="translate(24.137 36.237)">
          <g id="Group_1207097" data-name="Group 1207097">
            <path id="Path_1270922" data-name="Path 1270922" d="M113.213,153.982a1.222,1.222,0,0,0-.887-.365,5.1,5.1,0,0,1-4.035-2.035,1.393,1.393,0,0,0-2.247,0,5.029,5.029,0,0,1-4.029,2.035l-.155,0a1.231,1.231,0,0,0-1.269,1.231v4.495a6.492,6.492,0,1,0,12.984,0V154.85A1.219,1.219,0,0,0,113.213,153.982Zm-.84,5.359a5.292,5.292,0,0,1-10.584,0v-4.5s0-.015.03-.032q.1,0,.194,0a6.234,6.234,0,0,0,4.994-2.522.194.194,0,0,1,.318,0,6.234,6.234,0,0,0,4.994,2.522h.008c.02,0,.031.008.046.034Z" transform="translate(-100.589 -151.012)"/>
          </g>
        </g>
        <g id="Group_1207100" data-name="Group 1207100" transform="translate(22.224 29.982)">
          <g id="Group_1207099" data-name="Group 1207099">
            <path id="Path_1270923" data-name="Path 1270923" d="M101.107,124.947a8.5,8.5,0,0,0-8.49,8.49v2.021a.6.6,0,1,0,1.2,0v-2.021a7.291,7.291,0,0,1,14.581,0v2.051a.6.6,0,0,0,1.2,0v-2.051A8.5,8.5,0,0,0,101.107,124.947Z" transform="translate(-92.617 -124.947)"/>
          </g>
        </g>
        <g id="Group_1207102" data-name="Group 1207102" transform="translate(23.819 6.034)">
          <g id="Group_1207101" data-name="Group 1207101">
            <path id="Path_1270924" data-name="Path 1270924" d="M111.825,26.155a3.911,3.911,0,0,0-5.409.163.366.366,0,0,1-.517,0,3.91,3.91,0,0,0-5.409-.163,3.85,3.85,0,0,0-.1,5.542l4.973,4.973a1.125,1.125,0,0,0,1.591,0l4.973-4.973a3.85,3.85,0,0,0-.1-5.542Z" transform="translate(-99.261 -25.146)" fill="#fc657e"/>
          </g>
        </g>
        <g id="Group_1207105" data-name="Group 1207105" transform="translate(23.218 5.444)">
          <g id="Group_1207104" data-name="Group 1207104">
            <g id="Group_1207103" data-name="Group 1207103">
              <path id="Path_1270925" data-name="Path 1270925" d="M110.332,23.847a4.532,4.532,0,0,0-6.077.02,4.532,4.532,0,0,0-6.077-.02,4.45,4.45,0,0,0-.116,6.405l4.973,4.973a1.725,1.725,0,0,0,2.439,0l4.973-4.973a4.45,4.45,0,0,0-.116-6.405ZM109.6,29.4l-4.973,4.973a.538.538,0,0,1-.743,0L98.911,29.4A3.251,3.251,0,0,1,99,24.724a3.183,3.183,0,0,1,2.181-.841,3.389,3.389,0,0,1,2.4.99.967.967,0,0,0,1.365,0,3.326,3.326,0,0,1,4.576-.148A3.251,3.251,0,0,1,109.6,29.4Z" transform="translate(-96.759 -22.687)"/>
            </g>
          </g>
        </g>
        <g id="Group_1207107" data-name="Group 1207107" transform="translate(19.217 1.68)">
          <g id="Group_1207106" data-name="Group 1207106">
            <path id="Path_1270926" data-name="Path 1270926" d="M84.489,9.132A2.663,2.663,0,0,1,82.354,7.04a.048.048,0,0,0-.095,0,2.663,2.663,0,0,1-2.135,2.091.047.047,0,0,0,0,.093,2.664,2.664,0,0,1,2.135,2.092.048.048,0,0,0,.095,0,2.664,2.664,0,0,1,2.135-2.092.047.047,0,0,0,0-.093Z" transform="translate(-80.083 -7)" fill="#f5c84c"/>
          </g>
        </g>
        <g id="Group_1207109" data-name="Group 1207109" transform="translate(40.813 9.176)">
          <g id="Group_1207108" data-name="Group 1207108">
            <path id="Path_1270927" data-name="Path 1270927" d="M172.917,39.61a1.713,1.713,0,0,1-1.373-1.345.031.031,0,0,0-.061,0,1.712,1.712,0,0,1-1.373,1.345.03.03,0,0,0,0,.06,1.713,1.713,0,0,1,1.373,1.345.031.031,0,0,0,.061,0,1.712,1.712,0,0,1,1.373-1.345A.03.03,0,0,0,172.917,39.61Z" transform="translate(-170.084 -38.239)" fill="#70d6f9"/>
          </g>
        </g>
        <g id="Group_1207111" data-name="Group 1207111" transform="translate(0.726 16.033)">
          <g id="Group_1207110" data-name="Group 1207110">
            <path id="Path_1270928" data-name="Path 1270928" d="M6.416,68.132H5.857v-.559a.758.758,0,0,0-1.515,0v.559H3.783a.758.758,0,1,0,0,1.515h.559v.559a.758.758,0,0,0,1.515,0v-.559h.559a.758.758,0,1,0,0-1.515Z" transform="translate(-3.025 -66.815)" fill="#fc657e"/>
          </g>
        </g>
        <g id="Group_1207113" data-name="Group 1207113" transform="translate(25.696 0)">
          <g id="Group_1207112" data-name="Group 1207112">
            <circle id="Ellipse_12989" data-name="Ellipse 12989" cx="0.81" cy="0.81" r="0.81" fill="#87d147"/>
          </g>
        </g>
        <g id="Group_1207115" data-name="Group 1207115" transform="translate(0 23.756)">
          <g id="Group_1207114" data-name="Group 1207114">
            <path id="Path_1270929" data-name="Path 1270929" d="M.81,99a.81.81,0,1,0,.81.81A.81.81,0,0,0,.81,99Z" transform="translate(0 -99)" fill="#f5c84c"/>
          </g>
        </g>
      </g>
    </g>
  </g>
</svg>
