<svg xmlns="http://www.w3.org/2000/svg" xmlns:xlink="http://www.w3.org/1999/xlink" width="111.776" height="111.776" viewBox="0 0 111.776 111.776">
  <defs>
    <filter id="Path_874925" x="0" y="0" width="111.776" height="111.776" filterUnits="userSpaceOnUse">
      <feOffset dy="3" input="SourceAlpha"/>
      <feGaussianBlur stdDeviation="3" result="blur"/>
      <feFlood flood-opacity="0.161"/>
      <feComposite operator="in" in2="blur"/>
      <feComposite in="SourceGraphic"/>
    </filter>
  </defs>
  <g id="Group_1207121" data-name="Group 1207121" transform="translate(-902.051 -1410)">
    <g id="Group_1207118" data-name="Group 1207118" transform="translate(315)">
      <g id="Group_1206254" data-name="Group 1206254" transform="translate(-208.949 -409.883)">
        <g id="Group_1204844" data-name="Group 1204844" transform="translate(520 -4424.991)">
          <g id="Group_1200232" data-name="Group 1200232" transform="translate(285 6250.874)">
            <g id="Group_1187153" data-name="Group 1187153">
              <g id="Group_1182177" data-name="Group 1182177">
                <g id="Group_1181903" data-name="Group 1181903">
                  <g id="Group_1181438" data-name="Group 1181438">
                    <g id="Group_1111314" data-name="Group 1111314">
                      <g transform="matrix(1, 0, 0, 1, -9, -6)" filter="url(#Path_874925)">
                        <g id="Path_874925-2" data-name="Path 874925" transform="translate(9 6)" fill="#ffc94a">
                          <path d="M 46.88790893554688 92.2763671875 C 40.75992202758789 92.2763671875 34.8160285949707 91.07652282714844 29.22134971618652 88.71018218994141 C 23.81676292419434 86.42423248291016 18.96264266967773 83.15139007568359 14.79381561279297 78.98255157470703 C 10.62497520446777 74.81372833251953 7.35213565826416 69.95960998535156 5.066188812255859 64.55502319335938 C 2.699842214584351 58.9603385925293 1.500002264976501 53.01644515991211 1.500002264976501 46.88844680786133 C 1.500002264976501 40.75992584228516 2.699842214584351 34.81603240966797 5.066188812255859 29.22135353088379 C 7.35213565826416 23.8167667388916 10.62497520446777 18.962646484375 14.79381561279297 14.79381942749023 C 18.96264266967773 10.62497997283936 23.81676292419434 7.352139949798584 29.22134971618652 5.066193103790283 C 34.8160285949707 2.699846506118774 40.75992202758789 1.500006437301636 46.88790893554688 1.500006437301636 C 53.01589584350586 1.500006437301636 58.95978927612305 2.699846506118774 64.55446624755859 5.066193103790283 C 69.95905303955078 7.352139949798584 74.81317901611328 10.62497997283936 78.98200225830078 14.79381942749023 C 83.15084075927734 18.962646484375 86.42368316650391 23.8167667388916 88.70962524414062 29.22135353088379 C 91.07597351074219 34.81603240966797 92.27581787109375 40.75992584228516 92.27581787109375 46.88791275024414 C 92.27581787109375 53.01644515991211 91.07597351074219 58.9603385925293 88.70962524414062 64.55502319335938 C 86.42368316650391 69.95960998535156 83.15084075927734 74.81372833251953 78.98200225830078 78.98255157470703 C 74.81317901611328 83.15139007568359 69.95905303955078 86.42423248291016 64.55446624755859 88.71018218994141 C 58.95978927612305 91.07652282714844 53.01589584350586 92.2763671875 46.88790893554688 92.2763671875 Z" stroke="none"/>
                          <path d="M 46.88790893554688 2.999992370605469 C 40.96175003051758 2.999992370605469 35.2144660949707 4.159965515136719 29.80567932128906 6.44769287109375 C 24.57989501953125 8.658004760742188 19.88602447509766 11.82290649414062 15.85446929931641 15.85446929931641 C 11.82290649414062 19.88602447509766 8.658012390136719 24.57989501953125 6.44769287109375 29.80567932128906 C 4.159965515136719 35.2144660949707 2.999992370605469 40.96175003051758 2.999992370605469 46.88845062255859 C 2.999992370605469 52.81460952758789 4.159965515136719 58.56189346313477 6.44769287109375 63.97069549560547 C 8.658012390136719 69.19646453857422 11.82290649414062 73.89033508300781 15.85446929931641 77.92189025878906 C 19.88602447509766 81.95343780517578 24.57989501953125 85.11833953857422 29.80567932128906 87.32865142822266 C 35.2144660949707 89.61637878417969 40.96175003051758 90.77635192871094 46.88790893554688 90.77635192871094 C 52.81406784057617 90.77635192871094 58.56135177612305 89.61637878417969 63.97013854980469 87.32865142822266 C 69.1959228515625 85.11833953857422 73.88979339599609 81.95343780517578 77.92134857177734 77.92189025878906 C 81.95291137695312 73.89033508300781 85.11781311035156 69.19646453857422 87.328125 63.97069549560547 C 89.61585235595703 58.56189346313477 90.77582550048828 52.81460952758789 90.77582550048828 46.88790893554688 C 90.77582550048828 40.96175003051758 89.61585235595703 35.2144660949707 87.328125 29.80567932128906 C 85.11781311035156 24.57989501953125 81.95291137695312 19.88602447509766 77.92134857177734 15.85446929931641 C 73.88979339599609 11.82290649414062 69.1959228515625 8.658004760742188 63.97013854980469 6.44769287109375 C 58.56135177612305 4.159965515136719 52.81406784057617 2.999992370605469 46.88790893554688 2.999992370605469 M 46.88790893554688 -7.62939453125e-06 C 72.78337860107422 -7.62939453125e-06 93.77582550048828 20.99243927001953 93.77582550048828 46.88790893554688 L 93.77582550048828 46.88845062255859 C 93.77582550048828 72.783935546875 72.78337860107422 93.77635192871094 46.88790893554688 93.77635192871094 C 20.99243927001953 93.77635192871094 -7.62939453125e-06 72.783935546875 -7.62939453125e-06 46.88845062255859 L -7.62939453125e-06 46.88790893554688 C -7.62939453125e-06 20.99243927001953 20.99243927001953 -7.62939453125e-06 46.88790893554688 -7.62939453125e-06 Z" stroke="none" fill="#fff"/>
                        </g>
                      </g>
                    </g>
                  </g>
                </g>
              </g>
            </g>
          </g>
        </g>
      </g>
    </g>
    <g id="confianza" transform="translate(903.477 1436.171)">
      <g id="Group_1207119" data-name="Group 1207119" transform="translate(26.61 0.937)">
        <path id="Path_1270930" data-name="Path 1270930" d="M60.571,197.128l-11.18,11.18-2.848-2.848a3.311,3.311,0,0,0-1.964-.948L34.7,203.379a1.724,1.724,0,0,1-1.528-1.713v-14.7a1.661,1.661,0,0,1,2.043-1.617l2.645.625L53,189.553Z" transform="translate(-33.173 -163.084)" fill="#ffcebf"/>
        <path id="Path_1270931" data-name="Path 1270931" d="M175.354,186.269a1.661,1.661,0,0,0-1.975-1.631l-21.291,4.1h0a4.225,4.225,0,0,0-4.24,1.206l-1.67,2.049-2.66,3.264-11.274,18.4a2.885,2.885,0,1,0,5.292,2.3,2.885,2.885,0,0,0,5.293,2.3,2.885,2.885,0,1,0,5.292,2.3,2.885,2.885,0,0,0,5.086,2.688,11.266,11.266,0,0,1,.687-1l11.748-14.866,1.252-5.568h6.737a1.724,1.724,0,0,0,1.724-1.724V186.269Z" transform="translate(-119.651 -162.471)" fill="#ffdfcf"/>
        <path id="Path_1270932" data-name="Path 1270932" d="M281.351,322.236h3.75l-1.252,5.568L272.1,342.671a11.5,11.5,0,0,0-.687,1,2.884,2.884,0,0,1-3.589,1.106,2.8,2.8,0,0,1-.726-.454,2.845,2.845,0,0,0,.565-.652,11.5,11.5,0,0,1,.687-1L280.1,327.8Z" transform="translate(-237.859 -282.896)" fill="#ffcebf"/>
        <path id="Path_1270933" data-name="Path 1270933" d="M440.5,186.272V200.09a1.723,1.723,0,0,1-1.724,1.724h-3.75a1.723,1.723,0,0,0,1.724-1.724V186.272a1.651,1.651,0,0,0-.5-1.191l2.279-.439A1.66,1.66,0,0,1,440.5,186.272Z" transform="translate(-384.799 -162.474)" fill="#ffcebf"/>
        <path id="Path_1270934" data-name="Path 1270934" d="M179.889,213.832l-.984-5.7a6.887,6.887,0,0,0-4.728-5.4l-7.423-1.989a4.185,4.185,0,0,0-3.5.625l-2.6,1.834-2.08,1.883-1.326,1.2,4.438,6.626a12.025,12.025,0,0,0,9.244-3.522l4.01,5.722a3.493,3.493,0,0,0,2.216,1.431A2.346,2.346,0,0,0,179.889,213.832Z" transform="translate(-141.741 -176.465)" fill="#ffcebf"/>
        <path id="Path_1270935" data-name="Path 1270935" d="M224.843,216.546a3.488,3.488,0,0,1-1.361-.575,2.35,2.35,0,0,0,.73-2.138l-.984-5.7a6.888,6.888,0,0,0-4.727-5.4l-6.754-1.809a4.17,4.17,0,0,1,2.693-.179l7.423,1.988a6.888,6.888,0,0,1,4.727,5.4l.984,5.7A2.346,2.346,0,0,1,224.843,216.546Z" transform="translate(-189.427 -176.466)" fill="#ffb09e"/>
        <path id="Path_1270936" data-name="Path 1270936" d="M352.381,361.39h0a2.885,2.885,0,0,0-.015,4.08l2.374,2.391a2.885,2.885,0,0,0,4.079.015h0a2.885,2.885,0,0,0,.015-4.08L356.46,361.4A2.885,2.885,0,0,0,352.381,361.39Z" transform="translate(-311.736 -316.423)" fill="#ffcebf"/>
        <path id="Path_1270937" data-name="Path 1270937" d="M368.093,365.831a2.885,2.885,0,0,1-4.566,2.343,2.811,2.811,0,0,0,.351-.3,2.882,2.882,0,0,0,.015-4.078l-2.374-2.392a2.909,2.909,0,0,0-.366-.312,2.888,2.888,0,0,1,3.729.312l2.374,2.392A2.872,2.872,0,0,1,368.093,365.831Z" transform="translate(-320.157 -316.426)" fill="#ffb09e"/>
        <path id="Path_1270938" data-name="Path 1270938" d="M371.9,315.634h0a2.885,2.885,0,0,0-.015,4.079l2.374,2.391a2.885,2.885,0,0,0,4.08.015h0a2.885,2.885,0,0,0,.015-4.079l-2.374-2.391A2.885,2.885,0,0,0,371.9,315.634Z" transform="translate(-328.817 -276.386)" fill="#ffcebf"/>
        <path id="Path_1270939" data-name="Path 1270939" d="M387.613,320.073a2.884,2.884,0,0,1-4.566,2.343,2.8,2.8,0,0,0,.351-.3,2.883,2.883,0,0,0,.015-4.08l-2.374-2.392a2.9,2.9,0,0,0-.366-.312,2.888,2.888,0,0,1,3.729.312l2.374,2.392A2.872,2.872,0,0,1,387.613,320.073Z" transform="translate(-337.237 -276.388)" fill="#ffb09e"/>
        <path id="Path_1270940" data-name="Path 1270940" d="M319.626,393.911h0a2.885,2.885,0,0,0-.015,4.079l2.374,2.391a2.885,2.885,0,0,0,4.08.015h0a2.885,2.885,0,0,0,.015-4.079l-2.374-2.391A2.885,2.885,0,0,0,319.626,393.911Z" transform="translate(-283.076 -344.879)" fill="#ffcebf"/>
        <path id="Path_1270941" data-name="Path 1270941" d="M335.337,398.35a2.885,2.885,0,0,1-4.566,2.343,2.811,2.811,0,0,0,.351-.3,2.883,2.883,0,0,0,.015-4.08l-2.374-2.391a2.818,2.818,0,0,0-.366-.312,2.886,2.886,0,0,1,3.729.312l2.374,2.391A2.875,2.875,0,0,1,335.337,398.35Z" transform="translate(-291.495 -344.881)" fill="#ffb09e"/>
        <path id="Path_1270942" data-name="Path 1270942" d="M286.87,426.432h0a2.885,2.885,0,0,0-.015,4.079l2.374,2.391a2.885,2.885,0,0,0,4.079.015h0a2.885,2.885,0,0,0,.015-4.08l-2.374-2.391A2.885,2.885,0,0,0,286.87,426.432Z" transform="translate(-254.414 -373.335)" fill="#ffcebf"/>
        <path id="Path_1270943" data-name="Path 1270943" d="M302.582,430.87a2.885,2.885,0,0,1-4.566,2.343,2.811,2.811,0,0,0,.351-.3,2.883,2.883,0,0,0,.015-4.08l-2.374-2.391a2.806,2.806,0,0,0-.366-.312,2.885,2.885,0,0,1,3.729.312l2.374,2.391A2.875,2.875,0,0,1,302.582,430.87Z" transform="translate(-262.834 -373.335)" fill="#ffb09e"/>
        <path id="Path_1270944" data-name="Path 1270944" d="M358.927,110.082H348.75a1.622,1.622,0,0,1-1.622-1.622v-1.619a3.076,3.076,0,0,1,3.076-3.076h7.268a3.076,3.076,0,0,1,3.076,3.076v1.619A1.622,1.622,0,0,1,358.927,110.082Z" transform="translate(-307.886 -91.733)" fill="#fe646f"/>
        <path id="Path_1270945" data-name="Path 1270945" d="M406.714,106.843v1.619a1.622,1.622,0,0,1-1.622,1.622h-3.75a1.622,1.622,0,0,0,1.622-1.622v-1.619a3.076,3.076,0,0,0-3.076-3.076h3.75A3.076,3.076,0,0,1,406.714,106.843Z" transform="translate(-354.051 -91.734)" fill="#fd4755"/>
        <path id="Path_1270946" data-name="Path 1270946" d="M214.118,110.082H203.941a1.622,1.622,0,0,1-1.622-1.622v-1.619a3.076,3.076,0,0,1,3.076-3.076h7.268a3.076,3.076,0,0,1,3.076,3.076v1.619A1.622,1.622,0,0,1,214.118,110.082Z" transform="translate(-181.177 -91.733)" fill="#dcf5f8"/>
        <path id="Path_1270947" data-name="Path 1270947" d="M261.9,106.843v1.619a1.622,1.622,0,0,1-1.622,1.622h-3.75a1.622,1.622,0,0,0,1.622-1.622v-1.619a3.076,3.076,0,0,0-3.076-3.076h3.75A3.076,3.076,0,0,1,261.9,106.843Z" transform="translate(-227.342 -91.734)" fill="#c2eef2"/>
        <path id="Path_1270948" data-name="Path 1270948" d="M69.3,110.082H59.12A1.622,1.622,0,0,1,57.5,108.46v-1.619a3.076,3.076,0,0,1,3.076-3.076h7.268a3.076,3.076,0,0,1,3.076,3.076v1.619A1.622,1.622,0,0,1,69.3,110.082Z" transform="translate(-54.458 -91.733)" fill="#dcf5f8"/>
        <path id="Path_1270949" data-name="Path 1270949" d="M117.084,106.843v1.619a1.622,1.622,0,0,1-1.622,1.622h-3.75a1.622,1.622,0,0,0,1.622-1.622v-1.619a3.076,3.076,0,0,0-3.076-3.076h3.75A3.076,3.076,0,0,1,117.084,106.843Z" transform="translate(-100.623 -91.734)" fill="#c2eef2"/>
        <path id="Path_1270950" data-name="Path 1270950" d="M86.46,11.027v1.545a4.121,4.121,0,0,1-5.993,3.67h0a4.115,4.115,0,0,1-2.246-3.669V11.027a3.53,3.53,0,0,1,2.8-3.452,3.6,3.6,0,0,1,.73-.075h1.184A3.527,3.527,0,0,1,86.46,11.027Z" transform="translate(-72.589 -7.5)" fill="#d77f4a"/>
        <path id="Path_1270951" data-name="Path 1270951" d="M102.183,11.027v1.545a4.121,4.121,0,0,1-5.993,3.67h0a4.117,4.117,0,0,0,2.244-3.669v-2.8a2.273,2.273,0,0,0-1.691-2.2,3.6,3.6,0,0,1,.73-.075h1.184A3.527,3.527,0,0,1,102.183,11.027Z" transform="translate(-88.313 -7.5)" fill="#c86d36"/>
        <path id="Path_1270952" data-name="Path 1270952" d="M231.281,11.027v1.545a4.121,4.121,0,0,1-5.993,3.67h0a4.115,4.115,0,0,1-2.246-3.669V11.027a3.53,3.53,0,0,1,2.8-3.452,3.6,3.6,0,0,1,.73-.075h1.184A3.527,3.527,0,0,1,231.281,11.027Z" transform="translate(-199.309 -7.5)" fill="#ffdfcf"/>
        <path id="Path_1270953" data-name="Path 1270953" d="M247,11.027v1.545a4.121,4.121,0,0,1-5.993,3.67h0a4.117,4.117,0,0,0,2.244-3.669v-2.8a2.273,2.273,0,0,0-1.691-2.2,3.6,3.6,0,0,1,.73-.075h1.184A3.527,3.527,0,0,1,247,11.027Z" transform="translate(-215.033 -7.5)" fill="#ffcebf"/>
        <path id="Path_1270954" data-name="Path 1270954" d="M376.09,11.028v1.545a4.121,4.121,0,0,1-5.993,3.67h0a4.115,4.115,0,0,1-2.246-3.669V11.028a3.53,3.53,0,0,1,2.8-3.452,3.6,3.6,0,0,1,.73-.075h1.184A3.527,3.527,0,0,1,376.09,11.028Z" transform="translate(-326.018 -7.501)" fill="#ffdfcf"/>
        <path id="Path_1270955" data-name="Path 1270955" d="M391.813,11.028v1.545a4.121,4.121,0,0,1-5.993,3.67h0a4.117,4.117,0,0,0,2.244-3.669v-2.8a2.273,2.273,0,0,0-1.691-2.2,3.6,3.6,0,0,1,.73-.075h1.184A3.527,3.527,0,0,1,391.813,11.028Z" transform="translate(-341.742 -7.501)" fill="#ffcebf"/>
      </g>
      <g id="Group_1207120" data-name="Group 1207120" transform="translate(25.673)">
        <path id="Trazado_1270956" data-name="Trazado 1270956" d="M347.851,353.052h0a3.8,3.8,0,0,1,2.712,1.129l2.374,2.391a3.822,3.822,0,1,1-5.425,5.386l-2.374-2.391a3.822,3.822,0,0,1,2.712-6.515Zm2.374,8.16a1.947,1.947,0,0,0,1.382-3.319l-2.374-2.391a1.947,1.947,0,1,0-2.764,2.744l2.374,2.391A1.934,1.934,0,0,0,350.225,361.212Z" transform="translate(-304.236 -308.923)"/>
        <path id="Trazado_1270957" data-name="Trazado 1270957" d="M367.371,307.3h0a3.8,3.8,0,0,1,2.712,1.129l2.374,2.391a3.822,3.822,0,0,1-5.425,5.386l-2.374-2.391a3.822,3.822,0,0,1,2.712-6.515Zm2.374,8.16a1.947,1.947,0,0,0,1.382-3.319l-2.374-2.391a1.947,1.947,0,1,0-2.764,2.744l2.374,2.391A1.934,1.934,0,0,0,369.745,315.456Z" transform="translate(-321.317 -268.886)"/>
        <path id="Trazado_1270958" data-name="Trazado 1270958" d="M315.1,385.573h0a3.8,3.8,0,0,1,2.712,1.129l2.374,2.391a3.822,3.822,0,1,1-5.425,5.386l-2.374-2.391a3.822,3.822,0,0,1,2.712-6.515Zm2.374,8.16a1.947,1.947,0,0,0,1.382-3.319l-2.374-2.391a1.947,1.947,0,1,0-2.764,2.744l2.374,2.391A1.934,1.934,0,0,0,317.47,393.733Z" transform="translate(-275.576 -337.379)"/>
        <path id="Trazado_1270959" data-name="Trazado 1270959" d="M282.34,418.094h0a3.8,3.8,0,0,1,2.712,1.129l2.374,2.391A3.822,3.822,0,1,1,282,427l-2.374-2.391a3.822,3.822,0,0,1,2.712-6.515Zm2.374,8.16a1.947,1.947,0,0,0,1.382-3.319l-2.374-2.391a1.947,1.947,0,0,0-2.764,2.744l2.374,2.391A1.934,1.934,0,0,0,284.714,426.255Z" transform="translate(-246.914 -365.835)"/>
        <path id="Trazado_1270960" data-name="Trazado 1270960" d="M144.177,361.439a3.8,3.8,0,0,1-2.687-1.114,3.829,3.829,0,0,1-.946-1.551q-.118.056-.24.1a3.831,3.831,0,0,1-5.052-2.405,3.829,3.829,0,0,1-5.292-2.3,3.821,3.821,0,0,1-5.148-4.972.939.939,0,0,1,.061-.116l5.33-8.7a.937.937,0,0,1,1.6.979L126.508,350a1.947,1.947,0,0,0,3.594,1.5v0a.937.937,0,0,1,1.72.747h0A1.948,1.948,0,0,0,135.4,353.8a.937.937,0,0,1,1.719.748,1.947,1.947,0,0,0,3.572,1.551h0a.937.937,0,0,1,1.72.747v0a1.944,1.944,0,0,0,1.009,2.559,1.957,1.957,0,0,0,2.424-.745,12.2,12.2,0,0,1,.746-1.082l.345-.437A.937.937,0,1,1,148.4,358.3l-.346.437a10.329,10.329,0,0,0-.629.917A3.844,3.844,0,0,1,144.177,361.439Z" transform="translate(-112.141 -297.448)"/>
        <path id="Línea_232" data-name="Línea 232" d="M-6.564.439A.933.933,0,0,1-7.053.3a.937.937,0,0,1-.31-1.289l3.715-6.065a.937.937,0,0,1,1.289-.31.937.937,0,0,1,.31,1.289L-5.764-.009A.937.937,0,0,1-6.564.439Z" transform="translate(25.424 43.926)"/>
        <path id="Línea_233" data-name="Línea 233" d="M-5.223-3.467a.937.937,0,0,1-.8-.443L-7.36-6.069a.937.937,0,0,1,.3-1.291.937.937,0,0,1,1.291.3L-4.427-4.9a.937.937,0,0,1-.3,1.291A.933.933,0,0,1-5.223-3.467Z" transform="translate(35.352 38.269)"/>
        <path id="Trazado_1270961" data-name="Trazado 1270961" d="M309.386,183.374a.937.937,0,0,1-.937-.937v-2.729a.724.724,0,0,0-.861-.71L286.3,183.1a.937.937,0,1,1-.355-1.841l21.291-4.1a2.6,2.6,0,0,1,3.09,2.552v2.729A.937.937,0,0,1,309.386,183.374Z" transform="translate(-252.746 -154.971)"/>
        <path id="Trazado_1270962" data-name="Trazado 1270962" d="M411.3,258.618h-6.737a.937.937,0,0,1,0-1.875H411.3a.788.788,0,0,0,.787-.787V249.4a.937.937,0,0,1,1.875,0v6.56A2.665,2.665,0,0,1,411.3,258.618Z" transform="translate(-356.386 -217.403)"/>
        <path id="Línea_234" data-name="Línea 234" d="M1.71-3.673A.94.94,0,0,1,1.494-3.7L-6.779-5.652a.937.937,0,0,1-.7-1.128.937.937,0,0,1,1.128-.7L1.925-5.523a.937.937,0,0,1,.7,1.128A.938.938,0,0,1,1.71-3.673Z" transform="translate(18.657 31.924)"/>
        <path id="Trazado_1270963" data-name="Trazado 1270963" d="M42.828,202.681a.934.934,0,0,1-.663-.275l-2.848-2.848a2.382,2.382,0,0,0-1.408-.68l-9.877-1.131a2.661,2.661,0,0,1-2.359-2.645v-14.7a2.6,2.6,0,0,1,3.2-2.529l4.906,1.159a.937.937,0,1,1-.431,1.825L28.438,179.7a.724.724,0,0,0-.89.7v14.7a.787.787,0,0,0,.7.782l9.877,1.131a4.265,4.265,0,0,1,2.52,1.217l2.848,2.848a.937.937,0,0,1-.663,1.6Z" transform="translate(-25.673 -155.583)"/>
        <path id="Trazado_1270964" data-name="Trazado 1270964" d="M198.463,210.952a3.244,3.244,0,0,1-.6-.056,4.407,4.407,0,0,1-2.811-1.815l-3.388-4.834a13.1,13.1,0,0,1-7.331,3.008.937.937,0,1,1-.152-1.869,11.138,11.138,0,0,0,6.927-3.186.939.939,0,0,1,1.47.083l4.01,5.722a2.543,2.543,0,0,0,1.622,1.048,1.369,1.369,0,0,0,1.229-.378,1.4,1.4,0,0,0,.4-1.254l-.984-5.7a5.926,5.926,0,0,0-4.085-4.665l-7.385-1.978a3.238,3.238,0,0,0-2.718.485l-2.084,1.472a.937.937,0,1,1-1.082-1.531l2.084-1.471a5.107,5.107,0,0,1,4.286-.764l7.422,1.989a7.807,7.807,0,0,1,5.409,6.146l.984,5.7a3.286,3.286,0,0,1-3.227,3.849Z" transform="translate(-161.681 -168.957)"/>
        <path id="Trazado_1270965" data-name="Trazado 1270965" d="M352.364,104.457H342.187a2.562,2.562,0,0,1-2.559-2.559v-1.619a4.018,4.018,0,0,1,4.014-4.014h7.268a4.018,4.018,0,0,1,4.014,4.014V101.9a2.559,2.559,0,0,1-2.559,2.559Zm-8.722-6.317a2.141,2.141,0,0,0-2.139,2.139V101.9a.685.685,0,0,0,.684.684h10.177a.684.684,0,0,0,.684-.684v-1.619a2.141,2.141,0,0,0-2.139-2.139Z" transform="translate(-300.386 -84.233)"/>
        <path id="Trazado_1270966" data-name="Trazado 1270966" d="M207.555,104.457H202.67a.937.937,0,0,1,0-1.875h4.885a.685.685,0,0,0,.684-.684v-1.619A2.141,2.141,0,0,0,206.1,98.14h-7.268a2.141,2.141,0,0,0-2.139,2.139V101.9a.685.685,0,0,0,.684.684h.968a.937.937,0,0,1,0,1.875h-.968a2.562,2.562,0,0,1-2.559-2.559v-1.619a4.018,4.018,0,0,1,4.014-4.014H206.1a4.018,4.018,0,0,1,4.014,4.014V101.9A2.562,2.562,0,0,1,207.555,104.457Z" transform="translate(-173.677 -84.233)"/>
        <path id="Trazado_1270967" data-name="Trazado 1270967" d="M62.734,104.457H52.557A2.562,2.562,0,0,1,50,101.9v-1.619a4.018,4.018,0,0,1,4.014-4.014H61.28a4.018,4.018,0,0,1,4.014,4.014V101.9a2.559,2.559,0,0,1-2.559,2.559ZM54.012,98.14a2.141,2.141,0,0,0-2.139,2.139V101.9a.685.685,0,0,0,.684.684H62.734a.684.684,0,0,0,.684-.684v-1.619A2.141,2.141,0,0,0,61.28,98.14Z" transform="translate(-46.958 -84.233)"/>
        <path id="Trazado_1270968" data-name="Trazado 1270968" d="M75.186,0H76.37a4.47,4.47,0,0,1,4.465,4.465V6.01a5.057,5.057,0,1,1-10.114,0V4.465A4.484,4.484,0,0,1,74.263.1,4.546,4.546,0,0,1,75.186,0Zm.591,9.192A3.186,3.186,0,0,0,78.96,6.01V4.465a2.593,2.593,0,0,0-2.59-2.59H75.186a2.662,2.662,0,0,0-.54.055,2.6,2.6,0,0,0-2.052,2.534V6.01A3.169,3.169,0,0,0,74.33,8.843,3.13,3.13,0,0,0,75.777,9.192Z" transform="translate(-65.089)"/>
        <path id="Trazado_1270969" data-name="Trazado 1270969" d="M220.007,0h1.184a4.47,4.47,0,0,1,4.465,4.465V6.01a5.057,5.057,0,1,1-10.114,0V4.465A4.484,4.484,0,0,1,219.084.1,4.546,4.546,0,0,1,220.007,0Zm.591,9.192a3.186,3.186,0,0,0,3.182-3.182V4.465a2.593,2.593,0,0,0-2.59-2.59h-1.184a2.662,2.662,0,0,0-.54.055,2.6,2.6,0,0,0-2.052,2.534V6.01a3.169,3.169,0,0,0,1.735,2.834A3.13,3.13,0,0,0,220.6,9.192Z" transform="translate(-191.809)"/>
        <path id="Trazado_1270970" data-name="Trazado 1270970" d="M364.816,0H366a4.47,4.47,0,0,1,4.465,4.465V6.011a5.057,5.057,0,1,1-10.114,0V4.466A4.484,4.484,0,0,1,363.893.1,4.547,4.547,0,0,1,364.816,0Zm.591,9.192a3.186,3.186,0,0,0,3.182-3.182V4.466A2.593,2.593,0,0,0,366,1.876h-1.184a2.662,2.662,0,0,0-.54.055,2.6,2.6,0,0,0-2.052,2.534V6.011a3.169,3.169,0,0,0,1.735,2.834A3.13,3.13,0,0,0,365.407,9.193Z" transform="translate(-318.518 -0.001)"/>
      </g>
    </g>
  </g>
</svg>
