<svg xmlns="http://www.w3.org/2000/svg" xmlns:xlink="http://www.w3.org/1999/xlink" width="129.063" height="68.247" viewBox="0 0 129.063 68.247">
  <defs>
    <clipPath id="clip-path">
      <path id="path2847" d="M0-682.665H68.247v68.247H0Z" transform="translate(0 682.665)"/>
    </clipPath>
  </defs>
  <g id="Group_1207159" data-name="Group 1207159" transform="translate(1346 6048.857)">
    <g id="Group_1206596" data-name="Group 1206596" transform="translate(-2409.839 -11515.738)">
      <g id="Group_1205224" data-name="Group 1205224" transform="translate(276.058 2903.871)">
        <g id="Rectangle_410589" data-name="Rectangle 410589" transform="translate(787.781 2575.623)" fill="#ffc94a" stroke="#dfab32" stroke-width="1">
          <rect width="129.063" height="43.021" rx="8" stroke="none"/>
          <rect x="0.5" y="0.5" width="128.063" height="42.021" rx="7.5" fill="none"/>
        </g>
      </g>
    </g>
    <g id="g2841" transform="translate(-1316 -5366.192)">
      <g id="g2843" transform="translate(0 -682.665)">
        <g id="g2845" clip-path="url(#clip-path)">
          <g id="g2851" transform="translate(36.79 12.45)">
            <path id="path2853" d="M0-85.1H26.659V-91.89a2.674,2.674,0,0,0-2.666-2.666H2.666A2.674,2.674,0,0,0,0-91.89Z" transform="translate(0 94.556)" fill="#ffc144" fill-rule="evenodd"/>
          </g>
          <path id="path2855" d="M394.659-463.572H368v5.937h26.659Z" transform="translate(-331.211 485.475)" fill="#60a4ff" fill-rule="evenodd"/>
          <g id="g2857" transform="translate(36.79 27.84)">
            <path id="path2859" d="M-240.007,0h-26.659V11.96l6.559-6.023h17.434a2.674,2.674,0,0,0,2.666-2.666Z" transform="translate(266.666)" fill="#ff5a58" fill-rule="evenodd"/>
          </g>
          <g id="g2861" transform="translate(4.798 1.333)">
            <path id="path2863" d="M-288.012-346.32v-17.9c-7.725-1.488-2.959-5.118-6.1-6.737-4.175-2.15,2.12-9.525,6.659-9.717,2.974-.126-.575-8.165-7.9-1.43-1.241,1.141-5.207,2.242-7.376,2.879-2.5.734-1.191,1.7-3.264,4.808-2,3-1.736.309-2.676,2.161-1.18,2.327-2.268,2.607-3.14,2.674-2.447.19-4.71,4.5-3.039,6.878,1.833,2.6.592,9.213.842,9.822,1.075,2.622-.5,7.243-2.98,7.391-4.23.251-1.272,2.114-2.666,2.959-1.313.8,1.471,3.278,1.949,3.259,2.984-.118,5.906,5.791,7.6,2.873.479-.823,8.418,2.48,8.567,3.7.318,2.6,1.973,1.068,1.939,2.221-.082,2.737,1.965,1.742,2.073,2.527.511,3.708,5.247,1.846,6.409,1.71,5.477-.64,2.942,7.563,6.229,7.005s1.53-4.546,2.022-7.877c.34-2.3,1.376-2.523.667-5.112-.453-1.655-1.315-2.118-.816-3.333.647-1.578,2.252-.886,2.848-2.036,1.026-1.979-1.283-3.683.168-4.553,2.875-1.722,4.554,2.957,7.259,1.353,2.327-1.38-1.835-5.594-.536-7.043,1.006-1.122-.744-2.892-.855-4.509h-7.324Z" transform="translate(320.003 384.787)" fill="#cbe558" fill-rule="evenodd"/>
          </g>
          <g id="g2865" transform="translate(3.466 0.007)">
            <path id="path2867" d="M-36.326-185.009c-2.2,0-2.741-2.414-3.075-3.9-.586-2.607-1-3.336-2.643-3.144-.152.018-.377.077-.652.142-1.466.349-3.919.933-5.66-.258a3.625,3.625,0,0,1-1.439-2.082,2.806,2.806,0,0,1-2.2-2.676A2.675,2.675,0,0,1-53.9-199.4a22.184,22.184,0,0,0-6.533-2.9,2.517,2.517,0,0,1-1.49.873c-1.43.243-2.648-.8-3.938-1.9-.93-.794-2.087-1.783-2.874-1.751h-.041c-1.189,0-3.135-1.964-3.533-3.286a2.057,2.057,0,0,1,.613-2.254l-.008-.038a2.482,2.482,0,0,1,.339-2.126c.559-.725,1.521-1.077,3.215-1.177.655-.039,1.414-1.03,1.806-2.357a1.333,1.333,0,0,1,1.656-.9,1.333,1.333,0,0,1,.9,1.656c-.744,2.52-2.355,4.154-4.2,4.263a6.055,6.055,0,0,0-1.094.143,2.39,2.39,0,0,1-.53,2.3,5.126,5.126,0,0,0,1.1,1.117c1.689.08,3.119,1.3,4.389,2.387a9.127,9.127,0,0,0,1.713,1.27,1.29,1.29,0,0,0,.081-.124c.621-1.066,1.984-.786,2.5-.68.69.142,8.246,2.446,8.545,4.889a2.266,2.266,0,0,0,.113.521l.073.007a1.758,1.758,0,0,1,1.762,1.894,1.478,1.478,0,0,0,.086.715l.307.068a1.9,1.9,0,0,1,1.668,1.523,1.157,1.157,0,0,0,.437.9c.767.524,2.638.079,3.537-.135a9.687,9.687,0,0,1,.96-.2c4.271-.5,5.105,3.213,5.553,5.207a6.088,6.088,0,0,0,.591,1.852c.874-.19,1.074-.532.906-3.326a16.943,16.943,0,0,1,.036-3.476,9.539,9.539,0,0,1,.6-2.165,2.992,2.992,0,0,0,.1-2.4,6.313,6.313,0,0,0-.484-1.194,3.275,3.275,0,0,1-.28-3,3.342,3.342,0,0,1,2.447-1.994,2.48,2.48,0,0,0,.467-.166c.219-.437.081-.9-.164-1.615-.273-.8-.841-2.459.814-3.45,2.189-1.311,3.989-.1,5.179.708,1.245.841,1.577.943,2.085.642.2-.365-.352-1.649-.615-2.266-.648-1.518-1.382-3.239-.233-4.52a8.065,8.065,0,0,0-.465-1.166,8.309,8.309,0,0,1-.679-1.957,1.333,1.333,0,0,1,1.089-1.539,1.333,1.333,0,0,1,1.539,1.089,6.327,6.327,0,0,0,.485,1.32c.469,1.051,1.173,2.627.1,3.938a7.908,7.908,0,0,0,.619,1.79c.678,1.589,1.812,4.248-.477,5.6-2.057,1.219-3.79.049-4.936-.725-1.11-.75-1.571-.969-2.113-.737.038.128.09.281.133.407a4.44,4.44,0,0,1-.008,3.722,3.02,3.02,0,0,1-2.066,1.48c-.585.172-.637.216-.732.449-.083.2-.088.214.2.8A8.886,8.886,0,0,1-32-199.715a5.543,5.543,0,0,1-.183,4.051,6.949,6.949,0,0,0-.451,1.607,14.723,14.723,0,0,0-.012,2.926c.14,2.316.331,5.487-3.1,6.07A3.461,3.461,0,0,1-36.326-185.009Zm-24.332-43.052c-5.655,0-5.952-.423-6.363-1.008a5.542,5.542,0,0,1-.151-5.585A5.446,5.446,0,0,1-63-238.049c.442-.034,1.11-.086,2.054-1.948.231-.456.819-1.615,2.091-1.426a6.616,6.616,0,0,0,.665-.873,8.527,8.527,0,0,0,1.178-2.537,3.51,3.51,0,0,1,2.819-2.81l.458-.134c1.773-.517,5.462-1.593,6.391-2.447,4.568-4.2,7.785-3.03,8.956-2.332a4.183,4.183,0,0,1,2.147,4.292,2.326,2.326,0,0,1-2.245,1.783c-2.646.112-6.193,3.469-6.694,5.746-.189.857.1,1.2.589,1.454a3.719,3.719,0,0,1,2,3.7c.038,1.267.066,2.187,3.621,2.892h25.2a1.333,1.333,0,0,1,1.332,1.3,1.333,1.333,0,0,1-1.263,1.366C-41.236-228.594-54.316-228.062-60.658-228.062Zm-4.32-2.773c1.839.3,10.855.035,22-.441a4.423,4.423,0,0,1-2.273-4.227c-.031-1.022-.088-1.166-.557-1.408a3.728,3.728,0,0,1-1.972-4.4c.786-3.572,5.315-7.5,8.937-7.821a1.97,1.97,0,0,0-.939-1.157c-1.391-.8-3.489-.06-5.754,2.023-1.282,1.179-4.255,2.112-7.449,3.044l-.454.133c-.776.228-.776.228-1.019,1.027a11.149,11.149,0,0,1-1.511,3.242c-.827,1.24-1.619,2.082-2.641,2.114-1.425,2.756-2.981,3.219-4.181,3.312-.653.051-1.48.838-1.967,1.872A3.305,3.305,0,0,0-64.978-230.835Z" transform="translate(72.419 253.254)"/>
          </g>
          <g id="g2869" transform="translate(10.849 31.323)">
            <path id="path2871" transform="translate(0 0)"/>
          </g>
          <g id="g2873" transform="translate(35.457 11.117)">
            <path id="path2875" d="M-249.334-13.333h21.327a4,4,0,0,1,4,4v16a4,4,0,0,1-4,4h-16.915l-6.177,5.672a1.333,1.333,0,0,1-1.438.239,1.333,1.333,0,0,1-.8-1.22V-9.334A4,4,0,0,1-249.334-13.333Zm21.327,21.327a1.334,1.334,0,0,0,1.333-1.333v-16a1.334,1.334,0,0,0-1.333-1.333h-21.327a1.334,1.334,0,0,0-1.333,1.333V12.316l4.325-3.971a1.333,1.333,0,0,1,.9-.351Z" transform="translate(253.333 13.333)"/>
          </g>
          <g id="g2877" transform="translate(36.79 26.507)">
            <path id="path2879" d="M-228.005-10.667H-252A1.333,1.333,0,0,1-253.331-12,1.333,1.333,0,0,1-252-13.333h23.993A1.333,1.333,0,0,1-226.672-12,1.333,1.333,0,0,1-228.005-10.667Z" transform="translate(253.331 13.333)"/>
          </g>
        </g>
      </g>
    </g>
  </g>
</svg>
