<svg xmlns="http://www.w3.org/2000/svg" width="129.063" height="65.438" viewBox="0 0 129.063 65.438">
  <g id="Group_1207158" data-name="Group 1207158" transform="translate(1689 6051.218)">
    <g id="Group_1206595" data-name="Group 1206595" transform="translate(-2752.839 -11515.738)">
      <g id="Group_1205224" data-name="Group 1205224" transform="translate(276.058 2903.871)">
        <g id="Rectangle_410589" data-name="Rectangle 410589" transform="translate(787.781 2575.623)" fill="#ffc94a" stroke="#dfab32" stroke-width="1">
          <rect width="129.063" height="43.021" rx="8" stroke="none"/>
          <rect x="0.5" y="0.5" width="128.063" height="42.021" rx="7.5" fill="none"/>
        </g>
      </g>
    </g>
    <g id="taller" transform="translate(-1658 -6051.218)">
      <g id="Group_1207154" data-name="Group 1207154" transform="translate(0.959 20.402)">
        <path id="Path_1271113" data-name="Path 1271113" d="M61.981,398.031h14.6V403.2h-14.6Z" transform="translate(-55.018 -367.562)" fill="#dff6fd"/>
        <path id="Path_1271114" data-name="Path 1271114" d="M53.17,438.437h14.6v8.443H51.879v-7.152A1.291,1.291,0,0,1,53.17,438.437Z" transform="translate(-46.207 -402.803)" fill="#fd8087"/>
        <path id="Path_1271115" data-name="Path 1271115" d="M143.919,438.437h4.131v8.443h-4.131Z" transform="translate(-126.484 -402.803)" fill="#fe646f"/>
        <path id="Path_1271116" data-name="Path 1271116" d="M143.919,398.031h4.131V403.2h-4.131Z" transform="translate(-126.484 -367.562)" fill="#c8effe"/>
        <path id="Path_1271117" data-name="Path 1271117" d="M27.1,164.8a2.066,2.066,0,0,0-2.166,2.063v-2.524a2.1,2.1,0,0,0-1.966-2.122,2.066,2.066,0,0,0-2.166,2.063v-2.524a2.1,2.1,0,0,0-1.966-2.122,2.066,2.066,0,0,0-2.166,2.063v2.582a2.066,2.066,0,0,0-2.166-2.063,2.1,2.1,0,0,0-1.966,2.122v12.858l-1.217-1.973a2.066,2.066,0,1,0-3.516,2.17L14,187.427a3.1,3.1,0,0,1,.462,1.627V190.1h14.6V166.919A2.1,2.1,0,0,0,27.1,164.8Z" transform="translate(-7.501 -159.631)" fill="#ca6e59"/>
        <path id="Path_1271118" data-name="Path 1271118" d="M151.394,200.041a2.057,2.057,0,0,0-1.388.449,2.155,2.155,0,0,1,.8,1.673v23.181h2.556V202.163A2.1,2.1,0,0,0,151.394,200.041Z" transform="translate(-131.793 -194.874)" fill="#bb5d4c"/>
      </g>
      <g id="Group_1207155" data-name="Group 1207155" transform="translate(42.912 12.655)">
        <path id="Path_1271119" data-name="Path 1271119" d="M390.236,337.421h14.6v5.164h-14.6Z" transform="translate(-383.273 -306.952)" fill="#dff6fd"/>
        <path id="Path_1271120" data-name="Path 1271120" d="M381.426,377.827h14.6v16.19H380.135v-14.9A1.291,1.291,0,0,1,381.426,377.827Z" transform="translate(-374.463 -342.193)" fill="#ffe177"/>
        <path id="Path_1271121" data-name="Path 1271121" d="M472.175,377.827h4.131v16.19h-4.131Z" transform="translate(-454.74 -342.193)" fill="#ffd15b"/>
        <path id="Path_1271122" data-name="Path 1271122" d="M472.175,337.421h4.131v5.164h-4.131Z" transform="translate(-454.74 -306.952)" fill="#c8effe"/>
        <path id="Path_1271123" data-name="Path 1271123" d="M355.358,104.187a2.066,2.066,0,0,0-2.166,2.063v-2.524a2.1,2.1,0,0,0-1.966-2.122,2.066,2.066,0,0,0-2.166,2.063v-2.524a2.1,2.1,0,0,0-1.966-2.122,2.066,2.066,0,0,0-2.166,2.063v2.582a2.066,2.066,0,0,0-2.166-2.063,2.1,2.1,0,0,0-1.966,2.122v12.858l-1.217-1.973a2.066,2.066,0,1,0-3.516,2.17l6.193,10.036a3.1,3.1,0,0,1,.462,1.627v1.045h14.6V106.309A2.1,2.1,0,0,0,355.358,104.187Z" transform="translate(-335.757 -99.021)" fill="#ea9b58"/>
        <path id="Path_1271124" data-name="Path 1271124" d="M479.65,139.431a2.057,2.057,0,0,0-1.388.449,2.155,2.155,0,0,1,.8,1.673v23.181h2.556V141.553a2.1,2.1,0,0,0-1.966-2.122Z" transform="translate(-460.049 -134.264)" fill="#d88a55"/>
      </g>
      <g id="Group_1207156" data-name="Group 1207156" transform="translate(21.346 0.958)">
        <path id="Path_1271125" data-name="Path 1271125" d="M221.495,245.9h14.6v5.164h-14.6Z" transform="translate(-214.532 -215.429)" fill="#dff6fd"/>
        <path id="Path_1271126" data-name="Path 1271126" d="M212.684,286.3h14.6v27.887H211.393V287.6A1.291,1.291,0,0,1,212.684,286.3Z" transform="translate(-205.721 -250.671)" fill="#528fd8"/>
        <path id="Path_1271127" data-name="Path 1271127" d="M303.433,286.3h4.131v27.887h-4.131Z" transform="translate(-285.998 -250.671)" fill="#0573ce"/>
        <path id="Path_1271128" data-name="Path 1271128" d="M303.433,245.9h4.131v5.164h-4.131Z" transform="translate(-285.998 -215.429)" fill="#c8effe"/>
        <path id="Path_1271129" data-name="Path 1271129" d="M186.616,12.666a2.066,2.066,0,0,0-2.166,2.063V12.206a2.1,2.1,0,0,0-1.966-2.122,2.066,2.066,0,0,0-2.166,2.063V9.624A2.1,2.1,0,0,0,178.353,7.5a2.066,2.066,0,0,0-2.166,2.063v2.582a2.066,2.066,0,0,0-2.166-2.063,2.1,2.1,0,0,0-1.966,2.122V25.063l-1.217-1.973a2.066,2.066,0,1,0-3.516,2.17L173.516,35.3a3.1,3.1,0,0,1,.462,1.627v1.045h14.6V14.788a2.1,2.1,0,0,0-1.966-2.122Z" transform="translate(-167.015 -7.5)" fill="#fed2a4"/>
        <path id="Path_1271130" data-name="Path 1271130" d="M310.908,47.909a2.057,2.057,0,0,0-1.388.449,2.155,2.155,0,0,1,.8,1.673V73.212h2.556V50.031A2.1,2.1,0,0,0,310.908,47.909Z" transform="translate(-291.307 -42.742)" fill="#ffbd86"/>
      </g>
      <g id="Group_1207157" data-name="Group 1207157" transform="translate(0 0)">
        <circle id="Ellipse_12997" data-name="Ellipse 12997" cx="1.033" cy="1.033" r="1.033" transform="translate(17.361 58.579)"/>
        <circle id="Ellipse_12998" data-name="Ellipse 12998" cx="1.033" cy="1.033" r="1.033" transform="translate(59.315 50.833)"/>
        <circle id="Ellipse_12999" data-name="Ellipse 12999" cx="1.033" cy="1.033" r="1.033" transform="translate(59.315 54.964)"/>
        <path id="Path_1271131" data-name="Path 1271131" d="M20.6,157.3a3.022,3.022,0,0,0-1.265.209,3.024,3.024,0,0,0-4.132-2.582,3.042,3.042,0,0,0-2.866-2.792,3,3,0,0,0-2.232.832,3.043,3.043,0,0,0-.929,1.958A3.029,3.029,0,0,0,5.041,157.8v3.127a.959.959,0,1,0,1.917,0V157.8a1.151,1.151,0,0,1,1.053-1.165,1.108,1.108,0,0,1,1.162,1.105h0v9.32a.959.959,0,1,0,1.917,0v-11.9a1.107,1.107,0,0,1,1.161-1.107,1.15,1.15,0,0,1,1.052,1.164v11.844a.959.959,0,1,0,1.917,0v-9.32s0,0,0,0a1.108,1.108,0,0,1,1.162-1.1,1.151,1.151,0,0,1,1.052,1.165v9.261a.959.959,0,1,0,1.917,0v-6.738a1.107,1.107,0,0,1,1.161-1.105,1.15,1.15,0,0,1,1.052,1.164V182.6H8.88v-.087a4.058,4.058,0,0,0-.6-2.13L2.083,170.348a1.107,1.107,0,1,1,1.884-1.165l2.114,3.426a3.26,3.26,0,0,0,1.562,1.319l2.277.921a3.162,3.162,0,0,1,1.867,2.13.959.959,0,0,0,1.856-.481,5.087,5.087,0,0,0-3-3.427l-2.277-.922a1.356,1.356,0,0,1-.65-.549l-.754-1.222V165.4a.959.959,0,1,0-1.917,0v2.116a3.024,3.024,0,0,0-4.59,3.841l6.193,10.035a2.142,2.142,0,0,1,.319,1.124v1.045h0v4.423a2.251,2.251,0,0,0-1.291,2.032v7.152a.959.959,0,1,0,1.917,0v-7.152a.333.333,0,0,1,.333-.333H21.567v7.485a.959.959,0,0,0,1.917,0V160.378A3.05,3.05,0,0,0,20.6,157.3Zm.962,30.465H8.88v-3.247H21.567Z" transform="translate(0 -132.687)"/>
        <path id="Path_1271132" data-name="Path 1271132" d="M203.6,30.669a.959.959,0,0,0,.959-.959V19.944a3.029,3.029,0,0,0-4.145-2.87,3.024,3.024,0,0,0-4.131-2.583,3.042,3.042,0,0,0-2.866-2.791,3,3,0,0,0-2.233.832,3.042,3.042,0,0,0-.929,1.958,3.028,3.028,0,0,0-4.14,2.872V27.08a3.05,3.05,0,0,0-3.124-.562V8.247a3.05,3.05,0,0,0-2.879-3.079h0a3.025,3.025,0,0,0-1.265.209,3.025,3.025,0,0,0-4.131-2.582A3.043,3.043,0,0,0,171.849,0a3,3,0,0,0-2.232.832,3.04,3.04,0,0,0-.928,1.957,3.029,3.029,0,0,0-4.14,2.871v9.718a3.042,3.042,0,0,0-3.562-.347,3.024,3.024,0,0,0-1.028,4.188l6.193,10.036a2.14,2.14,0,0,1,.319,1.124V35.85a2.252,2.252,0,0,0-1.292,2.033v7.693a.959.959,0,1,0,1.917,0V37.883a.333.333,0,0,1,.328-.333h13.65V64.479a.959.959,0,1,0,1.917,0V33.3l4.727,7.66a2.131,2.131,0,0,1,.319,1.123v5.469a2.251,2.251,0,0,0-1.291,2.032v14.9a.959.959,0,1,0,1.917,0V49.58a.333.333,0,0,1,.333-.333H202.64V64.479a.959.959,0,1,0,1.917,0v-30.3a.959.959,0,1,0-1.917,0v7.983H189.954v-.087a4.047,4.047,0,0,0-.605-2.13l-6.193-10.036a1.107,1.107,0,0,1,.377-1.532,1.112,1.112,0,0,1,1.507.37l2.115,3.426a3.26,3.26,0,0,0,1.562,1.319l2.277.921a3.162,3.162,0,0,1,1.867,2.13.959.959,0,0,0,1.856-.481,5.087,5.087,0,0,0-3-3.427l-2.277-.921a1.357,1.357,0,0,1-.65-.549l-.754-1.221V17.363a1.151,1.151,0,0,1,1.052-1.165,1.108,1.108,0,0,1,1.162,1.107s0,.008,0,.012v9.307a.959.959,0,0,0,1.917,0v-11.9a1.108,1.108,0,0,1,1.163-1.107,1.15,1.15,0,0,1,1.052,1.164V26.623a.959.959,0,1,0,1.917,0V17.3a1.108,1.108,0,0,1,1.162-1.107,1.151,1.151,0,0,1,1.052,1.165v9.261a.959.959,0,0,0,1.917,0V19.886s0,0,0-.006a1.107,1.107,0,0,1,1.162-1.1,1.15,1.15,0,0,1,1.052,1.164V29.71a.959.959,0,0,0,.959.959Zm-22.525,4.964H168.387V32.386h12.687Zm0-5.164H168.387v-.086a4.056,4.056,0,0,0-.6-2.131L161.59,18.216a1.107,1.107,0,0,1,.376-1.533,1.112,1.112,0,0,1,1.508.37l2.114,3.426A3.261,3.261,0,0,0,167.15,21.8l2.277.921a3.162,3.162,0,0,1,1.867,2.13.959.959,0,1,0,1.856-.481,5.088,5.088,0,0,0-3-3.427l-2.277-.921a1.357,1.357,0,0,1-.65-.549l-.754-1.222V5.665A1.15,1.15,0,0,1,167.518,4.5a1.107,1.107,0,0,1,1.162,1.106v9.32a.959.959,0,1,0,1.917,0V3.024a1.107,1.107,0,0,1,1.162-1.106,1.15,1.15,0,0,1,1.052,1.164V14.926a.959.959,0,1,0,1.917,0V5.606A1.107,1.107,0,0,1,175.89,4.5a1.15,1.15,0,0,1,1.052,1.164v9.262a.959.959,0,0,0,1.917,0V8.188a1.107,1.107,0,0,1,1.162-1.106,1.15,1.15,0,0,1,1.052,1.164Zm8.88,13.614H202.64v3.247H189.954Z" transform="translate(-139.12 0)"/>
        <path id="Path_1271133" data-name="Path 1271133" d="M204.849,384.1a.959.959,0,0,0-.959.959v14.43a.959.959,0,0,0,1.917,0v-14.43A.959.959,0,0,0,204.849,384.1Z" transform="translate(-177.831 -335.009)"/>
        <circle id="Ellipse_13000" data-name="Ellipse 13000" cx="1.033" cy="1.033" r="1.033" transform="translate(37.748 39.758)"/>
        <circle id="Ellipse_13001" data-name="Ellipse 13001" cx="1.033" cy="1.033" r="1.033" transform="translate(37.748 43.889)"/>
      </g>
    </g>
  </g>
</svg>
