<svg xmlns="http://www.w3.org/2000/svg" xmlns:xlink="http://www.w3.org/1999/xlink" width="111.776" height="111.776" viewBox="0 0 111.776 111.776">
  <defs>
    <filter id="Path_874925" x="0" y="0" width="111.776" height="111.776" filterUnits="userSpaceOnUse">
      <feOffset dy="3" input="SourceAlpha"/>
      <feGaussianBlur stdDeviation="3" result="blur"/>
      <feFlood flood-opacity="0.161"/>
      <feComposite operator="in" in2="blur"/>
      <feComposite in="SourceGraphic"/>
    </filter>
    <clipPath id="clip-path">
      <path id="path393" d="M0-682.665H58.3v58.3H0Z" transform="translate(0 682.665)"/>
    </clipPath>
  </defs>
  <g id="Group_1207171" data-name="Group 1207171" transform="translate(-746.051 -664)">
    <g id="Group_1206713" data-name="Group 1206713" transform="translate(-49.949 -1155.883)">
      <g id="Group_1204844" data-name="Group 1204844" transform="translate(520 -4424.991)">
        <g id="Group_1200232" data-name="Group 1200232" transform="translate(285 6250.874)">
          <g id="Group_1187153" data-name="Group 1187153">
            <g id="Group_1182177" data-name="Group 1182177">
              <g id="Group_1181903" data-name="Group 1181903">
                <g id="Group_1181438" data-name="Group 1181438">
                  <g id="Group_1111314" data-name="Group 1111314">
                    <g transform="matrix(1, 0, 0, 1, -9, -6)" filter="url(#Path_874925)">
                      <g id="Path_874925-2" data-name="Path 874925" transform="translate(9 6)" fill="#dcd9d3">
                        <path d="M 46.88790893554688 92.2763671875 C 40.75992202758789 92.2763671875 34.8160285949707 91.07652282714844 29.22134971618652 88.71018218994141 C 23.81676292419434 86.42423248291016 18.96264266967773 83.15139007568359 14.79381561279297 78.98255157470703 C 10.62497520446777 74.81372833251953 7.35213565826416 69.95960998535156 5.066188812255859 64.55502319335938 C 2.699842214584351 58.9603385925293 1.500002264976501 53.01644515991211 1.500002264976501 46.88844680786133 C 1.500002264976501 40.75992584228516 2.699842214584351 34.81603240966797 5.066188812255859 29.22135353088379 C 7.35213565826416 23.8167667388916 10.62497520446777 18.962646484375 14.79381561279297 14.79381942749023 C 18.96264266967773 10.62497997283936 23.81676292419434 7.352139949798584 29.22134971618652 5.066193103790283 C 34.8160285949707 2.699846506118774 40.75992202758789 1.500006437301636 46.88790893554688 1.500006437301636 C 53.01589584350586 1.500006437301636 58.95978927612305 2.699846506118774 64.55446624755859 5.066193103790283 C 69.95905303955078 7.352139949798584 74.81317901611328 10.62497997283936 78.98200225830078 14.79381942749023 C 83.15084075927734 18.962646484375 86.42368316650391 23.8167667388916 88.70962524414062 29.22135353088379 C 91.07597351074219 34.81603240966797 92.27581787109375 40.75992584228516 92.27581787109375 46.88791275024414 C 92.27581787109375 53.01644515991211 91.07597351074219 58.9603385925293 88.70962524414062 64.55502319335938 C 86.42368316650391 69.95960998535156 83.15084075927734 74.81372833251953 78.98200225830078 78.98255157470703 C 74.81317901611328 83.15139007568359 69.95905303955078 86.42423248291016 64.55446624755859 88.71018218994141 C 58.95978927612305 91.07652282714844 53.01589584350586 92.2763671875 46.88790893554688 92.2763671875 Z" stroke="none"/>
                        <path d="M 46.88790893554688 2.999992370605469 C 40.96175003051758 2.999992370605469 35.2144660949707 4.159965515136719 29.80567932128906 6.44769287109375 C 24.57989501953125 8.658004760742188 19.88602447509766 11.82290649414062 15.85446929931641 15.85446929931641 C 11.82290649414062 19.88602447509766 8.658012390136719 24.57989501953125 6.44769287109375 29.80567932128906 C 4.159965515136719 35.2144660949707 2.999992370605469 40.96175003051758 2.999992370605469 46.88845062255859 C 2.999992370605469 52.81460952758789 4.159965515136719 58.56189346313477 6.44769287109375 63.97069549560547 C 8.658012390136719 69.19646453857422 11.82290649414062 73.89033508300781 15.85446929931641 77.92189025878906 C 19.88602447509766 81.95343780517578 24.57989501953125 85.11833953857422 29.80567932128906 87.32865142822266 C 35.2144660949707 89.61637878417969 40.96175003051758 90.77635192871094 46.88790893554688 90.77635192871094 C 52.81406784057617 90.77635192871094 58.56135177612305 89.61637878417969 63.97013854980469 87.32865142822266 C 69.1959228515625 85.11833953857422 73.88979339599609 81.95343780517578 77.92134857177734 77.92189025878906 C 81.95291137695312 73.89033508300781 85.11781311035156 69.19646453857422 87.328125 63.97069549560547 C 89.61585235595703 58.56189346313477 90.77582550048828 52.81460952758789 90.77582550048828 46.88790893554688 C 90.77582550048828 40.96175003051758 89.61585235595703 35.2144660949707 87.328125 29.80567932128906 C 85.11781311035156 24.57989501953125 81.95291137695312 19.88602447509766 77.92134857177734 15.85446929931641 C 73.88979339599609 11.82290649414062 69.1959228515625 8.658004760742188 63.97013854980469 6.44769287109375 C 58.56135177612305 4.159965515136719 52.81406784057617 2.999992370605469 46.88790893554688 2.999992370605469 M 46.88790893554688 -7.62939453125e-06 C 72.78337860107422 -7.62939453125e-06 93.77582550048828 20.99243927001953 93.77582550048828 46.88790893554688 L 93.77582550048828 46.88845062255859 C 93.77582550048828 72.783935546875 72.78337860107422 93.77635192871094 46.88790893554688 93.77635192871094 C 20.99243927001953 93.77635192871094 -7.62939453125e-06 72.783935546875 -7.62939453125e-06 46.88845062255859 L -7.62939453125e-06 46.88790893554688 C -7.62939453125e-06 20.99243927001953 20.99243927001953 -7.62939453125e-06 46.88790893554688 -7.62939453125e-06 Z" stroke="none" fill="#fff"/>
                      </g>
                    </g>
                  </g>
                </g>
              </g>
            </g>
          </g>
        </g>
      </g>
    </g>
    <g id="g387" transform="translate(773.051 1370.665)">
      <g id="g389" transform="translate(0 -682.665)">
        <g id="g391" clip-path="url(#clip-path)">
          <g id="g397" transform="translate(22.416 18.853)">
            <path id="path399" d="M-72.14-144.28a6.738,6.738,0,0,0,6.017-3.708,6.705,6.705,0,0,0,.63-1.932,6.678,6.678,0,0,0,.09-1.1,6.743,6.743,0,0,0-4.281-6.276,6.724,6.724,0,0,0-2.455-.461,6.727,6.727,0,0,0-2.459.461,6.739,6.739,0,0,0-4.278,6.276,6.691,6.691,0,0,0,.09,1.1,6.513,6.513,0,0,0,.63,1.932,6.735,6.735,0,0,0,6.018,3.708" transform="translate(78.877 157.753)" fill="#ffdcd5" fill-rule="evenodd"/>
          </g>
          <g id="g401" transform="translate(31.608 14.996)">
            <path id="path403" d="M-61.246-127.318a5.944,5.944,0,0,0,5.308-3.271,5.9,5.9,0,0,0,.636-2.674,5.944,5.944,0,0,0-5.945-5.945,5.948,5.948,0,0,0-5.719,4.318,6.743,6.743,0,0,1,4.281,6.276,6.691,6.691,0,0,1-.09,1.1,5.957,5.957,0,0,0,1.528.2" transform="translate(66.965 139.208)" fill="#ffd0c7" fill-rule="evenodd"/>
          </g>
          <g id="g405" transform="translate(15.033 14.996)">
            <path id="path407" d="M-79.06-113.443a6.74,6.74,0,0,1,4.278-6.276,5.945,5.945,0,0,0-5.719-4.318,5.943,5.943,0,0,0-5.941,5.945,5.943,5.943,0,0,0,.633,2.674,5.945,5.945,0,0,0,5.308,3.271,5.985,5.985,0,0,0,1.531-.2,6.691,6.691,0,0,1-.09-1.1" transform="translate(86.442 124.037)" fill="#ffd0c7" fill-rule="evenodd"/>
          </g>
          <g id="g409" transform="translate(1.139 1.139)">
            <path id="path411" d="M-495.86-528.186l3.048-3.045a2.96,2.96,0,0,0,0-4.172l-1.928-1.929a22.8,22.8,0,0,0,2.929-7.061h2.72a2.961,2.961,0,0,0,2.953-2.949v-4.308a2.959,2.959,0,0,0-2.953-2.949h-2.71a22.79,22.79,0,0,0-2.939-7.1l1.928-1.928a2.96,2.96,0,0,0,0-4.172l-3.048-3.045a2.956,2.956,0,0,0-4.169,0l-1.932,1.929a22.808,22.808,0,0,0-7.171-2.956v-2.684a2.956,2.956,0,0,0-2.949-2.949h-4.308a2.956,2.956,0,0,0-2.949,2.949v2.727a22.741,22.741,0,0,0-7.061,2.959l-1.915-1.915a2.954,2.954,0,0,0-4.172,0l-3.049,3.045a2.96,2.96,0,0,0,0,4.172l1.942,1.942a22.7,22.7,0,0,0-2.893,7.031h-2.73a2.956,2.956,0,0,0-2.949,2.949v4.308a2.958,2.958,0,0,0,2.949,2.949h2.74a22.716,22.716,0,0,0,2.929,7.061l-1.928,1.929a2.96,2.96,0,0,0,0,4.172l3.045,3.045a2.96,2.96,0,0,0,4.172,0l1.929-1.929a22.758,22.758,0,0,0,7.075,2.933v2.747a2.959,2.959,0,0,0,2.949,2.953H-512a2.961,2.961,0,0,0,2.949-2.953v-2.744a22.765,22.765,0,0,0,7.088-2.936l1.932,1.929a2.956,2.956,0,0,0,4.169,0M-511.7-559.334a5.948,5.948,0,0,1,5.719-4.318,5.944,5.944,0,0,1,5.945,5.945,5.9,5.9,0,0,1-.636,2.674,8.677,8.677,0,0,1,3.377,6.859v3.373a2.736,2.736,0,0,1-2.727,2.727h-4.291v3.642a3.1,3.1,0,0,1-3.092,3.092h-13.5a3.1,3.1,0,0,1-3.088-3.092v-3.642h-4.295a2.735,2.735,0,0,1-2.724-2.727v-3.373a8.675,8.675,0,0,1,3.373-6.859,5.943,5.943,0,0,1-.633-2.674,5.943,5.943,0,0,1,5.941-5.945,5.945,5.945,0,0,1,5.72,4.318,6.727,6.727,0,0,1,2.459-.461,6.725,6.725,0,0,1,2.456.461" transform="translate(542.165 577.509)" fill="#def6f0" fill-rule="evenodd"/>
          </g>
          <g id="g413" transform="translate(12.293 23.615)">
            <path id="path415" d="M-75.155-136.864a9.843,9.843,0,0,1,3.824-7.777,6.518,6.518,0,0,1-.63-1.932,5.99,5.99,0,0,1-1.531.2,5.945,5.945,0,0,1-5.308-3.271,8.674,8.674,0,0,0-3.373,6.859v3.373a2.735,2.735,0,0,0,2.724,2.727h4.295Z" transform="translate(82.173 149.645)" fill="#7dd9c2" fill-rule="evenodd"/>
          </g>
          <g id="g417" transform="translate(19.311 28.619)">
            <path id="path419" d="M-33.073-157.3h13.5a3.1,3.1,0,0,0,3.092-3.092v-3.821a9.843,9.843,0,0,0-3.824-7.777,6.738,6.738,0,0,1-6.017,3.708,6.735,6.735,0,0,1-6.018-3.708,9.843,9.843,0,0,0-3.824,7.777v3.821a3.1,3.1,0,0,0,3.088,3.092" transform="translate(36.161 171.992)" fill="#ffcd69" fill-rule="evenodd"/>
          </g>
          <g id="g421" transform="translate(35.17 23.615)">
            <path id="path423" d="M-86.9-138.78a2.736,2.736,0,0,0,2.727-2.727v-3.373a8.678,8.678,0,0,0-3.377-6.859,5.944,5.944,0,0,1-5.308,3.271,5.958,5.958,0,0,1-1.528-.2,6.707,6.707,0,0,1-.63,1.932,9.843,9.843,0,0,1,3.824,7.777v.179Z" transform="translate(95.018 151.74)" fill="#ff7b79" fill-rule="evenodd"/>
          </g>
          <g id="g425" transform="translate(21.267 17.705)">
            <path id="path427" d="M-84.442-155.433a7.894,7.894,0,0,1-7.885-7.885,7.894,7.894,0,0,1,7.885-7.885,7.894,7.894,0,0,1,7.885,7.885A7.894,7.894,0,0,1-84.442-155.433Zm0-13.473a5.594,5.594,0,0,0-5.588,5.588,5.594,5.594,0,0,0,5.588,5.588,5.594,5.594,0,0,0,5.588-5.588A5.594,5.594,0,0,0-84.442-168.906Z" transform="translate(92.328 171.204)"/>
          </g>
          <g id="g429" transform="translate(18.162 27.47)">
            <path id="path431" d="M-172.475-168.456a1.149,1.149,0,0,1-1.147-1.092l-.733-14.689a1.149,1.149,0,0,1,.617-1.076,1.149,1.149,0,0,1,1.235.112,10.938,10.938,0,0,1,4.268,8.684v3.821A4.245,4.245,0,0,1-172.475-168.456Zm.572-12.741.5,10.117a1.943,1.943,0,0,0,.866-1.617v-3.821A8.619,8.619,0,0,0-171.9-181.2Zm-12.568,12.741h-1.508a4.244,4.244,0,0,1-4.237-4.24v-3.821a10.938,10.938,0,0,1,4.268-8.684,1.149,1.149,0,0,1,1.612.2,1.149,1.149,0,0,1-.2,1.612,8.656,8.656,0,0,0-3.38,6.87v3.821a1.943,1.943,0,0,0,1.94,1.943h1.508a1.149,1.149,0,0,1,1.149,1.149A1.149,1.149,0,0,1-184.471-168.456Z" transform="translate(190.216 185.443)"/>
          </g>
          <g id="g433" transform="translate(30.459 13.848)">
            <path id="path435" d="M-55.666-136.1a6.967,6.967,0,0,1-1.829-.242,1.149,1.149,0,0,1-.807-1.41,1.149,1.149,0,0,1,1.41-.807,4.669,4.669,0,0,0,1.226.162,4.8,4.8,0,0,0,4.8-4.8,4.8,4.8,0,0,0-4.8-4.8,4.817,4.817,0,0,0-4.614,3.483,1.149,1.149,0,0,1-1.419.79,1.149,1.149,0,0,1-.79-1.419,7.124,7.124,0,0,1,6.824-5.152,7.1,7.1,0,0,1,7.094,7.093A7.1,7.1,0,0,1-55.666-136.1Z" transform="translate(62.534 150.292)"/>
          </g>
          <g id="g437" transform="translate(37.845 22.466)">
            <path id="path439" d="M-8.011-147.839H-12.3a1.149,1.149,0,0,1-1.149-1.149v-.179a1.149,1.149,0,0,1,1.149-1.149,1.143,1.143,0,0,1,.616.179h3.675a1.58,1.58,0,0,0,1.578-1.578v-3.373a7.489,7.489,0,0,0-2.932-5.951,1.149,1.149,0,0,1-.2-1.612,1.149,1.149,0,0,1,1.612-.2,9.772,9.772,0,0,1,3.821,7.767v3.373A3.88,3.88,0,0,1-8.011-147.839Z" transform="translate(13.451 163.096)"/>
          </g>
          <g id="g441" transform="translate(13.884 13.848)">
            <path id="path443" d="M-142.892-49.818a7.1,7.1,0,0,1-7.09-7.093,7.1,7.1,0,0,1,7.09-7.094,7.117,7.117,0,0,1,6.825,5.153,1.149,1.149,0,0,1-.792,1.418,1.149,1.149,0,0,1-1.418-.792,4.811,4.811,0,0,0-4.614-3.482,4.8,4.8,0,0,0-4.792,4.8,4.8,4.8,0,0,0,4.792,4.8,4.683,4.683,0,0,0,1.229-.162,1.149,1.149,0,0,1,1.41.807,1.149,1.149,0,0,1-.807,1.41A6.981,6.981,0,0,1-142.892-49.818Z" transform="translate(149.982 64.005)"/>
          </g>
          <g id="g445" transform="translate(11.144 22.466)">
            <path id="path447" d="M-44.779,1.806h-4.295A3.879,3.879,0,0,1-52.947-2.07V-5.443a9.77,9.77,0,0,1,3.818-7.767,1.149,1.149,0,0,1,1.612.2,1.149,1.149,0,0,1-.2,1.612,7.487,7.487,0,0,0-2.928,5.951V-2.07A1.579,1.579,0,0,0-49.074-.492h3.188a10.941,10.941,0,0,1,4.225-7.714,1.149,1.149,0,0,1,1.612.2,1.149,1.149,0,0,1-.2,1.612,8.656,8.656,0,0,0-3.38,6.87V.657A1.149,1.149,0,0,1-44.779,1.806Z" transform="translate(52.947 13.451)"/>
          </g>
          <g id="g449" transform="translate(28.005 42.159)">
            <path id="path451" d="M-12.281-11.153a1.15,1.15,0,0,1-1.15-1.149,1.147,1.147,0,0,1,1.147-1.149h0A1.149,1.149,0,0,1-11.132-12.3,1.149,1.149,0,0,1-12.281-11.153Z" transform="translate(13.431 13.451)"/>
          </g>
          <g id="g453" transform="translate(-0.01 -0.01)">
            <path id="path455" d="M-373.3-79.408h4.308a4.1,4.1,0,0,1,4.1,4.1v1.782a23.87,23.87,0,0,1,5.846,2.411l1.3-1.294a4.067,4.067,0,0,1,2.9-1.2,4.068,4.068,0,0,1,2.9,1.2l3.048,3.045a4.107,4.107,0,0,1,0,5.8l-1.293,1.293a23.875,23.875,0,0,1,2.391,5.779H-346a4.1,4.1,0,0,1,4.1,4.1v4.308a4.1,4.1,0,0,1-4.1,4.1h-1.822a23.881,23.881,0,0,1-2.38,5.736l1.293,1.293a4.107,4.107,0,0,1,0,5.8l-3.05,3.047a4.068,4.068,0,0,1-2.9,1.2,4.068,4.068,0,0,1-2.9-1.2l-1.3-1.293a23.841,23.841,0,0,1-5.763,2.387v1.845a4.1,4.1,0,0,1-4.1,4.1h-4.308a4.1,4.1,0,0,1-4.1-4.1v-1.848a23.848,23.848,0,0,1-5.749-2.383l-1.293,1.293a4.07,4.07,0,0,1-2.9,1.2,4.07,4.07,0,0,1-2.9-1.2l-3.045-3.045a4.107,4.107,0,0,1,0-5.8l1.293-1.293a23.8,23.8,0,0,1-2.379-5.736h-1.842a4.1,4.1,0,0,1-4.1-4.1V-52.4a4.1,4.1,0,0,1,4.1-4.1h1.83a23.784,23.784,0,0,1,2.348-5.7l-1.309-1.309a4.07,4.07,0,0,1-1.2-2.9,4.07,4.07,0,0,1,1.2-2.9l3.049-3.046a4.062,4.062,0,0,1,2.9-1.2,4.073,4.073,0,0,1,2.9,1.2l1.277,1.277a23.815,23.815,0,0,1,5.739-2.4V-75.31A4.1,4.1,0,0,1-373.3-79.408Zm14.427,10.887a1.146,1.146,0,0,1-.611-.176A21.6,21.6,0,0,0-366.3-71.5a1.149,1.149,0,0,1-.9-1.121V-75.31a1.8,1.8,0,0,0-1.8-1.8H-373.3a1.8,1.8,0,0,0-1.8,1.8v2.727a1.149,1.149,0,0,1-.889,1.119,21.548,21.548,0,0,0-6.7,2.81,1.149,1.149,0,0,1-1.429-.157l-1.915-1.915a1.79,1.79,0,0,0-1.275-.526,1.782,1.782,0,0,0-1.271.525l-3.05,3.047a1.787,1.787,0,0,0-.523,1.273,1.787,1.787,0,0,0,.523,1.274l1.942,1.942a1.149,1.149,0,0,1,.162,1.421,21.515,21.515,0,0,0-2.747,6.676,1.149,1.149,0,0,1-1.121.9h-2.73a1.8,1.8,0,0,0-1.8,1.8v4.308a1.8,1.8,0,0,0,1.8,1.8h2.74a1.149,1.149,0,0,1,1.12.893,21.534,21.534,0,0,0,2.781,6.7,1.149,1.149,0,0,1-.16,1.425l-1.928,1.929a1.806,1.806,0,0,0,0,2.548l3.044,3.044a1.787,1.787,0,0,0,1.274.523,1.788,1.788,0,0,0,1.274-.523l1.929-1.929a1.149,1.149,0,0,1,1.424-.16,21.58,21.58,0,0,0,6.718,2.785,1.149,1.149,0,0,1,.894,1.12v2.747a1.8,1.8,0,0,0,1.8,1.8h4.308a1.8,1.8,0,0,0,1.8-1.8v-2.744a1.149,1.149,0,0,1,.894-1.12,21.573,21.573,0,0,0,6.73-2.788,1.149,1.149,0,0,1,1.424.159l1.932,1.929a1.786,1.786,0,0,0,1.273.524,1.786,1.786,0,0,0,1.272-.523l3.049-3.046a1.805,1.805,0,0,0,0-2.547l-1.929-1.929a1.149,1.149,0,0,1-.16-1.424,21.611,21.611,0,0,0,2.782-6.706,1.149,1.149,0,0,1,1.12-.893H-346a1.8,1.8,0,0,0,1.8-1.8V-52.4a1.8,1.8,0,0,0-1.8-1.8h-2.71a1.149,1.149,0,0,1-1.12-.895,21.61,21.61,0,0,0-2.791-6.747,1.149,1.149,0,0,1,.16-1.424l1.928-1.929a1.806,1.806,0,0,0,0-2.548l-3.047-3.044a1.786,1.786,0,0,0-1.272-.524,1.785,1.785,0,0,0-1.272.523l-1.933,1.929A1.148,1.148,0,0,1-358.875-68.521Z" transform="translate(400.228 79.408)"/>
          </g>
        </g>
      </g>
    </g>
  </g>
</svg>
