<svg xmlns="http://www.w3.org/2000/svg" xmlns:xlink="http://www.w3.org/1999/xlink" width="111.776" height="111.776" viewBox="0 0 111.776 111.776">
  <defs>
    <filter id="Path_874925" x="0" y="0" width="111.776" height="111.776" filterUnits="userSpaceOnUse">
      <feOffset dy="3" input="SourceAlpha"/>
      <feGaussianBlur stdDeviation="3" result="blur"/>
      <feFlood flood-opacity="0.161"/>
      <feComposite operator="in" in2="blur"/>
      <feComposite in="SourceGraphic"/>
    </filter>
  </defs>
  <g id="Group_1207177" data-name="Group 1207177" transform="translate(-956.051 -664)">
    <g id="Group_1206714" data-name="Group 1206714" transform="translate(160.051 -1155.883)">
      <g id="Group_1204844" data-name="Group 1204844" transform="translate(520 -4424.991)">
        <g id="Group_1200232" data-name="Group 1200232" transform="translate(285 6250.874)">
          <g id="Group_1187153" data-name="Group 1187153">
            <g id="Group_1182177" data-name="Group 1182177">
              <g id="Group_1181903" data-name="Group 1181903">
                <g id="Group_1181438" data-name="Group 1181438">
                  <g id="Group_1111314" data-name="Group 1111314">
                    <g transform="matrix(1, 0, 0, 1, -9, -6)" filter="url(#Path_874925)">
                      <g id="Path_874925-2" data-name="Path 874925" transform="translate(9 6)" fill="#dcd9d3">
                        <path d="M 46.88790893554688 92.2763671875 C 40.75992202758789 92.2763671875 34.8160285949707 91.07652282714844 29.22134971618652 88.71018218994141 C 23.81676292419434 86.42423248291016 18.96264266967773 83.15139007568359 14.79381561279297 78.98255157470703 C 10.62497520446777 74.81372833251953 7.35213565826416 69.95960998535156 5.066188812255859 64.55502319335938 C 2.699842214584351 58.9603385925293 1.500002264976501 53.01644515991211 1.500002264976501 46.88844680786133 C 1.500002264976501 40.75992584228516 2.699842214584351 34.81603240966797 5.066188812255859 29.22135353088379 C 7.35213565826416 23.8167667388916 10.62497520446777 18.962646484375 14.79381561279297 14.79381942749023 C 18.96264266967773 10.62497997283936 23.81676292419434 7.352139949798584 29.22134971618652 5.066193103790283 C 34.8160285949707 2.699846506118774 40.75992202758789 1.500006437301636 46.88790893554688 1.500006437301636 C 53.01589584350586 1.500006437301636 58.95978927612305 2.699846506118774 64.55446624755859 5.066193103790283 C 69.95905303955078 7.352139949798584 74.81317901611328 10.62497997283936 78.98200225830078 14.79381942749023 C 83.15084075927734 18.962646484375 86.42368316650391 23.8167667388916 88.70962524414062 29.22135353088379 C 91.07597351074219 34.81603240966797 92.27581787109375 40.75992584228516 92.27581787109375 46.88791275024414 C 92.27581787109375 53.01644515991211 91.07597351074219 58.9603385925293 88.70962524414062 64.55502319335938 C 86.42368316650391 69.95960998535156 83.15084075927734 74.81372833251953 78.98200225830078 78.98255157470703 C 74.81317901611328 83.15139007568359 69.95905303955078 86.42423248291016 64.55446624755859 88.71018218994141 C 58.95978927612305 91.07652282714844 53.01589584350586 92.2763671875 46.88790893554688 92.2763671875 Z" stroke="none"/>
                        <path d="M 46.88790893554688 2.999992370605469 C 40.96175003051758 2.999992370605469 35.2144660949707 4.159965515136719 29.80567932128906 6.44769287109375 C 24.57989501953125 8.658004760742188 19.88602447509766 11.82290649414062 15.85446929931641 15.85446929931641 C 11.82290649414062 19.88602447509766 8.658012390136719 24.57989501953125 6.44769287109375 29.80567932128906 C 4.159965515136719 35.2144660949707 2.999992370605469 40.96175003051758 2.999992370605469 46.88845062255859 C 2.999992370605469 52.81460952758789 4.159965515136719 58.56189346313477 6.44769287109375 63.97069549560547 C 8.658012390136719 69.19646453857422 11.82290649414062 73.89033508300781 15.85446929931641 77.92189025878906 C 19.88602447509766 81.95343780517578 24.57989501953125 85.11833953857422 29.80567932128906 87.32865142822266 C 35.2144660949707 89.61637878417969 40.96175003051758 90.77635192871094 46.88790893554688 90.77635192871094 C 52.81406784057617 90.77635192871094 58.56135177612305 89.61637878417969 63.97013854980469 87.32865142822266 C 69.1959228515625 85.11833953857422 73.88979339599609 81.95343780517578 77.92134857177734 77.92189025878906 C 81.95291137695312 73.89033508300781 85.11781311035156 69.19646453857422 87.328125 63.97069549560547 C 89.61585235595703 58.56189346313477 90.77582550048828 52.81460952758789 90.77582550048828 46.88790893554688 C 90.77582550048828 40.96175003051758 89.61585235595703 35.2144660949707 87.328125 29.80567932128906 C 85.11781311035156 24.57989501953125 81.95291137695312 19.88602447509766 77.92134857177734 15.85446929931641 C 73.88979339599609 11.82290649414062 69.1959228515625 8.658004760742188 63.97013854980469 6.44769287109375 C 58.56135177612305 4.159965515136719 52.81406784057617 2.999992370605469 46.88790893554688 2.999992370605469 M 46.88790893554688 -7.62939453125e-06 C 72.78337860107422 -7.62939453125e-06 93.77582550048828 20.99243927001953 93.77582550048828 46.88790893554688 L 93.77582550048828 46.88845062255859 C 93.77582550048828 72.783935546875 72.78337860107422 93.77635192871094 46.88790893554688 93.77635192871094 C 20.99243927001953 93.77635192871094 -7.62939453125e-06 72.783935546875 -7.62939453125e-06 46.88845062255859 L -7.62939453125e-06 46.88790893554688 C -7.62939453125e-06 20.99243927001953 20.99243927001953 -7.62939453125e-06 46.88790893554688 -7.62939453125e-06 Z" stroke="none" fill="#fff"/>
                      </g>
                    </g>
                  </g>
                </g>
              </g>
            </g>
          </g>
        </g>
      </g>
    </g>
    <g id="feria" transform="translate(985.571 691.453)">
      <g id="Group_1207176" data-name="Group 1207176" transform="translate(3.863 1.766)">
        <g id="Group_1207172" data-name="Group 1207172" transform="translate(13.404 16.458)">
          <path id="Path_1271504" data-name="Path 1271504" d="M165.753,281.478a8.189,8.189,0,0,0-16.331,0,.569.569,0,0,0,.57.614h15.192A.569.569,0,0,0,165.753,281.478Z" transform="translate(-149.421 -264.977)" fill="#ffda2d" fill-rule="evenodd"/>
          <path id="Path_1271505" data-name="Path 1271505" d="M237.4,281.478a8.216,8.216,0,0,0-8.166-7.575q-.29,0-.574.02a8.22,8.22,0,0,1,7.591,7.554.569.569,0,0,1-.57.614h1.149A.569.569,0,0,0,237.4,281.478Z" transform="translate(-221.064 -264.977)" fill="#ffc700" fill-rule="evenodd"/>
          <circle id="Ellipse_13005" data-name="Ellipse 13005" cx="4.426" cy="4.426" r="4.426" transform="translate(3.657 0.168) rotate(-1.088)" fill="#ffd6bd"/>
          <path id="Path_1271506" data-name="Path 1271506" d="M230.064,181.535a4.426,4.426,0,1,1-.486,8.824,4.426,4.426,0,0,0,0-8.8A4.476,4.476,0,0,1,230.064,181.535Z" transform="translate(-221.897 -181.46)" fill="#f9c6aa" fill-rule="evenodd"/>
        </g>
        <g id="Group_1207173" data-name="Group 1207173" transform="translate(0.453 8.916)">
          <path id="Path_1271507" data-name="Path 1271507" d="M75.777,102.046h2.938v38.422H75.777Zm-34.034,0h2.938v38.422H41.743Z" transform="translate(-39.11 -102.046)" fill="#b4d2d7" fill-rule="evenodd"/>
          <path id="Path_1271508" data-name="Path 1271508" d="M95.09,102.046h1.087v38.422H95.09Zm-34.034,0h1.087v38.422H61.056Z" transform="translate(-56.573 -102.046)" fill="#9bb9c3" fill-rule="evenodd"/>
          <path id="Path_1271509" data-name="Path 1271509" d="M15.039,337.823h40.08a.769.769,0,0,1,.767.767v14.3a.769.769,0,0,1-.767.767H15.039a.769.769,0,0,1-.767-.767v-14.3A.769.769,0,0,1,15.039,337.823Z" transform="translate(-14.272 -315.23)" fill="#64b5f6" fill-rule="evenodd"/>
          <path id="Path_1271510" data-name="Path 1271510" d="M15.038,337.823h40.08a.769.769,0,0,1,.767.767v.86H16.642a.769.769,0,0,0-.767.767v13.435h-.837a.769.769,0,0,1-.767-.767v-14.3A.769.769,0,0,1,15.038,337.823Z" transform="translate(-14.271 -315.23)" fill="#42a5f5" fill-rule="evenodd"/>
          <path id="Path_1271511" data-name="Path 1271511" d="M69.614,392.783H99.928a.384.384,0,0,1,.383.383v4.529a.384.384,0,0,1-.383.383H69.614a.384.384,0,0,1-.383-.383v-4.529A.384.384,0,0,1,69.614,392.783Z" transform="translate(-63.964 -364.923)" fill="#eff4f7" fill-rule="evenodd"/>
          <path id="Path_1271512" data-name="Path 1271512" d="M99.353,392.783h.575a.384.384,0,0,1,.383.383v4.529a.384.384,0,0,1-.383.383H69.614a.384.384,0,0,1-.383-.383v-.575H98.969a.384.384,0,0,0,.383-.383Z" transform="translate(-63.964 -364.923)" fill="#e2e3e3" fill-rule="evenodd"/>
        </g>
        <g id="Group_1207174" data-name="Group 1207174" transform="translate(0)">
          <path id="Path_1271513" data-name="Path 1271513" d="M16.571,9.225,9.545,19.45c.092,2.347,2.2,3.556,4.314,3.556s4.222-1.209,4.314-3.556c.092,2.347,2.2,3.556,4.314,3.556S26.71,21.8,26.8,19.45c.092,2.347,2.2,3.556,4.314,3.556S35.338,21.8,35.43,19.45c.092,2.347,2.2,3.556,4.314,3.556s4.222-1.209,4.314-3.556c.092,2.347,2.2,3.556,4.314,3.556s4.222-1.209,4.314-3.556L45.708,9.226A.507.507,0,0,0,45.277,9H17a.507.507,0,0,0-.429.226Z" transform="translate(-9.545 -8.999)" fill="#72d561" fill-rule="evenodd"/>
          <path id="Path_1271514" data-name="Path 1271514" d="M76.26,9.225l-.7,1.019h30.531L105.4,9.226a.507.507,0,0,0-.43-.227H76.689a.507.507,0,0,0-.429.226Z" transform="translate(-69.234 -8.999)" fill="#3cbe52" fill-rule="evenodd"/>
          <path id="Path_1271515" data-name="Path 1271515" d="M13.86,121.62c-2.112,0-4.222-1.209-4.314-3.556h8.628c.092,2.347,2.2,3.556,4.314,3.556s4.222-1.209,4.314-3.556h8.628c.092,2.347,2.2,3.556,4.314,3.556s4.222-1.209,4.314-3.556h8.628c-.092,2.347-2.2,3.556-4.314,3.556s-4.222-1.209-4.314-3.556H35.431c-.092,2.347-2.2,3.556-4.314,3.556s-4.222-1.209-4.314-3.556H18.174c-.092,2.347-2.2,3.556-4.314,3.556Z" transform="translate(-9.546 -107.613)" fill="#3cbe52" fill-rule="evenodd"/>
          <path id="Path_1271516" data-name="Path 1271516" d="M13.86,121.62c-2.112,0-4.222-1.209-4.314-3.556h.168a4.165,4.165,0,0,0,4.146,2.586,4.165,4.165,0,0,0,4.146-2.586h.168c.092,2.347,2.2,3.556,4.314,3.556s4.222-1.209,4.314-3.556h.168a4.165,4.165,0,0,0,4.146,2.586,4.165,4.165,0,0,0,4.146-2.586h.168c.092,2.347,2.2,3.556,4.314,3.556s4.222-1.209,4.314-3.556h.168a4.165,4.165,0,0,0,4.146,2.586,4.165,4.165,0,0,0,4.146-2.586h.168c-.092,2.347-2.2,3.556-4.314,3.556s-4.222-1.209-4.314-3.556h-.168a4.165,4.165,0,0,1-4.146,2.586,4.165,4.165,0,0,1-4.146-2.586h-.168c-.092,2.347-2.2,3.556-4.314,3.556s-4.222-1.209-4.314-3.556h-.168a4.165,4.165,0,0,1-4.146,2.586,4.165,4.165,0,0,1-4.146-2.586h-.168C18.082,120.411,15.972,121.62,13.86,121.62Z" transform="translate(-9.546 -107.613)" fill="#30aa44" fill-rule="evenodd"/>
          <path id="Path_1271517" data-name="Path 1271517" d="M115.563,9l1.281,10.451c.092,2.347,2.2,3.556,4.314,3.556s4.222-1.209,4.314-3.556L121.623,9ZM103.9,23.006c2.112,0,4.222-1.209,4.314-3.556L109.517,9h-6.033l-3.9,10.451C99.68,21.8,101.791,23.006,103.9,23.006Z" transform="translate(-90.96 -8.999)" fill="#ffda2d" fill-rule="evenodd"/>
          <path id="Path_1271518" data-name="Path 1271518" d="M147.951,9l.153,1.245h6.366L154.01,9Zm-6.2,1.245L141.9,9h-6.033l-.464,1.245Z" transform="translate(-123.347 -8.999)" fill="#ffc700" fill-rule="evenodd"/>
          <path id="Path_1271519" data-name="Path 1271519" d="M121.159,121.62c2.112,0,4.222-1.209,4.314-3.556h-8.628C116.937,120.411,119.047,121.62,121.159,121.62Zm-17.257,0c2.112,0,4.222-1.209,4.314-3.556H99.588C99.68,120.411,101.791,121.62,103.9,121.62Z" transform="translate(-90.96 -107.613)" fill="#fdb800" fill-rule="evenodd"/>
          <path id="Path_1271520" data-name="Path 1271520" d="M121.159,121.62c2.112,0,4.222-1.209,4.314-3.556h-.168a4.616,4.616,0,0,1-8.292,0h-.168C116.937,120.411,119.047,121.62,121.159,121.62Zm-17.257,0c2.112,0,4.222-1.209,4.314-3.556h-.168a4.616,4.616,0,0,1-8.292,0h-.168C99.68,120.411,101.791,121.62,103.9,121.62Z" transform="translate(-90.96 -107.613)" fill="#f4a40e" fill-rule="evenodd"/>
        </g>
        <g id="Group_1207175" data-name="Group 1207175" transform="translate(32.88 21.909)">
          <path id="Path_1271521" data-name="Path 1271521" d="M365.072,247.039h11.976v23.626H365.072Z" transform="translate(-363.883 -246.138)" fill="#ffda2d" fill-rule="evenodd"/>
          <path id="Path_1271522" data-name="Path 1271522" d="M470.736,247.039h1.851v23.626h-1.851Z" transform="translate(-459.422 -246.138)" fill="#ffc700" fill-rule="evenodd"/>
          <path id="Path_1271523" data-name="Path 1271523" d="M390.331,318.48a.767.767,0,0,1,1.533,0v.83a2.632,2.632,0,0,1,1.712,1.05.765.765,0,1,1-1.24.9,1.086,1.086,0,0,0-.382-.332,1.057,1.057,0,0,0-.485-.114h-.577a1.067,1.067,0,0,0,0,2.133h.41a2.6,2.6,0,0,1,.562,5.138v.861a.767.767,0,0,1-1.533,0v-.83a2.632,2.632,0,0,1-1.712-1.05.765.765,0,0,1,1.24-.9,1.086,1.086,0,0,0,.382.332,1.057,1.057,0,0,0,.485.114h.577a1.067,1.067,0,0,0,0-2.133h-.41a2.6,2.6,0,0,1-.562-5.138v-.861Z" transform="translate(-384.879 -310.039)" fill="#ffc700" fill-rule="evenodd"/>
          <path id="Path_1271524" data-name="Path 1271524" d="M353.048,263.061h13.587a.384.384,0,0,0,.383-.383v-1.428a.384.384,0,0,0-.383-.383H353.048a.384.384,0,0,0-.383.383v1.428A.384.384,0,0,0,353.048,263.061Zm0-23.234h13.587a.384.384,0,0,0,.383-.383v-1.428a.385.385,0,0,0-.383-.383H353.048a.385.385,0,0,0-.383.383v1.428A.384.384,0,0,0,353.048,239.827Z" transform="translate(-352.665 -237.632)" fill="#8d9ca8" fill-rule="evenodd"/>
          <path id="Path_1271525" data-name="Path 1271525" d="M353.048,263.061h13.587a.384.384,0,0,0,.383-.383v-1.428a.384.384,0,0,0-.383-.383h-.575v.854a.384.384,0,0,1-.383.383H352.665v.575A.384.384,0,0,0,353.048,263.061Zm0-23.234h13.587a.384.384,0,0,0,.383-.383v-1.428a.385.385,0,0,0-.383-.383h-.575v.854a.384.384,0,0,1-.383.383H352.665v.575A.384.384,0,0,0,353.048,239.827Z" transform="translate(-352.665 -237.632)" fill="#7a8c98" fill-rule="evenodd"/>
        </g>
      </g>
      <path id="Path_1271526" data-name="Path 1271526" d="M40.95,34.555a2.6,2.6,0,0,1,2.038-2.538v-.861a.767.767,0,1,1,1.533,0v.83a2.612,2.612,0,0,1,1.713,1.05.767.767,0,0,1-1.243.9,1.073,1.073,0,0,0-.865-.446H43.55a1.066,1.066,0,1,0,0,2.133h.41a2.6,2.6,0,0,1,.561,5.138v.861a.767.767,0,0,1-1.533,0v-.831a2.615,2.615,0,0,1-1.713-1.05.767.767,0,0,1,1.243-.9,1.073,1.073,0,0,0,.865.446h.577a1.066,1.066,0,1,0,0-2.133h-.41a2.6,2.6,0,0,1-2.6-2.6Zm8.026,11.586V26.636H38.533V46.142Zm1.189,2.2H37.345v-.662H50.166ZM35.812,47.292v1.045H4.918v-14.3H37v3.734H9.417a.766.766,0,0,0-.767.767v5.3a.767.767,0,0,0,.767.767H37v1.538h-.038A1.151,1.151,0,0,0,35.812,47.292ZM7.55,16.5a6.382,6.382,0,0,0,.724.042,6.253,6.253,0,0,0,.681-.038V32.508H7.55Zm-2.675-3.76h6.817A3.263,3.263,0,0,1,8.274,15a4.005,4.005,0,0,1-2.445-.771,2.61,2.61,0,0,1-.954-1.5ZM11.358,2.677l4.162-.021L12,11.2H5.5ZM45.139,11.2h-6.56L35.013,2.556l4.17-.021Zm-.8,3.133a4.426,4.426,0,0,1-4.182-.011,2.64,2.64,0,0,1-1.275-1.589h6.743a2.7,2.7,0,0,1-1.286,1.6Zm-1.349,8.572h-1.4V16.35a6.257,6.257,0,0,0,1.4,0ZM20.172,12.736a2.612,2.612,0,0,1-.953,1.5,4,4,0,0,1-2.445.773,3.263,3.263,0,0,1-3.419-2.269Zm.172-1.533,1.178-8.577-4.341.022L13.655,11.2Zm8.342,1.533a3.265,3.265,0,0,1-3.42,2.269,4,4,0,0,1-2.444-.773,2.611,2.611,0,0,1-.952-1.5ZM28.652,11.2H21.891l1.18-8.586,4.4-.022Zm8.511,1.533a2.62,2.62,0,0,1-.951,1.5,3.988,3.988,0,0,1-2.443.774,3.265,3.265,0,0,1-3.42-2.269ZM30.2,11.2h6.721L33.359,2.564l-4.344.022Zm-4.93,16.714a7.431,7.431,0,0,1,6.858,4.592H18.411a7.432,7.432,0,0,1,6.858-4.592ZM21.61,22.724a3.659,3.659,0,1,1,3.659,3.659A3.663,3.663,0,0,1,21.61,22.724ZM37,32.508H33.762a8.977,8.977,0,0,0-5.442-5.587,5.192,5.192,0,1,0-6.1,0,8.976,8.976,0,0,0-5.442,5.587H10.488V16.117a4.587,4.587,0,0,0,2.036-1.536,5.235,5.235,0,0,0,4.251,1.957,5.48,5.48,0,0,0,3.395-1.1,4.274,4.274,0,0,0,.852-.894,4.279,4.279,0,0,0,.852.894,5.479,5.479,0,0,0,3.393,1.1,5.233,5.233,0,0,0,4.251-1.957,5.238,5.238,0,0,0,4.252,1.957,5.475,5.475,0,0,0,3.394-1.1,4.265,4.265,0,0,0,.888-.95,4.4,4.4,0,0,0,1.337,1.169,5.238,5.238,0,0,0,.662.32v6.935H36.962a1.15,1.15,0,0,0-1.15,1.15v1.428a1.151,1.151,0,0,0,1.15,1.15H37v5.873Zm0,10.562V39.308H10.184v3.762ZM50.166,25.1v-.661H37.345V25.1ZM36.962,49.87H50.549a1.152,1.152,0,0,0,1.15-1.15V47.292a1.152,1.152,0,0,0-1.15-1.15H50.51V26.636h.039a1.152,1.152,0,0,0,1.15-1.15V24.058a1.151,1.151,0,0,0-1.15-1.15H44.521V15.95a4.986,4.986,0,0,0,.583-.286,4.242,4.242,0,0,0,2.173-3.819.763.763,0,0,0-.135-.434L40.217,1.331A.766.766,0,0,0,39.585,1h0l-28.633.148a.765.765,0,0,0-.627.333L3.4,11.559a.759.759,0,0,0-.135.434A4.223,4.223,0,0,0,4.88,15.436a4.793,4.793,0,0,0,1.137.663V32.508h-1.1a1.536,1.536,0,0,0-1.533,1.533v14.3A1.535,1.535,0,0,0,4.918,49.87Z" fill-rule="evenodd"/>
    </g>
  </g>
</svg>
