<svg xmlns="http://www.w3.org/2000/svg" xmlns:xlink="http://www.w3.org/1999/xlink" width="111.776" height="111.776" viewBox="0 0 111.776 111.776">
  <defs>
    <filter id="Path_874925" x="0" y="0" width="111.776" height="111.776" filterUnits="userSpaceOnUse">
      <feOffset dy="3" input="SourceAlpha"/>
      <feGaussianBlur stdDeviation="3" result="blur"/>
      <feFlood flood-opacity="0.161"/>
      <feComposite operator="in" in2="blur"/>
      <feComposite in="SourceGraphic"/>
    </filter>
  </defs>
  <g id="Group_1207165" data-name="Group 1207165" transform="translate(-326.051 -664)">
    <g id="Group_1206711" data-name="Group 1206711" transform="translate(-469.949 -1155.883)">
      <g id="Group_1204844" data-name="Group 1204844" transform="translate(520 -4424.991)">
        <g id="Group_1200232" data-name="Group 1200232" transform="translate(285 6250.874)">
          <g id="Group_1187153" data-name="Group 1187153">
            <g id="Group_1182177" data-name="Group 1182177">
              <g id="Group_1181903" data-name="Group 1181903">
                <g id="Group_1181438" data-name="Group 1181438">
                  <g id="Group_1111314" data-name="Group 1111314">
                    <g transform="matrix(1, 0, 0, 1, -9, -6)" filter="url(#Path_874925)">
                      <g id="Path_874925-2" data-name="Path 874925" transform="translate(9 6)" fill="#dcd9d3">
                        <path d="M 46.88790893554688 92.2763671875 C 40.75992202758789 92.2763671875 34.8160285949707 91.07652282714844 29.22134971618652 88.71018218994141 C 23.81676292419434 86.42423248291016 18.96264266967773 83.15139007568359 14.79381561279297 78.98255157470703 C 10.62497520446777 74.81372833251953 7.35213565826416 69.95960998535156 5.066188812255859 64.55502319335938 C 2.699842214584351 58.9603385925293 1.500002264976501 53.01644515991211 1.500002264976501 46.88844680786133 C 1.500002264976501 40.75992584228516 2.699842214584351 34.81603240966797 5.066188812255859 29.22135353088379 C 7.35213565826416 23.8167667388916 10.62497520446777 18.962646484375 14.79381561279297 14.79381942749023 C 18.96264266967773 10.62497997283936 23.81676292419434 7.352139949798584 29.22134971618652 5.066193103790283 C 34.8160285949707 2.699846506118774 40.75992202758789 1.500006437301636 46.88790893554688 1.500006437301636 C 53.01589584350586 1.500006437301636 58.95978927612305 2.699846506118774 64.55446624755859 5.066193103790283 C 69.95905303955078 7.352139949798584 74.81317901611328 10.62497997283936 78.98200225830078 14.79381942749023 C 83.15084075927734 18.962646484375 86.42368316650391 23.8167667388916 88.70962524414062 29.22135353088379 C 91.07597351074219 34.81603240966797 92.27581787109375 40.75992584228516 92.27581787109375 46.88791275024414 C 92.27581787109375 53.01644515991211 91.07597351074219 58.9603385925293 88.70962524414062 64.55502319335938 C 86.42368316650391 69.95960998535156 83.15084075927734 74.81372833251953 78.98200225830078 78.98255157470703 C 74.81317901611328 83.15139007568359 69.95905303955078 86.42423248291016 64.55446624755859 88.71018218994141 C 58.95978927612305 91.07652282714844 53.01589584350586 92.2763671875 46.88790893554688 92.2763671875 Z" stroke="none"/>
                        <path d="M 46.88790893554688 2.999992370605469 C 40.96175003051758 2.999992370605469 35.2144660949707 4.159965515136719 29.80567932128906 6.44769287109375 C 24.57989501953125 8.658004760742188 19.88602447509766 11.82290649414062 15.85446929931641 15.85446929931641 C 11.82290649414062 19.88602447509766 8.658012390136719 24.57989501953125 6.44769287109375 29.80567932128906 C 4.159965515136719 35.2144660949707 2.999992370605469 40.96175003051758 2.999992370605469 46.88845062255859 C 2.999992370605469 52.81460952758789 4.159965515136719 58.56189346313477 6.44769287109375 63.97069549560547 C 8.658012390136719 69.19646453857422 11.82290649414062 73.89033508300781 15.85446929931641 77.92189025878906 C 19.88602447509766 81.95343780517578 24.57989501953125 85.11833953857422 29.80567932128906 87.32865142822266 C 35.2144660949707 89.61637878417969 40.96175003051758 90.77635192871094 46.88790893554688 90.77635192871094 C 52.81406784057617 90.77635192871094 58.56135177612305 89.61637878417969 63.97013854980469 87.32865142822266 C 69.1959228515625 85.11833953857422 73.88979339599609 81.95343780517578 77.92134857177734 77.92189025878906 C 81.95291137695312 73.89033508300781 85.11781311035156 69.19646453857422 87.328125 63.97069549560547 C 89.61585235595703 58.56189346313477 90.77582550048828 52.81460952758789 90.77582550048828 46.88790893554688 C 90.77582550048828 40.96175003051758 89.61585235595703 35.2144660949707 87.328125 29.80567932128906 C 85.11781311035156 24.57989501953125 81.95291137695312 19.88602447509766 77.92134857177734 15.85446929931641 C 73.88979339599609 11.82290649414062 69.1959228515625 8.658004760742188 63.97013854980469 6.44769287109375 C 58.56135177612305 4.159965515136719 52.81406784057617 2.999992370605469 46.88790893554688 2.999992370605469 M 46.88790893554688 -7.62939453125e-06 C 72.78337860107422 -7.62939453125e-06 93.77582550048828 20.99243927001953 93.77582550048828 46.88790893554688 L 93.77582550048828 46.88845062255859 C 93.77582550048828 72.783935546875 72.78337860107422 93.77635192871094 46.88790893554688 93.77635192871094 C 20.99243927001953 93.77635192871094 -7.62939453125e-06 72.783935546875 -7.62939453125e-06 46.88845062255859 L -7.62939453125e-06 46.88790893554688 C -7.62939453125e-06 20.99243927001953 20.99243927001953 -7.62939453125e-06 46.88790893554688 -7.62939453125e-06 Z" stroke="none" fill="#fff"/>
                      </g>
                    </g>
                  </g>
                </g>
              </g>
            </g>
          </g>
        </g>
      </g>
    </g>
    <g id="_x31_4_Coordinate" transform="translate(344.895 683.818)">
      <g id="Group_1207164" data-name="Group 1207164" transform="translate(11.155 6.182)">
        <path id="Path_1271484" data-name="Path 1271484" d="M188.143,232.943v1.471a.4.4,0,0,1-.332.4l-1.7.312a7.313,7.313,0,0,1-1.11,2.682l.982,1.422a.4.4,0,0,1-.046.515l-1.039,1.039a.4.4,0,0,1-.518.049l-1.425-.982a7.274,7.274,0,0,1-2.679,1.107l-.312,1.7a.4.4,0,0,1-.4.332H178.1a.4.4,0,0,1-.4-.332l-.312-1.7a7.294,7.294,0,0,1-2.679-1.107l-1.425.982a.408.408,0,0,1-.518-.049l-1.039-1.039a.4.4,0,0,1-.046-.515l.982-1.422a7.313,7.313,0,0,1-1.11-2.682l-1.7-.312a.4.4,0,0,1-.332-.4v-1.471a.4.4,0,0,1,.332-.4l1.7-.312a7.313,7.313,0,0,1,1.11-2.682l-.982-1.422a.4.4,0,0,1,.046-.515l1.039-1.039a.4.4,0,0,1,.518-.049l1.425.982a7.3,7.3,0,0,1,2.679-1.108l.312-1.7a.4.4,0,0,1,.4-.332h1.468a.4.4,0,0,1,.4.332l.312,1.7a7.272,7.272,0,0,1,2.679,1.108l1.425-.982a.4.4,0,0,1,.518.049l1.039,1.039a.4.4,0,0,1,.046.515L185,229.552a7.313,7.313,0,0,1,1.11,2.682l1.7.312A.4.4,0,0,1,188.143,232.943Z" transform="translate(-152.47 -200.874)" fill="#3eb655"/>
        <path id="Path_1271485" data-name="Path 1271485" d="M227.272,278.194a3.942,3.942,0,1,1-3.943-3.941A3.941,3.941,0,0,1,227.272,278.194Z" transform="translate(-196.968 -245.39)" fill="#fff"/>
        <path id="Path_1271486" data-name="Path 1271486" d="M226.674,276.156a3.879,3.879,0,0,0-2.04-.572,3.942,3.942,0,0,0-3.939,3.945,3.872,3.872,0,0,0,.572,2.034,3.9,3.9,0,0,1-1.894-3.357,3.939,3.939,0,0,1,7.3-2.051Z" transform="translate(-196.953 -245.403)" opacity="0.1"/>
        <circle id="Ellipse_13002" data-name="Ellipse 13002" cx="4.294" cy="4.294" r="4.294" transform="translate(22.07 0.56)" fill="#ffcbc0"/>
        <path id="Path_1271487" data-name="Path 1271487" d="M187,100.554H171.7a1.577,1.577,0,0,1-1.569-1.848,9.4,9.4,0,0,1,18.439,0A1.574,1.574,0,0,1,187,100.554Z" transform="translate(-152.992 -82.008)" fill="#d81a60"/>
        <circle id="Ellipse_13003" data-name="Ellipse 13003" cx="4.294" cy="4.294" r="4.294" transform="translate(5.516 35.25)" fill="#ffcbc0"/>
        <path id="Path_1271488" data-name="Path 1271488" d="M33.258,422.737h-15.3a1.577,1.577,0,0,1-1.569-1.848,9.4,9.4,0,0,1,18.439,0A1.574,1.574,0,0,1,33.258,422.737Z" transform="translate(-15.799 -369.501)" fill="#41b3e7"/>
        <circle id="Ellipse_13004" data-name="Ellipse 13004" cx="4.294" cy="4.294" r="4.294" transform="translate(38.624 35.25)" fill="#ffcbc0"/>
        <path id="Path_1271489" data-name="Path 1271489" d="M340.752,422.737h-15.3a1.577,1.577,0,0,1-1.569-1.848,9.4,9.4,0,0,1,18.439,0A1.574,1.574,0,0,1,340.752,422.737Z" transform="translate(-290.186 -369.501)" fill="#faa629"/>
        <g id="Group_1207163" data-name="Group 1207163" transform="translate(0 0)">
          <path id="Path_1271490" data-name="Path 1271490" d="M218.688,269.049a4.5,4.5,0,1,0,4.5,4.5A4.507,4.507,0,0,0,218.688,269.049Zm0,7.882a3.381,3.381,0,1,1,3.382-3.381A3.385,3.385,0,0,1,218.688,276.931Z" transform="translate(-192.326 -240.746)" fill="#25294f"/>
          <path id="Path_1271491" data-name="Path 1271491" d="M44.3,57.461a2.138,2.138,0,0,0,2.119,2.517h15.3A2.133,2.133,0,0,0,63.84,57.46a9.982,9.982,0,0,0-7.157-7.649,4.85,4.85,0,1,0-6.946-6.256L45.07,41.57c.073-.215.14-.433.194-.654l1.331-.244a.964.964,0,0,0,.794-.949V38.251A.962.962,0,0,0,46.6,37.3l-1.334-.245a7.8,7.8,0,0,0-.906-2.185l.769-1.115a.962.962,0,0,0-.11-1.232L43.98,31.487a.965.965,0,0,0-1.232-.114l-1.119.771a7.79,7.79,0,0,0-2.182-.9L39.2,29.907a.964.964,0,0,0-.949-.793h-.174V25.288h7.09a2.133,2.133,0,0,0,2.118-2.518,9.982,9.982,0,0,0-7.157-7.649,4.854,4.854,0,1,0-5.223,0,9.983,9.983,0,0,0-7.159,7.65,2.138,2.138,0,0,0,2.119,2.517h7.09v3.825h-.173a.963.963,0,0,0-.949.791l-.245,1.337a7.812,7.812,0,0,0-2.182.9l-1.117-.769a.962.962,0,0,0-1.235.112l-1.039,1.039a.962.962,0,0,0-.111,1.229l.771,1.117a7.805,7.805,0,0,0-.906,2.185L28.44,37.3a.963.963,0,0,0-.794.949v1.471a.963.963,0,0,0,.791.949l1.334.245c.054.221.12.437.194.652L25.3,43.552a4.85,4.85,0,1,0-6.946,6.259,9.983,9.983,0,0,0-7.159,7.65,2.138,2.138,0,0,0,2.119,2.517h15.3a2.133,2.133,0,0,0,2.118-2.518,9.981,9.981,0,0,0-7.157-7.649,4.815,4.815,0,0,0,2.108-5.2L30.4,42.6c.086.169.178.336.277.5l-.769,1.114a.962.962,0,0,0,.11,1.232l1.038,1.039a.97.97,0,0,0,1.232.114l1.12-.771a7.822,7.822,0,0,0,2.182.9l.245,1.334a.964.964,0,0,0,.949.794h1.468a.963.963,0,0,0,.949-.792l.245-1.336a7.78,7.78,0,0,0,2.182-.9l1.117.769a.967.967,0,0,0,1.235-.112l1.039-1.039a.961.961,0,0,0,.111-1.229L44.359,43.1c.1-.163.19-.329.276-.5l4.719,2.007a4.815,4.815,0,0,0,2.108,5.2,9.983,9.983,0,0,0-7.159,7.65ZM33.786,11.036a3.734,3.734,0,1,1,3.733,3.733A3.737,3.737,0,0,1,33.786,11.036ZM28.848,22.99a8.844,8.844,0,0,1,17.339,0,1.013,1.013,0,0,1-1.019,1.179h-15.3A1.016,1.016,0,0,1,28.848,22.99Zm.785,34.688a1.013,1.013,0,0,1-1.019,1.179h-15.3a1.016,1.016,0,0,1-1.02-1.178,8.844,8.844,0,0,1,17.339,0Zm-8.668-8.219A3.734,3.734,0,1,1,24.7,45.726,3.737,3.737,0,0,1,20.965,49.459ZM43.277,45.6l-1.319-.909a.561.561,0,0,0-.631,0,6.674,6.674,0,0,1-2.472,1.022.56.56,0,0,0-.444.449l-.289,1.576H36.914l-.289-1.576a.56.56,0,0,0-.444-.449,6.71,6.71,0,0,1-2.473-1.023.559.559,0,0,0-.63,0l-1.319.908-.856-.856.908-1.316a.56.56,0,0,0,0-.63,6.72,6.72,0,0,1-1.026-2.476.56.56,0,0,0-.449-.445l-1.573-.289V38.381l1.573-.289a.56.56,0,0,0,.449-.445,6.719,6.719,0,0,1,1.026-2.476.56.56,0,0,0,0-.63L30.9,33.225l.856-.856,1.319.908a.561.561,0,0,0,.63,0,6.711,6.711,0,0,1,2.473-1.023.56.56,0,0,0,.444-.449l.289-1.576h1.208l.289,1.576a.56.56,0,0,0,.444.449,6.677,6.677,0,0,1,2.472,1.022.562.562,0,0,0,.631,0l1.319-.908.856.856-.908,1.316a.56.56,0,0,0,0,.63,6.719,6.719,0,0,1,1.026,2.476.56.56,0,0,0,.449.445l1.573.289v1.211L44.7,39.88a.56.56,0,0,0-.449.445,6.642,6.642,0,0,1-.4,1.307c0,.008-.011.013-.014.021s0,.011,0,.017a6.854,6.854,0,0,1-.611,1.131.56.56,0,0,0,0,.63l.908,1.316Zm7.062.122a3.733,3.733,0,1,1,3.733,3.734A3.737,3.737,0,0,1,50.339,45.726Zm3.732,4.855a8.857,8.857,0,0,1,8.669,7.1,1.013,1.013,0,0,1-1.019,1.179h-15.3a1.016,1.016,0,0,1-1.02-1.178,8.858,8.858,0,0,1,8.67-7.1Z" transform="translate(-11.155 -6.182)" fill="#25294f"/>
        </g>
      </g>
    </g>
  </g>
</svg>
