<svg xmlns="http://www.w3.org/2000/svg" xmlns:xlink="http://www.w3.org/1999/xlink" width="126.376" height="126.376" viewBox="0 0 126.376 126.376">
  <defs>
    <filter id="Path_874925" x="0" y="0" width="126.376" height="126.376" filterUnits="userSpaceOnUse">
      <feOffset dy="3" input="SourceAlpha"/>
      <feGaussianBlur stdDeviation="3" result="blur"/>
      <feFlood flood-opacity="0.161"/>
      <feComposite operator="in" in2="blur"/>
      <feComposite in="SourceGraphic"/>
    </filter>
  </defs>
  <g id="Group_1207198" data-name="Group 1207198" transform="translate(-1096.051 -1083)">
    <g id="Group_1206722" data-name="Group 1206722" transform="translate(0 -2789)">
      <g id="Group_1205731" data-name="Group 1205731" transform="translate(359 -295)">
        <g id="Group_1205682" data-name="Group 1205682" transform="translate(461.051 -2077.874)">
          <g id="Group_1200232" data-name="Group 1200232" transform="translate(285 6250.874)">
            <g id="Group_1187153" data-name="Group 1187153">
              <g id="Group_1182177" data-name="Group 1182177">
                <g id="Group_1181903" data-name="Group 1181903">
                  <g id="Group_1181438" data-name="Group 1181438">
                    <g id="Group_1111314" data-name="Group 1111314">
                      <g transform="matrix(1, 0, 0, 1, -9, -6)" filter="url(#Path_874925)">
                        <g id="Path_874925-2" data-name="Path 874925" transform="translate(9 6)" fill="#ffc94a">
                          <path d="M 54.1878662109375 106.8763656616211 C 47.07439041137695 106.8763656616211 40.17448043823242 105.4835205078125 33.67983627319336 102.7365036010742 C 27.40597343444824 100.0828857421875 21.77115821838379 96.28368377685547 16.93191146850586 91.44444274902344 C 12.09268188476562 86.60519409179688 8.293481826782227 80.97038269042969 5.639866352081299 74.696533203125 C 2.892850875854492 68.20187377929688 1.500004649162292 61.30196380615234 1.500004649162292 54.1884880065918 C 1.500004649162292 47.07439422607422 2.892850875854492 40.17448806762695 5.639866352081299 33.67982482910156 C 8.293481826782227 27.40597915649414 12.09268188476562 21.77116394042969 16.93191146850586 16.93191719055176 C 21.77115821838379 12.09267139434814 27.40597343444824 8.293471336364746 33.67983627319336 5.639855861663818 C 40.17448043823242 2.892840623855591 47.07439041137695 1.499994397163391 54.1878662109375 1.499994397163391 C 61.30134201049805 1.499994397163391 68.20124816894531 2.892840623855591 74.69589996337891 5.639855861663818 C 80.96975708007812 8.293471336364746 86.60457611083984 12.09267139434814 91.44381713867188 16.93191719055176 C 96.28305053710938 21.77116394042969 100.0822525024414 27.40597915649414 102.7358627319336 33.67982482910156 C 105.4828796386719 40.17448806762695 106.8757247924805 47.07439422607422 106.8757247924805 54.18787002563477 C 106.8757247924805 61.30196380615234 105.4828796386719 68.20187377929688 102.7358627319336 74.696533203125 C 100.0822525024414 80.97038269042969 96.28305053710938 86.60519409179688 91.44381713867188 91.44444274902344 C 86.60457611083984 96.28368377685547 80.96975708007812 100.0828857421875 74.69589996337891 102.7365036010742 C 68.20124816894531 105.4835205078125 61.30134201049805 106.8763656616211 54.1878662109375 106.8763656616211 Z" stroke="none"/>
                          <path d="M 54.1878662109375 2.999992370605469 C 47.2762336730957 2.999992370605469 40.57291412353516 4.352981567382812 34.26416778564453 7.0213623046875 C 28.16909790039062 9.599342346191406 22.69454956054688 13.29059600830078 17.99258422851562 17.99257659912109 C 13.29059600830078 22.69454193115234 9.599349975585938 28.16909790039062 7.021369934082031 34.26416015625 C 4.352981567382812 40.57292938232422 3 47.27622985839844 3 54.18849563598633 C 3 61.10012817382812 4.352981567382812 67.80344390869141 7.021369934082031 74.11219787597656 C 9.599349975585938 80.20726013183594 13.29059600830078 85.68180847167969 17.99258422851562 90.38378143310547 C 22.69454956054688 95.08576202392578 28.16909790039062 98.77701568603516 34.26416778564453 101.3549957275391 C 40.57291412353516 104.0233764648438 47.2762336730957 105.3763656616211 54.1878662109375 105.3763656616211 C 61.0994987487793 105.3763656616211 67.80281066894531 104.0233764648438 74.11156463623047 101.3549957275391 C 80.20663452148438 98.77701568603516 85.68118286132812 95.08576202392578 90.38314819335938 90.38378143310547 C 95.08512878417969 85.68180847167969 98.77638244628906 80.20726013183594 101.3543701171875 74.11219787597656 C 104.0227508544922 67.80344390869141 105.375732421875 61.10012817382812 105.375732421875 54.1878776550293 C 105.375732421875 47.27622985839844 104.0227508544922 40.57292938232422 101.3543701171875 34.26416015625 C 98.77638244628906 28.16909790039062 95.08512878417969 22.69454193115234 90.38314819335938 17.99257659912109 C 85.68118286132812 13.29059600830078 80.20663452148438 9.599342346191406 74.11156463623047 7.0213623046875 C 67.80281066894531 4.352981567382812 61.0994987487793 2.999992370605469 54.1878662109375 2.999992370605469 M 54.1878662109375 -7.62939453125e-06 C 84.11499786376953 -7.62939453125e-06 108.375732421875 24.26072692871094 108.375732421875 54.1878776550293 L 108.375732421875 54.18849563598633 C 108.375732421875 84.11563110351562 84.11499786376953 108.3763656616211 54.1878662109375 108.3763656616211 C 24.26073455810547 108.3763656616211 0 84.11563110351562 0 54.18849563598633 L 0 54.1878776550293 C 0 24.26072692871094 24.26073455810547 -7.62939453125e-06 54.1878662109375 -7.62939453125e-06 Z" stroke="none" fill="#fff"/>
                        </g>
                      </g>
                    </g>
                  </g>
                </g>
              </g>
            </g>
          </g>
        </g>
      </g>
    </g>
    <g id="equidadG" transform="translate(1124.053 1075.5)">
      <g id="Group_1207192" data-name="Group 1207192" transform="translate(1.019 39.521)">
        <g id="Group_1207190" data-name="Group 1207190" transform="translate(0 36.974)">
          <path id="Path_1271543" data-name="Path 1271543" d="M25.416,324.1l-3.459.32H12.72A5.22,5.22,0,0,1,7.5,319.2v-1.587H26.558l3.445.362.154,1.153A4.623,4.623,0,0,1,25.416,324.1Z" transform="translate(-7.5 -317.617)" fill="#9b7f95"/>
          <path id="Path_1271544" data-name="Path 1271544" d="M118.463,317.617V319.2a5.22,5.22,0,0,1-5.219,5.219H109.16a5.22,5.22,0,0,0,5.219-5.219v-1.587Z" transform="translate(-95.322 -317.617)" fill="#836a7b"/>
        </g>
        <path id="Path_1271545" data-name="Path 1271545" d="M31.808,163.847c0,6.2-4.376,10.106-10.578,10.106-4.107,0-7.7-1.081-9.657-4.371a11.233,11.233,0,0,1,15.346-15.42C30.235,156.115,31.808,159.721,31.808,163.847Z" transform="translate(-9.66 -138.104)" fill="#ff99ca"/>
        <path id="Path_1271546" data-name="Path 1271546" d="M42.447,173.658a11.231,11.231,0,0,1-20.887,5.735,11.253,11.253,0,0,0,10.059.663c.225-.1.339-.268.557-.377.115-.058.335-.047.448-.108a11.238,11.238,0,0,0,4.282-15.6A11.225,11.225,0,0,1,42.447,173.658Z" transform="translate(-19.646 -147.915)" fill="#fe7ab6"/>
        <g id="Group_1207191" data-name="Group 1207191" transform="translate(44.513 36.974)">
          <path id="Path_1271547" data-name="Path 1271547" d="M352.415,324.1l-3.459.32h-9.237a5.22,5.22,0,0,1-5.22-5.22v-1.587h19.058l3.445.362.154,1.153A4.623,4.623,0,0,1,352.415,324.1Z" transform="translate(-334.499 -317.617)" fill="#9b7f95"/>
          <path id="Path_1271548" data-name="Path 1271548" d="M445.463,317.617V319.2a5.22,5.22,0,0,1-5.219,5.219H436.16a5.22,5.22,0,0,0,5.219-5.219v-1.587Z" transform="translate(-422.321 -317.617)" fill="#836a7b"/>
        </g>
        <path id="Path_1271549" data-name="Path 1271549" d="M358.829,163.847c0,6.2-4.278,10.516-10.48,10.516a12.121,12.121,0,0,1-9.748-4.737,11.232,11.232,0,0,1,15.407-15.412C356.779,156.94,358.829,159.758,358.829,163.847Z" transform="translate(-292.147 -138.104)" fill="#99e6fc"/>
        <path id="Path_1271550" data-name="Path 1271550" d="M369.62,174a11.231,11.231,0,0,1-20.86,5.78,11.233,11.233,0,0,0,15.407-15.411A11.222,11.222,0,0,1,369.62,174Z" transform="translate(-302.306 -148.254)" fill="#62dbfb"/>
        <path id="Path_1271551" data-name="Path 1271551" d="M106.953,70.084H88.7l-7.116-1.435-7.293,1.435H56.042A2.042,2.042,0,0,1,54,68.042h0A2.042,2.042,0,0,1,56.042,66H74.294l7.517,1.188L88.7,66h18.254a2.042,2.042,0,0,1,2.042,2.042h0A2.042,2.042,0,0,1,106.953,70.084Z" transform="translate(-47.67 -63.278)" fill="#9b7f95"/>
        <path id="Path_1271552" data-name="Path 1271552" d="M215.974,68.039a7.487,7.487,0,0,1-.283,2.042H201.282c0-.007,0-.014-.005-.02A7.517,7.517,0,0,1,201.283,66h14.4A7.435,7.435,0,0,1,215.974,68.039Z" transform="translate(-174.66 -63.275)" fill="#836a7b"/>
        <path id="Path_1271553" data-name="Path 1271553" d="M228.741,116.838h0a20.653,20.653,0,0,1-1.637-12.2h0q.918-5.372,1.322-10.808a1.924,1.924,0,0,0,.133-2.042q.181-3.221.181-6.451V76h3.539v9.338a114.385,114.385,0,0,0,1.365,19.3h0c.707,4.138-1.637,12.2-1.637,12.2l-1.225.973Z" transform="translate(-196.956 -71.916)" fill="#9b7f95"/>
        <path id="Path_1271554" data-name="Path 1271554" d="M259.974,108.114a20.642,20.642,0,0,1-1.932,8.72l-.909.743L256,116.835V76h2.042v9.338q0,3.229.182,6.451a1.493,1.493,0,0,0,.133,2.042q.4,5.43,1.321,10.808A20.641,20.641,0,0,1,259.974,108.114Z" transform="translate(-222.173 -71.914)" fill="#836a7b"/>
        <path id="Path_1271555" data-name="Path 1271555" d="M209.324,385.529H192.5v-5.451A4.078,4.078,0,0,1,196.578,376h5.853l2.866.431a4.078,4.078,0,0,1,4.078,4.078Z" transform="translate(-167.317 -331.079)" fill="#ffdd45"/>
        <path id="Path_1271556" data-name="Path 1271556" d="M269.43,380.075v5.45h-3.811v-5.45A4.079,4.079,0,0,0,261.54,376h3.811A4.079,4.079,0,0,1,269.43,380.075Z" transform="translate(-226.959 -331.076)" fill="#ffc757"/>
        <path id="Path_1271557" data-name="Path 1271557" d="M230.1,50.764a4.017,4.017,0,0,1-4.248,4.36,5.141,5.141,0,0,1-4.677-3.073,4.769,4.769,0,0,1,5.873-5.877A5.231,5.231,0,0,1,230.1,50.764Z" transform="translate(-191.937 -46)" fill="#ffdd45"/>
        <path id="Path_1271558" data-name="Path 1271558" d="M231.646,51.877a4.765,4.765,0,0,1-9.353,1.288,4.766,4.766,0,0,0,5.873-5.877A4.765,4.765,0,0,1,231.646,51.877Z" transform="translate(-193.054 -47.113)" fill="#ffc757"/>
        <path id="Path_1271559" data-name="Path 1271559" d="M157.14,439.773l-4.286.311H121.272a.272.272,0,0,1-.272-.272v-1.089A2.722,2.722,0,0,1,123.722,436h26.935l4.228.236a2.416,2.416,0,0,1,2.537,2.537l-.01.727A.272.272,0,0,1,157.14,439.773Z" transform="translate(-105.55 -382.911)" fill="#ffc757"/>
        <path id="Path_1271560" data-name="Path 1271560" d="M342.623,438.719v1.089a.272.272,0,0,1-.272.272h-4.628v-1.361A2.723,2.723,0,0,0,335,436h4.9A2.723,2.723,0,0,1,342.623,438.719Z" transform="translate(-290.419 -382.909)" fill="#fcb349"/>
      </g>
      <g id="Group_1207197" data-name="Group 1207197" transform="translate(-0.002 38.5)">
        <path id="Trazado_1271561" data-name="Trazado 1271561" d="M70.659,64.626h-21.1a3.063,3.063,0,1,1,0-6.126h21.1a1.021,1.021,0,0,1,0,2.042h-21.1a1.021,1.021,0,1,0,0,2.042h21.1a1.021,1.021,0,0,1,0,2.042Z" transform="translate(-40.17 -55.778)"/>
        <path id="Trazado_1271562" data-name="Trazado 1271562" d="M302.785,64.626H281.712a1.021,1.021,0,0,1,0-2.042h21.073a1.021,1.021,0,1,0,0-2.042h-7.759a1.021,1.021,0,0,1,0-2.042h7.759a3.063,3.063,0,1,1,0,6.126Z" transform="translate(-242.482 -55.778)"/>
        <path id="Línea_256" data-name="Línea 256" d="M2.071-5.458h-8.55A1.021,1.021,0,0,1-7.5-6.479,1.021,1.021,0,0,1-6.479-7.5h8.55A1.021,1.021,0,0,1,3.092-6.479,1.021,1.021,0,0,1,2.071-5.458Z" transform="translate(45.709 10.223)"/>
        <path id="Trazado_1271563" data-name="Trazado 1271563" d="M151.275,434.626H114.521A1.021,1.021,0,0,1,113.5,433.6v-1.361a3.748,3.748,0,0,1,3.743-3.743H129.89a1.021,1.021,0,0,1,0,2.042H117.243a1.7,1.7,0,0,0-1.7,1.7v.34h34.712v-.34a1.7,1.7,0,0,0-1.7-1.7h-13.9a1.021,1.021,0,1,1,0-2.042h13.9a3.748,3.748,0,0,1,3.743,3.743V433.6A1.021,1.021,0,0,1,151.275,434.626Z" transform="translate(-98.05 -375.411)"/>
        <path id="Trazado_1271564" data-name="Trazado 1271564" d="M222.23,143.3a1.021,1.021,0,0,1-.927-.591,21.579,21.579,0,0,1-1.7-12.772,113.914,113.914,0,0,0,1.622-19.129v-4.3a1.021,1.021,0,0,1,2.042,0v4.3a115.962,115.962,0,0,1-1.651,19.472,19.546,19.546,0,0,0,1.543,11.568,1.021,1.021,0,0,1-.925,1.451Z" transform="translate(-189.437 -96.366)"/>
        <path id="Trazado_1271565" data-name="Trazado 1271565" d="M264.534,143.41a1.021,1.021,0,0,1-.925-1.451,19.549,19.549,0,0,0,1.543-11.569,115.975,115.975,0,0,1-1.651-19.472v-4.286a1.021,1.021,0,1,1,2.042,0v4.286a113.928,113.928,0,0,0,1.622,19.129,21.581,21.581,0,0,1-1.7,12.772A1.021,1.021,0,0,1,264.534,143.41Z" transform="translate(-227.631 -96.476)"/>
        <path id="Trazado_1271566" data-name="Trazado 1271566" d="M18.943,318.965H6.241A6.248,6.248,0,0,1,0,312.725v-1.587a1.021,1.021,0,0,1,1.021-1.021H24.162a1.021,1.021,0,0,1,1.021,1.021v1.587A6.248,6.248,0,0,1,18.943,318.965Zm-16.9-6.806v.566a4.2,4.2,0,0,0,4.2,4.2h12.7a4.2,4.2,0,0,0,4.2-4.2v-.566Z" transform="translate(0 -273.143)"/>
        <path id="Trazado_1271567" data-name="Trazado 1271567" d="M345.943,318.965h-12.7A6.248,6.248,0,0,1,327,312.725v-1.587a1.021,1.021,0,0,1,1.021-1.021h23.141a1.021,1.021,0,0,1,1.021,1.021v1.587A6.248,6.248,0,0,1,345.943,318.965Zm-16.9-6.806v.566a4.2,4.2,0,0,0,4.2,4.2h12.7a4.2,4.2,0,0,0,4.2-4.2v-.566Z" transform="translate(-282.487 -273.143)"/>
        <path id="Línea_257" data-name="Línea 257" d="M-6.481,2.606a1.018,1.018,0,0,1-.366-.068,1.021,1.021,0,0,1-.587-1.319l3.1-8.066a1.021,1.021,0,0,1,1.319-.587,1.021,1.021,0,0,1,.587,1.319l-3.1,8.066A1.021,1.021,0,0,1-6.481,2.606Z" transform="translate(15.974 14.35)"/>
        <path id="Línea_258" data-name="Línea 258" d="M-6.481-.247a1.018,1.018,0,0,1-.366-.068,1.021,1.021,0,0,1-.587-1.319l2-5.213a1.021,1.021,0,0,1,1.319-.587,1.021,1.021,0,0,1,.587,1.319l-2,5.213A1.021,1.021,0,0,1-6.481-.247Z" transform="translate(7.502 39.253)"/>
        <path id="Línea_259" data-name="Línea 259" d="M-4.463-.208a1.021,1.021,0,0,1-.953-.655L-7.434-6.115a1.021,1.021,0,0,1,.587-1.319,1.021,1.021,0,0,1,1.319.587L-3.51-1.595A1.021,1.021,0,0,1-4.1-.276,1.019,1.019,0,0,1-4.463-.208Z" transform="translate(28.626 39.214)"/>
        <path id="Línea_260" data-name="Línea 260" d="M-3.379,2.614a1.021,1.021,0,0,1-.953-.655l-3.1-8.073a1.021,1.021,0,0,1,.587-1.319,1.021,1.021,0,0,1,1.319.587l3.1,8.073a1.021,1.021,0,0,1-.587,1.319A1.019,1.019,0,0,1-3.379,2.614Z" transform="translate(19.073 14.35)"/>
        <path id="Línea_261" data-name="Línea 261" d="M-6.481,2.622a1.018,1.018,0,0,1-.366-.068,1.021,1.021,0,0,1-.587-1.319l3.1-8.081a1.021,1.021,0,0,1,1.319-.587,1.021,1.021,0,0,1,.587,1.319l-3.1,8.081A1.021,1.021,0,0,1-6.481,2.622Z" transform="translate(60.482 14.35)"/>
        <path id="Línea_262" data-name="Línea 262" d="M-6.481-.219a1.018,1.018,0,0,1-.366-.068,1.021,1.021,0,0,1-.587-1.319l2.013-5.241A1.021,1.021,0,0,1-4.1-7.434a1.021,1.021,0,0,1,.587,1.319L-5.528-.874A1.021,1.021,0,0,1-6.481-.219Z" transform="translate(52.015 39.235)"/>
        <path id="Línea_263" data-name="Línea 263" d="M-4.468-.219a1.021,1.021,0,0,1-.953-.655L-7.434-6.115a1.021,1.021,0,0,1,.587-1.319,1.021,1.021,0,0,1,1.319.587l2.013,5.241A1.021,1.021,0,0,1-4.1-.287,1.019,1.019,0,0,1-4.468-.219Z" transform="translate(73.143 39.235)"/>
        <path id="Línea_264" data-name="Línea 264" d="M-3.376,2.623a1.021,1.021,0,0,1-.953-.655l-3.1-8.083a1.021,1.021,0,0,1,.587-1.319,1.021,1.021,0,0,1,1.319.587l3.1,8.083A1.021,1.021,0,0,1-3.01,2.555,1.019,1.019,0,0,1-3.376,2.623Z" transform="translate(63.586 14.35)"/>
        <path id="Trazado_1271568" data-name="Trazado 1271568" d="M203.309,378.673a1.021,1.021,0,0,1-1.021-1.021V373.6a3.061,3.061,0,0,0-3.057-3.057H190.1a3.061,3.061,0,0,0-3.057,3.057v4.054a1.021,1.021,0,0,1-2.042,0V373.6a5.1,5.1,0,0,1,5.1-5.1h9.132a5.1,5.1,0,0,1,5.1,5.1v4.054A1.021,1.021,0,0,1,203.309,378.673Z" transform="translate(-159.817 -323.578)"/>
        <path id="Línea_265" data-name="Línea 265" d="M-1.987-5.458H-6.479A1.021,1.021,0,0,1-7.5-6.479,1.021,1.021,0,0,1-6.479-7.5h4.492A1.021,1.021,0,0,1-.966-6.479,1.021,1.021,0,0,1-1.987-5.458Z" transform="translate(39.081 28.393)"/>
        <g id="Group_1207194" data-name="Group 1207194" transform="translate(0.341 0)">
          <path id="Trazado_1271569" data-name="Trazado 1271569" d="M14.751,169.62a12.251,12.251,0,1,1,9.094-20.461,1.021,1.021,0,1,1-1.515,1.369,10.168,10.168,0,1,0,2.149,3.732,1.021,1.021,0,1,1,1.945-.621A12.26,12.26,0,0,1,14.751,169.62Z" transform="translate(-2.5 -130.604)"/>
          <path id="Elipse_13006" data-name="Elipse 13006" d="M-1.715-7.5A5.792,5.792,0,0,1,4.071-1.715,5.792,5.792,0,0,1-1.715,4.071,5.792,5.792,0,0,1-7.5-1.715,5.792,5.792,0,0,1-1.715-7.5Zm0,9.529A3.748,3.748,0,0,0,2.029-1.715,3.748,3.748,0,0,0-1.715-5.458,3.748,3.748,0,0,0-5.458-1.715,3.748,3.748,0,0,0-1.715,2.029Z" transform="translate(36.222 7.5)"/>
          <g id="Group_1207193" data-name="Group 1207193" transform="translate(6.827 18.631)">
            <path id="Elipse_13007" data-name="Elipse 13007" d="M-2.076-7.5A5.43,5.43,0,0,1,3.348-2.076,5.43,5.43,0,0,1-2.076,3.348,5.43,5.43,0,0,1-7.5-2.076,5.43,5.43,0,0,1-2.076-7.5Zm0,8.806A3.386,3.386,0,0,0,1.306-2.076,3.386,3.386,0,0,0-2.076-5.458,3.386,3.386,0,0,0-5.458-2.076,3.386,3.386,0,0,0-2.076,1.306Z" transform="translate(7.5 7.5)"/>
            <path id="Línea_266" data-name="Línea 266" d="M-6.479-.089A1.021,1.021,0,0,1-7.5-1.11V-6.479A1.021,1.021,0,0,1-6.479-7.5,1.021,1.021,0,0,1-5.458-6.479V-1.11A1.021,1.021,0,0,1-6.479-.089Z" transform="translate(11.903 16.356)"/>
            <path id="Línea_267" data-name="Línea 267" d="M-2.9-5.458h-3.58A1.021,1.021,0,0,1-7.5-6.479,1.021,1.021,0,0,1-6.479-7.5H-2.9A1.021,1.021,0,0,1-1.879-6.479,1.021,1.021,0,0,1-2.9-5.458Z" transform="translate(10.113 19.696)"/>
          </g>
        </g>
        <g id="Group_1207196" data-name="Group 1207196" transform="translate(45.06 14.513)">
          <path id="Trazado_1271570" data-name="Trazado 1271570" d="M343.063,169.62a12.266,12.266,0,0,1-12.026-9.9,1.021,1.021,0,1,1,2-.39,10.208,10.208,0,1,0,.09-4.34,1.021,1.021,0,1,1-1.986-.474,12.252,12.252,0,1,1,11.917,15.1Z" transform="translate(-331.019 -145.117)"/>
          <g id="Group_1207195" data-name="Group 1207195" transform="translate(5.034 6.33)">
            <path id="Elipse_13008" data-name="Elipse 13008" d="M-2.505-7.5A5,5,0,0,1,2.489-2.505,5,5,0,0,1-2.505,2.489,5,5,0,0,1-7.5-2.505,5,5,0,0,1-2.505-7.5Zm0,7.947A2.956,2.956,0,0,0,.447-2.505,2.956,2.956,0,0,0-2.505-5.458,2.956,2.956,0,0,0-5.458-2.505,2.956,2.956,0,0,0-2.505.447Z" transform="translate(7.5 10.443)"/>
            <path id="Línea_268" data-name="Línea 268" d="M-6.479-1.428a1.018,1.018,0,0,1-.722-.3,1.021,1.021,0,0,1,0-1.444l4.03-4.03a1.021,1.021,0,0,1,1.444,0,1.021,1.021,0,0,1,0,1.444l-4.03,4.03A1.018,1.018,0,0,1-6.479-1.428Z" transform="translate(14.36 7.5)"/>
            <path id="Trazado_1271571" data-name="Trazado 1271571" d="M430.83,196.524a1.021,1.021,0,0,1-1.021-1.021v-1.846h-1.846a1.021,1.021,0,1,1,0-2.042h2.867a1.021,1.021,0,0,1,1.021,1.021V195.5A1.021,1.021,0,0,1,430.83,196.524Z" transform="translate(-418.919 -191.616)"/>
          </g>
        </g>
      </g>
    </g>
  </g>
</svg>
