<svg xmlns="http://www.w3.org/2000/svg" width="129.063" height="59.327" viewBox="0 0 129.063 59.327">
  <g id="Group_1207293" data-name="Group 1207293" transform="translate(-735.051 -2208.722)">
    <g id="Group_1206733" data-name="Group 1206733" transform="translate(0.051 -3260.738)">
      <g id="Group_1205223" data-name="Group 1205223" transform="translate(-52.781 2903.871)">
        <g id="Rectangle_410589" data-name="Rectangle 410589" transform="translate(787.781 2575.623)" fill="#ffc94a" stroke="#dfab32" stroke-width="1">
          <rect width="129.063" height="43.021" rx="8" stroke="none"/>
          <rect x="0.5" y="0.5" width="128.063" height="42.021" rx="7.5" fill="none"/>
        </g>
      </g>
    </g>
    <g id="economia-digital" transform="translate(770.052 2208.722)">
      <g id="Group_1207280" data-name="Group 1207280" transform="translate(0.868 0.869)">
        <g id="Group_1207279" data-name="Group 1207279">
          <g id="Group_1207270" data-name="Group 1207270" transform="translate(15.028 7.933)">
            <path id="Path_1271625" data-name="Path 1271625" d="M137.2,102.449l16.294-16.294a1.061,1.061,0,0,1,1.5,0l2.254,2.254a1.061,1.061,0,0,0,1.5,0l12.133-12.132a1.061,1.061,0,0,1,1.811.75v37.482H142.726Z" transform="translate(-137.197 -75.964)" fill="#d6abec"/>
            <g id="Group_1207269" data-name="Group 1207269" transform="translate(30.858)">
              <path id="Path_1271626" data-name="Path 1271626" d="M406.326,76.277,403.5,79.1v35.408h4.635V77.027A1.061,1.061,0,0,0,406.326,76.277Z" transform="translate(-403.502 -75.964)" fill="#ca97e7"/>
            </g>
          </g>
          <g id="Group_1207274" data-name="Group 1207274" transform="translate(0 27.327)">
            <g id="Group_1207273" data-name="Group 1207273">
              <g id="Group_1207272" data-name="Group 1207272">
                <path id="Path_1271627" data-name="Path 1271627" d="M25.167,272.668l.6-2.833a11.721,11.721,0,0,0,2.589-1.06l2.457,1.594a1.17,1.17,0,0,0,1.464-.154l2.035-2.036a1.17,1.17,0,0,0,.154-1.464l-1.578-2.43a11.727,11.727,0,0,0,1.084-2.58l2.863-.61a1.17,1.17,0,0,0,.926-1.144v-2.879a1.17,1.17,0,0,0-.927-1.144l-2.833-.6a11.72,11.72,0,0,0-1.06-2.589l1.594-2.457a1.17,1.17,0,0,0-.154-1.464l-2.036-2.035a1.17,1.17,0,0,0-1.464-.154l-2.43,1.578a11.725,11.725,0,0,0-2.58-1.084l-.61-2.863a1.17,1.17,0,0,0-1.144-.926H21.24a1.17,1.17,0,0,0-1.144.927l-.6,2.833a11.72,11.72,0,0,0-2.589,1.06l-2.457-1.594a1.17,1.17,0,0,0-1.464.154l-2.035,2.036a1.17,1.17,0,0,0-.154,1.464l1.578,2.43a11.726,11.726,0,0,0-1.084,2.58l-2.863.61a1.17,1.17,0,0,0-.926,1.144v2.879A1.17,1.17,0,0,0,8.427,261l2.833.6a11.72,11.72,0,0,0,1.06,2.589l-1.594,2.457a1.17,1.17,0,0,0,.154,1.464l2.036,2.035a1.17,1.17,0,0,0,1.464.154l2.43-1.578a11.723,11.723,0,0,0,2.58,1.084l.61,2.862a1.17,1.17,0,0,0,1.144.926h2.879A1.169,1.169,0,0,0,25.167,272.668Zm-2.534-7.06a7.144,7.144,0,1,1,7.143-7.146A7.144,7.144,0,0,1,22.633,265.609Z" transform="translate(-7.5 -243.333)" fill="#9ad4fe"/>
                <g id="Group_1207271" data-name="Group 1207271" transform="translate(6.874 6.874)">
                  <ellipse id="Ellipse_13014" data-name="Ellipse 13014" cx="8.258" cy="8.257" rx="8.258" ry="8.257" fill="#ffcd55"/>
                  <path id="Path_1271628" data-name="Path 1271628" d="M120.4,302.66a8.256,8.256,0,0,0-2.317.332,8.256,8.256,0,0,1,0,15.85A8.257,8.257,0,1,0,120.4,302.66Z" transform="translate(-112.145 -302.66)" fill="#ffbe46"/>
                  <ellipse id="Ellipse_13015" data-name="Ellipse 13015" cx="4.508" cy="4.508" rx="4.508" ry="4.508" transform="translate(3.75 3.749)" fill="#fff4ca"/>
                </g>
              </g>
            </g>
          </g>
          <g id="Group_1207276" data-name="Group 1207276" transform="translate(0)">
            <g id="Group_1207275" data-name="Group 1207275">
              <path id="Path_1271629" data-name="Path 1271629" d="M73.6,90.5h0a1.952,1.952,0,0,1,1.691.976h0a1.952,1.952,0,0,1,0,1.952h0A1.952,1.952,0,0,1,73.6,94.4h0a1.952,1.952,0,0,1-1.691-.976h0a1.952,1.952,0,0,1,0-1.952h0A1.952,1.952,0,0,1,73.6,90.5Z" transform="translate(-64.216 -80.883)" fill="#51d29e"/>
              <path id="Path_1271630" data-name="Path 1271630" d="M123.189,7.5h0a1.952,1.952,0,0,1,1.691.976h0a1.952,1.952,0,0,1,0,1.952h0a1.952,1.952,0,0,1-1.691.976h0a1.952,1.952,0,0,1-1.691-.976h0a1.952,1.952,0,0,1,0-1.952h0A1.952,1.952,0,0,1,123.189,7.5Z" transform="translate(-108.058 -7.5)" fill="#ffcd55"/>
              <path id="Path_1271631" data-name="Path 1271631" d="M9.453,189.652h0a1.952,1.952,0,0,1,1.691.976h0a1.952,1.952,0,0,1,0,1.952h0a1.952,1.952,0,0,1-1.691.976h0a1.952,1.952,0,0,1-1.691-.976h0a1.952,1.952,0,0,1,0-1.952h0A1.952,1.952,0,0,1,9.453,189.652Z" transform="translate(-7.501 -168.546)" fill="#ffcd55"/>
            </g>
          </g>
          <g id="Group_1207278" data-name="Group 1207278" transform="translate(25.213 44.402)">
            <path id="Path_1271632" data-name="Path 1271632" d="M243.706,442.6h9.758l4.391,1.476,4.391-1.476H272a1.019,1.019,0,0,1,1.019,1.019v3.975A1.019,1.019,0,0,1,272,448.611h-9.758l-4.391-1.281-4.391,1.281h-9.758a1.019,1.019,0,0,1-1.019-1.019v-3.975A1.019,1.019,0,0,1,243.706,442.6Z" transform="translate(-240.648 -436.583)" fill="#51d29e"/>
            <path id="Path_1271633" data-name="Path 1271633" d="M460.339,442.6H455.7a1.019,1.019,0,0,1,1.019,1.019v3.975a1.019,1.019,0,0,1-1.019,1.019h4.635a1.019,1.019,0,0,0,1.019-1.019v-3.975A1.019,1.019,0,0,0,460.339,442.6Z" transform="translate(-428.982 -436.583)" fill="#00ca8d"/>
            <rect id="Rectangle_412245" data-name="Rectangle 412245" width="8.783" height="6.014" transform="translate(21.599 12.028) rotate(180)" fill="#f6f3f5"/>
            <g id="Group_1207277" data-name="Group 1207277" transform="translate(0 0)">
              <path id="Path_1271634" data-name="Path 1271634" d="M226.112,390.7h9.758l4.391,1.812,4.391-1.812h9.758a1.019,1.019,0,0,1,1.019,1.019v3.975a1.019,1.019,0,0,1-1.019,1.019h-9.758l-4.391-1.576-4.391,1.576h-9.758a1.019,1.019,0,0,1-1.019-1.019v-3.975A1.019,1.019,0,0,1,226.112,390.7Z" transform="translate(-225.093 -390.695)" fill="#51d29e"/>
              <path id="Path_1271635" data-name="Path 1271635" d="M442.745,390.7H438.11a1.019,1.019,0,0,1,1.019,1.019v3.975a1.019,1.019,0,0,1-1.019,1.019h4.635a1.019,1.019,0,0,0,1.019-1.019v-3.975A1.019,1.019,0,0,0,442.745,390.7Z" transform="translate(-413.427 -390.695)" fill="#00ca8d"/>
              <rect id="Rectangle_412246" data-name="Rectangle 412246" width="8.783" height="6.014" transform="translate(19.56 6.014) rotate(180)" fill="#e8e5e8"/>
            </g>
          </g>
        </g>
      </g>
      <g id="Group_1207292" data-name="Group 1207292" transform="translate(-0.001)">
        <g id="Group_1207282" data-name="Group 1207282" transform="translate(18.247 0)">
          <path id="Línea_256" data-name="Línea 256" d="M-6.631,19.463a.869.869,0,0,1-.869-.869V-6.631A.869.869,0,0,1-6.631-7.5a.869.869,0,0,1,.869.869V18.594A.869.869,0,0,1-6.631,19.463Z" transform="translate(39.774 26.677)"/>
          <path id="Trazado_1271636" data-name="Trazado 1271636" d="M161.111,93.157a.869.869,0,0,1-.615-1.484l12.755-12.755a1.93,1.93,0,0,1,2.729,0l2.254,2.254a.216.216,0,0,0,.271,0L190.639,69.04a1.93,1.93,0,0,1,3.295,1.365v6.7a.869.869,0,1,1-1.738,0V70.4a.192.192,0,0,0-.328-.136L179.735,82.4a1.93,1.93,0,0,1-2.729,0l-2.254-2.254a.216.216,0,0,0-.271,0L161.726,92.9A.866.866,0,0,1,161.111,93.157Z" transform="translate(-159.921 -60.54)"/>
          <g id="Group_1207281" data-name="Group 1207281">
            <path id="Trazado_1271637" data-name="Trazado 1271637" d="M158.339,26.5a.869.869,0,0,1-.615-1.484L170.8,11.944a1.93,1.93,0,0,1,2.729,0l2.254,2.254a.216.216,0,0,0,.271,0L190,.255a.869.869,0,0,1,1.229,1.229L177.284,15.427a1.93,1.93,0,0,1-2.729,0L172.3,13.173a.216.216,0,0,0-.271,0L158.954,26.249A.866.866,0,0,1,158.339,26.5Z" transform="translate(-157.47 0)"/>
            <path id="Trazado_1271638" data-name="Trazado 1271638" d="M416.316,4.432a.869.869,0,0,1-.869-.869V1.738h-1.825a.869.869,0,1,1,0-1.738h2.694a.869.869,0,0,1,.869.869V3.563A.869.869,0,0,1,416.316,4.432Z" transform="translate(-383.173 0)"/>
          </g>
        </g>
        <g id="Group_1207286" data-name="Group 1207286" transform="translate(0 27.326)">
          <g id="Group_1207285" data-name="Group 1207285">
            <g id="Group_1207284" data-name="Group 1207284">
              <path id="Trazado_1271639" data-name="Trazado 1271639" d="M14.512,267.831a2.049,2.049,0,0,1-1.994-1.614l-.5-2.364a12.615,12.615,0,0,1-1.8-.754l-2,1.3a2.049,2.049,0,0,1-2.552-.268l-2.036-2.035a2.049,2.049,0,0,1-.269-2.552l1.316-2.028a12.614,12.614,0,0,1-.738-1.8l-2.329-.495A2.049,2.049,0,0,1,0,253.223v-2.879a2.049,2.049,0,0,1,1.614-1.994l2.364-.5a12.62,12.62,0,0,1,.754-1.8l-1.3-2A2.049,2.049,0,0,1,3.7,241.5l2.035-2.036a2.049,2.049,0,0,1,2.552-.269l2.028,1.316a12.616,12.616,0,0,1,1.8-.738l.495-2.329a2.049,2.049,0,0,1,1.994-1.615h2.879a2.049,2.049,0,0,1,1.994,1.614l.5,2.364a12.618,12.618,0,0,1,1.8.754l2-1.3a2.049,2.049,0,0,1,2.552.268l2.036,2.035a2.049,2.049,0,0,1,.269,2.552l-1.316,2.028a12.614,12.614,0,0,1,.738,1.8l2.329.495A2.049,2.049,0,0,1,32,250.439v2.879a.869.869,0,0,1-1.738,0V250.44a.3.3,0,0,0-.238-.294l-2.833-.6a.869.869,0,0,1-.657-.619,10.867,10.867,0,0,0-.981-2.4.869.869,0,0,1,.03-.9l1.594-2.457a.3.3,0,0,0-.04-.376L25.1,240.763a.3.3,0,0,0-.376-.04l-2.43,1.578a.869.869,0,0,1-.9.027,10.872,10.872,0,0,0-2.389-1,.869.869,0,0,1-.612-.655l-.61-2.863a.3.3,0,0,0-.294-.238H14.608a.3.3,0,0,0-.294.238l-.6,2.833a.869.869,0,0,1-.619.657,10.866,10.866,0,0,0-2.4.981.869.869,0,0,1-.9-.03l-2.457-1.594a.3.3,0,0,0-.376.04l-2.035,2.036a.3.3,0,0,0-.039.376l1.578,2.43a.869.869,0,0,1,.027.9,10.873,10.873,0,0,0-1,2.389.869.869,0,0,1-.655.612l-2.863.61a.3.3,0,0,0-.238.294v2.879a.3.3,0,0,0,.238.294l2.833.6a.869.869,0,0,1,.657.619,10.867,10.867,0,0,0,.981,2.4.869.869,0,0,1-.03.9l-1.594,2.457a.3.3,0,0,0,.04.376L6.9,262.9a.3.3,0,0,0,.376.039l2.43-1.578a.869.869,0,0,1,.9-.027,10.871,10.871,0,0,0,2.389,1,.869.869,0,0,1,.612.655l.61,2.862a.3.3,0,0,0,.294.238h2.879a.3.3,0,0,0,.294-.238l.6-2.833a.869.869,0,0,1,.619-.657,10.868,10.868,0,0,0,2.4-.981.869.869,0,0,1,.9.03l2.457,1.594a.3.3,0,0,0,.376-.04l2.035-2.036a.3.3,0,0,0,.039-.376.869.869,0,1,1,1.458-.946,2.049,2.049,0,0,1-.268,2.552L26.262,264.2a2.049,2.049,0,0,1-2.552.269l-2.028-1.316a12.614,12.614,0,0,1-1.8.738l-.495,2.329a2.049,2.049,0,0,1-1.994,1.615H14.512Z" transform="translate(0.001 -235.831)"/>
              <g id="Group_1207283" data-name="Group 1207283" transform="translate(6.874 6.874)">
                <path id="Trazado_1271640" data-name="Trazado 1271640" d="M68.447,313.411a9.092,9.092,0,0,1-4.977-1.478.869.869,0,1,1,.949-1.456,7.39,7.39,0,1,0-2.16-2.157.869.869,0,0,1-1.455.951,9.126,9.126,0,1,1,7.643,4.14Z" transform="translate(-59.32 -295.159)"/>
                <path id="Elipse_13016" data-name="Elipse 13016" d="M-2.123-7.5A5.383,5.383,0,0,1,3.254-2.123,5.383,5.383,0,0,1-2.123,3.253,5.383,5.383,0,0,1-7.5-2.123,5.383,5.383,0,0,1-2.123-7.5Zm0,9.015A3.643,3.643,0,0,0,1.516-2.123,3.643,3.643,0,0,0-2.123-5.762,3.643,3.643,0,0,0-5.762-2.123,3.643,3.643,0,0,0-2.123,1.515Z" transform="translate(11.25 11.249)"/>
              </g>
            </g>
          </g>
        </g>
        <g id="Group_1207289" data-name="Group 1207289" transform="translate(0.001)">
          <g id="Group_1207288" data-name="Group 1207288">
            <g id="Group_1207287" data-name="Group 1207287">
              <path id="Línea_257" data-name="Línea 257" d="M-6.631,6.108A.869.869,0,0,1-7.5,5.239V-6.631A.869.869,0,0,1-6.631-7.5a.869.869,0,0,1,.869.869V5.239A.869.869,0,0,1-6.631,6.108Z" transform="translate(16.884 21.022)"/>
              <path id="Trazado_1271641" data-name="Trazado 1271641" d="M66.98,83a2.821,2.821,0,1,1-2.443,1.411A2.829,2.829,0,0,1,66.98,83Zm0,3.9a1.083,1.083,0,1,0-.938-.542A1.086,1.086,0,0,0,66.98,86.9Z" transform="translate(-56.727 -73.383)"/>
              <path id="Trazado_1271642" data-name="Trazado 1271642" d="M116.567,0a2.821,2.821,0,1,1-2.443,1.411A2.829,2.829,0,0,1,116.567,0Zm0,3.9a1.083,1.083,0,1,0-.938-.542A1.086,1.086,0,0,0,116.567,3.9Z" transform="translate(-100.568)"/>
              <path id="Trazado_1271643" data-name="Trazado 1271643" d="M2.831,182.152a2.821,2.821,0,1,1-2.443,1.411A2.829,2.829,0,0,1,2.831,182.152Zm0,3.9a1.083,1.083,0,1,0-.938-.542A1.086,1.086,0,0,0,2.831,186.056Z" transform="translate(-0.011 -161.045)"/>
            </g>
            <path id="Trazado_1271644" data-name="Trazado 1271644" d="M40.047,204.62a.869.869,0,0,1-.869-.869v-3.013H34.566a.869.869,0,0,1,0-1.738h5.481a.869.869,0,0,1,.869.869v3.882A.869.869,0,0,1,40.047,204.62Z" transform="translate(-29.794 -175.941)"/>
          </g>
          <path id="Trazado_1271645" data-name="Trazado 1271645" d="M86.454,49.746H81.867a.869.869,0,1,1,0-1.738h4.587a.29.29,0,0,0,.29-.29V34.565a.869.869,0,0,1,1.738,0V47.719A2.03,2.03,0,0,1,86.454,49.746Z" transform="translate(-71.614 -29.792)"/>
        </g>
        <g id="Group_1207291" data-name="Group 1207291" transform="translate(25.213 44.402)">
          <path id="Trazado_1271646" data-name="Trazado 1271646" d="M237.075,435.1h28.3a1.891,1.891,0,0,1,1.888,1.888v3.975a1.891,1.891,0,0,1-1.888,1.888h-28.3a1.891,1.891,0,0,1-1.888-1.888v-3.975A1.891,1.891,0,0,1,237.075,435.1Zm28.3,6.014a.15.15,0,0,0,.15-.15v-3.975a.15.15,0,0,0-.15-.15h-28.3a.15.15,0,0,0-.15.15v3.975a.15.15,0,0,0,.15.15Z" transform="translate(-233.148 -429.083)"/>
          <path id="Rectángulo_412247" data-name="Rectángulo 412247" d="M.869,0H9.652a.869.869,0,0,1,.869.869V6.883a.869.869,0,0,1-.869.869H.869A.869.869,0,0,1,0,6.883V.869A.869.869,0,0,1,.869,0ZM8.783,1.738H1.738V6.014H8.783Z" transform="translate(23.337 13.766) rotate(180)"/>
          <g id="Group_1207290" data-name="Group 1207290" transform="translate(0 0)">
            <path id="Trazado_1271647" data-name="Trazado 1271647" d="M219.481,383.2h28.3a1.891,1.891,0,0,1,1.888,1.888v3.975a1.891,1.891,0,0,1-1.888,1.888h-28.3a1.891,1.891,0,0,1-1.888-1.888v-3.975A1.891,1.891,0,0,1,219.481,383.2Zm28.3,6.014a.15.15,0,0,0,.15-.15v-3.975a.15.15,0,0,0-.15-.15h-28.3a.15.15,0,0,0-.15.15v3.975a.15.15,0,0,0,.15.15Z" transform="translate(-217.593 -383.195)"/>
            <path id="Rectángulo_412248" data-name="Rectángulo 412248" d="M.869,0H9.652a.869.869,0,0,1,.869.869V6.883a.869.869,0,0,1-.869.869H.869A.869.869,0,0,1,0,6.883V.869A.869.869,0,0,1,.869,0ZM8.783,1.738H1.738V6.014H8.783Z" transform="translate(21.298 7.752) rotate(180)"/>
          </g>
        </g>
      </g>
    </g>
  </g>
</svg>
