<svg xmlns="http://www.w3.org/2000/svg" xmlns:xlink="http://www.w3.org/1999/xlink" width="525.138" height="289.707" viewBox="0 0 525.138 289.707">
  <defs>
    <clipPath id="clip-path">
      <rect id="Rectangle_412286" data-name="Rectangle 412286" width="401.426" height="252.45" fill="none"/>
    </clipPath>
  </defs>
  <g id="Group_1207408" data-name="Group 1207408" transform="translate(-285.051 -4153.782)">
    <g id="Group_1206745" data-name="Group 1206745" transform="translate(285.051 4153.782)">
      <rect id="Rectangle_411797" data-name="Rectangle 411797" width="525.138" height="289.707" transform="translate(0 0)" fill="#5a8441"/>
    </g>
    <g id="Group_1207332" data-name="Group 1207332" transform="translate(347.051 4182.965)">
      <g id="Group_1207331" data-name="Group 1207331" clip-path="url(#clip-path)">
        <path id="Path_1271748" data-name="Path 1271748" d="M426.036,258.855a85.727,85.727,0,0,1-3.434,9.339H70.76a98.045,98.045,0,0,1-12.894-17.277c-4.212-7.178-24.147-43.255-9.451-77.492,7.633-17.782,22.2-29.461,32.129-37.421,11.565-9.271,15.2-9,27.973-18.146,20.549-14.715,24.49-24.985,39.311-39.311C158.82,67.923,180.215,47.24,209.82,43.016c31.911-4.554,69.5,10.562,87.7,36.665,11.873,17.031,8.094,28.132,22.681,39.691,15.808,12.527,27.192,5,49.138,14.363,31.114,13.28,45.334,44.248,49.142,52.544,4.24,9.233,17.806,38.782,7.558,72.576" transform="translate(-35.723 -34.995)" fill="#dde6d8"/>
        <path id="Trazado_1271749" data-name="Trazado 1271749" d="M400.968,1362.3H.458a.458.458,0,0,1,0-.916H400.968a.458.458,0,0,1,0,.916Z" transform="translate(0 -1128.639)"/>
        <path id="Path_1271750" data-name="Path 1271750" d="M340.768,326.762a1.671,1.671,0,1,1-1.859-1.46,1.671,1.671,0,0,1,1.859,1.46" transform="translate(-279.749 -269.678)"/>
        <path id="Path_1271751" data-name="Path 1271751" d="M481.518,297.616a1.241,1.241,0,1,1-1.38-1.084,1.241,1.241,0,0,1,1.38,1.084" transform="translate(-397.148 -245.83)"/>
        <path id="Path_1271752" data-name="Path 1271752" d="M402.03,419.808a1.169,1.169,0,1,1-1.3-1.021,1.169,1.169,0,0,1,1.3,1.021" transform="translate(-331.368 -347.184)"/>
        <path id="Path_1271753" data-name="Path 1271753" d="M381.691,415.764a.665.665,0,1,1-.74-.581.665.665,0,0,1,.74.581" transform="translate(-315.338 -344.2)"/>
        <path id="Path_1271754" data-name="Path 1271754" d="M342.671,444.293a1.083,1.083,0,1,1-1.2-.946,1.083,1.083,0,0,1,1.2.946" transform="translate(-282.299 -367.547)"/>
        <path id="Path_1271755" data-name="Path 1271755" d="M319.473,598.278a.668.668,0,1,1-.743-.583.668.668,0,0,1,.743.583" transform="translate(-263.752 -495.509)"/>
        <path id="Path_1271756" data-name="Path 1271756" d="M462.384,614.016a.591.591,0,1,1-.658-.516.591.591,0,0,1,.658.516" transform="translate(-382.357 -508.612)"/>
        <path id="Path_1271757" data-name="Path 1271757" d="M516.7,485.789a.5.5,0,1,1-.554-.435.5.5,0,0,1,.554.435" transform="translate(-427.547 -402.375)"/>
        <path id="Path_1271758" data-name="Path 1271758" d="M476.9,408.876a.553.553,0,1,1-.615-.483.553.553,0,0,1,.615.483" transform="translate(-394.452 -338.571)"/>
        <path id="Path_1271759" data-name="Path 1271759" d="M168.557,569.177v57.752h75.392V569.177Z" transform="translate(-139.74 -471.87)" fill="#7c60ea"/>
        <rect id="Rectangle_412247" data-name="Rectangle 412247" width="75.392" height="52.263" transform="translate(27.177 101.066)" fill="#fff"/>
        <rect id="Rectangle_412248" data-name="Rectangle 412248" width="75.392" height="52.263" transform="translate(27.177 101.066)" fill="#fff"/>
        <path id="Rectángulo_412249" data-name="Rectángulo 412249" d="M-2.678-2.678H73.629V50.5H-2.678Zm75.392.916H-1.763V49.585H72.713Z" transform="translate(29.397 103.286)"/>
        <rect id="Rectangle_412250" data-name="Rectangle 412250" width="75.392" height="5.488" transform="translate(27.177 95.577)" fill="#bccdb2"/>
        <path id="Rectángulo_412251" data-name="Rectángulo 412251" d="M-2.678-2.678H73.629v6.4H-2.678Zm75.392.916H-1.763V2.81H72.713Z" transform="translate(29.397 97.798)"/>
        <path id="Path_1271760" data-name="Path 1271760" d="M181.138,571.279a.94.94,0,1,1-.94-.94.94.94,0,0,1,.94.94" transform="translate(-148.612 -472.834)" fill="#fff"/>
        <path id="Path_1271761" data-name="Path 1271761" d="M201.474,571.279a.94.94,0,1,1-.94-.94.94.94,0,0,1,.94.94" transform="translate(-165.471 -472.834)" fill="#fff"/>
        <path id="Path_1271762" data-name="Path 1271762" d="M221.811,571.279a.94.94,0,1,1-.94-.94.94.94,0,0,1,.94.94" transform="translate(-182.332 -472.834)" fill="#fff"/>
        <rect id="Rectangle_412252" data-name="Rectangle 412252" width="9.59" height="15.991" transform="translate(32.592 132.071)" fill="#ffc94a"/>
        <rect id="Rectangle_412253" data-name="Rectangle 412253" width="9.59" height="22.744" transform="translate(46.335 125.318)" fill="#5a8441"/>
        <rect id="Rectangle_412254" data-name="Rectangle 412254" width="9.59" height="11.372" transform="translate(60.077 136.69)" fill="#ffc94a"/>
        <rect id="Rectangle_412255" data-name="Rectangle 412255" width="9.59" height="32.225" transform="translate(73.82 115.837)" fill="#5a8441"/>
        <rect id="Rectangle_412256" data-name="Rectangle 412256" width="9.59" height="38.976" transform="translate(87.563 109.086)" fill="#ffc94a"/>
        <path id="Path_1271763" data-name="Path 1271763" d="M1164.758,1180.781a1.082,1.082,0,1,1-1.082-1.082,1.082,1.082,0,0,1,1.082,1.082" transform="translate(-963.838 -978.018)"/>
        <path id="Path_1271764" data-name="Path 1271764" d="M1312.215,1164.033a1.716,1.716,0,1,1-1.716-1.716,1.716,1.716,0,0,1,1.716,1.716" transform="translate(-1085.034 -963.607)"/>
        <path id="Path_1271765" data-name="Path 1271765" d="M1263.264,1062.273a1.2,1.2,0,1,1-1.2-1.2,1.2,1.2,0,0,1,1.2,1.2" transform="translate(-1045.303 -879.67)"/>
        <path id="Path_1271766" data-name="Path 1271766" d="M1331.094,1045.972a.937.937,0,1,1-.937-.936.936.936,0,0,1,.937.936" transform="translate(-1101.977 -866.377)"/>
        <path id="Path_1271767" data-name="Path 1271767" d="M1156.238,984.693a.607.607,0,1,1-.607-.607.606.606,0,0,1,.607.607" transform="translate(-957.562 -815.847)"/>
        <path id="Path_1271768" data-name="Path 1271768" d="M1229.276,857.565a.448.448,0,1,1-.448-.448.448.448,0,0,1,.448.448" transform="translate(-1018.376 -710.584)"/>
        <path id="Path_1271769" data-name="Path 1271769" d="M1378.834,890.812a.383.383,0,1,1-.383-.383.382.382,0,0,1,.383.383" transform="translate(-1142.474 -738.201)"/>
        <path id="Path_1271770" data-name="Path 1271770" d="M1288.378,1074.052a.683.683,0,1,1-.683-.683.683.683,0,0,1,.683.683" transform="translate(-1066.984 -889.865)"/>
        <path id="Path_1271771" data-name="Path 1271771" d="M1187.825,1070.7a.57.57,0,1,1-.57-.57.571.571,0,0,1,.57.57" transform="translate(-983.809 -887.177)"/>
        <path id="Path_1271772" data-name="Path 1271772" d="M736.934,549c-.925-1.006-1.788-2.01-2.6-3.009a50.325,50.325,0,0,1-4.929,6.784,46.7,46.7,0,0,1-21.758,14.682c-4.613,1.413-11.418,3.5-19.223,1.267-6.059-1.73-10.567-5.448-15.929-9.975l-.443-.374c-5.358-4.527-5.606-5.941-9.294-8.344a29.038,29.038,0,0,0-8.636-3.767,11.341,11.341,0,0,1,.245,7.508c-.192.588-1.674,4.906-5.695,6.39-5.9,2.174-12.449-3.518-15.347-7.78a18.183,18.183,0,0,1-1.758-3.253,19.622,19.622,0,0,1-1.217-4.234,100.178,100.178,0,0,0-15.44,5.346c-1.434.633-2.913,1.289-4.439,2.017a64.253,64.253,0,0,0-12.25,7.489,53.18,53.18,0,0,0-12.885,13.52c-3.114,4.835-8.843,13.731-7.394,25.244,1.171,9.3,6.411,15.446,8.978,18.378a41.824,41.824,0,0,0,19.84,12.442c-.864,1.607-1.8,3.251-1.99,3.19q1.866.617,3.62,1.132a115.553,115.553,0,0,0,12.117,2.882,118.325,118.325,0,0,0,38.344.528c4.352-.65,8.073-1.455,10.954-2.166.819-.2,1.57-.4,2.248-.58a81.8,81.8,0,0,1-2.534-12.992c-.523-4.7-.411-7.518-.528-20.6-.023-2.578-.048-4.842-.071-6.669a26.349,26.349,0,0,0,1.774-3.555,30.172,30.172,0,0,0,1.8-6.464,54.1,54.1,0,0,0,52.176-8.617c1.948-2.283,4.147-5.3,7.482-9.869,3.769-5.166,6.688-9.587,8.662-12.673-1.278-1.174-2.58-2.464-3.881-3.882M604.456,613.511c-.42-.407-.812-.826-1.177-1.251a23.782,23.782,0,0,1-7.561-12.027c-3.366-13.221,6.657-23.419,8.1-24.839a29.2,29.2,0,0,1,13.572-7.446l-.156-1.543c.062.512.123,1.024.18,1.537q.1.856.18,1.716.131,1.344.238,2.691c1.23,15.436-.145,31.225-5.767,45.732a19.918,19.918,0,0,1-7.612-4.569m29.136,13.42a9.784,9.784,0,0,1-1.391,2.8,8.9,8.9,0,0,1-.958,1.135,7.875,7.875,0,0,1-2.708,1.777c-2.339.9-5.478-.027-11.658-1.921-2.434-.746-4.45-1.365-5.769-1.772a21.035,21.035,0,0,0,3.027-8.525,12.034,12.034,0,0,0,3.985.811,9.539,9.539,0,0,0,5.509-1.145c1.417-.873,1.982-1.907,3.316-1.881.7.013,1.591.316,1.726.853.187.75-1.235,1.494-2.386,2.6a9.185,9.185,0,0,0-2.005,2.888,18.031,18.031,0,0,0,6.466-.115c.763-.161,2.07-.5,2.7.157a2.473,2.473,0,0,1,.15,2.334" transform="translate(-478.947 -451.742)" fill="#5a8441"/>
        <path id="Path_1271773" data-name="Path 1271773" d="M701.814,684.123a30.429,30.429,0,0,0-11.266,7.259c-2.017,2.064-7.242,7.417-8.029,15.949-.148,1.619-.93,10.092,4.739,16.7a23.781,23.781,0,0,1-7.561-12.027c-3.366-13.221,6.656-23.419,8.1-24.839a29.2,29.2,0,0,1,13.572-7.446Z" transform="translate(-562.927 -563.518)" fill="#fff"/>
        <path id="Path_1271774" data-name="Path 1271774" d="M1175.568,723.47a33.71,33.71,0,0,1-2.659,2.807c-7.493,6.994-15.7,9.586-20.808,11.195-4.9,1.547-11.724,3.7-20.384,3.064a43.241,43.241,0,0,1-10.126-1.985,30.185,30.185,0,0,0,1.8-6.464,54.1,54.1,0,0,0,52.176-8.617" transform="translate(-929.843 -599.786)" fill="#fff"/>
        <path id="Path_1271775" data-name="Path 1271775" d="M792.423,1115.357H713.034a242.515,242.515,0,0,1,4.742-39.2q1.281-6.246,2.8-12.084a115.108,115.108,0,0,0,12.118,2.882,118.282,118.282,0,0,0,38.343.528c4.352-.649,8.073-1.453,10.954-2.166,1.773,5.334,3.443,11.04,4.93,17.1a222.829,222.829,0,0,1,5.5,32.94" transform="translate(-591.134 -882.158)"/>
        <path id="Path_1271776" data-name="Path 1271776" d="M890.169,328.35a10.46,10.46,0,0,1-5.671,3.481,9.593,9.593,0,0,1-3.193.135,11.726,11.726,0,0,1-4.432-1.543,11.858,11.858,0,0,1-3.05-2.542,9.56,9.56,0,0,0,2.031,7.036,9.458,9.458,0,0,0,7.9,2.965q.826,1.9,1.67,3.713.959.185,1.955.44a11.341,11.341,0,0,1,.245,7.508c-.191.588-1.673,4.907-5.694,6.39-5.9,2.174-12.449-3.518-15.348-7.779a18.194,18.194,0,0,1-1.756-3.253,19.613,19.613,0,0,1-1.217-4.234q1.344-.345,2.757-.668A50.931,50.931,0,0,0,868,326.63a6.559,6.559,0,0,1-6.532-.9,6.167,6.167,0,0,1-2.229-6.179c.125-.473.713-2.687,2.737-3.285a4.28,4.28,0,0,1,4.459,1.643c.809-.789,1.973-1.97,3.285-3.481a37.079,37.079,0,0,0,6.259-8.994,28.776,28.776,0,0,0,2.189-6.883,17.919,17.919,0,0,1,6.335,3.129,20.023,20.023,0,0,1,5.514,7.078,20.982,20.982,0,0,1,3.012,9.309c.1,2.016.33,6.63-2.855,10.285" transform="translate(-712.198 -247.51)" fill="#fff"/>
        <path id="Path_1271777" data-name="Path 1271777" d="M955.086,480.112a9.459,9.459,0,0,1-7.9-2.965,9.561,9.561,0,0,1-2.031-7.036,11.862,11.862,0,0,0,3.05,2.542,11.725,11.725,0,0,0,4.432,1.543q.961,2.462,2.06,5.027.192.447.385.889" transform="translate(-783.535 -389.741)"/>
        <path id="Path_1271778" data-name="Path 1271778" d="M831.357,322.986l-.443-.375c-5.358-4.527-5.606-5.941-9.294-8.345a29.036,29.036,0,0,0-8.636-3.766q-.994-.255-1.955-.44-.842-1.811-1.67-3.713-.192-.442-.385-.889-1.1-2.562-2.06-5.027a9.591,9.591,0,0,0,3.194-.135,10.46,10.46,0,0,0,5.671-3.481c3.185-3.655,2.955-8.268,2.856-10.284a20.984,20.984,0,0,0-3.012-9.309,20.023,20.023,0,0,0-5.514-7.078,17.92,17.92,0,0,0-6.335-3.129,28.77,28.77,0,0,1-2.189,6.883,37.08,37.08,0,0,1-6.258,8.994c-1.312,1.512-2.476,2.692-3.285,3.481a4.281,4.281,0,0,0-4.459-1.643c-2.025.6-2.612,2.812-2.737,3.285a6.167,6.167,0,0,0,2.229,6.179,6.559,6.559,0,0,0,6.532.9,50.933,50.933,0,0,1-1.635,13.368q-1.413.322-2.757.668a100.006,100.006,0,0,0-15.441,5.346c-1.434.633-2.912,1.289-4.439,2.016,3.548-13.105,4.637-26.883,9.5-39.588,1.6-4.181,3.277-8.446,6.712-11.455a20.47,20.47,0,0,1,10.872-4.772,21.316,21.316,0,0,1,13.14,2.582c7.163,4.126,9.56,11.588,11.567,19.1,2.361,8.838,4.287,17.785,6.5,26.661,1.284,5.146,2.534,9.622,3.285,12.357q.225.819.443,1.61" transform="translate(-637.809 -215.976)"/>
        <path id="Trazado_1271779" data-name="Trazado 1271779" d="M1535.557,499.678h-.022a.458.458,0,0,1-.436-.479,17.4,17.4,0,0,1,.645-4.3.458.458,0,1,1,.873.277,16.519,16.519,0,0,0-.6,4.065A.458.458,0,0,1,1535.557,499.678Z" transform="translate(-1272.658 -410.027)"/>
        <path id="Trazado_1271780" data-name="Trazado 1271780" d="M1543.517,497.6a.458.458,0,0,1-.408-.666,6.815,6.815,0,0,1,2.062-2.439,5.4,5.4,0,0,1,2.7-1.109,5.271,5.271,0,0,1,1.237-.006.458.458,0,1,1-.129.907,4.529,4.529,0,0,0-3.264.949,5.906,5.906,0,0,0-1.786,2.115A.458.458,0,0,1,1543.517,497.6Z" transform="translate(-1279.258 -409)"/>
        <path id="Trazado_1271781" data-name="Trazado 1271781" d="M1506.534,463.837a1.33,1.33,0,0,1,1.222.524c.392.63-.1,1.444-.283,1.75a4.044,4.044,0,0,1-1.141,1.209,4.209,4.209,0,0,1,1.2-.248c.139-.008.3-.017.483-.017a2.435,2.435,0,0,1,2.1.868,2.152,2.152,0,0,1,.41,1.077,1.3,1.3,0,0,1,.808.623,1.794,1.794,0,0,1-.39,1.885,2.419,2.419,0,0,1-1.25.751,2.59,2.59,0,0,1,.417.111c.229.082,1.373.531,1.381,1.38.007.637-.533.976-2.2,1.857-.793.418-1.2.612-1.473.746-.208.1-.34.164-.524.27a8.721,8.721,0,0,0-2.734,2.854,21.774,21.774,0,0,0-1.955,3.305c-.307.622-.651,1.34-1.02,2.15l-.267.588-.467-.447c-1-.956-1.974-1.954-2.9-2.965q-.878-.955-1.687-1.909l-.195-.229.133-.27c.224-.454.469-.946.736-1.469.655-1.281,1.065-2.015,1.37-2.561a14.3,14.3,0,0,0,.9-1.826,14.67,14.67,0,0,0,.7-2.105,19.147,19.147,0,0,1,.958-2.827,10.308,10.308,0,0,1,2.131-3.453,5.039,5.039,0,0,1,2.237-1.425A5.215,5.215,0,0,1,1506.534,463.837Zm-3.705,7.333.558-1.757a3.834,3.834,0,0,1,1.738-2.451,3.555,3.555,0,0,0,1.564-1.322c.381-.634.294-.789.29-.795s-.123-.092-.445-.092a4.426,4.426,0,0,0-1.046.163,4.112,4.112,0,0,0-1.833,1.184,9.248,9.248,0,0,0-1.941,3.164,18.342,18.342,0,0,0-.918,2.711,15.457,15.457,0,0,1-.735,2.219,15.181,15.181,0,0,1-.952,1.925c-.3.54-.706,1.266-1.354,2.532-.213.416-.412.813-.6,1.186q.708.825,1.468,1.654c.771.84,1.576,1.671,2.4,2.475.271-.583.527-1.113.762-1.588a22.852,22.852,0,0,1,2.034-3.436,9.623,9.623,0,0,1,3.019-3.111c.2-.118.351-.189.584-.3.271-.131.667-.321,1.444-.731a8.47,8.47,0,0,0,1.719-1.059,1.525,1.525,0,0,0-.777-.505,1.657,1.657,0,0,0-.572-.1,4.67,4.67,0,0,0-1.5.345c-.236.083-.5.183-.782.3l-2.128.892,1.626-1.637a5.548,5.548,0,0,1,2.535-1.544l.181-.044a1.866,1.866,0,0,0,1.082-.531c.242-.288.373-.693.281-.868-.057-.108-.238-.189-.51-.228l-.411-.059.019-.415a1.343,1.343,0,0,0-.239-.877,1.581,1.581,0,0,0-1.371-.5c-.161,0-.307.008-.43.015a4.365,4.365,0,0,0-2.283.94,8.376,8.376,0,0,0-1.158.951Z" transform="translate(-1240.302 -384.539)"/>
        <path id="Trazado_1271782" data-name="Trazado 1271782" d="M1541.556,519.127a.458.458,0,0,1-.249-.842,16.755,16.755,0,0,1,2.619-1.386.458.458,0,0,1,.354.845,15.855,15.855,0,0,0-2.476,1.31A.456.456,0,0,1,1541.556,519.127Z" transform="translate(-1277.631 -428.5)"/>
        <path id="Trazado_1271783" data-name="Trazado 1271783" d="M628.5,541.578l.084.49a19.208,19.208,0,0,0,1.189,4.135,17.765,17.765,0,0,0,1.712,3.171c2.641,3.881,7.6,8.058,12.253,8.058a7.37,7.37,0,0,0,2.558-.451c3.711-1.369,5.163-5.324,5.417-6.1a10.952,10.952,0,0,0-.238-7.205l-.309-.824.852.22a29.554,29.554,0,0,1,8.772,3.826,22.721,22.721,0,0,1,4.417,3.766,62.4,62.4,0,0,0,4.923,4.612l.443.375c4.956,4.184,9.639,8.137,15.758,9.884a25.249,25.249,0,0,0,6.942.962,40.369,40.369,0,0,0,12.02-2.226,46.128,46.128,0,0,0,21.547-14.543A50.089,50.089,0,0,0,731.723,543l.337-.556.41.5q.448.552.918,1.105.8.939,1.663,1.882c.915,1,1.878,1.981,2.861,2.923q.5.479.993.933l.282.26-.207.324c-2.753,4.307-5.673,8.579-8.677,12.7-4.9,6.717-7.359,10.089-10.2,12.74-7.577,7.072-15.969,9.717-20.984,11.3a55.462,55.462,0,0,1-17.4,3.2c-1.047,0-2.108-.039-3.153-.116a43.853,43.853,0,0,1-9.832-1.878,26.834,26.834,0,0,1-1.576,3.115c.023,1.8.047,4.024.07,6.541.024,2.72.039,5,.051,6.937a120.238,120.238,0,0,0,.474,13.614,81.746,81.746,0,0,0,2.52,12.919l.124.446-.447.12c-.68.182-1.434.377-2.256.581-3.612.893-7.311,1.625-11,2.175a120.2,120.2,0,0,1-17.7,1.312,115.071,115.071,0,0,1-32.956-4.735q-1.76-.519-3.634-1.137l.147-.447-.213-.376a14.111,14.111,0,0,0,1.528-2.524,42.221,42.221,0,0,1-19.513-12.419c-2.357-2.693-7.876-9-9.088-18.622-1.471-11.681,4.341-20.7,7.464-25.549a53.654,53.654,0,0,1,12.988-13.632,64.558,64.558,0,0,1,12.333-7.542c1.531-.73,3.014-1.387,4.451-2.022a100.982,100.982,0,0,1,15.512-5.371Zm15.238,16.77c-4.985,0-10.239-4.385-13.011-8.458a18.677,18.677,0,0,1-1.8-3.335,20.01,20.01,0,0,1-1.156-3.843,100.035,100.035,0,0,0-14.895,5.2c-1.429.631-2.9,1.285-4.426,2.011a63.67,63.67,0,0,0-12.164,7.437A52.834,52.834,0,0,0,583.5,570.765c-3.06,4.749-8.755,13.589-7.325,24.939,1.177,9.345,6.567,15.5,8.868,18.134a41.4,41.4,0,0,0,19.623,12.3l.543.158-.268.5c-.771,1.434-1.258,2.269-1.586,2.755q1.509.489,2.942.911a114.165,114.165,0,0,0,32.7,4.7,119.3,119.3,0,0,0,17.566-1.3c3.657-.546,7.328-1.272,10.911-2.158q.961-.238,1.794-.459a82.546,82.546,0,0,1-2.425-12.617,120.767,120.767,0,0,1-.48-13.709c-.012-1.941-.027-4.216-.051-6.935-.023-2.577-.049-4.841-.072-6.667l0-.13.067-.111a25.992,25.992,0,0,0,1.744-3.493l.161-.393.4.13a42.971,42.971,0,0,0,10.019,1.964c1.023.075,2.061.113,3.086.113a54.676,54.676,0,0,0,17.127-3.157c4.941-1.557,13.209-4.163,20.634-11.093,2.775-2.592,5.217-5.94,10.082-12.61,2.918-4,5.756-8.146,8.439-12.328q-.361-.336-.724-.684c-1-.956-1.974-1.954-2.9-2.965q-.878-.955-1.687-1.909-.265-.311-.522-.622a51,51,0,0,1-4.635,6.3,47.01,47.01,0,0,1-21.97,14.82,41.145,41.145,0,0,1-12.29,2.267,26.162,26.162,0,0,1-7.194-1c-6.308-1.8-11.064-5.815-16.1-10.065l-.443-.375a63.216,63.216,0,0,1-4.988-4.673,21.982,21.982,0,0,0-4.261-3.638,28.438,28.438,0,0,0-7.679-3.482,11.759,11.759,0,0,1-.027,6.982c-.276.849-1.863,5.162-5.971,6.678A8.283,8.283,0,0,1,643.738,558.349Zm-27.714,10.608.048.6c1.358,17.051-.593,32.505-5.8,45.933l-.158.407-.414-.138a20.237,20.237,0,0,1-7.787-4.674c-6.178-6-6.444-14.054-6.053-18.323.8-8.706,6.146-14.172,8.157-16.23a30.757,30.757,0,0,1,11.435-7.368Zm-6.444,45.794c4.974-13.042,6.866-28.011,5.627-44.509a29.763,29.763,0,0,0-10.53,6.933c-1.949,1.995-7.127,7.292-7.9,15.671-.377,4.109-.126,11.853,5.779,17.585A19.247,19.247,0,0,0,609.579,614.751Zm15.1.253c.81.015,2.006.347,2.22,1.2.2.8-.568,1.422-1.456,2.138-.341.275-.712.572-1.057.9a8.594,8.594,0,0,0-1.631,2.188,20.256,20.256,0,0,0,2.365.144,15.849,15.849,0,0,0,3.314-.337,7.926,7.926,0,0,1,1.652-.243,1.947,1.947,0,0,1,1.473.531,2.817,2.817,0,0,1,.258,2.779,10.271,10.271,0,0,1-1.46,2.945,9.237,9.237,0,0,1-1.006,1.19,8.273,8.273,0,0,1-2.867,1.88,6.06,6.06,0,0,1-2.214.378c-2.17,0-4.974-.827-9.743-2.289l-6.339-1.946.315-.505a20.587,20.587,0,0,0,2.961-8.34l.073-.58.546.211a11.524,11.524,0,0,0,3.832.78c.247.007.522.015.821.015a8.314,8.314,0,0,0,4.436-1.091,10.239,10.239,0,0,0,1.155-.856A3.567,3.567,0,0,1,624.674,615Zm.441,7.488a21.755,21.755,0,0,1-3.123-.236l-.6-.088.252-.555a9.75,9.75,0,0,1,2.106-3.03c.365-.35.755-.665,1.116-.956.507-.408,1.2-.966,1.142-1.2-.055-.216-.661-.493-1.291-.505h0a2.718,2.718,0,0,0-1.81.886,11.123,11.123,0,0,1-1.256.928,9.181,9.181,0,0,1-4.916,1.227c-.308,0-.592-.008-.847-.016a12.36,12.36,0,0,1-3.6-.646,21.488,21.488,0,0,1-2.707,7.637l5.208,1.6c4.685,1.436,7.435,2.249,9.475,2.249a5.163,5.163,0,0,0,1.885-.317,7.362,7.362,0,0,0,2.55-1.674,8.33,8.33,0,0,0,.908-1.075,9.3,9.3,0,0,0,1.325-2.668c.262-.9.247-1.587-.042-1.89a1.079,1.079,0,0,0-.81-.247,6.422,6.422,0,0,0-1.3.188A17.141,17.141,0,0,1,625.115,622.492Z" transform="translate(-476.727 -448.99)"/>
        <path id="Trazado_1271784" data-name="Trazado 1271784" d="M778.51,973.548a.465.465,0,0,1-.057,0,.458.458,0,0,1-.4-.511c.059-.476.1-.919.122-1.325-.649-.154-1.267-.33-1.879-.534a.458.458,0,0,1,.29-.869,21.332,21.332,0,0,0,2.165.6l.375.083-.016.383c-.022.526-.066,1.122-.148,1.779A.458.458,0,0,1,778.51,973.548Z" transform="translate(-643.323 -804.403)"/>
        <path id="Trazado_1271785" data-name="Trazado 1271785" d="M749.105,1036.1l-.289-.059c-1.2-.246-2.359-.533-3.539-.876a.458.458,0,0,1,.256-.879c1.061.309,2.1.571,3.176.8.211-.3.431-.625.653-.981a.458.458,0,0,1,.776.486c-.3.473-.586.9-.86,1.273Z" transform="translate(-617.591 -857.135)"/>
        <path id="Trazado_1271786" data-name="Trazado 1271786" d="M1032.792,841.714a.458.458,0,0,1-.173-.882,26.91,26.91,0,0,0,10.594-7.683,25.274,25.274,0,0,0,2.213-3.127.458.458,0,1,1,.786.471,26.21,26.21,0,0,1-2.293,3.24,27.832,27.832,0,0,1-10.954,7.947A.456.456,0,0,1,1032.792,841.714Z" transform="translate(-855.846 -687.937)"/>
        <path id="Trazado_1271787" data-name="Trazado 1271787" d="M1119.37,699.18a.458.458,0,0,1-.424-.631,33.289,33.289,0,0,0,2.173-9.4,34.569,34.569,0,0,0-1.147-13.135.458.458,0,0,1,.881-.25,35.478,35.478,0,0,1,1.177,13.481,34.121,34.121,0,0,1-2.236,9.654A.458.458,0,0,1,1119.37,699.18Z" transform="translate(-927.623 -559.956)"/>
        <path id="Trazado_1271788" data-name="Trazado 1271788" d="M807.272,674.876a.458.458,0,0,1-.456-.422q-.107-1.344-.239-2.682-.159-1.623-.359-3.243a.458.458,0,1,1,.909-.11q.2,1.628.361,3.264.133,1.348.241,2.7a.458.458,0,0,1-.42.493Z" transform="translate(-668.385 -553.812)"/>
        <path id="Trazado_1271789" data-name="Trazado 1271789" d="M790.615,1113.035H710.248l.019-.476a243.907,243.907,0,0,1,4.751-39.276c.827-4.033,1.772-8.106,2.807-12.107l.119-.459.454.134a114.193,114.193,0,0,0,32.7,4.7,119.292,119.292,0,0,0,17.566-1.3c3.66-.546,7.332-1.272,10.912-2.158l.411-.1.134.4c1.865,5.611,3.527,11.377,4.94,17.138a224.115,224.115,0,0,1,5.512,33.007Zm-79.414-.916h78.41a223.164,223.164,0,0,0-5.444-32.372c-1.373-5.6-2.983-11.2-4.787-16.666-3.478.847-7.036,1.544-10.585,2.073a120.221,120.221,0,0,1-17.7,1.312,115.095,115.095,0,0,1-32.5-4.6c-.986,3.839-1.886,7.74-2.679,11.6A242.942,242.942,0,0,0,711.2,1112.119Z" transform="translate(-588.824 -879.377)"/>
        <path id="Trazado_1271790" data-name="Trazado 1271790" d="M876.988,354.1c-4.985,0-10.238-4.384-13.01-8.458a18.707,18.707,0,0,1-1.8-3.335,20.1,20.1,0,0,1-1.246-4.333l-.071-.416.409-.1q1.22-.313,2.5-.608c.4-1.566.723-3.167.969-4.764a50.445,50.445,0,0,0,.586-7.578,7.241,7.241,0,0,1-2.07.3,6.863,6.863,0,0,1-4.294-1.488,6.586,6.586,0,0,1-2.385-6.653,4.718,4.718,0,0,1,3.05-3.607,3.985,3.985,0,0,1,1.128-.161,4.906,4.906,0,0,1,3.486,1.576c1.008-1,1.987-2.046,2.914-3.115a36.512,36.512,0,0,0,6.189-8.887,28.47,28.47,0,0,0,2.154-6.774l.091-.487.478.129a18.275,18.275,0,0,1,6.5,3.209,20.376,20.376,0,0,1,5.638,7.224,21.563,21.563,0,0,1,3.065,9.5c.1,2.042.337,6.816-2.968,10.608a10.774,10.774,0,0,1-5.92,3.628,10,10,0,0,1-2.084.22,10.276,10.276,0,0,1-1.261-.078,12.578,12.578,0,0,1-7.016-3.435,8.657,8.657,0,0,0,1.966,5.631,9.026,9.026,0,0,0,7.517,2.809l.323-.023.129.3q.776,1.787,1.567,3.491.861.173,1.751.4l.232.059.084.224a11.874,11.874,0,0,1,.251,7.81c-.277.849-1.865,5.163-5.971,6.678A8.284,8.284,0,0,1,876.988,354.1ZM861.91,338.236a19.071,19.071,0,0,0,1.113,3.719,17.784,17.784,0,0,0,1.712,3.172c2.64,3.881,7.6,8.058,12.253,8.057a7.369,7.369,0,0,0,2.558-.451c3.709-1.369,5.163-5.323,5.417-6.1a10.767,10.767,0,0,0-.157-6.981q-.86-.214-1.694-.375l-.23-.044-.1-.212q-.779-1.676-1.547-3.43a9.867,9.867,0,0,1-7.949-3.141,9.98,9.98,0,0,1-2.141-7.38l.1-1.065.7.81a11.43,11.43,0,0,0,2.933,2.445,11.242,11.242,0,0,0,4.259,1.485,9.361,9.361,0,0,0,1.149.071,9.088,9.088,0,0,0,1.893-.2,9.879,9.879,0,0,0,5.421-3.334c3.063-3.514,2.839-8.03,2.744-9.959a20.49,20.49,0,0,0-2.954-9.11,19.615,19.615,0,0,0-5.4-6.94,17.3,17.3,0,0,0-5.7-2.914,29.3,29.3,0,0,1-2.128,6.5,37.253,37.253,0,0,1-6.328,9.1c-1.049,1.208-2.163,2.389-3.311,3.509l-.363.354-.315-.4a4.067,4.067,0,0,0-3.1-1.612,3.069,3.069,0,0,0-.869.124,3.849,3.849,0,0,0-2.424,2.963,5.735,5.735,0,0,0,2.074,5.7,5.943,5.943,0,0,0,3.72,1.285,6.363,6.363,0,0,0,2.356-.453l.619-.246.007.666a51.389,51.389,0,0,1-1.65,13.488l-.07.269-.271.062Q863.051,337.947,861.91,338.236Z" transform="translate(-709.978 -244.742)"/>
        <path id="Trazado_1271791" data-name="Trazado 1271791" d="M890.1,568.09a.458.458,0,0,1-.43-.616l.076-.2a.458.458,0,1,1,.852.336l-.068.18A.458.458,0,0,1,890.1,568.09Z" transform="translate(-737.545 -470.052)"/>
        <path id="Trazado_1271792" data-name="Trazado 1271792" d="M952.061,475.221a9.752,9.752,0,0,1-7.431-3.152,9.98,9.98,0,0,1-2.141-7.381l.1-1.065.7.81a11.435,11.435,0,0,0,2.933,2.445,11.242,11.242,0,0,0,4.259,1.485l.271.033.1.255q.959,2.456,2.054,5.013l.642,1.48-.645.046Q952.48,475.221,952.061,475.221Zm-8.706-9.384a8.657,8.657,0,0,0,1.966,5.631,8.868,8.868,0,0,0,6.865,2.836l-.12-.278q-1.046-2.44-1.967-4.79a12.617,12.617,0,0,1-6.744-3.4Z" transform="translate(-781.32 -384.362)"/>
        <path id="Trazado_1271793" data-name="Trazado 1271793" d="M828.788,322.08l-1.574-1.338a63.24,63.24,0,0,1-4.988-4.673,21.974,21.974,0,0,0-4.261-3.639,28.637,28.637,0,0,0-8.5-3.706c-.653-.167-1.3-.312-1.927-.433l-.23-.044-.1-.212q-.844-1.816-1.675-3.723l-.385-.891q-1.1-2.57-2.066-5.041l-.279-.715.762.094a9.35,9.35,0,0,0,1.149.071,9.086,9.086,0,0,0,1.893-.2,9.877,9.877,0,0,0,5.421-3.334c3.063-3.514,2.839-8.03,2.744-9.959a20.494,20.494,0,0,0-2.955-9.112,19.614,19.614,0,0,0-5.394-6.938,17.306,17.306,0,0,0-5.7-2.914,29.288,29.288,0,0,1-2.128,6.5,37.267,37.267,0,0,1-6.328,9.1c-1.05,1.209-2.164,2.39-3.311,3.509l-.363.354-.315-.4a4.067,4.067,0,0,0-3.1-1.613,3.07,3.07,0,0,0-.869.124,3.847,3.847,0,0,0-2.424,2.963,5.735,5.735,0,0,0,2.073,5.7,5.943,5.943,0,0,0,3.72,1.286,6.364,6.364,0,0,0,2.356-.453l.619-.246.007.666a51.393,51.393,0,0,1-1.65,13.488l-.07.269-.271.062q-1.407.321-2.745.665a100.016,100.016,0,0,0-15.37,5.322c-1.429.631-2.9,1.285-4.427,2.011l-.9.429.26-.962c1.393-5.145,2.424-10.489,3.421-15.657,1.54-7.982,3.133-16.236,6.1-23.975,1.526-3.984,3.256-8.5,6.838-11.636A20.7,20.7,0,0,1,792.957,258a21.264,21.264,0,0,1,2.7-.17,21.556,21.556,0,0,1,10.724,2.809c7.207,4.151,9.685,11.533,11.78,19.374,1.422,5.323,2.707,10.773,3.95,16.043.836,3.546,1.672,7.091,2.554,10.626,1.131,4.536,2.254,8.613,3,11.311Zm-20.847-14.644q.861.173,1.751.4a29.551,29.551,0,0,1,8.773,3.826,22.711,22.711,0,0,1,4.417,3.767c1,1.028,2.224,2.283,4.234,4.023l-.333-1.21c-.744-2.7-1.869-6.786-3-11.333-.883-3.538-1.72-7.088-2.557-10.637-1.241-5.264-2.525-10.706-3.943-16.017-2.044-7.647-4.45-14.841-11.353-18.817a20.64,20.64,0,0,0-10.267-2.687,20.342,20.342,0,0,0-2.586.162,19.792,19.792,0,0,0-10.629,4.662c-3.411,2.987-5.1,7.39-6.586,11.274-2.936,7.664-4.52,15.877-6.053,23.821-.939,4.867-1.908,9.89-3.183,14.77,1.216-.566,2.4-1.091,3.558-1.6a100.941,100.941,0,0,1,15.512-5.371q1.22-.313,2.5-.608c.4-1.564.723-3.166.969-4.764a50.461,50.461,0,0,0,.586-7.578,7.243,7.243,0,0,1-2.07.3,6.862,6.862,0,0,1-4.294-1.488A6.585,6.585,0,0,1,781,285.679a4.716,4.716,0,0,1,3.05-3.607,3.985,3.985,0,0,1,1.128-.161,4.906,4.906,0,0,1,3.486,1.576c1.008-1,1.986-2.046,2.914-3.115a36.513,36.513,0,0,0,6.189-8.887,28.455,28.455,0,0,0,2.154-6.774l.091-.487.478.129a18.274,18.274,0,0,1,6.5,3.209,20.376,20.376,0,0,1,5.638,7.224,21.562,21.562,0,0,1,3.065,9.5c.1,2.041.338,6.816-2.968,10.608a10.772,10.772,0,0,1-5.92,3.628,10,10,0,0,1-2.084.22q-.258,0-.509-.013.842,2.126,1.784,4.326l.384.887Q807.15,305.732,807.941,307.436Z" transform="translate(-634.403 -213.756)"/>
        <path id="Path_1271794" data-name="Path 1271794" d="M808.894,670.7q.2,1.623.36,3.253.132,1.344.24,2.691Z" transform="translate(-670.605 -556.033)" fill="#7c60ea"/>
        <path id="Trazado_1271795" data-name="Trazado 1271795" d="M946.294,368.065a.458.458,0,0,1-.406-.67,4.065,4.065,0,0,1,1.631-1.686,4.266,4.266,0,0,1,3.281-.289.458.458,0,0,1-.281.872,3.328,3.328,0,0,0-2.556.219,3.152,3.152,0,0,0-1.262,1.308A.458.458,0,0,1,946.294,368.065Z" transform="translate(-784.136 -302.78)"/>
        <path id="Trazado_1271796" data-name="Trazado 1271796" d="M1004.035,355.52a.458.458,0,0,1-.359-.741,4.067,4.067,0,0,1,1.915-1.355,4.266,4.266,0,0,1,3.278.324.458.458,0,0,1-.438.8,3.329,3.329,0,0,0-2.552-.259,3.154,3.154,0,0,0-1.483,1.052A.457.457,0,0,1,1004.035,355.52Z" transform="translate(-832.006 -292.84)"/>
        <path id="Path_1271797" data-name="Path 1271797" d="M966.148,401.409c.346.715.269,1.468-.172,1.682s-1.08-.192-1.427-.908-.269-1.468.172-1.682,1.08.192,1.426.908" transform="translate(-799.471 -331.984)"/>
        <path id="Path_1271798" data-name="Path 1271798" d="M1023,388.035c.173.775-.074,1.491-.553,1.6s-1.008-.435-1.181-1.21.074-1.491.553-1.6,1.007.435,1.181,1.21" transform="translate(-846.629 -320.683)"/>
        <path id="Trazado_1271799" data-name="Trazado 1271799" d="M998.142,395.557a.458.458,0,0,1-.162-.886,2.011,2.011,0,0,0,.837-.587c.221-.267.388-.492.355-.755a.707.707,0,0,0-.188-.376,7.562,7.562,0,0,1-1.9-1.717,6.523,6.523,0,0,1-1.2-2.1,6.121,6.121,0,0,1-.187-3,.458.458,0,0,1,.9.165,5.2,5.2,0,0,0,.156,2.553,5.618,5.618,0,0,0,1.046,1.818,7.257,7.257,0,0,0,1.773,1.594,1.633,1.633,0,0,1,.513.957,1.888,1.888,0,0,1-.558,1.453,2.918,2.918,0,0,1-1.219.86A.458.458,0,0,1,998.142,395.557Z" transform="translate(-825.383 -319.804)"/>
        <path id="Trazado_1271800" data-name="Trazado 1271800" d="M983.8,450.79a4.492,4.492,0,0,1-2-.469,4.427,4.427,0,0,1-1.21-.891.458.458,0,0,1,.66-.635,3.51,3.51,0,0,0,.96.708,3.586,3.586,0,0,0,1.7.371.458.458,0,1,1,.027.915Z" transform="translate(-812.841 -371.953)"/>
        <path id="Path_1271801" data-name="Path 1271801" d="M901.024,1095.059l1.659,4.582a12.524,12.524,0,0,1-7.511,16.04l-8.213,2.974a12.524,12.524,0,0,1-16.04-7.511l-1.659-4.582Z" transform="translate(-720.651 -907.848)" fill="#ffc94a"/>
        <rect id="Rectangle_412257" data-name="Rectangle 412257" width="11.578" height="117.07" transform="translate(118.032 85.277) rotate(-19.907)" fill="#7c60ea"/>
        <path id="Path_1271802" data-name="Path 1271802" d="M672.414,345.178l-12.956,4.692,2.75-12.638Z" transform="translate(-546.718 -279.578)" fill="#ffc94a"/>
        <path id="Path_1271803" data-name="Path 1271803" d="M667.864,395.252l-31.764,11.5,3.993-18.348,12.956-4.692Z" transform="translate(-527.352 -318.115)" fill="#fff"/>
        <rect id="Rectangle_412258" data-name="Rectangle 412258" width="11.578" height="117.07" transform="translate(118.032 85.277) rotate(-19.907)" fill="#ffc94a"/>
        <rect id="Rectangle_412259" data-name="Rectangle 412259" width="9.874" height="117.07" transform="translate(108.748 88.639) rotate(-19.907)" fill="#fff"/>
        <rect id="Rectangle_412260" data-name="Rectangle 412260" width="12.331" height="117.07" transform="translate(128.918 81.335) rotate(-19.907)" fill="#fff"/>
        <path id="Trazado_1271804" data-name="Trazado 1271804" d="M898.455,1091.629l1.815,5.013a12.982,12.982,0,0,1-7.786,16.626l-8.214,2.974a12.969,12.969,0,0,1-16.626-7.786l-1.815-5.013Zm-18.6,24.476a12.028,12.028,0,0,0,4.107-.724l8.213-2.974a12.066,12.066,0,0,0,7.237-15.453l-1.5-4.152L867,1103.992l1.5,4.152A12.1,12.1,0,0,0,879.852,1116.1Z" transform="translate(-717.808 -905.004)"/>
        <path id="Rectángulo_412261" data-name="Rectángulo 412261" d="M0,0H10.79V117.986H0ZM9.874.916H.916V117.07H9.874Z" transform="translate(108.161 88.365) rotate(-19.907)"/>
        <path id="Rectángulo_412262" data-name="Rectángulo 412262" d="M0,0H13.247V117.986H0ZM12.331.916H.916V117.07H12.331Z" transform="translate(128.331 81.06) rotate(-19.907)"/>
        <path id="Trazado_1271805" data-name="Trazado 1271805" d="M632.451,365.011l7.075-32.507,26.249,20.44Zm7.66-30.891L633.7,363.585l30.2-10.938Z" transform="translate(-524.327 -275.659)"/>
        <path id="Path_1271806" data-name="Path 1271806" d="M795.53,982.465a9.8,9.8,0,0,1-1.392,2.805,8.832,8.832,0,0,1-.957,1.134,7.873,7.873,0,0,1-2.709,1.776c-2.339.9-5.478-.027-11.658-1.922-2.434-.746-4.449-1.365-5.769-1.771a21.04,21.04,0,0,0,3.027-8.525,12,12,0,0,0,3.984.811,9.535,9.535,0,0,0,5.509-1.144c1.419-.874,1.983-1.908,3.317-1.881.7.013,1.592.316,1.727.852.186.751-1.236,1.494-2.386,2.6a9.194,9.194,0,0,0-2.006,2.889,18.067,18.067,0,0,0,6.467-.115c.763-.162,2.07-.5,2.7.156a2.476,2.476,0,0,1,.15,2.334" transform="translate(-640.885 -807.276)" fill="#fff"/>
        <path id="Trazado_1271807" data-name="Trazado 1271807" d="M785.012,986.766c-2.17,0-4.974-.827-9.743-2.289l-6.338-1.947.315-.505a20.585,20.585,0,0,0,2.961-8.34l.073-.58.546.211a11.535,11.535,0,0,0,3.832.78c.247.007.522.015.819.015a8.316,8.316,0,0,0,4.437-1.091,10.229,10.229,0,0,0,1.156-.856,3.566,3.566,0,0,1,2.351-1.094c.811.015,2.006.346,2.221,1.2.2.8-.568,1.422-1.456,2.137-.342.275-.712.572-1.057.9A8.577,8.577,0,0,0,783.5,977.5a20.27,20.27,0,0,0,2.365.144,15.851,15.851,0,0,0,3.313-.336,7.913,7.913,0,0,1,1.652-.244,1.947,1.947,0,0,1,1.473.532,2.816,2.816,0,0,1,.258,2.778,10.258,10.258,0,0,1-1.46,2.945,9.255,9.255,0,0,1-1.005,1.19,8.288,8.288,0,0,1-2.868,1.88A6.058,6.058,0,0,1,785.012,986.766ZM770.33,982l5.208,1.6c4.685,1.436,7.435,2.249,9.475,2.249a5.163,5.163,0,0,0,1.885-.317,7.375,7.375,0,0,0,2.551-1.674,8.347,8.347,0,0,0,.907-1.075,9.294,9.294,0,0,0,1.325-2.668c.262-.9.247-1.587-.042-1.89a1.078,1.078,0,0,0-.81-.248,6.416,6.416,0,0,0-1.3.188,17.13,17.13,0,0,1-3.668.392,21.76,21.76,0,0,1-3.123-.236l-.6-.088.252-.555a9.735,9.735,0,0,1,2.107-3.03c.364-.35.756-.666,1.117-.957.506-.408,1.2-.966,1.141-1.2-.054-.216-.661-.493-1.291-.5h0a2.716,2.716,0,0,0-1.81.885,11.132,11.132,0,0,1-1.256.928,9.183,9.183,0,0,1-4.917,1.227c-.307,0-.591-.008-.846-.015a12.37,12.37,0,0,1-3.6-.646A21.484,21.484,0,0,1,770.33,982Z" transform="translate(-637.474 -805.056)"/>
        <path id="Trazado_1271808" data-name="Trazado 1271808" d="M861.211,1024.253a10.254,10.254,0,0,1-3-.456.458.458,0,1,1,.269-.875,8.966,8.966,0,0,0,5.316.021,8.654,8.654,0,0,0,1.837-.822.458.458,0,1,1,.468.787,9.536,9.536,0,0,1-4.893,1.346Z" transform="translate(-711.224 -847.326)"/>
        <path id="Trazado_1271809" data-name="Trazado 1271809" d="M854.884,1042.585q-.361,0-.72-.022a11.783,11.783,0,0,1-3.936-.949.458.458,0,0,1,.363-.841,10.76,10.76,0,0,0,6.266.716.458.458,0,0,1,.165.9A11.859,11.859,0,0,1,854.884,1042.585Z" transform="translate(-704.644 -862.811)"/>
        <path id="Path_1271810" data-name="Path 1271810" d="M1380.66,460.566v125.54H1487.1V460.566Z" transform="translate(-1144.623 -381.827)" fill="#5a8441"/>
        <rect id="Rectangle_412263" data-name="Rectangle 412263" width="106.437" height="116.385" transform="translate(233.302 85.01)" fill="#fff"/>
        <rect id="Rectangle_412264" data-name="Rectangle 412264" width="106.437" height="116.385" transform="translate(233.302 85.01)" fill="#fff"/>
        <path id="Rectángulo_412265" data-name="Rectángulo 412265" d="M-2.679-2.679H104.675v117.3H-2.679Zm106.437.916H-1.763V113.706H103.759Z" transform="translate(235.523 87.23)"/>
        <rect id="Rectangle_412266" data-name="Rectangle 412266" width="106.437" height="9.156" transform="translate(233.302 75.854)" fill="#bccdb2"/>
        <path id="Rectángulo_412267" data-name="Rectángulo 412267" d="M-2.678-2.678H104.675V7.393H-2.678Zm106.437.916H-1.763v8.24H103.759Z" transform="translate(235.522 78.074)"/>
        <path id="Path_1271811" data-name="Path 1271811" d="M1401.647,464.074a1.568,1.568,0,1,1-1.568-1.568,1.568,1.568,0,0,1,1.568,1.568" transform="translate(-1159.422 -383.436)" fill="#fff"/>
        <path id="Path_1271812" data-name="Path 1271812" d="M1435.572,464.074a1.568,1.568,0,1,1-1.568-1.568,1.568,1.568,0,0,1,1.568,1.568" transform="translate(-1187.547 -383.436)" fill="#fff"/>
        <path id="Path_1271813" data-name="Path 1271813" d="M1469.5,464.074a1.568,1.568,0,1,1-1.568-1.568,1.568,1.568,0,0,1,1.568,1.568" transform="translate(-1215.672 -383.436)" fill="#fff"/>
        <path id="Trazado_1271814" data-name="Trazado 1271814" d="M1435.438,545.626h17.139v17.139h-17.139Zm16.223.916h-15.307v15.307h15.307Z" transform="translate(-1190.036 -452.346)"/>
        <path id="Trazado_1271815" data-name="Trazado 1271815" d="M1473.763,618.719a.436.436,0,0,1-.311-.13l-.018-.018a.458.458,0,0,1,.647-.648.469.469,0,0,1,.009.656A.463.463,0,0,1,1473.763,618.719Z" transform="translate(-1221.425 -512.172)"/>
        <path id="Trazado_1271816" data-name="Trazado 1271816" d="M1456.593,577.865l-.357-.33c-.666-.617-1.29-1.262-1.914-1.907-.544-.563-1.088-1.125-1.66-1.667a.458.458,0,0,1,.63-.665c.582.551,1.135,1.123,1.688,1.7.5.517,1,1.035,1.524,1.538l.016-.019c2.228-2.714,4.332-5.278,6.476-8.075a.458.458,0,0,1,.727.557c-2.154,2.809-4.262,5.379-6.495,8.1Z" transform="translate(-1204.197 -471.106)"/>
        <path id="Línea_256" data-name="Línea 256" d="M42.041-1.763H-2.221a.458.458,0,0,1-.458-.458.458.458,0,0,1,.458-.458H42.041a.458.458,0,0,1,.458.458A.458.458,0,0,1,42.041-1.763Z" transform="translate(273.427 97.531)"/>
        <path id="Línea_257" data-name="Línea 257" d="M42.041-1.763H-2.221a.458.458,0,0,1-.458-.458.458.458,0,0,1,.458-.458H42.041a.458.458,0,0,1,.458.458A.458.458,0,0,1,42.041-1.763Z" transform="translate(273.427 104.07)"/>
        <path id="Trazado_1271817" data-name="Trazado 1271817" d="M1640.128,632.171h0q-28.02-.028-55.974,0a.45.45,0,0,1-.458-.457.458.458,0,0,1,.458-.458q27.935-.028,55.975,0a.458.458,0,0,1,0,.916Z" transform="translate(-1312.947 -523.325)"/>
        <path id="Trazado_1271818" data-name="Trazado 1271818" d="M1435.438,706.881h17.139V724.02h-17.139Zm16.223.916h-15.307V723.1h15.307Z" transform="translate(-1190.036 -586.033)"/>
        <path id="Línea_258" data-name="Línea 258" d="M42.041-1.763H-2.221a.458.458,0,0,1-.458-.458.458.458,0,0,1,.458-.458H42.041a.458.458,0,0,1,.458.458A.458.458,0,0,1,42.041-1.763Z" transform="translate(273.427 125.099)"/>
        <path id="Línea_259" data-name="Línea 259" d="M42.041-1.763H-2.221a.458.458,0,0,1-.458-.458.458.458,0,0,1,.458-.458H42.041a.458.458,0,0,1,.458.458A.458.458,0,0,1,42.041-1.763Z" transform="translate(273.427 131.638)"/>
        <path id="Trazado_1271819" data-name="Trazado 1271819" d="M1612.119,793.514q-14,0-27.966-.02a.458.458,0,0,1,0-.916h0q27.934.041,55.973,0a.452.452,0,0,1,.459.457.458.458,0,0,1-.457.459Q1626.118,793.514,1612.119,793.514Z" transform="translate(-1312.947 -657.079)"/>
        <path id="Trazado_1271820" data-name="Trazado 1271820" d="M1435.438,868.137h17.139v17.139h-17.139Zm16.223.916h-15.307V884.36h15.307Z" transform="translate(-1190.036 -719.72)"/>
        <path id="Trazado_1271821" data-name="Trazado 1271821" d="M1473.763,941.229a.436.436,0,0,1-.311-.13l-.018-.017a.458.458,0,0,1,.647-.648.469.469,0,0,1,.009.656A.463.463,0,0,1,1473.763,941.229Z" transform="translate(-1221.425 -779.546)"/>
        <path id="Trazado_1271822" data-name="Trazado 1271822" d="M1456.593,900.375l-.357-.33c-.666-.617-1.291-1.262-1.915-1.907-.544-.562-1.088-1.125-1.659-1.666a.458.458,0,0,1,.63-.665c.582.551,1.134,1.122,1.688,1.694.5.518,1,1.036,1.525,1.538l.011-.014c2.229-2.716,4.334-5.282,6.48-8.081a.458.458,0,0,1,.727.557c-2.155,2.811-4.265,5.382-6.5,8.1Z" transform="translate(-1204.197 -738.48)"/>
        <path id="Línea_260" data-name="Línea 260" d="M42.041-1.763H-2.221a.458.458,0,0,1-.458-.458.458.458,0,0,1,.458-.458H42.041a.458.458,0,0,1,.458.458A.458.458,0,0,1,42.041-1.763Z" transform="translate(273.427 152.667)"/>
        <path id="Línea_261" data-name="Línea 261" d="M42.041-1.763H-2.221a.458.458,0,0,1-.458-.458.458.458,0,0,1,.458-.458H42.041a.458.458,0,0,1,.458.458A.458.458,0,0,1,42.041-1.763Z" transform="translate(273.427 159.207)"/>
        <path id="Trazado_1271823" data-name="Trazado 1271823" d="M1612.119,954.8c-9.352,0-18.7-.018-27.967-.054a.458.458,0,0,1,0-.916h0c18.541.072,37.373.072,55.971,0a.464.464,0,0,1,.46.456.458.458,0,0,1-.456.46C1630.829,954.785,1621.471,954.8,1612.119,954.8Z" transform="translate(-1312.947 -790.766)"/>
        <path id="Trazado_1271824" data-name="Trazado 1271824" d="M1435.438,1029.392h17.139v17.139h-17.139Zm16.223.916h-15.307v15.307h15.307Z" transform="translate(-1190.036 -853.407)"/>
        <path id="Trazado_1271825" data-name="Trazado 1271825" d="M1473.763,1102.484a.437.437,0,0,1-.311-.13l-.018-.017a.458.458,0,1,1,.648-.648.469.469,0,0,1,.009.656A.464.464,0,0,1,1473.763,1102.484Z" transform="translate(-1221.425 -913.234)"/>
        <path id="Trazado_1271826" data-name="Trazado 1271826" d="M1456.593,1061.63l-.357-.33c-.666-.617-1.29-1.262-1.914-1.907-.544-.563-1.088-1.125-1.66-1.667a.458.458,0,0,1,.63-.665c.582.551,1.135,1.123,1.688,1.7.5.517,1,1.035,1.524,1.538l.016-.019c2.228-2.714,4.332-5.278,6.476-8.076a.458.458,0,0,1,.727.557c-2.154,2.809-4.262,5.379-6.495,8.1Z" transform="translate(-1204.197 -872.167)"/>
        <path id="Línea_262" data-name="Línea 262" d="M42.041-1.763H-2.221a.458.458,0,0,1-.458-.458.458.458,0,0,1,.458-.458H42.041a.458.458,0,0,1,.458.458A.458.458,0,0,1,42.041-1.763Z" transform="translate(273.427 180.236)"/>
        <path id="Línea_263" data-name="Línea 263" d="M42.041-1.763H-2.221a.458.458,0,0,1-.458-.458.458.458,0,0,1,.458-.458H42.041a.458.458,0,0,1,.458.458A.458.458,0,0,1,42.041-1.763Z" transform="translate(273.427 186.775)"/>
        <path id="Trazado_1271827" data-name="Trazado 1271827" d="M1640.128,1115.863h0c-18.6-.039-37.431-.039-55.973,0h0a.458.458,0,0,1,0-.916c18.543-.039,37.376-.039,55.977,0a.458.458,0,0,1,0,.916Z" transform="translate(-1312.947 -924.311)"/>
        <path id="Path_1271828" data-name="Path 1271828" d="M781.633,27.039l-3.759-1.23a13.478,13.478,0,0,0-1.479-3.553l1.794-3.533a.827.827,0,0,0-.151-.958L776.15,15.88a.822.822,0,0,0-.955-.152l-1.39.705-2.146,1.086a13.5,13.5,0,0,0-3.551-1.476l-1.23-3.758a.825.825,0,0,0-.784-.57h-2.669a.659.659,0,0,0-.113.01.817.817,0,0,0-.67.56l-1.229,3.759a13.522,13.522,0,0,0-3.553,1.476l-1.464-.741-2.069-1.051a.829.829,0,0,0-.958.152l-.552.551-1.334,1.336a.818.818,0,0,0-.152.955l1.793,3.535a13.4,13.4,0,0,0-1.476,3.553l-3.76,1.229a.824.824,0,0,0-.57.784v2.669a.819.819,0,0,0,.569.782l3.759,1.231a13.456,13.456,0,0,0,1.478,3.551l-1.793,3.534a.82.82,0,0,0,.152.957l1.334,1.334.552.553a.823.823,0,0,0,.956.152l2.071-1.051,1.464-.741a13.488,13.488,0,0,0,3.553,1.476l1.228,3.759a.819.819,0,0,0,.669.56.684.684,0,0,0,.115.01H766.1a.821.821,0,0,0,.783-.567l1.231-3.761a13.5,13.5,0,0,0,3.551-1.476l2.146,1.089,1.387.7a.826.826,0,0,0,.958-.152l1.888-1.887a.823.823,0,0,0,.151-.955L776.4,36.055a13.467,13.467,0,0,0,1.479-3.551l3.758-1.23a.824.824,0,0,0,.571-.784V27.821a.819.819,0,0,0-.569-.782M764.76,36.876a7.719,7.719,0,1,1,7.722-7.722,7.728,7.728,0,0,1-7.722,7.722" transform="translate(-619.557 -9.712)" fill="#5a8441"/>
        <path id="Path_1271829" data-name="Path 1271829" d="M771.3,18l-3.759-1.23a13.466,13.466,0,0,0-1.479-3.553l1.794-3.533a.827.827,0,0,0-.151-.958l-1.889-1.886a.821.821,0,0,0-.955-.152l-1.39.705-2.146,1.086a13.5,13.5,0,0,0-3.551-1.476l-1.23-3.758a.824.824,0,0,0-.784-.57H753.09a.66.66,0,0,0-.113.01.817.817,0,0,0-.67.56l-1.229,3.759a13.522,13.522,0,0,0-3.553,1.476l-1.464-.741-2.069-1.051a.829.829,0,0,0-.958.152l-.552.551-1.334,1.336a.818.818,0,0,0-.152.955l1.793,3.535a13.394,13.394,0,0,0-1.476,3.553L737.553,18a.824.824,0,0,0-.57.784v2.669a.819.819,0,0,0,.569.782l3.759,1.231a13.457,13.457,0,0,0,1.478,3.551L741,30.552a.82.82,0,0,0,.152.957l1.334,1.334.552.553a.822.822,0,0,0,.956.152l2.071-1.05,1.464-.741a13.476,13.476,0,0,0,3.553,1.476l1.228,3.759a.819.819,0,0,0,.669.56.7.7,0,0,0,.115.01h2.669a.822.822,0,0,0,.783-.567l1.231-3.761a13.48,13.48,0,0,0,3.551-1.476l2.146,1.089,1.387.7a.825.825,0,0,0,.958-.152l1.889-1.887a.823.823,0,0,0,.151-.955l-1.794-3.536a13.455,13.455,0,0,0,1.479-3.551l3.758-1.23a.824.824,0,0,0,.571-.784V18.785A.819.819,0,0,0,771.3,18M754.424,27.84a7.719,7.719,0,1,1,7.722-7.722,7.728,7.728,0,0,1-7.722,7.722" transform="translate(-610.988 -2.221)" fill="#fff"/>
        <path id="Trazado_1271830" data-name="Trazado 1271830" d="M750.87,0h2.669a1.281,1.281,0,0,1,1.219.886l1.153,3.521a14,14,0,0,1,1.944.7,13.749,13.749,0,0,1,1.264.639l3.313-1.679a1.284,1.284,0,0,1,.58-.139h0a1.273,1.273,0,0,1,.906.376l1.888,1.886a1.285,1.285,0,0,1,.236,1.488l-1.682,3.312a13.927,13.927,0,0,1,1.336,3.21l3.523,1.153a1.275,1.275,0,0,1,.885,1.217v2.669a1.281,1.281,0,0,1-.886,1.219L765.7,21.605a13.921,13.921,0,0,1-1.336,3.208l1.681,3.313a1.279,1.279,0,0,1-.235,1.486L763.917,31.5a1.27,1.27,0,0,1-.906.375,1.3,1.3,0,0,1-.582-.139l-3.312-1.68a13.791,13.791,0,0,1-1.264.639,13.986,13.986,0,0,1-1.944.695l-1.154,3.525a1.279,1.279,0,0,1-1.218.883h-2.707l-.152-.016a1.263,1.263,0,0,1-1.03-.869L748.5,31.392a13.936,13.936,0,0,1-3.21-1.334l-3.313,1.679a1.3,1.3,0,0,1-.581.139,1.272,1.272,0,0,1-.905-.376L738.6,29.613a1.277,1.277,0,0,1-.237-1.488l1.68-3.311a13.921,13.921,0,0,1-1.336-3.208l-3.523-1.154a1.275,1.275,0,0,1-.885-1.217V16.565a1.281,1.281,0,0,1,.886-1.219l3.523-1.151a13.853,13.853,0,0,1,1.334-3.21l-1.68-3.312a1.273,1.273,0,0,1,.238-1.487L740.491,4.3a1.277,1.277,0,0,1,.907-.375,1.3,1.3,0,0,1,.579.137l3.313,1.681a13.984,13.984,0,0,1,3.21-1.334L749.651.885A1.27,1.27,0,0,1,750.7.014l.029,0Zm8.216,6.785-.216-.129a13.042,13.042,0,0,0-3.43-1.426l-.244-.062-1.308-4a.367.367,0,0,0-.349-.255H750.87V.458l-.036.461a.368.368,0,0,0-.312.252l-1.307,4-.244.062a13.074,13.074,0,0,0-3.433,1.427l-.216.128-3.757-1.906a.38.38,0,0,0-.428.068l-1.885,1.886a.361.361,0,0,0-.068.423l1.907,3.761-.129.217a12.94,12.94,0,0,0-1.426,3.431l-.062.244-4,1.307a.367.367,0,0,0-.255.348v2.669a.363.363,0,0,0,.252.346l4,1.31.062.243a13,13,0,0,0,1.428,3.43l.129.217-1.907,3.759a.364.364,0,0,0,.066.425l1.888,1.889a.369.369,0,0,0,.425.067l3.759-1.905.216.128a13.023,13.023,0,0,0,3.432,1.426l.244.062,1.306,4a.36.36,0,0,0,.295.248l2.723.005a.365.365,0,0,0,.348-.252l1.309-4,.244-.062a13.027,13.027,0,0,0,3.43-1.426l.217-.129,3.757,1.906a.373.373,0,0,0,.426-.066l1.889-1.888a.365.365,0,0,0,.066-.424l-1.908-3.76.129-.217a13.005,13.005,0,0,0,1.428-3.43l.062-.243,4-1.308a.367.367,0,0,0,.255-.349V16.564a.363.363,0,0,0-.252-.346l-4-1.309-.062-.243a13.015,13.015,0,0,0-1.428-3.432l-.129-.217,1.908-3.758a.37.37,0,0,0-.067-.427L763.27,4.947a.364.364,0,0,0-.259-.108l-1.556.746ZM752.2,9.723a8.177,8.177,0,1,1-8.178,8.174A8.186,8.186,0,0,1,752.2,9.723Zm0,15.438a7.261,7.261,0,1,0-7.263-7.264A7.272,7.272,0,0,0,752.2,25.161Z" transform="translate(-608.768 0)"/>
        <path id="Path_1271831" data-name="Path 1271831" d="M2087.78,666.529l-3.935-4.449-1.886,5.632Z" transform="translate(-1726.028 -548.891)" fill="#ffc94a"/>
        <path id="Path_1271832" data-name="Path 1271832" d="M232.951,1046.943l-.211,11.138,9.751-5.386Z" transform="translate(-192.951 -867.957)" fill="#5a8441"/>
        <path id="Path_1271833" data-name="Path 1271833" d="M2148.961,1092.657a1,1,0,0,1-1-1.005c0-2.7,1.513-4.049,2.848-5.243,1.216-1.088,2.177-1.947,2.177-3.745s-.961-2.656-2.178-3.745c-1.335-1.194-2.847-2.546-2.847-5.243s1.513-4.049,2.848-5.243c1.216-1.088,2.177-1.947,2.177-3.744s-.961-2.656-2.177-3.744c-1.335-1.193-2.848-2.546-2.848-5.242a1,1,0,1,1,2.01,0c0,1.8.961,2.656,2.177,3.744,1.336,1.194,2.848,2.546,2.848,5.243s-1.513,4.049-2.848,5.243c-1.216,1.088-2.177,1.947-2.177,3.744s.961,2.657,2.177,3.745c1.336,1.194,2.848,2.547,2.848,5.243s-1.513,4.05-2.848,5.243c-1.216,1.088-2.177,1.947-2.177,3.744a1,1,0,0,1-1.005,1.005" transform="translate(-1780.742 -874.388)" fill="#3e5b2c"/>
        <path id="Path_1271834" data-name="Path 1271834" d="M1225.958,438.865l-8.718,2.971,6.932,6.064Z" transform="translate(-1009.14 -363.837)"/>
        <path id="Path_1271835" data-name="Path 1271835" d="M1322.938,310.486c-2.7,0-4.049-1.513-5.242-2.848-1.088-1.217-1.947-2.178-3.744-2.178s-2.656.961-3.744,2.178c-1.193,1.335-2.546,2.848-5.242,2.848s-4.05-1.513-5.243-2.848c-1.088-1.217-1.947-2.178-3.745-2.178s-2.656.961-3.745,2.178c-1.194,1.335-2.547,2.848-5.243,2.848a1.005,1.005,0,1,1,0-2.01c1.8,0,2.657-.961,3.745-2.178,1.193-1.335,2.547-2.848,5.243-2.848s4.049,1.513,5.243,2.848c1.088,1.217,1.947,2.178,3.745,2.178s2.656-.961,3.744-2.178c1.193-1.335,2.546-2.848,5.242-2.848s4.049,1.513,5.243,2.848c1.088,1.217,1.947,2.178,3.744,2.178a1.005,1.005,0,1,1,0,2.01" transform="translate(-1066.132 -251.572)"/>
        <rect id="Rectangle_412268" data-name="Rectangle 412268" width="71.538" height="18.04" transform="translate(300.956 140.928)" fill="#5a8441"/>
        <rect id="Rectangle_412269" data-name="Rectangle 412269" width="71.538" height="18.04" transform="translate(299.194 138.781)" fill="#ffc94a"/>
        <path id="Rectángulo_412270" data-name="Rectángulo 412270" d="M-2.679-2.679H69.776V16.277H-2.679Zm71.538.916H-1.763V15.361H68.86Z" transform="translate(301.414 141.002)"/>
        <path id="Path_1271839" data-name="Path 1271839" d="M1778.8,839.9l1.334,4.1-3.474-2.536-3.47,2.536,1.333-4.1-3.474-2.536h4.3l1.314-4.038,1.314,4.038h4.289Z" transform="translate(-1468.267 -690.868)" fill="#fff"/>
        <path id="Path_1271840" data-name="Path 1271840" d="M1856.524,839.9l1.333,4.1-3.474-2.536-3.47,2.536,1.333-4.1-3.474-2.536h4.3l1.314-4.038,1.313,4.038h4.289Z" transform="translate(-1532.707 -690.868)" fill="#fff"/>
        <path id="Path_1271841" data-name="Path 1271841" d="M1934.253,839.9l1.333,4.1-3.474-2.536-3.47,2.536,1.333-4.1-3.474-2.536h4.3l1.314-4.038,1.314,4.038h4.289Z" transform="translate(-1597.147 -690.868)" fill="#fff"/>
        <path id="Path_1271842" data-name="Path 1271842" d="M2011.982,839.9l1.333,4.1-3.474-2.536L2006.373,844l1.333-4.1-3.474-2.536h4.3l1.314-4.038,1.314,4.038h4.289Z" transform="translate(-1661.588 -690.868)" fill="#fff"/>
        <path id="Path_1271843" data-name="Path 1271843" d="M2089.711,839.9l1.333,4.1-3.473-2.536L2084.1,844l1.333-4.1-3.474-2.536h4.3l1.314-4.038,1.313,4.038h4.289Z" transform="translate(-1726.028 -690.868)" fill="#fff"/>
        <rect id="Rectangle_412271" data-name="Rectangle 412271" width="71.538" height="18.04" transform="translate(185.477 210.768)" fill="#ffc94a"/>
        <rect id="Rectangle_412272" data-name="Rectangle 412272" width="71.538" height="18.04" transform="translate(183.714 208.622)" fill="#fff"/>
        <path id="Rectángulo_412273" data-name="Rectángulo 412273" d="M-2.679-2.679H69.776V16.277H-2.679Zm71.538.916H-1.763V15.361H68.86Z" transform="translate(185.935 210.842)"/>
        <path id="Path_1271844" data-name="Path 1271844" d="M1103.32,1248.424l1.333,4.1-3.473-2.536-3.47,2.536,1.333-4.1-3.474-2.536h4.3l1.314-4.038,1.313,4.038h4.289Z" transform="translate(-908.271 -1029.547)" fill="#ffc94a"/>
        <path id="Path_1271845" data-name="Path 1271845" d="M1181.049,1248.424l1.333,4.1-3.474-2.536-3.469,2.536,1.333-4.1-3.474-2.536h4.3l1.314-4.038,1.313,4.038h4.289Z" transform="translate(-972.711 -1029.547)" fill="#ffc94a"/>
        <path id="Path_1271846" data-name="Path 1271846" d="M1258.778,1248.424l1.333,4.1-3.473-2.536-3.47,2.536,1.333-4.1-3.474-2.536h4.3l1.314-4.038,1.313,4.038h4.289Z" transform="translate(-1037.151 -1029.547)" fill="#ffc94a"/>
        <path id="Path_1271847" data-name="Path 1271847" d="M1336.507,1248.424l1.334,4.1-3.473-2.536-3.47,2.536,1.333-4.1-3.474-2.536h4.3l1.314-4.038,1.313,4.038h4.289Z" transform="translate(-1101.592 -1029.547)" fill="#ffc94a"/>
        <path id="Path_1271848" data-name="Path 1271848" d="M1414.236,1248.424l1.333,4.1-3.474-2.536-3.47,2.536,1.333-4.1-3.474-2.536h4.3l1.314-4.038,1.313,4.038h4.289Z" transform="translate(-1166.032 -1029.547)" fill="#ffc94a"/>
        <rect id="Rectangle_412274" data-name="Rectangle 412274" width="5.826" height="12.893" transform="translate(36.334 211.566)" fill="#ffc94a"/>
        <rect id="Rectangle_412275" data-name="Rectangle 412275" width="5.826" height="26.978" transform="translate(48.148 197.481)" fill="#ffc94a"/>
        <rect id="Rectangle_412276" data-name="Rectangle 412276" width="5.826" height="18.074" transform="translate(59.962 206.385)" fill="#ffc94a"/>
        <rect id="Rectangle_412277" data-name="Rectangle 412277" width="5.826" height="37.179" transform="translate(71.776 187.28)" fill="#ffc94a"/>
        <rect id="Rectangle_412278" data-name="Rectangle 412278" width="5.826" height="42.522" transform="translate(83.59 181.937)" fill="#ffc94a"/>
        <rect id="Rectangle_412279" data-name="Rectangle 412279" width="5.826" height="52.602" transform="translate(95.404 171.857)" fill="#ffc94a"/>
        <path id="Rectángulo_412280" data-name="Rectángulo 412280" d="M-2.678-2.679H4.063V11.13H-2.678Zm5.826.916h-4.91V10.214h4.91Z" transform="translate(37.328 212.714)"/>
        <path id="Rectángulo_412281" data-name="Rectángulo 412281" d="M-2.678-2.678H4.063V25.215H-2.678Zm5.826.916h-4.91V24.3h4.91Z" transform="translate(49.142 198.629)"/>
        <path id="Rectángulo_412282" data-name="Rectángulo 412282" d="M-2.678-2.679H4.063v18.99H-2.678Zm5.826.916h-4.91V15.4h4.91Z" transform="translate(60.956 207.533)"/>
        <path id="Rectángulo_412283" data-name="Rectángulo 412283" d="M-2.678-2.678H4.063V35.416H-2.678Zm5.826.916h-4.91V34.5h4.91Z" transform="translate(72.77 188.428)"/>
        <path id="Rectángulo_412284" data-name="Rectángulo 412284" d="M-2.678-2.678H4.063V40.76H-2.678Zm5.826.916h-4.91V39.844h4.91Z" transform="translate(84.584 183.084)"/>
        <path id="Rectángulo_412285" data-name="Rectángulo 412285" d="M-2.678-2.678H4.063V50.839H-2.678Zm5.826.916h-4.91V49.923h4.91Z" transform="translate(96.398 173.005)"/>
      </g>
    </g>
  </g>
</svg>
