<svg xmlns="http://www.w3.org/2000/svg" width="129.063" height="62.579" viewBox="0 0 129.063 62.579">
  <g id="Group_1207333" data-name="Group 1207333" transform="translate(-407.051 -4631.759)">
    <g id="Group_1206750" data-name="Group 1206750" transform="translate(0.051 -835.956)">
      <g id="Group_1205225" data-name="Group 1205225" transform="translate(-380.781 2903.871)">
        <g id="Rectangle_410589" data-name="Rectangle 410589" transform="translate(787.781 2575.623)" fill="#ffc94a" stroke="#dfab32" stroke-width="1">
          <rect width="129.063" height="43.021" rx="8" stroke="none"/>
          <rect x="0.5" y="0.5" width="128.063" height="42.021" rx="7.5" fill="none"/>
        </g>
      </g>
    </g>
    <g id="ejecutivo" transform="translate(439.161 4631.338)">
      <path id="Path_1271849" data-name="Path 1271849" d="M32,34V59a3,3,0,0,1-6,0V34Z" fill="#838f9b"/>
      <path id="Path_1271850" data-name="Path 1271850" d="M38,38V59a3,3,0,0,1-6,0V34h6Z" fill="#838f9b"/>
      <path id="Path_1271851" data-name="Path 1271851" d="M38,34H26v4H24a3,3,0,0,1-3-3V27a10.988,10.988,0,0,1,9.99-10.95L30,25l2,2,2-2-.99-8.95A10.986,10.986,0,0,1,43,27v8a3,3,0,0,1-3,3H38Z" fill="#b4dd7f"/>
      <path id="Path_1271852" data-name="Path 1271852" d="M33.01,16.05,34,25l-2,2-2-2,.99-8.95c.34-.03.67-.05,1.01-.05S32.67,16.02,33.01,16.05Z" fill="#fcd770"/>
      <circle id="Ellipse_13021" data-name="Ellipse 13021" cx="7" cy="7" r="7" transform="translate(25 2)" fill="#f0d0b4"/>
      <path id="Path_1271853" data-name="Path 1271853" d="M12,2l9,11H16V42.84a9.944,9.944,0,0,0-8,0V13H3Z" fill="#ff826e"/>
      <path id="Path_1271854" data-name="Path 1271854" d="M52,2l9,11H56V42.84a9.944,9.944,0,0,0-8,0V13H43Z" fill="#ff826e"/>
      <path id="Path_1271855" data-name="Path 1271855" d="M16,42.84a10,10,0,1,1-8,0,9.944,9.944,0,0,1,8,0Z" fill="#fcd770"/>
      <path id="Path_1271856" data-name="Path 1271856" d="M48,42.84a9.944,9.944,0,0,1,8,0,10,10,0,1,1-8,0Z" fill="#fcd770"/>
      <path id="Path_1271857" data-name="Path 1271857" d="M44,35V27a12.01,12.01,0,0,0-7.777-11.218,8,8,0,1,0-8.446,0A12.01,12.01,0,0,0,20,27v8a4,4,0,0,0,4,4h1V59a3.983,3.983,0,0,0,7,2.618A3.983,3.983,0,0,0,39,59V39h1A4,4,0,0,0,44,35ZM32.953,24.633,32,25.586l-.953-.953.847-7.627c.036,0,.07-.006.106-.006s.07,0,.106,0ZM26,9a6,6,0,1,1,6,6A6.006,6.006,0,0,1,26,9Zm3,52a2,2,0,0,1-2-2V35h4V59A2,2,0,0,1,29,61Zm6,0a2,2,0,0,1-2-2V35h4V59A2,2,0,0,1,35,61Zm2-38V33H27V23H25V37H24a2,2,0,0,1-2-2V27a10.014,10.014,0,0,1,7.857-9.763l-.9,8.13L32,28.414l3.047-3.047-.9-8.13A10.014,10.014,0,0,1,42,27v8a2,2,0,0,1-2,2H39V23Z"/>
      <path id="Path_1271858" data-name="Path 1271858" d="M17,42.214V29H15V41.426a10.776,10.776,0,0,0-6,0V12H5.11L12,3.579,18.89,12H15V23h2V14h6.11L12,.421.89,14H7V42.214a11,11,0,1,0,10,0ZM12,61a9,9,0,1,1,9-9A9.01,9.01,0,0,1,12,61Z"/>
      <path id="Path_1271859" data-name="Path 1271859" d="M12,49a1,1,0,0,1,1,1h2a3,3,0,0,0-2-2.816V45H11v2H9v3a3,3,0,0,0,3,3,1,1,0,0,1,1,1v1H12a1,1,0,0,1-1-1H9a3,3,0,0,0,2,2.816V59h2V57h2V54a3,3,0,0,0-3-3,1,1,0,0,1-1-1V49Z"/>
      <path id="Path_1271860" data-name="Path 1271860" d="M17,51h2v2H17Z"/>
      <path id="Path_1271861" data-name="Path 1271861" d="M5,51H7v2H5Z"/>
      <path id="Path_1271862" data-name="Path 1271862" d="M57,42.214V14h6.11L52,.421,40.89,14H47V33h2V12H45.11L52,3.579,58.89,12H55V41.426a10.776,10.776,0,0,0-6,0V39H47v3.214a11,11,0,1,0,10,0ZM52,61a9,9,0,1,1,9-9A9.01,9.01,0,0,1,52,61Z"/>
      <path id="Path_1271863" data-name="Path 1271863" d="M52,49a1,1,0,0,1,1,1h2a3,3,0,0,0-2-2.816V45H51v2H49v3a3,3,0,0,0,3,3,1,1,0,0,1,1,1v1H52a1,1,0,0,1-1-1H49a3,3,0,0,0,2,2.816V59h2V57h2V54a3,3,0,0,0-3-3,1,1,0,0,1-1-1V49Z"/>
      <path id="Path_1271864" data-name="Path 1271864" d="M57,51h2v2H57Z"/>
      <path id="Path_1271865" data-name="Path 1271865" d="M45,51h2v2H45Z"/>
      <path id="Path_1271866" data-name="Path 1271866" d="M15,25h2v2H15Z"/>
      <path id="Path_1271867" data-name="Path 1271867" d="M47,35h2v2H47Z"/>
    </g>
  </g>
</svg>
