<svg xmlns="http://www.w3.org/2000/svg" xmlns:xlink="http://www.w3.org/1999/xlink" width="111.776" height="111.776" viewBox="0 0 111.776 111.776">
  <defs>
    <filter id="Path_874925" x="0" y="0" width="111.776" height="111.776" filterUnits="userSpaceOnUse">
      <feOffset dy="3" input="SourceAlpha"/>
      <feGaussianBlur stdDeviation="3" result="blur"/>
      <feFlood flood-opacity="0.161"/>
      <feComposite operator="in" in2="blur"/>
      <feComposite in="SourceGraphic"/>
    </filter>
    <clipPath id="clip-path">
      <path id="path9171" d="M0-682.665H59.292v59.292H0Z" transform="translate(0 682.665)"/>
    </clipPath>
  </defs>
  <g id="Group_1207351" data-name="Group 1207351" transform="translate(-588.051 -5287)">
    <g id="Group_1206758" data-name="Group 1206758" transform="translate(-207.949 3467.117)">
      <g id="Group_1204844" data-name="Group 1204844" transform="translate(520 -4424.991)">
        <g id="Group_1200232" data-name="Group 1200232" transform="translate(285 6250.874)">
          <g id="Group_1187153" data-name="Group 1187153">
            <g id="Group_1182177" data-name="Group 1182177">
              <g id="Group_1181903" data-name="Group 1181903">
                <g id="Group_1181438" data-name="Group 1181438">
                  <g id="Group_1111314" data-name="Group 1111314">
                    <g transform="matrix(1, 0, 0, 1, -9, -6)" filter="url(#Path_874925)">
                      <g id="Path_874925-2" data-name="Path 874925" transform="translate(9 6)" fill="#ffc94a">
                        <path d="M 46.88790893554688 92.2763671875 C 40.75992202758789 92.2763671875 34.8160285949707 91.07652282714844 29.22134971618652 88.71018218994141 C 23.81676292419434 86.42423248291016 18.96264266967773 83.15139007568359 14.79381561279297 78.98255157470703 C 10.62497520446777 74.81372833251953 7.35213565826416 69.95960998535156 5.066188812255859 64.55502319335938 C 2.699842214584351 58.9603385925293 1.500002264976501 53.01644515991211 1.500002264976501 46.88844680786133 C 1.500002264976501 40.75992584228516 2.699842214584351 34.81603240966797 5.066188812255859 29.22135353088379 C 7.35213565826416 23.8167667388916 10.62497520446777 18.962646484375 14.79381561279297 14.79381942749023 C 18.96264266967773 10.62497997283936 23.81676292419434 7.352139949798584 29.22134971618652 5.066193103790283 C 34.8160285949707 2.699846506118774 40.75992202758789 1.500006437301636 46.88790893554688 1.500006437301636 C 53.01589584350586 1.500006437301636 58.95978927612305 2.699846506118774 64.55446624755859 5.066193103790283 C 69.95905303955078 7.352139949798584 74.81317901611328 10.62497997283936 78.98200225830078 14.79381942749023 C 83.15084075927734 18.962646484375 86.42368316650391 23.8167667388916 88.70962524414062 29.22135353088379 C 91.07597351074219 34.81603240966797 92.27581787109375 40.75992584228516 92.27581787109375 46.88791275024414 C 92.27581787109375 53.01644515991211 91.07597351074219 58.9603385925293 88.70962524414062 64.55502319335938 C 86.42368316650391 69.95960998535156 83.15084075927734 74.81372833251953 78.98200225830078 78.98255157470703 C 74.81317901611328 83.15139007568359 69.95905303955078 86.42423248291016 64.55446624755859 88.71018218994141 C 58.95978927612305 91.07652282714844 53.01589584350586 92.2763671875 46.88790893554688 92.2763671875 Z" stroke="none"/>
                        <path d="M 46.88790893554688 2.999992370605469 C 40.96175003051758 2.999992370605469 35.2144660949707 4.159965515136719 29.80567932128906 6.44769287109375 C 24.57989501953125 8.658004760742188 19.88602447509766 11.82290649414062 15.85446929931641 15.85446929931641 C 11.82290649414062 19.88602447509766 8.658012390136719 24.57989501953125 6.44769287109375 29.80567932128906 C 4.159965515136719 35.2144660949707 2.999992370605469 40.96175003051758 2.999992370605469 46.88845062255859 C 2.999992370605469 52.81460952758789 4.159965515136719 58.56189346313477 6.44769287109375 63.97069549560547 C 8.658012390136719 69.19646453857422 11.82290649414062 73.89033508300781 15.85446929931641 77.92189025878906 C 19.88602447509766 81.95343780517578 24.57989501953125 85.11833953857422 29.80567932128906 87.32865142822266 C 35.2144660949707 89.61637878417969 40.96175003051758 90.77635192871094 46.88790893554688 90.77635192871094 C 52.81406784057617 90.77635192871094 58.56135177612305 89.61637878417969 63.97013854980469 87.32865142822266 C 69.1959228515625 85.11833953857422 73.88979339599609 81.95343780517578 77.92134857177734 77.92189025878906 C 81.95291137695312 73.89033508300781 85.11781311035156 69.19646453857422 87.328125 63.97069549560547 C 89.61585235595703 58.56189346313477 90.77582550048828 52.81460952758789 90.77582550048828 46.88790893554688 C 90.77582550048828 40.96175003051758 89.61585235595703 35.2144660949707 87.328125 29.80567932128906 C 85.11781311035156 24.57989501953125 81.95291137695312 19.88602447509766 77.92134857177734 15.85446929931641 C 73.88979339599609 11.82290649414062 69.1959228515625 8.658004760742188 63.97013854980469 6.44769287109375 C 58.56135177612305 4.159965515136719 52.81406784057617 2.999992370605469 46.88790893554688 2.999992370605469 M 46.88790893554688 -7.62939453125e-06 C 72.78337860107422 -7.62939453125e-06 93.77582550048828 20.99243927001953 93.77582550048828 46.88790893554688 L 93.77582550048828 46.88845062255859 C 93.77582550048828 72.783935546875 72.78337860107422 93.77635192871094 46.88790893554688 93.77635192871094 C 20.99243927001953 93.77635192871094 -7.62939453125e-06 72.783935546875 -7.62939453125e-06 46.88845062255859 L -7.62939453125e-06 46.88790893554688 C -7.62939453125e-06 20.99243927001953 20.99243927001953 -7.62939453125e-06 46.88790893554688 -7.62939453125e-06 Z" stroke="none" fill="#fff"/>
                      </g>
                    </g>
                  </g>
                </g>
              </g>
            </g>
          </g>
        </g>
      </g>
    </g>
    <g id="g9165" transform="translate(614.051 5992.665)">
      <g id="g9167" transform="translate(0 -682.665)">
        <g id="g9169" transform="translate(0 0)" clip-path="url(#clip-path)">
          <g id="g9175" transform="translate(34.749 29.145)">
            <path id="path9177" d="M-248.906-271.328h-23.675v-18.2a7.61,7.61,0,0,1,7.61-7.61h8.454a7.61,7.61,0,0,1,7.61,7.61Z" transform="translate(272.581 297.135)" fill="#fcc16d"/>
          </g>
          <g id="g9179" transform="translate(46.791 29.145)">
            <path id="path9181" d="M-122.3-80.017v18.2h-4.022v-18.2a7.61,7.61,0,0,0-7.611-7.611h4.022a7.61,7.61,0,0,1,7.611,7.611" transform="translate(133.933 87.628)" fill="#fca62f"/>
          </g>
          <path id="path9183" d="M423.754-229.376H400.079v-7.235h23.675Z" transform="translate(-365.33 275.353)" fill="#596d76"/>
          <path id="path9185" d="M630.38-229.376h-4.022v-7.235h4.022Z" transform="translate(-571.957 275.353)" fill="#475a61"/>
          <g id="g9187" transform="translate(33.881 45.109)">
            <path id="path9189" d="M14.543-8.263H-9.131A.869.869,0,0,1-10-9.131.869.869,0,0,1-9.131-10H14.543a.869.869,0,0,1,.869.869A.869.869,0,0,1,14.543-8.263Z" transform="translate(10 10)"/>
          </g>
          <g id="g9191" transform="translate(33.881 37.873)">
            <path id="path9193" d="M-258.037-8.263h-23.675a.869.869,0,0,1-.869-.869.869.869,0,0,1,.869-.869h23.675a.869.869,0,0,1,.869.869A.869.869,0,0,1-258.037-8.263Z" transform="translate(282.581 10)"/>
          </g>
          <g id="g9195" transform="translate(37.7 28.276)">
            <path id="path9197" d="M10.723,5.915a.869.869,0,0,1-.869-.869v-18.2a6.749,6.749,0,0,0-6.742-6.742H-5.342A6.738,6.738,0,0,0-8.7-19a.869.869,0,0,1-1.186-.319A.869.869,0,0,1-9.566-20.5a8.478,8.478,0,0,1,4.224-1.126H3.112a8.489,8.489,0,0,1,8.479,8.479v18.2A.869.869,0,0,1,10.723,5.915Z" transform="translate(10.002 21.629)"/>
          </g>
          <g id="g9199" transform="translate(44.176 27.565)">
            <path id="path9201" d="M-25.094-67.735h0a2.387,2.387,0,0,1-2.387-2.387v-4.056h4.774v4.056a2.387,2.387,0,0,1-2.387,2.387" transform="translate(27.481 74.177)" fill="#a34f41"/>
          </g>
          <g id="g9203" transform="translate(43.307 26.697)">
            <path id="path9205" d="M-34.226-76a3.259,3.259,0,0,1-3.255-3.255v-4.056a.869.869,0,0,1,.869-.869h4.774a.869.869,0,0,1,.869.869v4.056A3.259,3.259,0,0,1-34.226-76Zm-1.518-6.443v3.187a1.52,1.52,0,0,0,1.518,1.518,1.52,1.52,0,0,0,1.518-1.518V-82.44Z" transform="translate(37.481 84.177)"/>
          </g>
          <g id="g9207" transform="translate(51.978 18.156)">
            <path id="path9209" d="M-48.538-24.269a2.308,2.308,0,0,1-2.308,2.308,2.308,2.308,0,0,1-2.308-2.308,2.308,2.308,0,0,1,2.308-2.308,2.308,2.308,0,0,1,2.308,2.308" transform="translate(53.155 26.577)" fill="#a34f41"/>
          </g>
          <g id="g9211" transform="translate(51.11 17.287)">
            <path id="path9213" d="M-59.978-36.577A3.18,3.18,0,0,1-56.8-33.4a3.181,3.181,0,0,1-3.177,3.177A3.181,3.181,0,0,1-63.155-33.4,3.18,3.18,0,0,1-59.978-36.577Zm0,4.617a1.442,1.442,0,0,0,1.44-1.44,1.441,1.441,0,0,0-1.44-1.44,1.441,1.441,0,0,0-1.44,1.44A1.442,1.442,0,0,0-59.978-31.96Z" transform="translate(63.155 36.577)"/>
          </g>
          <g id="g9215" transform="translate(39.448 11.311)">
            <path id="path9217" d="M-74.8-195.738h0a7.115,7.115,0,0,1-7.115-7.115v-4.388a7.115,7.115,0,0,1,7.115-7.115,7.115,7.115,0,0,1,7.115,7.115v4.388a7.115,7.115,0,0,1-7.115,7.115" transform="translate(81.918 214.355)" fill="#c86f5c"/>
          </g>
          <g id="g9219" transform="translate(38.579 10.442)">
            <path id="path9221" d="M-121.064,1.449a7.993,7.993,0,0,1-7.984-7.984v-4.388a7.993,7.993,0,0,1,7.984-7.984,7.9,7.9,0,0,1,3.619.868.869.869,0,0,1,.379,1.168.869.869,0,0,1-1.168.379,6.175,6.175,0,0,0-2.83-.679,6.254,6.254,0,0,0-6.246,6.246v4.388a6.254,6.254,0,0,0,6.246,6.247,6.254,6.254,0,0,0,6.246-6.247v-4.388a6.229,6.229,0,0,0-.941-3.3.869.869,0,0,1,.278-1.2.869.869,0,0,1,1.2.278,7.964,7.964,0,0,1,1.2,4.215v4.388A7.993,7.993,0,0,1-121.064,1.449Z" transform="translate(129.048 18.905)"/>
          </g>
          <g id="g9223" transform="translate(42.465 19.921)">
            <path id="path9225" d="M-9.131-7.858A.869.869,0,0,1-10-8.727v-.4A.869.869,0,0,1-9.131-10a.869.869,0,0,1,.869.869v.4A.869.869,0,0,1-9.131-7.858Z" transform="translate(10 10)"/>
          </g>
          <g id="g9227" transform="translate(48.924 19.921)">
            <path id="path9229" d="M-9.131-7.858A.869.869,0,0,1-10-8.727v-.4A.869.869,0,0,1-9.131-10a.869.869,0,0,1,.869.869v.4A.869.869,0,0,1-9.131-7.858Z" transform="translate(10 10)"/>
          </g>
          <g id="g9231" transform="translate(43.508 23.757)">
            <path id="path9233" d="M-6.945-7.306A3.858,3.858,0,0,1-9.769-8.542a.869.869,0,0,1,.048-1.227.869.869,0,0,1,1.227.048,2.088,2.088,0,0,0,1.549.678A2.088,2.088,0,0,0-5.4-9.721a.869.869,0,0,1,1.227-.048.869.869,0,0,1,.048,1.227A3.858,3.858,0,0,1-6.945-7.306Z" transform="translate(10 10)"/>
          </g>
          <g id="g9235" transform="translate(0.868 29.145)">
            <path id="path9237" d="M-248.906-271.328h-23.675v-18.2a7.61,7.61,0,0,1,7.61-7.61h8.454a7.61,7.61,0,0,1,7.61,7.61Z" transform="translate(272.581 297.135)" fill="#24d1f8"/>
          </g>
          <g id="g9239" transform="translate(6.187 37.716)">
            <path id="path9241" d="M-73.026-10.9l-.451.451-.451-.451a3.541,3.541,0,0,0-5.007,0,3.54,3.54,0,0,0,0,5.007l4.825,4.825a.9.9,0,0,0,1.266,0L-68.019-5.9a3.541,3.541,0,0,0,0-5.007,3.54,3.54,0,0,0-5.007,0" transform="translate(79.972 11.94)" fill="#fb4a59"/>
          </g>
          <g id="g9243" transform="translate(10.495 37.716)">
            <path id="path9245" d="M-80.385-63.54l-4.825,4.825a.9.9,0,0,1-1.266,0L-88.03-60.27a.727.727,0,0,0,1.029,0l4.243-4.243a2.879,2.879,0,0,0,0-4.073,2.856,2.856,0,0,0-1.387-.77,3.568,3.568,0,0,1,1.258-.229,3.531,3.531,0,0,1,2.5,1.037,3.542,3.542,0,0,1,0,5.007" transform="translate(88.03 69.584)" fill="#f82f41"/>
          </g>
          <g id="g9247" transform="translate(5.319 36.847)">
            <path id="path9249" d="M-79.654-21.94a4.38,4.38,0,0,1,3.118,1.291,4.38,4.38,0,0,1,1.291,3.118,4.38,4.38,0,0,1-1.291,3.118l-4.825,4.825a1.752,1.752,0,0,1-1.247.517,1.752,1.752,0,0,1-1.247-.517l-4.825-4.825a4.38,4.38,0,0,1-1.291-3.118,4.38,4.38,0,0,1,1.291-3.118,4.38,4.38,0,0,1,3.118-1.291A4.377,4.377,0,0,1-82.608-20.8,4.377,4.377,0,0,1-79.654-21.94Zm-2.973,11.123,4.863-4.825a2.654,2.654,0,0,0,.783-1.889,2.654,2.654,0,0,0-.783-1.889,2.655,2.655,0,0,0-1.889-.783,2.654,2.654,0,0,0-1.889.783l-.451.451a.869.869,0,0,1-1.228,0l-.451-.451a2.655,2.655,0,0,0-1.889-.783,2.654,2.654,0,0,0-1.889.783,2.654,2.654,0,0,0-.783,1.889,2.654,2.654,0,0,0,.783,1.889Z" transform="translate(89.972 21.94)"/>
          </g>
          <g id="g9251" transform="translate(0 28.276)">
            <path id="path9253" d="M-9.131-279.591a.869.869,0,0,1-.869-.869v-18.2a8.489,8.489,0,0,1,8.479-8.479H6.933a8.4,8.4,0,0,1,3.751.873.869.869,0,0,1,.394,1.163.869.869,0,0,1-1.163.394,6.673,6.673,0,0,0-2.982-.693H-1.521a6.749,6.749,0,0,0-6.742,6.742v18.2A.869.869,0,0,1-9.131-279.591Z" transform="translate(10 307.135)"/>
          </g>
          <g id="g9255" transform="translate(10.295 27.565)">
            <path id="path9257" d="M-25.094-67.735h0a2.387,2.387,0,0,1-2.387-2.387v-4.056h4.774v4.056a2.387,2.387,0,0,1-2.387,2.387" transform="translate(27.481 74.177)" fill="#fdb0a0"/>
          </g>
          <g id="g9259" transform="translate(9.427 26.697)">
            <path id="path9261" d="M-34.226-76a3.259,3.259,0,0,1-3.255-3.255v-4.056a.869.869,0,0,1,.869-.869h4.774a.869.869,0,0,1,.869.869v4.056A3.259,3.259,0,0,1-34.226-76Zm-1.518-6.443v3.187a1.52,1.52,0,0,0,1.518,1.518,1.52,1.52,0,0,0,1.518-1.518V-82.44Z" transform="translate(37.481 84.177)"/>
          </g>
          <g id="g9263" transform="translate(2.65 18.156)">
            <path id="path9265" d="M-48.538-24.269a2.308,2.308,0,0,1-2.308,2.308,2.308,2.308,0,0,1-2.308-2.308,2.308,2.308,0,0,1,2.308-2.308,2.308,2.308,0,0,1,2.308,2.308" transform="translate(53.155 26.577)" fill="#fdb0a0"/>
          </g>
          <g id="g9267" transform="translate(1.781 17.287)">
            <path id="path9269" d="M-59.978-36.577A3.18,3.18,0,0,1-56.8-33.4a3.181,3.181,0,0,1-3.177,3.177A3.181,3.181,0,0,1-63.155-33.4,3.18,3.18,0,0,1-59.978-36.577Zm0,4.617a1.442,1.442,0,0,0,1.44-1.44,1.441,1.441,0,0,0-1.44-1.44,1.441,1.441,0,0,0-1.44,1.44A1.442,1.442,0,0,0-59.978-31.96Z" transform="translate(63.155 36.577)"/>
          </g>
          <g id="g9271" transform="translate(5.567 14.206)">
            <path id="path9273" d="M-74.8-165.3h0a7.115,7.115,0,0,1-7.115-7.115v-3.707a4.9,4.9,0,0,1,4.9-4.9h4.428a4.9,4.9,0,0,1,4.9,4.9v3.707A7.115,7.115,0,0,1-74.8-165.3" transform="translate(81.918 181.022)" fill="#ffcec0"/>
          </g>
          <g id="g9275" transform="translate(4.699 13.338)">
            <path id="path9277" d="M-83.935-173.562a7.993,7.993,0,0,1-7.984-7.984v-3.707a5.776,5.776,0,0,1,5.77-5.77h4.428a5.776,5.776,0,0,1,5.77,5.77v3.707A7.993,7.993,0,0,1-83.935-173.562Zm-2.214-15.723a4.037,4.037,0,0,0-4.032,4.032v3.707a6.253,6.253,0,0,0,6.246,6.246,6.253,6.253,0,0,0,6.246-6.246v-3.707a4.037,4.037,0,0,0-4.032-4.032Z" transform="translate(91.918 191.022)"/>
          </g>
          <g id="g9279" transform="translate(3.957 7.022)">
            <path id="path9281" d="M-191.862-102.335h-12.181a4.879,4.879,0,0,0-4.422,2.818l-.036.078a1.609,1.609,0,0,1-1.609-1.609v-3.967a7.052,7.052,0,0,1,7.052-7.052h4.249a6.948,6.948,0,0,1,6.948,6.948Z" transform="translate(210.111 112.069)" fill="#ba5d4f"/>
          </g>
          <g id="g9283" transform="translate(10.827 7.023)">
            <path id="path9285" d="M-119.634-73.051v2.785h-4.617v-2.785A6.948,6.948,0,0,0-131.013-80l.182,0h4.249a6.948,6.948,0,0,1,6.948,6.948" transform="translate(131.013 80)" fill="#a34f41"/>
          </g>
          <g id="g9287" transform="translate(3.088 6.154)">
            <path id="path9289" d="M-142.984-107.7a2.481,2.481,0,0,1-2.478-2.478v-3.967a7.93,7.93,0,0,1,7.921-7.921h4.249a7.826,7.826,0,0,1,7.817,7.817v2.785a.869.869,0,0,1-.869.869h-6.484a.869.869,0,0,1-.869-.869.869.869,0,0,1,.869-.869h5.615v-1.917a6.087,6.087,0,0,0-6.08-6.08h-4.249a6.191,6.191,0,0,0-6.184,6.184v3.967a.74.74,0,0,0,.3.6,5.774,5.774,0,0,1,4.9-2.752h1.877a.869.869,0,0,1,.869.869.869.869,0,0,1-.869.869h-1.877a4.025,4.025,0,0,0-3.635,2.316A1,1,0,0,1-142.984-107.7Z" transform="translate(145.462 122.069)"/>
          </g>
          <g id="g9291" transform="translate(8.584 19.921)">
            <path id="path9293" d="M-9.131-7.858A.869.869,0,0,1-10-8.727v-.4A.869.869,0,0,1-9.131-10a.869.869,0,0,1,.869.869v.4A.869.869,0,0,1-9.131-7.858Z" transform="translate(10 10)"/>
          </g>
          <g id="g9295" transform="translate(15.043 19.921)">
            <path id="path9297" d="M-9.131-7.858A.869.869,0,0,1-10-8.727v-.4A.869.869,0,0,1-9.131-10a.869.869,0,0,1,.869.869v.4A.869.869,0,0,1-9.131-7.858Z" transform="translate(10 10)"/>
          </g>
          <g id="g9299" transform="translate(9.627 23.757)">
            <path id="path9301" d="M-6.945-7.306A3.858,3.858,0,0,1-9.769-8.542a.869.869,0,0,1,.048-1.227.869.869,0,0,1,1.227.048,2.088,2.088,0,0,0,1.549.678A2.088,2.088,0,0,0-5.4-9.721a.869.869,0,0,1,1.227-.048.869.869,0,0,1,.048,1.227A3.858,3.858,0,0,1-6.945-7.306Z" transform="translate(10 10)"/>
          </g>
          <g id="g9303" transform="translate(16.427 29.045)">
            <path id="path9305" d="M-277.958-272.378H-304.4v-17.409a8.5,8.5,0,0,1,8.5-8.5h9.441a8.5,8.5,0,0,1,8.5,8.5Z" transform="translate(304.397 298.286)" fill="#fb6572"/>
          </g>
          <g id="g9307" transform="translate(30.621 29.045)">
            <path id="path9309" d="M-128.729-89.354v17.408h-3.745V-89.354a8.5,8.5,0,0,0-8.5-8.5h3.745a8.5,8.5,0,0,1,8.5,8.5" transform="translate(140.973 97.853)" fill="#fb4a59"/>
          </g>
          <g id="g9311" transform="translate(41.997 51.048)">
            <path id="path9313" d="M-9.131-40.183A.869.869,0,0,1-10-41.051v-3.036a.869.869,0,0,1,.869-.869.869.869,0,0,1,.869.869v3.036A.869.869,0,0,1-9.131-40.183Z" transform="translate(10 44.956)"/>
          </g>
          <g id="g9315" transform="translate(15.559 28.176)">
            <path id="path9317" d="M-313.528-201.7a.869.869,0,0,1-.869-.869v-17.409a9.378,9.378,0,0,1,9.367-9.367h9.441a9.378,9.378,0,0,1,9.367,9.367v10.552a.869.869,0,0,1-.869.869.869.869,0,0,1-.869-.869v-10.552a7.639,7.639,0,0,0-7.63-7.63h-9.441a7.639,7.639,0,0,0-7.63,7.63v17.409A.869.869,0,0,1-313.528-201.7Z" transform="translate(314.397 229.343)"/>
          </g>
          <g id="g9319" transform="translate(26.954 27.281)">
            <path id="path9321" d="M-28.024-75.64h0a2.665,2.665,0,0,1-2.665-2.665v-4.529h5.331v4.529a2.665,2.665,0,0,1-2.665,2.665" transform="translate(30.689 82.834)" fill="#fdb0a0"/>
          </g>
          <g id="g9323" transform="translate(26.086 26.412)">
            <path id="path9325" d="M-37.155-83.9a3.538,3.538,0,0,1-3.534-3.534v-4.529a.869.869,0,0,1,.869-.869h5.331a.869.869,0,0,1,.869.869v4.529A3.538,3.538,0,0,1-37.155-83.9Zm-1.8-7.195v3.66a1.8,1.8,0,0,0,1.8,1.8,1.8,1.8,0,0,0,1.8-1.8V-91.1Z" transform="translate(40.689 92.834)"/>
          </g>
          <g id="g9327" transform="translate(29.38 5.341)">
            <path id="path9329" d="M-27.977-106.168h1.028a5.062,5.062,0,0,1,4.588,2.923l.038.081a1.67,1.67,0,0,0,1.67-1.67v-4.116c0-4.041-2.814-7.316-6.855-7.316h-1.413a1.716,1.716,0,0,0-1.716,1.716v5.721a2.661,2.661,0,0,0,2.661,2.661" transform="translate(30.639 116.266)" fill="#8d9da7"/>
          </g>
          <g id="g9331" transform="translate(30.727 5.341)">
            <path id="path9333" d="M-90.8-76.918V-72.8a1.665,1.665,0,0,1-.489,1.181,1.664,1.664,0,0,1-1.181.489l-.038-.08a5.026,5.026,0,0,0-.865-1.289,1.6,1.6,0,0,0,.028-.3v-4.115c0-3.781-2.465-6.892-6.092-7.276a1.729,1.729,0,0,1,.369-.04h1.413c4.041,0,6.854,3.276,6.854,7.316" transform="translate(99.433 84.234)" fill="#7a8d98"/>
          </g>
          <g id="g9335" transform="translate(31.641 4.472)">
            <path id="path9337" d="M-81.2-128.456a.869.869,0,0,1-.869-.869v-4.116c0-3.676-2.573-6.448-5.986-6.448a.869.869,0,0,1-.869-.869.869.869,0,0,1,.869-.869c4.4,0,7.723,3.519,7.723,8.185v4.116A.869.869,0,0,1-81.2-128.456Z" transform="translate(88.92 141.625)"/>
          </g>
          <g id="g9339" transform="translate(18.417 16.773)">
            <path id="path9341" d="M-54.2-27.1a2.578,2.578,0,0,1-2.578,2.578A2.578,2.578,0,0,1-59.359-27.1a2.578,2.578,0,0,1,2.578-2.578A2.578,2.578,0,0,1-54.2-27.1" transform="translate(59.359 29.68)" fill="#fdb0a0"/>
          </g>
          <g id="g9343" transform="translate(35.667 16.773)">
            <path id="path9345" d="M-54.2-27.1a2.578,2.578,0,0,1-2.578,2.578A2.578,2.578,0,0,1-59.359-27.1a2.578,2.578,0,0,1,2.578-2.578A2.578,2.578,0,0,1-54.2-27.1" transform="translate(59.359 29.68)" fill="#fdb0a0"/>
          </g>
          <g id="g9347" transform="translate(17.548 15.905)">
            <path id="path9349" d="M-65.912-39.68a3.45,3.45,0,0,1,3.446,3.446,3.45,3.45,0,0,1-3.446,3.446,3.45,3.45,0,0,1-3.446-3.446A3.45,3.45,0,0,1-65.912-39.68Zm0,5.156A1.711,1.711,0,0,0-64.2-36.234a1.711,1.711,0,0,0-1.709-1.709,1.711,1.711,0,0,0-1.709,1.709A1.711,1.711,0,0,0-65.912-34.524Z" transform="translate(69.358 39.68)"/>
          </g>
          <g id="g9351" transform="translate(34.799 15.905)">
            <path id="path9353" d="M-65.912-39.68a3.45,3.45,0,0,1,3.446,3.446,3.45,3.45,0,0,1-3.446,3.446,3.45,3.45,0,0,1-3.446-3.446A3.45,3.45,0,0,1-65.912-39.68Zm0,5.156A1.711,1.711,0,0,0-64.2-36.234a1.711,1.711,0,0,0-1.709-1.709,1.711,1.711,0,0,0-1.709,1.709A1.711,1.711,0,0,0-65.912-34.524Z" transform="translate(69.358 39.68)"/>
          </g>
          <g id="g9355" transform="translate(21.674 12.362)">
            <path id="path9357" d="M-83.534-184.594h0a7.945,7.945,0,0,1-7.945-7.945v-4.139a5.473,5.473,0,0,1,5.473-5.473h4.945a5.473,5.473,0,0,1,5.473,5.473v4.139a7.945,7.945,0,0,1-7.945,7.945" transform="translate(91.48 202.152)" fill="#ffcec0"/>
          </g>
          <g id="g9359" transform="translate(20.806 11.494)">
            <path id="path9361" d="M-92.666-192.857a8.824,8.824,0,0,1-8.814-8.814v-4.139a6.349,6.349,0,0,1,6.342-6.342h4.945a6.349,6.349,0,0,1,6.342,6.342v4.139A8.824,8.824,0,0,1-92.666-192.857Zm-2.472-17.558a4.61,4.61,0,0,0-4.6,4.6v4.139a7.085,7.085,0,0,0,7.077,7.077,7.085,7.085,0,0,0,7.077-7.077v-4.139a4.61,4.61,0,0,0-4.6-4.6Z" transform="translate(101.48 212.151)"/>
          </g>
          <g id="g9363" transform="translate(19.876 4.34)">
            <path id="path9365" d="M-103.778-114.279h-3.095a5.449,5.449,0,0,0-4.939,3.146l-.04.087a1.8,1.8,0,0,1-1.8-1.8v-4.43a7.875,7.875,0,0,1,7.875-7.875h3.012a1.847,1.847,0,0,1,1.847,1.848v6.158a2.864,2.864,0,0,1-2.864,2.864" transform="translate(113.649 125.149)" fill="#596d76"/>
          </g>
          <g id="g9367" transform="translate(26.936 4.34)">
            <path id="path9369" d="M-59.667-19.423v6.158A2.864,2.864,0,0,1-62.532-10.4h-2.811a2.864,2.864,0,0,0,2.865-2.865v-6.158a1.847,1.847,0,0,0-1.848-1.847h2.811a1.847,1.847,0,0,1,1.848,1.847" transform="translate(65.343 21.271)" fill="#475a61"/>
          </g>
          <g id="g9371" transform="translate(19.007 3.471)">
            <path id="path9373" d="M-120.983-119.309a2.669,2.669,0,0,1-2.666-2.666v-4.43a8.754,8.754,0,0,1,8.744-8.744h3.012a2.719,2.719,0,0,1,2.716,2.716v6.158a3.737,3.737,0,0,1-3.733,3.733H-116a4.6,4.6,0,0,0-4.151,2.645l-.041.087A.869.869,0,0,1-120.983-119.309Zm6.078-14.1a7.015,7.015,0,0,0-7.007,7.007v4.43a.929.929,0,0,0,.466.8A6.343,6.343,0,0,1-116-124.279h3.095a2,2,0,0,0,2-2v-6.158a.98.98,0,0,0-.979-.979Z" transform="translate(123.649 135.149)"/>
          </g>
          <g id="g9375" transform="translate(31.748 6.785)">
            <path id="path9377" d="M-6.02-6.5a.867.867,0,0,1-.7-.354A3.244,3.244,0,0,0-9.086-8.263a.873.873,0,0,1-.854-.878A.864.864,0,0,1-9.077-10,4.971,4.971,0,0,1-5.32-7.882a.869.869,0,0,1-.186,1.214A.865.865,0,0,1-6.02-6.5Z" transform="translate(9.94 10)"/>
          </g>
          <g id="g9379" transform="translate(25.145 18.845)">
            <path id="path9381" d="M-9.131-7.811A.869.869,0,0,1-10-8.679v-.452A.869.869,0,0,1-9.131-10a.869.869,0,0,1,.869.869v.452A.869.869,0,0,1-9.131-7.811Z" transform="translate(10 10)"/>
          </g>
          <g id="g9383" transform="translate(32.358 18.845)">
            <path id="path9385" d="M-9.131-7.811A.869.869,0,0,1-10-8.679v-.452A.869.869,0,0,1-9.131-10a.869.869,0,0,1,.869.869v.452A.869.869,0,0,1-9.131-7.811Z" transform="translate(10 10)"/>
          </g>
          <g id="g9387" transform="translate(26.31 23.13)">
            <path id="path9389" d="M-6.69-7.194A4.206,4.206,0,0,1-9.769-8.542a.869.869,0,0,1,.048-1.227.869.869,0,0,1,1.227.048,2.431,2.431,0,0,0,1.8.79,2.431,2.431,0,0,0,1.8-.79.869.869,0,0,1,1.227-.048A.869.869,0,0,1-3.61-8.542,4.206,4.206,0,0,1-6.69-7.194Z" transform="translate(10 10)"/>
          </g>
          <g id="g9391" transform="translate(23.356 37.788)">
            <path id="path9393" d="M-132.265-66.132a6.29,6.29,0,0,1-6.29,6.29,6.29,6.29,0,0,1-6.29-6.29,6.29,6.29,0,0,1,6.29-6.29,6.29,6.29,0,0,1,6.29,6.29" transform="translate(144.845 72.422)" fill="#fcb44d"/>
          </g>
          <g id="g9395" transform="translate(28.258 37.788)">
            <path id="path9397" d="M-80.719-66.129a6.29,6.29,0,0,1-6.29,6.29,6.276,6.276,0,0,1-1.388-.154,6.293,6.293,0,0,0,4.9-6.136,6.293,6.293,0,0,0-4.9-6.136,6.277,6.277,0,0,1,1.388-.154,6.289,6.289,0,0,1,6.29,6.29" transform="translate(88.397 72.418)" fill="#fb9927"/>
          </g>
          <g id="g9399" transform="translate(25.807 42.339)">
            <path id="path9401" d="M-9.131-7.609A.869.869,0,0,1-10-8.478v-.654A.869.869,0,0,1-9.131-10a.869.869,0,0,1,.869.869v.654A.869.869,0,0,1-9.131-7.609Z" transform="translate(10 10)"/>
          </g>
          <g id="g9403" transform="translate(31.749 42.339)">
            <path id="path9405" d="M-9.131-7.609A.869.869,0,0,1-10-8.478v-.654A.869.869,0,0,1-9.131-10a.869.869,0,0,1,.869.869v.654A.869.869,0,0,1-9.131-7.609Z" transform="translate(10 10)"/>
          </g>
          <g id="g9407" transform="translate(27.032 45.34)">
            <path id="path9409" d="M-7.386-7.5A3.255,3.255,0,0,1-9.769-8.542a.869.869,0,0,1,.048-1.227.869.869,0,0,1,1.227.048,1.493,1.493,0,0,0,1.108.485,1.493,1.493,0,0,0,1.108-.485A.869.869,0,0,1-5.05-9.769.869.869,0,0,1-5-8.542,3.255,3.255,0,0,1-7.386-7.5Z" transform="translate(10 10)"/>
          </g>
          <g id="g9411" transform="translate(22.487 36.92)">
            <path id="path9413" d="M-147.686-68.105a7.167,7.167,0,0,1-7.159-7.159,7.167,7.167,0,0,1,7.159-7.159,7.167,7.167,0,0,1,7.159,7.159A7.167,7.167,0,0,1-147.686-68.105Zm0-12.58a5.428,5.428,0,0,0-5.422,5.422,5.428,5.428,0,0,0,5.422,5.422,5.428,5.428,0,0,0,5.422-5.422A5.428,5.428,0,0,0-147.686-80.685Z" transform="translate(154.845 82.422)"/>
          </g>
        </g>
      </g>
    </g>
  </g>
</svg>
