<svg xmlns="http://www.w3.org/2000/svg" xmlns:xlink="http://www.w3.org/1999/xlink" width="111.776" height="111.776" viewBox="0 0 111.776 111.776">
  <defs>
    <filter id="Path_874925" x="0" y="0" width="111.776" height="111.776" filterUnits="userSpaceOnUse">
      <feOffset dy="3" input="SourceAlpha"/>
      <feGaussianBlur stdDeviation="3" result="blur"/>
      <feFlood flood-opacity="0.161"/>
      <feComposite operator="in" in2="blur"/>
      <feComposite in="SourceGraphic"/>
    </filter>
  </defs>
  <g id="Group_1207353" data-name="Group 1207353" transform="translate(-897.224 -5286.891)">
    <g id="Group_1206759" data-name="Group 1206759" transform="translate(101.224 3467.008)">
      <g id="Group_1204844" data-name="Group 1204844" transform="translate(520 -4424.991)">
        <g id="Group_1200232" data-name="Group 1200232" transform="translate(285 6250.874)">
          <g id="Group_1187153" data-name="Group 1187153">
            <g id="Group_1182177" data-name="Group 1182177">
              <g id="Group_1181903" data-name="Group 1181903">
                <g id="Group_1181438" data-name="Group 1181438">
                  <g id="Group_1111314" data-name="Group 1111314">
                    <g transform="matrix(1, 0, 0, 1, -9, -6)" filter="url(#Path_874925)">
                      <g id="Path_874925-2" data-name="Path 874925" transform="translate(9 6)" fill="#ffc94a">
                        <path d="M 46.88790893554688 92.2763671875 C 40.75992202758789 92.2763671875 34.8160285949707 91.07652282714844 29.22134971618652 88.71018218994141 C 23.81676292419434 86.42423248291016 18.96264266967773 83.15139007568359 14.79381561279297 78.98255157470703 C 10.62497520446777 74.81372833251953 7.35213565826416 69.95960998535156 5.066188812255859 64.55502319335938 C 2.699842214584351 58.9603385925293 1.500002264976501 53.01644515991211 1.500002264976501 46.88844680786133 C 1.500002264976501 40.75992584228516 2.699842214584351 34.81603240966797 5.066188812255859 29.22135353088379 C 7.35213565826416 23.8167667388916 10.62497520446777 18.962646484375 14.79381561279297 14.79381942749023 C 18.96264266967773 10.62497997283936 23.81676292419434 7.352139949798584 29.22134971618652 5.066193103790283 C 34.8160285949707 2.699846506118774 40.75992202758789 1.500006437301636 46.88790893554688 1.500006437301636 C 53.01589584350586 1.500006437301636 58.95978927612305 2.699846506118774 64.55446624755859 5.066193103790283 C 69.95905303955078 7.352139949798584 74.81317901611328 10.62497997283936 78.98200225830078 14.79381942749023 C 83.15084075927734 18.962646484375 86.42368316650391 23.8167667388916 88.70962524414062 29.22135353088379 C 91.07597351074219 34.81603240966797 92.27581787109375 40.75992584228516 92.27581787109375 46.88791275024414 C 92.27581787109375 53.01644515991211 91.07597351074219 58.9603385925293 88.70962524414062 64.55502319335938 C 86.42368316650391 69.95960998535156 83.15084075927734 74.81372833251953 78.98200225830078 78.98255157470703 C 74.81317901611328 83.15139007568359 69.95905303955078 86.42423248291016 64.55446624755859 88.71018218994141 C 58.95978927612305 91.07652282714844 53.01589584350586 92.2763671875 46.88790893554688 92.2763671875 Z" stroke="none"/>
                        <path d="M 46.88790893554688 2.999992370605469 C 40.96175003051758 2.999992370605469 35.2144660949707 4.159965515136719 29.80567932128906 6.44769287109375 C 24.57989501953125 8.658004760742188 19.88602447509766 11.82290649414062 15.85446929931641 15.85446929931641 C 11.82290649414062 19.88602447509766 8.658012390136719 24.57989501953125 6.44769287109375 29.80567932128906 C 4.159965515136719 35.2144660949707 2.999992370605469 40.96175003051758 2.999992370605469 46.88845062255859 C 2.999992370605469 52.81460952758789 4.159965515136719 58.56189346313477 6.44769287109375 63.97069549560547 C 8.658012390136719 69.19646453857422 11.82290649414062 73.89033508300781 15.85446929931641 77.92189025878906 C 19.88602447509766 81.95343780517578 24.57989501953125 85.11833953857422 29.80567932128906 87.32865142822266 C 35.2144660949707 89.61637878417969 40.96175003051758 90.77635192871094 46.88790893554688 90.77635192871094 C 52.81406784057617 90.77635192871094 58.56135177612305 89.61637878417969 63.97013854980469 87.32865142822266 C 69.1959228515625 85.11833953857422 73.88979339599609 81.95343780517578 77.92134857177734 77.92189025878906 C 81.95291137695312 73.89033508300781 85.11781311035156 69.19646453857422 87.328125 63.97069549560547 C 89.61585235595703 58.56189346313477 90.77582550048828 52.81460952758789 90.77582550048828 46.88790893554688 C 90.77582550048828 40.96175003051758 89.61585235595703 35.2144660949707 87.328125 29.80567932128906 C 85.11781311035156 24.57989501953125 81.95291137695312 19.88602447509766 77.92134857177734 15.85446929931641 C 73.88979339599609 11.82290649414062 69.1959228515625 8.658004760742188 63.97013854980469 6.44769287109375 C 58.56135177612305 4.159965515136719 52.81406784057617 2.999992370605469 46.88790893554688 2.999992370605469 M 46.88790893554688 -7.62939453125e-06 C 72.78337860107422 -7.62939453125e-06 93.77582550048828 20.99243927001953 93.77582550048828 46.88790893554688 L 93.77582550048828 46.88845062255859 C 93.77582550048828 72.783935546875 72.78337860107422 93.77635192871094 46.88790893554688 93.77635192871094 C 20.99243927001953 93.77635192871094 -7.62939453125e-06 72.783935546875 -7.62939453125e-06 46.88845062255859 L -7.62939453125e-06 46.88790893554688 C -7.62939453125e-06 20.99243927001953 20.99243927001953 -7.62939453125e-06 46.88790893554688 -7.62939453125e-06 Z" stroke="none" fill="#fff"/>
                      </g>
                    </g>
                  </g>
                </g>
              </g>
            </g>
          </g>
        </g>
      </g>
    </g>
    <g id="familias" transform="translate(907.113 5276.236)">
      <path id="Path_1271938" data-name="Path 1271938" d="M36,272H52a4,4,0,0,1,4,4v14H32V276a4,4,0,0,1,4-4Z" transform="translate(-14.002 -202.999)" fill="#2d85cc"/>
      <path id="Path_1271939" data-name="Path 1271939" d="M112,272h4v4h-4Z" transform="translate(-84.002 -202.999)" fill="#f0c6a4"/>
      <path id="Path_1271940" data-name="Path 1271940" d="M302.193,51.4A13.772,13.772,0,0,0,293,48c-7.18,0-13,5.2-13,11.622V71.084A4.959,4.959,0,0,0,285,76h16a4.959,4.959,0,0,0,5-4.917V59.622A11.007,11.007,0,0,0,302.193,51.4Z" transform="translate(-231.001 -7)" fill="#694435"/>
      <path id="Path_1271941" data-name="Path 1271941" d="M292,272h16a4,4,0,0,1,4,4v14H288V276A4,4,0,0,1,292,272Z" transform="translate(-238.001 -202.999)" fill="#ed6f6d"/>
      <g id="Group_1207352" data-name="Group 1207352" transform="translate(48.999 55)">
        <path id="Path_1271942" data-name="Path 1271942" d="M368,272h4v4h-4Z" transform="translate(-357 -258)" fill="#f0c6a4"/>
        <circle id="Ellipse_13029" data-name="Ellipse 13029" cx="3" cy="3" r="3" transform="translate(0 0)" fill="#f0c6a4"/>
        <circle id="Ellipse_13030" data-name="Ellipse 13030" cx="3" cy="3" r="3" transform="translate(20.001 0)" fill="#f0c6a4"/>
      </g>
      <path id="Path_1271943" data-name="Path 1271943" d="M330,118s-6,0-7-6c0,0-2,6-11,6v5a9,9,0,1,0,18,0Z" transform="translate(-259.001 -63)" fill="#f7cca9"/>
      <path id="Path_1271944" data-name="Path 1271944" d="M46.193,51.542A13.465,13.465,0,0,0,37,48c-7.18,0-13,5.414-13,12.093v2.791A5.059,5.059,0,0,0,29,68H45a5.059,5.059,0,0,0,5-5.116V60.093A11.649,11.649,0,0,0,46.193,51.542Z" transform="translate(-7.002 -7)" fill="#694435"/>
      <circle id="Ellipse_13031" data-name="Ellipse 13031" cx="3" cy="3" r="3" transform="translate(16.998 56)" fill="#f0c6a4"/>
      <circle id="Ellipse_13032" data-name="Ellipse 13032" cx="3" cy="3" r="3" transform="translate(36.999 56)" fill="#f0c6a4"/>
      <path id="Path_1271945" data-name="Path 1271945" d="M74,119l-4-7s-5,7-14,7v4a9,9,0,1,0,18,0Z" transform="translate(-35.002 -63)" fill="#f7cca9"/>
      <circle id="Ellipse_13033" data-name="Ellipse 13033" cx="2" cy="2" r="2" transform="translate(34.999 83.001)" fill="#f0c6a4"/>
      <circle id="Ellipse_13034" data-name="Ellipse 13034" cx="2" cy="2" r="2" transform="translate(52.999 83.001)" fill="#f0c6a4"/>
      <path id="Path_1271946" data-name="Path 1271946" d="M191,336h4a7,7,0,0,1,7,7,9,9,0,0,1-18,0A7,7,0,0,1,191,336Z" transform="translate(-147.001 -258.999)" fill="#f7cca9"/>
      <path id="Path_1271947" data-name="Path 1271947" d="M76,64.084V52.622a11.95,11.95,0,0,0-4.141-8.964A14.729,14.729,0,0,0,62,40c-7.72,0-14,5.663-14,12.622V64.084a5.9,5.9,0,0,0,2.853,5.035A4.992,4.992,0,0,0,49,73v3.065A8.024,8.024,0,0,0,48,76H47V74a1,1,0,0,0-2,0v2H44a8.026,8.026,0,0,0-1,.065V73a5.006,5.006,0,0,0-5-5H35.992A10.017,10.017,0,0,0,39.8,62q.1,0,.2.005a4,4,0,0,0,3.888-4.941A6.283,6.283,0,0,0,44,55.884V53.093a12.6,12.6,0,0,0-4.127-9.284A14.423,14.423,0,0,0,30,40c-7.72,0-14,5.873-14,13.093v2.791a6.283,6.283,0,0,0,.113,1.176A4,4,0,0,0,20,62q.1,0,.2-.005A10.017,10.017,0,0,0,24.005,68H22a5.006,5.006,0,0,0-5,5V87a1,1,0,0,0,1,1H36.836a10,10,0,0,0,18.326,0H74a1,1,0,0,0,1-1V73a4.992,4.992,0,0,0-1.853-3.882A5.9,5.9,0,0,0,76,64.084Zm-26,0V61.463A3.975,3.975,0,0,0,52,62c.067,0,.134,0,.2-.005A10.018,10.018,0,0,0,56.006,68H54A3.964,3.964,0,0,1,50,64.084ZM50,58a2,2,0,0,1,2-2v4a2,2,0,0,1-2-2ZM62,68a8.009,8.009,0,0,1-8-8V55.975a13.183,13.183,0,0,0,8.554-3.24,10.265,10.265,0,0,0,1.159-1.264,7.52,7.52,0,0,0,3.743,3.687A9.507,9.507,0,0,0,70,55.911V60A8.009,8.009,0,0,1,62,68Zm1,2v2H61V70ZM40,60V56a2,2,0,0,1,0,4ZM20,60a2,2,0,0,1,0-4Zm.671-5.944A3.993,3.993,0,0,0,18,54.539V53.093C18,46.976,23.381,42,30,42a12.428,12.428,0,0,1,8.512,3.274A10.617,10.617,0,0,1,42,53.093v1.446a3.972,3.972,0,0,0-2.448-.513l-3.72-5.581a1,1,0,0,0-1.6-.085A18.18,18.18,0,0,1,21,54,1,1,0,0,0,20.669,54.057ZM22,60V55.974a20.247,20.247,0,0,0,12.856-5.388L38,55.3V60a8,8,0,0,1-16,0Zm9,10v2H29V70Zm5,16a1,1,0,0,1,0-2,10.009,10.009,0,0,0,.2,1.981A1,1,0,0,1,36,86Zm.25-3.989C36.166,82.006,36.082,82,36,82a3,3,0,0,0-2.828,4H19V73a3,3,0,0,1,3-3h5v3a1,1,0,0,0,1,1h4a1,1,0,0,0,1-1V70h5a3,3,0,0,1,3,3v3.086l-1.354-1.354a1,1,0,0,0-1.414,1.414L39.484,77.4A8.027,8.027,0,0,0,36.249,82.013ZM46,92a8.009,8.009,0,0,1-8-8,6.007,6.007,0,0,1,6-6h4a6.007,6.007,0,0,1,6,6,8.009,8.009,0,0,1-8,8Zm10-6a1,1,0,0,1-.2-.02A10.006,10.006,0,0,0,56,84a1,1,0,1,1,0,2Zm17,0H58.827A3,3,0,0,0,56,82c-.084,0-.167,0-.25.012a8.025,8.025,0,0,0-3.2-4.587l1.279-1.279a1,1,0,0,0-1.414-1.414L51,76.148V73a3,3,0,0,1,3-3h5v3a1,1,0,0,0,1,1h4a1,1,0,0,0,1-1V70h5a3,3,0,0,1,3,3Zm1-21.918A3.964,3.964,0,0,1,70,68H67.993A10.018,10.018,0,0,0,71.8,62c.067,0,.133.005.2.005a3.975,3.975,0,0,0,2-.538ZM72,60V56a2,2,0,1,1,0,4Zm2-5.462a3.993,3.993,0,0,0-2.671-.482A1,1,0,0,0,71,54a7.38,7.38,0,0,1-2.706-.658,5.682,5.682,0,0,1-3.308-4.507,1,1,0,0,0-1.933-.158C62.977,48.9,61.11,54,53,54a1,1,0,0,0-.329.056A3.993,3.993,0,0,0,50,54.539V52.622C50,46.765,55.382,42,62,42a12.733,12.733,0,0,1,8.526,3.149A9.977,9.977,0,0,1,74,52.622Z"/>
      <circle id="Ellipse_13035" data-name="Ellipse 13035" cx="1" cy="1" r="1" transform="translate(66 58.001)"/>
      <circle id="Ellipse_13036" data-name="Ellipse 13036" cx="1" cy="1" r="1" transform="translate(55.999 58.001)"/>
      <path id="Path_1271948" data-name="Path 1271948" d="M369,188h2a1,1,0,1,0,0-2h-1v-1a1,1,0,1,0-2,0v2A1,1,0,0,0,369,188Z" transform="translate(-308.001 -125.999)"/>
      <circle id="Ellipse_13037" data-name="Ellipse 13037" cx="1" cy="1" r="1" transform="translate(33.999 58.001)"/>
      <circle id="Ellipse_13038" data-name="Ellipse 13038" cx="1" cy="1" r="1" transform="translate(23.998 58.001)"/>
      <path id="Path_1271949" data-name="Path 1271949" d="M113,188h2a1,1,0,0,0,0-2h-1v-1a1,1,0,0,0-2,0v2A1,1,0,0,0,113,188Z" transform="translate(-84.002 -125.999)"/>
      <circle id="Ellipse_13039" data-name="Ellipse 13039" cx="1" cy="1" r="1" transform="translate(40.999 82.001)"/>
      <circle id="Ellipse_13040" data-name="Ellipse 13040" cx="1" cy="1" r="1" transform="translate(48.999 82.001)"/>
      <path id="Path_1271950" data-name="Path 1271950" d="M89,216a1,1,0,0,0-.894,1.447h0l.012.024.006.01a5.98,5.98,0,0,0,9.753,0l.005-.01.013-.024h0a1,1,0,1,0-1.788-.894h0l.007-.012a4.048,4.048,0,0,1-6.225,0l.007.013h0A1,1,0,0,0,89,216Z" transform="translate(-63.001 -153.999)"/>
      <path id="Path_1271951" data-name="Path 1271951" d="M353,216a1,1,0,0,0-.894.553h0l.007-.012a4.048,4.048,0,0,1-6.225,0l.007.013h0a1,1,0,0,0-1.788.894h0l.012.024.006.01a5.979,5.979,0,0,0,9.754,0l.006-.01.012-.024h0A1,1,0,0,0,353,216Z" transform="translate(-287.002 -153.996)"/>
      <path id="Path_1271952" data-name="Path 1271952" d="M225,408a1,1,0,0,0-.894.553h0l.007-.013a4.047,4.047,0,0,1-6.225,0l.007.013h0a1,1,0,1,0-1.788.894h0l.012.024.006.01a5.98,5.98,0,0,0,9.754,0l.006-.01.012-.024h0A1,1,0,0,0,225,408Z" transform="translate(-175.002 -321.998)"/>
    </g>
  </g>
</svg>
