<svg xmlns="http://www.w3.org/2000/svg" xmlns:xlink="http://www.w3.org/1999/xlink" width="126.376" height="126.376" viewBox="0 0 126.376 126.376">
  <defs>
    <filter id="Path_874925" x="0" y="0" width="126.376" height="126.376" filterUnits="userSpaceOnUse">
      <feOffset dy="3" input="SourceAlpha"/>
      <feGaussianBlur stdDeviation="3" result="blur"/>
      <feFlood flood-opacity="0.161"/>
      <feComposite operator="in" in2="blur"/>
      <feComposite in="SourceGraphic"/>
    </filter>
  </defs>
  <g id="Group_1206950" data-name="Group 1206950" transform="translate(6788.949 8263)">
    <g id="Group_1205992" data-name="Group 1205992" transform="translate(-7885 -12135)">
      <g id="Group_1205731" data-name="Group 1205731" transform="translate(359 -295)">
        <g id="Group_1205682" data-name="Group 1205682" transform="translate(461.051 -2077.874)">
          <g id="Group_1200232" data-name="Group 1200232" transform="translate(285 6250.874)">
            <g id="Group_1187153" data-name="Group 1187153">
              <g id="Group_1182177" data-name="Group 1182177">
                <g id="Group_1181903" data-name="Group 1181903">
                  <g id="Group_1181438" data-name="Group 1181438">
                    <g id="Group_1111314" data-name="Group 1111314">
                      <g transform="matrix(1, 0, 0, 1, -9, -6)" filter="url(#Path_874925)">
                        <g id="Path_874925-2" data-name="Path 874925" transform="translate(9 6)" fill="#ffc94a">
                          <path d="M 54.1878662109375 106.8763656616211 C 47.07439041137695 106.8763656616211 40.17448043823242 105.4835205078125 33.67983627319336 102.7365036010742 C 27.40597343444824 100.0828857421875 21.77115821838379 96.28368377685547 16.93191146850586 91.44444274902344 C 12.09268188476562 86.60519409179688 8.293481826782227 80.97038269042969 5.639866352081299 74.696533203125 C 2.892850875854492 68.20187377929688 1.500004649162292 61.30196380615234 1.500004649162292 54.1884880065918 C 1.500004649162292 47.07439422607422 2.892850875854492 40.17448806762695 5.639866352081299 33.67982482910156 C 8.293481826782227 27.40597915649414 12.09268188476562 21.77116394042969 16.93191146850586 16.93191719055176 C 21.77115821838379 12.09267139434814 27.40597343444824 8.293471336364746 33.67983627319336 5.639855861663818 C 40.17448043823242 2.892840623855591 47.07439041137695 1.499994397163391 54.1878662109375 1.499994397163391 C 61.30134201049805 1.499994397163391 68.20124816894531 2.892840623855591 74.69589996337891 5.639855861663818 C 80.96975708007812 8.293471336364746 86.60457611083984 12.09267139434814 91.44381713867188 16.93191719055176 C 96.28305053710938 21.77116394042969 100.0822525024414 27.40597915649414 102.7358627319336 33.67982482910156 C 105.4828796386719 40.17448806762695 106.8757247924805 47.07439422607422 106.8757247924805 54.18787002563477 C 106.8757247924805 61.30196380615234 105.4828796386719 68.20187377929688 102.7358627319336 74.696533203125 C 100.0822525024414 80.97038269042969 96.28305053710938 86.60519409179688 91.44381713867188 91.44444274902344 C 86.60457611083984 96.28368377685547 80.96975708007812 100.0828857421875 74.69589996337891 102.7365036010742 C 68.20124816894531 105.4835205078125 61.30134201049805 106.8763656616211 54.1878662109375 106.8763656616211 Z" stroke="none"/>
                          <path d="M 54.1878662109375 2.999992370605469 C 47.2762336730957 2.999992370605469 40.57291412353516 4.352981567382812 34.26416778564453 7.0213623046875 C 28.16909790039062 9.599342346191406 22.69454956054688 13.29059600830078 17.99258422851562 17.99257659912109 C 13.29059600830078 22.69454193115234 9.599349975585938 28.16909790039062 7.021369934082031 34.26416015625 C 4.352981567382812 40.57292938232422 3 47.27622985839844 3 54.18849563598633 C 3 61.10012817382812 4.352981567382812 67.80344390869141 7.021369934082031 74.11219787597656 C 9.599349975585938 80.20726013183594 13.29059600830078 85.68180847167969 17.99258422851562 90.38378143310547 C 22.69454956054688 95.08576202392578 28.16909790039062 98.77701568603516 34.26416778564453 101.3549957275391 C 40.57291412353516 104.0233764648438 47.2762336730957 105.3763656616211 54.1878662109375 105.3763656616211 C 61.0994987487793 105.3763656616211 67.80281066894531 104.0233764648438 74.11156463623047 101.3549957275391 C 80.20663452148438 98.77701568603516 85.68118286132812 95.08576202392578 90.38314819335938 90.38378143310547 C 95.08512878417969 85.68180847167969 98.77638244628906 80.20726013183594 101.3543701171875 74.11219787597656 C 104.0227508544922 67.80344390869141 105.375732421875 61.10012817382812 105.375732421875 54.1878776550293 C 105.375732421875 47.27622985839844 104.0227508544922 40.57292938232422 101.3543701171875 34.26416015625 C 98.77638244628906 28.16909790039062 95.08512878417969 22.69454193115234 90.38314819335938 17.99257659912109 C 85.68118286132812 13.29059600830078 80.20663452148438 9.599342346191406 74.11156463623047 7.0213623046875 C 67.80281066894531 4.352981567382812 61.0994987487793 2.999992370605469 54.1878662109375 2.999992370605469 M 54.1878662109375 -7.62939453125e-06 C 84.11499786376953 -7.62939453125e-06 108.375732421875 24.26072692871094 108.375732421875 54.1878776550293 L 108.375732421875 54.18849563598633 C 108.375732421875 84.11563110351562 84.11499786376953 108.3763656616211 54.1878662109375 108.3763656616211 C 24.26073455810547 108.3763656616211 0 84.11563110351562 0 54.18849563598633 L 0 54.1878776550293 C 0 24.26072692871094 24.26073455810547 -7.62939453125e-06 54.1878662109375 -7.62939453125e-06 Z" stroke="none" fill="#fff"/>
                        </g>
                      </g>
                    </g>
                  </g>
                </g>
              </g>
            </g>
          </g>
        </g>
      </g>
    </g>
    <g id="carot-time-clock-farm" transform="translate(-6757.896 -8234.729)">
      <path id="Path_1270608" data-name="Path 1270608" d="M19.831,35.072C17.571,38.9,12.2,40,12.2,40s-1.711-5.1.549-8.928,7.634-4.928,7.634-4.928S22.09,31.245,19.831,35.072Z" fill="#64c37d"/>
      <path id="Path_1270609" data-name="Path 1270609" d="M11.648,31.072C13.908,34.9,12.2,40,12.2,40s-5.374-1.1-7.634-4.928-.548-8.928-.548-8.928,5.371,1.1,7.63,4.928Z" fill="#64c37d"/>
      <path id="Path_1270610" data-name="Path 1270610" d="M16.288,32c0,4.418-4.092,8-4.092,8S8.1,36.418,8.1,32,12.2,24,12.2,24s4.088,3.582,4.088,8Z" fill="#c2fb3b"/>
      <path id="Path_1270611" data-name="Path 1270611" d="M39.831,47.072C37.571,50.9,32.2,52,32.2,52s-1.711-5.1.549-8.928,7.634-4.928,7.634-4.928S42.09,43.245,39.831,47.072Z" fill="#64c37d"/>
      <path id="Path_1270612" data-name="Path 1270612" d="M31.648,43.072C33.908,46.9,32.2,52,32.2,52s-5.374-1.1-7.634-4.928-.548-8.928-.548-8.928,5.371,1.1,7.63,4.928Z" fill="#64c37d"/>
      <path id="Path_1270613" data-name="Path 1270613" d="M36.288,44c0,4.418-4.092,8-4.092,8S28.1,48.418,28.1,44s4.1-8,4.1-8,4.088,3.582,4.088,8Z" fill="#c2fb3b"/>
      <path id="Path_1270614" data-name="Path 1270614" d="M59.831,53.072C57.571,56.9,52.2,58,52.2,58s-1.711-5.1.549-8.928,7.634-4.928,7.634-4.928S62.09,49.245,59.831,53.072Z" fill="#64c37d"/>
      <path id="Path_1270615" data-name="Path 1270615" d="M51.648,49.072C53.908,52.9,52.2,58,52.2,58s-5.374-1.1-7.634-4.928-.548-8.928-.548-8.928S49.389,45.245,51.648,49.072Z" fill="#64c37d"/>
      <path id="Path_1270616" data-name="Path 1270616" d="M56.288,50c0,4.418-4.092,8-4.092,8S48.1,54.418,48.1,50s4.1-8,4.1-8,4.088,3.582,4.088,8Z" fill="#c2fb3b"/>
      <path id="Path_1270617" data-name="Path 1270617" d="M32.92,51.05a9.144,9.144,0,0,1,1.29.22A8.989,8.989,0,0,1,40.48,57H23.52a8.989,8.989,0,0,1,6.27-5.73,9.144,9.144,0,0,1,1.29-.22c.3-.03.61-.05.92-.05S32.62,51.02,32.92,51.05Z" fill="#ff6243"/>
      <path id="Path_1270618" data-name="Path 1270618" d="M2,57H62v4H2Z" fill="#b39a7c"/>
      <path id="Path_1270619" data-name="Path 1270619" d="M14.21,39.27A9.012,9.012,0,0,1,21,48a39.8,39.8,0,0,1-1.59,9H4.59A39.8,39.8,0,0,1,3,48a9.012,9.012,0,0,1,6.79-8.73,9.144,9.144,0,0,1,1.29-.22c.3-.03.61-.05.92-.05s.62.02.92.05a9.144,9.144,0,0,1,1.29.22Z" fill="#ff6243"/>
      <circle id="Ellipse_12985" data-name="Ellipse 12985" cx="17" cy="17" r="17" transform="translate(27 3)" fill="#ffda44"/>
      <circle id="Ellipse_12986" data-name="Ellipse 12986" cx="14" cy="14" r="14" transform="translate(30 6)" fill="#00eed1"/>
      <circle id="Ellipse_12987" data-name="Ellipse 12987" cx="3" cy="3" r="3" transform="translate(41 17)" fill="#ff5023"/>
      <path id="Path_1270620" data-name="Path 1270620" d="M11,45h2v2H11Z"/>
      <path id="Path_1270621" data-name="Path 1270621" d="M60.33,53.57c2.4-4.16.69-9.51.62-9.74a1.006,1.006,0,0,0-1.16-.67,15.749,15.749,0,0,0-4.28,1.72,15.907,15.907,0,0,0-2.84-3.63,1.031,1.031,0,0,0-1.34,0,15.907,15.907,0,0,0-2.84,3.63,15.749,15.749,0,0,0-4.28-1.72,1.006,1.006,0,0,0-1.16.67c-.07.23-1.78,5.58.62,9.74A9.282,9.282,0,0,0,45.74,56H41.16a9.975,9.975,0,0,0-4.51-4.84,10.326,10.326,0,0,0,3.68-3.59c2.4-4.16.69-9.51.62-9.74a.672.672,0,0,0-.06-.12A17.721,17.721,0,0,0,44,38a18.083,18.083,0,1,0-4.83-.68,16.467,16.467,0,0,0-3.66,1.56,15.907,15.907,0,0,0-2.84-3.63,1.031,1.031,0,0,0-1.34,0,15.907,15.907,0,0,0-2.84,3.63,15.749,15.749,0,0,0-4.28-1.72,1.006,1.006,0,0,0-1.16.67c-.07.23-1.78,5.58.62,9.74a10.326,10.326,0,0,0,3.68,3.59A9.975,9.975,0,0,0,22.84,56H20.71A37.853,37.853,0,0,0,22,48a9.989,9.989,0,0,0-5.35-8.84,10.326,10.326,0,0,0,3.68-3.59c2.4-4.16.69-9.51.62-9.74a1.006,1.006,0,0,0-1.16-.67,15.749,15.749,0,0,0-4.28,1.72,15.907,15.907,0,0,0-2.84-3.63,1.031,1.031,0,0,0-1.34,0,15.907,15.907,0,0,0-2.84,3.63,15.749,15.749,0,0,0-4.28-1.72,1.006,1.006,0,0,0-1.16.67c-.07.23-1.78,5.58.62,9.74a10.326,10.326,0,0,0,3.68,3.59A9.989,9.989,0,0,0,2,48a37.853,37.853,0,0,0,1.29,8H2v2H62V56H58.26a9.282,9.282,0,0,0,2.07-2.43ZM17,32a9.393,9.393,0,0,0-.63-3.28,13.868,13.868,0,0,1,2.91-1.34c.33,1.54.74,4.72-.69,7.19a8.55,8.55,0,0,1-3.43,3.14A10.821,10.821,0,0,0,17,32ZM9.78,28.74v-.01A13.467,13.467,0,0,1,12,25.43a13.089,13.089,0,0,1,2.22,3.31A7.7,7.7,0,0,1,15,32a10.007,10.007,0,0,1-2.53,6.02c-.15,0-.31-.02-.47-.02s-.32.02-.47.02A10.007,10.007,0,0,1,9,32a7.7,7.7,0,0,1,.78-3.26ZM5.41,34.57c-1.43-2.47-1.02-5.65-.69-7.19A14.4,14.4,0,0,1,7.63,28.7,9.317,9.317,0,0,0,7,32a10.821,10.821,0,0,0,1.84,5.71,8.622,8.622,0,0,1-3.43-3.14ZM18.64,56H5.36A37.516,37.516,0,0,1,4,48a8,8,0,0,1,15.41-3H15v2h4.93A8.258,8.258,0,0,1,20,48,37.516,37.516,0,0,1,18.64,56ZM28,20A16,16,0,1,1,44,36,16,16,0,0,1,28,20Zm9,24a9.393,9.393,0,0,0-.63-3.28,13.868,13.868,0,0,1,2.91-1.34c.33,1.54.74,4.72-.69,7.19a8.55,8.55,0,0,1-3.43,3.14A10.821,10.821,0,0,0,37,44Zm-7.22-3.26v-.01A13.467,13.467,0,0,1,32,37.43a13.089,13.089,0,0,1,2.22,3.31A7.7,7.7,0,0,1,35,44a10.089,10.089,0,0,1-2.52,6.02c-.16-.01-.32-.02-.48-.02s-.32.01-.48.02A10.089,10.089,0,0,1,29,44a7.7,7.7,0,0,1,.78-3.26Zm-4.37,5.83c-1.43-2.47-1.02-5.65-.69-7.19a14.4,14.4,0,0,1,2.91,1.32A9.317,9.317,0,0,0,27,44a10.821,10.821,0,0,0,1.84,5.71,8.622,8.622,0,0,1-3.43-3.14ZM25.09,56a7.969,7.969,0,0,1,13.82,0Zm20.32-3.43c-1.43-2.47-1.02-5.65-.69-7.19a14.4,14.4,0,0,1,2.91,1.32A9.317,9.317,0,0,0,47,50a10.821,10.821,0,0,0,1.84,5.71,8.65,8.65,0,0,1-3.43-3.14ZM52.49,56h-.98A10.055,10.055,0,0,1,49,50a7.7,7.7,0,0,1,.78-3.26v-.01A13.467,13.467,0,0,1,52,43.43a13.089,13.089,0,0,1,2.22,3.31A7.7,7.7,0,0,1,55,50a10.049,10.049,0,0,1-2.51,6Zm2.67-.29A10.85,10.85,0,0,0,57,50a9.393,9.393,0,0,0-.63-3.28,13.868,13.868,0,0,1,2.91-1.34c.33,1.55.74,4.72-.69,7.19A8.65,8.65,0,0,1,55.16,55.71Z"/>
      <path id="Path_1270622" data-name="Path 1270622" d="M2,60H62v2H2Z"/>
      <path id="Path_1270623" data-name="Path 1270623" d="M59,20A15,15,0,1,0,44,35,15,15,0,0,0,59,20ZM31,20A13,13,0,1,1,44,33,13,13,0,0,1,31,20Z"/>
      <path id="Path_1270624" data-name="Path 1270624" d="M44,24a3.992,3.992,0,0,0,1-7.858V9H43v7.142A4,4,0,0,0,40,20a3.947,3.947,0,0,0,.567,2.019l-3.274,3.274,1.414,1.414,3.274-3.274A3.947,3.947,0,0,0,44,24Zm0-6a2,2,0,1,1-2,2A2,2,0,0,1,44,18Z"/>
      <circle id="Ellipse_12988" data-name="Ellipse 12988" cx="1" cy="1" r="1" transform="translate(43 19)"/>
    </g>
  </g>
</svg>
