<svg xmlns="http://www.w3.org/2000/svg" xmlns:xlink="http://www.w3.org/1999/xlink" width="111.776" height="111.776" viewBox="0 0 111.776 111.776">
  <defs>
    <filter id="Path_874925" x="0" y="0" width="111.776" height="111.776" filterUnits="userSpaceOnUse">
      <feOffset dy="3" input="SourceAlpha"/>
      <feGaussianBlur stdDeviation="3" result="blur"/>
      <feFlood flood-opacity="0.161"/>
      <feComposite operator="in" in2="blur"/>
      <feComposite in="SourceGraphic"/>
    </filter>
  </defs>
  <g id="Group_1207400" data-name="Group 1207400" transform="translate(-3794 5600)">
    <g id="Group_1206773" data-name="Group 1206773" transform="translate(2998 -7419.883)">
      <g id="Group_1204844" data-name="Group 1204844" transform="translate(520 -4424.991)">
        <g id="Group_1200232" data-name="Group 1200232" transform="translate(285 6250.874)">
          <g id="Group_1187153" data-name="Group 1187153">
            <g id="Group_1182177" data-name="Group 1182177">
              <g id="Group_1181903" data-name="Group 1181903">
                <g id="Group_1181438" data-name="Group 1181438">
                  <g id="Group_1111314" data-name="Group 1111314">
                    <g transform="matrix(1, 0, 0, 1, -9, -6)" filter="url(#Path_874925)">
                      <g id="Path_874925-2" data-name="Path 874925" transform="translate(9 6)" fill="#dcd9d3">
                        <path d="M 46.88790893554688 92.2763671875 C 40.75992202758789 92.2763671875 34.8160285949707 91.07652282714844 29.22134971618652 88.71018218994141 C 23.81676292419434 86.42423248291016 18.96264266967773 83.15139007568359 14.79381561279297 78.98255157470703 C 10.62497520446777 74.81372833251953 7.35213565826416 69.95960998535156 5.066188812255859 64.55502319335938 C 2.699842214584351 58.9603385925293 1.500002264976501 53.01644515991211 1.500002264976501 46.88844680786133 C 1.500002264976501 40.75992584228516 2.699842214584351 34.81603240966797 5.066188812255859 29.22135353088379 C 7.35213565826416 23.8167667388916 10.62497520446777 18.962646484375 14.79381561279297 14.79381942749023 C 18.96264266967773 10.62497997283936 23.81676292419434 7.352139949798584 29.22134971618652 5.066193103790283 C 34.8160285949707 2.699846506118774 40.75992202758789 1.500006437301636 46.88790893554688 1.500006437301636 C 53.01589584350586 1.500006437301636 58.95978927612305 2.699846506118774 64.55446624755859 5.066193103790283 C 69.95905303955078 7.352139949798584 74.81317901611328 10.62497997283936 78.98200225830078 14.79381942749023 C 83.15084075927734 18.962646484375 86.42368316650391 23.8167667388916 88.70962524414062 29.22135353088379 C 91.07597351074219 34.81603240966797 92.27581787109375 40.75992584228516 92.27581787109375 46.88791275024414 C 92.27581787109375 53.01644515991211 91.07597351074219 58.9603385925293 88.70962524414062 64.55502319335938 C 86.42368316650391 69.95960998535156 83.15084075927734 74.81372833251953 78.98200225830078 78.98255157470703 C 74.81317901611328 83.15139007568359 69.95905303955078 86.42423248291016 64.55446624755859 88.71018218994141 C 58.95978927612305 91.07652282714844 53.01589584350586 92.2763671875 46.88790893554688 92.2763671875 Z" stroke="none"/>
                        <path d="M 46.88790893554688 2.999992370605469 C 40.96175003051758 2.999992370605469 35.2144660949707 4.159965515136719 29.80567932128906 6.44769287109375 C 24.57989501953125 8.658004760742188 19.88602447509766 11.82290649414062 15.85446929931641 15.85446929931641 C 11.82290649414062 19.88602447509766 8.658012390136719 24.57989501953125 6.44769287109375 29.80567932128906 C 4.159965515136719 35.2144660949707 2.999992370605469 40.96175003051758 2.999992370605469 46.88845062255859 C 2.999992370605469 52.81460952758789 4.159965515136719 58.56189346313477 6.44769287109375 63.97069549560547 C 8.658012390136719 69.19646453857422 11.82290649414062 73.89033508300781 15.85446929931641 77.92189025878906 C 19.88602447509766 81.95343780517578 24.57989501953125 85.11833953857422 29.80567932128906 87.32865142822266 C 35.2144660949707 89.61637878417969 40.96175003051758 90.77635192871094 46.88790893554688 90.77635192871094 C 52.81406784057617 90.77635192871094 58.56135177612305 89.61637878417969 63.97013854980469 87.32865142822266 C 69.1959228515625 85.11833953857422 73.88979339599609 81.95343780517578 77.92134857177734 77.92189025878906 C 81.95291137695312 73.89033508300781 85.11781311035156 69.19646453857422 87.328125 63.97069549560547 C 89.61585235595703 58.56189346313477 90.77582550048828 52.81460952758789 90.77582550048828 46.88790893554688 C 90.77582550048828 40.96175003051758 89.61585235595703 35.2144660949707 87.328125 29.80567932128906 C 85.11781311035156 24.57989501953125 81.95291137695312 19.88602447509766 77.92134857177734 15.85446929931641 C 73.88979339599609 11.82290649414062 69.1959228515625 8.658004760742188 63.97013854980469 6.44769287109375 C 58.56135177612305 4.159965515136719 52.81406784057617 2.999992370605469 46.88790893554688 2.999992370605469 M 46.88790893554688 -7.62939453125e-06 C 72.78337860107422 -7.62939453125e-06 93.77582550048828 20.99243927001953 93.77582550048828 46.88790893554688 L 93.77582550048828 46.88845062255859 C 93.77582550048828 72.783935546875 72.78337860107422 93.77635192871094 46.88790893554688 93.77635192871094 C 20.99243927001953 93.77635192871094 -7.62939453125e-06 72.783935546875 -7.62939453125e-06 46.88845062255859 L -7.62939453125e-06 46.88790893554688 C -7.62939453125e-06 20.99243927001953 20.99243927001953 -7.62939453125e-06 46.88790893554688 -7.62939453125e-06 Z" stroke="none" fill="#fff"/>
                      </g>
                    </g>
                  </g>
                </g>
              </g>
            </g>
          </g>
        </g>
      </g>
    </g>
    <g id="Layer_1" transform="translate(3743.769 -5637.419)">
      <g id="Group_1207399" data-name="Group 1207399" transform="translate(80.231 62.419)">
        <path id="Path_1272000" data-name="Path 1272000" d="M91.1,311.725H84.34a.718.718,0,0,0,0,1.435H94.16c.878.018,2.1.145,2.312,1.05.352,1.474-2.348,1.983-3.664,3.374-.587.62-.61,1.04-.586,1.142a.877.877,0,0,0,.521-.164c1.7-.995,5.271-.851,7.734-1.62l.058-.016a5.6,5.6,0,0,0,3.831-3.153.887.887,0,0,1,.812-.525h12.539a.89.89,0,0,1,0,1.781h-12a7.245,7.245,0,0,1-4.745,3.622,23.786,23.786,0,0,1-3.989.731,10.714,10.714,0,0,0-3.344.716c-2.49,1.46-4.521-1.212-2.129-3.738a9.092,9.092,0,0,1,1.905-1.418H84.344a2.5,2.5,0,0,1-2.356-3.328,2.5,2.5,0,0,1,.3-4.845,2.5,2.5,0,0,1,1.544-3.111,2.5,2.5,0,0,1,2.345-3.361H99.453a6.365,6.365,0,0,1,4.482,1.857h9.191a.89.89,0,0,1,0,1.781h-9.562a.887.887,0,0,1-.649-.28,4.628,4.628,0,0,0-3.463-1.576H86.174a.718.718,0,0,0,0,1.435H91.2a.89.89,0,0,1,0,1.781H84.667a.718.718,0,0,0,0,1.436h7.292a.89.89,0,0,1,0,1.781H84.636c-.5.022-1.613,0-1.907,0a.718.718,0,0,0,0,1.436H91.1a.89.89,0,0,1,0,1.78Z" transform="translate(-80.231 -263.531)" fill="#212121" fill-rule="evenodd"/>
        <path id="Path_1272001" data-name="Path 1272001" d="M198.263,72.982H191.5a.89.89,0,1,1,0-1.781h6.755a.718.718,0,0,0,0-1.436l-9.869,0c-.86-.052-2.037-.123-2.257-1.048-.352-1.474,2.348-1.983,3.664-3.374.587-.62.61-1.04.585-1.142a.879.879,0,0,0-.521.164c-1.693.993-5.262.851-7.734,1.62L182.06,66a5.6,5.6,0,0,0-3.832,3.153.89.89,0,0,1-.829.524H164.877a.89.89,0,0,1,0-1.781h12a7.245,7.245,0,0,1,4.745-3.622,23.824,23.824,0,0,1,3.989-.731,10.724,10.724,0,0,0,3.344-.715,2.1,2.1,0,0,1,2.813.252c.594.748.613,2.116-.684,3.486a9.1,9.1,0,0,1-1.905,1.418h9.075a2.5,2.5,0,0,1,2.356,3.328,2.5,2.5,0,0,1-.3,4.845,2.5,2.5,0,0,1-1.543,3.111,2.5,2.5,0,0,1-2.345,3.361H183.142a6.365,6.365,0,0,1-4.483-1.857h-9.19a.89.89,0,0,1,0-1.781h9.562a.888.888,0,0,1,.66.293,4.626,4.626,0,0,0,3.451,1.564h13.269a.718.718,0,0,0,.014-1.436h-5.032a.89.89,0,0,1,0-1.781h6.535a.718.718,0,0,0,0-1.435h-7.292a.89.89,0,1,1,0-1.78h9.234a.718.718,0,0,0,0-1.435Z" transform="translate(-151.042 -62.419)" fill="#212121" fill-rule="evenodd"/>
        <path id="Path_1272002" data-name="Path 1272002" d="M291.566,187.478v1.6a.718.718,0,0,0,1.435,0c0-.53-.021-1.354,0-1.909,0-.01,0-.019,0-.029v-7.291a.89.89,0,1,1,1.781,0v7.291h0a.718.718,0,0,0,1.436,0V180.6a.89.89,0,0,1,1.781,0v5.03a.718.718,0,0,0,1.435,0V172.351a4.646,4.646,0,0,0-1.567-3.453.888.888,0,0,1-.29-.657V150.967a.89.89,0,0,1,1.781,0v16.9a6.475,6.475,0,0,1,1.857,4.486v13.262a2.5,2.5,0,0,1-3.36,2.358,2.5,2.5,0,0,1-3.111,1.543,2.5,2.5,0,0,1-4.845.3,2.5,2.5,0,0,1-3.328-2.359v-9.071a9.08,9.08,0,0,1-1.418,1.9c-1.076,1.019-2.514,1.457-3.486.684a2.1,2.1,0,0,1-.252-2.813,10.71,10.71,0,0,0,.715-3.344,23.819,23.819,0,0,1,.731-3.989,7.246,7.246,0,0,1,3.622-4.745V155.849a.89.89,0,1,1,1.781,0c0,1.095.024,10.714-.013,10.931a.891.891,0,0,1-.5.652,5.6,5.6,0,0,0-3.163,3.836q-.007.029-.016.058c-.768,2.427-.619,6.027-1.62,7.734a.881.881,0,0,0-.164.521c.1.024.522,0,1.142-.585,1.39-1.315,1.9-4.016,3.374-3.664.9.216,1.033,1.435,1.049,2.311v9.816a.718.718,0,0,0,1.435.012v-6.765a.89.89,0,1,1,1.781,0v6.766Z" transform="translate(-249.973 -136.529)" fill="#212121" fill-rule="evenodd"/>
        <path id="Path_1272003" data-name="Path 1272003" d="M90.4,77.418a.718.718,0,1,0-1.435,0c0,.265.02,1.308,0,1.861,0,.025,0,.051,0,.077v7.292a.89.89,0,1,1-1.781,0V79.356h0a.718.718,0,0,0-1.435,0l0,1.32c0,.022,0,.044,0,.067v5.148a.89.89,0,0,1-1.781,0V80.859a.718.718,0,0,0-1.436,0V94.129A4.623,4.623,0,0,0,84.11,97.6a.886.886,0,0,1,.281.664v17.258a.89.89,0,0,1-1.781,0v-16.9a6.439,6.439,0,0,1-1.857-4.482V80.863a2.5,2.5,0,0,1,3.361-2.345,2.5,2.5,0,0,1,3.111-1.543,2.5,2.5,0,0,1,4.845-.3A2.5,2.5,0,0,1,95.4,79.033v9.075A9.086,9.086,0,0,1,96.816,86.2c1.37-1.3,2.738-1.278,3.486-.684a2.1,2.1,0,0,1,.252,2.814,10.712,10.712,0,0,0-.715,3.344,23.782,23.782,0,0,1-.731,3.989,7.244,7.244,0,0,1-3.622,4.745v10.233a.89.89,0,0,1-1.78,0V99.883a.89.89,0,0,1,.524-.828,5.6,5.6,0,0,0,3.154-3.832c0-.02.01-.039.016-.059.769-2.458.624-6.035,1.62-7.734a.88.88,0,0,0,.164-.521c-.1-.024-.521,0-1.142.585-1.391,1.317-1.9,4.016-3.374,3.664-.9-.216-1.033-1.435-1.049-2.311V79.033a.718.718,0,0,0-1.436,0v6.757a.89.89,0,1,1-1.78,0V77.418Z" transform="translate(-80.672 -72.988)" fill="#212121" fill-rule="evenodd"/>
        <path id="Path_1272004" data-name="Path 1272004" d="M206.992,215.925h0c-1.108,0-1.908-.885-3.5-2.647-1.716-1.9-3.687-4.423-3.687-7.105a4.04,4.04,0,0,1,4.035-4.035,3.7,3.7,0,0,1,3.145,1.534,3.7,3.7,0,0,1,3.145-1.534,4.04,4.04,0,0,1,4.035,4.035c0,2.682-1.972,5.208-3.69,7.108l-.066.073C208.862,215.066,208.085,215.925,206.992,215.925Zm-3.152-12.007a2.257,2.257,0,0,0-2.255,2.255c0,1.618,1,3.442,3.227,5.911.915,1.013,1.862,2.06,2.179,2.06s1.214-1.008,2.1-1.984l.066-.073c2.234-2.472,3.23-4.3,3.23-5.915a2.257,2.257,0,0,0-2.255-2.255c-1.085,0-1.633.436-2.348,1.867a.89.89,0,0,1-1.593,0C205.473,204.355,204.925,203.919,203.84,203.919Z" transform="translate(-181.324 -180.544)" fill="#212121" fill-rule="evenodd"/>
      </g>
      <path id="Path_1272005" data-name="Path 1272005" d="M294.3,200.3c-.768,2.427-.619,6.027-1.62,7.734a.88.88,0,0,0-.164.521c.1.024.522,0,1.142-.585,1.39-1.315,1.9-4.016,3.374-3.664.9.216,1.033,1.435,1.049,2.311v9.816a.718.718,0,0,0,1.435.012v-6.765a.89.89,0,1,1,1.78,0v8.368a.718.718,0,0,0,1.435,0c0-.53-.021-1.354,0-1.909v-7.32a.89.89,0,1,1,1.781,0v7.292a.718.718,0,0,0,1.436,0v-6.535a.89.89,0,0,1,1.781,0v5.03a.718.718,0,0,0,1.436,0V201.321a4.646,4.646,0,0,0-1.567-3.453.888.888,0,0,1-.29-.658V184.343a2.487,2.487,0,0,1-2.225,1.366h-7.089c0,2.675.017,9.854-.015,10.041a.891.891,0,0,1-.5.652,5.6,5.6,0,0,0-3.163,3.836c0,.02-.01.039-.016.058Z" transform="translate(-179.47 -103.08)" fill="#f8aa97" fill-rule="evenodd"/>
      <path id="Path_1272006" data-name="Path 1272006" d="M121.864,313.674h-8.511a.887.887,0,0,1-.649-.281,4.628,4.628,0,0,0-3.463-1.576H95.963a.718.718,0,0,0,0,1.435h5.032a.89.89,0,0,1,0,1.781H94.456a.718.718,0,0,0,0,1.436h7.291a.89.89,0,0,1,0,1.781H94.426c-.5.022-1.613,0-1.907,0a.718.718,0,0,0,0,1.436h8.368a.89.89,0,1,1,0,1.781H94.129a.718.718,0,0,0,0,1.435h9.816c.878.018,2.1.145,2.312,1.05.352,1.474-2.348,1.983-3.664,3.374-.587.62-.61,1.04-.586,1.142a.878.878,0,0,0,.521-.164c1.7-.995,5.271-.851,7.734-1.62l.058-.016a5.6,5.6,0,0,0,3.831-3.153.887.887,0,0,1,.812-.525h11.649v-7.861a9.08,9.08,0,0,1-1.418,1.9c-1.076,1.018-2.514,1.457-3.486.684a2.1,2.1,0,0,1-.252-2.813A4.2,4.2,0,0,0,121.864,313.674Z" transform="translate(-9.79 -210.852)" fill="#fcc4ae" fill-rule="evenodd"/>
      <path id="Path_1272007" data-name="Path 1272007" d="M103.444,119.494v-9.87a.89.89,0,0,1,.524-.828,5.6,5.6,0,0,0,3.154-3.832c0-.02.01-.039.016-.059.769-2.458.624-6.035,1.62-7.734a.88.88,0,0,0,.164-.521c-.1-.024-.521,0-1.142.585-1.391,1.317-1.9,4.016-3.374,3.664-.9-.216-1.033-1.435-1.049-2.311V88.774a.718.718,0,0,0-1.436,0v6.757a.89.89,0,1,1-1.78,0V87.159a.718.718,0,1,0-1.435,0c0,.265.02,1.308,0,1.861,0,.025,0,.051,0,.077v7.292a.89.89,0,1,1-1.781,0V89.1a.718.718,0,0,0-1.435,0l0,1.32c0,.022,0,.044,0,.067v5.148a.89.89,0,0,1-1.781,0V90.6a.718.718,0,0,0-1.436,0v13.265a4.623,4.623,0,0,0,1.576,3.475.886.886,0,0,1,.281.664V120.86a2.487,2.487,0,0,1,2.225-1.366Z" transform="translate(-10.181 -20.309)" fill="#f8aa97" fill-rule="evenodd"/>
      <path id="Path_1272008" data-name="Path 1272008" d="M180.26,88.722h8.51a.888.888,0,0,1,.66.293,4.626,4.626,0,0,0,3.451,1.564H206.15a.718.718,0,0,0,.014-1.436h-5.032a.89.89,0,0,1,0-1.781h6.535a.718.718,0,0,0,0-1.435h-7.292a.89.89,0,1,1,0-1.78h9.234a.718.718,0,0,0,0-1.435h-8.368a.89.89,0,1,1,0-1.781h6.755a.718.718,0,0,0,0-1.436l-9.869,0c-.86-.052-2.037-.123-2.257-1.048-.352-1.474,2.348-1.983,3.664-3.374.587-.62.61-1.04.585-1.142a.879.879,0,0,0-.521.164c-1.693.993-5.262.851-7.734,1.62l-.058.016a5.6,5.6,0,0,0-3.832,3.153.89.89,0,0,1-.83.524H175.507v7.861a9.085,9.085,0,0,1,1.418-1.905c1.37-1.3,2.738-1.278,3.486-.684a2.1,2.1,0,0,1,.252,2.814A4.218,4.218,0,0,0,180.26,88.722Z" transform="translate(-80.551 -9.73)" fill="#fcc4ae" fill-rule="evenodd"/>
      <path id="Path_1272009" data-name="Path 1272009" d="M217.523,215.524a.891.891,0,0,1-1.593,0c-.715-1.43-1.264-1.866-2.348-1.866a2.257,2.257,0,0,0-2.255,2.255c0,1.618,1,3.442,3.227,5.911.915,1.013,1.862,2.06,2.179,2.06s1.3-1.1,2.162-2.057c2.234-2.471,3.23-4.3,3.23-5.915a2.257,2.257,0,0,0-2.255-2.254C218.786,213.657,218.238,214.093,217.523,215.524Z" transform="translate(-110.834 -127.863)" fill="#d73a3a" fill-rule="evenodd"/>
    </g>
  </g>
</svg>
