<svg xmlns="http://www.w3.org/2000/svg" xmlns:xlink="http://www.w3.org/1999/xlink" width="126.376" height="126.376" viewBox="0 0 126.376 126.376">
  <defs>
    <filter id="Path_874925" x="0" y="0" width="126.376" height="126.376" filterUnits="userSpaceOnUse">
      <feOffset dy="3" input="SourceAlpha"/>
      <feGaussianBlur stdDeviation="3" result="blur"/>
      <feFlood flood-opacity="0.161"/>
      <feComposite operator="in" in2="blur"/>
      <feComposite in="SourceGraphic"/>
    </filter>
    <clipPath id="clip-path">
      <path id="path810" d="M0-682.665H67.44v67.44H0Z" transform="translate(0 682.665)"/>
    </clipPath>
  </defs>
  <g id="Group_1206949" data-name="Group 1206949" transform="translate(6119 8712)">
    <g id="Group_1205988" data-name="Group 1205988" transform="translate(-7215.051 -12584)">
      <g id="Group_1205731" data-name="Group 1205731" transform="translate(359 -295)">
        <g id="Group_1205682" data-name="Group 1205682" transform="translate(461.051 -2077.874)">
          <g id="Group_1200232" data-name="Group 1200232" transform="translate(285 6250.874)">
            <g id="Group_1187153" data-name="Group 1187153">
              <g id="Group_1182177" data-name="Group 1182177">
                <g id="Group_1181903" data-name="Group 1181903">
                  <g id="Group_1181438" data-name="Group 1181438">
                    <g id="Group_1111314" data-name="Group 1111314">
                      <g transform="matrix(1, 0, 0, 1, -9, -6)" filter="url(#Path_874925)">
                        <g id="Path_874925-2" data-name="Path 874925" transform="translate(9 6)" fill="#ffc94a">
                          <path d="M 54.1878662109375 106.8763656616211 C 47.07439041137695 106.8763656616211 40.17448043823242 105.4835205078125 33.67983627319336 102.7365036010742 C 27.40597343444824 100.0828857421875 21.77115821838379 96.28368377685547 16.93191146850586 91.44444274902344 C 12.09268188476562 86.60519409179688 8.293481826782227 80.97038269042969 5.639866352081299 74.696533203125 C 2.892850875854492 68.20187377929688 1.500004649162292 61.30196380615234 1.500004649162292 54.1884880065918 C 1.500004649162292 47.07439422607422 2.892850875854492 40.17448806762695 5.639866352081299 33.67982482910156 C 8.293481826782227 27.40597915649414 12.09268188476562 21.77116394042969 16.93191146850586 16.93191719055176 C 21.77115821838379 12.09267139434814 27.40597343444824 8.293471336364746 33.67983627319336 5.639855861663818 C 40.17448043823242 2.892840623855591 47.07439041137695 1.499994397163391 54.1878662109375 1.499994397163391 C 61.30134201049805 1.499994397163391 68.20124816894531 2.892840623855591 74.69589996337891 5.639855861663818 C 80.96975708007812 8.293471336364746 86.60457611083984 12.09267139434814 91.44381713867188 16.93191719055176 C 96.28305053710938 21.77116394042969 100.0822525024414 27.40597915649414 102.7358627319336 33.67982482910156 C 105.4828796386719 40.17448806762695 106.8757247924805 47.07439422607422 106.8757247924805 54.18787002563477 C 106.8757247924805 61.30196380615234 105.4828796386719 68.20187377929688 102.7358627319336 74.696533203125 C 100.0822525024414 80.97038269042969 96.28305053710938 86.60519409179688 91.44381713867188 91.44444274902344 C 86.60457611083984 96.28368377685547 80.96975708007812 100.0828857421875 74.69589996337891 102.7365036010742 C 68.20124816894531 105.4835205078125 61.30134201049805 106.8763656616211 54.1878662109375 106.8763656616211 Z" stroke="none"/>
                          <path d="M 54.1878662109375 2.999992370605469 C 47.2762336730957 2.999992370605469 40.57291412353516 4.352981567382812 34.26416778564453 7.0213623046875 C 28.16909790039062 9.599342346191406 22.69454956054688 13.29059600830078 17.99258422851562 17.99257659912109 C 13.29059600830078 22.69454193115234 9.599349975585938 28.16909790039062 7.021369934082031 34.26416015625 C 4.352981567382812 40.57292938232422 3 47.27622985839844 3 54.18849563598633 C 3 61.10012817382812 4.352981567382812 67.80344390869141 7.021369934082031 74.11219787597656 C 9.599349975585938 80.20726013183594 13.29059600830078 85.68180847167969 17.99258422851562 90.38378143310547 C 22.69454956054688 95.08576202392578 28.16909790039062 98.77701568603516 34.26416778564453 101.3549957275391 C 40.57291412353516 104.0233764648438 47.2762336730957 105.3763656616211 54.1878662109375 105.3763656616211 C 61.0994987487793 105.3763656616211 67.80281066894531 104.0233764648438 74.11156463623047 101.3549957275391 C 80.20663452148438 98.77701568603516 85.68118286132812 95.08576202392578 90.38314819335938 90.38378143310547 C 95.08512878417969 85.68180847167969 98.77638244628906 80.20726013183594 101.3543701171875 74.11219787597656 C 104.0227508544922 67.80344390869141 105.375732421875 61.10012817382812 105.375732421875 54.1878776550293 C 105.375732421875 47.27622985839844 104.0227508544922 40.57292938232422 101.3543701171875 34.26416015625 C 98.77638244628906 28.16909790039062 95.08512878417969 22.69454193115234 90.38314819335938 17.99257659912109 C 85.68118286132812 13.29059600830078 80.20663452148438 9.599342346191406 74.11156463623047 7.0213623046875 C 67.80281066894531 4.352981567382812 61.0994987487793 2.999992370605469 54.1878662109375 2.999992370605469 M 54.1878662109375 -7.62939453125e-06 C 84.11499786376953 -7.62939453125e-06 108.375732421875 24.26072692871094 108.375732421875 54.1878776550293 L 108.375732421875 54.18849563598633 C 108.375732421875 84.11563110351562 84.11499786376953 108.3763656616211 54.1878662109375 108.3763656616211 C 24.26073455810547 108.3763656616211 0 84.11563110351562 0 54.18849563598633 L 0 54.1878776550293 C 0 24.26072692871094 24.26073455810547 -7.62939453125e-06 54.1878662109375 -7.62939453125e-06 Z" stroke="none" fill="#fff"/>
                        </g>
                      </g>
                    </g>
                  </g>
                </g>
              </g>
            </g>
          </g>
        </g>
      </g>
    </g>
    <g id="g804" transform="translate(-6089 -8003.335)">
      <g id="g806" transform="translate(0 -682.665)">
        <g id="g808" clip-path="url(#clip-path)">
          <g id="g814" transform="translate(43.731 17.387)">
            <path id="path816" d="M-102.058-109.347h-10.388a.8.8,0,0,1-.8-.8v-10.388a.8.8,0,0,1,.8-.8h10.388a.8.8,0,0,1,.8.8v10.388a.8.8,0,0,1-.8.8" transform="translate(113.245 121.333)" fill="#cb97e7"/>
          </g>
          <g id="g818" transform="translate(43.731 17.387)">
            <path id="path820" d="M-38.452-102.056v-10.388a.8.8,0,0,1,.8-.8h-4.215a.8.8,0,0,0-.8.8v10.388a.8.8,0,0,0,.8.8h4.215a.8.8,0,0,1-.8-.8" transform="translate(42.667 113.244)" fill="#bd80e1"/>
          </g>
          <g id="g822" transform="translate(42.743 16.399)">
            <path id="path824" d="M-119.158-30.7h-10.388a1.789,1.789,0,0,1-1.787-1.787V-42.88a1.789,1.789,0,0,1,1.787-1.787h10.388a1.789,1.789,0,0,1,1.787,1.787v2.626a.988.988,0,0,1-.988.988.988.988,0,0,1-.988-.988v-2.437h-10.011V-32.68h10.011v-2.964a.988.988,0,0,1,.988-.988.988.988,0,0,1,.988.988v3.153A1.789,1.789,0,0,1-119.158-30.7Z" transform="translate(131.333 44.667)"/>
          </g>
          <g id="g826" transform="translate(9.03 25.088)">
            <path id="path828" d="M-142.695-162.057l6.529-17.764h-22.171l6.529,17.764Z" transform="translate(158.337 179.821)" fill="#fff0ad"/>
          </g>
          <g id="g830" transform="translate(9.03 25.088)">
            <path id="path832" d="M0,0,6.529,17.764h5.549L5.549,0Z" fill="#ffe177"/>
          </g>
          <g id="g834" transform="translate(8.042 24.1)">
            <path id="path836" d="M-151.707-170.081h-9.113a.988.988,0,0,1-.927-.647l-6.529-17.764a.988.988,0,0,1,.117-.906.988.988,0,0,1,.81-.423h22.171a.988.988,0,0,1,.81.423.988.988,0,0,1,.117.906l-6.529,17.764A.988.988,0,0,1-151.707-170.081Zm-8.423-1.976h7.734l5.8-15.789h-19.34Z" transform="translate(168.337 189.821)"/>
          </g>
          <g id="g838" transform="translate(16.597 49.375)">
            <path id="path840" d="M-46.178-59.292h-3.086a1.976,1.976,0,0,1-1.976-1.976v-2.548a1.976,1.976,0,0,1,1.976-1.976h3.086A1.976,1.976,0,0,1-44.2-63.816v2.548a1.976,1.976,0,0,1-1.976,1.976" transform="translate(51.24 65.792)" fill="#02c7dd"/>
          </g>
          <g id="g842" transform="translate(15.609 48.387)">
            <path id="path844" d="M-55.19-67.317h-3.086A2.967,2.967,0,0,1-61.24-70.28v-2.548a2.967,2.967,0,0,1,2.964-2.964h3.086a2.967,2.967,0,0,1,2.964,2.964v2.548A2.967,2.967,0,0,1-55.19-67.317Zm-3.086-6.5a.989.989,0,0,0-.988.988v2.548a.989.989,0,0,0,.988.988h3.086a.989.989,0,0,0,.988-.988v-2.548a.989.989,0,0,0-.988-.988Z" transform="translate(61.24 75.792)"/>
          </g>
          <g id="g846" transform="translate(14.941 45.475)">
            <path id="path848" d="M-88.4-59.292h-9.032a.659.659,0,0,1-.659-.659v-5.182a.659.659,0,0,1,.659-.659H-88.4a.659.659,0,0,1,.659.659v5.182a.659.659,0,0,1-.659.659" transform="translate(98.092 65.792)" fill="#a6e7f0"/>
          </g>
          <g id="g850" transform="translate(13.953 44.487)">
            <path id="path852" d="M-97.413-67.316h-9.032a1.648,1.648,0,0,1-1.646-1.646v-5.182a1.648,1.648,0,0,1,1.646-1.646h9.032a1.648,1.648,0,0,1,1.646,1.646v5.182A1.648,1.648,0,0,1-97.413-67.316Zm-8.7-1.976h8.373v-4.524h-8.373Z" transform="translate(108.092 75.792)"/>
          </g>
          <g id="g854" transform="translate(4.712 6.348)">
            <path id="path856" d="M-281.045-140.522a15.4,15.4,0,0,1-15.4,15.4,15.4,15.4,0,0,1-15.4-15.4,15.4,15.4,0,0,1,15.4-15.4,15.4,15.4,0,0,1,15.4,15.4" transform="translate(311.853 155.926)" fill="#ffe177"/>
          </g>
          <g id="g858" transform="translate(4.712 6.348)">
            <path id="path860" d="M-60.488-140.522A15.409,15.409,0,0,1-48.4-155.567a15.462,15.462,0,0,0-3.315-.359,15.4,15.4,0,0,0-15.4,15.4,15.4,15.4,0,0,0,15.4,15.4,15.461,15.461,0,0,0,3.315-.359,15.409,15.409,0,0,1-12.088-15.045" transform="translate(67.118 155.926)" fill="#ffd15c"/>
          </g>
          <g id="g862" transform="translate(3.724 5.36)">
            <path id="path864" d="M-294.731-190.088a16.41,16.41,0,0,1-16.392-16.392,16.41,16.41,0,0,1,16.392-16.392A16.41,16.41,0,0,1-278.34-206.48a16.317,16.317,0,0,1-1.128,5.987.988.988,0,0,1-1.281.559.988.988,0,0,1-.559-1.281,14.349,14.349,0,0,0,.992-5.265A14.432,14.432,0,0,0-294.731-220.9a14.432,14.432,0,0,0-14.416,14.416,14.432,14.432,0,0,0,14.416,14.416,14.356,14.356,0,0,0,11.255-5.409.988.988,0,0,1,1.389-.153.988.988,0,0,1,.153,1.389A16.323,16.323,0,0,1-294.731-190.088Z" transform="translate(311.123 222.871)"/>
          </g>
          <g id="g866" transform="translate(10.938 19.789)">
            <path id="path868" d="M-35.694-61.388A3.917,3.917,0,0,1-39.607-65.3a3.917,3.917,0,0,1,3.913-3.913A3.917,3.917,0,0,1-31.781-65.3a.988.988,0,0,1-.988.988.988.988,0,0,1-.988-.988,1.939,1.939,0,0,0-1.937-1.937A1.939,1.939,0,0,0-37.631-65.3a1.939,1.939,0,0,0,1.937,1.937.988.988,0,0,1,.988.988A.988.988,0,0,1-35.694-61.388Z" transform="translate(39.607 69.213)"/>
          </g>
          <g id="g870" transform="translate(21.467 19.789)">
            <path id="path872" d="M-6.087-31.781a.988.988,0,0,1-.988-.988.988.988,0,0,1,.988-.988A1.939,1.939,0,0,0-4.15-35.694a1.939,1.939,0,0,0-1.937-1.937,1.939,1.939,0,0,0-1.937,1.937.988.988,0,0,1-.988.988A.988.988,0,0,1-10-35.694a3.917,3.917,0,0,1,3.913-3.913,3.917,3.917,0,0,1,3.913,3.913A3.917,3.917,0,0,1-6.087-31.781Z" transform="translate(10 39.607)"/>
          </g>
          <g id="g874" transform="translate(13.863 25.639)">
            <path id="path876" d="M0,0H10.529" transform="translate(0.988 0.988)" fill="#fff"/>
            <path id="path876_-_Contorno" data-name="path876 - Contorno" d="M1.517-8.024H-9.012A.988.988,0,0,1-10-9.012.988.988,0,0,1-9.012-10H1.517a.988.988,0,0,1,.988.988A.988.988,0,0,1,1.517-8.024Z" transform="translate(10 10)"/>
          </g>
          <g id="g878" transform="translate(16.788 22.714)">
            <path id="path880" d="M0,0V20.343" transform="translate(0.988 0.988)" fill="#fff"/>
            <path id="path880_-_Contorno" data-name="path880 - Contorno" d="M-9.012,12.319A.988.988,0,0,1-10,11.331V-9.012A.988.988,0,0,1-9.012-10a.988.988,0,0,1,.988.988V11.331A.988.988,0,0,1-9.012,12.319Z" transform="translate(10 10)"/>
          </g>
          <g id="g882" transform="translate(21.467 22.714)">
            <path id="path884" d="M0,0V20.343" transform="translate(0.988 0.988)" fill="#fff"/>
            <path id="path884_-_Contorno" data-name="path884 - Contorno" d="M-9.012,12.319A.988.988,0,0,1-10,11.331V-9.012A.988.988,0,0,1-9.012-10a.988.988,0,0,1,.988.988V11.331A.988.988,0,0,1-9.012,12.319Z" transform="translate(10 10)"/>
          </g>
          <g id="g886" transform="translate(12.965 41.446)">
            <path id="path888" d="M-118.442-59.292h-11.666a1.317,1.317,0,0,1-1.317-1.317v-3.865a1.317,1.317,0,0,1,1.317-1.317h11.666a1.317,1.317,0,0,1,1.317,1.317v3.865a1.317,1.317,0,0,1-1.317,1.317" transform="translate(131.425 65.792)" fill="#eaf9fa"/>
          </g>
          <g id="g890" transform="translate(11.977 40.458)">
            <path id="path892" d="M-96.787-67.317h-3.03a.988.988,0,0,1-.988-.988.988.988,0,0,1,.988-.988h3.03a.33.33,0,0,0,.329-.329v-3.865a.33.33,0,0,0-.329-.329h-11.666a.33.33,0,0,0-.329.329v3.865a.33.33,0,0,0,.329.329h4.027a.988.988,0,0,1,.988.988.988.988,0,0,1-.988.988h-4.027a2.308,2.308,0,0,1-2.305-2.305v-3.865a2.308,2.308,0,0,1,2.305-2.305h11.666a2.308,2.308,0,0,1,2.305,2.305v3.865A2.308,2.308,0,0,1-96.787-67.317Z" transform="translate(110.758 75.792)"/>
          </g>
          <g id="g894" transform="translate(32.55 36.274)">
            <path id="path896" d="M-235.891-143.9a4.626,4.626,0,0,1-2.947-.8.4.4,0,0,0-.625.321v6.334a.659.659,0,0,1-.659.659h-6.334a.4.4,0,0,0-.321.626,4.625,4.625,0,0,1,.8,2.947,4.659,4.659,0,0,1-4.3,4.309,4.643,4.643,0,0,1-4.971-4.632,4.618,4.618,0,0,1,.821-2.636.394.394,0,0,0-.329-.614h-6.334a.659.659,0,0,1-.659-.659v-4.974a.654.654,0,0,1,.709-.657,4.727,4.727,0,0,0,.739.013,4.659,4.659,0,0,0,4.344-4.3,4.643,4.643,0,0,0-4.631-4.974q-.219,0-.433.02a.66.66,0,0,1-.728-.654v-5.439a.659.659,0,0,1,.659-.659h5.186a.656.656,0,0,1,.657.673q0,.069,0,.139a4.643,4.643,0,0,0,4.643,4.643,4.643,4.643,0,0,0,4.643-4.643c0-.046,0-.093,0-.139a.656.656,0,0,1,.657-.673h5.186a.659.659,0,0,1,.659.659v6.334a.394.394,0,0,0,.614.329,4.619,4.619,0,0,1,2.636-.821,4.643,4.643,0,0,1,4.631,4.971,4.659,4.659,0,0,1-4.309,4.3" transform="translate(261.749 159.678)" fill="#fe9738"/>
          </g>
          <g id="g898" transform="translate(32.55 36.274)">
            <path id="path900" d="M-235.891-143.9a4.626,4.626,0,0,1-2.947-.8.4.4,0,0,0-.625.321v6.334a.659.659,0,0,1-.659.659h-6.334a.4.4,0,0,0-.321.626,4.625,4.625,0,0,1,.8,2.947,4.659,4.659,0,0,1-4.3,4.309,4.643,4.643,0,0,1-4.971-4.632,4.618,4.618,0,0,1,.821-2.636.394.394,0,0,0-.329-.614h-6.334a.659.659,0,0,1-.659-.659v-4.974a.654.654,0,0,1,.709-.657,4.727,4.727,0,0,0,.739.013,4.659,4.659,0,0,0,4.344-4.3,4.643,4.643,0,0,0-4.631-4.974q-.219,0-.433.02a.66.66,0,0,1-.728-.654v-5.439a.659.659,0,0,1,.659-.659h5.186a.656.656,0,0,1,.657.673q0,.069,0,.139a4.643,4.643,0,0,0,4.643,4.643,4.643,4.643,0,0,0,4.643-4.643c0-.046,0-.093,0-.139a.656.656,0,0,1,.657-.673h5.186a.659.659,0,0,1,.659.659v6.334a.394.394,0,0,0,.614.329,4.619,4.619,0,0,1,2.636-.821,4.643,4.643,0,0,1,4.631,4.971,4.659,4.659,0,0,1-4.309,4.3" transform="translate(261.749 159.678)" fill="#fe9738"/>
          </g>
          <g id="g902" transform="translate(32.55 36.274)">
            <path id="path904" d="M-6.638-61.6q.214-.02.433-.02a4.633,4.633,0,0,1,3.551,1.652v-7.725A.659.659,0,0,1-2-68.348H-6.707a.659.659,0,0,0-.659.659v5.439a.661.661,0,0,0,.728.654" transform="translate(7.365 68.348)" fill="#fe860a"/>
          </g>
          <g id="g906" transform="translate(32.55 50.633)">
            <path id="path908" d="M-42.982-66.3v-7.268a4.639,4.639,0,0,1-3.263,1.65,4.742,4.742,0,0,1-.739-.013.655.655,0,0,0-.709.657V-66.3a.659.659,0,0,0,.659.659h4.712a.659.659,0,0,1-.659-.659" transform="translate(47.693 73.572)" fill="#fe860a"/>
          </g>
          <g id="g910" transform="translate(31.562 35.286)">
            <path id="path912" d="M-259.618-137.524a5.594,5.594,0,0,1-3.982-1.649,5.594,5.594,0,0,1-1.649-3.982,5.605,5.605,0,0,1,.473-2.262H-270.1a1.648,1.648,0,0,1-1.646-1.646v-4.974a1.643,1.643,0,0,1,1.635-1.648c.032,0,.125,0,.157.008a3.736,3.736,0,0,0,.585.01,3.654,3.654,0,0,0,3.418-3.385,3.629,3.629,0,0,0-.973-2.755,3.62,3.62,0,0,0-2.673-1.162q-.173,0-.342.016c-.03,0-.124.007-.155.007a1.647,1.647,0,0,1-1.159-.472,1.629,1.629,0,0,1-.493-1.173v-5.439a1.648,1.648,0,0,1,1.646-1.646h5.186a1.657,1.657,0,0,1,1.183.5,1.626,1.626,0,0,1,.462,1.191l0,.109a3.659,3.659,0,0,0,3.655,3.655,3.659,3.659,0,0,0,3.655-3.655l0-.111a1.624,1.624,0,0,1,.462-1.189,1.657,1.657,0,0,1,1.183-.5h5.186a1.648,1.648,0,0,1,1.646,1.646v5.326a5.606,5.606,0,0,1,2.262-.473,5.651,5.651,0,0,1,4.116,1.789,5.585,5.585,0,0,1,1.5,4.238,5.641,5.641,0,0,1-5.228,5.221,5.6,5.6,0,0,1-2.651-.46v5.327a1.648,1.648,0,0,1-1.646,1.646h-5.326a5.6,5.6,0,0,1,.459,2.652,5.642,5.642,0,0,1-5.221,5.228C-259.355-137.529-259.487-137.524-259.618-137.524Zm-10.155-9.869h6a1.382,1.382,0,0,1,1.227.743,1.371,1.371,0,0,1-.086,1.421,3.63,3.63,0,0,0-.646,2.074,3.631,3.631,0,0,0,1.07,2.585,3.629,3.629,0,0,0,2.845,1.061,3.658,3.658,0,0,0,3.386-3.39,3.625,3.625,0,0,0-.631-2.321,1.389,1.389,0,0,1-.086-1.437,1.376,1.376,0,0,1,1.221-.736h6v-6a1.384,1.384,0,0,1,1.384-1.381,1.388,1.388,0,0,1,.789.246,3.629,3.629,0,0,0,2.321.631,3.658,3.658,0,0,0,3.39-3.385,3.629,3.629,0,0,0-.974-2.754,3.619,3.619,0,0,0-2.672-1.161,3.631,3.631,0,0,0-2.074.646,1.365,1.365,0,0,1-.779.244,1.386,1.386,0,0,1-1.384-1.386v-6h-4.527a5.638,5.638,0,0,1-5.628,5.455,5.638,5.638,0,0,1-5.628-5.455h-4.527v4.759l.173,0a5.651,5.651,0,0,1,4.118,1.79,5.585,5.585,0,0,1,1.5,4.24,5.635,5.635,0,0,1-5.27,5.221q-.262.016-.52.008Z" transform="translate(271.749 169.678)"/>
          </g>
          <g id="g914" transform="translate(28.654 0.988)">
            <path id="path916" d="M-196.215-98.107a10.754,10.754,0,0,1-10.754,10.754,10.754,10.754,0,0,1-10.754-10.754,10.754,10.754,0,0,1,10.754-10.754,10.754,10.754,0,0,1,10.754,10.754" transform="translate(217.723 108.861)" fill="#05e39c"/>
          </g>
          <g id="g918" transform="translate(28.654 0.988)">
            <path id="path920" d="M-50.673-98.107A10.757,10.757,0,0,1-42.7-108.5a10.765,10.765,0,0,0-2.777-.364A10.754,10.754,0,0,0-56.228-98.107,10.754,10.754,0,0,0-45.473-87.352a10.765,10.765,0,0,0,2.777-.364,10.757,10.757,0,0,1-7.977-10.39" transform="translate(56.228 108.861)" fill="#0ed290"/>
          </g>
          <g id="g922" transform="translate(27.666 0)">
            <path id="path924" d="M-215.981-118.861a11.756,11.756,0,0,1,11.742,11.742,11.756,11.756,0,0,1-11.742,11.742,11.756,11.756,0,0,1-11.742-11.742A11.756,11.756,0,0,1-215.981-118.861Zm0,21.509a9.777,9.777,0,0,0,9.766-9.766,9.777,9.777,0,0,0-9.766-9.766,9.778,9.778,0,0,0-9.767,9.766A9.778,9.778,0,0,0-215.981-97.352Z" transform="translate(227.723 118.861)"/>
          </g>
          <g id="g926" transform="translate(32.974 7.755)">
            <path id="path928" d="M-4.592-21.5H-4.6a.988.988,0,0,1-.743-.351L-9.768-27.1a.988.988,0,0,1,.119-1.392.988.988,0,0,1,1.392.119l3.683,4.374L1.14-30.439a.988.988,0,0,1,1.395-.084.988.988,0,0,1,.084,1.395l-6.472,7.3A.988.988,0,0,1-4.592-21.5Z" transform="translate(10 30.772)"/>
          </g>
        </g>
      </g>
    </g>
  </g>
</svg>
