<svg xmlns="http://www.w3.org/2000/svg" xmlns:xlink="http://www.w3.org/1999/xlink" width="111.776" height="111.776" viewBox="0 0 111.776 111.776">
  <defs>
    <filter id="Path_874925" x="0" y="0" width="111.776" height="111.776" filterUnits="userSpaceOnUse">
      <feOffset dy="3" input="SourceAlpha"/>
      <feGaussianBlur stdDeviation="3" result="blur"/>
      <feFlood flood-opacity="0.161"/>
      <feComposite operator="in" in2="blur"/>
      <feComposite in="SourceGraphic"/>
    </filter>
  </defs>
  <g id="Group_1207354" data-name="Group 1207354" transform="translate(-1212.051 -5646)">
    <g id="Group_1206766" data-name="Group 1206766" transform="translate(416.051 3826.117)">
      <g id="Group_1204844" data-name="Group 1204844" transform="translate(520 -4424.991)">
        <g id="Group_1200232" data-name="Group 1200232" transform="translate(285 6250.874)">
          <g id="Group_1187153" data-name="Group 1187153">
            <g id="Group_1182177" data-name="Group 1182177">
              <g id="Group_1181903" data-name="Group 1181903">
                <g id="Group_1181438" data-name="Group 1181438">
                  <g id="Group_1111314" data-name="Group 1111314">
                    <g transform="matrix(1, 0, 0, 1, -9, -6)" filter="url(#Path_874925)">
                      <g id="Path_874925-2" data-name="Path 874925" transform="translate(9 6)" fill="#dcd9d3">
                        <path d="M 46.88790893554688 92.2763671875 C 40.75992202758789 92.2763671875 34.8160285949707 91.07652282714844 29.22134971618652 88.71018218994141 C 23.81676292419434 86.42423248291016 18.96264266967773 83.15139007568359 14.79381561279297 78.98255157470703 C 10.62497520446777 74.81372833251953 7.35213565826416 69.95960998535156 5.066188812255859 64.55502319335938 C 2.699842214584351 58.9603385925293 1.500002264976501 53.01644515991211 1.500002264976501 46.88844680786133 C 1.500002264976501 40.75992584228516 2.699842214584351 34.81603240966797 5.066188812255859 29.22135353088379 C 7.35213565826416 23.8167667388916 10.62497520446777 18.962646484375 14.79381561279297 14.79381942749023 C 18.96264266967773 10.62497997283936 23.81676292419434 7.352139949798584 29.22134971618652 5.066193103790283 C 34.8160285949707 2.699846506118774 40.75992202758789 1.500006437301636 46.88790893554688 1.500006437301636 C 53.01589584350586 1.500006437301636 58.95978927612305 2.699846506118774 64.55446624755859 5.066193103790283 C 69.95905303955078 7.352139949798584 74.81317901611328 10.62497997283936 78.98200225830078 14.79381942749023 C 83.15084075927734 18.962646484375 86.42368316650391 23.8167667388916 88.70962524414062 29.22135353088379 C 91.07597351074219 34.81603240966797 92.27581787109375 40.75992584228516 92.27581787109375 46.88791275024414 C 92.27581787109375 53.01644515991211 91.07597351074219 58.9603385925293 88.70962524414062 64.55502319335938 C 86.42368316650391 69.95960998535156 83.15084075927734 74.81372833251953 78.98200225830078 78.98255157470703 C 74.81317901611328 83.15139007568359 69.95905303955078 86.42423248291016 64.55446624755859 88.71018218994141 C 58.95978927612305 91.07652282714844 53.01589584350586 92.2763671875 46.88790893554688 92.2763671875 Z" stroke="none"/>
                        <path d="M 46.88790893554688 2.999992370605469 C 40.96175003051758 2.999992370605469 35.2144660949707 4.159965515136719 29.80567932128906 6.44769287109375 C 24.57989501953125 8.658004760742188 19.88602447509766 11.82290649414062 15.85446929931641 15.85446929931641 C 11.82290649414062 19.88602447509766 8.658012390136719 24.57989501953125 6.44769287109375 29.80567932128906 C 4.159965515136719 35.2144660949707 2.999992370605469 40.96175003051758 2.999992370605469 46.88845062255859 C 2.999992370605469 52.81460952758789 4.159965515136719 58.56189346313477 6.44769287109375 63.97069549560547 C 8.658012390136719 69.19646453857422 11.82290649414062 73.89033508300781 15.85446929931641 77.92189025878906 C 19.88602447509766 81.95343780517578 24.57989501953125 85.11833953857422 29.80567932128906 87.32865142822266 C 35.2144660949707 89.61637878417969 40.96175003051758 90.77635192871094 46.88790893554688 90.77635192871094 C 52.81406784057617 90.77635192871094 58.56135177612305 89.61637878417969 63.97013854980469 87.32865142822266 C 69.1959228515625 85.11833953857422 73.88979339599609 81.95343780517578 77.92134857177734 77.92189025878906 C 81.95291137695312 73.89033508300781 85.11781311035156 69.19646453857422 87.328125 63.97069549560547 C 89.61585235595703 58.56189346313477 90.77582550048828 52.81460952758789 90.77582550048828 46.88790893554688 C 90.77582550048828 40.96175003051758 89.61585235595703 35.2144660949707 87.328125 29.80567932128906 C 85.11781311035156 24.57989501953125 81.95291137695312 19.88602447509766 77.92134857177734 15.85446929931641 C 73.88979339599609 11.82290649414062 69.1959228515625 8.658004760742188 63.97013854980469 6.44769287109375 C 58.56135177612305 4.159965515136719 52.81406784057617 2.999992370605469 46.88790893554688 2.999992370605469 M 46.88790893554688 -7.62939453125e-06 C 72.78337860107422 -7.62939453125e-06 93.77582550048828 20.99243927001953 93.77582550048828 46.88790893554688 L 93.77582550048828 46.88845062255859 C 93.77582550048828 72.783935546875 72.78337860107422 93.77635192871094 46.88790893554688 93.77635192871094 C 20.99243927001953 93.77635192871094 -7.62939453125e-06 72.783935546875 -7.62939453125e-06 46.88845062255859 L -7.62939453125e-06 46.88790893554688 C -7.62939453125e-06 20.99243927001953 20.99243927001953 -7.62939453125e-06 46.88790893554688 -7.62939453125e-06 Z" stroke="none" fill="#fff"/>
                      </g>
                    </g>
                  </g>
                </g>
              </g>
            </g>
          </g>
        </g>
      </g>
    </g>
    <g id="cultural_12182841" transform="translate(1213.053 5643.939)">
      <path id="Path_1271953" data-name="Path 1271953" d="M86.956,279.828a28.171,28.171,0,0,1-55.956,0Z" transform="translate(-4.38 -221.336)" fill="#60b7ff" fill-rule="evenodd"/>
      <path id="Path_1271954" data-name="Path 1271954" d="M82.144,279.828a12.281,12.281,0,0,0,2.292,5.774c1.44,2.126,11.372,14.648,12.36,9.978,2.047-9.671,1.456-13.529-.375-15.752Zm34.835,0a8.111,8.111,0,0,1,.2,2.506c-.727,13.836,10.506,7.345,11.582-2.506Z" transform="translate(-49.165 -221.336)" fill="#00e499" fill-rule="evenodd"/>
      <path id="Path_1271955" data-name="Path 1271955" d="M42.7,96.467a8.911,8.911,0,0,1,6.258,8.482l-8.98,6.945L31,104.949a8.911,8.911,0,0,1,6.255-8.481h0a2.821,2.821,0,1,1,5.452,0Z" transform="translate(-4.38 -57.668)" fill="#615260" fill-rule="evenodd"/>
      <path id="Path_1271956" data-name="Path 1271956" d="M61.787,153.232c3.249,0,5.883,1.445,5.883,5.236s-2.634,6.864-5.883,6.864-5.883-3.073-5.883-6.864,2.634-5.236,5.883-5.236Z" transform="translate(-26.188 -110.482)" fill="#f1cbbc" fill-rule="evenodd"/>
      <circle id="Ellipse_13041" data-name="Ellipse 13041" cx="6.231" cy="6.231" r="6.231" transform="translate(48.146 32.055)" fill="#f1cbbc"/>
      <path id="Path_1271957" data-name="Path 1271957" d="M192.733,36.4a2.212,2.212,0,0,1,.72,1.535c0,2.31-4.635,4.183-10.352,4.183s-10.352-1.873-10.352-4.183a2.213,2.213,0,0,1,.72-1.535,40.393,40.393,0,0,0,4.35.639V33.665a1.61,1.61,0,0,1,1.606-1.606h7.354a1.61,1.61,0,0,1,1.606,1.606v3.372A40.366,40.366,0,0,0,192.733,36.4Z" transform="translate(-128.502 -4.377)" fill="#c49e6c" fill-rule="evenodd"/>
      <path id="Path_1271958" data-name="Path 1271958" d="M368.5,128.1h13.988v8.231a6.994,6.994,0,0,1-13.989,0V128.1Z" transform="translate(-299.917 -88.472)" fill="#f1cbbc" fill-rule="evenodd"/>
      <path id="Path_1271959" data-name="Path 1271959" d="M77.11,43.543a.623.623,0,0,1,.851-.225,2.3,2.3,0,0,0,1.323,0,.622.622,0,0,1,.673,1.047,2.745,2.745,0,0,1-1.334.293,2.86,2.86,0,0,1-1.287-.265A.622.622,0,0,1,77.11,43.543Zm-6.1,0a.623.623,0,0,1,.851-.225,2.3,2.3,0,0,0,1.323,0,.622.622,0,1,1,.671,1.047,2.741,2.741,0,0,1-1.333.293,2.86,2.86,0,0,1-1.287-.265A.622.622,0,0,1,71.008,43.543Zm4.573,6.664a2.777,2.777,0,0,0,2.314-1.02.622.622,0,0,1,1.04.682,3.976,3.976,0,0,1-3.354,1.581,4.062,4.062,0,0,1-3.275-1.467.621.621,0,1,1,1-.732,2.857,2.857,0,0,0,2.272.956Zm6.373-2.352v-7.61H69.209v7.61a6.373,6.373,0,1,0,12.745,0ZM82.576,39H68.587a.622.622,0,0,0-.622.622v8.231a7.616,7.616,0,1,0,15.233,0V39.624A.622.622,0,0,0,82.576,39ZM45.2,32.7c1.247.245,2.61.439,4.061.577a.622.622,0,0,0,.681-.619V29.288a.985.985,0,0,1,.984-.984h7.353a.985.985,0,0,1,.984.984v3.371a.622.622,0,0,0,.681.619c1.45-.138,2.815-.332,4.061-.577a1.417,1.417,0,0,1,.328.854c0,1.685-4,3.562-9.731,3.562s-9.73-1.877-9.73-3.562A1.418,1.418,0,0,1,45.2,32.7Zm14.791,5.585a5.61,5.61,0,0,1-11.219,0,5.792,5.792,0,0,1,.034-.621,23.1,23.1,0,0,0,5.8.7,23.617,23.617,0,0,0,5.365-.588C59.978,37.944,59.986,38.114,59.986,38.286Zm-12.942-1.2c.179.072.364.14.553.207a6.931,6.931,0,0,0-.073.989,6.853,6.853,0,1,0,13.651-.848c.339-.107.666-.223.975-.348,2.206-.89,3.421-2.146,3.421-3.534a2.8,2.8,0,0,0-.9-1.97.624.624,0,0,0-.572-.174c-1.1.231-2.313.417-3.6.558V29.288a2.229,2.229,0,0,0-2.228-2.227H50.921a2.229,2.229,0,0,0-2.228,2.227V31.97c-1.289-.142-2.5-.328-3.6-.558a.622.622,0,0,0-.571.174,2.8,2.8,0,0,0-.9,1.97c0,1.388,1.215,2.644,3.421,3.534ZM35.6,39a8.332,8.332,0,0,1,8.353,7.977l-1.86,1.438c.008-.143.012-.287.012-.431,0-3.723-2.371-5.858-6.505-5.858s-6.505,2.135-6.505,5.858c0,.144,0,.288.012.431L27.247,46.98A8.332,8.332,0,0,1,35.6,39Zm0-3.132a2.2,2.2,0,0,1,2.2,2.144,9.589,9.589,0,0,0-4.394,0A2.2,2.2,0,0,1,35.6,35.871Zm0,18.357c2.9,0,5.262-2.8,5.262-6.242,0-3.814-2.861-4.615-5.262-4.615s-5.262.8-5.262,4.615C30.338,51.428,32.7,54.228,35.6,54.228Zm-9.361-6.456,3.148,2.435A6.7,6.7,0,0,0,35.6,55.472a6.7,6.7,0,0,0,6.213-5.265l3.148-2.435a.617.617,0,0,0,.242-.491,9.54,9.54,0,0,0-6.175-8.892c.009-.105.016-.211.016-.318a3.443,3.443,0,0,0-6.887,0c0,.107.007.213.017.318A9.539,9.539,0,0,0,26,47.281a.618.618,0,0,0,.241.491ZM54.6,82.753A27.528,27.528,0,0,1,27.326,59.114h5.109a13.18,13.18,0,0,0,2.321,5.5,68.584,68.584,0,0,0,5.3,6.458c3.8,4.1,5.552,4.832,6.515,4.832a1.756,1.756,0,0,0,.353-.035,1.687,1.687,0,0,0,1.312-1.5c1.659-7.836,1.734-12.43.182-15.259H67.313a8.467,8.467,0,0,1,.08,1.85c-.39,7.425,2.629,8.473,3.945,8.58.1.008.2.011.295.011,1.7,0,3.654-1.145,5.29-3.119a15.205,15.205,0,0,0,3.221-7.323h1.726A27.528,27.528,0,0,1,54.6,82.753Zm-7.574-8.638c2.117-10,1.267-13.22-.069-15H33.694a12.168,12.168,0,0,0,2.092,4.8,68.5,68.5,0,0,0,5.184,6.31c4.144,4.464,5.49,4.468,5.718,4.423C46.745,74.637,46.919,74.6,47.023,74.115Zm21.547-15a9.969,9.969,0,0,1,.066,1.916c-.235,4.461.787,7.111,2.8,7.274,1.341.108,3.076-.912,4.527-2.663a13.906,13.906,0,0,0,2.917-6.528ZM82.576,57.87H26.619a.621.621,0,0,0-.618.693,28.792,28.792,0,0,0,57.191,0,.62.62,0,0,0-.617-.693Z" transform="translate(0)" fill-rule="evenodd"/>
    </g>
  </g>
</svg>
