<svg xmlns="http://www.w3.org/2000/svg" xmlns:xlink="http://www.w3.org/1999/xlink" width="111.776" height="111.776" viewBox="0 0 111.776 111.776">
  <defs>
    <filter id="Path_874925" x="0" y="0" width="111.776" height="111.776" filterUnits="userSpaceOnUse">
      <feOffset dy="3" input="SourceAlpha"/>
      <feGaussianBlur stdDeviation="3" result="blur"/>
      <feFlood flood-opacity="0.161"/>
      <feComposite operator="in" in2="blur"/>
      <feComposite in="SourceGraphic"/>
    </filter>
  </defs>
  <g id="Group_1207401" data-name="Group 1207401" transform="translate(-3794.173 5416.517)">
    <g id="Group_1206775" data-name="Group 1206775" transform="translate(2998.173 -7236.4)">
      <g id="Group_1204844" data-name="Group 1204844" transform="translate(520 -4424.991)">
        <g id="Group_1200232" data-name="Group 1200232" transform="translate(285 6250.874)">
          <g id="Group_1187153" data-name="Group 1187153">
            <g id="Group_1182177" data-name="Group 1182177">
              <g id="Group_1181903" data-name="Group 1181903">
                <g id="Group_1181438" data-name="Group 1181438">
                  <g id="Group_1111314" data-name="Group 1111314">
                    <g transform="matrix(1, 0, 0, 1, -9, -6)" filter="url(#Path_874925)">
                      <g id="Path_874925-2" data-name="Path 874925" transform="translate(9 6)" fill="#dcd9d3">
                        <path d="M 46.88790893554688 92.2763671875 C 40.75992202758789 92.2763671875 34.8160285949707 91.07652282714844 29.22134971618652 88.71018218994141 C 23.81676292419434 86.42423248291016 18.96264266967773 83.15139007568359 14.79381561279297 78.98255157470703 C 10.62497520446777 74.81372833251953 7.35213565826416 69.95960998535156 5.066188812255859 64.55502319335938 C 2.699842214584351 58.9603385925293 1.500002264976501 53.01644515991211 1.500002264976501 46.88844680786133 C 1.500002264976501 40.75992584228516 2.699842214584351 34.81603240966797 5.066188812255859 29.22135353088379 C 7.35213565826416 23.8167667388916 10.62497520446777 18.962646484375 14.79381561279297 14.79381942749023 C 18.96264266967773 10.62497997283936 23.81676292419434 7.352139949798584 29.22134971618652 5.066193103790283 C 34.8160285949707 2.699846506118774 40.75992202758789 1.500006437301636 46.88790893554688 1.500006437301636 C 53.01589584350586 1.500006437301636 58.95978927612305 2.699846506118774 64.55446624755859 5.066193103790283 C 69.95905303955078 7.352139949798584 74.81317901611328 10.62497997283936 78.98200225830078 14.79381942749023 C 83.15084075927734 18.962646484375 86.42368316650391 23.8167667388916 88.70962524414062 29.22135353088379 C 91.07597351074219 34.81603240966797 92.27581787109375 40.75992584228516 92.27581787109375 46.88791275024414 C 92.27581787109375 53.01644515991211 91.07597351074219 58.9603385925293 88.70962524414062 64.55502319335938 C 86.42368316650391 69.95960998535156 83.15084075927734 74.81372833251953 78.98200225830078 78.98255157470703 C 74.81317901611328 83.15139007568359 69.95905303955078 86.42423248291016 64.55446624755859 88.71018218994141 C 58.95978927612305 91.07652282714844 53.01589584350586 92.2763671875 46.88790893554688 92.2763671875 Z" stroke="none"/>
                        <path d="M 46.88790893554688 2.999992370605469 C 40.96175003051758 2.999992370605469 35.2144660949707 4.159965515136719 29.80567932128906 6.44769287109375 C 24.57989501953125 8.658004760742188 19.88602447509766 11.82290649414062 15.85446929931641 15.85446929931641 C 11.82290649414062 19.88602447509766 8.658012390136719 24.57989501953125 6.44769287109375 29.80567932128906 C 4.159965515136719 35.2144660949707 2.999992370605469 40.96175003051758 2.999992370605469 46.88845062255859 C 2.999992370605469 52.81460952758789 4.159965515136719 58.56189346313477 6.44769287109375 63.97069549560547 C 8.658012390136719 69.19646453857422 11.82290649414062 73.89033508300781 15.85446929931641 77.92189025878906 C 19.88602447509766 81.95343780517578 24.57989501953125 85.11833953857422 29.80567932128906 87.32865142822266 C 35.2144660949707 89.61637878417969 40.96175003051758 90.77635192871094 46.88790893554688 90.77635192871094 C 52.81406784057617 90.77635192871094 58.56135177612305 89.61637878417969 63.97013854980469 87.32865142822266 C 69.1959228515625 85.11833953857422 73.88979339599609 81.95343780517578 77.92134857177734 77.92189025878906 C 81.95291137695312 73.89033508300781 85.11781311035156 69.19646453857422 87.328125 63.97069549560547 C 89.61585235595703 58.56189346313477 90.77582550048828 52.81460952758789 90.77582550048828 46.88790893554688 C 90.77582550048828 40.96175003051758 89.61585235595703 35.2144660949707 87.328125 29.80567932128906 C 85.11781311035156 24.57989501953125 81.95291137695312 19.88602447509766 77.92134857177734 15.85446929931641 C 73.88979339599609 11.82290649414062 69.1959228515625 8.658004760742188 63.97013854980469 6.44769287109375 C 58.56135177612305 4.159965515136719 52.81406784057617 2.999992370605469 46.88790893554688 2.999992370605469 M 46.88790893554688 -7.62939453125e-06 C 72.78337860107422 -7.62939453125e-06 93.77582550048828 20.99243927001953 93.77582550048828 46.88790893554688 L 93.77582550048828 46.88845062255859 C 93.77582550048828 72.783935546875 72.78337860107422 93.77635192871094 46.88790893554688 93.77635192871094 C 20.99243927001953 93.77635192871094 -7.62939453125e-06 72.783935546875 -7.62939453125e-06 46.88845062255859 L -7.62939453125e-06 46.88790893554688 C -7.62939453125e-06 20.99243927001953 20.99243927001953 -7.62939453125e-06 46.88790893554688 -7.62939453125e-06 Z" stroke="none" fill="#fff"/>
                      </g>
                    </g>
                  </g>
                </g>
              </g>
            </g>
          </g>
        </g>
      </g>
    </g>
    <g id="location_14162924" transform="translate(3817.893 -5396.128)">
      <path id="Path_1272010" data-name="Path 1272010" d="M59,42.01l-10.1.79a4.965,4.965,0,0,0-3.96,2.62l-2.42,4.51a4.889,4.889,0,0,1-6.33,2.21l-1.62-.73a4.842,4.842,0,0,0-5.47,1.04l-6.95,7.08a4.841,4.841,0,0,1-5.57,1L5.86,55.39A5.1,5.1,0,0,1,3,50.77V32.11a5.027,5.027,0,0,1,4.95-5.1H12.2a5.006,5.006,0,0,1,4.93,4.67l.16,1.9a4.982,4.982,0,0,0,5.68,4.61l3.99-.63a4.908,4.908,0,0,1,5.16,2.74,4.883,4.883,0,0,0,6.8,2.17l2.95-1.67a4.808,4.808,0,0,1,2.99-.59l14.13,1.8Z" fill="#ddbeaa"/>
      <path id="Path_1272011" data-name="Path 1272011" d="M7,38h8l-2,3,2,3H7" fill="#ef9596"/>
      <path id="Path_1272012" data-name="Path 1272012" d="M5,21.99l10.1-.79a4.965,4.965,0,0,0,3.96-2.62l2.42-4.51a4.889,4.889,0,0,1,6.33-2.21l1.62.73a4.842,4.842,0,0,0,5.47-1.04l6.95-7.08a4.841,4.841,0,0,1,5.57-1L58.14,8.61A5.1,5.1,0,0,1,61,13.23V31.9A5.027,5.027,0,0,1,56.05,37H51.8a5.006,5.006,0,0,1-4.93-4.67l-.16-1.9a4.982,4.982,0,0,0-5.68-4.61l-3.99.63a4.908,4.908,0,0,1-5.16-2.74,4.883,4.883,0,0,0-6.8-2.17l-2.95,1.67a4.808,4.808,0,0,1-2.99.59L5.01,22Z" fill="#c2957f"/>
      <path id="Path_1272013" data-name="Path 1272013" d="M57,13H49l2,3-2,3h8" fill="#aadff1"/>
      <ellipse id="Ellipse_13049" data-name="Ellipse 13049" cx="5" cy="2" rx="5" ry="2" transform="translate(19 44)" fill="#fcd192"/>
      <ellipse id="Ellipse_13050" data-name="Ellipse 13050" cx="5" cy="2" rx="5" ry="2" transform="translate(35 18)" fill="#fcd192"/>
      <path id="Path_1272014" data-name="Path 1272014" d="M59.13,41.02,45,39.22a5.843,5.843,0,0,0-3.61.71L38.44,41.6a3.8,3.8,0,0,1-3.02.33,3.918,3.918,0,0,1-2.39-2.07,5.9,5.9,0,0,0-6.22-3.29l-3.99.63a3.793,3.793,0,0,1-2.98-.79,4.142,4.142,0,0,1-1.55-2.92l-.16-1.9A6.053,6.053,0,0,0,12.2,26H7.95A6.036,6.036,0,0,0,2,32.1V50.76a6.147,6.147,0,0,0,3.43,5.53l10.72,5.14a5.864,5.864,0,0,0,6.72-1.2l6.95-7.08a3.831,3.831,0,0,1,4.35-.83l1.62.73a5.85,5.85,0,0,0,7.62-2.64l2.42-4.51a3.955,3.955,0,0,1,3.16-2.1l10.1-.79a1,1,0,0,0,.92-.97,1.016,1.016,0,0,0-.87-1.02Zm-10.31.79a5.913,5.913,0,0,0-4.76,3.15l-2.42,4.51a3.861,3.861,0,0,1-5.03,1.77l-1.62-.73a5.819,5.819,0,0,0-6.6,1.25l-6.95,7.08a3.852,3.852,0,0,1-4.42.8L6.3,54.5a4.13,4.13,0,0,1-2.29-3.72V32.12a4.031,4.031,0,0,1,3.95-4.1h4.25a4.043,4.043,0,0,1,3.94,3.75l.16,1.9A6.156,6.156,0,0,0,18.62,38a5.777,5.777,0,0,0,4.52,1.19l3.99-.63a3.921,3.921,0,0,1,4.11,2.19,5.943,5.943,0,0,0,3.6,3.1,5.76,5.76,0,0,0,4.59-.5l2.95-1.67a3.774,3.774,0,0,1,2.37-.47l4.48.57-.4.03Z"/>
      <path id="Path_1272015" data-name="Path 1272015" d="M58.57,7.71,47.85,2.57a5.865,5.865,0,0,0-6.72,1.2l-6.95,7.08a3.815,3.815,0,0,1-4.35.83l-1.62-.73a5.85,5.85,0,0,0-7.62,2.64L18.17,18.1a3.955,3.955,0,0,1-3.16,2.1l-10.1.79a1,1,0,0,0-.92.97,1.016,1.016,0,0,0,.87,1.02l14.13,1.8a5.83,5.83,0,0,0,3.61-.71l2.95-1.67a3.8,3.8,0,0,1,3.02-.33,3.918,3.918,0,0,1,2.39,2.07,5.9,5.9,0,0,0,6.22,3.29l3.99-.63a3.832,3.832,0,0,1,2.98.79,4.142,4.142,0,0,1,1.55,2.92l.16,1.9A6.053,6.053,0,0,0,51.79,38h4.25a6.036,6.036,0,0,0,5.95-6.1V13.24a6.147,6.147,0,0,0-3.43-5.53ZM60,31.9A4.031,4.031,0,0,1,56.05,36H51.8a4.043,4.043,0,0,1-3.94-3.75l-.16-1.9a6.156,6.156,0,0,0-2.31-4.33,5.851,5.851,0,0,0-4.53-1.19l-3.99.63a3.908,3.908,0,0,1-4.11-2.19,5.943,5.943,0,0,0-3.6-3.1,5.76,5.76,0,0,0-4.59.5l-2.95,1.67a3.774,3.774,0,0,1-2.37.47l-4.48-.57.4-.03a5.913,5.913,0,0,0,4.76-3.15l2.42-4.51a3.861,3.861,0,0,1,5.03-1.77l1.62.73a5.819,5.819,0,0,0,6.6-1.25l6.95-7.08a3.852,3.852,0,0,1,4.42-.8L57.69,9.52a4.13,4.13,0,0,1,2.29,3.72V31.9Z"/>
      <path id="Path_1272016" data-name="Path 1272016" d="M15.88,37.53A.984.984,0,0,0,15,37H7a1,1,0,0,0-1,1V52H8V45h7a.984.984,0,0,0,.88-.53,1.026,1.026,0,0,0-.05-1.03L14.2,40.99l1.63-2.45a1.026,1.026,0,0,0,.05-1.03Zm-3.71,4.03.96,1.45H8v-4h5.13l-.96,1.45a1.016,1.016,0,0,0,0,1.11Z"/>
      <path id="Path_1272017" data-name="Path 1272017" d="M57,12H49a.984.984,0,0,0-.88.53,1.026,1.026,0,0,0,.05,1.03l1.63,2.45-1.63,2.45a1.026,1.026,0,0,0-.05,1.03.984.984,0,0,0,.88.53h7v7h2V13a1,1,0,0,0-1-1Zm-1,6H50.87l.96-1.45a1.016,1.016,0,0,0,0-1.11l-.96-1.45H56v4Z"/>
      <path id="Path_1272018" data-name="Path 1272018" d="M24,43c-2.89,0-6,.94-6,3s3.11,3,6,3,6-.94,6-3S26.89,43,24,43Zm0,4c-2.35,0-3.72-.67-3.97-1,.26-.33,1.63-1,3.97-1s3.72.67,3.97,1C27.71,46.33,26.34,47,24,47Z"/>
      <path id="Path_1272019" data-name="Path 1272019" d="M40,17c-2.89,0-6,.94-6,3s3.11,3,6,3,6-.94,6-3S42.89,17,40,17Zm0,4c-2.35,0-3.72-.67-3.97-1,.26-.33,1.63-1,3.97-1s3.72.67,3.97,1C43.71,20.33,42.34,21,40,21Z"/>
      <path id="Path_1272020" data-name="Path 1272020" d="M13,54h2v2H13Z"/>
      <path id="Path_1272021" data-name="Path 1272021" d="M18,52h2v2H18Z"/>
      <path id="Path_1272022" data-name="Path 1272022" d="M39,12h2v2H39Z"/>
      <path id="Path_1272023" data-name="Path 1272023" d="M44,10h2v2H44Z"/>
    </g>
  </g>
</svg>
