<svg xmlns="http://www.w3.org/2000/svg" xmlns:xlink="http://www.w3.org/1999/xlink" width="126.376" height="126.376" viewBox="0 0 126.376 126.376">
  <defs>
    <filter id="Path_874925" x="0" y="0" width="126.376" height="126.376" filterUnits="userSpaceOnUse">
      <feOffset dy="3" input="SourceAlpha"/>
      <feGaussianBlur stdDeviation="3" result="blur"/>
      <feFlood flood-opacity="0.161"/>
      <feComposite operator="in" in2="blur"/>
      <feComposite in="SourceGraphic"/>
    </filter>
  </defs>
  <g id="Group_1206940" data-name="Group 1206940" transform="translate(-1096.051 -2896)">
    <g id="Group_1205982" data-name="Group 1205982" transform="translate(0 -976)">
      <g id="Group_1205731" data-name="Group 1205731" transform="translate(359 -295)">
        <g id="Group_1205682" data-name="Group 1205682" transform="translate(461.051 -2077.874)">
          <g id="Group_1200232" data-name="Group 1200232" transform="translate(285 6250.874)">
            <g id="Group_1187153" data-name="Group 1187153">
              <g id="Group_1182177" data-name="Group 1182177">
                <g id="Group_1181903" data-name="Group 1181903">
                  <g id="Group_1181438" data-name="Group 1181438">
                    <g id="Group_1111314" data-name="Group 1111314">
                      <g transform="matrix(1, 0, 0, 1, -9, -6)" filter="url(#Path_874925)">
                        <g id="Path_874925-2" data-name="Path 874925" transform="translate(9 6)" fill="#ffc94a">
                          <path d="M 54.1878662109375 106.8763656616211 C 47.07439041137695 106.8763656616211 40.17448043823242 105.4835205078125 33.67983627319336 102.7365036010742 C 27.40597343444824 100.0828857421875 21.77115821838379 96.28368377685547 16.93191146850586 91.44444274902344 C 12.09268188476562 86.60519409179688 8.293481826782227 80.97038269042969 5.639866352081299 74.696533203125 C 2.892850875854492 68.20187377929688 1.500004649162292 61.30196380615234 1.500004649162292 54.1884880065918 C 1.500004649162292 47.07439422607422 2.892850875854492 40.17448806762695 5.639866352081299 33.67982482910156 C 8.293481826782227 27.40597915649414 12.09268188476562 21.77116394042969 16.93191146850586 16.93191719055176 C 21.77115821838379 12.09267139434814 27.40597343444824 8.293471336364746 33.67983627319336 5.639855861663818 C 40.17448043823242 2.892840623855591 47.07439041137695 1.499994397163391 54.1878662109375 1.499994397163391 C 61.30134201049805 1.499994397163391 68.20124816894531 2.892840623855591 74.69589996337891 5.639855861663818 C 80.96975708007812 8.293471336364746 86.60457611083984 12.09267139434814 91.44381713867188 16.93191719055176 C 96.28305053710938 21.77116394042969 100.0822525024414 27.40597915649414 102.7358627319336 33.67982482910156 C 105.4828796386719 40.17448806762695 106.8757247924805 47.07439422607422 106.8757247924805 54.18787002563477 C 106.8757247924805 61.30196380615234 105.4828796386719 68.20187377929688 102.7358627319336 74.696533203125 C 100.0822525024414 80.97038269042969 96.28305053710938 86.60519409179688 91.44381713867188 91.44444274902344 C 86.60457611083984 96.28368377685547 80.96975708007812 100.0828857421875 74.69589996337891 102.7365036010742 C 68.20124816894531 105.4835205078125 61.30134201049805 106.8763656616211 54.1878662109375 106.8763656616211 Z" stroke="none"/>
                          <path d="M 54.1878662109375 2.999992370605469 C 47.2762336730957 2.999992370605469 40.57291412353516 4.352981567382812 34.26416778564453 7.0213623046875 C 28.16909790039062 9.599342346191406 22.69454956054688 13.29059600830078 17.99258422851562 17.99257659912109 C 13.29059600830078 22.69454193115234 9.599349975585938 28.16909790039062 7.021369934082031 34.26416015625 C 4.352981567382812 40.57292938232422 3 47.27622985839844 3 54.18849563598633 C 3 61.10012817382812 4.352981567382812 67.80344390869141 7.021369934082031 74.11219787597656 C 9.599349975585938 80.20726013183594 13.29059600830078 85.68180847167969 17.99258422851562 90.38378143310547 C 22.69454956054688 95.08576202392578 28.16909790039062 98.77701568603516 34.26416778564453 101.3549957275391 C 40.57291412353516 104.0233764648438 47.2762336730957 105.3763656616211 54.1878662109375 105.3763656616211 C 61.0994987487793 105.3763656616211 67.80281066894531 104.0233764648438 74.11156463623047 101.3549957275391 C 80.20663452148438 98.77701568603516 85.68118286132812 95.08576202392578 90.38314819335938 90.38378143310547 C 95.08512878417969 85.68180847167969 98.77638244628906 80.20726013183594 101.3543701171875 74.11219787597656 C 104.0227508544922 67.80344390869141 105.375732421875 61.10012817382812 105.375732421875 54.1878776550293 C 105.375732421875 47.27622985839844 104.0227508544922 40.57292938232422 101.3543701171875 34.26416015625 C 98.77638244628906 28.16909790039062 95.08512878417969 22.69454193115234 90.38314819335938 17.99257659912109 C 85.68118286132812 13.29059600830078 80.20663452148438 9.599342346191406 74.11156463623047 7.0213623046875 C 67.80281066894531 4.352981567382812 61.0994987487793 2.999992370605469 54.1878662109375 2.999992370605469 M 54.1878662109375 -7.62939453125e-06 C 84.11499786376953 -7.62939453125e-06 108.375732421875 24.26072692871094 108.375732421875 54.1878776550293 L 108.375732421875 54.18849563598633 C 108.375732421875 84.11563110351562 84.11499786376953 108.3763656616211 54.1878662109375 108.3763656616211 C 24.26073455810547 108.3763656616211 0 84.11563110351562 0 54.18849563598633 L 0 54.1878776550293 C 0 24.26072692871094 24.26073455810547 -7.62939453125e-06 54.1878662109375 -7.62939453125e-06 Z" stroke="none" fill="#fff"/>
                        </g>
                      </g>
                    </g>
                  </g>
                </g>
              </g>
            </g>
          </g>
        </g>
      </g>
    </g>
    <g id="gender-equality_11080193" transform="translate(1127.058 2894.648)">
      <g id="Group_1206938" data-name="Group 1206938" transform="translate(0.946 34.304)">
        <g id="Group_1206934" data-name="Group 1206934" transform="translate(0)">
          <path id="Path_1270540" data-name="Path 1270540" d="M8.306,62.688a1.735,1.735,0,0,0,2.35-.469l4.6-6.551V79.34h9.566V55.668l4.6,6.551a1.735,1.735,0,0,0,2.844-1.988l-6.38-9.154a3.623,3.623,0,0,0-3.093-1.737h-.555a4.527,4.527,0,1,0-4.386,0h-.555a3.623,3.623,0,0,0-3.093,1.737l-6.38,9.154A1.735,1.735,0,0,0,8.306,62.688Z" transform="translate(-7.5 -40.852)" fill="#8ac9fe"/>
          <g id="Group_1206933" data-name="Group 1206933" transform="translate(14.652 14.816)">
            <path id="Path_1270541" data-name="Path 1270541" d="M122.933,158.845v22.4H125.6V157.576h-1.4A1.269,1.269,0,0,0,122.933,158.845Z" transform="translate(-122.933 -157.576)" fill="#60b7ff"/>
          </g>
        </g>
        <g id="Group_1206936" data-name="Group 1206936" transform="translate(38.017 0)">
          <path id="Path_1270542" data-name="Path 1270542" d="M307.81,62.688a1.735,1.735,0,0,0,2.35-.469l4.6-6.551-3.683,13.261a.381.381,0,0,0,.367.483h3.316V79.34h9.566V69.412H327.7a.381.381,0,0,0,.366-.484l-3.743-13.259,4.6,6.551a1.735,1.735,0,0,0,2.844-1.988l-6.38-9.154a3.623,3.623,0,0,0-3.093-1.737h-.555a4.527,4.527,0,1,0-4.386,0h-.555a3.623,3.623,0,0,0-3.093,1.737l-6.38,9.154A1.735,1.735,0,0,0,307.81,62.688Z" transform="translate(-307.004 -40.852)" fill="#fe93d3"/>
          <g id="Group_1206935" data-name="Group 1206935" transform="translate(14.715 14.816)">
            <path id="Path_1270543" data-name="Path 1270543" d="M422.933,275.78h2.6v-9.929H424.2a1.269,1.269,0,0,0-1.269,1.269Z" transform="translate(-422.933 -252.107)" fill="#fe73c5"/>
            <path id="Path_1270544" data-name="Path 1270544" d="M428.336,157.576h-.925a1.269,1.269,0,0,0-1.222,1.614l3.288,11.645a.381.381,0,0,1-.366.484h2.6a.381.381,0,0,0,.366-.484Z" transform="translate(-425.734 -157.576)" fill="#fe73c5"/>
          </g>
        </g>
        <g id="Group_1206937" data-name="Group 1206937" transform="translate(0 38.361)">
          <path id="Path_1270545" data-name="Path 1270545" d="M34.41,345.39a4.6,4.6,0,0,1,.626-2.32H8.769A1.269,1.269,0,0,0,7.5,344.339v2.1a1.269,1.269,0,0,0,1.269,1.269H35.035A4.6,4.6,0,0,1,34.41,345.39Z" transform="translate(-7.5 -343.07)" fill="#efe2dd"/>
          <path id="Path_1270546" data-name="Path 1270546" d="M34.411,361H7.5v1.1a1.269,1.269,0,0,0,1.269,1.269H35.035a4.6,4.6,0,0,1-.626-2.32C34.41,361.03,34.411,361.015,34.411,361Z" transform="translate(-7.5 -358.724)" fill="#e1d3ce"/>
          <path id="Path_1270547" data-name="Path 1270547" d="M313.838,343.071H287.572a4.617,4.617,0,0,1,0,4.641h26.266a1.269,1.269,0,0,0,1.269-1.269v-2.1A1.269,1.269,0,0,0,313.838,343.071Z" transform="translate(-252.022 -343.071)" fill="#efe2dd"/>
          <path id="Path_1270548" data-name="Path 1270548" d="M313.838,343.071h-2.729v1.006a1.269,1.269,0,0,1-1.269,1.269H288.2c0,.015,0,.03,0,.045a4.6,4.6,0,0,1-.626,2.32h26.266a1.269,1.269,0,0,0,1.269-1.269v-2.1A1.269,1.269,0,0,0,313.838,343.071Z" transform="translate(-252.022 -343.071)" fill="#e1d3ce"/>
        </g>
        <path id="Path_1270549" data-name="Path 1270549" d="M192.293,385.379a4.623,4.623,0,0,1-6.966,0l-6.286,10.887h19.537Z" transform="translate(-157.267 -341.647)" fill="#b9acac"/>
        <path id="Path_1270550" data-name="Path 1270550" d="M192.292,385.379a4.629,4.629,0,0,1-2.937,1.55l2.8,4.846a1.269,1.269,0,0,1-1.1,1.9H180.533l-1.493,2.587h19.537Z" transform="translate(-157.266 -341.647)" fill="#9e9797"/>
        <circle id="Ellipse_12983" data-name="Ellipse 12983" cx="5" cy="5" r="5" transform="translate(26.554 35.773)" fill="#6cf5c2"/>
        <path id="Path_1270551" data-name="Path 1270551" d="M230.964,325.087a4.761,4.761,0,0,1-5.031,7.448,4.76,4.76,0,1,0,5.031-7.448Z" transform="translate(-198.207 -289.008)" fill="#05e39c"/>
      </g>
      <g id="Group_1206939" data-name="Group 1206939" transform="translate(-0.007 33.352)">
        <path id="Trazado_1270552" data-name="Trazado 1270552" d="M18.263,73.617H8.7a.952.952,0,0,1-.952-.952v-9.91a.952.952,0,0,1,1.9,0v8.958h7.662V49.12a.952.952,0,0,1,1.731-.547l4.6,6.551a.783.783,0,0,0,1.283-.9l-6.38-9.154a2.718,2.718,0,0,0-2.312-1.329h-.555a.952.952,0,0,1-.462-1.784,3.575,3.575,0,1,0-3.463,0,.952.952,0,0,1-.462,1.784h-.555a2.688,2.688,0,0,0-2.281,1.28l-6.412,9.2a.783.783,0,0,0,1.283.9l4.6-6.552a.952.952,0,0,1,1.731.547v9.193a.952.952,0,0,1-1.9,0V52.135L4.881,56.218a2.687,2.687,0,0,1-4.4-3.08l6.38-9.154a4.5,4.5,0,0,1,2.255-1.846,5.478,5.478,0,1,1,8.736,0,4.6,4.6,0,0,1,2.287,1.893l6.349,9.106a2.687,2.687,0,0,1-4.4,3.079l-2.864-4.083V72.665A.952.952,0,0,1,18.263,73.617Z" transform="translate(0.007 -33.352)"/>
        <path id="Línea_230" data-name="Línea 230" d="M-6.548,4.206A.952.952,0,0,1-7.5,3.254v-9.8A.952.952,0,0,1-6.548-7.5a.952.952,0,0,1,.952.952v9.8A.952.952,0,0,1-6.548,4.206Z" transform="translate(20.035 36.06)"/>
        <path id="Trazado_1270553" data-name="Trazado 1270553" d="M317.766,73.617H308.2a.952.952,0,0,1-.952-.952v-8.85h-2.364a1.333,1.333,0,0,1-1.284-1.689l2.2-7.93-1.419,2.023a2.687,2.687,0,0,1-4.4-3.08l6.38-9.154a4.5,4.5,0,0,1,2.255-1.846,5.478,5.478,0,1,1,8.736,0,4.6,4.6,0,0,1,2.287,1.893l1.408,2.016a.952.952,0,1,1-1.562,1.089l-1.439-2.065a2.718,2.718,0,0,0-2.312-1.329h-.555a.952.952,0,0,1-.462-1.784,3.575,3.575,0,1,0-3.462,0,.952.952,0,0,1-.462,1.784h-.555a2.688,2.688,0,0,0-2.281,1.28l-6.412,9.2a.783.783,0,0,0,1.283.9l4.6-6.552a.952.952,0,0,1,1.7.8l-3.482,12.537H308.2a.952.952,0,0,1,.952.952v8.85h7.662v-8.85a.952.952,0,0,1,.952-.952h2.622L316.85,49.379a.952.952,0,0,1,1.7-.805l4.6,6.551a.783.783,0,0,0,1.283-.9l-2.4-3.442a.952.952,0,0,1,1.562-1.089l2.4,3.442a2.687,2.687,0,0,1-4.4,3.079L320.2,54.254l2.221,7.867a1.333,1.333,0,0,1-1.283,1.695h-2.425v8.85A.952.952,0,0,1,317.766,73.617Z" transform="translate(-261.479 -33.352)"/>
        <path id="Línea_231" data-name="Línea 231" d="M-6.548,4.206A.952.952,0,0,1-7.5,3.254v-9.8A.952.952,0,0,1-6.548-7.5a.952.952,0,0,1,.952.952v9.8A.952.952,0,0,1-6.548,4.206Z" transform="translate(58.052 36.06)"/>
        <path id="Trazado_1270554" data-name="Trazado 1270554" d="M28.339,342.116H2.221A2.224,2.224,0,0,1,0,339.894v-2.1a2.224,2.224,0,0,1,2.221-2.221H28.339a.952.952,0,1,1,0,1.9H2.221a.318.318,0,0,0-.317.317v2.1a.318.318,0,0,0,.317.317H28.339a.952.952,0,1,1,0,1.9Z" transform="translate(0.001 -297.21)"/>
        <path id="Trazado_1270555" data-name="Trazado 1270555" d="M308.31,342.116H282.193a.952.952,0,1,1,0-1.9H308.31a.318.318,0,0,0,.317-.317v-2.1a.318.318,0,0,0-.317-.317H282.193a.952.952,0,0,1,0-1.9H308.31a2.224,2.224,0,0,1,2.221,2.221v2.1A2.224,2.224,0,0,1,308.31,342.116Z" transform="translate(-245.541 -297.21)"/>
        <path id="Línea_232" data-name="Línea 232" d="M-6.55-2.964a.948.948,0,0,1-.475-.128.952.952,0,0,1-.348-1.3l1.52-2.633a.952.952,0,0,1,1.3-.348.952.952,0,0,1,.348,1.3L-5.725-3.44A.952.952,0,0,1-6.55-2.964Z" transform="translate(33.973 51.351)"/>
        <path id="Trazado_1270556" data-name="Trazado 1270556" d="M192.03,391.483H172.493a.952.952,0,0,1-.824-1.428l2.476-4.288a.952.952,0,1,1,1.649.952l-1.651,2.86h16.239l-5.393-9.341a.952.952,0,1,1,1.649-.952l6.217,10.769a.952.952,0,0,1-.824,1.428Z" transform="translate(-149.766 -334.96)"/>
        <path id="Elipse_12984" data-name="Elipse 12984" d="M-1.788-7.5A5.718,5.718,0,0,1,3.924-1.788,5.718,5.718,0,0,1-1.788,3.924,5.718,5.718,0,0,1-7.5-1.788,5.718,5.718,0,0,1-1.788-7.5Zm0,9.52A3.812,3.812,0,0,0,2.02-1.788,3.812,3.812,0,0,0-1.788-5.6,3.812,3.812,0,0,0-5.6-1.788,3.812,3.812,0,0,0-1.788,2.02Z" transform="translate(34.284 43.422)"/>
        <path id="Línea_233" data-name="Línea 233" d="M22.139-5.6H-6.548A.952.952,0,0,1-7.5-6.548.952.952,0,0,1-6.548-7.5H22.139a.952.952,0,0,1,.952.952A.952.952,0,0,1,22.139-5.6Z" transform="translate(24.7 62.119)"/>
      </g>
    </g>
  </g>
</svg>
