<svg xmlns="http://www.w3.org/2000/svg" xmlns:xlink="http://www.w3.org/1999/xlink" width="126.376" height="126.376" viewBox="0 0 126.376 126.376">
  <defs>
    <filter id="Path_874925" x="0" y="0" width="126.376" height="126.376" filterUnits="userSpaceOnUse">
      <feOffset dy="3" input="SourceAlpha"/>
      <feGaussianBlur stdDeviation="3" result="blur"/>
      <feFlood flood-opacity="0.161"/>
      <feComposite operator="in" in2="blur"/>
      <feComposite in="SourceGraphic"/>
    </filter>
  </defs>
  <g id="Group_1206948" data-name="Group 1206948" transform="translate(6454 8712)">
    <g id="Group_1205986" data-name="Group 1205986" transform="translate(-7550.051 -12584)">
      <g id="Group_1205731" data-name="Group 1205731" transform="translate(359 -295)">
        <g id="Group_1205682" data-name="Group 1205682" transform="translate(461.051 -2077.874)">
          <g id="Group_1200232" data-name="Group 1200232" transform="translate(285 6250.874)">
            <g id="Group_1187153" data-name="Group 1187153">
              <g id="Group_1182177" data-name="Group 1182177">
                <g id="Group_1181903" data-name="Group 1181903">
                  <g id="Group_1181438" data-name="Group 1181438">
                    <g id="Group_1111314" data-name="Group 1111314">
                      <g transform="matrix(1, 0, 0, 1, -9, -6)" filter="url(#Path_874925)">
                        <g id="Path_874925-2" data-name="Path 874925" transform="translate(9 6)" fill="#ffc94a">
                          <path d="M 54.1878662109375 106.8763656616211 C 47.07439041137695 106.8763656616211 40.17448043823242 105.4835205078125 33.67983627319336 102.7365036010742 C 27.40597343444824 100.0828857421875 21.77115821838379 96.28368377685547 16.93191146850586 91.44444274902344 C 12.09268188476562 86.60519409179688 8.293481826782227 80.97038269042969 5.639866352081299 74.696533203125 C 2.892850875854492 68.20187377929688 1.500004649162292 61.30196380615234 1.500004649162292 54.1884880065918 C 1.500004649162292 47.07439422607422 2.892850875854492 40.17448806762695 5.639866352081299 33.67982482910156 C 8.293481826782227 27.40597915649414 12.09268188476562 21.77116394042969 16.93191146850586 16.93191719055176 C 21.77115821838379 12.09267139434814 27.40597343444824 8.293471336364746 33.67983627319336 5.639855861663818 C 40.17448043823242 2.892840623855591 47.07439041137695 1.499994397163391 54.1878662109375 1.499994397163391 C 61.30134201049805 1.499994397163391 68.20124816894531 2.892840623855591 74.69589996337891 5.639855861663818 C 80.96975708007812 8.293471336364746 86.60457611083984 12.09267139434814 91.44381713867188 16.93191719055176 C 96.28305053710938 21.77116394042969 100.0822525024414 27.40597915649414 102.7358627319336 33.67982482910156 C 105.4828796386719 40.17448806762695 106.8757247924805 47.07439422607422 106.8757247924805 54.18787002563477 C 106.8757247924805 61.30196380615234 105.4828796386719 68.20187377929688 102.7358627319336 74.696533203125 C 100.0822525024414 80.97038269042969 96.28305053710938 86.60519409179688 91.44381713867188 91.44444274902344 C 86.60457611083984 96.28368377685547 80.96975708007812 100.0828857421875 74.69589996337891 102.7365036010742 C 68.20124816894531 105.4835205078125 61.30134201049805 106.8763656616211 54.1878662109375 106.8763656616211 Z" stroke="none"/>
                          <path d="M 54.1878662109375 2.999992370605469 C 47.2762336730957 2.999992370605469 40.57291412353516 4.352981567382812 34.26416778564453 7.0213623046875 C 28.16909790039062 9.599342346191406 22.69454956054688 13.29059600830078 17.99258422851562 17.99257659912109 C 13.29059600830078 22.69454193115234 9.599349975585938 28.16909790039062 7.021369934082031 34.26416015625 C 4.352981567382812 40.57292938232422 3 47.27622985839844 3 54.18849563598633 C 3 61.10012817382812 4.352981567382812 67.80344390869141 7.021369934082031 74.11219787597656 C 9.599349975585938 80.20726013183594 13.29059600830078 85.68180847167969 17.99258422851562 90.38378143310547 C 22.69454956054688 95.08576202392578 28.16909790039062 98.77701568603516 34.26416778564453 101.3549957275391 C 40.57291412353516 104.0233764648438 47.2762336730957 105.3763656616211 54.1878662109375 105.3763656616211 C 61.0994987487793 105.3763656616211 67.80281066894531 104.0233764648438 74.11156463623047 101.3549957275391 C 80.20663452148438 98.77701568603516 85.68118286132812 95.08576202392578 90.38314819335938 90.38378143310547 C 95.08512878417969 85.68180847167969 98.77638244628906 80.20726013183594 101.3543701171875 74.11219787597656 C 104.0227508544922 67.80344390869141 105.375732421875 61.10012817382812 105.375732421875 54.1878776550293 C 105.375732421875 47.27622985839844 104.0227508544922 40.57292938232422 101.3543701171875 34.26416015625 C 98.77638244628906 28.16909790039062 95.08512878417969 22.69454193115234 90.38314819335938 17.99257659912109 C 85.68118286132812 13.29059600830078 80.20663452148438 9.599342346191406 74.11156463623047 7.0213623046875 C 67.80281066894531 4.352981567382812 61.0994987487793 2.999992370605469 54.1878662109375 2.999992370605469 M 54.1878662109375 -7.62939453125e-06 C 84.11499786376953 -7.62939453125e-06 108.375732421875 24.26072692871094 108.375732421875 54.1878776550293 L 108.375732421875 54.18849563598633 C 108.375732421875 84.11563110351562 84.11499786376953 108.3763656616211 54.1878662109375 108.3763656616211 C 24.26073455810547 108.3763656616211 0 84.11563110351562 0 54.18849563598633 L 0 54.1878776550293 C 0 24.26072692871094 24.26073455810547 -7.62939453125e-06 54.1878662109375 -7.62939453125e-06 Z" stroke="none" fill="#fff"/>
                        </g>
                      </g>
                    </g>
                  </g>
                </g>
              </g>
            </g>
          </g>
        </g>
      </g>
    </g>
    <g id="_24-Vegetables" data-name="24-Vegetables" transform="translate(-6427 -8687)">
      <circle id="Ellipse_12984" data-name="Ellipse 12984" cx="17" cy="17" r="17" transform="translate(19 21.599)" fill="#ffa426"/>
      <path id="Path_1270565" data-name="Path 1270565" d="M21.5,36.833A16.824,16.824,0,0,1,36.091,20.167a16.833,16.833,0,1,0,0,33.329A16.824,16.824,0,0,1,21.5,36.833Z" transform="translate(2.063 1.833)" fill="#fe8205"/>
      <path id="Path_1270566" data-name="Path 1270566" d="M32.244,20A16.822,16.822,0,0,0,30,20.167,16.814,16.814,0,0,1,30,53.5,16.825,16.825,0,1,0,32.244,20Z" transform="translate(3.666 1.833)" fill="#ffc247"/>
      <path id="Path_1270567" data-name="Path 1270567" d="M38.577,15.922c1.737-1.729,4.873-7.677,3.139-9.415S34.03,7.908,32.3,9.645a4.438,4.438,0,1,0,6.277,6.277Z" transform="translate(3.788 0.122)" fill="#a5e887"/>
      <path id="Path_1270568" data-name="Path 1270568" d="M38.577,12.479a4.439,4.439,0,0,1-7.245-1.459,4.438,4.438,0,0,0,7.245,4.825c1.678-1.677,4.658-7.294,3.278-9.223a16.761,16.761,0,0,1-3.278,5.857Z" transform="translate(3.788 0.198)" fill="#86c983"/>
      <path id="Path_1270569" data-name="Path 1270569" d="M40.626,9.88,39.039,8.293l-8.184,8.186A10.6,10.6,0,0,0,23,13.575V15.82c8.833,0,8.978,8.614,8.978,8.978v1.122h2.244V24.8a13.905,13.905,0,0,0-1.963-6.55Z" transform="translate(2.81 0.402)" fill="#98ba5c"/>
      <path id="Path_1270570" data-name="Path 1270570" d="M33.344,47.344A12.359,12.359,0,0,1,21,35h2.244a10.112,10.112,0,0,0,10.1,10.1Z" transform="translate(2.566 3.666)" fill="#f5e3a7"/>
      <path id="Path_1270571" data-name="Path 1270571" d="M21,31h2.244v2.244H21Z" transform="translate(2.566 3.177)" fill="#f5e3a7"/>
      <path id="Path_1270572" data-name="Path 1270572" d="M38,27h2.244v2.244H38Z" transform="translate(4.643 2.688)" fill="#f5e3a7"/>
      <path id="Path_1270573" data-name="Path 1270573" d="M42,31h2.244v2.244H42Z" transform="translate(5.132 3.177)" fill="#f5e3a7"/>
      <path id="Path_1270574" data-name="Path 1270574" d="M38,31h2.244v2.244H38Z" transform="translate(4.643 3.177)" fill="#f5e3a7"/>
      <path id="Path_1270575" data-name="Path 1270575" d="M13.978,30A21.419,21.419,0,0,1,19.6,31.089c1.885.572,3.355,1.156,3.355,1.156l-1.638.819-2.85,1.425,2.244,3.367-6.733-2.244L7.244,37.855l2.244-3.367-2.85-1.425L5,32.244s5.252-2.1,8.641-2.233C13.753,30,13.865,30,13.978,30Z" transform="translate(0.611 3.055)" fill="#a5e887"/>
      <path id="Path_1270576" data-name="Path 1270576" d="M27.931,42.011a10.068,10.068,0,0,1-.786,3.905L22.32,46.5A5.611,5.611,0,0,0,16.71,52.11H11.1A10.1,10.1,0,0,1,7.126,32.73l2.85,1.425L7.732,37.522l6.733-2.244L21.2,37.522l-2.244-3.367L21.8,32.73A10.091,10.091,0,0,1,27.931,42.011Z" transform="translate(0.123 3.388)" fill="#ff475a"/>
      <path id="Path_1270577" data-name="Path 1270577" d="M19.85,34.974A10.08,10.08,0,0,1,25.9,43.211,10.013,10.013,0,0,0,19.85,32.73L17,34.155l1.122,1.683Z" transform="translate(2.077 3.388)" fill="#f03049"/>
      <path id="Path_1270578" data-name="Path 1270578" d="M7,39.489l6.733-2.244,6.733,2.244L18.543,36.6,13.733,35l-4.81,1.6Z" transform="translate(0.855 3.666)" fill="#f03049"/>
      <path id="Path_1270579" data-name="Path 1270579" d="M3.963,37.118a10.054,10.054,0,0,1,3.165-2.143l1.728.864,1.122-1.683L7.127,32.73a10.048,10.048,0,0,0-6.061,10.4,10.038,10.038,0,0,1,2.9-6.015Z" transform="translate(0.122 3.388)" fill="#f03049"/>
      <path id="Path_1270580" data-name="Path 1270580" d="M57.643,50.978a9,9,0,0,1-7.855,8.91,9.272,9.272,0,0,1-1.122.067,7.442,7.442,0,0,1-1.122-.079,6.926,6.926,0,0,1-.943-.168l-5.791-.7-2.244-.269L26.222,57.262l-5.611-.673a5.611,5.611,0,1,1,0-11.222l4.825-.584,5.274-.628,2.244-.269,10.1-1.212L48.666,42A8.963,8.963,0,0,1,54.6,44.244a8.324,8.324,0,0,1,1.021,1.066,8.177,8.177,0,0,1,.9,1.335,8.827,8.827,0,0,1,1.122,4.332Z" transform="translate(1.833 4.521)" fill="#ffc247"/>
      <path id="Path_1270581" data-name="Path 1270581" d="M64.442,48.611V53.1H56.587l4.489,2.244-1.122,3.367L51.2,56.522a8.954,8.954,0,0,0,2.02-5.667A8.827,8.827,0,0,0,52.1,46.524a8.178,8.178,0,0,0-.9-1.335l.9-.224L59.953,43l1.122,3.367-4.489,2.244Z" transform="translate(6.256 4.643)" fill="#a5e887"/>
      <g id="Group_1206947" data-name="Group 1206947" transform="translate(25.81 46.925)">
        <path id="Path_1270582" data-name="Path 1270582" d="M23,56.015V50h2.244v6.284Z" transform="translate(-23 -41.426)" fill="#ff9500"/>
        <path id="Path_1270583" data-name="Path 1270583" d="M31.244,43.68v5.97H29v-5.7Z" transform="translate(-22.267 -42.199)" fill="#ff9500"/>
        <path id="Path_1270584" data-name="Path 1270584" d="M38.244,51v6.913L36,57.643V51Z" transform="translate(-21.411 -41.304)" fill="#ff9500"/>
        <path id="Path_1270585" data-name="Path 1270585" d="M42.244,42.36v6.329H40v-6.06Z" transform="translate(-20.923 -42.36)" fill="#ff9500"/>
        <path id="Path_1270586" data-name="Path 1270586" d="M44,58.41V54h2.244v4.421Z" transform="translate(-20.434 -40.938)" fill="#ff9500"/>
        <path id="Path_1270587" data-name="Path 1270587" d="M29,51h2.244v2.244H29Z" transform="translate(-22.267 -41.304)" fill="#ff9500"/>
        <path id="Path_1270588" data-name="Path 1270588" d="M44,50h2.244v2.244H44Z" transform="translate(-20.434 -41.426)" fill="#ff9500"/>
      </g>
      <path id="Path_1270589" data-name="Path 1270589" d="M12.209,33.942a19.464,19.464,0,0,0-.318-3.149,7.549,7.549,0,0,0-1.6-3.913l1.587-1.587a9.382,9.382,0,0,1,2.221,5.1,21.306,21.306,0,0,1,.352,3.547Z" transform="translate(1.258 2.48)" fill="#98ba5c"/>
      <path id="Path_1270590" data-name="Path 1270590" d="M57.643,50.183a9,9,0,0,1-7.855,8.91,9.272,9.272,0,0,1-1.122.067,7.442,7.442,0,0,1-1.122-.079,6.926,6.926,0,0,1-.943-.168l-5.791-.7-2.244-.269L26.222,56.468l-5.611-.673a5.551,5.551,0,0,1-5.33-7.294,5.619,5.619,0,0,0,5.33,3.928l5.611.673,12.344,1.481,2.244.269,5.791.7a6.925,6.925,0,0,0,.943.168,7.442,7.442,0,0,0,1.122.079,9.272,9.272,0,0,0,1.122-.067,8.923,8.923,0,0,0,5.835-3.243,9.052,9.052,0,0,0,1.852-3.95A8.939,8.939,0,0,1,57.643,50.183Z" transform="translate(1.833 5.315)" fill="#ffa426"/>
      <path id="Path_1270591" data-name="Path 1270591" d="M25.244,52.629V56L23,55.727V52.36Z" transform="translate(2.81 5.787)" fill="#fe8205"/>
      <path id="Path_1270592" data-name="Path 1270592" d="M31.244,43.68v5.97H29v-5.7Z" transform="translate(3.544 4.726)" fill="#ff9500"/>
      <path id="Path_1270593" data-name="Path 1270593" d="M38.244,54.189v3.367L36,57.287V53.92Z" transform="translate(4.399 5.978)" fill="#fe8205"/>
      <path id="Path_1270594" data-name="Path 1270594" d="M42.244,42.36v6.329H40v-6.06Z" transform="translate(4.888 4.565)" fill="#ff9500"/>
      <path id="Path_1270595" data-name="Path 1270595" d="M46.244,54.941v3.367L44,58.3V54.93a7.443,7.443,0,0,0,1.122.079,9.27,9.27,0,0,0,1.122-.067Z" transform="translate(5.376 6.101)" fill="#fe8205"/>
      <path id="Path_1270596" data-name="Path 1270596" d="M29,51h2.244v2.244H29Z" transform="translate(3.544 5.621)" fill="#ff9500"/>
      <path id="Path_1270597" data-name="Path 1270597" d="M44,50h2.244v2.244H44Z" transform="translate(5.376 5.499)" fill="#ff9500"/>
      <path id="Path_1270598" data-name="Path 1270598" d="M51.081,41.321a24.364,24.364,0,0,0-4.107,1.021,13.68,13.68,0,0,0-2.514,1.133l-2.727.325-5.229.628-1.5-1.5L38.221,39.7c2.413-2.413,3.209-8.035,3.209-8.035A6.835,6.835,0,0,0,43.8,33.207a5.617,5.617,0,0,0,1.661,4.085,5.54,5.54,0,0,0,2.671,1.493V38.8a5.467,5.467,0,0,0,1.414.157,6.835,6.835,0,0,0,1.537,2.368Z" transform="translate(4.277 3.259)" fill="#98ba5c"/>
      <path id="Path_1270599" data-name="Path 1270599" d="M49.544,38.191a5.467,5.467,0,0,1-1.414-.157v-.011c-.129-.029-.255-.077-.382-.112a24.24,24.24,0,0,0-3.243.869,13.679,13.679,0,0,0-2.514,1.133l-2.727.325-2.653.319C35.439,41.723,35,42.163,35,42.163l1.5,1.5,5.229-.628,2.727-.325a13.679,13.679,0,0,1,2.514-1.133,24.364,24.364,0,0,1,4.107-1.021,6.835,6.835,0,0,1-1.537-2.368Z" transform="translate(4.277 4.021)" fill="#7a9e51"/>
      <path id="Path_1270600" data-name="Path 1270600" d="M64.278,27.707a5.71,5.71,0,0,1,0,8.046,5.549,5.549,0,0,1-2.121,1.313,6.821,6.821,0,0,1-13.1,3.557,5.467,5.467,0,0,1-1.414-.157v-.011a5.54,5.54,0,0,1-2.671-1.493,5.617,5.617,0,0,1-1.661-4.085,6.817,6.817,0,0,1-2.368-11.188c.056-.056.112-.112.18-.168a6.794,6.794,0,0,1,5.746-1.739,5.549,5.549,0,0,1,1.313-2.121,5.71,5.71,0,0,1,8.046,0c.112.112.191.247.292.359a5.687,5.687,0,0,1,7.4,7.4c.112.1.247.18.359.292Z" transform="translate(4.759 1.589)" fill="#a5e887"/>
      <path id="Path_1270601" data-name="Path 1270601" d="M63.121,27.705c-.112-.112-.247-.191-.359-.292a5.687,5.687,0,0,0-7.4-7.4c-.1-.112-.18-.247-.292-.359a5.693,5.693,0,0,0-6.66-.984,5.639,5.639,0,0,1,1.386.984c.112.112.191.247.292.359a5.687,5.687,0,0,1,7.4,7.4c.112.1.247.18.359.292a5.71,5.71,0,0,1,0,8.046,5.549,5.549,0,0,1-2.121,1.313,6.8,6.8,0,0,1-4.093,7.385A6.814,6.814,0,0,0,61,37.064a5.549,5.549,0,0,0,2.121-1.313,5.71,5.71,0,0,0,0-8.046Z" transform="translate(5.916 1.59)" fill="#86c983"/>
      <path id="Path_1270602" data-name="Path 1270602" d="M29,51h2.244v2.244H29Z" transform="translate(3.544 5.621)"/>
      <path id="Path_1270603" data-name="Path 1270603" d="M44,50h2.244v2.244H44Z" transform="translate(5.376 5.499)"/>
      <path id="Path_1270604" data-name="Path 1270604" d="M70.7,52.132H67.6l.237-.112a1.122,1.122,0,0,0,.561-1.359l-1.122-3.367a1.122,1.122,0,0,0-1.335-.734l-8.089,2.02a9.059,9.059,0,0,0-.673-.654,10.118,10.118,0,0,0-3.254-1.919c.442-.1.815-.177,1.09-.224a7.955,7.955,0,0,0,10.791-.4,7.855,7.855,0,0,0,2.316-6.015,6.563,6.563,0,0,0,1.715-1.234,6.839,6.839,0,0,0,.143-9.479,6.808,6.808,0,0,0-8.342-8.342,6.838,6.838,0,0,0-9.481.145,6.551,6.551,0,0,0-1.234,1.712,7.9,7.9,0,0,0-5.1,1.539,17.781,17.781,0,0,0-9.7-2.988,11.707,11.707,0,0,0-1.047-2.072l1.1-1.1a5.544,5.544,0,0,0,6.986-.714,17.2,17.2,0,0,0,3.116-5.073C47.389,9,47.4,6.95,46.29,5.829s-3.166-1.1-5.926.028a17.193,17.193,0,0,0-5.071,3.114,5.545,5.545,0,0,0-.716,6.989l-.927.927a10.638,10.638,0,0,0-7.84-2.91v2.244c3.844,0,6.5,1.556,7.928,4.622a17.85,17.85,0,0,0-14.731,11.8,20.26,20.26,0,0,0-3.855-.673,8.622,8.622,0,0,0-2.02-4.191l-1.587,1.587a6.155,6.155,0,0,1,1.333,2.713A39.941,39.941,0,0,0,5.19,34.26a1.115,1.115,0,0,0-.307,1.891A11.289,11.289,0,0,0,3.289,37.47,11.1,11.1,0,0,0,0,45.4,11.234,11.234,0,0,0,11.222,56.621h4.59a6.739,6.739,0,0,0,6.561,5.611l25.865,3.105a10.014,10.014,0,0,0,9.6-2.918l8.1,2.027a1.133,1.133,0,0,0,.272.03,1.122,1.122,0,0,0,1.063-.768l1.122-3.367a1.122,1.122,0,0,0-.561-1.359l-.237-.112h3.1a1.122,1.122,0,0,0,1.122-1.122V53.254A1.122,1.122,0,0,0,70.7,52.132ZM41.184,46.507l-.322-.322,2.427-2.427C45.044,42,46,38.88,46.464,36.9c.173.1.337.224.518.313a6.78,6.78,0,0,0,1.957,4.134,6.665,6.665,0,0,0,3.2,1.789v.011a6.79,6.79,0,0,0,.939.16c.09.182.208.343.311.516a24.515,24.515,0,0,0-2.5.717,15.067,15.067,0,0,0-2.469,1.1Zm5.467-20.579a5.66,5.66,0,0,1,4.8-1.45,1.111,1.111,0,0,0,1.234-.738,4.438,4.438,0,0,1,1.045-1.695,4.592,4.592,0,0,1,6.522.079c.063.083.127.165.2.241a1.122,1.122,0,0,0,1.247.285,4.565,4.565,0,0,1,5.936,5.936,1.122,1.122,0,0,0,.285,1.247c.076.068.158.132.32.254a4.59,4.59,0,0,1,0,6.462,4.428,4.428,0,0,1-1.7,1.047A1.122,1.122,0,0,0,65.8,38.83a5.7,5.7,0,0,1-10.937,2.978,1.122,1.122,0,0,0-1.046-.715h-.026a3.959,3.959,0,0,1-1.122-.126l-.015-.015a4.418,4.418,0,0,1-2.132-1.2,4.466,4.466,0,0,1-1.328-3.27,1.122,1.122,0,0,0-.715-1.063,5.7,5.7,0,0,1-1.974-9.356,1.447,1.447,0,0,1,.144-.14ZM35.91,12.906a3.284,3.284,0,0,1,.977-2.345,15.15,15.15,0,0,1,4.332-2.624,7.8,7.8,0,0,1,2.771-.692,1.081,1.081,0,0,1,.718.173c.259.263.337,1.409-.514,3.5a15.149,15.149,0,0,1-2.624,4.332,3.38,3.38,0,0,1-3.736.636l5.605-5.605L41.85,8.7l-5.617,5.619a3.272,3.272,0,0,1-.323-1.408ZM34.5,23.029a11.423,11.423,0,0,1,.293,2.17v1.122h2.244V25.2a12.7,12.7,0,0,0-.252-2.211A15.535,15.535,0,0,1,44.2,25.32a7.968,7.968,0,0,0,.312,9.956c-.312,1.747-1.214,5.3-2.805,6.895l-3.221,3.221a1.108,1.108,0,0,0-.091,1.45l-9.53,1.139a11.1,11.1,0,0,0-4.591-11.825,1.113,1.113,0,0,0-.293-1.9c-.058-.022-1.227-.486-2.818-1A15.614,15.614,0,0,1,34.493,23.029ZM13.307,34.289a19.369,19.369,0,0,1,.159,2.132h2.244a20.693,20.693,0,0,0-.147-2.18,23.678,23.678,0,0,1,3.861.834c.449.131.884.267,1.285.4l-2.124,1.064a1.122,1.122,0,0,0-.467,1.591c.008.012.049.083.058.1l.393.588L14.943,37.6a1.112,1.112,0,0,0-.709,0l-3.63,1.21.43-.645a1.122,1.122,0,0,0-.432-1.627L8.469,35.473a29.184,29.184,0,0,1,4.838-1.184Zm2.5,20.087h-4.59A8.988,8.988,0,0,1,2.244,45.4a8.873,8.873,0,0,1,2.634-6.343,8.988,8.988,0,0,1,2.357-1.683l1.22.61-1.533,2.3A1.122,1.122,0,0,0,8.21,41.971l6.379-2.122,6.379,2.125a1.122,1.122,0,0,0,1.288-1.683l-1.54-2.311,1.206-.6a8.9,8.9,0,0,1,4.529,10.9l-4.078.493A6.74,6.74,0,0,0,15.812,54.376Zm35.809,8.887V59.987H49.376V63.25c-.224-.034-.454-.057-.683-.112a1.233,1.233,0,0,0-.126-.024l-5.924-.71V56.621H40.4v5.513L28.055,60.653V55.5H25.81v4.885L22.577,60a1.054,1.054,0,0,0-.134-.008,4.489,4.489,0,0,1,0-8.978A1.085,1.085,0,0,0,22.579,51L27.4,50.42l5.14-.616v4.573h2.244V49.534l10.1-1.211v4.931h2.244v-5.2l3.433-.412a7.877,7.877,0,0,1,5.13,1.965,7.465,7.465,0,0,1,.9.944,7.253,7.253,0,0,1,.779,1.164,7.84,7.84,0,0,1-5.75,11.547Zm17.955-6.642H62.843a1.122,1.122,0,0,0-.5,2.132l3.618,1.809-.486,1.459-6.184-1.546a10.066,10.066,0,0,0,.049-9.842c-.019-.034-.038-.061-.057-.094l6.192-1.549.486,1.459-3.618,1.809a1.122,1.122,0,0,0,.5,2.119h6.733Z" transform="translate(0 0)"/>
      <path id="Path_1270605" data-name="Path 1270605" d="M21,28h2.244v2.244H21Z" transform="translate(2.566 2.81)"/>
      <path id="Path_1270606" data-name="Path 1270606" d="M25,28h2.244v2.244H25Z" transform="translate(3.055 2.81)"/>
      <path id="Path_1270607" data-name="Path 1270607" d="M25,32h2.244v2.244H25Z" transform="translate(3.055 3.299)"/>
    </g>
  </g>
</svg>
