<svg xmlns="http://www.w3.org/2000/svg" xmlns:xlink="http://www.w3.org/1999/xlink" width="111.776" height="111.776" viewBox="0 0 111.776 111.776">
  <defs>
    <filter id="Path_874925" x="0" y="0" width="111.776" height="111.776" filterUnits="userSpaceOnUse">
      <feOffset dy="3" input="SourceAlpha"/>
      <feGaussianBlur stdDeviation="3" result="blur"/>
      <feFlood flood-opacity="0.161"/>
      <feComposite operator="in" in2="blur"/>
      <feComposite in="SourceGraphic"/>
    </filter>
    <clipPath id="clip-path">
      <path id="path6945" d="M0-682.665H52.884v52.884H0Z" transform="translate(0 682.665)"/>
    </clipPath>
  </defs>
  <g id="Group_1206968" data-name="Group 1206968" transform="translate(-272.051 -1410)">
    <g id="Group_1205782" data-name="Group 1205782" transform="translate(-523.949 -409.883)">
      <g id="Group_1204844" data-name="Group 1204844" transform="translate(520 -4424.991)">
        <g id="Group_1200232" data-name="Group 1200232" transform="translate(285 6250.874)">
          <g id="Group_1187153" data-name="Group 1187153">
            <g id="Group_1182177" data-name="Group 1182177">
              <g id="Group_1181903" data-name="Group 1181903">
                <g id="Group_1181438" data-name="Group 1181438">
                  <g id="Group_1111314" data-name="Group 1111314">
                    <g transform="matrix(1, 0, 0, 1, -9, -6)" filter="url(#Path_874925)">
                      <g id="Path_874925-2" data-name="Path 874925" transform="translate(9 6)" fill="#ffc94a">
                        <path d="M 46.88790893554688 92.2763671875 C 40.75992202758789 92.2763671875 34.8160285949707 91.07652282714844 29.22134971618652 88.71018218994141 C 23.81676292419434 86.42423248291016 18.96264266967773 83.15139007568359 14.79381561279297 78.98255157470703 C 10.62497520446777 74.81372833251953 7.35213565826416 69.95960998535156 5.066188812255859 64.55502319335938 C 2.699842214584351 58.9603385925293 1.500002264976501 53.01644515991211 1.500002264976501 46.88844680786133 C 1.500002264976501 40.75992584228516 2.699842214584351 34.81603240966797 5.066188812255859 29.22135353088379 C 7.35213565826416 23.8167667388916 10.62497520446777 18.962646484375 14.79381561279297 14.79381942749023 C 18.96264266967773 10.62497997283936 23.81676292419434 7.352139949798584 29.22134971618652 5.066193103790283 C 34.8160285949707 2.699846506118774 40.75992202758789 1.500006437301636 46.88790893554688 1.500006437301636 C 53.01589584350586 1.500006437301636 58.95978927612305 2.699846506118774 64.55446624755859 5.066193103790283 C 69.95905303955078 7.352139949798584 74.81317901611328 10.62497997283936 78.98200225830078 14.79381942749023 C 83.15084075927734 18.962646484375 86.42368316650391 23.8167667388916 88.70962524414062 29.22135353088379 C 91.07597351074219 34.81603240966797 92.27581787109375 40.75992584228516 92.27581787109375 46.88791275024414 C 92.27581787109375 53.01644515991211 91.07597351074219 58.9603385925293 88.70962524414062 64.55502319335938 C 86.42368316650391 69.95960998535156 83.15084075927734 74.81372833251953 78.98200225830078 78.98255157470703 C 74.81317901611328 83.15139007568359 69.95905303955078 86.42423248291016 64.55446624755859 88.71018218994141 C 58.95978927612305 91.07652282714844 53.01589584350586 92.2763671875 46.88790893554688 92.2763671875 Z" stroke="none"/>
                        <path d="M 46.88790893554688 2.999992370605469 C 40.96175003051758 2.999992370605469 35.2144660949707 4.159965515136719 29.80567932128906 6.44769287109375 C 24.57989501953125 8.658004760742188 19.88602447509766 11.82290649414062 15.85446929931641 15.85446929931641 C 11.82290649414062 19.88602447509766 8.658012390136719 24.57989501953125 6.44769287109375 29.80567932128906 C 4.159965515136719 35.2144660949707 2.999992370605469 40.96175003051758 2.999992370605469 46.88845062255859 C 2.999992370605469 52.81460952758789 4.159965515136719 58.56189346313477 6.44769287109375 63.97069549560547 C 8.658012390136719 69.19646453857422 11.82290649414062 73.89033508300781 15.85446929931641 77.92189025878906 C 19.88602447509766 81.95343780517578 24.57989501953125 85.11833953857422 29.80567932128906 87.32865142822266 C 35.2144660949707 89.61637878417969 40.96175003051758 90.77635192871094 46.88790893554688 90.77635192871094 C 52.81406784057617 90.77635192871094 58.56135177612305 89.61637878417969 63.97013854980469 87.32865142822266 C 69.1959228515625 85.11833953857422 73.88979339599609 81.95343780517578 77.92134857177734 77.92189025878906 C 81.95291137695312 73.89033508300781 85.11781311035156 69.19646453857422 87.328125 63.97069549560547 C 89.61585235595703 58.56189346313477 90.77582550048828 52.81460952758789 90.77582550048828 46.88790893554688 C 90.77582550048828 40.96175003051758 89.61585235595703 35.2144660949707 87.328125 29.80567932128906 C 85.11781311035156 24.57989501953125 81.95291137695312 19.88602447509766 77.92134857177734 15.85446929931641 C 73.88979339599609 11.82290649414062 69.1959228515625 8.658004760742188 63.97013854980469 6.44769287109375 C 58.56135177612305 4.159965515136719 52.81406784057617 2.999992370605469 46.88790893554688 2.999992370605469 M 46.88790893554688 -7.62939453125e-06 C 72.78337860107422 -7.62939453125e-06 93.77582550048828 20.99243927001953 93.77582550048828 46.88790893554688 L 93.77582550048828 46.88845062255859 C 93.77582550048828 72.783935546875 72.78337860107422 93.77635192871094 46.88790893554688 93.77635192871094 C 20.99243927001953 93.77635192871094 -7.62939453125e-06 72.783935546875 -7.62939453125e-06 46.88845062255859 L -7.62939453125e-06 46.88790893554688 C -7.62939453125e-06 20.99243927001953 20.99243927001953 -7.62939453125e-06 46.88790893554688 -7.62939453125e-06 Z" stroke="none" fill="#fff"/>
                      </g>
                    </g>
                  </g>
                </g>
              </g>
            </g>
          </g>
        </g>
      </g>
    </g>
    <g id="Group_1206255" data-name="Group 1206255" transform="translate(70.383 -265.172)">
      <g id="Group_1204844-2" data-name="Group 1204844" transform="translate(275.728 1711.489)">
        <g id="Group_1200232-2" data-name="Group 1200232" transform="translate(0 0)">
          <g id="Group_1187153-2" data-name="Group 1187153" transform="translate(0 0)">
            <g id="Group_1182177-2" data-name="Group 1182177">
              <g id="Group_1181903-2" data-name="Group 1181903">
                <g id="Group_1181438-2" data-name="Group 1181438">
                  <g id="Group_1111314-2" data-name="Group 1111314">
                    <path id="Path_874925-3" data-name="Path 874925" d="M3.632,0A3.632,3.632,0,0,1,7.265,3.632h0A3.632,3.632,0,1,1,0,3.632H0A3.632,3.632,0,0,1,3.632,0Z" transform="translate(0 0)" fill="#ffc94a"/>
                    <path id="Trazado_874925_-_Contorno" data-name="Trazado 874925 - Contorno" d="M3.632.232A3.4,3.4,0,0,0,2.309,6.765,3.4,3.4,0,0,0,4.956.5,3.378,3.378,0,0,0,3.632.232m0-.232A3.632,3.632,0,0,1,7.265,3.632h0A3.632,3.632,0,0,1,0,3.632H0A3.632,3.632,0,0,1,3.632,0Z" transform="translate(0 0)" fill="#fff"/>
                  </g>
                </g>
              </g>
            </g>
          </g>
        </g>
      </g>
      <g id="g6939" transform="translate(231.284 1701.883)">
        <g id="g6941" transform="translate(0 0)">
          <g id="g6943" clip-path="url(#clip-path)">
            <g id="g6949" transform="translate(0.775 15.226)">
              <path id="path6951" d="M-278.617-439.233h-9.429a28.682,28.682,0,0,1,0-5.143,91.487,91.487,0,0,1-13.967-12.356c.6-9.987.608-10.081.018-19.118-.006-.088-.011-.177-.018-.267,5.588,0,5.591,3.513,5.591,15.157l2.863,2.612h0c3.327-2.485,6.042.541,14.883,8.236a68.851,68.851,0,0,1,.058,10.878" transform="translate(302.013 476.116)" fill="#ffe6c7"/>
            </g>
            <g id="g6953" transform="translate(7.87 32.144)">
              <path id="path6955" d="M-194.125-237.756h-2.858a80.915,80.915,0,0,0-.263-9.666c-5.6-6.318-9.02-8.577-13.18-8.18l1.359-1.268h0c3.327-2.485,6.042.541,14.883,8.236a68.851,68.851,0,0,1,.058,10.878" transform="translate(210.426 257.721)" fill="#ffd5b0"/>
            </g>
            <g id="g6957" transform="translate(3.719 18.571)">
              <path id="path6959" d="M-75.667-165.616c.326-6.031,1.338-13.907-4.369-13.907h-1.985v13.884Z" transform="translate(82.021 179.524)" fill="#ffe6c7"/>
            </g>
            <g id="g6961" transform="translate(0.775 15.226)">
              <path id="path6963" d="M-100.679-211.6c-6.469.483-5.524-4.322-5.524-7.493,0-6.057-.668-9.038-2.913-10.01-.006-.088-.011-.177-.018-.266,5.588,0,5.591,3.513,5.591,15.157Z" transform="translate(109.133 229.371)" fill="#ffd5b0"/>
            </g>
            <g id="g6965" transform="translate(28.528 15.226)">
              <path id="path6967" d="M-2.206-439.233H7.223a28.683,28.683,0,0,0,0-5.143A91.488,91.488,0,0,0,21.19-456.732c-.6-9.987-.608-10.081-.018-19.118.006-.088.011-.177.018-.267-5.588,0-5.591,3.513-5.591,15.157l-2.863,2.612h0c-3.327-2.485-6.042.541-14.883,8.236a68.85,68.85,0,0,0-.058,10.878" transform="translate(2.392 476.116)" fill="#ffe6c7"/>
            </g>
            <g id="g6969" transform="translate(28.528 32.144)">
              <path id="path6971" d="M-2.206-237.756H.652a80.914,80.914,0,0,1,.263-9.666c5.6-6.318,9.02-8.577,13.18-8.18l-1.359-1.268h0c-3.327-2.485-6.042.541-14.883,8.236a68.851,68.851,0,0,0-.058,10.878" transform="translate(2.392 257.721)" fill="#ffd5b0"/>
            </g>
            <g id="g6973" transform="translate(42.53 18.571)">
              <path id="path6975" d="M-3.351-165.616c-.326-6.031-1.338-13.907,4.369-13.907H3v13.884Z" transform="translate(3.632 179.524)" fill="#ffe6c7"/>
            </g>
            <g id="g6977" transform="translate(43.655 15.226)">
              <path id="path6979" d="M0-211.6c6.469.483,5.524-4.322,5.524-7.493,0-6.057.668-9.038,2.913-10.01.006-.088.011-.177.018-.266-5.588,0-5.591,3.513-5.591,15.157Z" transform="translate(0 229.371)" fill="#ffd5b0"/>
            </g>
            <g id="g6981" transform="translate(12.256 0.767)">
              <path id="path6983" d="M-339.048-169.5a14.234,14.234,0,0,1-14.235,14.232q-.652,0-1.291-.058A14.234,14.234,0,0,1-367.519-169.5a14.234,14.234,0,0,1,12.944-14.175q.638-.057,1.291-.058A14.234,14.234,0,0,1-339.048-169.5" transform="translate(367.519 183.733)" fill="#fff18d"/>
            </g>
            <g id="g6985" transform="translate(25.2 0.767)">
              <path id="path6987" d="M-184.9-169.5a14.234,14.234,0,0,1-14.235,14.232q-.652,0-1.291-.058A14.235,14.235,0,0,0-187.482-169.5a14.235,14.235,0,0,0-12.944-14.175q.638-.057,1.291-.058A14.234,14.234,0,0,1-184.9-169.5" transform="translate(200.426 183.733)" fill="#ffd366"/>
            </g>
            <g id="g6989" transform="translate(16.54 5.05)">
              <path id="path6991" d="M-237.029-118.49a9.951,9.951,0,0,1-9.952,9.95,9.944,9.944,0,0,1-1.5-.113,9.953,9.953,0,0,1-8.454-9.837,9.952,9.952,0,0,1,8.454-9.837,9.943,9.943,0,0,1,1.5-.113,9.95,9.95,0,0,1,9.952,9.95" transform="translate(256.933 128.44)" fill="#ffd366"/>
            </g>
            <g id="g6993" transform="translate(24.994 5.05)">
              <path id="path6995" d="M-136.35-118.49a9.951,9.951,0,0,1-9.952,9.95,9.944,9.944,0,0,1-1.5-.113,9.953,9.953,0,0,0,8.454-9.837,9.952,9.952,0,0,0-8.454-9.837,9.943,9.943,0,0,1,1.5-.113,9.951,9.951,0,0,1,9.952,9.95" transform="translate(147.8 128.44)" fill="#ffaf5f"/>
            </g>
            <g id="g6997" transform="translate(41.735 17.839)">
              <path id="path6999" d="M-70,4.683c-.026-.485-.057-.981-.088-1.484-.27-4.4-.577-9.377,1.682-11.779A4.7,4.7,0,0,1-64.832-10v1.549a3.169,3.169,0,0,0-2.447.932C-69.08-5.605-68.8-.978-68.544,3.1c.031.507.062,1.007.088,1.5Z" transform="translate(70.277 10)"/>
            </g>
            <g id="g7001" transform="translate(37.368 44.052)">
              <path id="path7003" d="M-46.608-1.168a.782.782,0,0,1-.087,0,.775.775,0,0,1-.684-.856A27.994,27.994,0,0,0-47.38-7a.775.775,0,0,1,.325-.71c.942-.663,1.906-1.378,2.866-2.125A.775.775,0,0,1-43.1-9.7a.775.775,0,0,1-.136,1.087c-.856.666-1.717,1.308-2.563,1.911a28.3,28.3,0,0,1-.039,4.846A.775.775,0,0,1-46.608-1.168Z" transform="translate(47.383 10)"/>
            </g>
            <g id="g7005" transform="translate(43.13 14.498)">
              <path id="path7007" d="M-115.141,18.772a.773.773,0,0,1-.591-.273.775.775,0,0,1,.089-1.092,92.867,92.867,0,0,0,7.914-7.552,177.031,177.031,0,0,1,.02-19.131.775.775,0,0,1,.824-.722.775.775,0,0,1,.722.824,175,175,0,0,0,0,19.262.775.775,0,0,1-.195.562,91.994,91.994,0,0,1-8.282,7.938A.772.772,0,0,1-115.141,18.772Z" transform="translate(115.916 10)"/>
            </g>
            <g id="g7009" transform="translate(43.077 14.498)">
              <path id="path7011" d="M-115.826,9.122a.773.773,0,0,1-.572-.252.775.775,0,0,1,.05-1.094l2.414-2.2c0-11.324.063-15.571,6.366-15.571a.775.775,0,0,1,.775.775.775.775,0,0,1-.775.775c-4.669,0-4.817,2.276-4.817,14.363a.775.775,0,0,1-.252.572L-115.3,8.919A.772.772,0,0,1-115.826,9.122Z" transform="translate(116.601 10)"/>
            </g>
            <g id="g7013" transform="translate(27.752 31.371)">
              <path id="path7015" d="M-133.619-91.465a.775.775,0,0,1-.772-.716,68.791,68.791,0,0,1,.06-11,.775.775,0,0,1,.262-.506q1.4-1.219,2.607-2.281c7.859-6.9,10.506-9.224,14.716-4.616a.775.775,0,0,1,.2.559.775.775,0,0,1-.254.538c-.031.028-3.156,2.854-6.869,5.865a.775.775,0,0,1-1.09-.114.775.775,0,0,1,.114-1.09c2.729-2.213,5.135-4.323,6.209-5.277-2.749-2.675-4.458-1.328-12.007,5.3q-1.109.974-2.377,2.081a69.563,69.563,0,0,0-.029,10.426.775.775,0,0,1-.714.831Z" transform="translate(134.579 112.978)"/>
            </g>
            <g id="g7017" transform="translate(0 15.222)">
              <path id="path7019" d="M4.741,37.009a.775.775,0,0,1-.769-.689,28.3,28.3,0,0,1-.039-4.846A93.385,93.385,0,0,1-9.8,19.272.775.775,0,0,1-10,18.71c.605-10.022.605-10.022,0-19.26l1.546-.1L-9.225-.6l.773-.048c.6,9.235.611,9.334.02,19.128A91.935,91.935,0,0,0,5.188,30.464a.775.775,0,0,1,.325.71,27.994,27.994,0,0,0,0,4.974A.775.775,0,0,1,4.828,37,.784.784,0,0,1,4.741,37.009Z" transform="translate(10 0.654)"/>
            </g>
            <g id="g7021" transform="translate(0 14.498)">
              <path id="path7023" d="M-.967,9.122a.772.772,0,0,1-.522-.2L-4.156,6.485a.775.775,0,0,1-.252-.572c0-12.087-.148-14.363-4.817-14.363A.775.775,0,0,1-10-9.225.775.775,0,0,1-9.225-10c6.3,0,6.366,4.247,6.366,15.571l2.414,2.2A.775.775,0,0,1-.4,8.869.773.773,0,0,1-.967,9.122Z" transform="translate(10 10)"/>
            </g>
            <g id="g7025" transform="translate(17.884 35.707)">
              <path id="path7027" d="M-3.713,7.176l-.06,0a.775.775,0,0,1-.714-.831,69.566,69.566,0,0,0-.03-10.426Q-5.788-5.191-6.9-6.166C-7.935-7.079-8.875-7.9-9.73-8.637A.775.775,0,0,1-9.813-9.73a.775.775,0,0,1,1.092-.084c.859.737,1.8,1.565,2.848,2.483q1.21,1.062,2.609,2.283A.775.775,0,0,1-3-4.541a68.8,68.8,0,0,1,.06,11A.775.775,0,0,1-3.713,7.176Z" transform="translate(10 10)"/>
            </g>
            <g id="g7029" transform="translate(7.095 31.393)">
              <path id="path7031" d="M-90.647-103.187a.771.771,0,0,1-.487-.173c-3.714-3.011-6.838-5.837-6.869-5.865a.775.775,0,0,1-.254-.538.775.775,0,0,1,.2-.559c2.791-3.056,5.016-3.142,8.815-.343a.775.775,0,0,1,.164,1.083.775.775,0,0,1-1.083.164c-2.917-2.149-4.273-2.3-6.208-.423,1.075.955,3.481,3.066,6.209,5.277a.775.775,0,0,1,.114,1.09A.773.773,0,0,1-90.647-103.187Z" transform="translate(98.258 112.692)"/>
            </g>
            <g id="g7033" transform="translate(5.704 17.839)">
              <path id="path7035" d="M5.142,4.706,3.6,4.622c.028-.507.06-1.028.093-1.556.253-4.07.54-8.684-1.251-10.59A3.154,3.154,0,0,0,0-8.451V-10A4.68,4.68,0,0,1,3.565-8.584C5.816-6.19,5.507-1.221,5.234,3.163,5.2,3.686,5.17,4.2,5.142,4.706Z" transform="translate(0 10)"/>
            </g>
            <g id="g7037" transform="translate(15.765 4.281)">
              <path id="path7039" d="M-7.936-163.374a10.8,10.8,0,0,1-10-6.842.775.775,0,0,1,.442-1,.775.775,0,0,1,1,.442,9.239,9.239,0,0,0,8.559,5.853,9.184,9.184,0,0,0,9.177-9.17,9.184,9.184,0,0,0-9.177-9.17,9.184,9.184,0,0,0-9.177,9.17.775.775,0,0,1-.775.775.775.775,0,0,1-.775-.775A10.735,10.735,0,0,1-7.936-184.813,10.735,10.735,0,0,1,2.79-174.093,10.735,10.735,0,0,1-7.936-163.374Z" transform="translate(18.663 184.813)"/>
            </g>
            <g id="g7041" transform="translate(11.482 0)">
              <path id="path7043" d="M-296.028-22.251a15.022,15.022,0,0,1-15.01-15,15.022,15.022,0,0,1,15.01-15,15.037,15.037,0,0,1,9.58,3.451.775.775,0,0,1,.1,1.091.775.775,0,0,1-1.091.1,13.484,13.484,0,0,0-8.591-3.095,13.471,13.471,0,0,0-13.461,13.451A13.471,13.471,0,0,0-296.028-23.8a13.471,13.471,0,0,0,13.461-13.451,13.346,13.346,0,0,0-2.543-7.87.775.775,0,0,1,.174-1.082.775.775,0,0,1,1.082.174,14.886,14.886,0,0,1,2.837,8.778A15.022,15.022,0,0,1-296.028-22.251Z" transform="translate(311.038 52.252)"/>
            </g>
            <g id="g7045" transform="translate(23.403 9.6)">
              <path id="path7047" d="M-6.911-88.761A3.092,3.092,0,0,1-10-91.848a.775.775,0,0,1,.775-.775.775.775,0,0,1,.775.775,1.541,1.541,0,0,0,1.54,1.538,1.541,1.541,0,0,0,1.54-1.538,1.541,1.541,0,0,0-1.54-1.538A3.092,3.092,0,0,1-10-96.474a3.092,3.092,0,0,1,3.089-3.087,3.092,3.092,0,0,1,3.089,3.087A.775.775,0,0,1-4.6-95.7a.775.775,0,0,1-.775-.775,1.541,1.541,0,0,0-1.54-1.538,1.541,1.541,0,0,0-1.54,1.538,1.541,1.541,0,0,0,1.54,1.538,3.092,3.092,0,0,1,3.089,3.087A3.092,3.092,0,0,1-6.911-88.761Z" transform="translate(10 99.561)"/>
            </g>
            <g id="g7049" transform="translate(25.717 7.866)">
              <path id="path7051" d="M-9.225-29.107A.775.775,0,0,1-10-29.881v-1.735a.775.775,0,0,1,.775-.775.775.775,0,0,1,.775.775v1.735A.775.775,0,0,1-9.225-29.107Z" transform="translate(10 32.391)"/>
            </g>
            <g id="g7053" transform="translate(25.717 18.851)">
              <path id="path7055" d="M-9.225-29.107A.775.775,0,0,1-10-29.881v-1.735a.775.775,0,0,1,.775-.775.775.775,0,0,1,.775.775v1.735A.775.775,0,0,1-9.225-29.107Z" transform="translate(10 32.391)"/>
            </g>
          </g>
        </g>
        <g id="g7057" transform="translate(0 0)">
          <g id="g7059" clip-path="url(#clip-path)">
            <g id="g7065" transform="translate(59.873 10.348)">
              <path id="path7067" d="M-256.069-497.319q-.852,0-1.666-.028c-33.364-1.153-18.94-37.177,1.706-41.733,20.981,4.631,35.459,41.761-.04,41.761" transform="translate(277.572 539.08)" fill="#fff18d"/>
            </g>
          </g>
        </g>
      </g>
    </g>
  </g>
</svg>
