<svg xmlns="http://www.w3.org/2000/svg" width="129.063" height="65.744" viewBox="0 0 129.063 65.744">
  <g id="Group_1207151" data-name="Group 1207151" transform="translate(-735 -5558.475)">
    <g id="Group_1206593" data-name="Group 1206593" transform="translate(0 92.262)">
      <g id="Group_1205223" data-name="Group 1205223" transform="translate(-52.781 2903.871)">
        <g id="Rectangle_410589" data-name="Rectangle 410589" transform="translate(787.781 2575.623)" fill="#ffc94a" stroke="#dfab32" stroke-width="1">
          <rect width="129.063" height="43.021" rx="8" stroke="none"/>
          <rect x="0.5" y="0.5" width="128.063" height="42.021" rx="7.5" fill="none"/>
        </g>
      </g>
    </g>
    <g id="salario" transform="translate(760.332 5558.476)">
      <g id="Group_1207149" data-name="Group 1207149" transform="translate(8.76 0.97)">
        <g id="Group_1207133" data-name="Group 1207133" transform="translate(12.735)">
          <g id="Group_1207132" data-name="Group 1207132">
            <g id="Group_1207131" data-name="Group 1207131">
              <g id="Group_1207128" data-name="Group 1207128">
                <g id="Group_1207127" data-name="Group 1207127">
                  <path id="Path_1271084" data-name="Path 1271084" d="M140.068,18.776s6.3-8.176,4.488-10.522c-.617-.8-1.144.286-2.421.286-1.5,0-1.5-.982-3-.982s-1.5.982-3,.982-1.5-.982-3-.982-1.5.982-3,.982c-1.278,0-1.8-1.1-2.424-.3-1.812,2.333,4.4,10.535,4.4,10.535C104.691,36.8,113.531,61.31,129.717,61.31h12.837C158.79,61.31,167.575,36.859,140.068,18.776Z" transform="translate(-114.473 -7.559)" fill="#eabc6b"/>
                </g>
              </g>
              <g id="Group_1207129" data-name="Group 1207129" transform="translate(16.557)">
                <path id="Path_1271085" data-name="Path 1271085" d="M252.453,18.776s6.3-8.176,4.488-10.522c-.617-.8-1.144.286-2.421.286-1.5,0-1.5-.982-3-.982s-1.5.982-3,.982c-.074,0-.141,0-.208-.009-.6,2.584-3.319,6.609-4.873,8.764.612.9,1.053,1.481,1.053,1.481q-.549.361-1.076.725c26.194,18,17.429,41.809,1.41,41.809h10.115C271.175,61.31,279.96,36.859,252.453,18.776Z" transform="translate(-243.415 -7.559)" fill="#e8ae4d"/>
              </g>
              <g id="Group_1207130" data-name="Group 1207130" transform="translate(14.152 9.525)">
                <path id="Path_1271086" data-name="Path 1271086" d="M237.3,86.338a21.916,21.916,0,0,1-10.938,0,2.335,2.335,0,0,1-1.538-3.057l.015-.044a2.155,2.155,0,0,1,2.544-1.436,17.808,17.808,0,0,0,8.9,0,2.155,2.155,0,0,1,2.544,1.436l.015.044A2.335,2.335,0,0,1,237.3,86.338Z" transform="translate(-224.683 -81.738)" fill="#ffe07d"/>
              </g>
            </g>
          </g>
        </g>
        <g id="Group_1207148" data-name="Group 1207148" transform="translate(0 36.475)">
          <g id="Group_1207147" data-name="Group 1207147">
            <g id="Group_1207146" data-name="Group 1207146">
              <g id="Group_1207145" data-name="Group 1207145">
                <g id="Group_1207144" data-name="Group 1207144">
                  <g id="Group_1207143" data-name="Group 1207143">
                    <g id="Group_1207142" data-name="Group 1207142">
                      <g id="Group_1207141" data-name="Group 1207141">
                        <g id="Group_1207140" data-name="Group 1207140">
                          <g id="Group_1207139" data-name="Group 1207139">
                            <g id="Group_1207138" data-name="Group 1207138" transform="translate(5.083 3.374)">
                              <g id="Group_1207137" data-name="Group 1207137">
                                <g id="Group_1207134" data-name="Group 1207134">
                                  <path id="Path_1271087" data-name="Path 1271087" d="M54.883,336l13.941,5.189a10.608,10.608,0,0,0,3.7.666H86.891a10.609,10.609,0,0,0,5.678-1.647l17.989-11.4a3.157,3.157,0,0,0,.514-4.137c-.977-1.436-2.593-1.685-4.371-.844l-17.514,7.711.021-2.842a5.086,5.086,0,0,0-4.348-4.533l-10.665-1.228c-2.46-.348-3.69-1.173-5.835-2.427a19.116,19.116,0,0,0-9.652-2.616H54.883V336Z" transform="translate(-54.883 -317.896)" fill="#ffddce"/>
                                </g>
                                <g id="Group_1207135" data-name="Group 1207135">
                                  <path id="Path_1271088" data-name="Path 1271088" d="M54.883,336l13.941,5.189a10.608,10.608,0,0,0,3.7.666H86.891a10.609,10.609,0,0,0,5.678-1.647l17.989-11.4a3.157,3.157,0,0,0,.514-4.137c-.977-1.436-2.593-1.685-4.371-.844l-17.514,7.711.021-2.842a5.086,5.086,0,0,0-4.348-4.533l-10.665-1.228c-2.46-.348-3.69-1.173-5.835-2.427a19.116,19.116,0,0,0-9.652-2.616H54.883V336Z" transform="translate(-54.883 -317.896)" fill="#ffddce"/>
                                </g>
                                <path id="Path_1271089" data-name="Path 1271089" d="M111.073,361.686c-.977-1.436-2.593-1.685-4.371-.844l-4.817,2.121.419.664a3.158,3.158,0,0,1-.514,4.137l-10.482,6.642a10.607,10.607,0,0,1-4.415.964H72.525a10.609,10.609,0,0,1-3.7-.666l-13.941-5.189v3.5L68.825,378.2a10.609,10.609,0,0,0,3.7.666H86.892a10.609,10.609,0,0,0,5.678-1.647l17.989-11.4A3.158,3.158,0,0,0,111.073,361.686Z" transform="translate(-54.884 -354.907)" fill="#ffcbbe"/>
                                <g id="Group_1207136" data-name="Group 1207136" transform="translate(33.016 7.876)">
                                  <path id="Path_1271090" data-name="Path 1271090" d="M312,379.236v.069l.045-.02Z" transform="translate(-312.004 -379.236)" fill="#f5dbcc"/>
                                </g>
                              </g>
                            </g>
                            <path id="Path_1271091" data-name="Path 1271091" d="M23.378,315.877a1.832,1.832,0,0,1-1.831,1.831h-4.42a1.832,1.832,0,0,1-1.831-1.831V293.451a1.832,1.832,0,0,1,1.831-1.832h4.42a1.832,1.832,0,0,1,1.831,1.832Z" transform="translate(-15.295 -291.62)" fill="#407093"/>
                          </g>
                        </g>
                      </g>
                    </g>
                  </g>
                </g>
              </g>
            </g>
          </g>
        </g>
      </g>
      <g id="Group_1207150" data-name="Group 1207150" transform="translate(7.797 -0.001)">
        <path id="Path_1271092" data-name="Path 1271092" d="M70.828,47.056c-1.226-1.8-3.307-2.242-5.567-1.179l-1.2.527a19.806,19.806,0,0,0,1.183-12.752,30.763,30.763,0,0,0-7.752-14.017.963.963,0,1,0-1.42,1.3,28.875,28.875,0,0,1,7.291,13.133,17.267,17.267,0,0,1-2.26,13.637L49.121,52.984l.01-1.354a.941.941,0,0,0,0-.1,6.035,6.035,0,0,0-5.172-5.391l-.025,0L33.277,44.907c-4.1-.583-5.151-3.038-10.7-4.438a20.729,20.729,0,0,1,1.528-10.187c2.109-5.228,6.235-10.308,11.955-14.73,2.132,1.512,11.643,1.7,13.772-.25,1.09.828,2.131,1.681,3.1,2.545a.963.963,0,1,0,1.281-1.438c-1.063-.947-2.206-1.881-3.4-2.784a3.428,3.428,0,0,0-1.15-3.416c3.015-4.573,3.892-7.566,2.681-9.134A1.683,1.683,0,0,0,50.031.721,1.545,1.545,0,0,1,48.185.655a3.461,3.461,0,0,0-4.055,0,1.552,1.552,0,0,1-1.945,0,3.461,3.461,0,0,0-4.054,0,1.533,1.533,0,0,1-1.845.062,1.68,1.68,0,0,0-2.312.344c-1.184,1.524-.392,4.423,2.42,8.84a3.136,3.136,0,0,0-.489.327,6.5,6.5,0,0,0-5.6-2.117,7.056,7.056,0,0,1-4.79-1.133.963.963,0,1,0-1.072,1.6,8.967,8.967,0,0,0,6.076,1.447,4.705,4.705,0,0,1,4.3,1.881q-.018.062-.033.124a16.525,16.525,0,0,0-3.053.333,9.042,9.042,0,0,0-6.266,4.012.963.963,0,1,0,1.662.973c1.756-3,6.042-3.368,7.744-3.391.007.021.016.042.024.063-6.075,4.686-10.3,9.912-12.575,15.542A22.854,22.854,0,0,0,20.6,40.075a20.037,20.037,0,0,0-2.8-.216v-.582a2.8,2.8,0,0,0-2.794-2.794h-4.42A2.8,2.8,0,0,0,7.8,39.276V61.7A2.8,2.8,0,0,0,10.591,64.5h4.42A2.8,2.8,0,0,0,17.806,61.7v-.274l9.642,3.589a11.536,11.536,0,0,0,4.036.727H45.851a11.554,11.554,0,0,0,6.193-1.8c19.166-12.15,18-11.394,18.113-11.492a4.129,4.129,0,0,0,.671-5.4Zm-22.8-32.894a20.87,20.87,0,0,1-10.467,0c-1.511-.382-1.073-3.077.551-2.67a18.777,18.777,0,0,0,9.365,0C49.071,11.091,49.561,13.773,48.026,14.161ZM35.406,2.43l.022.011a3.416,3.416,0,0,0,3.756-.175c1.641-1.074,1.819.648,3.973.648a3.345,3.345,0,0,0,2.027-.648,1.553,1.553,0,0,1,1.946,0,3.434,3.434,0,0,0,3.772.172c.2.714-.25,2.843-3.106,7.094-1.418-.024-3.475,1.368-9.3.072C35.647,5.3,35.207,3.149,35.406,2.43ZM68.931,50.967,51.014,62.32a9.631,9.631,0,0,1-5.163,1.5H31.484a9.614,9.614,0,0,1-3.365-.606L17.806,59.373V49a.963.963,0,1,0-1.926,0V61.7a.87.87,0,0,1-.869.869h-4.42a.87.87,0,0,1-.869-.869V39.277a.869.869,0,0,1,.869-.868h4.42a.869.869,0,0,1,.869.868V44.5a.963.963,0,1,0,1.926,0V41.785c7.965.061,9.756,4.259,15.213,5.031l.025,0L43.7,48.045A4.113,4.113,0,0,1,47.2,51.67L47.191,53.5H37.257a.963.963,0,1,0,0,1.926h10.89a1,1,0,0,0,.384-.08l17.518-7.713c1.26-.56,2.408-.64,3.187.5A2.2,2.2,0,0,1,68.931,50.967Z" transform="translate(-7.797 0.001)"/>
        <path id="Path_1271093" data-name="Path 1271093" d="M245.329,179.073a.963.963,0,0,0,.963-.963v-1.6a5.641,5.641,0,0,0,4.623-4.668,4.939,4.939,0,0,0-3.4-5.649c-.441-.156-.847-.3-1.221-.449v-6.139a3.96,3.96,0,0,1,1.873.822.963.963,0,0,0,1.3-1.42,5.968,5.968,0,0,0-3.173-1.346v-1.369a.963.963,0,1,0-1.926,0v1.447a7.092,7.092,0,0,0-.714.175,4.656,4.656,0,0,0-3.186,3.655,4.072,4.072,0,0,0,1.323,4.014,11.666,11.666,0,0,0,2.578,1.457v7.615a5.114,5.114,0,0,1-2.995-1.038.963.963,0,1,0-1.054,1.612,7.052,7.052,0,0,0,4.049,1.352v1.528A.963.963,0,0,0,245.329,179.073Zm-2.352-15a2.171,2.171,0,0,1-.619-2.142,2.755,2.755,0,0,1,1.849-2.168c.054-.016.106-.03.159-.044v5.2A8.122,8.122,0,0,1,242.977,164.07Zm3.894,3.942a3.031,3.031,0,0,1,2.145,3.514,3.751,3.751,0,0,1-2.724,3.019V167.8C246.48,167.873,246.671,167.942,246.872,168.013Z" transform="translate(-210.08 -135.386)"/>
      </g>
    </g>
  </g>
</svg>
