<svg xmlns="http://www.w3.org/2000/svg" width="129.063" height="63.832" viewBox="0 0 129.063 63.832">
  <g id="Group_1207153" data-name="Group 1207153" transform="translate(-1064.051 -5560.168)">
    <g id="Group_1206594" data-name="Group 1206594" transform="translate(0.212 92.262)">
      <g id="Group_1205224" data-name="Group 1205224" transform="translate(276.058 2903.871)">
        <g id="Rectangle_410589" data-name="Rectangle 410589" transform="translate(787.781 2575.623)" fill="#ffc94a" stroke="#dfab32" stroke-width="1">
          <rect width="129.063" height="43.021" rx="8" stroke="none"/>
          <rect x="0.5" y="0.5" width="128.063" height="42.021" rx="7.5" fill="none"/>
        </g>
      </g>
    </g>
    <g id="discusion" transform="translate(1095.051 5559.168)">
      <path id="Path_1271094" data-name="Path 1271094" d="M32.65,18.3V8H13.089A3.085,3.085,0,0,0,10,11.089v10.3a3.085,3.085,0,0,0,3.089,3.089h10.3v4.118l6.177-4.118h2.059a3.094,3.094,0,0,0,3.058-2.625v-.01A4.092,4.092,0,0,1,32.65,18.3Z" transform="translate(0.266 0.207)" fill="#e6e9ed"/>
      <path id="Path_1271095" data-name="Path 1271095" d="M58.768,2H36.118A4.117,4.117,0,0,0,32,6.118V18.473a4.092,4.092,0,0,0,2.028,3.542,4.034,4.034,0,0,0,2.09.577h3.089l6.177,4.118V22.591H58.768a4.117,4.117,0,0,0,4.118-4.118V6.118A4.117,4.117,0,0,0,58.768,2Z" transform="translate(0.916 0.03)" fill="#fcd770"/>
      <path id="Path_1271096" data-name="Path 1271096" d="M7.148,63H2v-10.3a10.3,10.3,0,0,1,10.3-10.3c0,2.275,1.38,4.118,3.089,4.118s3.089-1.843,3.089-4.118a2.6,2.6,0,0,0-.01-.288l.4-.062a14.428,14.428,0,0,0,8.154-4.077l9.132-9.132a2.912,2.912,0,1,1,4.118,4.118L24.475,48.766a2.915,2.915,0,0,0-.855,2.059V63Z" transform="translate(0.03 0.798)" fill="#fcd770"/>
      <path id="Path_1271097" data-name="Path 1271097" d="M47.384,58.473H36.574a2.574,2.574,0,1,1,0-5.148h10.81l1.678-6.167A7.006,7.006,0,0,1,62.827,49v13.59H47.384Z" transform="translate(0.975 1.212)" fill="#b4dd7f"/>
      <g id="Group_1207152" data-name="Group 1207152" transform="translate(8.207 28.798)">
        <path id="Path_1271098" data-name="Path 1271098" d="M18.167,41.72a2.6,2.6,0,0,1,.01.288c0,2.275-1.38,4.118-3.089,4.118S12,44.284,12,42.008h4.118Z" transform="translate(-7.882 -27.595)" fill="#f0d0b4"/>
        <ellipse id="Ellipse_12995" data-name="Ellipse 12995" cx="7.5" cy="7" rx="7.5" ry="7" transform="translate(-0.375 0.034)" fill="#f0d0b4"/>
        <ellipse id="Ellipse_12996" data-name="Ellipse 12996" cx="7.5" cy="7" rx="7.5" ry="7" transform="translate(37.625 0.034)" fill="#f0d0b4"/>
      </g>
      <path id="Path_1271099" data-name="Path 1271099" d="M42.182,30.942a3.941,3.941,0,0,0-6.728-2.787L26.32,37.289a13.451,13.451,0,0,1-4.33,2.887,8.231,8.231,0,1,0-11.774,1.442A11.338,11.338,0,0,0,1,52.739V64.064H24.68V50.856a1.871,1.871,0,0,1,.551-1.331l15.8-15.8a3.914,3.914,0,0,0,1.154-2.786ZM16.443,43.473l.926-.129c-.265,1.248-1.048,2.188-1.955,2.188-.876,0-1.637-.875-1.928-2.059ZM9.236,35.236a6.177,6.177,0,1,1,6.177,6.177A6.184,6.184,0,0,1,9.236,35.236Zm30.336-2.963-15.8,15.8a3.914,3.914,0,0,0-1.154,2.786V62H8.207V49.65H6.148V62H3.059V52.739a9.279,9.279,0,0,1,8.33-9.219c.4,2.323,2.049,4.071,4.025,4.071,2.111,0,3.834-2,4.071-4.561a15.535,15.535,0,0,0,8.291-4.286L36.91,29.61a1.883,1.883,0,0,1,3.213,1.332,1.873,1.873,0,0,1-.551,1.331Z" transform="translate(0 0.768)"/>
      <path id="Path_1271100" data-name="Path 1271100" d="M57.726,41.643a8.233,8.233,0,1,0-6.97,1.624A8,8,0,0,0,48.1,47.334l-1.474,5.405H36.6a3.6,3.6,0,0,0,0,7.207h9.781v4.118h17.5V49.448A8.041,8.041,0,0,0,57.726,41.643ZM46.384,35.236a6.177,6.177,0,1,1,6.177,6.177A6.184,6.184,0,0,1,46.384,35.236ZM61.827,62H48.443V59.946h.863a4.111,4.111,0,0,0,3.906-2.816l3.414-10.243-1.952-.652L51.26,56.478a2.058,2.058,0,0,1-1.954,1.408H36.6a1.544,1.544,0,0,1,0-3.089H48.2l1.888-6.923a5.975,5.975,0,0,1,11.739,1.573Z" transform="translate(0.946 0.768)"/>
      <path id="Path_1271101" data-name="Path 1271101" d="M13,11h2.059v2.059H13Z" transform="translate(0.355 0.295)"/>
      <path id="Path_1271102" data-name="Path 1271102" d="M17,11H29.355v2.059H17Z" transform="translate(0.473 0.295)"/>
      <path id="Path_1271103" data-name="Path 1271103" d="M13,15H29.473v2.059H13Z" transform="translate(0.355 0.414)"/>
      <path id="Path_1271104" data-name="Path 1271104" d="M13,19H29.473v2.059H13Z" transform="translate(0.355 0.532)"/>
      <path id="Path_1271105" data-name="Path 1271105" d="M57,9h2.059v2.059H57Z" transform="translate(1.655 0.236)"/>
      <path id="Path_1271106" data-name="Path 1271106" d="M35,9H55.591v2.059H35Z" transform="translate(1.005 0.236)"/>
      <path id="Path_1271107" data-name="Path 1271107" d="M35,13H59.709v2.059H35Z" transform="translate(1.005 0.355)"/>
      <path id="Path_1271108" data-name="Path 1271108" d="M35,17H59.709v2.059H35Z" transform="translate(1.005 0.473)"/>
      <path id="Path_1271109" data-name="Path 1271109" d="M59.448,1H36.8A5.154,5.154,0,0,0,31.65,6.148v1.03H13.118A4.122,4.122,0,0,0,9,11.3v10.3a4.122,4.122,0,0,0,4.118,4.118h9.266v5.013L29.9,25.709H31.65a4.135,4.135,0,0,0,3.678-2.3,5.081,5.081,0,0,0,1.47.24h2.777l7.519,5.013V23.65H59.448A5.154,5.154,0,0,0,64.6,18.5V6.148A5.154,5.154,0,0,0,59.448,1ZM31.65,23.65H29.279l-4.836,3.224V23.65H13.118a2.061,2.061,0,0,1-2.059-2.059V11.3a2.061,2.061,0,0,1,2.059-2.059H31.65V18.5a5.115,5.115,0,0,0,1.868,3.934A2.065,2.065,0,0,1,31.65,23.65ZM62.537,18.5a3.092,3.092,0,0,1-3.089,3.089H45.034v3.224L40.2,21.591H36.8A3.092,3.092,0,0,1,33.709,18.5V6.148A3.092,3.092,0,0,1,36.8,3.059h22.65a3.092,3.092,0,0,1,3.089,3.089Z" transform="translate(0.236 0)"/>
      <path id="Path_1271110" data-name="Path 1271110" d="M35,5h2.059V7.059H35Z" transform="translate(1.005 0.118)"/>
      <path id="Path_1271111" data-name="Path 1271111" d="M39,5h2.059V7.059H39Z" transform="translate(1.123 0.118)"/>
      <path id="Path_1271112" data-name="Path 1271112" d="M43,5H59.473V7.059H43Z" transform="translate(1.241 0.118)"/>
    </g>
  </g>
</svg>
