<svg xmlns="http://www.w3.org/2000/svg" width="129.063" height="68.498" viewBox="0 0 129.063 68.498">
  <g id="Group_1207407" data-name="Group 1207407" transform="translate(-407.051 -5640.503)">
    <g id="Group_1206592" data-name="Group 1206592" transform="translate(0.051 176.262)">
      <g id="Group_1205225" data-name="Group 1205225" transform="translate(-380.781 2903.871)">
        <g id="Rectangle_410589" data-name="Rectangle 410589" transform="translate(787.781 2575.623)" fill="#ffc94a" stroke="#dfab32" stroke-width="1">
          <rect width="129.063" height="43.021" rx="8" stroke="none"/>
          <rect x="0.5" y="0.5" width="128.063" height="42.021" rx="7.5" fill="none"/>
        </g>
      </g>
    </g>
    <g id="_23-Training" data-name="23-Training" transform="translate(435.051 5638.503)">
      <rect id="Rectangle_412220" data-name="Rectangle 412220" width="43" height="4" transform="translate(26 3.497)" fill="#64b5f6"/>
      <rect id="Rectangle_412221" data-name="Rectangle 412221" width="5" height="4" transform="translate(64 3.497)" fill="#42a5f5"/>
      <path id="Path_1271068" data-name="Path 1271068" d="M26,7H62.532V32.116A2.283,2.283,0,0,1,60.249,34.4H28.283A2.283,2.283,0,0,1,26,32.116Z" transform="translate(3.399 0.708)" fill="#eee"/>
      <path id="Path_1271069" data-name="Path 1271069" d="M62.532,7V32.116A2.29,2.29,0,0,1,60.249,34.4H28.283A2.29,2.29,0,0,1,26,32.116V30.974H54.541a2.29,2.29,0,0,0,2.283-2.283V7Z" transform="translate(3.399 0.708)" fill="#e0e0e0"/>
      <path id="Path_1271070" data-name="Path 1271070" d="M36.558,53h-6.85A5.708,5.708,0,0,0,24,58.708v3.425H42.266V58.708A5.708,5.708,0,0,0,36.558,53Z" transform="translate(3.116 7.223)" fill="#ffb74d"/>
      <ellipse id="Ellipse_12990" data-name="Ellipse 12990" cx="5.5" cy="6" rx="5.5" ry="6" transform="translate(31 48.497)" fill="#ffccbc"/>
      <path id="Path_1271071" data-name="Path 1271071" d="M16.558,53H9.708A5.708,5.708,0,0,0,4,58.708v3.425H22.266V58.708A5.708,5.708,0,0,0,16.558,53Z" transform="translate(0.283 7.223)" fill="#ffb74d"/>
      <ellipse id="Ellipse_12991" data-name="Ellipse 12991" cx="5.5" cy="6" rx="5.5" ry="6" transform="translate(8 48.497)" fill="#ffccbc"/>
      <path id="Path_1271072" data-name="Path 1271072" d="M56.558,53h-6.85A5.708,5.708,0,0,0,44,58.708v3.425H62.266V58.708A5.708,5.708,0,0,0,56.558,53Z" transform="translate(5.948 7.223)" fill="#ffb74d"/>
      <path id="Path_1271073" data-name="Path 1271073" d="M62.266,58.708v3.425H44V58.708h9.135a2.4,2.4,0,0,0,1.787-4.01l-.031-.031A5.733,5.733,0,0,0,50.85,53h5.708A5.708,5.708,0,0,1,62.266,58.708Z" transform="translate(5.948 7.223)" fill="#ffa726"/>
      <path id="Path_1271074" data-name="Path 1271074" d="M42.266,58.708v3.425H24V58.708h9.135a2.4,2.4,0,0,0,1.787-4.01l-.031-.031A5.733,5.733,0,0,0,30.85,53h5.708A5.708,5.708,0,0,1,42.266,58.708Z" transform="translate(3.116 7.223)" fill="#ffa726"/>
      <path id="Path_1271075" data-name="Path 1271075" d="M22.266,58.708v3.425H4V58.708h9.135a2.4,2.4,0,0,0,1.787-4.01l-.031-.031A5.733,5.733,0,0,0,10.85,53h5.708A5.708,5.708,0,0,1,22.266,58.708Z" transform="translate(0.283 7.223)" fill="#ffa726"/>
      <circle id="Ellipse_12992" data-name="Ellipse 12992" cx="6" cy="6" r="6" transform="translate(53 48.497)" fill="#ffccbc"/>
      <path id="Path_1271076" data-name="Path 1271076" d="M58.133,48.708a5.71,5.71,0,0,1-5.708,5.708A5.641,5.641,0,0,1,49,53.275,5.708,5.708,0,0,0,52.425,43a5.71,5.71,0,0,1,5.708,5.708Z" transform="translate(6.656 5.806)" fill="#ffab91"/>
      <path id="Path_1271077" data-name="Path 1271077" d="M38.133,48.708a5.71,5.71,0,0,1-5.708,5.708A5.641,5.641,0,0,1,29,53.275,5.708,5.708,0,0,0,32.425,43,5.71,5.71,0,0,1,38.133,48.708Z" transform="translate(3.824 5.806)" fill="#ffab91"/>
      <path id="Path_1271078" data-name="Path 1271078" d="M18.133,48.708a5.71,5.71,0,0,1-5.708,5.708A5.641,5.641,0,0,1,9,53.275,5.708,5.708,0,0,0,12.425,43,5.71,5.71,0,0,1,18.133,48.708Z" transform="translate(0.991 5.806)" fill="#ffab91"/>
      <circle id="Ellipse_12993" data-name="Ellipse 12993" cx="5.5" cy="5.5" r="5.5" transform="translate(9 5.497)" fill="#ffccbc"/>
      <path id="Path_1271079" data-name="Path 1271079" d="M3,20.708V30.983a2.283,2.283,0,0,0,2.283,2.283H7.566v6.85h13.7V19.566H30.4a2.283,2.283,0,0,0,2.283-2.283h0A2.283,2.283,0,0,0,30.4,15H8.708A5.708,5.708,0,0,0,3,20.708Z" transform="translate(0.142 1.841)" fill="#64b5f6"/>
      <path id="Path_1271080" data-name="Path 1271080" d="M29.71,15h-3.3a2.283,2.283,0,0,1-2.283,2.283H19.558a4.566,4.566,0,0,0-4.566,4.566V32.124a4.566,4.566,0,0,1-4.566,4.566H7v3.425H20.7V19.567h9.133A2.285,2.285,0,0,0,32.084,16.9,2.368,2.368,0,0,0,29.71,15Z" transform="translate(0.708 1.841)" fill="#42a5f5"/>
      <circle id="Ellipse_12994" data-name="Ellipse 12994" cx="3.5" cy="3.5" r="3.5" transform="translate(44 40.497)" fill="#64b5f6"/>
      <path id="Path_1271081" data-name="Path 1271081" d="M45.751,39.425a3.42,3.42,0,0,1-3.425,3.425A3.381,3.381,0,0,1,39.7,41.617a3.428,3.428,0,0,0,2.626-3.334,3.378,3.378,0,0,0-.8-2.192,3.73,3.73,0,0,1,.8-.091,3.42,3.42,0,0,1,3.425,3.425Z" transform="translate(5.339 4.815)" fill="#42a5f5"/>
      <path id="Path_1271082" data-name="Path 1271082" d="M19.133,10.708a5.71,5.71,0,0,1-5.708,5.708A5.641,5.641,0,0,1,10,15.275,5.708,5.708,0,0,0,13.425,5a5.71,5.71,0,0,1,5.708,5.708Z" transform="translate(1.133 0.425)" fill="#ffab91"/>
      <path id="Path_1271083" data-name="Path 1271083" d="M69.356,2H25.974a1.141,1.141,0,0,0-1.142,1.142V7.708A1.141,1.141,0,0,0,25.974,8.85h2.283v3.425a1.142,1.142,0,0,0,2.283,0V8.85H64.789V32.824a1.142,1.142,0,0,1-1.142,1.142H31.682a1.142,1.142,0,0,1-1.142-1.142v-6.85a1.142,1.142,0,0,0-2.283,0v6.85a3.429,3.429,0,0,0,3.425,3.425H46.523v4.777a3.425,3.425,0,1,0,2.283,0V36.249H63.648a3.429,3.429,0,0,0,3.425-3.425V8.85h2.283A1.141,1.141,0,0,0,70.5,7.708V3.142A1.141,1.141,0,0,0,69.356,2ZM47.665,45.382a1.142,1.142,0,1,1,1.142-1.142,1.142,1.142,0,0,1-1.142,1.142ZM68.214,6.566h-41.1V4.283h41.1ZM41.183,59.254a6.85,6.85,0,1,0-9.868,0,6.857,6.857,0,0,0-5.341,6.677v3.425a1.142,1.142,0,1,0,2.283,0V65.931a4.571,4.571,0,0,1,4.566-4.566h6.85a4.571,4.571,0,0,1,4.566,4.566v3.425a1.142,1.142,0,1,0,2.283,0V65.931a6.857,6.857,0,0,0-5.341-6.677Zm-4.934-9.306a4.566,4.566,0,1,1-4.566,4.566,4.566,4.566,0,0,1,4.566-4.566Zm-17.9,9.306a6.85,6.85,0,1,0-9.868,0,6.857,6.857,0,0,0-5.341,6.677v3.425a1.142,1.142,0,1,0,2.283,0V65.931a4.571,4.571,0,0,1,4.566-4.566h6.85a4.571,4.571,0,0,1,4.566,4.566v3.425a1.142,1.142,0,1,0,2.283,0V65.931a6.857,6.857,0,0,0-5.341-6.677Zm-4.934-9.306A4.566,4.566,0,1,1,8.85,54.515a4.566,4.566,0,0,1,4.566-4.566Zm50.6,9.306a6.85,6.85,0,1,0-9.868,0,6.857,6.857,0,0,0-5.341,6.677v3.425a1.142,1.142,0,1,0,2.283,0V65.931a4.571,4.571,0,0,1,4.566-4.566h6.85a4.571,4.571,0,0,1,4.566,4.566v3.425a1.142,1.142,0,1,0,2.283,0V65.931a6.857,6.857,0,0,0-5.341-6.677Zm-4.934-9.306a4.566,4.566,0,1,1-4.566,4.566,4.566,4.566,0,0,1,4.566-4.566ZM6.566,36.249v5.708a1.142,1.142,0,0,0,2.283,0V25.974a1.142,1.142,0,1,0-2.283,0v7.991H5.425a1.142,1.142,0,0,1-1.142-1.142V22.549A4.571,4.571,0,0,1,8.85,17.983H30.541a1.142,1.142,0,0,1,0,2.283H21.408a1.141,1.141,0,0,0-1.142,1.142V41.957a1.142,1.142,0,0,0,2.283,0V22.549h7.991a3.425,3.425,0,0,0,0-6.85H19.649a6.85,6.85,0,1,0-10.182,0H8.85A6.857,6.857,0,0,0,2,22.549V32.824a3.429,3.429,0,0,0,3.425,3.425ZM9.991,11.133A4.566,4.566,0,1,1,14.558,15.7,4.566,4.566,0,0,1,9.991,11.133Zm4.566,22.832A1.141,1.141,0,0,1,15.7,35.107v6.85a1.142,1.142,0,0,1-2.283,0v-6.85a1.141,1.141,0,0,1,1.142-1.142ZM60.223,14.558A1.141,1.141,0,0,1,59.081,15.7H36.249a1.142,1.142,0,0,1,0-2.283H59.081a1.141,1.141,0,0,1,1.142,1.142Zm0,6.85a1.141,1.141,0,0,1-1.142,1.142H47.665a1.142,1.142,0,0,1,0-2.283H59.081a1.141,1.141,0,0,1,1.142,1.142Zm-25.116,0a1.141,1.141,0,0,1,1.142-1.142H43.1a1.142,1.142,0,0,1,0,2.283h-6.85a1.141,1.141,0,0,1-1.142-1.142Zm0,6.85a1.141,1.141,0,0,1,1.142-1.142H59.081a1.142,1.142,0,0,1,0,2.283H36.249a1.141,1.141,0,0,1-1.142-1.142Z" transform="translate(0 0)"/>
    </g>
  </g>
</svg>
