<svg xmlns="http://www.w3.org/2000/svg" xmlns:xlink="http://www.w3.org/1999/xlink" width="111.776" height="111.776" viewBox="0 0 111.776 111.776">
  <defs>
    <filter id="Path_874925" x="0" y="0" width="111.776" height="111.776" filterUnits="userSpaceOnUse">
      <feOffset dy="3" input="SourceAlpha"/>
      <feGaussianBlur stdDeviation="3" result="blur"/>
      <feFlood flood-opacity="0.161"/>
      <feComposite operator="in" in2="blur"/>
      <feComposite in="SourceGraphic"/>
    </filter>
  </defs>
  <g id="Group_1207170" data-name="Group 1207170" transform="translate(-536.051 -664)">
    <g id="Group_1206712" data-name="Group 1206712" transform="translate(-259.949 -1155.883)">
      <g id="Group_1204844" data-name="Group 1204844" transform="translate(520 -4424.991)">
        <g id="Group_1200232" data-name="Group 1200232" transform="translate(285 6250.874)">
          <g id="Group_1187153" data-name="Group 1187153">
            <g id="Group_1182177" data-name="Group 1182177">
              <g id="Group_1181903" data-name="Group 1181903">
                <g id="Group_1181438" data-name="Group 1181438">
                  <g id="Group_1111314" data-name="Group 1111314">
                    <g transform="matrix(1, 0, 0, 1, -9, -6)" filter="url(#Path_874925)">
                      <g id="Path_874925-2" data-name="Path 874925" transform="translate(9 6)" fill="#dcd9d3">
                        <path d="M 46.88790893554688 92.2763671875 C 40.75992202758789 92.2763671875 34.8160285949707 91.07652282714844 29.22134971618652 88.71018218994141 C 23.81676292419434 86.42423248291016 18.96264266967773 83.15139007568359 14.79381561279297 78.98255157470703 C 10.62497520446777 74.81372833251953 7.35213565826416 69.95960998535156 5.066188812255859 64.55502319335938 C 2.699842214584351 58.9603385925293 1.500002264976501 53.01644515991211 1.500002264976501 46.88844680786133 C 1.500002264976501 40.75992584228516 2.699842214584351 34.81603240966797 5.066188812255859 29.22135353088379 C 7.35213565826416 23.8167667388916 10.62497520446777 18.962646484375 14.79381561279297 14.79381942749023 C 18.96264266967773 10.62497997283936 23.81676292419434 7.352139949798584 29.22134971618652 5.066193103790283 C 34.8160285949707 2.699846506118774 40.75992202758789 1.500006437301636 46.88790893554688 1.500006437301636 C 53.01589584350586 1.500006437301636 58.95978927612305 2.699846506118774 64.55446624755859 5.066193103790283 C 69.95905303955078 7.352139949798584 74.81317901611328 10.62497997283936 78.98200225830078 14.79381942749023 C 83.15084075927734 18.962646484375 86.42368316650391 23.8167667388916 88.70962524414062 29.22135353088379 C 91.07597351074219 34.81603240966797 92.27581787109375 40.75992584228516 92.27581787109375 46.88791275024414 C 92.27581787109375 53.01644515991211 91.07597351074219 58.9603385925293 88.70962524414062 64.55502319335938 C 86.42368316650391 69.95960998535156 83.15084075927734 74.81372833251953 78.98200225830078 78.98255157470703 C 74.81317901611328 83.15139007568359 69.95905303955078 86.42423248291016 64.55446624755859 88.71018218994141 C 58.95978927612305 91.07652282714844 53.01589584350586 92.2763671875 46.88790893554688 92.2763671875 Z" stroke="none"/>
                        <path d="M 46.88790893554688 2.999992370605469 C 40.96175003051758 2.999992370605469 35.2144660949707 4.159965515136719 29.80567932128906 6.44769287109375 C 24.57989501953125 8.658004760742188 19.88602447509766 11.82290649414062 15.85446929931641 15.85446929931641 C 11.82290649414062 19.88602447509766 8.658012390136719 24.57989501953125 6.44769287109375 29.80567932128906 C 4.159965515136719 35.2144660949707 2.999992370605469 40.96175003051758 2.999992370605469 46.88845062255859 C 2.999992370605469 52.81460952758789 4.159965515136719 58.56189346313477 6.44769287109375 63.97069549560547 C 8.658012390136719 69.19646453857422 11.82290649414062 73.89033508300781 15.85446929931641 77.92189025878906 C 19.88602447509766 81.95343780517578 24.57989501953125 85.11833953857422 29.80567932128906 87.32865142822266 C 35.2144660949707 89.61637878417969 40.96175003051758 90.77635192871094 46.88790893554688 90.77635192871094 C 52.81406784057617 90.77635192871094 58.56135177612305 89.61637878417969 63.97013854980469 87.32865142822266 C 69.1959228515625 85.11833953857422 73.88979339599609 81.95343780517578 77.92134857177734 77.92189025878906 C 81.95291137695312 73.89033508300781 85.11781311035156 69.19646453857422 87.328125 63.97069549560547 C 89.61585235595703 58.56189346313477 90.77582550048828 52.81460952758789 90.77582550048828 46.88790893554688 C 90.77582550048828 40.96175003051758 89.61585235595703 35.2144660949707 87.328125 29.80567932128906 C 85.11781311035156 24.57989501953125 81.95291137695312 19.88602447509766 77.92134857177734 15.85446929931641 C 73.88979339599609 11.82290649414062 69.1959228515625 8.658004760742188 63.97013854980469 6.44769287109375 C 58.56135177612305 4.159965515136719 52.81406784057617 2.999992370605469 46.88790893554688 2.999992370605469 M 46.88790893554688 -7.62939453125e-06 C 72.78337860107422 -7.62939453125e-06 93.77582550048828 20.99243927001953 93.77582550048828 46.88790893554688 L 93.77582550048828 46.88845062255859 C 93.77582550048828 72.783935546875 72.78337860107422 93.77635192871094 46.88790893554688 93.77635192871094 C 20.99243927001953 93.77635192871094 -7.62939453125e-06 72.783935546875 -7.62939453125e-06 46.88845062255859 L -7.62939453125e-06 46.88790893554688 C -7.62939453125e-06 20.99243927001953 20.99243927001953 -7.62939453125e-06 46.88790893554688 -7.62939453125e-06 Z" stroke="none" fill="#fff"/>
                      </g>
                    </g>
                  </g>
                </g>
              </g>
            </g>
          </g>
        </g>
      </g>
    </g>
    <g id="ingresos" transform="translate(556.454 688)">
      <g id="Group_1207169" data-name="Group 1207169" transform="translate(9.46 1.863)">
        <g id="Group_1207166" data-name="Group 1207166" transform="translate(0 33.349)">
          <path id="Path_1271492" data-name="Path 1271492" d="M48.08,323.556l3.4,12.68a21.19,21.19,0,0,1,2.24-1.662,7,7,0,0,1,2.488-1.083,6.432,6.432,0,0,1,2.883.074h0l6.9,1.581a5.894,5.894,0,0,0,4.441-.585l17.247-9.957a3.231,3.231,0,0,0-3.231-5.6l-12.01,6.933.026-.091a3.588,3.588,0,0,0-2.51-4.387l-12.04-3.278a5.657,5.657,0,0,0-4.328,1.155Z" transform="translate(-44.685 -318.131)" fill="#ffd6bd" fill-rule="evenodd"/>
          <path id="Path_1271493" data-name="Path 1271493" d="M170.594,382.432a3.59,3.59,0,0,0,4.086-1.756,3.5,3.5,0,0,1-.123.828,3.585,3.585,0,0,1-4.387,2.51c-2.343-.64-4.691-1.257-7.038-1.886a.822.822,0,1,1,.425-1.588C165.9,381.167,168.24,381.792,170.594,382.432Z" transform="translate(-146.781 -373.783)" fill="#f9c6aa" fill-rule="evenodd"/>
          <path id="Path_1271494" data-name="Path 1271494" d="M74.86,350.259l.509,1.9a21.19,21.19,0,0,1,2.24-1.662,7,7,0,0,1,2.488-1.083,6.432,6.432,0,0,1,2.883.074h0l6.9,1.581a5.894,5.894,0,0,0,4.441-.585l17.247-9.957a3.24,3.24,0,0,0,1.182-4.413c-.027-.046-.054-.092-.083-.136a3.236,3.236,0,0,1-1.608,2.648l-17.247,9.957a5.9,5.9,0,0,1-4.441.585l-6.9-1.581h0a6.432,6.432,0,0,0-2.883-.074A6.976,6.976,0,0,0,77.1,348.6a21.08,21.08,0,0,0-2.24,1.662Z" transform="translate(-68.576 -334.054)" fill="#f9c6aa" fill-rule="evenodd"/>
          <path id="Path_1271495" data-name="Path 1271495" d="M20.869,339.162l4.153,15.5a.714.714,0,0,1-.5.872l-2.865.768a.714.714,0,0,1-.872-.5L16.63,340.3a.714.714,0,0,1,.5-.872L20,338.659a.713.713,0,0,1,.872.5Z" transform="translate(-16.606 -336.423)" fill="#64b5f6" fill-rule="evenodd"/>
          <path id="Path_1271496" data-name="Path 1271496" d="M20.869,339.157l.049.18-2.683.718a.714.714,0,0,0-.5.872l4.1,15.32-.182.049a.714.714,0,0,1-.872-.5l-4.153-15.5a.714.714,0,0,1,.5-.872L20,338.653a.715.715,0,0,1,.872.5Z" transform="translate(-16.606 -336.418)" fill="#42a5f5" fill-rule="evenodd"/>
        </g>
        <g id="Group_1207167" data-name="Group 1207167" transform="translate(15.457)">
          <path id="Path_1271497" data-name="Path 1271497" d="M178.21,15.583v2.165c5.508,5.139,10.335,12.568,5.612,18.753a9.4,9.4,0,0,1-7.695,3.806H169.5A9.4,9.4,0,0,1,161.8,36.5c-4.721-6.185.1-13.612,5.613-18.751V15.583a9.142,9.142,0,0,0-1.442-2.561c-1.621-2.315-1.293-3.1,2.669-1.634C170.3,12,169.6,9,172.811,9s2.509,3,4.172,2.386c3.961-1.464,4.29-.68,2.669,1.634a9.159,9.159,0,0,0-1.442,2.562Z" transform="translate(-159.886 -9)" fill="#72d561" fill-rule="evenodd"/>
          <path id="Path_1271498" data-name="Path 1271498" d="M222.239,15.583v2.165c5.508,5.139,10.335,12.568,5.612,18.753a9.4,9.4,0,0,1-7.695,3.806h-1.544a9.4,9.4,0,0,0,7.695-3.806c4.722-6.185-.1-13.613-5.612-18.753V15.583a9.142,9.142,0,0,1,1.442-2.561c.809-1.155,1.133-1.93.762-2.233,2.13-.51,2.094.361.782,2.233a9.142,9.142,0,0,0-1.442,2.561Zm-13-4.794c.337-.275,1.243-.164,2.874.4a.8.8,0,0,1-.988.2A17.294,17.294,0,0,0,209.24,10.789Zm6.83-1.721c2.33.441,1.886,2.878,3.4,2.318.194-.071.379-.138.556-.2C219.432,10.539,219.14,9,216.841,9A4.153,4.153,0,0,0,216.07,9.068Z" transform="translate(-203.916 -9)" fill="#57ca5a" fill-rule="evenodd"/>
          <path id="Path_1271499" data-name="Path 1271499" d="M212.686,66.75h11.9a1.436,1.436,0,1,1,0,2.872h-11.9a1.436,1.436,0,0,1,0-2.872Z" transform="translate(-205.709 -60.52)" fill="#ffda2d" fill-rule="evenodd"/>
          <path id="Path_1271500" data-name="Path 1271500" d="M212.686,66.75h11.9a1.44,1.44,0,0,1,1.348.946,1.421,1.421,0,0,0-.538-.106H213.5a1.44,1.44,0,0,0-1.436,1.436,1.422,1.422,0,0,0,.086.49,1.435,1.435,0,0,1,.538-2.766Z" transform="translate(-205.709 -60.52)" fill="#ffc700" fill-rule="evenodd"/>
        </g>
        <g id="Group_1207168" data-name="Group 1207168" transform="translate(5.113 5.803)">
          <path id="Path_1271501" data-name="Path 1271501" d="M70.455,68.938H72.4a.528.528,0,0,0,.417-.851L68.886,63a.528.528,0,0,0-.836,0l-3.931,5.088a.528.528,0,0,0,.419.851H66.48V78.69a.693.693,0,0,0,.691.691h2.592a.693.693,0,0,0,.691-.691Zm37.615,0h1.943a.528.528,0,0,0,.417-.851L106.5,63a.528.528,0,0,0-.836,0l-3.931,5.088a.528.528,0,0,0,.419.851h1.943V78.69a.693.693,0,0,0,.692.691h2.592a.693.693,0,0,0,.692-.691Z" transform="translate(-64.006 -62.795)" fill="#ffda2d" fill-rule="evenodd"/>
          <path id="Path_1271502" data-name="Path 1271502" d="M102.145,68.938h1.393a.528.528,0,0,0,.417-.851L100.024,63a.528.528,0,0,0-.836,0l-.278.36,3.653,4.727A.527.527,0,0,1,102.145,68.938ZM99.512,79.381a.694.694,0,0,0,.69-.692V68.938H101.6v9.751a.693.693,0,0,1-.691.692Zm40.247-10.443h1.393a.528.528,0,0,0,.417-.851L137.638,63a.528.528,0,0,0-.836,0l-.278.36,3.653,4.727a.527.527,0,0,1-.417.85Zm-2.633,10.443a.694.694,0,0,0,.69-.692V68.938h1.393v9.751a.694.694,0,0,1-.691.692Z" transform="translate(-95.145 -62.795)" fill="#ffc700" fill-rule="evenodd"/>
        </g>
      </g>
      <path id="Path_1271503" data-name="Path 1271503" d="M19.036,8.742l3.249,4.2H21.024a.863.863,0,0,0-.863.863v9.58h-2.25V13.81a.863.863,0,0,0-.863-.863H15.787ZM15.1,14.673h1.081V23.56a1.557,1.557,0,0,0,1.555,1.556h2.592a1.557,1.557,0,0,0,1.555-1.556V14.673h1.08a1.39,1.39,0,0,0,1.1-2.242L20.135,7.343a1.39,1.39,0,0,0-2.2,0L14,12.431a1.39,1.39,0,0,0,1.1,2.242Zm43.534-1.726a.862.862,0,0,0-.863.863v9.58h-2.25V13.81a.863.863,0,0,0-.863-.863H53.4l3.249-4.2,3.249,4.2Zm3.044-.516L57.752,7.343a1.39,1.39,0,0,0-2.2,0L51.62,12.431a1.39,1.39,0,0,0,1.1,2.242H53.8V23.56a1.557,1.557,0,0,0,1.555,1.556h2.592A1.557,1.557,0,0,0,59.5,23.56V14.673h1.08a1.39,1.39,0,0,0,1.1-2.242Zm-27.1,7.3a3.026,3.026,0,0,1,2.4-2.956V15.731a.863.863,0,0,1,1.726,0v1.011a3.037,3.037,0,0,1,2.024,1.225.863.863,0,1,1-1.4,1.011,1.3,1.3,0,0,0-1.05-.54H37.6a1.295,1.295,0,1,0,0,2.589h.482A3.021,3.021,0,0,1,38.706,27v1.044a.863.863,0,1,1-1.726,0V27.037a3.037,3.037,0,0,1-2.024-1.226.863.863,0,1,1,1.4-1.012,1.3,1.3,0,0,0,1.05.54h.68a1.295,1.295,0,1,0,0-2.589H37.6a3.02,3.02,0,0,1-3.02-3.018Zm-8.059.392a8.676,8.676,0,0,0,8.006,12.183h6.63a8.528,8.528,0,0,0,7.009-3.467c1.909-2.5,2.244-5.432,1-8.716a24.835,24.835,0,0,0-5.9-8.3H32.421a24.846,24.846,0,0,0-5.9,8.3ZM33.372,5.058a2.043,2.043,0,0,0,.714.139,2.08,2.08,0,0,0,1.685-1.234,2.353,2.353,0,0,1,4.144,0,1.875,1.875,0,0,0,2.4,1.094,12.033,12.033,0,0,1,2.278-.666,8.044,8.044,0,0,1-.616,1,14.283,14.283,0,0,0-1.161,1.84H32.87a14.089,14.089,0,0,0-1.161-1.84,8.044,8.044,0,0,1-.616-1,12.033,12.033,0,0,1,2.278.666ZM31.9,10.1a.573.573,0,1,1,0-1.146h11.9a.573.573,0,1,1,0,1.146ZM26.146,29.886c-2.295-3.007-2.711-6.5-1.237-10.376a25.393,25.393,0,0,1,5.567-8.178,2.3,2.3,0,0,1,.519-3.919c-.165-.261-.384-.585-.7-1.035-.806-1.151-1.462-2.334-.8-3.189.7-.91,2.233-.579,4.477.25a.531.531,0,0,0,.06.019,3.885,3.885,0,0,0,.273-.4A3.728,3.728,0,0,1,37.843,1a3.728,3.728,0,0,1,3.538,2.054,3.771,3.771,0,0,0,.273.4.471.471,0,0,0,.06-.019c2.244-.83,3.775-1.161,4.477-.25.66.855,0,2.038-.8,3.189-.315.449-.534.772-.7,1.035a2.3,2.3,0,0,1,.519,3.919,25.381,25.381,0,0,1,5.567,8.178c1.474,3.878,1.057,7.369-1.238,10.376a10.33,10.33,0,0,1-8.381,4.145h-6.63A10.324,10.324,0,0,1,26.146,29.886ZM52.02,40.979,34.773,50.936a5.052,5.052,0,0,1-3.818.491l-6.9-1.58a7.27,7.27,0,0,0-5.975,1.085L15.156,40l3.726-2.853a4.086,4.086,0,0,1,3.577-1.009L34.5,39.417a2.711,2.711,0,0,1-1.424,5.232L26.644,42.9a.863.863,0,0,0-.453,1.666l6.432,1.751a4.433,4.433,0,0,0,5.3-2.665l11.733-6.774a2.368,2.368,0,0,1,2.368,4.1ZM14.432,54.257,17,53.568,12.929,38.361l-2.572.689Zm37.462-19.28a4.062,4.062,0,0,0-3.106.406L38.191,41.5a4.445,4.445,0,0,0-3.239-3.748l-12.04-3.277a5.775,5.775,0,0,0-5.08,1.3l-3.16,2.42-.115-.43a1.576,1.576,0,0,0-1.928-1.114l-2.865.768A1.575,1.575,0,0,0,8.651,39.35L12.8,54.85a1.578,1.578,0,0,0,1.521,1.167,1.6,1.6,0,0,0,.407-.053L17.6,55.2a1.577,1.577,0,0,0,1.113-1.929l-.151-.564a5.756,5.756,0,0,1,5.115-1.176l6.9,1.58a7.842,7.842,0,0,0,1.757.207,6.518,6.518,0,0,0,3.31-.886l17.247-9.957a4.088,4.088,0,0,0-.99-7.494Z" fill-rule="evenodd"/>
    </g>
  </g>
</svg>
