<svg xmlns="http://www.w3.org/2000/svg" width="129.063" height="61.087" viewBox="0 0 129.063 61.087">
  <g id="Group_1207268" data-name="Group 1207268" transform="translate(-407.051 -2206.961)">
    <g id="Group_1206732" data-name="Group 1206732" transform="translate(0.051 -3260.738)">
      <g id="Group_1205225" data-name="Group 1205225" transform="translate(-380.781 2903.871)">
        <g id="Rectangle_410589" data-name="Rectangle 410589" transform="translate(787.781 2575.623)" fill="#ffc94a" stroke="#dfab32" stroke-width="1">
          <rect width="129.063" height="43.021" rx="8" stroke="none"/>
          <rect x="0.5" y="0.5" width="128.063" height="42.021" rx="7.5" fill="none"/>
        </g>
      </g>
    </g>
    <g id="objetivo" transform="translate(391.48 2206.961)">
      <g id="Group_1207239" data-name="Group 1207239" transform="translate(61.684 4.752)">
        <path id="Path_1271601" data-name="Path 1271601" d="M118.106,39.825a18.681,18.681,0,1,0,18.681,18.681,18.682,18.682,0,0,0-18.681-18.681Zm0,33.506a14.824,14.824,0,1,1,14.824-14.824A14.842,14.842,0,0,1,118.106,73.331Z" transform="translate(-99.425 -39.825)" fill="#e278b1"/>
      </g>
      <g id="Group_1207240" data-name="Group 1207240" transform="translate(61.684 18.612)">
        <path id="Path_1271602" data-name="Path 1271602" d="M103.282,160.814a14.76,14.76,0,0,1,.805-4.821h-4.033a18.779,18.779,0,0,0,0,9.642h4.033A14.76,14.76,0,0,1,103.282,160.814Z" transform="translate(-99.425 -155.993)" fill="#dd5ca2"/>
      </g>
      <g id="Group_1207241" data-name="Group 1207241" transform="translate(75.544 4.752)">
        <path id="Path_1271603" data-name="Path 1271603" d="M215.593,40.454v4.033a14.83,14.83,0,0,1,9.642,0V40.454a18.779,18.779,0,0,0-9.642,0Z" transform="translate(-215.593 -39.825)" fill="#dd5ca2"/>
      </g>
      <g id="Group_1207242" data-name="Group 1207242" transform="translate(94.384 18.612)">
        <path id="Path_1271604" data-name="Path 1271604" d="M374.3,160.814a14.76,14.76,0,0,1-.805,4.821h4.033a18.779,18.779,0,0,0,0-9.642H373.5A14.762,14.762,0,0,1,374.3,160.814Z" transform="translate(-373.499 -155.993)" fill="#dd5ca2"/>
      </g>
      <g id="Group_1207243" data-name="Group 1207243" transform="translate(69.397 12.465)">
        <path id="Path_1271605" data-name="Path 1271605" d="M175.043,104.476a10.968,10.968,0,1,0,10.968,10.968A10.98,10.98,0,0,0,175.043,104.476Zm0,18.078a7.111,7.111,0,1,1,7.111-7.111A7.119,7.119,0,0,1,175.043,122.554Z" transform="translate(-164.075 -104.476)" fill="#ffe07d"/>
      </g>
      <g id="Group_1207244" data-name="Group 1207244" transform="translate(77.111 20.179)">
        <circle id="Ellipse_13010" data-name="Ellipse 13010" cx="3.254" cy="3.254" r="3.254" fill="#e278b1"/>
      </g>
      <g id="Group_1207245" data-name="Group 1207245" transform="translate(78.437 0.895)">
        <path id="Path_1271606" data-name="Path 1271606" d="M242.489,19.07h-1.446a1.205,1.205,0,0,1-1.205-1.205V8.705A1.205,1.205,0,0,1,241.042,7.5h1.446a1.205,1.205,0,0,1,1.205,1.205v9.16A1.205,1.205,0,0,1,242.489,19.07Z" transform="translate(-239.837 -7.5)" fill="#c3247d"/>
      </g>
      <g id="Group_1207246" data-name="Group 1207246" transform="translate(57.827 21.504)">
        <path id="Path_1271607" data-name="Path 1271607" d="M78.67,181.442v1.446a1.205,1.205,0,0,1-1.205,1.205h-9.16a1.205,1.205,0,0,1-1.205-1.205v-1.446a1.205,1.205,0,0,1,1.205-1.205h9.16A1.205,1.205,0,0,1,78.67,181.442Z" transform="translate(-67.1 -180.237)" fill="#c3247d"/>
      </g>
      <g id="Group_1207247" data-name="Group 1207247" transform="translate(91.333 21.504)">
        <path id="Path_1271608" data-name="Path 1271608" d="M347.926,182.889v-1.446a1.205,1.205,0,0,1,1.205-1.205h9.16a1.205,1.205,0,0,1,1.205,1.205v1.446a1.205,1.205,0,0,1-1.205,1.205h-9.16A1.205,1.205,0,0,1,347.926,182.889Z" transform="translate(-347.926 -180.237)" fill="#c3247d"/>
      </g>
      <g id="Group_1207253" data-name="Group 1207253" transform="translate(85.427 37.775)">
        <g id="Group_1207248" data-name="Group 1207248" transform="translate(13.981 17.837)">
          <path id="Path_1271609" data-name="Path 1271609" d="M415.606,466.114h3.857v4.58h-3.857Z" transform="translate(-415.606 -466.114)" fill="#f1d0a5"/>
        </g>
        <g id="Group_1207249" data-name="Group 1207249" transform="translate(4.459)">
          <circle id="Ellipse_13011" data-name="Ellipse 13011" cx="4.459" cy="4.459" r="4.459" fill="#f1d0a5"/>
        </g>
        <g id="Group_1207250" data-name="Group 1207250" transform="translate(4.973 0.514)">
          <path id="Path_1271610" data-name="Path 1271610" d="M346.131,320.915a4.459,4.459,0,0,1-6.023,6.023,4.459,4.459,0,1,0,6.023-6.023Z" transform="translate(-340.108 -320.915)" fill="#f1b986"/>
        </g>
        <g id="Group_1207251" data-name="Group 1207251" transform="translate(0 8.919)">
          <path id="Path_1271611" data-name="Path 1271611" d="M311.443,391.362h-8.2a4.821,4.821,0,0,0-4.821,4.821v4.1h3.857v4.58h10.124v-4.58h3.857v-4.1A4.821,4.821,0,0,0,311.443,391.362Z" transform="translate(-298.426 -391.362)" fill="#a2f4c1"/>
        </g>
        <g id="Group_1207252" data-name="Group 1207252" transform="translate(0 8.919)">
          <path id="Path_1271612" data-name="Path 1271612" d="M304.935,404.861V393.772a7.435,7.435,0,0,0-.4-2.41h-1.286a4.821,4.821,0,0,0-4.821,4.821v4.1h3.857v4.58Z" transform="translate(-298.427 -391.362)" fill="#78d0b1"/>
        </g>
      </g>
      <g id="Group_1207259" data-name="Group 1207259" transform="translate(57.466 37.775)">
        <g id="Group_1207254" data-name="Group 1207254" transform="translate(0 17.837)">
          <path id="Path_1271613" data-name="Path 1271613" d="M0,0H3.857V4.58H0Z" transform="translate(3.857 4.58) rotate(180)" fill="#f1d0a5"/>
        </g>
        <g id="Group_1207255" data-name="Group 1207255" transform="translate(4.459)">
          <circle id="Ellipse_13012" data-name="Ellipse 13012" cx="4.459" cy="4.459" r="4.459" fill="#f1d0a5"/>
        </g>
        <g id="Group_1207256" data-name="Group 1207256" transform="translate(4.973 0.514)">
          <path id="Path_1271614" data-name="Path 1271614" d="M105.75,326.938a4.459,4.459,0,0,0,6.023-6.023,4.459,4.459,0,1,1-6.023,6.023Z" transform="translate(-105.75 -320.915)" fill="#f1b986"/>
        </g>
        <g id="Group_1207257" data-name="Group 1207257" transform="translate(0 8.919)">
          <path id="Path_1271615" data-name="Path 1271615" d="M68.89,391.362h8.2a4.821,4.821,0,0,1,4.821,4.821v4.1H78.05v4.58H67.926v-4.58H64.069v-4.1A4.821,4.821,0,0,1,68.89,391.362Z" transform="translate(-64.069 -391.362)" fill="#ffe07d"/>
        </g>
        <g id="Group_1207258" data-name="Group 1207258" transform="translate(11.329 8.919)">
          <path id="Path_1271616" data-name="Path 1271616" d="M159.024,404.861V393.772a7.434,7.434,0,0,1,.4-2.41h1.286a4.821,4.821,0,0,1,4.821,4.821v4.1h-3.857v4.58Z" transform="translate(-159.024 -391.362)" fill="#ffd064"/>
        </g>
      </g>
      <g id="Group_1207266" data-name="Group 1207266" transform="translate(71.446 35.365)">
        <g id="Group_1207260" data-name="Group 1207260" transform="translate(13.981 17.837)">
          <path id="Path_1271617" data-name="Path 1271617" d="M298.427,445.911h3.857v6.99h-3.857Z" transform="translate(-298.427 -445.911)" fill="#f1d0a5"/>
        </g>
        <g id="Group_1207261" data-name="Group 1207261" transform="translate(0 17.837)">
          <path id="Path_1271618" data-name="Path 1271618" d="M0,0H3.857V6.99H0Z" transform="translate(3.857 6.99) rotate(180)" fill="#f1d0a5"/>
        </g>
        <g id="Group_1207262" data-name="Group 1207262" transform="translate(4.459)">
          <circle id="Ellipse_13013" data-name="Ellipse 13013" cx="4.459" cy="4.459" r="4.459" fill="#f1d0a5"/>
        </g>
        <g id="Group_1207263" data-name="Group 1207263" transform="translate(4.973 0.514)">
          <path id="Path_1271619" data-name="Path 1271619" d="M228.952,300.712a4.459,4.459,0,0,1-6.023,6.023,4.459,4.459,0,1,0,6.023-6.023Z" transform="translate(-222.929 -300.712)" fill="#f1b986"/>
        </g>
        <g id="Group_1207264" data-name="Group 1207264" transform="translate(0 8.919)">
          <path id="Path_1271620" data-name="Path 1271620" d="M194.265,371.159h-8.2a4.821,4.821,0,0,0-4.821,4.821v4.1h3.857v6.99H195.23v-6.99h3.857v-4.1A4.821,4.821,0,0,0,194.265,371.159Z" transform="translate(-181.249 -371.159)" fill="#80b4fb"/>
        </g>
        <g id="Group_1207265" data-name="Group 1207265" transform="translate(3.857 9.191)">
          <path id="Path_1271621" data-name="Path 1271621" d="M224.329,373.437a20.116,20.116,0,0,1-10.756,10.942v4.7H223.7v-6.99h3.857v-4.1A4.822,4.822,0,0,0,224.329,373.437Z" transform="translate(-213.573 -373.437)" fill="#61a2f9"/>
        </g>
      </g>
      <g id="Group_1207267" data-name="Group 1207267" transform="translate(56.571 0)">
        <path id="Path_1271622" data-name="Path 1271622" d="M196.906,145.312a8.006,8.006,0,1,0-8.006-8.006A8.015,8.015,0,0,0,196.906,145.312Zm0-14.222a6.216,6.216,0,1,1-6.216,6.216A6.223,6.223,0,0,1,196.906,131.09Z" transform="translate(-173.112 -113.873)"/>
        <path id="Path_1271623" data-name="Path 1271623" d="M225.375,169.925a4.149,4.149,0,1,0-4.149-4.149A4.154,4.154,0,0,0,225.375,169.925Zm0-6.508a2.359,2.359,0,1,1-2.359,2.359A2.362,2.362,0,0,1,225.375,163.417Z" transform="translate(-201.581 -142.343)"/>
        <path id="Path_1271624" data-name="Path 1271624" d="M104.159,51.515A5.723,5.723,0,0,0,98.443,45.8h-.106a5.35,5.35,0,0,0-3.753-8.912c.124-.131.247-.263.367-.4a19.4,19.4,0,0,0,4.787-10.233H101.7a2.1,2.1,0,0,0,2.1-2.1V22.71a2.1,2.1,0,0,0-2.1-2.1h-1.96A19.584,19.584,0,0,0,83.188,4.061V2.1a2.1,2.1,0,0,0-2.1-2.1H79.642a2.1,2.1,0,0,0-2.1,2.1V4.061A19.584,19.584,0,0,0,60.992,20.61H59.032a2.1,2.1,0,0,0-2.1,2.1v1.446a2.1,2.1,0,0,0,2.1,2.1h1.959a19.4,19.4,0,0,0,4.787,10.233c.121.135.243.267.367.4A5.35,5.35,0,0,0,62.393,45.8h-.106a5.723,5.723,0,0,0-5.716,5.716v8.678a.9.9,0,0,0,.895.895h6.082a.895.895,0,1,0,0-1.79H62.217V53.2a.895.895,0,1,0-1.79,0v1.515H58.361v-3.2a3.931,3.931,0,0,1,3.927-3.927h8.2c.091,0,.181,0,.272.011a5.7,5.7,0,0,0-.2,1.505V59.3H67.724a.895.895,0,1,0,0,1.79H92.641a.895.895,0,0,0,0-1.79H90.179V49.1a5.7,5.7,0,0,0-.2-1.505c.09-.006.181-.011.272-.011h8.2a3.931,3.931,0,0,1,3.927,3.927v3.2H100.3V53.2a.895.895,0,0,0-1.79,0v6.1h-1.7a.895.895,0,1,0,0,1.79h6.448a.9.9,0,0,0,.895-.895ZM60.427,56.507V59.3H58.36V56.507ZM97.91,42.234A3.568,3.568,0,0,1,94.355,45.8h-.018a3.564,3.564,0,1,1,3.574-3.564ZM85.686,40.41a5.317,5.317,0,0,0-.192-2.12A15.754,15.754,0,0,0,95.828,26.256h2.1A17.73,17.73,0,0,1,85.686,40.41ZM80.365,13.36A10.073,10.073,0,1,1,70.292,23.435v0A10.084,10.084,0,0,1,80.365,13.36Zm2.823-2.1V9.794A13.928,13.928,0,0,1,94,20.609H92.538a2.094,2.094,0,0,0-.627.1,11.9,11.9,0,0,0-8.818-8.818A2.089,2.089,0,0,0,83.188,11.26ZM82.78,35.048a11.9,11.9,0,0,0,9.13-8.888,2.093,2.093,0,0,0,.627.1h1.469A13.888,13.888,0,0,1,84.69,36.673a5.391,5.391,0,0,0-1.91-1.625Zm-4.83,0a5.389,5.389,0,0,0-1.91,1.625,13.888,13.888,0,0,1-9.317-10.417h1.469a2.092,2.092,0,0,0,.627-.1A11.9,11.9,0,0,0,77.95,35.048ZM76.8,39.824a3.565,3.565,0,1,1,3.565,3.565A3.569,3.569,0,0,1,76.8,39.824ZM102.008,22.71v1.446a.311.311,0,0,1-.31.31h-9.16a.311.311,0,0,1-.31-.31V22.71a.311.311,0,0,1,.31-.31h9.16a.311.311,0,0,1,.31.31Zm-4.081-2.1h-2.1A15.72,15.72,0,0,0,83.188,7.97v-2.1A17.842,17.842,0,0,1,97.927,20.609ZM79.642,1.79h1.446a.311.311,0,0,1,.311.31V8.709s0,0,0,.006V11.26a.311.311,0,0,1-.311.31H79.642a.311.311,0,0,1-.31-.31V2.1a.311.311,0,0,1,.31-.31Zm-2.1,4.082v2.1a15.671,15.671,0,0,0-6.864,3.089.895.895,0,1,0,1.1,1.408,13.886,13.886,0,0,1,5.759-2.675V11.26a2.093,2.093,0,0,0,.1.627,11.9,11.9,0,0,0-8.818,8.818,2.093,2.093,0,0,0-.627-.1H66.725a13.923,13.923,0,0,1,2.343-5.317.895.895,0,1,0-1.45-1.048A15.713,15.713,0,0,0,64.9,20.61H62.8A17.842,17.842,0,0,1,77.542,5.872ZM58.722,24.156V22.71a.311.311,0,0,1,.31-.31h9.16a.311.311,0,0,1,.31.31v1.446a.311.311,0,0,1-.31.31h-9.16a.311.311,0,0,1-.31-.31Zm4.08,2.1h2.1A15.754,15.754,0,0,0,75.236,38.29a5.318,5.318,0,0,0-.192,2.12A17.73,17.73,0,0,1,62.8,26.256Zm.018,15.979A3.565,3.565,0,1,1,66.394,45.8h-.018A3.568,3.568,0,0,1,62.82,42.234ZM70.483,45.8h-.107a5.343,5.343,0,0,0,1.2-4.864A19.473,19.473,0,0,0,75.7,42.45a5.386,5.386,0,0,0,.673.939h-.107A5.714,5.714,0,0,0,71.539,45.9a5.737,5.737,0,0,0-1.056-.1Zm3.926,13.5H72.341V54.1h2.067Zm1.79-8.506a.895.895,0,0,0-1.79,0v1.516H72.341V49.1a3.93,3.93,0,0,1,3.926-3.926h8.2A3.93,3.93,0,0,1,88.389,49.1v3.2H86.322V50.792a.895.895,0,0,0-1.79,0V59.3H76.2V50.792ZM88.389,59.3H86.322V54.1h2.067Zm.8-13.4a5.714,5.714,0,0,0-4.728-2.508h-.107a5.38,5.38,0,0,0,.673-.939,19.467,19.467,0,0,0,4.123-1.515,5.343,5.343,0,0,0,1.2,4.864h-.107A5.736,5.736,0,0,0,89.191,45.9ZM100.3,59.3V56.507h2.066V59.3Z" transform="translate(-56.571 0)"/>
      </g>
    </g>
  </g>
</svg>
