<svg xmlns="http://www.w3.org/2000/svg" xmlns:xlink="http://www.w3.org/1999/xlink" width="126.376" height="126.376" viewBox="0 0 126.376 126.376">
  <defs>
    <filter id="Path_874925" x="0" y="0.001" width="126.376" height="126.376" filterUnits="userSpaceOnUse">
      <feOffset dy="3" input="SourceAlpha"/>
      <feGaussianBlur stdDeviation="3" result="blur"/>
      <feFlood flood-opacity="0.161"/>
      <feComposite operator="in" in2="blur"/>
      <feComposite in="SourceGraphic"/>
    </filter>
  </defs>
  <g id="Group_1207238" data-name="Group 1207238" transform="translate(-3531 10525.001)">
    <g id="Group_1206726" data-name="Group 1206726" transform="translate(2434.949 -14397)">
      <g id="Group_1205731" data-name="Group 1205731" transform="translate(359 -295)">
        <g id="Group_1205682" data-name="Group 1205682" transform="translate(461.051 -2077.874)">
          <g id="Group_1200232" data-name="Group 1200232" transform="translate(285 6250.874)">
            <g id="Group_1187153" data-name="Group 1187153">
              <g id="Group_1182177" data-name="Group 1182177">
                <g id="Group_1181903" data-name="Group 1181903">
                  <g id="Group_1181438" data-name="Group 1181438">
                    <g id="Group_1111314" data-name="Group 1111314">
                      <g transform="matrix(1, 0, 0, 1, -9, -6)" filter="url(#Path_874925)">
                        <g id="Path_874925-2" data-name="Path 874925" transform="translate(9 6)" fill="#ffc94a">
                          <path d="M 54.1878662109375 106.8763656616211 C 47.07439041137695 106.8763656616211 40.17448043823242 105.4835205078125 33.67983627319336 102.7365036010742 C 27.40597343444824 100.0828857421875 21.77115821838379 96.28368377685547 16.93191146850586 91.44444274902344 C 12.09268188476562 86.60519409179688 8.293481826782227 80.97038269042969 5.639866352081299 74.696533203125 C 2.892850875854492 68.20187377929688 1.500004649162292 61.30196380615234 1.500004649162292 54.1884880065918 C 1.500004649162292 47.07439422607422 2.892850875854492 40.17448806762695 5.639866352081299 33.67982482910156 C 8.293481826782227 27.40597915649414 12.09268188476562 21.77116394042969 16.93191146850586 16.93191719055176 C 21.77115821838379 12.09267139434814 27.40597343444824 8.293471336364746 33.67983627319336 5.639855861663818 C 40.17448043823242 2.892840623855591 47.07439041137695 1.499994397163391 54.1878662109375 1.499994397163391 C 61.30134201049805 1.499994397163391 68.20124816894531 2.892840623855591 74.69589996337891 5.639855861663818 C 80.96975708007812 8.293471336364746 86.60457611083984 12.09267139434814 91.44381713867188 16.93191719055176 C 96.28305053710938 21.77116394042969 100.0822525024414 27.40597915649414 102.7358627319336 33.67982482910156 C 105.4828796386719 40.17448806762695 106.8757247924805 47.07439422607422 106.8757247924805 54.18787002563477 C 106.8757247924805 61.30196380615234 105.4828796386719 68.20187377929688 102.7358627319336 74.696533203125 C 100.0822525024414 80.97038269042969 96.28305053710938 86.60519409179688 91.44381713867188 91.44444274902344 C 86.60457611083984 96.28368377685547 80.96975708007812 100.0828857421875 74.69589996337891 102.7365036010742 C 68.20124816894531 105.4835205078125 61.30134201049805 106.8763656616211 54.1878662109375 106.8763656616211 Z" stroke="none"/>
                          <path d="M 54.1878662109375 2.999992370605469 C 47.2762336730957 2.999992370605469 40.57291412353516 4.352981567382812 34.26416778564453 7.0213623046875 C 28.16909790039062 9.599342346191406 22.69454956054688 13.29059600830078 17.99258422851562 17.99257659912109 C 13.29059600830078 22.69454193115234 9.599349975585938 28.16909790039062 7.021369934082031 34.26416015625 C 4.352981567382812 40.57292938232422 3 47.27622985839844 3 54.18849563598633 C 3 61.10012817382812 4.352981567382812 67.80344390869141 7.021369934082031 74.11219787597656 C 9.599349975585938 80.20726013183594 13.29059600830078 85.68180847167969 17.99258422851562 90.38378143310547 C 22.69454956054688 95.08576202392578 28.16909790039062 98.77701568603516 34.26416778564453 101.3549957275391 C 40.57291412353516 104.0233764648438 47.2762336730957 105.3763656616211 54.1878662109375 105.3763656616211 C 61.0994987487793 105.3763656616211 67.80281066894531 104.0233764648438 74.11156463623047 101.3549957275391 C 80.20663452148438 98.77701568603516 85.68118286132812 95.08576202392578 90.38314819335938 90.38378143310547 C 95.08512878417969 85.68180847167969 98.77638244628906 80.20726013183594 101.3543701171875 74.11219787597656 C 104.0227508544922 67.80344390869141 105.375732421875 61.10012817382812 105.375732421875 54.1878776550293 C 105.375732421875 47.27622985839844 104.0227508544922 40.57292938232422 101.3543701171875 34.26416015625 C 98.77638244628906 28.16909790039062 95.08512878417969 22.69454193115234 90.38314819335938 17.99257659912109 C 85.68118286132812 13.29059600830078 80.20663452148438 9.599342346191406 74.11156463623047 7.0213623046875 C 67.80281066894531 4.352981567382812 61.0994987487793 2.999992370605469 54.1878662109375 2.999992370605469 M 54.1878662109375 -7.62939453125e-06 C 84.11499786376953 -7.62939453125e-06 108.375732421875 24.26072692871094 108.375732421875 54.1878776550293 L 108.375732421875 54.18849563598633 C 108.375732421875 84.11563110351562 84.11499786376953 108.3763656616211 54.1878662109375 108.3763656616211 C 24.26073455810547 108.3763656616211 0 84.11563110351562 0 54.18849563598633 L 0 54.1878776550293 C 0 24.26072692871094 24.26073455810547 -7.62939453125e-06 54.1878662109375 -7.62939453125e-06 Z" stroke="none" fill="#fff"/>
                        </g>
                      </g>
                    </g>
                  </g>
                </g>
              </g>
            </g>
          </g>
        </g>
      </g>
    </g>
    <g id="fruit_15878253" transform="translate(3557.788 -10509.834)">
      <path id="Path_1271587" data-name="Path 1271587" d="M0,63.167H14.788V84.306H0Z" transform="translate(0 -18.617)" fill="#ffdb80"/>
      <path id="Path_1271588" data-name="Path 1271588" d="M51.29,46.789a26.523,26.523,0,0,1,3.792,1.124c.863.286,8.841,2.919,9.752,3.2a31.153,31.153,0,0,0,6.515,1.518A7.2,7.2,0,0,1,75.1,53.844l.026.021a5.328,5.328,0,0,0,1.383-1.732C79.444,46.162,82.1,34.028,73.093,32.7S67.5,33.933,60.77,32.606s-11,5.688-9.764,11.186a10.962,10.962,0,0,0,.284,3Z" transform="translate(-21.905 -5.309)" fill="#fc785e"/>
      <path id="Path_1271589" data-name="Path 1271589" d="M63.052,43.015a1.137,1.137,0,1,0-1.416-1.78c-3.008,2.39-1.972,6.67-1.927,6.851a1.137,1.137,0,0,0,2.206-.554C61.908,47.5,61.209,44.479,63.052,43.015Z" transform="translate(-25.659 -9.052)" fill="#2d4356"/>
      <path id="Path_1271590" data-name="Path 1271590" d="M82.449,67.567c-.853,2.087-4.931,5.215-4.931,5.215l-21.9,13.172s-1.706,2.087-7.3,0S32.87,79.983,32.87,79.983l-7.109,2.275L25.67,63.2s6.825-2.844,12.319-.66,24.741,7.3,24.741,7.3l.887-.887a2.257,2.257,0,0,0,1.831.961h.023a2.27,2.27,0,0,0,1.848-.95c.307-.421.586-.836.83-1.2a21.881,21.881,0,0,0,1.689-3q.333-.717.614-1.45c.08-.2.154-.415.228-.62l2.48-.347,6.063,1.991S83.3,65.479,82.449,67.567Z" transform="translate(-11.07 -17.993)" fill="#e1ebf4"/>
      <g id="Group_1207237" data-name="Group 1207237" transform="translate(4.55 19.996)">
        <path id="Path_1271591" data-name="Path 1271591" d="M51.854,41.81a17.682,17.682,0,0,1-.258-7.73,7.247,7.247,0,0,1,3.283-5.019,7.9,7.9,0,0,1,6.455-.385,7.728,7.728,0,0,0,2.709.662,7.189,7.189,0,0,0,3.35-.662,7.907,7.907,0,0,1,6.455.384,7.25,7.25,0,0,1,3.283,5.02,17.652,17.652,0,0,1-2.683,13.15c-.2.3-.43.635-.675.979a4.73,4.73,0,0,1,1.767,1.44c.292-.405.559-.8.795-1.147a19.938,19.938,0,0,0,3.029-14.855A9.481,9.481,0,0,0,75,27.1a10.156,10.156,0,0,0-8.543-.5,5.669,5.669,0,0,1-.678.251,7.688,7.688,0,0,0-3.05-6.654,1.137,1.137,0,1,0-1.294,1.87,5.419,5.419,0,0,1,2.047,4.91,5.506,5.506,0,0,1-1.219-.377,10.151,10.151,0,0,0-8.544.5,9.48,9.48,0,0,0-4.36,6.544,19.872,19.872,0,0,0,.042,7.607c.815.157,1.639.34,2.45.558Z" transform="translate(-25.688 -19.996)" fill="#2d4356"/>
        <circle id="Ellipse_13008" data-name="Ellipse 13008" cx="1.137" cy="1.137" r="1.137" transform="translate(4.55 40.394)" fill="#2d4356"/>
        <circle id="Ellipse_13009" data-name="Ellipse 13009" cx="1.137" cy="1.137" r="1.137" transform="translate(0 40.427)" fill="#2d4356"/>
        <path id="Path_1271592" data-name="Path 1271592" d="M18.137,43.939A1.137,1.137,0,0,0,19.275,42.8c0-5.474,4.353-10.013,10.023-10.844a1.126,1.126,0,0,0,.195.73,1.158,1.158,0,0,0,1.583.286l2.5-1.731a1.137,1.137,0,0,0-.224-1.989L30.491,28.1a1.133,1.133,0,0,0-1.429,1.577C22.245,30.635,17,36.155,17,42.8a1.137,1.137,0,0,0,1.138,1.137Z" transform="translate(-11.882 -23.457)" fill="#2d4356"/>
      </g>
      <path id="Path_1271593" data-name="Path 1271593" d="M82.584,72.327a2.341,2.341,0,0,1-1.16,1.706c-.091.057-23.768,14.509-24.707,15.083a7.765,7.765,0,0,1-6.734.068c-.091-.034-14.145-5.614-14.185-5.631a4.572,4.572,0,0,0-2.878-.04L28,85.027V83.889l4.92-1.513a4.572,4.572,0,0,1,2.878.04c.04.017,14.094,5.6,14.185,5.631a7.765,7.765,0,0,0,6.734-.068C57.655,87.4,81.332,72.952,81.423,72.9a2.353,2.353,0,0,0,1.138-1.575,3.156,3.156,0,0,1,.023,1.007Z" transform="translate(-12.075 -22.133)" fill="#9fa5aa" opacity="0.5"/>
      <path id="Path_1271594" data-name="Path 1271594" d="M13.65,96.3v1.138a.463.463,0,0,1-.5.4H1.137a1.135,1.135,0,0,0-.984.569A1.136,1.136,0,0,1,1.137,96.7H13.15A.463.463,0,0,0,13.65,96.3Z" transform="translate(0 -32.906)" fill="#ad9359" opacity="0.45"/>
      <path id="Path_1271595" data-name="Path 1271595" d="M79.162,44.227a16.786,16.786,0,0,0-.307-2.815,7.25,7.25,0,0,0-3.282-5.022,7.906,7.906,0,0,0-6.455-.381,7.249,7.249,0,0,1-3.35.66,7.748,7.748,0,0,1-2.713-.66,7.906,7.906,0,0,0-6.455.381,7.25,7.25,0,0,0-3.282,5.022,16.791,16.791,0,0,0-.3,2.673,17.044,17.044,0,0,1,.3-3.811A7.25,7.25,0,0,1,56.6,35.252a7.906,7.906,0,0,1,6.455-.381,7.747,7.747,0,0,0,2.713.66,7.249,7.249,0,0,0,3.35-.66,7.906,7.906,0,0,1,6.455.381,7.25,7.25,0,0,1,3.282,5.022,17.388,17.388,0,0,1,.307,3.953Z" transform="translate(-22.861 -6.193)" fill="#f9dbd7" opacity="0.3"/>
      <path id="Path_1271596" data-name="Path 1271596" d="M63.263,72.369a1.726,1.726,0,0,1-.125.552,2.265,2.265,0,0,0-1.871-.933,38.739,38.739,0,0,1-7.593-1.706c-1.007-.307-9.982-3.276-10-3.282a33.4,33.4,0,0,0-8.77-1.78,13.935,13.935,0,0,0-5.369.6L28,66.3V65.163l1.53-.483a13.936,13.936,0,0,1,5.369-.6,33.4,33.4,0,0,1,8.77,1.78c.023.006,9,2.975,10,3.282a38.739,38.739,0,0,0,7.593,1.706C62.125,70.9,63.32,71.323,63.263,72.369Z" transform="translate(-12.075 -18.991)" fill="#fff" opacity="0.5"/>
      <path id="Path_1271597" data-name="Path 1271597" d="M13.659,65.008v1.138a.467.467,0,0,0-.5-.41h-12A1.136,1.136,0,0,1,.174,64.03a1.128,1.128,0,0,0,.984.569h12a.467.467,0,0,1,.5.41Z" transform="translate(-0.009 -18.989)" fill="#f9edd2" opacity="0.5"/>
      <path id="Path_1271598" data-name="Path 1271598" d="M112.715,70.711a.89.89,0,0,1-.023.131,2.511,2.511,0,0,0-.518-1.155,3.242,3.242,0,0,0-3.691-.677L97.87,75.9c.028-.2.051-.41.063-.62a4.55,4.55,0,0,0,0-.557l10.55-6.854a3.242,3.242,0,0,1,3.691.677,2.845,2.845,0,0,1,.54,2.161Z" transform="translate(-42.206 -20.517)" fill="#fff" opacity="0.5"/>
      <path id="Path_1271599" data-name="Path 1271599" d="M108.745,65.129l-1.007.654A7.439,7.439,0,0,0,103.9,65.7c-.2.08-.392.148-.569.2q.333-.717.614-1.45a3.011,3.011,0,0,1,.392.011,6.453,6.453,0,0,1,4.408.665Z" transform="translate(-44.561 -19.127)" fill="#fff" opacity="0.5"/>
      <path id="Path_1271600" data-name="Path 1271600" d="M70.855,63.105a7.211,7.211,0,0,0-4.368-.8c-1.59-1.867-4.278-2.261-6.352-2.048a22.33,22.33,0,0,1-.794,2.446,6.634,6.634,0,0,1,4.842.573l-8.7,5.648A5.712,5.712,0,0,1,55.73,70.9c-.012.209-.035.415-.067.619l10.613-6.893a3.25,3.25,0,0,1,3.692.675,2.828,2.828,0,0,1,.539,2.165,2.33,2.33,0,0,1-1.158,1.7L44.642,84.25a7.767,7.767,0,0,1-6.734.069L23.721,78.688a4.529,4.529,0,0,0-2.874-.037l-4.922,1.509V63.44l1.53-.486a13.973,13.973,0,0,1,5.37-.594A33.471,33.471,0,0,1,31.6,64.139c.02.008,8.994,2.973,10,3.28a38.965,38.965,0,0,0,7.593,1.711c.86.047,2.053.469,1.995,1.515-.071,1.286-1.612,2.469-3.584,2.753a22.767,22.767,0,0,1-12.839-1.7,4.686,4.686,0,0,0-3.365-.1c-.045.016-1.492.738-1.492.738a1.137,1.137,0,1,0,1.021,2.032l1.29-.647a2.43,2.43,0,0,1,1.676.073,25.821,25.821,0,0,0,10.068,2.156,27.353,27.353,0,0,0,3.966-.309c3.121-.45,5.4-2.456,5.53-4.878a3.473,3.473,0,0,0-1.572-3.106,4.942,4.942,0,0,0-2.568-.805,35.622,35.622,0,0,1-7.054-1.614c-.978-.3-9.549-3.13-9.859-3.232A35.753,35.753,0,0,0,23.022,60.1a16.236,16.236,0,0,0-6.255.692l-1.725.548A2.811,2.811,0,0,0,13.15,60.6h-12a1.137,1.137,0,0,0,0,2.274h12a.467.467,0,0,1,.5.406V81.8a.467.467,0,0,1-.5.406H1.138a1.137,1.137,0,1,0,0,2.274H13.15a2.759,2.759,0,0,0,2.642-1.9l5.741-1.76a2.269,2.269,0,0,1,1.393,0l14.144,5.616a11.743,11.743,0,0,0,4.333.884,9.1,9.1,0,0,0,4.341-1.076c.019-.01,24.758-15.113,24.791-15.133A4.47,4.47,0,0,0,72.8,67.326a4.547,4.547,0,0,0-1.942-4.221Z" transform="translate(-0.001 -17.267)" fill="#2d4356"/>
    </g>
  </g>
</svg>
