<svg xmlns="http://www.w3.org/2000/svg" xmlns:xlink="http://www.w3.org/1999/xlink" width="111.776" height="111.776" viewBox="0 0 111.776 111.776">
  <defs>
    <filter id="Path_874925" x="0" y="0" width="111.776" height="111.776" filterUnits="userSpaceOnUse">
      <feOffset dy="3" input="SourceAlpha"/>
      <feGaussianBlur stdDeviation="3" result="blur"/>
      <feFlood flood-opacity="0.161"/>
      <feComposite operator="in" in2="blur"/>
      <feComposite in="SourceGraphic"/>
    </filter>
  </defs>
  <g id="Group_1207189" data-name="Group 1207189" transform="translate(-1164.051 -664)">
    <g id="Group_1206715" data-name="Group 1206715" transform="translate(368.051 -1155.883)">
      <g id="Group_1204844" data-name="Group 1204844" transform="translate(520 -4424.991)">
        <g id="Group_1200232" data-name="Group 1200232" transform="translate(285 6250.874)">
          <g id="Group_1187153" data-name="Group 1187153">
            <g id="Group_1182177" data-name="Group 1182177">
              <g id="Group_1181903" data-name="Group 1181903">
                <g id="Group_1181438" data-name="Group 1181438">
                  <g id="Group_1111314" data-name="Group 1111314">
                    <g transform="matrix(1, 0, 0, 1, -9, -6)" filter="url(#Path_874925)">
                      <g id="Path_874925-2" data-name="Path 874925" transform="translate(9 6)" fill="#dcd9d3">
                        <path d="M 46.88790893554688 92.2763671875 C 40.75992202758789 92.2763671875 34.8160285949707 91.07652282714844 29.22134971618652 88.71018218994141 C 23.81676292419434 86.42423248291016 18.96264266967773 83.15139007568359 14.79381561279297 78.98255157470703 C 10.62497520446777 74.81372833251953 7.35213565826416 69.95960998535156 5.066188812255859 64.55502319335938 C 2.699842214584351 58.9603385925293 1.500002264976501 53.01644515991211 1.500002264976501 46.88844680786133 C 1.500002264976501 40.75992584228516 2.699842214584351 34.81603240966797 5.066188812255859 29.22135353088379 C 7.35213565826416 23.8167667388916 10.62497520446777 18.962646484375 14.79381561279297 14.79381942749023 C 18.96264266967773 10.62497997283936 23.81676292419434 7.352139949798584 29.22134971618652 5.066193103790283 C 34.8160285949707 2.699846506118774 40.75992202758789 1.500006437301636 46.88790893554688 1.500006437301636 C 53.01589584350586 1.500006437301636 58.95978927612305 2.699846506118774 64.55446624755859 5.066193103790283 C 69.95905303955078 7.352139949798584 74.81317901611328 10.62497997283936 78.98200225830078 14.79381942749023 C 83.15084075927734 18.962646484375 86.42368316650391 23.8167667388916 88.70962524414062 29.22135353088379 C 91.07597351074219 34.81603240966797 92.27581787109375 40.75992584228516 92.27581787109375 46.88791275024414 C 92.27581787109375 53.01644515991211 91.07597351074219 58.9603385925293 88.70962524414062 64.55502319335938 C 86.42368316650391 69.95960998535156 83.15084075927734 74.81372833251953 78.98200225830078 78.98255157470703 C 74.81317901611328 83.15139007568359 69.95905303955078 86.42423248291016 64.55446624755859 88.71018218994141 C 58.95978927612305 91.07652282714844 53.01589584350586 92.2763671875 46.88790893554688 92.2763671875 Z" stroke="none"/>
                        <path d="M 46.88790893554688 2.999992370605469 C 40.96175003051758 2.999992370605469 35.2144660949707 4.159965515136719 29.80567932128906 6.44769287109375 C 24.57989501953125 8.658004760742188 19.88602447509766 11.82290649414062 15.85446929931641 15.85446929931641 C 11.82290649414062 19.88602447509766 8.658012390136719 24.57989501953125 6.44769287109375 29.80567932128906 C 4.159965515136719 35.2144660949707 2.999992370605469 40.96175003051758 2.999992370605469 46.88845062255859 C 2.999992370605469 52.81460952758789 4.159965515136719 58.56189346313477 6.44769287109375 63.97069549560547 C 8.658012390136719 69.19646453857422 11.82290649414062 73.89033508300781 15.85446929931641 77.92189025878906 C 19.88602447509766 81.95343780517578 24.57989501953125 85.11833953857422 29.80567932128906 87.32865142822266 C 35.2144660949707 89.61637878417969 40.96175003051758 90.77635192871094 46.88790893554688 90.77635192871094 C 52.81406784057617 90.77635192871094 58.56135177612305 89.61637878417969 63.97013854980469 87.32865142822266 C 69.1959228515625 85.11833953857422 73.88979339599609 81.95343780517578 77.92134857177734 77.92189025878906 C 81.95291137695312 73.89033508300781 85.11781311035156 69.19646453857422 87.328125 63.97069549560547 C 89.61585235595703 58.56189346313477 90.77582550048828 52.81460952758789 90.77582550048828 46.88790893554688 C 90.77582550048828 40.96175003051758 89.61585235595703 35.2144660949707 87.328125 29.80567932128906 C 85.11781311035156 24.57989501953125 81.95291137695312 19.88602447509766 77.92134857177734 15.85446929931641 C 73.88979339599609 11.82290649414062 69.1959228515625 8.658004760742188 63.97013854980469 6.44769287109375 C 58.56135177612305 4.159965515136719 52.81406784057617 2.999992370605469 46.88790893554688 2.999992370605469 M 46.88790893554688 -7.62939453125e-06 C 72.78337860107422 -7.62939453125e-06 93.77582550048828 20.99243927001953 93.77582550048828 46.88790893554688 L 93.77582550048828 46.88845062255859 C 93.77582550048828 72.783935546875 72.78337860107422 93.77635192871094 46.88790893554688 93.77635192871094 C 20.99243927001953 93.77635192871094 -7.62939453125e-06 72.783935546875 -7.62939453125e-06 46.88845062255859 L -7.62939453125e-06 46.88790893554688 C -7.62939453125e-06 20.99243927001953 20.99243927001953 -7.62939453125e-06 46.88790893554688 -7.62939453125e-06 Z" stroke="none" fill="#fff"/>
                      </g>
                    </g>
                  </g>
                </g>
              </g>
            </g>
          </g>
        </g>
      </g>
    </g>
    <g id="ahorro-de-dinero" transform="translate(1190.051 687)">
      <g id="Group_1207187" data-name="Group 1207187" transform="translate(1.93 1.93)">
        <g id="Group_1207178" data-name="Group 1207178" transform="translate(13.023 22.325)">
          <path id="Path_1271527" data-name="Path 1271527" d="M53.208,26a1.866,1.866,0,0,1,1.86,1.86,1.874,1.874,0,0,1-1.86,1.86H17.86A1.866,1.866,0,0,1,16,27.86,1.874,1.874,0,0,1,17.86,26Z" transform="translate(-16 -26)" fill="#aab2bd"/>
        </g>
        <g id="Group_1207179" data-name="Group 1207179" transform="translate(9.302 26.045)">
          <path id="Path_1271528" data-name="Path 1271528" d="M57.9,41.348a14.394,14.394,0,0,0-1.786-3.786L51.068,30H19.442L14.4,37.562a14.285,14.285,0,0,0,11.879,22.2H44.231A14.276,14.276,0,0,0,57.9,41.348Z" transform="translate(-12 -30)" fill="#ccd1d9"/>
        </g>
        <g id="Group_1207180" data-name="Group 1207180" transform="translate(24.185 50.23)">
          <path id="Path_1271529" data-name="Path 1271529" d="M42.883,56h1.86a1.866,1.866,0,0,1,1.86,1.86v1.86a1.866,1.866,0,0,1-1.86,1.86H29.86A1.866,1.866,0,0,1,28,59.721V57.86A1.866,1.866,0,0,1,29.86,56H42.883Z" transform="translate(-28 -56)" fill="#ffc729"/>
        </g>
        <g id="Group_1207181" data-name="Group 1207181" transform="translate(27.906 39.068)">
          <path id="Path_1271530" data-name="Path 1271530" d="M46.883,44h1.86a1.866,1.866,0,0,1,1.86,1.86v1.86a1.866,1.866,0,0,1-1.86,1.86H33.86A1.866,1.866,0,0,1,32,47.721V45.86A1.866,1.866,0,0,1,33.86,44H46.883Z" transform="translate(-32 -44)" fill="#ffc729"/>
        </g>
        <g id="Group_1207182" data-name="Group 1207182" transform="translate(20.464 44.649)">
          <path id="Path_1271531" data-name="Path 1271531" d="M38.883,50h1.86a1.866,1.866,0,0,1,1.86,1.86v1.86a1.866,1.866,0,0,1-1.86,1.86H25.86A1.866,1.866,0,0,1,24,53.721V51.86A1.866,1.866,0,0,1,25.86,50H38.883Z" transform="translate(-24 -50)" fill="#fcd770"/>
        </g>
        <g id="Group_1207183" data-name="Group 1207183" transform="translate(24.185 33.487)">
          <path id="Path_1271532" data-name="Path 1271532" d="M42.883,38h1.86a1.866,1.866,0,0,1,1.86,1.86v1.86a1.866,1.866,0,0,1-1.86,1.86H29.86A1.866,1.866,0,0,1,28,41.721V39.86A1.866,1.866,0,0,1,29.86,38H42.883Z" transform="translate(-28 -38)" fill="#fcd770"/>
        </g>
        <g id="Group_1207184" data-name="Group 1207184" transform="translate(22.325 0)">
          <path id="Path_1271533" data-name="Path 1271533" d="M31.581,15.795a2.169,2.169,0,0,0-1.656-2.112l-2.781-.7c-.353-.084-.7-.186-1.042-.279V12.7a9.955,9.955,0,0,1-.1-1.4,9.191,9.191,0,0,1,.781-3.721,9.3,9.3,0,1,1,2.1,10.446l.688-.056A2.187,2.187,0,0,0,31.581,15.795Z" transform="translate(-26 -2)" fill="#fcd770"/>
        </g>
        <g id="Group_1207185" data-name="Group 1207185" transform="translate(7.442 0)">
          <path id="Path_1271534" data-name="Path 1271534" d="M30.39,2.809a9.311,9.311,0,0,0-4.725,4.772H21.023a1.725,1.725,0,0,0-.772,3.265A27.918,27.918,0,0,0,24.985,12.7v.009c.344.093.688.2,1.042.279l2.781.7a2.179,2.179,0,0,1-.353,4.288l-.688.056-8.781.67c-.409.028-.819.047-1.237.047a16.1,16.1,0,0,1-5.981-1.153L10,16.883V5.721l3.032-1.209a16.064,16.064,0,0,1,3.339-.939L25.05,2.13A9.5,9.5,0,0,1,26.585,2a9.311,9.311,0,0,1,3.8.809Z" transform="translate(-10 -2)" fill="#f0d0b4"/>
        </g>
        <g id="Group_1207186" data-name="Group 1207186" transform="translate(0 1.86)">
          <path id="Path_1271535" data-name="Path 1271535" d="M9.442,5.86V17.023L2,18.883V4Z" transform="translate(-2 -4)" fill="#b4dd7f"/>
        </g>
      </g>
      <g id="Group_1207188" data-name="Group 1207188" transform="translate(1 1)">
        <path id="Path_1271536" data-name="Path 1271536" d="M34.86,16.027v2h1.86v-2a2.645,2.645,0,0,0,.393-4.895L35.3,10.226a.794.794,0,0,1,.355-1.505h.272a.8.8,0,0,1,.794.794v.136h1.86V9.515A2.648,2.648,0,0,0,36.721,7V5H34.86V7a2.645,2.645,0,0,0-.393,4.895l1.814.907a.794.794,0,0,1-.355,1.505h-.272a.8.8,0,0,1-.794-.794V12.442H33v1.066A2.65,2.65,0,0,0,34.86,16.027Z" transform="translate(-3.234 -1.279)"/>
        <path id="Path_1271537" data-name="Path 1271537" d="M10.8,18.385A16.95,16.95,0,0,0,17.125,19.6q.654,0,1.307-.05l8.377-.645A10.227,10.227,0,1,0,33.557,1a10.174,10.174,0,0,0-3.793.737,10.274,10.274,0,0,0-5.5-.6L15.587,2.587a17,17,0,0,0-3.527.987l-2.754,1.1L1,2.6V19.866L9.306,17.79Zm31.132-7.153a8.363,8.363,0,0,1-12.7,7.158,3.1,3.1,0,0,0-.817-5.682l-2.789-.7c-.13-.033-.258-.073-.387-.108-.017-.224-.049-.446-.049-.671a8.372,8.372,0,1,1,16.743,0Zm-18.6.086a27.337,27.337,0,0,1-3.285-1.371A.794.794,0,0,1,20.4,8.442h3.323a10.2,10.2,0,0,0-.4,2.791C23.325,11.261,23.327,11.29,23.327,11.318ZM12.751,5.3a15.16,15.16,0,0,1,3.142-.879l8.681-1.447a8.4,8.4,0,0,1,2.906.045,10.287,10.287,0,0,0-3.026,3.562H20.4a2.655,2.655,0,0,0-1.187,5.03,29.144,29.144,0,0,0,5.96,2.2l2.789.7a1.25,1.25,0,0,1-.207,2.458l-9.464.728a15.106,15.106,0,0,1-6.8-1.041L10.3,16.184v-9.9ZM8.442,16.087l-5.581,1.4V4.982l5.581,1.4Z" transform="translate(-1 -1)"/>
        <path id="Path_1271538" data-name="Path 1271538" d="M56.816,36.7l-4.08-6.119h.123a2.791,2.791,0,0,0,0-5.581H17.511a2.791,2.791,0,0,0,0,5.581h.123L13.555,36.7A15.209,15.209,0,0,0,26.21,60.347H44.159A15.21,15.21,0,0,0,56.816,36.7ZM16.581,27.791a.931.931,0,0,1,.93-.93H52.859a.93.93,0,0,1,0,1.86H17.511A.931.931,0,0,1,16.581,27.791ZM27.743,51.045v-1.86H29.6v1.86h1.86v-1.86h1.86v1.86h1.86v-1.86h1.86v1.86h1.86v-1.86h.93a.931.931,0,0,1,.93.93v1.86a.931.931,0,0,1-.93.93H24.953a.931.931,0,0,1-.93-.93v-1.86a.931.931,0,0,1,.93-.93h.93v1.86Zm3.721-4.651v-1.86a.931.931,0,0,1,.93-.93h.93v1.86h1.86V43.6h1.86v1.86h1.86V43.6h1.86v1.86h1.86V43.6h1.86v1.86h1.86V43.6h.93a.931.931,0,0,1,.93.93v1.86a.931.931,0,0,1-.93.93H32.394A.931.931,0,0,1,31.464,46.394Zm0-6.511v-1.86h1.86v1.86h1.86v-1.86h1.86v1.86h1.86v-1.86h1.86v1.86h1.86v-1.86h.93a.931.931,0,0,1,.93.93v1.86a.931.931,0,0,1-.93.93H28.674a.931.931,0,0,1-.93-.93v-1.86a.931.931,0,0,1,.93-.93h.93v1.86Zm-2.791,18.6a.931.931,0,0,1-.93-.93V55.7a.931.931,0,0,1,.93-.93h.93v1.86h1.86v-1.86h1.86v1.86h1.86v-1.86h1.86v1.86h1.86v-1.86h1.86v1.86h1.86v-1.86h.93a.931.931,0,0,1,.93.93v1.86a.931.931,0,0,1-.93.93Zm17.557-.178a2.759,2.759,0,0,0,.116-.753V55.7a2.794,2.794,0,0,0-2.791-2.791h-1.1a2.759,2.759,0,0,0,.171-.93v-1.86a2.759,2.759,0,0,0-.171-.93h4.822a2.794,2.794,0,0,0,2.791-2.791v-1.86a2.794,2.794,0,0,0-2.791-2.791h-1.1a2.759,2.759,0,0,0,.171-.93v-1.86a2.794,2.794,0,0,0-2.791-2.791H28.674a2.794,2.794,0,0,0-2.791,2.791v1.86A2.794,2.794,0,0,0,28.674,43.6h1.1a2.759,2.759,0,0,0-.171.93v1.86a2.759,2.759,0,0,0,.171.93H24.953a2.794,2.794,0,0,0-2.791,2.791v1.86a2.794,2.794,0,0,0,2.791,2.791h1.1a2.759,2.759,0,0,0-.171.93v1.86a2.733,2.733,0,0,0,.169.922A13.345,13.345,0,0,1,15.1,37.732l4.767-7.15H50.5l4.767,7.151a13.336,13.336,0,0,1-9.037,20.577Z" transform="translate(-1.698 -2.675)"/>
        <path id="Path_1271539" data-name="Path 1271539" d="M0,0H1.86V2.236H0Z" transform="matrix(0.832, -0.555, 0.555, 0.832, 45.921, 30.267)"/>
        <path id="Path_1271540" data-name="Path 1271540" d="M56.654,39.563l-2.078-3.118-1.548,1.032,2.078,3.118a9.6,9.6,0,0,1,1.617,5.341l0,.3,1.859.055q.006-.177.006-.354a11.454,11.454,0,0,0-1.929-6.373Z" transform="translate(-4.632 -3.474)"/>
        <path id="Path_1271541" data-name="Path 1271541" d="M15.944,51.33a11.524,11.524,0,0,0,1.147,2.1l1.531-1.058a9.609,9.609,0,0,1-.96-1.76Z" transform="translate(-2.043 -4.464)"/>
        <path id="Path_1271542" data-name="Path 1271542" d="M16.929,39.772a11.5,11.5,0,0,0-1.681,8.753l1.82-.385A9.638,9.638,0,0,1,18.477,40.8l.218-.327-1.548-1.032Z" transform="translate(-1.977 -3.684)"/>
      </g>
    </g>
  </g>
</svg>
