<svg xmlns="http://www.w3.org/2000/svg" xmlns:xlink="http://www.w3.org/1999/xlink" width="126.376" height="126.376" viewBox="0 0 126.376 126.376">
  <defs>
    <filter id="Path_874925" x="0" y="0.001" width="126.376" height="126.376" filterUnits="userSpaceOnUse">
      <feOffset dy="3" input="SourceAlpha"/>
      <feGaussianBlur stdDeviation="3" result="blur"/>
      <feFlood flood-opacity="0.161"/>
      <feComposite operator="in" in2="blur"/>
      <feComposite in="SourceGraphic"/>
    </filter>
  </defs>
  <g id="Group_1207236" data-name="Group 1207236" transform="translate(-3194 10525.001)">
    <g id="Group_1206724" data-name="Group 1206724" transform="translate(2097.949 -14397)">
      <g id="Group_1205731" data-name="Group 1205731" transform="translate(359 -295)">
        <g id="Group_1205682" data-name="Group 1205682" transform="translate(461.051 -2077.874)">
          <g id="Group_1200232" data-name="Group 1200232" transform="translate(285 6250.874)">
            <g id="Group_1187153" data-name="Group 1187153">
              <g id="Group_1182177" data-name="Group 1182177">
                <g id="Group_1181903" data-name="Group 1181903">
                  <g id="Group_1181438" data-name="Group 1181438">
                    <g id="Group_1111314" data-name="Group 1111314">
                      <g transform="matrix(1, 0, 0, 1, -9, -6)" filter="url(#Path_874925)">
                        <g id="Path_874925-2" data-name="Path 874925" transform="translate(9 6)" fill="#ffc94a">
                          <path d="M 54.1878662109375 106.8763656616211 C 47.07439041137695 106.8763656616211 40.17448043823242 105.4835205078125 33.67983627319336 102.7365036010742 C 27.40597343444824 100.0828857421875 21.77115821838379 96.28368377685547 16.93191146850586 91.44444274902344 C 12.09268188476562 86.60519409179688 8.293481826782227 80.97038269042969 5.639866352081299 74.696533203125 C 2.892850875854492 68.20187377929688 1.500004649162292 61.30196380615234 1.500004649162292 54.1884880065918 C 1.500004649162292 47.07439422607422 2.892850875854492 40.17448806762695 5.639866352081299 33.67982482910156 C 8.293481826782227 27.40597915649414 12.09268188476562 21.77116394042969 16.93191146850586 16.93191719055176 C 21.77115821838379 12.09267139434814 27.40597343444824 8.293471336364746 33.67983627319336 5.639855861663818 C 40.17448043823242 2.892840623855591 47.07439041137695 1.499994397163391 54.1878662109375 1.499994397163391 C 61.30134201049805 1.499994397163391 68.20124816894531 2.892840623855591 74.69589996337891 5.639855861663818 C 80.96975708007812 8.293471336364746 86.60457611083984 12.09267139434814 91.44381713867188 16.93191719055176 C 96.28305053710938 21.77116394042969 100.0822525024414 27.40597915649414 102.7358627319336 33.67982482910156 C 105.4828796386719 40.17448806762695 106.8757247924805 47.07439422607422 106.8757247924805 54.18787002563477 C 106.8757247924805 61.30196380615234 105.4828796386719 68.20187377929688 102.7358627319336 74.696533203125 C 100.0822525024414 80.97038269042969 96.28305053710938 86.60519409179688 91.44381713867188 91.44444274902344 C 86.60457611083984 96.28368377685547 80.96975708007812 100.0828857421875 74.69589996337891 102.7365036010742 C 68.20124816894531 105.4835205078125 61.30134201049805 106.8763656616211 54.1878662109375 106.8763656616211 Z" stroke="none"/>
                          <path d="M 54.1878662109375 2.999992370605469 C 47.2762336730957 2.999992370605469 40.57291412353516 4.352981567382812 34.26416778564453 7.0213623046875 C 28.16909790039062 9.599342346191406 22.69454956054688 13.29059600830078 17.99258422851562 17.99257659912109 C 13.29059600830078 22.69454193115234 9.599349975585938 28.16909790039062 7.021369934082031 34.26416015625 C 4.352981567382812 40.57292938232422 3 47.27622985839844 3 54.18849563598633 C 3 61.10012817382812 4.352981567382812 67.80344390869141 7.021369934082031 74.11219787597656 C 9.599349975585938 80.20726013183594 13.29059600830078 85.68180847167969 17.99258422851562 90.38378143310547 C 22.69454956054688 95.08576202392578 28.16909790039062 98.77701568603516 34.26416778564453 101.3549957275391 C 40.57291412353516 104.0233764648438 47.2762336730957 105.3763656616211 54.1878662109375 105.3763656616211 C 61.0994987487793 105.3763656616211 67.80281066894531 104.0233764648438 74.11156463623047 101.3549957275391 C 80.20663452148438 98.77701568603516 85.68118286132812 95.08576202392578 90.38314819335938 90.38378143310547 C 95.08512878417969 85.68180847167969 98.77638244628906 80.20726013183594 101.3543701171875 74.11219787597656 C 104.0227508544922 67.80344390869141 105.375732421875 61.10012817382812 105.375732421875 54.1878776550293 C 105.375732421875 47.27622985839844 104.0227508544922 40.57292938232422 101.3543701171875 34.26416015625 C 98.77638244628906 28.16909790039062 95.08512878417969 22.69454193115234 90.38314819335938 17.99257659912109 C 85.68118286132812 13.29059600830078 80.20663452148438 9.599342346191406 74.11156463623047 7.0213623046875 C 67.80281066894531 4.352981567382812 61.0994987487793 2.999992370605469 54.1878662109375 2.999992370605469 M 54.1878662109375 -7.62939453125e-06 C 84.11499786376953 -7.62939453125e-06 108.375732421875 24.26072692871094 108.375732421875 54.1878776550293 L 108.375732421875 54.18849563598633 C 108.375732421875 84.11563110351562 84.11499786376953 108.3763656616211 54.1878662109375 108.3763656616211 C 24.26073455810547 108.3763656616211 0 84.11563110351562 0 54.18849563598633 L 0 54.1878776550293 C 0 24.26072692871094 24.26073455810547 -7.62939453125e-06 54.1878662109375 -7.62939453125e-06 Z" stroke="none" fill="#fff"/>
                        </g>
                      </g>
                    </g>
                  </g>
                </g>
              </g>
            </g>
          </g>
        </g>
      </g>
    </g>
    <g id="ingresos7" transform="translate(3223 -10502.817)">
      <g id="Group_1207220" data-name="Group 1207220" transform="translate(6.995 15.085)">
        <g id="Group_1207204" data-name="Group 1207204">
          <g id="Group_1207199" data-name="Group 1207199" transform="translate(0)">
            <path id="Path_1271561" data-name="Path 1271561" d="M96.594,144.631H50.339a2.952,2.952,0,0,1-2.952-2.952V105.145a2.952,2.952,0,0,1,2.952-2.952H96.594a2.952,2.952,0,0,1,2.952,2.952v36.534A2.952,2.952,0,0,1,96.594,144.631Z" transform="translate(-47.387 -102.193)" fill="#fff"/>
          </g>
          <g id="Group_1207200" data-name="Group 1207200">
            <path id="Path_1271562" data-name="Path 1271562" d="M50.044,141.679V105.145A2.952,2.952,0,0,1,53,102.193H50.339a2.952,2.952,0,0,0-2.952,2.952v36.534a2.952,2.952,0,0,0,2.952,2.952H53A2.952,2.952,0,0,1,50.044,141.679Z" transform="translate(-47.387 -102.193)" fill="#ffe6f3"/>
          </g>
          <g id="Group_1207203" data-name="Group 1207203" transform="translate(14.335 42.438)">
            <g id="Group_1207201" data-name="Group 1207201">
              <path id="Path_1271563" data-name="Path 1271563" d="M167.988,398.845H144.5l5.979-9.155h11.531Z" transform="translate(-144.499 -389.69)" fill="#90a4ae"/>
            </g>
            <g id="Group_1207202" data-name="Group 1207202">
              <path id="Path_1271564" data-name="Path 1271564" d="M150.478,389.69l-5.979,9.155h3.1l5.979-9.155Z" transform="translate(-144.499 -389.69)" fill="#7a9199"/>
            </g>
          </g>
        </g>
        <g id="Group_1207219" data-name="Group 1207219" transform="translate(5.418 16.486)">
          <g id="Group_1207218" data-name="Group 1207218">
            <g id="Group_1207217" data-name="Group 1207217">
              <g id="Group_1207208" data-name="Group 1207208" transform="translate(0 11.112)">
                <g id="Group_1207205" data-name="Group 1207205" transform="translate(0.886 0.886)">
                  <path id="Path_1271565" data-name="Path 1271565" d="M90.094,295.154h5.5v8.368h-5.5Z" transform="translate(-90.094 -295.154)" fill="#ffe082"/>
                </g>
                <g id="Group_1207206" data-name="Group 1207206" transform="translate(0.886 0.886)">
                  <path id="Path_1271566" data-name="Path 1271566" d="M90.094,295.154h2.362v8.368H90.094Z" transform="translate(-90.094 -295.154)" fill="#ffb966"/>
                </g>
                <g id="Group_1207207" data-name="Group 1207207">
                  <path id="Path_1271567" data-name="Path 1271567" d="M90.482,299.293h-5.5a.886.886,0,0,1-.886-.886V290.04a.886.886,0,0,1,.886-.886h5.5a.886.886,0,0,1,.886.886v8.368A.886.886,0,0,1,90.482,299.293Zm-4.617-1.771H89.6v-6.6H85.865Z" transform="translate(-84.094 -289.154)" fill="#333"/>
                </g>
              </g>
              <g id="Group_1207212" data-name="Group 1207212" transform="translate(11.349 2.621)">
                <g id="Group_1207209" data-name="Group 1207209" transform="translate(0.886 0.886)">
                  <path id="Path_1271568" data-name="Path 1271568" d="M166.979,237.637h5.5V254.5h-5.5Z" transform="translate(-166.979 -237.637)" fill="#b2ebf2"/>
                </g>
                <g id="Group_1207210" data-name="Group 1207210" transform="translate(0.886 0.886)">
                  <path id="Path_1271569" data-name="Path 1271569" d="M166.979,237.637h2.214V254.5h-2.214Z" transform="translate(-166.979 -237.637)" fill="#80deea"/>
                </g>
                <g id="Group_1207211" data-name="Group 1207211">
                  <path id="Path_1271570" data-name="Path 1271570" d="M167.367,250.267h-5.5a.886.886,0,0,1-.886-.886V232.523a.886.886,0,0,1,.886-.886h5.5a.886.886,0,0,1,.886.886v16.858A.886.886,0,0,1,167.367,250.267ZM162.75,248.5h3.731V233.408H162.75Z" transform="translate(-160.979 -231.637)" fill="#333"/>
                </g>
              </g>
              <g id="Group_1207213" data-name="Group 1207213" transform="translate(23.584 8.768)">
                <path id="Path_1271571" data-name="Path 1271571" d="M243.864,273.277h5.5v11.6h-5.5Z" transform="translate(-243.864 -273.277)" fill="#90a4ae"/>
              </g>
              <g id="Group_1207214" data-name="Group 1207214" transform="translate(23.584 8.768)">
                <path id="Path_1271572" data-name="Path 1271572" d="M243.864,273.277h2.214v11.6h-2.214Z" transform="translate(-243.864 -273.277)" fill="#7a9199"/>
              </g>
              <g id="Group_1207215" data-name="Group 1207215" transform="translate(34.934)">
                <path id="Path_1271573" data-name="Path 1271573" d="M320.749,213.878h5.5v20.366h-5.5Z" transform="translate(-320.749 -213.878)" fill="#4dd0e1"/>
              </g>
              <g id="Group_1207216" data-name="Group 1207216" transform="translate(34.934)">
                <path id="Path_1271574" data-name="Path 1271574" d="M320.749,213.878h2.362v20.366h-2.362Z" transform="translate(-320.749 -213.878)" fill="#27b6c1"/>
              </g>
            </g>
          </g>
        </g>
      </g>
      <g id="Group_1207227" data-name="Group 1207227" transform="translate(0.886 0.886)">
        <g id="Group_1207221" data-name="Group 1207221">
          <path id="Path_1271575" data-name="Path 1271575" d="M39.682,25.113V20.569L35.8,19.34a13.33,13.33,0,0,0-1.319-3.185l1.88-3.616L33.142,9.326l-3.617,1.88a13.335,13.335,0,0,0-3.185-1.319L25.113,6H20.569L19.34,9.886a13.332,13.332,0,0,0-3.185,1.319l-3.616-1.88L9.326,12.539l1.88,3.616A13.335,13.335,0,0,0,9.886,19.34L6,20.569v4.544l3.886,1.228a13.332,13.332,0,0,0,1.319,3.185l-1.88,3.616,3.213,3.213,3.616-1.88A13.335,13.335,0,0,0,19.34,35.8l1.228,3.886h4.544L26.341,35.8a13.33,13.33,0,0,0,3.185-1.319l3.616,1.88,3.213-3.213-1.88-3.616A13.335,13.335,0,0,0,35.8,26.341Z" transform="translate(-6 -6)" fill="#ff92c4"/>
        </g>
        <g id="Group_1207226" data-name="Group 1207226" transform="translate(7.531 7.535)">
          <g id="Group_1207222" data-name="Group 1207222" transform="translate(0.886 0.886)">
            <ellipse id="Ellipse_13006" data-name="Ellipse 13006" cx="8.314" cy="8.42" rx="8.314" ry="8.42" fill="#fff"/>
          </g>
          <g id="Group_1207223" data-name="Group 1207223" transform="translate(0.886 0.886)">
            <path id="Path_1271576" data-name="Path 1271576" d="M65.53,71.612a8.38,8.38,0,0,1,7.541-8.383,8.247,8.247,0,0,0-1.736-.185,8.421,8.421,0,0,0,0,16.841c.261,0,.519-.014.773-.037A8.4,8.4,0,0,1,65.53,71.612Z" transform="translate(-63.021 -63.044)" fill="#ffe6f3"/>
          </g>
          <g id="Group_1207224" data-name="Group 1207224">
            <path id="Path_1271577" data-name="Path 1271577" d="M66.221,75.656a9.307,9.307,0,1,1,9.2-9.306,9.264,9.264,0,0,1-9.2,9.306Zm0-16.841A7.535,7.535,0,1,0,73.65,66.35a7.491,7.491,0,0,0-7.429-7.535Z" transform="translate(-57.021 -57.044)" fill="#333"/>
          </g>
          <g id="Group_1207225" data-name="Group 1207225" transform="translate(5.67 3.144)">
            <path id="Path_1271578" data-name="Path 1271578" d="M99.586,83.806V81.178a3.5,3.5,0,0,1,1.47.68c.65.458,1.455-.527.9-1.108a4.082,4.082,0,0,0-2.373-1.006v-.86a.557.557,0,0,0-1.113,0v.83a2.881,2.881,0,0,0-2.9,2.745c0,1.761,1.364,2.3,2.9,2.733V88.2a3.848,3.848,0,0,1-1.91-.893c-.655-.535-1.511.485-.932,1.088a4.53,4.53,0,0,0,2.85,1.206v.8a.561.561,0,0,0,.572.554.555.555,0,0,0,.541-.554v-.813a2.855,2.855,0,0,0,2.935-2.9c0-1.877-1.5-2.474-2.935-2.875Zm-1.113-.3c-.766-.236-1.339-.485-1.339-1.144s.523-1.158,1.339-1.25Zm1.113,4.708V85.535c.84.256,1.392.587,1.385,1.318C100.971,87.415,100.605,88.06,99.586,88.218Z" transform="translate(-95.432 -78.345)" fill="#333"/>
          </g>
        </g>
      </g>
      <g id="Group_1207232" data-name="Group 1207232" transform="translate(35.436 45.471)">
        <g id="Group_1207228" data-name="Group 1207228">
          <path id="Path_1271579" data-name="Path 1271579" d="M269.866,330.766H243.008a2.952,2.952,0,0,1-2.952-2.952V310.991a2.952,2.952,0,0,1,2.952-2.952h26.857a2.952,2.952,0,0,1,2.952,2.952v16.822A2.952,2.952,0,0,1,269.866,330.766Z" transform="translate(-240.056 -308.039)" fill="#94d394"/>
        </g>
        <g id="Group_1207229" data-name="Group 1207229">
          <path id="Path_1271580" data-name="Path 1271580" d="M242.27,327.813V310.991a2.952,2.952,0,0,1,2.952-2.952h-2.214a2.952,2.952,0,0,0-2.952,2.952v16.822a2.952,2.952,0,0,0,2.952,2.952h2.214A2.952,2.952,0,0,1,242.27,327.813Z" transform="translate(-240.056 -308.039)" fill="#6bb26b"/>
        </g>
        <g id="Group_1207230" data-name="Group 1207230" transform="translate(3.204 3.254)">
          <path id="Path_1271581" data-name="Path 1271581" d="M292.345,346.181v-5.748a4.321,4.321,0,0,1-4.293-4.35h-16a4.321,4.321,0,0,1-4.293,4.35v5.748a4.321,4.321,0,0,1,4.293,4.35h16A4.321,4.321,0,0,1,292.345,346.181Z" transform="translate(-266.877 -335.198)" fill="#fff"/>
          <path id="Path_1271582" data-name="Path 1271582" d="M282.938,346.3h-16a.886.886,0,0,1-.886-.886,3.44,3.44,0,0,0-3.407-3.464.886.886,0,0,1-.886-.886V335.32a.886.886,0,0,1,.886-.886,3.44,3.44,0,0,0,3.407-3.464.886.886,0,0,1,.886-.886h16a.886.886,0,0,1,.886.886,3.44,3.44,0,0,0,3.407,3.464.886.886,0,0,1,.886.886v5.748a.886.886,0,0,1-.886.886,3.44,3.44,0,0,0-3.407,3.464A.886.886,0,0,1,282.938,346.3Zm-15.185-1.771h14.374a5.221,5.221,0,0,1,4.219-4.273v-4.13a5.221,5.221,0,0,1-4.219-4.273H267.753a5.221,5.221,0,0,1-4.219,4.273v4.13A5.221,5.221,0,0,1,267.753,344.532Z" transform="translate(-261.763 -330.085)" fill="#333"/>
        </g>
        <g id="Group_1207231" data-name="Group 1207231" transform="translate(12.229 7.211)">
          <circle id="Ellipse_13007" data-name="Ellipse 13007" cx="3.267" cy="3.267" r="3.267" transform="translate(0.886 0.886)" fill="#fff"/>
          <path id="Path_1271583" data-name="Path 1271583" d="M327.051,365.194a4.152,4.152,0,1,1,4.152-4.152A4.157,4.157,0,0,1,327.051,365.194Zm0-6.533a2.381,2.381,0,1,0,2.381,2.381A2.383,2.383,0,0,0,327.051,358.661Z" transform="translate(-322.899 -356.89)" fill="#333"/>
        </g>
      </g>
      <g id="Group_1207235" data-name="Group 1207235" transform="translate(50.341 7.101)">
        <g id="Group_1207233" data-name="Group 1207233" transform="translate(14.905 21.416)">
          <path id="Path_1271584" data-name="Path 1271584" d="M442.889,196.415a.886.886,0,0,1-.886-.886v-1.458a.886.886,0,0,1,1.771,0v1.458A.886.886,0,0,1,442.889,196.415Z" transform="translate(-442.003 -193.186)" fill="#333"/>
        </g>
        <g id="Group_1207234" data-name="Group 1207234">
          <path id="Path_1271585" data-name="Path 1271585" d="M356.82,67.012a.886.886,0,0,1-.886-.886V57.844a7.978,7.978,0,0,0-7.969-7.969h-6.051a.886.886,0,1,1,0-1.771h6.051a9.751,9.751,0,0,1,9.74,9.74v8.282A.886.886,0,0,1,356.82,67.012Z" transform="translate(-341.029 -48.104)" fill="#333"/>
        </g>
      </g>
      <path id="Path_1271586" data-name="Path 1271586" d="M65.245,44.585H60.04V18.037A3.842,3.842,0,0,0,56.2,14.2H33.536L31.4,13.525a14.244,14.244,0,0,0-1.034-2.5l1.661-3.2a.886.886,0,0,0-.16-1.035L28.655,3.585a.885.885,0,0,0-1.035-.16l-3.2,1.661a14.244,14.244,0,0,0-2.5-1.034L20.843.619A.886.886,0,0,0,20,0H15.454a.886.886,0,0,0-.844.619L13.525,4.052a14.235,14.235,0,0,0-2.5,1.034l-3.2-1.661a.886.886,0,0,0-1.035.16L3.585,6.8a.886.886,0,0,0-.16,1.035l1.661,3.2a14.251,14.251,0,0,0-1.034,2.5L.619,14.61A.885.885,0,0,0,0,15.454V20a.886.886,0,0,0,.619.844l3.433,1.085a14.251,14.251,0,0,0,1.034,2.5l-1.661,3.2a.886.886,0,0,0,.16,1.035l2.524,2.524V54.571a3.842,3.842,0,0,0,3.838,3.838H25.673l-4.821,7.382H17.02a.886.886,0,0,0,0,1.771l18.313,0a3.834,3.834,0,0,0,3.056,1.519H65.245a3.842,3.842,0,0,0,3.838-3.838V48.423a3.842,3.842,0,0,0-3.838-3.838ZM6.859,23.97A12.465,12.465,0,0,1,5.627,21a.886.886,0,0,0-.588-.614L1.771,19.35V16.1l3.267-1.033a.886.886,0,0,0,.588-.614,12.461,12.461,0,0,1,1.232-2.974.886.886,0,0,0,.018-.85L5.3,7.592l2.3-2.3,3.041,1.58a.886.886,0,0,0,.85-.018,12.463,12.463,0,0,1,2.973-1.232.886.886,0,0,0,.614-.588L16.1,1.771H19.35l1.033,3.267A.886.886,0,0,0,21,5.627,12.462,12.462,0,0,1,23.97,6.859a.886.886,0,0,0,.85.018L27.861,5.3l2.3,2.3-1.58,3.041a.886.886,0,0,0,.018.85,12.462,12.462,0,0,1,1.232,2.973.886.886,0,0,0,.588.614l2.717.859.009,0,.542.171V19.35l-3.267,1.033a.886.886,0,0,0-.588.614,12.463,12.463,0,0,1-1.232,2.973.886.886,0,0,0-.018.85l1.58,3.041-2.3,2.3-3.041-1.58a.886.886,0,0,0-.85.018A12.462,12.462,0,0,1,21,29.826a.886.886,0,0,0-.614.588L19.35,33.682H16.1l-1.033-3.267a.886.886,0,0,0-.614-.588,12.462,12.462,0,0,1-2.973-1.232.886.886,0,0,0-.85-.018l-3.041,1.58-2.3-2.3,1.58-3.041a.885.885,0,0,0-.018-.85ZM34.55,65.793H22.967l4.821-7.382H34.55v7.383Zm.03,0c0-.021.006-.024.01,0Zm.532-25.453v6.086a3.815,3.815,0,0,0-.562,2v8.215H9.947a2.069,2.069,0,0,1-2.067-2.067V32l3.148-1.636a14.244,14.244,0,0,0,2.5,1.034l1.085,3.433a.886.886,0,0,0,.844.619H20a.886.886,0,0,0,.844-.619L21.928,31.4a14.244,14.244,0,0,0,2.5-1.034l3.2,1.661a.885.885,0,0,0,1.035-.16l3.02-3.02,5.763,4.72a.905.905,0,0,0,1.19-.062L50.728,21.3a.886.886,0,1,0-1.258-1.247L37.936,31.688l-6.607-5.412-.962-1.851a14.244,14.244,0,0,0,1.034-2.5l3.433-1.085A.886.886,0,0,0,35.453,20V15.971H56.2a2.069,2.069,0,0,1,2.067,2.067V44.585H53.736V31.571a.886.886,0,0,0-.886-.886h-5.5a.886.886,0,0,0-.886.886V44.585H42.386V40.339a.886.886,0,0,0-.886-.886H36a.886.886,0,0,0-.886.886Zm16.852-7.882V44.585H48.233V32.457ZM40.615,41.225v3.36H38.388a3.818,3.818,0,0,0-1.5.307V41.225Zm26.7,24.02a2.069,2.069,0,0,1-2.067,2.067H38.388a2.069,2.069,0,0,1-2.067-2.067V48.423a2.069,2.069,0,0,1,2.067-2.067H65.245a2.069,2.069,0,0,1,2.067,2.067Z" transform="translate(0 0)" fill="#333"/>
    </g>
  </g>
</svg>
