<svg xmlns="http://www.w3.org/2000/svg" width="129.063" height="56.51" viewBox="0 0 129.063 56.51">
  <g id="Group_1207294" data-name="Group 1207294" transform="translate(-1064.051 -2212.011)">
    <g id="Group_1206734" data-name="Group 1206734" transform="translate(0.212 -3260.738)">
      <g id="Group_1205224" data-name="Group 1205224" transform="translate(276.058 2903.871)">
        <g id="Rectangle_410589" data-name="Rectangle 410589" transform="translate(787.781 2575.623)" fill="#ffc94a" stroke="#dfab32" stroke-width="1">
          <rect width="129.063" height="43.021" rx="8" stroke="none"/>
          <rect x="0.5" y="0.5" width="128.063" height="42.021" rx="7.5" fill="none"/>
        </g>
      </g>
    </g>
    <g id="unido" transform="translate(1099.051 2212.011)">
      <path id="Path_1271636" data-name="Path 1271636" d="M197.045,185.275l-12.756-12.756a2.042,2.042,0,1,1,2.889-2.889l-3.285-3.284a2.038,2.038,0,0,1-.6-1.445,2.1,2.1,0,0,1,.026-.327,2.04,2.04,0,0,1,3.268-1.285l-1.25-1.25a2.043,2.043,0,0,1-.6-1.447,1.951,1.951,0,0,1,.027-.332,2.043,2.043,0,0,1,3.462-1.11l1.431,1.431a2.043,2.043,0,1,1,2.889-2.889l8.29,8.29.023-.033a3.735,3.735,0,0,1,5.287,0l3.866,3.866a3.967,3.967,0,0,1,1.161,2.8l0,2.418a4.268,4.268,0,0,0,1.251,3.015l.862.862-9.859,9.859-1.1-1.1a4.269,4.269,0,0,0-2.74-1.241A3.962,3.962,0,0,1,197.045,185.275Zm0,0" transform="translate(-162.587 -139.346)" fill="#fecbaa"/>
      <path id="Path_1271637" data-name="Path 1271637" d="M353.706,353.15l11.19-11.19a.944.944,0,0,1,1.335,0l3.986,3.985a.945.945,0,0,1,0,1.335l-11.191,11.191a.945.945,0,0,1-1.335,0l-3.985-3.986A.944.944,0,0,1,353.706,353.15Zm0,0" transform="translate(-313.505 -303.085)" fill="#fdd559"/>
      <path id="Path_1271638" data-name="Path 1271638" d="M79.4,185.285l12.756-12.756a2.043,2.043,0,1,0-2.889-2.889l3.285-3.285a2.041,2.041,0,0,0-2.694-3.057l1.25-1.25a2.042,2.042,0,0,0,.6-1.446,1.947,1.947,0,0,0-.027-.332,2.035,2.035,0,0,0-1.69-1.684,2.043,2.043,0,0,0-1.772.573l-1.431,1.431a2.042,2.042,0,0,0,.574-1.772,2.022,2.022,0,0,0-.571-1.119,2.044,2.044,0,0,0-2.891,0l-8.29,8.29-.023-.033a3.735,3.735,0,0,0-5.287,0l-3.865,3.866a3.965,3.965,0,0,0-1.161,2.8l0,2.418a4.265,4.265,0,0,1-1.251,3.015l-.862.862,9.859,9.859,1.1-1.1a4.27,4.27,0,0,1,2.74-1.241A3.966,3.966,0,0,0,79.4,185.285Zm0,0" transform="translate(-56.022 -139.355)" fill="#fecbaa"/>
      <path id="Path_1271639" data-name="Path 1271639" d="M24.283,353.159,13.092,341.968a.944.944,0,0,0-1.335,0l-3.986,3.986a.945.945,0,0,0,0,1.335l11.191,11.19a.944.944,0,0,0,1.335,0l3.986-3.985A.945.945,0,0,0,24.283,353.159Zm0,0" transform="translate(-6.648 -303.092)" fill="#ff84a7"/>
      <path id="Path_1271640" data-name="Path 1271640" d="M170.4,81.093v18.04a2.043,2.043,0,1,1-4.085,0v4.645a2.041,2.041,0,0,1-4.067.256V105.8a2.042,2.042,0,0,1-.6,1.447,1.914,1.914,0,0,1-.254.216,2.043,2.043,0,0,1-3.233-1.663v-2.025a2.042,2.042,0,1,1-4.085,0V92.054l-.04.007a3.736,3.736,0,0,1-3.736-3.742V82.853a3.968,3.968,0,0,1,1.158-2.8l1.708-1.711a4.268,4.268,0,0,0,1.247-3.017V74.105h13.943v1.558a4.273,4.273,0,0,0,1.059,2.815A3.963,3.963,0,0,1,170.4,81.093Zm0,0" transform="translate(-133.319 -65.734)" fill="#fedfc5"/>
      <path id="Path_1271641" data-name="Path 1271641" d="M163.194,169.638a2.044,2.044,0,0,0-2.891,0l3.285-3.285a2.041,2.041,0,0,0-2.694-3.057l1.25-1.25a2.042,2.042,0,0,0,.6-1.446,1.9,1.9,0,0,0-.027-.332,2.043,2.043,0,0,0-3.462-1.111l-1.431,1.431a2.043,2.043,0,1,0-2.889-2.889l-8.29,8.29-.023-.033a3.721,3.721,0,0,0-3.383-1.017,5.482,5.482,0,0,0,2.878,2.177V177.4a3.741,3.741,0,0,0,4.467,3.669,3.744,3.744,0,0,0,2.167,1.9l10.441-10.442A2.042,2.042,0,0,0,163.194,169.638Zm0,0" transform="translate(-127.057 -139.355)" fill="#ffae85"/>
      <path id="Path_1271642" data-name="Path 1271642" d="M201.347,172.746v-7.214a3.74,3.74,0,0,0-.5.419l-.023.033-8.29-8.29a2.044,2.044,0,0,0-2.891,0,2.044,2.044,0,0,0,0,2.891l-1.431-1.431a2.042,2.042,0,0,0-3.462,1.111,1.947,1.947,0,0,0-.027.332,2.04,2.04,0,0,0,.6,1.446l1.25,1.25a2.042,2.042,0,0,0-2.695,3.057l3.285,3.285a2.042,2.042,0,1,0-2.888,2.889l8.546,8.546a3.753,3.753,0,0,0,.7.066,3.7,3.7,0,0,0,2.186-.707,3.736,3.736,0,0,0,1.551-3.033v-.921q.173.016.348.016A3.743,3.743,0,0,0,201.347,172.746Zm0,0" transform="translate(-162.577 -139.348)" fill="#ffae85"/>
      <path id="Path_1271643" data-name="Path 1271643" d="M170.4,81.093v18.04a2.043,2.043,0,0,1-2.043,2.046c-.03,0-.063,0-.1,0a2.021,2.021,0,0,1-1.1-.384h0a2.042,2.042,0,0,1-.847-1.658v4.645a2.041,2.041,0,0,1-4.067.256V105.8a2.042,2.042,0,0,1-.6,1.447,1.914,1.914,0,0,1-.254.216,2.043,2.043,0,0,1-3.233-1.663v-2.025a2.042,2.042,0,1,1-4.085,0V92.054l-.04.007a3.736,3.736,0,0,1-3.736-3.742V82.853a3.968,3.968,0,0,1,1.158-2.8l1.708-1.711a4.276,4.276,0,0,0,1.247-3.017V74.105h13.943v1.558a3.848,3.848,0,0,0,.135,1.054,4.243,4.243,0,0,0,.925,1.761A4,4,0,0,1,170.4,81.093Zm0,0" transform="translate(-133.319 -65.734)" fill="#fedfc5"/>
      <path id="Path_1271644" data-name="Path 1271644" d="M201.2,81.093v18.04a2.043,2.043,0,0,1-2.043,2.046c-.03,0-.063,0-.1,0a2.021,2.021,0,0,1-1.1-.384L198,83.408a2.665,2.665,0,0,0-.068-.482,7.858,7.858,0,0,0-7.86-6.341H185.02a4.254,4.254,0,0,0,.191-1.261V74.105h13.943v1.558a3.848,3.848,0,0,0,.135,1.054,4.243,4.243,0,0,0,.925,1.761A4,4,0,0,1,201.2,81.093Zm0,0" transform="translate(-164.119 -65.734)" fill="#fecbaa"/>
      <path id="Path_1271645" data-name="Path 1271645" d="M186.469,15.025H170.643a.944.944,0,0,1-.944-.944V8.444a.944.944,0,0,1,.944-.944h15.826a.944.944,0,0,1,.944.944V14.08A.944.944,0,0,1,186.469,15.025Zm0,0" transform="translate(-150.529 -6.653)" fill="#83d9ff"/>
      <path id="Path_1271646" data-name="Path 1271646" d="M202.371,447.753l-.17.83.164-.831a.847.847,0,1,0-.327,1.662l.015,0a.862.862,0,0,0,.16.015.848.848,0,0,0,.158-1.68Zm0,0" transform="translate(-178.607 -397.158)"/>
      <path id="Path_1271647" data-name="Path 1271647" d="M261.711,450.26l.084.843-.087-.842a.847.847,0,0,0,.086,1.69c.029,0,.059,0,.088,0l.023,0a.847.847,0,0,0-.194-1.683Zm0,0" transform="translate(-231.47 -399.392)"/>
      <path id="Path_1271648" data-name="Path 1271648" d="M231.993,451.232h-.012a.843.843,0,0,0-.878.809.852.852,0,0,0,.814.884h.039a.847.847,0,0,0,.038-1.694Zm0,0" transform="translate(-204.996 -400.257)"/>
      <path id="Path_1271649" data-name="Path 1271649" d="M173.715,439.843l-.011,0a.842.842,0,0,0-1.078.513.85.85,0,1,0,1.089-.509Zm0,0" transform="translate(-153.081 -390.109)"/>
      <path id="Path_1271650" data-name="Path 1271650" d="M290.991,444.83l.209.821-.211-.82a.847.847,0,1,0,.423,1.641l.022-.006a.847.847,0,0,0-.443-1.636Zm0,0" transform="translate(-257.552 -394.556)"/>
      <path id="Path_1271651" data-name="Path 1271651" d="M319.1,435.024l.336.777-.338-.777a.847.847,0,1,0,.676,1.554l.021-.009a.847.847,0,0,0-.695-1.545Zm0,0" transform="translate(-282.601 -385.818)"/>
      <path id="Path_1271652" data-name="Path 1271652" d="M147.328,80.384a.848.848,0,1,0-.4-1.6l-.01.005a.846.846,0,0,0,.406,1.59Zm0,0" transform="translate(-129.931 -69.8)"/>
      <path id="Path_1271653" data-name="Path 1271653" d="M63.69,164.842a.847.847,0,0,0,1.144-.357l.015-.03a.847.847,0,1,0-1.159.387Zm0,0" transform="translate(-56.093 -144.794)"/>
      <path id="Path_1271654" data-name="Path 1271654" d="M52.172,192.643a.846.846,0,0,0,1.074-.531l.011-.034a.848.848,0,1,0-1.085.564Zm0,0" transform="translate(-45.768 -169.408)"/>
      <path id="Path_1271655" data-name="Path 1271655" d="M79.312,139.137a.847.847,0,0,0,1.183-.187l.011-.015a.847.847,0,0,0-1.379-.985l.683.5-.685-.5A.847.847,0,0,0,79.312,139.137Zm0,0" transform="translate(-70.043 -122.054)"/>
      <path id="Path_1271656" data-name="Path 1271656" d="M121.892,96.524a.851.851,0,1,0-.491-1.54L121.38,95a.848.848,0,0,0,.512,1.524Zm0,0" transform="translate(-107.371 -84.109)"/>
      <path id="Path_1271657" data-name="Path 1271657" d="M49.677,310.728a.847.847,0,1,0-.011-.037Zm0,0" transform="translate(-44.029 -274.644)"/>
      <path id="Path_1271658" data-name="Path 1271658" d="M99.237,116.308a.85.85,0,1,0-.592-1.453l-.014.014a.847.847,0,0,0,.606,1.439Zm0,0" transform="translate(-87.275 -101.661)"/>
      <path id="Path_1271659" data-name="Path 1271659" d="M45.037,280.931a.847.847,0,0,0-1.682.21l0,.034a.847.847,0,0,0,1.677-.244Zm0,0" transform="translate(-38.452 -248.541)"/>
      <path id="Path_1271660" data-name="Path 1271660" d="M42.413,251.854h.026a.847.847,0,0,0,.846-.823V251a.847.847,0,1,0-.873.858Zm0,0" transform="translate(-36.893 -221.891)"/>
      <path id="Path_1271661" data-name="Path 1271661" d="M45.03,221.877a.875.875,0,0,0,.15.013.848.848,0,0,0,.833-.7c0-.012,0-.025.006-.037a.847.847,0,1,0-.989.722Zm0,0" transform="translate(-39.324 -195.311)"/>
      <path id="Path_1271662" data-name="Path 1271662" d="M403.071,143.092a.847.847,0,0,0,1.395-.962l-.7.471.7-.475a.847.847,0,1,0-1.4.951Zm0,0" transform="translate(-357.399 -125.741)"/>
      <path id="Path_1271663" data-name="Path 1271663" d="M436.693,229.028a.847.847,0,0,0-.747.937l0,.037a.848.848,0,0,0,.838.727.868.868,0,0,0,.121-.008.853.853,0,0,0-.216-1.692Zm0,0" transform="translate(-386.694 -203.151)"/>
      <path id="Path_1271664" data-name="Path 1271664" d="M429.674,199.372l0,.011a.847.847,0,0,0,.812.609.835.835,0,0,0,.239-.035.847.847,0,0,0,.574-1.052l0-.011a.847.847,0,0,0-1.626.478Zm0,0" transform="translate(-381.105 -175.886)"/>
      <path id="Path_1271665" data-name="Path 1271665" d="M418.624,170.189a.852.852,0,0,0,.764.476.847.847,0,0,0,.759-1.218l-.768.358.767-.36a.847.847,0,0,0-1.534.719Zm0,0" transform="translate(-371.253 -149.871)"/>
      <path id="Path_1271666" data-name="Path 1271666" d="M383.445,118.8a.854.854,0,1,0-.026-.027Zm0,0" transform="translate(-339.907 -104.094)"/>
      <path id="Path_1271667" data-name="Path 1271667" d="M438.189,260.385a.853.853,0,0,0-.072,1.7h.048a.847.847,0,0,0,.845-.8v-.035A.846.846,0,0,0,438.189,260.385Zm0,0" transform="translate(-387.915 -230.97)"/>
      <path id="Path_1271668" data-name="Path 1271668" d="M333.993,80.86l.02.011a.844.844,0,0,0,1.141-.348.85.85,0,0,0-.344-1.147l-.41.741.407-.743a.847.847,0,1,0-.815,1.486Zm0,0" transform="translate(-295.874 -70.316)"/>
      <path id="Path_1271669" data-name="Path 1271669" d="M360.214,97.865l.013.01a.847.847,0,0,0,1.024-1.35l-.006,0a.847.847,0,1,0-1.032,1.344Zm0,0" transform="translate(-319.228 -85.462)"/>
      <path id="Path_1271670" data-name="Path 1271670" d="M57.315,42.241l-3.977-3.984a1.789,1.789,0,0,0-2.533,0l-.092.092-.261-.261a3.42,3.42,0,0,1-.742-1.11.825.825,0,0,0-.06-.157,3.426,3.426,0,0,1-.2-1.151V34.543a.853.853,0,1,0-.005-1.506,4.776,4.776,0,0,0-1.4-3.186l-3.858-3.865a4.578,4.578,0,0,0-5.854-.526l-.409-.412v-9.69a4.811,4.811,0,0,0-1.194-3.173,3.419,3.419,0,0,1-.849-2.257v-.71h.058a1.793,1.793,0,0,0,1.791-1.792V1.792A1.793,1.793,0,0,0,35.94,0H20.114a1.793,1.793,0,0,0-1.791,1.792V7.427a1.793,1.793,0,0,0,1.791,1.792h.131v.372a3.4,3.4,0,0,1-1,2.418l-1.708,1.711a4.78,4.78,0,0,0-1.405,3.4v5.466a4.568,4.568,0,0,0,.492,2.065,4.549,4.549,0,0,0-2.973,1.336L9.792,29.851a4.781,4.781,0,0,0-1.405,3.4v2.42a3.4,3.4,0,0,1-1,2.418l-.258.259,0,0-.092-.092a1.789,1.789,0,0,0-2.533,0L.523,42.241a1.8,1.8,0,0,0,0,2.534l1.362,1.364a.847.847,0,1,0,1.2-1.2L1.722,43.577a.1.1,0,0,1,0-.139L5.7,39.454a.1.1,0,0,1,.135,0l.691.693h0L15.968,49.6l1.058,1.06a.1.1,0,0,1,0,.139l-3.977,3.984a.1.1,0,0,1-.135,0L5.483,47.344a.847.847,0,0,0-1.2,1.2l7.431,7.444a1.789,1.789,0,0,0,2.533,0L18.225,52a1.8,1.8,0,0,0,0-2.533l-.043-.043.5-.5a3.4,3.4,0,0,1,2.192-.994,4.794,4.794,0,0,0,3.085-1.4l3.654-3.662a2.9,2.9,0,0,0,2.1-2.21,2.889,2.889,0,0,0,4.128-2.614V36.032A2.888,2.888,0,0,0,37.924,33.4V27.451L40.53,30.07a.847.847,0,0,0,1.2-1.2l-2.173-2.183a2.886,2.886,0,0,1,3.43.492l3.858,3.865a3.1,3.1,0,0,1,.91,2.2v2.42a5.083,5.083,0,0,0,1.495,3.615l.263.263-1.229,1.231-7.433,7.446-.414-.415-.013-.012-.073-.073a5.1,5.1,0,0,0-3.281-1.487,3.107,3.107,0,0,1-2-.907L32.29,42.561a.847.847,0,1,0-1.195,1.2l2.782,2.767a4.794,4.794,0,0,0,3.085,1.4,3.406,3.406,0,0,1,2.191.993l.041.041a.815.815,0,0,0,.07.071l.391.391-.043.044a1.8,1.8,0,0,0,0,2.533l3.977,3.984a1.79,1.79,0,0,0,2.534,0L57.315,44.774A1.8,1.8,0,0,0,57.315,42.241Zm-7.3-8.425-.016,0-.154-.031ZM22.761,45.332a3.1,3.1,0,0,1-1.995.905,5.1,5.1,0,0,0-3.281,1.487l-.5.5-.45-.451-.017-.017L8.323,39.548l.263-.263a5.083,5.083,0,0,0,1.495-3.615V33.25a3.1,3.1,0,0,1,.91-2.2l3.858-3.865a2.885,2.885,0,0,1,3.434-.49l-2.176,2.18a.847.847,0,0,0,1.2,1.2l2.6-2.6V38.043A2.889,2.889,0,0,0,24.05,40.65,2.9,2.9,0,0,0,25.486,42.6ZM36.23,33.4a1.2,1.2,0,1,1-2.391,0V23.948a.847.847,0,1,0-1.694,0v14.1a1.195,1.195,0,0,1-2.373.2v-14.3a.856.856,0,0,0-1.712.01v14.1a2.905,2.905,0,0,0,.018.318v1.707a1.2,1.2,0,1,1-2.39,0V23.928a.847.847,0,0,0-1.695,0V38.043a1.2,1.2,0,1,1-2.39,0V22.284a.847.847,0,1,0-1.694,0V25.2a.832.832,0,0,0-.2.1,2.9,2.9,0,0,1-1.878-2.712V17.119a3.1,3.1,0,0,1,.91-2.2l1.708-1.711a5.082,5.082,0,0,0,1.5-3.615V9.219h1.7a.847.847,0,1,0,0-1.694H20.114a.1.1,0,0,1-.1-.1V1.792a.1.1,0,0,1,.1-.1H35.94a.1.1,0,0,1,.1.1V7.427a.1.1,0,0,1-.1.1H27.62a.847.847,0,1,0,0,1.694h6.567v.71A5.116,5.116,0,0,0,35.456,13.3a3.115,3.115,0,0,1,.774,2.055ZM56.116,43.577,44.924,54.788a.091.091,0,0,1-.068.028.092.092,0,0,1-.068-.028L40.812,50.8a.1.1,0,0,1,0-.139l.64-.642h0l6.5-6.508L52,39.454a.1.1,0,0,1,.135,0l3.978,3.984A.1.1,0,0,1,56.116,43.577Zm0,0"/>
      <path id="Path_1271671" data-name="Path 1271671" d="M194.718,32.8a.9.9,0,1,0,.9.9A.9.9,0,0,0,194.718,32.8Zm0,0" transform="translate(-171.922 -29.099)"/>
      <path id="Path_1271672" data-name="Path 1271672" d="M456.316,374.688a.9.9,0,1,0,.9.9A.9.9,0,0,0,456.316,374.688Zm0,0" transform="translate(-403.968 -332.361)"/>
      <path id="Path_1271673" data-name="Path 1271673" d="M110.816,444.107a.9.9,0,1,0-.9.9A.9.9,0,0,0,110.816,444.107Zm0,0" transform="translate(-96.697 -393.137)"/>
    </g>
  </g>
</svg>
