<svg xmlns="http://www.w3.org/2000/svg" xmlns:xlink="http://www.w3.org/1999/xlink" width="111.776" height="111.776" viewBox="0 0 111.776 111.776">
  <defs>
    <filter id="Path_874925" x="0" y="0" width="111.776" height="111.776" filterUnits="userSpaceOnUse">
      <feOffset dy="3" input="SourceAlpha"/>
      <feGaussianBlur stdDeviation="3" result="blur"/>
      <feFlood flood-opacity="0.161"/>
      <feComposite operator="in" in2="blur"/>
      <feComposite in="SourceGraphic"/>
    </filter>
  </defs>
  <g id="Group_1207318" data-name="Group 1207318" transform="translate(-272.449 -3879.558)">
    <g id="Group_1206742" data-name="Group 1206742" transform="translate(-523.551 2059.675)">
      <g id="Group_1204844" data-name="Group 1204844" transform="translate(520 -4424.991)">
        <g id="Group_1200232" data-name="Group 1200232" transform="translate(285 6250.874)">
          <g id="Group_1187153" data-name="Group 1187153">
            <g id="Group_1182177" data-name="Group 1182177">
              <g id="Group_1181903" data-name="Group 1181903">
                <g id="Group_1181438" data-name="Group 1181438">
                  <g id="Group_1111314" data-name="Group 1111314">
                    <g transform="matrix(1, 0, 0, 1, -9, -6)" filter="url(#Path_874925)">
                      <g id="Path_874925-2" data-name="Path 874925" transform="translate(9 6)" fill="#ffc94a">
                        <path d="M 46.88790893554688 92.2763671875 C 40.75992202758789 92.2763671875 34.8160285949707 91.07652282714844 29.22134971618652 88.71018218994141 C 23.81676292419434 86.42423248291016 18.96264266967773 83.15139007568359 14.79381561279297 78.98255157470703 C 10.62497520446777 74.81372833251953 7.35213565826416 69.95960998535156 5.066188812255859 64.55502319335938 C 2.699842214584351 58.9603385925293 1.500002264976501 53.01644515991211 1.500002264976501 46.88844680786133 C 1.500002264976501 40.75992584228516 2.699842214584351 34.81603240966797 5.066188812255859 29.22135353088379 C 7.35213565826416 23.8167667388916 10.62497520446777 18.962646484375 14.79381561279297 14.79381942749023 C 18.96264266967773 10.62497997283936 23.81676292419434 7.352139949798584 29.22134971618652 5.066193103790283 C 34.8160285949707 2.699846506118774 40.75992202758789 1.500006437301636 46.88790893554688 1.500006437301636 C 53.01589584350586 1.500006437301636 58.95978927612305 2.699846506118774 64.55446624755859 5.066193103790283 C 69.95905303955078 7.352139949798584 74.81317901611328 10.62497997283936 78.98200225830078 14.79381942749023 C 83.15084075927734 18.962646484375 86.42368316650391 23.8167667388916 88.70962524414062 29.22135353088379 C 91.07597351074219 34.81603240966797 92.27581787109375 40.75992584228516 92.27581787109375 46.88791275024414 C 92.27581787109375 53.01644515991211 91.07597351074219 58.9603385925293 88.70962524414062 64.55502319335938 C 86.42368316650391 69.95960998535156 83.15084075927734 74.81372833251953 78.98200225830078 78.98255157470703 C 74.81317901611328 83.15139007568359 69.95905303955078 86.42423248291016 64.55446624755859 88.71018218994141 C 58.95978927612305 91.07652282714844 53.01589584350586 92.2763671875 46.88790893554688 92.2763671875 Z" stroke="none"/>
                        <path d="M 46.88790893554688 2.999992370605469 C 40.96175003051758 2.999992370605469 35.2144660949707 4.159965515136719 29.80567932128906 6.44769287109375 C 24.57989501953125 8.658004760742188 19.88602447509766 11.82290649414062 15.85446929931641 15.85446929931641 C 11.82290649414062 19.88602447509766 8.658012390136719 24.57989501953125 6.44769287109375 29.80567932128906 C 4.159965515136719 35.2144660949707 2.999992370605469 40.96175003051758 2.999992370605469 46.88845062255859 C 2.999992370605469 52.81460952758789 4.159965515136719 58.56189346313477 6.44769287109375 63.97069549560547 C 8.658012390136719 69.19646453857422 11.82290649414062 73.89033508300781 15.85446929931641 77.92189025878906 C 19.88602447509766 81.95343780517578 24.57989501953125 85.11833953857422 29.80567932128906 87.32865142822266 C 35.2144660949707 89.61637878417969 40.96175003051758 90.77635192871094 46.88790893554688 90.77635192871094 C 52.81406784057617 90.77635192871094 58.56135177612305 89.61637878417969 63.97013854980469 87.32865142822266 C 69.1959228515625 85.11833953857422 73.88979339599609 81.95343780517578 77.92134857177734 77.92189025878906 C 81.95291137695312 73.89033508300781 85.11781311035156 69.19646453857422 87.328125 63.97069549560547 C 89.61585235595703 58.56189346313477 90.77582550048828 52.81460952758789 90.77582550048828 46.88790893554688 C 90.77582550048828 40.96175003051758 89.61585235595703 35.2144660949707 87.328125 29.80567932128906 C 85.11781311035156 24.57989501953125 81.95291137695312 19.88602447509766 77.92134857177734 15.85446929931641 C 73.88979339599609 11.82290649414062 69.1959228515625 8.658004760742188 63.97013854980469 6.44769287109375 C 58.56135177612305 4.159965515136719 52.81406784057617 2.999992370605469 46.88790893554688 2.999992370605469 M 46.88790893554688 -7.62939453125e-06 C 72.78337860107422 -7.62939453125e-06 93.77582550048828 20.99243927001953 93.77582550048828 46.88790893554688 L 93.77582550048828 46.88845062255859 C 93.77582550048828 72.783935546875 72.78337860107422 93.77635192871094 46.88790893554688 93.77635192871094 C 20.99243927001953 93.77635192871094 -7.62939453125e-06 72.783935546875 -7.62939453125e-06 46.88845062255859 L -7.62939453125e-06 46.88790893554688 C -7.62939453125e-06 20.99243927001953 20.99243927001953 -7.62939453125e-06 46.88790893554688 -7.62939453125e-06 Z" stroke="none" fill="#fff"/>
                      </g>
                    </g>
                  </g>
                </g>
              </g>
            </g>
          </g>
        </g>
      </g>
    </g>
    <g id="mision-cumplida" transform="translate(293.36 3897.374)">
      <g id="Group_1207317" data-name="Group 1207317" transform="translate(9.074 8.999)">
        <g id="Group_1207315" data-name="Group 1207315" transform="translate(0 0)">
          <path id="Path_1271719" data-name="Path 1271719" d="M44.764,19.768a19.4,19.4,0,0,1,5.682,2.356l3.692-1.64,4.351,4.351L56.85,28.526a19.4,19.4,0,0,1,2.356,5.683l3.767,1.45v6.154l-3.768,1.45a19.4,19.4,0,0,1-2.356,5.682l1.64,3.692-4.351,4.352-3.691-1.639A19.4,19.4,0,0,1,44.764,57.7l-1.45,3.767H37.16L35.71,57.7a19.405,19.405,0,0,1-5.682-2.356l-3.692,1.64-4.351-4.351,1.639-3.691a19.4,19.4,0,0,1-2.356-5.683L17.5,41.813V35.659l3.767-1.45a19.4,19.4,0,0,1,2.356-5.682l-1.639-3.692,4.351-4.352,3.692,1.64a19.407,19.407,0,0,1,5.682-2.356L37.16,16h6.154Z" transform="translate(-17.501 -16)" fill="#ffe177" fill-rule="evenodd"/>
          <path id="Path_1271720" data-name="Path 1271720" d="M95.046,55.348l-3.692,1.64-.569-.569,3.462-1.537q.394.243.8.466Zm14.736-35.581a19.4,19.4,0,0,1,5.682,2.356l-1.049.466a25.6,25.6,0,0,0-6.481-2.822L106.483,16h1.848Zm5.683,35.581a19.4,19.4,0,0,1-5.683,2.356l-1.45,3.767h-1.848l1.45-3.767a25.586,25.586,0,0,0,6.482-2.822Zm-24.679-34.3.569-.569,3.692,1.64q-.4.223-.8.466Zm27.09,0,1.28-.569,4.351,4.351-1.639,3.691a19.4,19.4,0,0,1,2.356,5.683l3.767,1.45v6.154l-3.768,1.45a19.4,19.4,0,0,1-2.356,5.682l1.64,3.692-4.351,4.352-1.28-.569,3.783-3.783-1.64-3.692a19.4,19.4,0,0,0,2.356-5.682l3.768-1.45V35.659l-3.767-1.45a19.4,19.4,0,0,0-2.356-5.683l1.639-3.691Z" transform="translate(-82.518 -16)" fill="#ffd064" fill-rule="evenodd"/>
          <circle id="Ellipse_13017" data-name="Ellipse 13017" cx="12.056" cy="12.056" r="12.056" transform="translate(8.233 13.766) rotate(-13.3)" fill="#eceff1"/>
          <path id="Path_1271721" data-name="Path 1271721" d="M124.239,110.68a12.056,12.056,0,0,0,0,24.111q.484,0,.959-.038a12.056,12.056,0,0,1,0-24.036Q124.723,110.681,124.239,110.68Z" transform="translate(-101.503 -100)" fill="#d1d1d6" fill-rule="evenodd"/>
        </g>
        <g id="Group_1207316" data-name="Group 1207316" transform="translate(22.415 22.786)">
          <circle id="Ellipse_13018" data-name="Ellipse 13018" cx="14.146" cy="14.146" r="14.146" transform="translate(0 3.067)" fill="#fe646f"/>
          <path id="Path_1271722" data-name="Path 1271722" d="M337.179,245.192a14.146,14.146,0,1,1,0,28.292c-.189,0-.377,0-.564-.012a14.145,14.145,0,0,0,0-28.267C336.8,245.2,336.99,245.192,337.179,245.192Z" transform="translate(-323.033 -242.125)" fill="#fd4755" fill-rule="evenodd"/>
          <circle id="Ellipse_13019" data-name="Ellipse 13019" cx="9.09" cy="9.09" r="9.09" transform="translate(5.056 8.123)" fill="#eceff1"/>
          <path id="Path_1271723" data-name="Path 1271723" d="M270.119,290.011c.189,0,.377.007.564.018a9.09,9.09,0,0,0,0,18.145c-.187.012-.375.018-.564.018a9.09,9.09,0,1,1,0-18.181Z" transform="translate(-255.973 -281.888)" fill="#d1d1d6" fill-rule="evenodd"/>
          <circle id="Ellipse_13020" data-name="Ellipse 13020" cx="4.035" cy="4.035" r="4.035" transform="translate(8.891 15.023) rotate(-22.514)" fill="#fe646f"/>
          <path id="Path_1271724" data-name="Path 1271724" d="M309.883,334.829a4.064,4.064,0,0,1,.564.039,4.035,4.035,0,0,0,0,7.99,4.035,4.035,0,1,1-.564-8.03Z" transform="translate(-295.737 -321.651)" fill="#fd4755" fill-rule="evenodd"/>
          <path id="Path_1271725" data-name="Path 1271725" d="M411.386,223.4l-5.056,5.056a.33.33,0,0,1-.311.091l-3.966-.855a.332.332,0,0,1-.26-.26l-.855-3.966a.33.33,0,0,1,.091-.311l5.056-5.056a.338.338,0,0,1,.57.168l.763,3.539a.332.332,0,0,0,.26.26l3.539.763a.338.338,0,0,1,.168.57Z" transform="translate(-380.095 -218.001)" fill="#e3a76f" fill-rule="evenodd"/>
          <path id="Path_1271726" data-name="Path 1271726" d="M417.709,261.17l-5.056,5.056a.33.33,0,0,1-.311.091l-3.966-.855a.332.332,0,0,1-.26-.26l-.059-.273,3.945.85a.33.33,0,0,0,.311-.091l5.056-5.056a.36.36,0,0,0,.048-.059l.123.027a.338.338,0,0,1,.168.57Z" transform="translate(-386.418 -255.771)" fill="#c48958" fill-rule="evenodd"/>
        </g>
      </g>
      <path id="Path_1271727" data-name="Path 1271727" d="M61.241,37.266l-2.261-.487-4.106,4.106,2.259.487ZM34.926,8.109a.9.9,0,0,1,.633.554l1.282,3.33a20.263,20.263,0,0,1,5.069,2.1l3.264-1.45a.9.9,0,0,1,1,.187l4.351,4.351a.9.9,0,0,1,.187,1L49.268,21.45a20.259,20.259,0,0,1,2.1,5.072L54.7,27.8a.9.9,0,0,1,.578.842v1.376a.9.9,0,1,1-1.8,0v-.757l-3.188-1.228a.9.9,0,0,1-.554-.633,18.46,18.46,0,0,0-2.247-5.419.9.9,0,0,1-.056-.84l1.389-3.124-3.476-3.475-3.126,1.388a.9.9,0,0,1-.84-.056,18.455,18.455,0,0,0-5.418-2.246.9.9,0,0,1-.633-.554L34.1,9.889H29.183l-1.228,3.19a.9.9,0,0,1-.633.554A18.459,18.459,0,0,0,21.9,15.878a.9.9,0,0,1-.84.056l-3.126-1.388-3.475,3.475,1.389,3.126a.905.905,0,0,1-.056.84A18.44,18.44,0,0,0,13.551,27.4a.906.906,0,0,1-.554.633L9.807,29.266V34.18L13,35.407a.9.9,0,0,1,.554.633A18.449,18.449,0,0,0,15.8,41.459a.9.9,0,0,1,.056.84l-1.389,3.124L17.939,48.9l3.126-1.388a.9.9,0,0,1,.84.056,18.459,18.459,0,0,0,5.417,2.246.9.9,0,0,1,.633.554l1.267,3.29a.9.9,0,0,1-.414,1.7h-.245a.9.9,0,0,1-.842-.578l-1.282-3.331a20.245,20.245,0,0,1-5.069-2.1L18.105,50.8a.9.9,0,0,1-1-.187l-4.352-4.351a.9.9,0,0,1-.186-1l1.45-3.263a20.227,20.227,0,0,1-2.1-5.071L8.58,35.641A.9.9,0,0,1,8,34.8V28.646A.9.9,0,0,1,8.58,27.8l3.33-1.282a20.229,20.229,0,0,1,2.1-5.07l-1.45-3.264a.9.9,0,0,1,.186-1L17.1,12.832a.9.9,0,0,1,1-.187L21.37,14.1a20.249,20.249,0,0,1,5.069-2.1l1.282-3.33a.9.9,0,0,1,.633-.554h6.572ZM58.708,48.986a13.238,13.238,0,1,1-7.484-11.928.93.93,0,0,0,.019.191l.836,3.879-.2.2a10,10,0,1,0,1.273,1.279l.2-.2,3.878.836a.886.886,0,0,0,.175.02,13.269,13.269,0,0,1,1.3,5.727ZM50.6,42.612a8.2,8.2,0,1,0,1.272,1.28l-2.322,2.321a4.946,4.946,0,1,1-1.27-1.282Zm-2.361,4.914L46.12,49.64a.9.9,0,1,1-1.277-1.276l2.125-2.125a3.133,3.133,0,1,0,1.267,1.286Zm4.876-10.176,4.106-4.106L57.7,35.5,53.6,39.609Zm10.576.022-4.8,4.8a15.047,15.047,0,1,1-6.565-6.586L57.113,30.8a.9.9,0,0,1,1.52.448l.59,2.741L59.5,33.7a.9.9,0,0,1,1.277,1.276l-.281.281,2.74.591a.9.9,0,0,1,.448,1.52Zm-32.649-1.05,6.52-8.061a.9.9,0,1,0-1.4-1.135l-5.89,7.281-3.2-3.2a.9.9,0,0,0-1.276,1.276L29.7,36.391a.9.9,0,0,0,.638.264h.048a.9.9,0,0,0,.654-.333Zm-2,6.25A11.154,11.154,0,1,1,42.792,31.558a.9.9,0,0,0,.9.889h.013a.9.9,0,0,0,.889-.915,12.958,12.958,0,1,0-23.083,8.276,13.022,13.022,0,0,0,7.107,4.518.894.894,0,0,0,.21.025.9.9,0,0,0,.209-1.78Z" fill="#242222" fill-rule="evenodd"/>
    </g>
  </g>
</svg>
