<svg xmlns="http://www.w3.org/2000/svg" width="129.063" height="59.415" viewBox="0 0 129.063 59.415">
  <g id="Group_1207297" data-name="Group 1207297" transform="translate(-3170 9396.942)">
    <g id="Group_1206735" data-name="Group 1206735" transform="translate(2106.161 -14868.738)">
      <g id="Group_1205224" data-name="Group 1205224" transform="translate(276.058 2903.871)">
        <g id="Rectangle_410589" data-name="Rectangle 410589" transform="translate(787.781 2575.623)" fill="#ffc94a" stroke="#dfab32" stroke-width="1">
          <rect width="129.063" height="43.021" rx="8" stroke="none"/>
          <rect x="0.5" y="0.5" width="128.063" height="42.021" rx="7.5" fill="none"/>
        </g>
      </g>
    </g>
    <g id="comunidad6" transform="translate(3202.855 -9396.941)">
      <g id="Group_1207295" data-name="Group 1207295" transform="translate(3.296 1.153)">
        <path id="Path_1271674" data-name="Path 1271674" d="M228.519,204.662a4.429,4.429,0,1,0-8.858,0v2.214a4.429,4.429,0,0,0,8.858,0v-2.214Z" transform="translate(-195.78 -178.344)" fill="#bb6b57" fill-rule="evenodd"/>
        <path id="Path_1271675" data-name="Path 1271675" d="M201.84,283.625a4.413,4.413,0,0,1-6.586,0,7.775,7.775,0,0,0-4.458,7.011v13.751h15.5V290.636A7.775,7.775,0,0,0,201.84,283.625Z" transform="translate(-170.237 -252.139)" fill="#ff5a58" fill-rule="evenodd"/>
        <path id="Path_1271676" data-name="Path 1271676" d="M109.417,204.662a4.429,4.429,0,1,0-8.858,0v2.214a4.429,4.429,0,0,0,8.858,0v-2.214Z" transform="translate(-90.384 -178.344)" fill="#cc9081" fill-rule="evenodd"/>
        <path id="Path_1271677" data-name="Path 1271677" d="M82.738,283.625a4.413,4.413,0,0,1-6.586,0,7.775,7.775,0,0,0-4.458,7.011v13.751H87.2V290.636A7.775,7.775,0,0,0,82.738,283.625Z" transform="translate(-64.842 -252.139)" fill="#66e0f7" fill-rule="evenodd"/>
        <path id="Path_1271678" data-name="Path 1271678" d="M347.621,204.662a4.429,4.429,0,1,0-8.858,0v2.214a4.429,4.429,0,0,0,8.858,0v-2.214Z" transform="translate(-301.175 -178.344)" fill="#cc9081" fill-rule="evenodd"/>
        <path id="Path_1271679" data-name="Path 1271679" d="M320.941,283.625a4.413,4.413,0,0,1-6.586,0,7.775,7.775,0,0,0-4.458,7.011v13.751h15.5V290.636A7.775,7.775,0,0,0,320.941,283.625Z" transform="translate(-275.632 -252.139)" fill="#ff9346" fill-rule="evenodd"/>
        <path id="Path_1271680" data-name="Path 1271680" d="M178.754,11.521a5.167,5.167,0,0,0-7.269,0c-5.431,5.414,5.025,14.875,8.615,15.834,3.591-.959,14.046-10.42,8.615-15.834a5.167,5.167,0,0,0-7.269,0A1.879,1.879,0,0,1,178.754,11.521Z" transform="translate(-151.791 -10.027)" fill="#ff5a58" fill-rule="evenodd"/>
        <path id="Path_1271681" data-name="Path 1271681" d="M49.867,342.195a4.429,4.429,0,0,0-8.858,0v2.214a4.429,4.429,0,0,0,8.858,0v-2.214Z" transform="translate(-37.687 -300.049)" fill="#bb6b57" fill-rule="evenodd"/>
        <path id="Path_1271682" data-name="Path 1271682" d="M23.187,421.158a4.413,4.413,0,0,1-6.586,0,7.775,7.775,0,0,0-4.458,7.011v2.786h15.5v-2.786A7.775,7.775,0,0,0,23.187,421.158Z" transform="translate(-12.144 -373.845)" fill="#ffc144" fill-rule="evenodd"/>
        <path id="Path_1271683" data-name="Path 1271683" d="M168.968,342.195a4.429,4.429,0,1,0-8.858,0v2.214a4.429,4.429,0,0,0,8.858,0Z" transform="translate(-143.082 -300.049)" fill="#e5ae8c" fill-rule="evenodd"/>
        <path id="Path_1271684" data-name="Path 1271684" d="M142.29,421.158a4.413,4.413,0,0,1-6.586,0,7.775,7.775,0,0,0-4.458,7.011v2.786h15.5v-2.786A7.775,7.775,0,0,0,142.29,421.158Z" transform="translate(-117.54 -373.845)" fill="#8481e2" fill-rule="evenodd"/>
        <path id="Path_1271685" data-name="Path 1271685" d="M288.07,342.195a4.429,4.429,0,1,0-8.858,0v2.214a4.429,4.429,0,0,0,8.858,0v-2.214Z" transform="translate(-248.478 -300.049)" fill="#cc9081" fill-rule="evenodd"/>
        <path id="Path_1271686" data-name="Path 1271686" d="M261.391,421.158a4.413,4.413,0,0,1-6.586,0,7.775,7.775,0,0,0-4.458,7.011v2.786h15.5v-2.786A7.775,7.775,0,0,0,261.391,421.158Z" transform="translate(-222.935 -373.845)" fill="#fff" fill-rule="evenodd"/>
        <path id="Path_1271687" data-name="Path 1271687" d="M407.172,342.195a4.429,4.429,0,1,0-8.858,0v2.214a4.429,4.429,0,0,0,8.858,0Z" transform="translate(-353.873 -300.049)" fill="#e5ae8c" fill-rule="evenodd"/>
        <path id="Path_1271688" data-name="Path 1271688" d="M380.493,421.158a4.413,4.413,0,0,1-6.586,0,7.775,7.775,0,0,0-4.458,7.011v2.786h15.5v-2.786A7.775,7.775,0,0,0,380.493,421.158Z" transform="translate(-328.331 -373.845)" fill="#cbe558" fill-rule="evenodd"/>
      </g>
      <g id="Group_1207296" data-name="Group 1207296" transform="translate(2.145 -0.001)">
        <path id="Path_1271689" data-name="Path 1271689" d="M57.113,216.429a5.543,5.543,0,0,0,.632-2.574v-2.215a5.589,5.589,0,0,0-3.677-5.245A8.859,8.859,0,0,0,50.26,200.6a5.544,5.544,0,0,0,.631-2.573v-2.214a5.58,5.58,0,1,0-11.159,0v2.214a5.544,5.544,0,0,0,.631,2.573,8.935,8.935,0,0,0-1.908,1.72,8.911,8.911,0,0,0-1.9-1.718,5.544,5.544,0,0,0,.632-2.575v-2.214a5.58,5.58,0,1,0-11.159,0v2.214a5.542,5.542,0,0,0,.632,2.575,8.911,8.911,0,0,0-1.911,1.73,9,9,0,0,0-1.9-1.729,5.544,5.544,0,0,0,.633-2.576v-2.215a5.58,5.58,0,0,0-11.159,0v2.215a5.544,5.544,0,0,0,.631,2.573A8.865,8.865,0,0,0,9.143,206.4a5.589,5.589,0,0,0-3.677,5.245v2.214a5.544,5.544,0,0,0,.632,2.574,8.85,8.85,0,0,0-3.953,7.391v2.786A1.151,1.151,0,0,0,3.3,227.757h56.62a1.151,1.151,0,0,0,1.151-1.151V223.82a8.85,8.85,0,0,0-3.953-7.391Zm-1.67-4.788v2.215a3.278,3.278,0,1,1-6.556,0v-2.215a3.278,3.278,0,0,1,6.556,0Zm-3.817-5.553a5.587,5.587,0,0,0-5.041,5.553v2.215a5.544,5.544,0,0,0,.632,2.575,8.927,8.927,0,0,0-1.9,1.717,8.94,8.94,0,0,0-1.911-1.718,5.544,5.544,0,0,0,.632-2.574v-2.215A5.587,5.587,0,0,0,39,206.088a6.719,6.719,0,0,1,2.841-3.7,5.563,5.563,0,0,0,6.946,0A6.716,6.716,0,0,1,51.627,206.088Zm-16.446,7.768v-2.215a3.278,3.278,0,0,1,6.556,0v2.215a3.278,3.278,0,1,1-6.556,0Zm6.853-18.042a3.278,3.278,0,1,1,6.556,0v2.214a3.278,3.278,0,1,1-6.556,0Zm-13.706,0a3.278,3.278,0,1,1,6.556,0v2.214a3.278,3.278,0,0,1-6.556,0v-2.214Zm-.2,6.577a5.563,5.563,0,0,0,6.946,0,6.636,6.636,0,0,1,2.075,2.043,8.873,8.873,0,0,0-.6,1.963,5.589,5.589,0,0,0-3.677,5.245v2.215a5.543,5.543,0,0,0,.632,2.574,8.936,8.936,0,0,0-1.911,1.717,8.91,8.91,0,0,0-1.9-1.716,5.543,5.543,0,0,0,.632-2.575v-2.214a5.589,5.589,0,0,0-3.678-5.246,8.809,8.809,0,0,0-.6-1.951,6.635,6.635,0,0,1,2.082-2.054Zm-6.658,11.465v-2.215a3.278,3.278,0,0,1,6.556,0v2.215a3.278,3.278,0,0,1-6.556,0Zm-6.853-18.042a3.278,3.278,0,0,1,6.556,0v2.214a3.278,3.278,0,0,1-6.556,0Zm-.2,6.577a5.563,5.563,0,0,0,6.946,0,6.714,6.714,0,0,1,2.841,3.7,5.587,5.587,0,0,0-5.041,5.553v2.215a5.544,5.544,0,0,0,.632,2.574,8.939,8.939,0,0,0-1.91,1.716,8.9,8.9,0,0,0-1.9-1.715,5.544,5.544,0,0,0,.632-2.575v-2.215a5.587,5.587,0,0,0-5.041-5.553A6.72,6.72,0,0,1,14.426,202.39Zm-6.658,9.251a3.278,3.278,0,0,1,6.556,0v2.215a3.278,3.278,0,0,1-6.556,0ZM4.446,223.82a6.567,6.567,0,0,1,3.126-5.6,5.562,5.562,0,0,0,6.947,0,6.629,6.629,0,0,1,2.073,2.04,8.888,8.888,0,0,0-.741,3.563v1.635H4.446Zm13.706,0a6.567,6.567,0,0,1,3.126-5.6,5.563,5.563,0,0,0,6.947,0,6.633,6.633,0,0,1,2.073,2.04,8.889,8.889,0,0,0-.741,3.563v1.635h-11.4V223.82Zm13.706,0a6.567,6.567,0,0,1,3.126-5.6,5.562,5.562,0,0,0,6.947,0,6.568,6.568,0,0,1,3.126,5.6v1.635h-13.2Zm26.906,1.635H47.36V223.82a8.887,8.887,0,0,0-.741-3.562,6.646,6.646,0,0,1,2.073-2.04,5.562,5.562,0,0,0,6.947,0,6.567,6.567,0,0,1,3.126,5.6v1.635Z" transform="translate(-2.145 -168.342)"/>
        <path id="Path_1271690" data-name="Path 1271690" d="M161.951,9.782a1.151,1.151,0,0,0,.692-1.473c-.724-2-.462-3.589.8-4.847a4,4,0,0,1,5.644,0,3.027,3.027,0,0,0,4.317,0,4,4,0,0,1,5.644,0,4.05,4.05,0,0,1,.995,4.23c-1.153,4.31-6.5,8.712-8.8,9.58a11.56,11.56,0,0,1-2.529-1.517,1.151,1.151,0,0,0-1.383,1.84,11.756,11.756,0,0,0,3.614,2,1.15,1.15,0,0,0,.594,0,16.452,16.452,0,0,0,5.941-3.994c1.427-1.385,3.945-4.177,4.783-7.312a6.342,6.342,0,0,0-10.488-6.455.733.733,0,0,1-1.067,0,6.311,6.311,0,0,0-8.894,0c-1.905,1.9-2.368,4.409-1.339,7.258a1.151,1.151,0,0,0,1.473.692Z" transform="translate(-141.784 0.001)"/>
        <path id="Path_1271691" data-name="Path 1271691" d="M188.613,104a1.151,1.151,0,1,0,1.152,1.151A1.15,1.15,0,0,0,188.613,104Z" transform="translate(-166.136 -92.036)"/>
      </g>
    </g>
  </g>
</svg>
