<svg xmlns="http://www.w3.org/2000/svg" xmlns:xlink="http://www.w3.org/1999/xlink" width="111.776" height="111.776" viewBox="0 0 111.776 111.776">
  <defs>
    <filter id="Path_874925" x="0" y="0" width="111.776" height="111.776" filterUnits="userSpaceOnUse">
      <feOffset dy="3" input="SourceAlpha"/>
      <feGaussianBlur stdDeviation="3" result="blur"/>
      <feFlood flood-opacity="0.161"/>
      <feComposite operator="in" in2="blur"/>
      <feComposite in="SourceGraphic"/>
    </filter>
  </defs>
  <g id="Group_1207328" data-name="Group 1207328" transform="translate(-587 -3879.558)">
    <g id="Group_1206743" data-name="Group 1206743" transform="translate(-209 2059.675)">
      <g id="Group_1204844" data-name="Group 1204844" transform="translate(520 -4424.991)">
        <g id="Group_1200232" data-name="Group 1200232" transform="translate(285 6250.874)">
          <g id="Group_1187153" data-name="Group 1187153">
            <g id="Group_1182177" data-name="Group 1182177">
              <g id="Group_1181903" data-name="Group 1181903">
                <g id="Group_1181438" data-name="Group 1181438">
                  <g id="Group_1111314" data-name="Group 1111314">
                    <g transform="matrix(1, 0, 0, 1, -9, -6)" filter="url(#Path_874925)">
                      <g id="Path_874925-2" data-name="Path 874925" transform="translate(9 6)" fill="#ffc94a">
                        <path d="M 46.88790893554688 92.2763671875 C 40.75992202758789 92.2763671875 34.8160285949707 91.07652282714844 29.22134971618652 88.71018218994141 C 23.81676292419434 86.42423248291016 18.96264266967773 83.15139007568359 14.79381561279297 78.98255157470703 C 10.62497520446777 74.81372833251953 7.35213565826416 69.95960998535156 5.066188812255859 64.55502319335938 C 2.699842214584351 58.9603385925293 1.500002264976501 53.01644515991211 1.500002264976501 46.88844680786133 C 1.500002264976501 40.75992584228516 2.699842214584351 34.81603240966797 5.066188812255859 29.22135353088379 C 7.35213565826416 23.8167667388916 10.62497520446777 18.962646484375 14.79381561279297 14.79381942749023 C 18.96264266967773 10.62497997283936 23.81676292419434 7.352139949798584 29.22134971618652 5.066193103790283 C 34.8160285949707 2.699846506118774 40.75992202758789 1.500006437301636 46.88790893554688 1.500006437301636 C 53.01589584350586 1.500006437301636 58.95978927612305 2.699846506118774 64.55446624755859 5.066193103790283 C 69.95905303955078 7.352139949798584 74.81317901611328 10.62497997283936 78.98200225830078 14.79381942749023 C 83.15084075927734 18.962646484375 86.42368316650391 23.8167667388916 88.70962524414062 29.22135353088379 C 91.07597351074219 34.81603240966797 92.27581787109375 40.75992584228516 92.27581787109375 46.88791275024414 C 92.27581787109375 53.01644515991211 91.07597351074219 58.9603385925293 88.70962524414062 64.55502319335938 C 86.42368316650391 69.95960998535156 83.15084075927734 74.81372833251953 78.98200225830078 78.98255157470703 C 74.81317901611328 83.15139007568359 69.95905303955078 86.42423248291016 64.55446624755859 88.71018218994141 C 58.95978927612305 91.07652282714844 53.01589584350586 92.2763671875 46.88790893554688 92.2763671875 Z" stroke="none"/>
                        <path d="M 46.88790893554688 2.999992370605469 C 40.96175003051758 2.999992370605469 35.2144660949707 4.159965515136719 29.80567932128906 6.44769287109375 C 24.57989501953125 8.658004760742188 19.88602447509766 11.82290649414062 15.85446929931641 15.85446929931641 C 11.82290649414062 19.88602447509766 8.658012390136719 24.57989501953125 6.44769287109375 29.80567932128906 C 4.159965515136719 35.2144660949707 2.999992370605469 40.96175003051758 2.999992370605469 46.88845062255859 C 2.999992370605469 52.81460952758789 4.159965515136719 58.56189346313477 6.44769287109375 63.97069549560547 C 8.658012390136719 69.19646453857422 11.82290649414062 73.89033508300781 15.85446929931641 77.92189025878906 C 19.88602447509766 81.95343780517578 24.57989501953125 85.11833953857422 29.80567932128906 87.32865142822266 C 35.2144660949707 89.61637878417969 40.96175003051758 90.77635192871094 46.88790893554688 90.77635192871094 C 52.81406784057617 90.77635192871094 58.56135177612305 89.61637878417969 63.97013854980469 87.32865142822266 C 69.1959228515625 85.11833953857422 73.88979339599609 81.95343780517578 77.92134857177734 77.92189025878906 C 81.95291137695312 73.89033508300781 85.11781311035156 69.19646453857422 87.328125 63.97069549560547 C 89.61585235595703 58.56189346313477 90.77582550048828 52.81460952758789 90.77582550048828 46.88790893554688 C 90.77582550048828 40.96175003051758 89.61585235595703 35.2144660949707 87.328125 29.80567932128906 C 85.11781311035156 24.57989501953125 81.95291137695312 19.88602447509766 77.92134857177734 15.85446929931641 C 73.88979339599609 11.82290649414062 69.1959228515625 8.658004760742188 63.97013854980469 6.44769287109375 C 58.56135177612305 4.159965515136719 52.81406784057617 2.999992370605469 46.88790893554688 2.999992370605469 M 46.88790893554688 -7.62939453125e-06 C 72.78337860107422 -7.62939453125e-06 93.77582550048828 20.99243927001953 93.77582550048828 46.88790893554688 L 93.77582550048828 46.88845062255859 C 93.77582550048828 72.783935546875 72.78337860107422 93.77635192871094 46.88790893554688 93.77635192871094 C 20.99243927001953 93.77635192871094 -7.62939453125e-06 72.783935546875 -7.62939453125e-06 46.88845062255859 L -7.62939453125e-06 46.88790893554688 C -7.62939453125e-06 20.99243927001953 20.99243927001953 -7.62939453125e-06 46.88790893554688 -7.62939453125e-06 Z" stroke="none" fill="#fff"/>
                      </g>
                    </g>
                  </g>
                </g>
              </g>
            </g>
          </g>
        </g>
      </g>
    </g>
    <g id="logro" transform="translate(619.953 3903.904)">
      <g id="Group_1207319" data-name="Group 1207319" transform="translate(0.974 2.021)">
        <path id="Path_1271728" data-name="Path 1271728" d="M4.5,9.063V56.432a3.939,3.939,0,0,0,3.926,3.929H44.283a3.939,3.939,0,0,0,3.926-3.929V9.063a3.939,3.939,0,0,0-3.926-3.929H8.426A3.939,3.939,0,0,0,4.5,9.063Z" transform="translate(-4.5 -5.134)" fill="#eaf6ff" fill-rule="evenodd"/>
      </g>
      <g id="Group_1207320" data-name="Group 1207320" transform="translate(5.501 41.203)">
        <path id="Path_1271729" data-name="Path 1271729" d="M42.705,335.816h9.962v9.958H42.705Z" transform="translate(-42.705 -335.816)" fill="#ffd301" fill-rule="evenodd"/>
      </g>
      <g id="Group_1207321" data-name="Group 1207321" transform="translate(5.501 25.799)">
        <path id="Path_1271730" data-name="Path 1271730" d="M42.705,205.815h9.962v9.958H42.705Z" transform="translate(-42.705 -205.815)" fill="#ffd301" fill-rule="evenodd"/>
      </g>
      <g id="Group_1207322" data-name="Group 1207322" transform="translate(5.501 10.396)">
        <path id="Path_1271731" data-name="Path 1271731" d="M42.705,75.814h9.962v9.962H42.705Z" transform="translate(-42.705 -75.814)" fill="#ffd301" fill-rule="evenodd"/>
      </g>
      <g id="Group_1207323" data-name="Group 1207323" transform="translate(25.374 36.937)">
        <path id="Path_1271732" data-name="Path 1271732" d="M222.7,324.349a12.266,12.266,0,1,0-12.266-12.266A12.289,12.289,0,0,0,222.7,324.349Z" transform="translate(-210.434 -299.816)" fill="#fd646f" fill-rule="evenodd"/>
      </g>
      <g id="Group_1207324" data-name="Group 1207324" transform="translate(29.664 40.99)">
        <path id="Path_1271733" data-name="Path 1271733" d="M254.612,349.971a7.977,7.977,0,1,0-7.977-7.977A7.991,7.991,0,0,0,254.612,349.971Z" transform="translate(-246.635 -334.017)" fill="#f5f5f5" fill-rule="evenodd"/>
      </g>
      <g id="Group_1207325" data-name="Group 1207325" transform="translate(33.997 45.323)">
        <path id="Path_1271734" data-name="Path 1271734" d="M286.853,377.879a3.643,3.643,0,1,0-3.643-3.643A3.65,3.65,0,0,0,286.853,377.879Z" transform="translate(-283.209 -370.592)" fill="#fd646f" fill-rule="evenodd"/>
      </g>
      <g id="Group_1207326" data-name="Group 1207326" transform="translate(28.285 45.649)">
        <path id="Path_1271735" data-name="Path 1271735" d="M256.03,376A12.537,12.537,0,0,1,235,385.225a12.27,12.27,0,0,0,20.743-11.889A12.507,12.507,0,0,1,256.03,376Z" transform="translate(-235.002 -373.336)" fill="#eb4954" fill-rule="evenodd"/>
      </g>
      <g id="Group_1207327" data-name="Group 1207327" transform="translate(51.465 35.439)">
        <path id="Path_1271736" data-name="Path 1271736" d="M430.633,292.744V289.3l3.691-2.131v3.446l2.988,1.727-3.691,2.131Z" transform="translate(-430.633 -287.166)" fill="#fac149" fill-rule="evenodd"/>
      </g>
      <path id="Path_1271737" data-name="Path 1271737" d="M4.851,41.073a.828.828,0,0,1,.828-.828H12.54a.828.828,0,0,1,0,1.656H6.507v8.165h8.165V44.941a.828.828,0,1,1,1.656,0v5.953a.828.828,0,0,1-.828.828H5.679a.828.828,0,0,1-.828-.828Zm13.044-2.906a.828.828,0,0,0-1.164.129l-6.306,7.878-1.691-2.7a.828.828,0,1,0-1.4.878l2.31,3.694a.829.829,0,0,0,.654.388h.048a.828.828,0,0,0,.646-.311l7.036-8.789a.828.828,0,0,0-.129-1.164ZM4.851,35.7a.828.828,0,0,0,.828.828H15.5a.828.828,0,0,0,.828-.828V29.75a.828.828,0,1,0-1.656,0v5.125H6.507V26.709H12.54a.828.828,0,0,0,0-1.656H5.679a.828.828,0,0,0-.828.828ZM17.895,22.979a.828.828,0,0,0-1.164.129l-6.306,7.875-1.691-2.7a.828.828,0,1,0-1.4.878L9.64,32.85a.828.828,0,0,0,.654.388l.048,0a.828.828,0,0,0,.646-.31l7.036-8.785a.828.828,0,0,0-.129-1.164Zm7.621,33.09H5.2a3.05,3.05,0,0,1-3.047-3.047V6.306A3.05,3.05,0,0,1,5.2,3.259h35.36A3.05,3.05,0,0,1,43.61,6.306V36.212a.828.828,0,1,0,1.656,0V6.306a4.708,4.708,0,0,0-4.7-4.7H5.2a4.708,4.708,0,0,0-4.7,4.7V53.022a4.708,4.708,0,0,0,4.7,4.7H25.516a.828.828,0,0,0,0-1.656ZM12.54,11.518a.828.828,0,0,0,0-1.656H5.679a.828.828,0,0,0-.828.828v9.825a.828.828,0,0,0,.828.828H15.5a.828.828,0,0,0,.828-.828V14.559a.828.828,0,1,0-1.656,0v5.128H6.507V11.518Zm5.354-3.73a.828.828,0,0,0-1.164.129l-6.307,7.875-1.691-2.7a.828.828,0,1,0-1.4.878l2.31,3.691a.828.828,0,0,0,.654.387h.048a.828.828,0,0,0,.646-.31l7.036-8.785a.828.828,0,0,0-.129-1.164ZM38.116,9.862H21.373a.828.828,0,0,0,0,1.656H38.116a.828.828,0,0,0,0-1.656Zm0,4.431H21.373a.828.828,0,0,0,0,1.656H38.116a.828.828,0,0,0,0-1.656Zm0,10.76H21.373a.828.828,0,0,0,0,1.656H38.116a.828.828,0,0,0,0-1.656Zm.828,5.259a.828.828,0,0,0-.828-.828H21.373a.828.828,0,0,0,0,1.656H38.116A.828.828,0,0,0,38.944,30.313ZM26.317,41.073a.828.828,0,0,0-.828-.828H21.373a.828.828,0,0,0,0,1.656h4.116A.828.828,0,0,0,26.317,41.073Zm-4.944,3.6a.828.828,0,0,0,0,1.656h2.192a.828.828,0,0,0,0-1.656Zm39.26-8.048L56.89,38.787l1.705.985a.828.828,0,0,1,0,1.434l-3.64,2.1a.827.827,0,0,1-.828,0l-2.532-1.463-2.4,1.387a12.962,12.962,0,1,1-.83-1.433l2.4-1.388V37.489a.828.828,0,0,1,.414-.717l3.64-2.1a.828.828,0,0,1,1.242.717v1.965l3.743-2.16a.828.828,0,0,1,.828,1.434ZM47.756,44.061l-2.239,1.293a8.724,8.724,0,1,1-.83-1.433l2.239-1.292a11.211,11.211,0,1,0,.831,1.433Zm-11,4.44,2.726-1.574a2.765,2.765,0,1,0,.829,1.433l-2.727,1.574a.828.828,0,1,1-.828-1.434Zm4.2-2.425,2.293-1.324a7.022,7.022,0,1,0,.83,1.433l-2.292,1.324a4.435,4.435,0,1,1-.83-1.433Zm15.572-5.587-1.7-.981,0,0,0,0-.02-.014a.825.825,0,0,1-.069-.046l-.026-.023c-.019-.016-.038-.031-.055-.049s-.021-.024-.032-.036-.027-.029-.039-.045a.843.843,0,0,1-.06-.09h0a.842.842,0,0,1-.044-.089l-.009-.023c-.009-.024-.018-.048-.025-.073l-.007-.024a.823.823,0,0,1-.018-.091v-.005a.815.815,0,0,1-.007-.1s0,0,0-.007V36.822l-1.984,1.146v2.443l2.119,1.224Z"/>
    </g>
  </g>
</svg>
