<svg xmlns="http://www.w3.org/2000/svg" xmlns:xlink="http://www.w3.org/1999/xlink" width="111.776" height="111.776" viewBox="0 0 111.776 111.776">
  <defs>
    <filter id="Path_874925" x="0" y="0" width="111.776" height="111.776" filterUnits="userSpaceOnUse">
      <feOffset dy="3" input="SourceAlpha"/>
      <feGaussianBlur stdDeviation="3" result="blur"/>
      <feFlood flood-opacity="0.161"/>
      <feComposite operator="in" in2="blur"/>
      <feComposite in="SourceGraphic"/>
    </filter>
  </defs>
  <g id="Group_1207330" data-name="Group 1207330" transform="translate(-902.051 -3880)">
    <g id="Group_1206744" data-name="Group 1206744" transform="translate(106.051 2060.117)">
      <g id="Group_1204844" data-name="Group 1204844" transform="translate(520 -4424.991)">
        <g id="Group_1200232" data-name="Group 1200232" transform="translate(285 6250.874)">
          <g id="Group_1187153" data-name="Group 1187153">
            <g id="Group_1182177" data-name="Group 1182177">
              <g id="Group_1181903" data-name="Group 1181903">
                <g id="Group_1181438" data-name="Group 1181438">
                  <g id="Group_1111314" data-name="Group 1111314">
                    <g transform="matrix(1, 0, 0, 1, -9, -6)" filter="url(#Path_874925)">
                      <g id="Path_874925-2" data-name="Path 874925" transform="translate(9 6)" fill="#ffc94a">
                        <path d="M 46.88790893554688 92.2763671875 C 40.75992202758789 92.2763671875 34.8160285949707 91.07652282714844 29.22134971618652 88.71018218994141 C 23.81676292419434 86.42423248291016 18.96264266967773 83.15139007568359 14.79381561279297 78.98255157470703 C 10.62497520446777 74.81372833251953 7.35213565826416 69.95960998535156 5.066188812255859 64.55502319335938 C 2.699842214584351 58.9603385925293 1.500002264976501 53.01644515991211 1.500002264976501 46.88844680786133 C 1.500002264976501 40.75992584228516 2.699842214584351 34.81603240966797 5.066188812255859 29.22135353088379 C 7.35213565826416 23.8167667388916 10.62497520446777 18.962646484375 14.79381561279297 14.79381942749023 C 18.96264266967773 10.62497997283936 23.81676292419434 7.352139949798584 29.22134971618652 5.066193103790283 C 34.8160285949707 2.699846506118774 40.75992202758789 1.500006437301636 46.88790893554688 1.500006437301636 C 53.01589584350586 1.500006437301636 58.95978927612305 2.699846506118774 64.55446624755859 5.066193103790283 C 69.95905303955078 7.352139949798584 74.81317901611328 10.62497997283936 78.98200225830078 14.79381942749023 C 83.15084075927734 18.962646484375 86.42368316650391 23.8167667388916 88.70962524414062 29.22135353088379 C 91.07597351074219 34.81603240966797 92.27581787109375 40.75992584228516 92.27581787109375 46.88791275024414 C 92.27581787109375 53.01644515991211 91.07597351074219 58.9603385925293 88.70962524414062 64.55502319335938 C 86.42368316650391 69.95960998535156 83.15084075927734 74.81372833251953 78.98200225830078 78.98255157470703 C 74.81317901611328 83.15139007568359 69.95905303955078 86.42423248291016 64.55446624755859 88.71018218994141 C 58.95978927612305 91.07652282714844 53.01589584350586 92.2763671875 46.88790893554688 92.2763671875 Z" stroke="none"/>
                        <path d="M 46.88790893554688 2.999992370605469 C 40.96175003051758 2.999992370605469 35.2144660949707 4.159965515136719 29.80567932128906 6.44769287109375 C 24.57989501953125 8.658004760742188 19.88602447509766 11.82290649414062 15.85446929931641 15.85446929931641 C 11.82290649414062 19.88602447509766 8.658012390136719 24.57989501953125 6.44769287109375 29.80567932128906 C 4.159965515136719 35.2144660949707 2.999992370605469 40.96175003051758 2.999992370605469 46.88845062255859 C 2.999992370605469 52.81460952758789 4.159965515136719 58.56189346313477 6.44769287109375 63.97069549560547 C 8.658012390136719 69.19646453857422 11.82290649414062 73.89033508300781 15.85446929931641 77.92189025878906 C 19.88602447509766 81.95343780517578 24.57989501953125 85.11833953857422 29.80567932128906 87.32865142822266 C 35.2144660949707 89.61637878417969 40.96175003051758 90.77635192871094 46.88790893554688 90.77635192871094 C 52.81406784057617 90.77635192871094 58.56135177612305 89.61637878417969 63.97013854980469 87.32865142822266 C 69.1959228515625 85.11833953857422 73.88979339599609 81.95343780517578 77.92134857177734 77.92189025878906 C 81.95291137695312 73.89033508300781 85.11781311035156 69.19646453857422 87.328125 63.97069549560547 C 89.61585235595703 58.56189346313477 90.77582550048828 52.81460952758789 90.77582550048828 46.88790893554688 C 90.77582550048828 40.96175003051758 89.61585235595703 35.2144660949707 87.328125 29.80567932128906 C 85.11781311035156 24.57989501953125 81.95291137695312 19.88602447509766 77.92134857177734 15.85446929931641 C 73.88979339599609 11.82290649414062 69.1959228515625 8.658004760742188 63.97013854980469 6.44769287109375 C 58.56135177612305 4.159965515136719 52.81406784057617 2.999992370605469 46.88790893554688 2.999992370605469 M 46.88790893554688 -7.62939453125e-06 C 72.78337860107422 -7.62939453125e-06 93.77582550048828 20.99243927001953 93.77582550048828 46.88790893554688 L 93.77582550048828 46.88845062255859 C 93.77582550048828 72.783935546875 72.78337860107422 93.77635192871094 46.88790893554688 93.77635192871094 C 20.99243927001953 93.77635192871094 -7.62939453125e-06 72.783935546875 -7.62939453125e-06 46.88845062255859 L -7.62939453125e-06 46.88790893554688 C -7.62939453125e-06 20.99243927001953 20.99243927001953 -7.62939453125e-06 46.88790893554688 -7.62939453125e-06 Z" stroke="none" fill="#fff"/>
                      </g>
                    </g>
                  </g>
                </g>
              </g>
            </g>
          </g>
        </g>
      </g>
    </g>
    <g id="a-largo-plazo" transform="translate(926.051 3903.688)">
      <path id="Path_1271738" data-name="Path 1271738" d="M81.675,28.994A28.681,28.681,0,1,1,52.994.313,28.681,28.681,0,0,1,81.675,28.994Zm0,0" transform="translate(-20.944)" fill="#f0c48a"/>
      <path id="Path_1271739" data-name="Path 1271739" d="M106.954,59.117A23.836,23.836,0,1,1,83.117,35.281,23.837,23.837,0,0,1,106.954,59.117Zm0,0" transform="translate(-51.068 -30.124)" fill="#a4cff2"/>
      <path id="Path_1271740" data-name="Path 1271740" d="M236.3,42.271a23.785,23.785,0,0,0-18.764-6.9,23.835,23.835,0,0,1,0,47.518A23.836,23.836,0,0,0,236.3,42.271Zm0,0" transform="translate(-187.395 -30.132)" fill="#7babf1"/>
      <path id="Path_1271741" data-name="Path 1271741" d="M140.876,99.541a17.334,17.334,0,1,1-17.335-17.334A17.334,17.334,0,0,1,140.876,99.541Zm0,0" transform="translate(-91.492 -70.548)" fill="#d3e6f8"/>
      <path id="Path_1271742" data-name="Path 1271742" d="M177.587,143.293a10.3,10.3,0,1,1-10.3-10.3A10.3,10.3,0,0,1,177.587,143.293Zm0,0" transform="translate(-135.24 -114.299)" fill="#fff"/>
      <g id="Group_1207329" data-name="Group 1207329" transform="translate(7.382 4.326)">
        <path id="Path_1271743" data-name="Path 1271743" d="M77.949,78.617a24.668,24.668,0,1,1,17.443-7.225A24.507,24.507,0,0,1,77.949,78.617Zm0-47.673a23.005,23.005,0,1,0,16.267,6.738A22.854,22.854,0,0,0,77.949,30.944Zm0,0" transform="translate(-53.281 -29.281)" fill="#191919"/>
        <path id="Path_1271744" data-name="Path 1271744" d="M118.373,112.539a18.167,18.167,0,1,1,12.845-5.321A18.046,18.046,0,0,1,118.373,112.539Zm0-34.669a16.5,16.5,0,1,0,11.67,4.834A16.395,16.395,0,0,0,118.373,77.87Zm0,0" transform="translate(-93.705 -69.705)" fill="#191919"/>
        <path id="Path_1271745" data-name="Path 1271745" d="M162.121,149.253a11.128,11.128,0,1,1,7.87-3.259A11.054,11.054,0,0,1,162.121,149.253Zm0-20.595a9.466,9.466,0,1,0,6.694,2.772A9.4,9.4,0,0,0,162.121,128.659Zm0,0" transform="translate(-137.454 -113.457)" fill="#191919"/>
      </g>
      <path id="Path_1271746" data-name="Path 1271746" d="M68.438,80.559,60.3,81.674l-9.976,1.383,5.96,5.96L45.531,99.772l-6.555-6.555-14.17,14.17-6.058-6.058L6,111.489l3.344,4.2,9-7.172,6.462,6.462,14.17-14.17,6.555,6.556,14.55-14.55,5.861,5.86Zm0,0" transform="translate(-5.169 -69.127)" fill="#fd919e"/>
      <path id="Path_1271747" data-name="Path 1271747" d="M4.175,111.346a.775.775,0,0,1-.094-.005.831.831,0,0,1-.557-.308l-3.344-4.2a.831.831,0,0,1,.132-1.169L13.06,95.509a.832.832,0,0,1,1.106.062l5.47,5.47L33.218,87.46a.832.832,0,0,1,1.176,0l5.968,5.968,9.58-9.58L44.57,78.475a.831.831,0,0,1,.474-1.411l9.976-1.383,8.136-1.115a.831.831,0,0,1,.936.937l-2.5,18.112a.831.831,0,0,1-1.412.474l-5.272-5.272L40.949,102.779a.83.83,0,0,1-1.176,0l-5.968-5.967L20.224,110.393a.831.831,0,0,1-1.176,0l-5.937-5.937-8.418,6.709A.83.83,0,0,1,4.175,111.346ZM2,106.451l2.308,2.9,8.348-6.653a.832.832,0,0,1,1.106.062l5.875,5.875L33.218,95.048a.831.831,0,0,1,1.176,0l5.968,5.968L54.323,87.054a.83.83,0,0,1,1.176,0l4.677,4.677L62.3,76.362l-7.049.966-8.32,1.154,4.779,4.777a.832.832,0,0,1,0,1.176L40.949,95.191a.831.831,0,0,1-1.176,0l-5.968-5.968L20.224,102.805a.831.831,0,0,1-1.176,0l-5.533-5.533Zm0,0" transform="translate(0 -63.958)" fill="#1f1f1f"/>
    </g>
  </g>
</svg>
