<svg xmlns="http://www.w3.org/2000/svg" xmlns:xlink="http://www.w3.org/1999/xlink" width="111.776" height="111.776" viewBox="0 0 111.776 111.776">
  <defs>
    <filter id="Path_874925" x="0" y="0" width="111.776" height="111.776" filterUnits="userSpaceOnUse">
      <feOffset dy="3" input="SourceAlpha"/>
      <feGaussianBlur stdDeviation="3" result="blur"/>
      <feFlood flood-opacity="0.161"/>
      <feComposite operator="in" in2="blur"/>
      <feComposite in="SourceGraphic"/>
    </filter>
  </defs>
  <g id="Group_1207350" data-name="Group 1207350" transform="translate(-272.051 -5287)">
    <g id="Group_1206757" data-name="Group 1206757" transform="translate(-523.949 3467.117)">
      <g id="Group_1204844" data-name="Group 1204844" transform="translate(520 -4424.991)">
        <g id="Group_1200232" data-name="Group 1200232" transform="translate(285 6250.874)">
          <g id="Group_1187153" data-name="Group 1187153">
            <g id="Group_1182177" data-name="Group 1182177">
              <g id="Group_1181903" data-name="Group 1181903">
                <g id="Group_1181438" data-name="Group 1181438">
                  <g id="Group_1111314" data-name="Group 1111314">
                    <g transform="matrix(1, 0, 0, 1, -9, -6)" filter="url(#Path_874925)">
                      <g id="Path_874925-2" data-name="Path 874925" transform="translate(9 6)" fill="#ffc94a">
                        <path d="M 46.88790893554688 92.2763671875 C 40.75992202758789 92.2763671875 34.8160285949707 91.07652282714844 29.22134971618652 88.71018218994141 C 23.81676292419434 86.42423248291016 18.96264266967773 83.15139007568359 14.79381561279297 78.98255157470703 C 10.62497520446777 74.81372833251953 7.35213565826416 69.95960998535156 5.066188812255859 64.55502319335938 C 2.699842214584351 58.9603385925293 1.500002264976501 53.01644515991211 1.500002264976501 46.88844680786133 C 1.500002264976501 40.75992584228516 2.699842214584351 34.81603240966797 5.066188812255859 29.22135353088379 C 7.35213565826416 23.8167667388916 10.62497520446777 18.962646484375 14.79381561279297 14.79381942749023 C 18.96264266967773 10.62497997283936 23.81676292419434 7.352139949798584 29.22134971618652 5.066193103790283 C 34.8160285949707 2.699846506118774 40.75992202758789 1.500006437301636 46.88790893554688 1.500006437301636 C 53.01589584350586 1.500006437301636 58.95978927612305 2.699846506118774 64.55446624755859 5.066193103790283 C 69.95905303955078 7.352139949798584 74.81317901611328 10.62497997283936 78.98200225830078 14.79381942749023 C 83.15084075927734 18.962646484375 86.42368316650391 23.8167667388916 88.70962524414062 29.22135353088379 C 91.07597351074219 34.81603240966797 92.27581787109375 40.75992584228516 92.27581787109375 46.88791275024414 C 92.27581787109375 53.01644515991211 91.07597351074219 58.9603385925293 88.70962524414062 64.55502319335938 C 86.42368316650391 69.95960998535156 83.15084075927734 74.81372833251953 78.98200225830078 78.98255157470703 C 74.81317901611328 83.15139007568359 69.95905303955078 86.42423248291016 64.55446624755859 88.71018218994141 C 58.95978927612305 91.07652282714844 53.01589584350586 92.2763671875 46.88790893554688 92.2763671875 Z" stroke="none"/>
                        <path d="M 46.88790893554688 2.999992370605469 C 40.96175003051758 2.999992370605469 35.2144660949707 4.159965515136719 29.80567932128906 6.44769287109375 C 24.57989501953125 8.658004760742188 19.88602447509766 11.82290649414062 15.85446929931641 15.85446929931641 C 11.82290649414062 19.88602447509766 8.658012390136719 24.57989501953125 6.44769287109375 29.80567932128906 C 4.159965515136719 35.2144660949707 2.999992370605469 40.96175003051758 2.999992370605469 46.88845062255859 C 2.999992370605469 52.81460952758789 4.159965515136719 58.56189346313477 6.44769287109375 63.97069549560547 C 8.658012390136719 69.19646453857422 11.82290649414062 73.89033508300781 15.85446929931641 77.92189025878906 C 19.88602447509766 81.95343780517578 24.57989501953125 85.11833953857422 29.80567932128906 87.32865142822266 C 35.2144660949707 89.61637878417969 40.96175003051758 90.77635192871094 46.88790893554688 90.77635192871094 C 52.81406784057617 90.77635192871094 58.56135177612305 89.61637878417969 63.97013854980469 87.32865142822266 C 69.1959228515625 85.11833953857422 73.88979339599609 81.95343780517578 77.92134857177734 77.92189025878906 C 81.95291137695312 73.89033508300781 85.11781311035156 69.19646453857422 87.328125 63.97069549560547 C 89.61585235595703 58.56189346313477 90.77582550048828 52.81460952758789 90.77582550048828 46.88790893554688 C 90.77582550048828 40.96175003051758 89.61585235595703 35.2144660949707 87.328125 29.80567932128906 C 85.11781311035156 24.57989501953125 81.95291137695312 19.88602447509766 77.92134857177734 15.85446929931641 C 73.88979339599609 11.82290649414062 69.1959228515625 8.658004760742188 63.97013854980469 6.44769287109375 C 58.56135177612305 4.159965515136719 52.81406784057617 2.999992370605469 46.88790893554688 2.999992370605469 M 46.88790893554688 -7.62939453125e-06 C 72.78337860107422 -7.62939453125e-06 93.77582550048828 20.99243927001953 93.77582550048828 46.88790893554688 L 93.77582550048828 46.88845062255859 C 93.77582550048828 72.783935546875 72.78337860107422 93.77635192871094 46.88790893554688 93.77635192871094 C 20.99243927001953 93.77635192871094 -7.62939453125e-06 72.783935546875 -7.62939453125e-06 46.88845062255859 L -7.62939453125e-06 46.88790893554688 C -7.62939453125e-06 20.99243927001953 20.99243927001953 -7.62939453125e-06 46.88790893554688 -7.62939453125e-06 Z" stroke="none" fill="#fff"/>
                      </g>
                    </g>
                  </g>
                </g>
              </g>
            </g>
          </g>
        </g>
      </g>
    </g>
    <g id="analizando" transform="translate(298.554 5311)">
      <rect id="Rectangle_412287" data-name="Rectangle 412287" width="8.917" height="21.055" transform="translate(1.337 15.527)" fill="#99e6fc"/>
      <rect id="Rectangle_412288" data-name="Rectangle 412288" width="8.92" height="25.2" transform="translate(14.043 11.382)" fill="#ffd15b"/>
      <rect id="Rectangle_412289" data-name="Rectangle 412289" width="8.92" height="35.742" transform="translate(26.751 0.84)" fill="#9be69d"/>
      <rect id="Rectangle_412290" data-name="Rectangle 412290" width="8.92" height="27.33" transform="translate(39.852 9.252)" fill="#fd4755"/>
      <rect id="Rectangle_412291" data-name="Rectangle 412291" width="2.288" height="21.055" transform="translate(7.965 15.527)" fill="#62dbfb"/>
      <rect id="Rectangle_412292" data-name="Rectangle 412292" width="2.291" height="25.2" transform="translate(20.671 11.382)" fill="#ffc344"/>
      <path id="Path_1271924" data-name="Path 1271924" d="M294.064,7.5V33.653a9.248,9.248,0,0,1,2.292-3.5V7.5Z" transform="translate(-260.685 -6.66)" fill="#6fd7a3" fill-rule="evenodd"/>
      <path id="Path_1271925" data-name="Path 1271925" d="M411.026,82.6V95.28a9.3,9.3,0,0,1,2.292,1.675V82.6Z" transform="translate(-364.546 -73.346)" fill="#e94444" fill-rule="evenodd"/>
      <path id="Trazado_1271926" data-name="Trazado 1271926" d="M10.254,153.854H1.337a.84.84,0,0,1-.84-.84v-8.169a.84.84,0,1,1,1.68,0v7.329H9.414V132.8H2.177v8.1a.84.84,0,1,1-1.68,0v-8.935a.84.84,0,0,1,.84-.84h8.917a.84.84,0,0,1,.84.84v21.055A.84.84,0,0,1,10.254,153.854Z" transform="translate(0 -116.432)"/>
      <path id="Rectángulo_412293" data-name="Rectángulo 412293" d="M-6.66-7.5H2.26a.84.84,0,0,1,.84.84v25.2a.84.84,0,0,1-.84.84H-6.66a.84.84,0,0,1-.84-.84V-6.66A.84.84,0,0,1-6.66-7.5ZM1.42-5.82H-5.82V17.7H1.42Z" transform="translate(20.702 18.042)"/>
      <path id="Línea_256" data-name="Línea 256" d="M-2.466-5.82H-6.66a.84.84,0,0,1-.84-.84.84.84,0,0,1,.84-.84h4.194a.84.84,0,0,1,.84.84A.84.84,0,0,1-2.466-5.82Z" transform="translate(19.986 49.391)"/>
      <path id="Línea_257" data-name="Línea 257" d="M-2.466-5.82H-6.66a.84.84,0,0,1-.84-.84.84.84,0,0,1,.84-.84h4.194a.84.84,0,0,1,.84.84A.84.84,0,0,1-2.466-5.82Z" transform="translate(19.986 52.633)"/>
      <path id="Path_1271927" data-name="Path 1271927" d="M38.005,373.606v4.067a.485.485,0,0,0,.486.485h4.081a.487.487,0,0,0,.486-.485v-4.067a.487.487,0,0,0-.486-.485H38.491a.485.485,0,0,0-.486.485Z" transform="translate(-33.307 -331.328)" fill="#6fd7a3" fill-rule="evenodd"/>
      <path id="Trazado_1271928" data-name="Trazado 1271928" d="M31.831,365.621h4.081a1.327,1.327,0,0,1,1.326,1.325v4.067a1.327,1.327,0,0,1-1.326,1.325H31.831a1.327,1.327,0,0,1-1.326-1.325v-4.067A1.327,1.327,0,0,1,31.831,365.621Zm3.727,1.68H32.185v3.356h3.373Z" transform="translate(-26.647 -324.668)"/>
      <path id="Línea_258" data-name="Línea 258" d="M-2.466-5.82H-6.66a.84.84,0,0,1-.84-.84.84.84,0,0,1,.84-.84h4.194a.84.84,0,0,1,.84.84A.84.84,0,0,1-2.466-5.82Z" transform="translate(19.986 59.069)"/>
      <path id="Línea_259" data-name="Línea 259" d="M-2.466-5.82H-6.66a.84.84,0,0,1-.84-.84.84.84,0,0,1,.84-.84h4.194a.84.84,0,0,1,.84.84A.84.84,0,0,1-2.466-5.82Z" transform="translate(19.986 62.312)"/>
      <path id="Path_1271929" data-name="Path 1271929" d="M38.005,460.019v4.067a.485.485,0,0,0,.486.485h4.081a.487.487,0,0,0,.486-.485v-4.067a.487.487,0,0,0-.486-.485H38.491a.485.485,0,0,0-.486.485Z" transform="translate(-33.307 -408.062)" fill="#99e6fc" fill-rule="evenodd"/>
      <path id="Línea_260" data-name="Línea 260" d="M-2.466-5.82H-6.66a.84.84,0,0,1-.84-.84.84.84,0,0,1,.84-.84h4.194a.84.84,0,0,1,.84.84A.84.84,0,0,1-2.466-5.82Z" transform="translate(40.535 49.391)"/>
      <path id="Línea_261" data-name="Línea 261" d="M-2.466-5.82H-6.66a.84.84,0,0,1-.84-.84.84.84,0,0,1,.84-.84h4.194a.84.84,0,0,1,.84.84A.84.84,0,0,1-2.466-5.82Z" transform="translate(40.535 52.633)"/>
      <path id="Path_1271930" data-name="Path 1271930" d="M221.462,373.606v4.067a.487.487,0,0,0,.486.485h4.081a.487.487,0,0,0,.486-.485v-4.067a.487.487,0,0,0-.486-.485h-4.081a.487.487,0,0,0-.486.485Z" transform="translate(-196.215 -331.328)" fill="#fd4755" fill-rule="evenodd"/>
      <path id="Línea_262" data-name="Línea 262" d="M-2.466-5.82H-6.66a.84.84,0,0,1-.84-.84.84.84,0,0,1,.84-.84h4.194a.84.84,0,0,1,.84.84A.84.84,0,0,1-2.466-5.82Z" transform="translate(40.535 59.069)"/>
      <path id="Línea_263" data-name="Línea 263" d="M-2.466-5.82H-6.66a.84.84,0,0,1-.84-.84.84.84,0,0,1,.84-.84h4.194a.84.84,0,0,1,.84.84A.84.84,0,0,1-2.466-5.82Z" transform="translate(40.535 62.312)"/>
      <path id="Path_1271931" data-name="Path 1271931" d="M221.462,460.019v4.067a.487.487,0,0,0,.486.485h4.081a.487.487,0,0,0,.486-.485v-4.067a.487.487,0,0,0-.486-.485h-4.081a.487.487,0,0,0-.486.485Z" transform="translate(-196.215 -408.062)" fill="#ffd15b" fill-rule="evenodd"/>
      <path id="Path_1271932" data-name="Path 1271932" d="M292.737,188.24a9.338,9.338,0,1,1-1.964,13.048,9.369,9.369,0,0,1,1.964-13.048Z" transform="translate(-256.136 -165.533)" fill="#3c87d0" fill-rule="evenodd"/>
      <path id="Path_1271933" data-name="Path 1271933" d="M431.646,356.824a2.784,2.784,0,0,0-.587,3.889l2.661,3.592a2.786,2.786,0,0,0,4.486-3.3l-2.661-3.592a2.8,2.8,0,0,0-3.9-.585Z" transform="translate(-381.854 -316.376)" fill="#d77f4a" fill-rule="evenodd"/>
      <path id="Path_1271934" data-name="Path 1271934" d="M437.643,358.535l2.661,3.592a2.791,2.791,0,0,1,.091,3.175,2.84,2.84,0,0,0,.807-.411,2.787,2.787,0,0,0,.587-3.889l-2.661-3.592a2.8,2.8,0,0,0-3.9-.585,2.828,2.828,0,0,0-.677.715,2.8,2.8,0,0,1,3.092,1Z" transform="translate(-385.436 -316.376)" fill="#c86d36" fill-rule="evenodd"/>
      <path id="Path_1271935" data-name="Path 1271935" d="M323.933,220.122a5.685,5.685,0,1,1-1.2,7.943,5.707,5.707,0,0,1,1.2-7.943Z" transform="translate(-285.157 -194.48)" fill="#99e6fc" fill-rule="evenodd"/>
      <path id="Path_1271936" data-name="Path 1271936" d="M354.005,223.987a5.66,5.66,0,0,1-2.311,4.578l-.091.068a5.668,5.668,0,0,1-3.283,1.044,5.7,5.7,0,0,0,6.087-.43c.156-.116.3-.236.444-.365A5.678,5.678,0,0,0,351.017,219a5.679,5.679,0,0,1,2.988,4.988Z" transform="translate(-308.864 -194.469)" fill="#62dbfb" fill-rule="evenodd"/>
      <path id="Path_1271937" data-name="Path 1271937" d="M355.863,189.8a9.317,9.317,0,0,1-1.118,12.343,10.027,10.027,0,0,1-.849.7,9.319,9.319,0,0,1-5.6,1.827,9.425,9.425,0,0,0,2.541.394,9.323,9.323,0,0,0,5.7-1.807.143.143,0,0,0,.023-.016,9.328,9.328,0,0,0-5.513-16.833,9.3,9.3,0,0,1,4.82,3.388Z" transform="translate(-308.839 -165.534)" fill="#4f66d0" fill-rule="evenodd"/>
      <path id="Trazado_1271938" data-name="Trazado 1271938" d="M320.645,211.511a6.573,6.573,0,0,1,5.259,2.643,6.52,6.52,0,0,1-5.25,10.394,6.572,6.572,0,0,1-5.259-2.643,6.52,6.52,0,0,1,5.25-10.394Zm.009,11.357a4.841,4.841,0,1,0-3.909-1.963A4.831,4.831,0,0,0,320.654,222.869Z" transform="translate(-278.49 -187.82)"/>
      <path id="Trazado_1271939" data-name="Trazado 1271939" d="M426.633,348.783a3.646,3.646,0,0,1,2.923,1.467l2.661,3.591a3.617,3.617,0,0,1-2.912,5.77,3.651,3.651,0,0,1-2.924-1.465l-2.661-3.592a3.619,3.619,0,0,1,2.914-5.77Zm2.671,9.147a1.941,1.941,0,0,0,1.562-3.089l-2.661-3.592a1.959,1.959,0,0,0-1.572-.786,1.94,1.94,0,0,0-1.564,3.09l2.661,3.592A1.964,1.964,0,0,0,429.3,357.931Z" transform="translate(-375.189 -309.716)"/>
      <path id="Línea_264" data-name="Línea 264" d="M-4.615-3.063A.839.839,0,0,1-5.29-3.4L-7.335-6.16a.84.84,0,0,1,.174-1.175.84.84,0,0,1,1.175.174L-3.94-4.4a.84.84,0,0,1-.174,1.175A.836.836,0,0,1-4.615-3.063Z" transform="translate(54.356 44.39)"/>
      <path id="Trazado_1271940" data-name="Trazado 1271940" d="M291.617,178.913a10.247,10.247,0,0,1,8.2,4.126,10.172,10.172,0,0,1-8.189,16.213,10.253,10.253,0,0,1-8.206-4.125,10.173,10.173,0,0,1,8.191-16.214Zm.015,18.659a8.485,8.485,0,0,0,6.839-13.533,8.56,8.56,0,0,0-6.854-3.446,8.486,8.486,0,0,0-6.841,13.534A8.566,8.566,0,0,0,291.632,197.572Z" transform="translate(-249.464 -158.873)"/>
      <path id="Trazado_1271941" data-name="Trazado 1271941" d="M228.229,37.422a.84.84,0,0,1-.84-.84V20.544a.84.84,0,1,1,1.68,0V36.582A.84.84,0,0,1,228.229,37.422Zm8.92-13.09a.84.84,0,0,1-.84-.84V1.68h-7.239V16.593a.84.84,0,1,1-1.68,0V.84a.84.84,0,0,1,.84-.84h8.92a.84.84,0,0,1,.84.84V23.492A.84.84,0,0,1,237.149,24.332Z" transform="translate(-201.478)"/>
      <path id="Trazado_1271942" data-name="Trazado 1271942" d="M354.111,91.135a.84.84,0,0,1-.84-.84V76.778h-7.24V87.854a.84.84,0,1,1-1.68,0V75.938a.84.84,0,0,1,.84-.84h8.92a.84.84,0,0,1,.84.84V90.295A.84.84,0,0,1,354.111,91.135Z" transform="translate(-305.339 -66.686)"/>
      <path id="Trazado_1271943" data-name="Trazado 1271943" d="M31.831,452.033h4.081a1.327,1.327,0,0,1,1.326,1.325v4.067a1.327,1.327,0,0,1-1.326,1.325H31.831a1.327,1.327,0,0,1-1.326-1.325v-4.067A1.327,1.327,0,0,1,31.831,452.033Zm3.727,1.68H32.185v3.356h3.373Z" transform="translate(-26.647 -401.401)"/>
      <path id="Trazado_1271944" data-name="Trazado 1271944" d="M215.289,365.621h4.081a1.327,1.327,0,0,1,1.326,1.325v4.067a1.327,1.327,0,0,1-1.326,1.325h-4.081a1.327,1.327,0,0,1-1.326-1.325v-4.067a1.327,1.327,0,0,1,1.326-1.325Zm3.727,1.68h-3.373v3.356h3.373Z" transform="translate(-189.556 -324.668)"/>
      <path id="Trazado_1271945" data-name="Trazado 1271945" d="M215.289,452.033h4.081a1.327,1.327,0,0,1,1.326,1.325v4.067a1.327,1.327,0,0,1-1.326,1.325h-4.081a1.327,1.327,0,0,1-1.326-1.325v-4.067a1.327,1.327,0,0,1,1.326-1.325Zm3.727,1.68h-3.373v3.356h3.373Z" transform="translate(-189.556 -401.401)"/>
    </g>
  </g>
</svg>
