<svg xmlns="http://www.w3.org/2000/svg" width="129.063" height="59.73" viewBox="0 0 129.063 59.73">
  <g id="Group_1207349" data-name="Group 1207349" transform="translate(-3860 6973.704)">
    <g id="Group_1206755" data-name="Group 1206755" transform="translate(2796.161 -12443.956)">
      <g id="Group_1205224" data-name="Group 1205224" transform="translate(276.058 2903.871)">
        <g id="Rectangle_410589" data-name="Rectangle 410589" transform="translate(787.781 2575.623)" fill="#ffc94a" stroke="#dfab32" stroke-width="1">
          <rect width="129.063" height="43.021" rx="8" stroke="none"/>
          <rect x="0.5" y="0.5" width="128.063" height="42.021" rx="7.5" fill="none"/>
        </g>
      </g>
    </g>
    <g id="ahorro" transform="translate(3823.814 -6973.704)">
      <circle id="Ellipse_13028" data-name="Ellipse 13028" cx="19.636" cy="19.636" r="19.636" transform="translate(81.061 19.584)" fill="#f6e266"/>
      <path id="Path_1271913" data-name="Path 1271913" d="M245.052,167.87q-.729,0-1.446.053a19.636,19.636,0,0,1,0,39.165q.716.052,1.446.053a19.636,19.636,0,1,0,0-39.271Z" transform="translate(-144.355 -148.286)" fill="#ecbe6b"/>
      <path id="Path_1271914" data-name="Path 1271914" d="M211.91,16.628,205.2,23.265l-6.709-6.637h2.956a.7.7,0,0,0,.7-.7V7.5h6.107v8.429a.7.7,0,0,0,.7.7h2.956Z" transform="translate(-104.504 -6.625)" fill="#dd636e"/>
      <g id="Group_1207347" data-name="Group 1207347" transform="translate(99.486 0.875)">
        <path id="Path_1271915" data-name="Path 1271915" d="M261.414,15.929V7.5h2.422v8.429a.7.7,0,0,0,.7.7h-2.422A.7.7,0,0,1,261.414,15.929Z" transform="translate(-259.572 -7.5)" fill="#c63d4f"/>
        <path id="Path_1271916" data-name="Path 1271916" d="M246.832,92.383l-1.211-1.2,5.5-5.439h2.422Z" transform="translate(-245.621 -76.618)" fill="#c63d4f"/>
      </g>
      <g id="Group_1207348" data-name="Group 1207348" transform="translate(80.186 0)">
        <path id="Path_1271917" data-name="Path 1271917" d="M139.855,235.38a15.339,15.339,0,1,0-15.339-15.339A15.356,15.356,0,0,0,139.855,235.38Zm0-28.928a13.589,13.589,0,1,1-13.589,13.589A13.6,13.6,0,0,1,139.855,206.452Z" transform="translate(-119.344 -180.821)"/>
        <path id="Path_1271918" data-name="Path 1271918" d="M218.664,272.41a5.51,5.51,0,0,0,3.048,1.055v1.044a.875.875,0,0,0,1.75,0V273.4a4.472,4.472,0,0,0,3.549-3.676,3.923,3.923,0,0,0-2.7-4.489c-.278-.1-.563-.2-.848-.31v-4.51a5.011,5.011,0,0,1,1.825.592.875.875,0,0,0,.93-1.482,6.685,6.685,0,0,0-2.755-.87v-.9a.875.875,0,1,0-1.75,0v1c-.149.032-.3.07-.452.116a3.711,3.711,0,0,0-2.541,2.912A3.262,3.262,0,0,0,219.785,265a8.924,8.924,0,0,0,1.928,1.1v5.616a3.819,3.819,0,0,1-2.09-.768.875.875,0,0,0-.958,1.464Zm2.2-8.79a1.535,1.535,0,0,1-.426-1.513,1.989,1.989,0,0,1,1.274-1.542v3.59A5.755,5.755,0,0,1,220.865,263.619Zm2.862,3.262a2.2,2.2,0,0,1,1.559,2.549,2.757,2.757,0,0,1-1.823,2.159v-4.8Z" transform="translate(-202.159 -226.912)"/>
        <path id="Path_1271919" data-name="Path 1271919" d="M315.4,95.7a.875.875,0,0,0,.137,1.23l2.52,2.013a.875.875,0,0,0,1.092,0l2.52-2.013a.875.875,0,0,0-1.092-1.367l-1.1.878V90.875a.875.875,0,0,0-1.75,0v5.564l-1.1-.878A.875.875,0,0,0,315.4,95.7Z" transform="translate(-287.794 -79.501)"/>
        <path id="Path_1271920" data-name="Path 1271920" d="M138.922,96.929l2.52,2.013a.875.875,0,0,0,1.092,0l2.52-2.013a.875.875,0,0,0-1.092-1.367l-1.1.878V90.875a.875.875,0,1,0-1.75,0v5.564l-1.1-.878a.875.875,0,0,0-1.093,1.367Z" transform="translate(-131.779 -79.501)"/>
        <path id="Path_1271921" data-name="Path 1271921" d="M100.7,160.37a20.51,20.51,0,0,0-14.93,34.572.875.875,0,1,0,1.274-1.2,18.738,18.738,0,1,1,2.5,2.225.875.875,0,1,0-1.042,1.406,20.511,20.511,0,1,0,12.194-37Z" transform="translate(-80.186 -141.661)"/>
        <path id="Path_1271922" data-name="Path 1271922" d="M229.649,13.82a.875.875,0,0,0,.007,1.237l2.229,2.2a.875.875,0,0,0,1.231,0l6.709-6.637a.875.875,0,0,0-.615-1.5h-2.781V.875a.875.875,0,0,0-1.75,0V9.3a1.576,1.576,0,0,0,1.574,1.574h.828L232.5,15.41l-1.613-1.6a.875.875,0,0,0-1.237.007Z" transform="translate(-211.989 0)"/>
        <path id="Path_1271923" data-name="Path 1271923" d="M193.244,12.6a.875.875,0,0,0,1.231-1.244l-.48-.475h.828A1.576,1.576,0,0,0,196.4,9.3V.875a.875.875,0,0,0-1.75,0V9.128h-2.781a.875.875,0,0,0-.615,1.5Z" transform="translate(-178.065 0)"/>
      </g>
    </g>
  </g>
</svg>
