<svg xmlns="http://www.w3.org/2000/svg" width="129.063" height="64.612" viewBox="0 0 129.063 64.612">
  <g id="Group_1207346" data-name="Group 1207346" transform="translate(-3521 6974.721)">
    <g id="Group_1206754" data-name="Group 1206754" transform="translate(2457.161 -12443.956)">
      <g id="Group_1205224" data-name="Group 1205224" transform="translate(276.058 2903.871)">
        <g id="Rectangle_410589" data-name="Rectangle 410589" transform="translate(787.781 2575.623)" fill="#ffc94a" stroke="#dfab32" stroke-width="1">
          <rect width="129.063" height="43.021" rx="8" stroke="none"/>
          <rect x="0.5" y="0.5" width="128.063" height="42.021" rx="7.5" fill="none"/>
        </g>
      </g>
    </g>
    <g id="marketing-directo" transform="translate(3544.007 -6993.713)">
      <g id="Group_1207345" data-name="Group 1207345" transform="translate(9.085 20.083)">
        <g id="Group_1207341" data-name="Group 1207341" transform="translate(28.386 0)">
          <circle id="Ellipse_13026" data-name="Ellipse 13026" cx="11.973" cy="11.973" r="11.973" transform="translate(0 0)" fill="#ffe177"/>
          <path id="Path_1271895" data-name="Path 1271895" d="M306.978,26.993a11.973,11.973,0,0,1,0,23.947c-.271,0-.54-.01-.807-.028a11.973,11.973,0,0,0,0-23.891c.267-.018.535-.028.807-.028Z" transform="translate(-295.004 -26.993)" fill="#ffd064" fill-rule="evenodd"/>
          <circle id="Ellipse_13027" data-name="Ellipse 13027" cx="9.143" cy="9.143" r="9.143" transform="matrix(0.987, -0.16, 0.16, 0.987, 1.48, 4.418)" fill="#ffc338"/>
          <path id="Path_1271896" data-name="Path 1271896" d="M254.156,47.756a9.143,9.143,0,0,0,0,18.286q.372,0,.737-.03a9.143,9.143,0,0,1,0-18.227C254.65,47.766,254.4,47.756,254.156,47.756Z" transform="translate(-242.183 -44.926)" fill="#f5b829" fill-rule="evenodd"/>
        </g>
        <g id="Group_1207342" data-name="Group 1207342" transform="translate(19.827 14.033)">
          <path id="Path_1271897" data-name="Path 1271897" d="M203.19,136.386l-8.907-5.161c-1.672-.969-3.371-1.655-5.209-1.059a62.647,62.647,0,0,1-8.805,2.706,2.474,2.474,0,0,0-1.711,2.964,2.4,2.4,0,0,0,2.964,1.712l-1.193.191a5.553,5.553,0,0,1-3.818-.665l-8.564-4.988c-6.657-3.877-7.635,2.088-5.421,3.45l15.541,9.57a5.7,5.7,0,0,0,4.615.651l11.273-3.021,4.175,2.41a1.686,1.686,0,0,0,2.3-.616l3.376-5.847A1.686,1.686,0,0,0,203.19,136.386Z" transform="translate(-161.461 -129.944)" fill="#f6dccd" fill-rule="evenodd"/>
          <path id="Path_1271898" data-name="Path 1271898" d="M288.371,163.615a2.444,2.444,0,0,0,2.761,1.178c1.847-.488,3.691-.989,5.536-1.483a.926.926,0,1,0-.479-1.79Z" transform="translate(-271.072 -157.189)" fill="#f1cbbc" fill-rule="evenodd"/>
          <path id="Path_1271899" data-name="Path 1271899" d="M351.454,136.386l-8.907-5.161c-1.672-.969-3.371-1.655-5.209-1.059-1.1.355-2.563.929-4.213,1.48l17.255,9.962,1.688-2.925A1.686,1.686,0,0,0,351.454,136.386Z" transform="translate(-309.726 -129.944)" fill="#f1cbbc" fill-rule="evenodd"/>
          <path id="Path_1271900" data-name="Path 1271900" d="M415.288,152.538l-7.064,12.482a1.265,1.265,0,0,0,.476,1.718l2.4,1.36a1.265,1.265,0,0,0,1.718-.476l7.064-12.482a1.264,1.264,0,0,0-.476-1.718l-2.4-1.36A1.265,1.265,0,0,0,415.288,152.538Z" transform="translate(-374.447 -148.906)" fill="#d1d1d6" fill-rule="evenodd"/>
          <path id="Path_1271901" data-name="Path 1271901" d="M411.573,161.115l-1.25,2.209-1.237,2.185a1.265,1.265,0,0,0,.473,1.716l-.858-.486a1.265,1.265,0,0,1-.476-1.718l1.241-2.192,2.491-4.4,2.494-4.406.839-1.482a1.266,1.266,0,0,1,1.469-.584l-1.452,2.566-2.491,4.4-1.241,2.192Z" transform="translate(-374.447 -148.907)" fill="#b1b1b5" fill-rule="evenodd"/>
        </g>
        <g id="Group_1207343" data-name="Group 1207343" transform="translate(16.68 27.888)">
          <path id="Path_1271902" data-name="Path 1271902" d="M148.29,231.7l8.675,5.008a.811.811,0,0,1,.415.719V247.45a.811.811,0,0,1-.415.719l-8.675,5.008a.811.811,0,0,1-.831,0l-8.675-5.008a.811.811,0,0,1-.415-.719V237.433a.811.811,0,0,1,.415-.719l8.675-5.008A.811.811,0,0,1,148.29,231.7Z" transform="translate(-138.369 -231.591)" fill="#f2d1a5" fill-rule="evenodd"/>
          <path id="Path_1271903" data-name="Path 1271903" d="M165.259,290.778l-1.718-.992a.811.811,0,0,1-.415-.719v-3.843l2.757,1.592v3.6a.415.415,0,0,1-.623.36Z" transform="translate(-159.751 -277.913)" fill="#e3a76f" fill-rule="evenodd"/>
          <path id="Path_1271904" data-name="Path 1271904" d="M148.977,231.7l8.675,5.008a.826.826,0,0,1,.307.3l-9.4,5.425-9.4-5.425a.826.826,0,0,1,.307-.3l8.675-5.008A.812.812,0,0,1,148.977,231.7Z" transform="translate(-139.056 -231.591)" fill="#e3a76f" fill-rule="evenodd"/>
          <path id="Path_1271905" data-name="Path 1271905" d="M163.125,250.451l2.757,1.592,9.505-5.488-2.757-1.591Z" transform="translate(-159.751 -243.14)" fill="#c48958" fill-rule="evenodd"/>
          <path id="Path_1271906" data-name="Path 1271906" d="M217.5,271.392a.827.827,0,0,1,.109.417v10.017a.811.811,0,0,1-.415.719l-8.675,5.008a.828.828,0,0,1-.415.114V276.817Z" transform="translate(-198.599 -265.967)" fill="#ecba78" fill-rule="evenodd"/>
        </g>
        <g id="Group_1207344" data-name="Group 1207344" transform="translate(0 43.077)">
          <path id="Path_1271907" data-name="Path 1271907" d="M39.092,349.46,48,344.3c1.672-.968,3.372-1.655,5.209-1.059a62.632,62.632,0,0,0,8.805,2.706,2.474,2.474,0,0,1,1.711,2.964,2.4,2.4,0,0,1-2.964,1.712l1.193.191a5.553,5.553,0,0,0,3.818-.665l8.564-4.988c6.657-3.877,7.635,2.088,5.421,3.45l-15.541,9.57a5.7,5.7,0,0,1-4.615.651l-11.273-3.02-4.175,2.41a1.686,1.686,0,0,1-2.3-.616l-3.376-5.847A1.686,1.686,0,0,1,39.092,349.46Z" transform="translate(-35.22 -343.018)" fill="#f6dccd" fill-rule="evenodd"/>
          <path id="Path_1271908" data-name="Path 1271908" d="M166.706,376.688a2.444,2.444,0,0,1-2.761,1.178c-1.847-.488-3.691-.989-5.536-1.483a.926.926,0,1,1,.479-1.79Z" transform="translate(-138.404 -370.262)" fill="#f1cbbc" fill-rule="evenodd"/>
          <path id="Path_1271909" data-name="Path 1271909" d="M39.092,349.46,48,344.3c1.672-.968,3.372-1.655,5.209-1.059,1.1.355,2.563.929,4.213,1.48l-17.255,9.962-1.688-2.925A1.686,1.686,0,0,1,39.092,349.46Z" transform="translate(-35.22 -343.018)" fill="#f1cbbc" fill-rule="evenodd"/>
          <path id="Path_1271910" data-name="Path 1271910" d="M20.761,365.612l7.064,12.482a1.265,1.265,0,0,1-.476,1.718l-2.4,1.36a1.265,1.265,0,0,1-1.718-.476l-7.064-12.482a1.265,1.265,0,0,1,.476-1.718l2.4-1.36a1.264,1.264,0,0,1,1.718.476Z" transform="translate(-16.001 -361.98)" fill="#d1d1d6" fill-rule="evenodd"/>
          <path id="Path_1271911" data-name="Path 1271911" d="M45.33,374.187l1.25,2.209,1.236,2.185a1.265,1.265,0,0,1-.473,1.716l.858-.486a1.265,1.265,0,0,0,.476-1.718L47.438,375.9l-2.491-4.4-2.494-4.406-.839-1.482a1.266,1.266,0,0,0-1.469-.584l1.452,2.566,2.491,4.4,1.241,2.192Z" transform="translate(-36.855 -361.98)" fill="#b1b1b5" fill-rule="evenodd"/>
        </g>
      </g>
      <path id="Path_1271912" data-name="Path 1271912" d="M17.687,32.056a1.093,1.093,0,0,1,.417-.86l3.009-2.349a1.09,1.09,0,1,1,1.341,1.719l-.507.4H33.38a1.09,1.09,0,1,1,0,2.181H21.947l.507.4a1.09,1.09,0,1,1-1.341,1.719L18.1,32.915a1.094,1.094,0,0,1-.417-.859ZM64.561,58.821a1.081,1.081,0,0,1-.424.86l-3,2.348a1.092,1.092,0,0,1-1.347-1.719l.513-.4H48.862a1.09,1.09,0,1,1,0-2.181H60.3l-.513-.4a1.092,1.092,0,0,1,1.347-1.719l3,2.349A1.081,1.081,0,0,1,64.561,58.821ZM72.1,40.59a.859.859,0,1,1-.725-.973A.862.862,0,0,1,72.1,40.59Zm1.3-.779a.177.177,0,0,0-.064-.233l-2.406-1.36a.155.155,0,0,0-.077-.021.187.187,0,0,0-.051.007.159.159,0,0,0-.1.078h0L63.637,50.766A.171.171,0,0,0,63.7,51l2.4,1.36a.181.181,0,0,0,.237-.065ZM61.956,45.969l1.424.822,3.914-6.914-6.1-3.533c-1.867-1.079-3.118-1.359-4.331-.966-.513.168-1.11.383-1.8.634A44.759,44.759,0,0,1,48,38.106a1.37,1.37,0,0,0-.93,1.625c.071.269.289,1.081,1.61.932,1.245-.257,2.432-.595,3.683-.953.6-.172,1.225-.35,1.867-.522a1.09,1.09,0,1,1,.565,2.106c-.622.168-1.238.343-1.829.513-1.315.375-2.553.729-3.9,1l-1.1.181a6.614,6.614,0,0,1-4.542-.8L34.849,37.2C32.6,35.891,30.82,35.7,30.223,36.7a1.667,1.667,0,0,0,.321,2.086L46.09,48.355a4.644,4.644,0,0,0,3.766.526L61.129,45.86a1.09,1.09,0,0,1,.828.109Zm-8.495-11.7-.019-.2c-.205-1.687-1.488-2.736-3.811-3.118-1.687-.277-1.713-.871-1.726-1.095-.038-.826.821-1.086,1.084-1.146a1.822,1.822,0,0,1,2.143.994,1.089,1.089,0,1,0,2.008-.844,3.768,3.768,0,0,0-2.6-2.248v-.338a1.091,1.091,0,0,0-2.181,0v.348a3.309,3.309,0,0,0-2.63,3.34c.051.963.571,2.652,3.554,3.141,1.886.311,1.963.953,2,1.228.019.181.064.55-.565.86-.276.083-.558.164-.834.242-.115.015-.231.025-.346.028a1.84,1.84,0,0,1-1.963-1.207,1.091,1.091,0,0,0-2.117.527,3.586,3.586,0,0,0,.975,1.7,3.593,3.593,0,0,0-1.514,2.234A8.052,8.052,0,1,1,57.5,32.056a8.531,8.531,0,0,1-.064.994,5.648,5.648,0,0,0-1.245.255c-.545.178-1.193.411-1.873.657-.276.1-.558.2-.853.308Zm-14.9-2.213a10.881,10.881,0,1,1,21.763,0,11.5,11.5,0,0,1-.09,1.411c-.205-.076-.417-.143-.629-.2a10.847,10.847,0,0,0,.071-1.209A10.233,10.233,0,1,0,41.6,38.611L40.2,37.8a10.833,10.833,0,0,1-1.636-5.74ZM74.41,37.68l-2.4-1.36a2.357,2.357,0,0,0-3.208.889l-.436.771-6.076-3.52a13.678,13.678,0,0,0,.218-2.4A13.063,13.063,0,1,0,36.96,35.909l-1.014-.59c-5.12-2.981-7.109-.557-7.6.257A3.849,3.849,0,0,0,29.4,40.641l15.546,9.571a6.774,6.774,0,0,0,3.58,1.03,7.23,7.23,0,0,0,1.886-.255l10.843-2.9,1.046.606-.565,1a2.355,2.355,0,0,0,.885,3.2l2.406,1.36a2.349,2.349,0,0,0,3.2-.888L75.3,40.885a2.358,2.358,0,0,0-.892-3.2ZM13.2,69.384a.856.856,0,1,1-.969-.724A.857.857,0,0,1,13.2,69.384Zm39.855-1.557L37.506,77.4a4.636,4.636,0,0,1-3.76.526L22.473,74.9a1.089,1.089,0,0,0-.828.109l-1.424.822-3.914-6.914,6.1-3.533c1.861-1.078,3.112-1.358,4.324-.965.513.168,1.11.383,1.8.634A45.027,45.027,0,0,0,35.6,67.15a1.379,1.379,0,0,1,.937,1.623c-.077.27-.3,1.083-1.617.933-1.245-.257-2.432-.595-3.683-.953-.6-.172-1.225-.35-1.867-.522a1.091,1.091,0,0,0-.565,2.108c.622.166,1.238.342,1.835.512,1.309.375,2.554.73,3.894,1l1.11.182a6.607,6.607,0,0,0,4.536-.8l8.565-4.989c2.258-1.313,4.029-1.508,4.626-.507A1.669,1.669,0,0,1,53.051,67.828ZM19.894,80.042a.171.171,0,0,0,.064-.233L12.894,67.326a.165.165,0,0,0-.148-.085.153.153,0,0,0-.083.022l-2.4,1.359a.19.19,0,0,0-.083.1.165.165,0,0,0,.019.13l7.064,12.483a.174.174,0,0,0,.231.064ZM35.273,49.1l1.193.689-7.327,4.229-1.193-.689ZM31.9,55.614l-.577-.332,7.321-4.229.577.332ZM30.23,57.17l.577.332v1.8l-.577-.331Zm5.043.392-1.193-.69L41.4,52.645l1.193.688Zm-7.224-1.652-1.193-.688V62.2c.18.04.366.089.552.149.552.178,1.193.41,1.873.656,1.437.518,3.131,1.132,4.9,1.592V59.45l-1.193-.688v2.433a1.1,1.1,0,0,1-.545.945,1.121,1.121,0,0,1-.545.146,1.085,1.085,0,0,1-.545-.146l-2.759-1.592a1.085,1.085,0,0,1-.545-.944V55.911ZM38.32,66.778l5.364-3.1V55.223l-7.321,4.228v5.657a3.7,3.7,0,0,1,1.957,1.671Zm9.329-2.416-8.565,4.99a4.3,4.3,0,0,1-.526.266c.032-.091.058-.184.083-.28l.058-.262,6.621-3.823a1.085,1.085,0,0,0,.545-.943V53.333a1.084,1.084,0,0,0-.545-.944l-9.5-5.488a1.09,1.09,0,0,0-1.091,0l-9.508,5.488a1.084,1.084,0,0,0-.545.944v8.824A10.237,10.237,0,0,0,21.312,63.5l-6.082,3.522-.436-.772a2.35,2.35,0,0,0-3.2-.889L9.186,66.724a2.357,2.357,0,0,0-.885,3.2l7.064,12.483A2.354,2.354,0,0,0,17.417,83.6a2.325,2.325,0,0,0,1.148-.3l2.406-1.36a2.35,2.35,0,0,0,.885-3.2l-.565-1,1.052-.606,10.836,2.9a7.245,7.245,0,0,0,1.886.255,6.763,6.763,0,0,0,3.58-1.03l15.546-9.571a3.842,3.842,0,0,0,1.052-5.064C54.758,63.807,52.769,61.382,47.649,64.363Z" transform="translate(0)" fill-rule="evenodd"/>
    </g>
  </g>
</svg>
