<svg xmlns="http://www.w3.org/2000/svg" xmlns:xlink="http://www.w3.org/1999/xlink" width="129.063" height="59.682" viewBox="0 0 129.063 59.682">
  <defs>
    <clipPath id="clip-path">
      <path id="path10767" d="M0-682.665H59.682v59.682H0Z" transform="translate(0 682.665)"/>
    </clipPath>
  </defs>
  <g id="Group_1207340" data-name="Group 1207340" transform="translate(-3188 6973.656)">
    <g id="Group_1206753" data-name="Group 1206753" transform="translate(2124.161 -12443.956)">
      <g id="Group_1205224" data-name="Group 1205224" transform="translate(276.058 2903.871)">
        <g id="Rectangle_410589" data-name="Rectangle 410589" transform="translate(787.781 2575.623)" fill="#ffc94a" stroke="#dfab32" stroke-width="1">
          <rect width="129.063" height="43.021" rx="8" stroke="none"/>
          <rect x="0.5" y="0.5" width="128.063" height="42.021" rx="7.5" fill="none"/>
        </g>
      </g>
    </g>
    <g id="g10761" transform="translate(3222 -6290.991)">
      <g id="g10763" transform="translate(0 -682.665)">
        <g id="g10765" clip-path="url(#clip-path)">
          <g id="g10771" transform="translate(7.03 31.367)">
            <path id="path10773" d="M-361.066-59.242v10.563h-34.59V-59.242a3.659,3.659,0,0,1,2.946-3.589l5.506-1.092,5.021-1h7.644l5.021,1,5.506,1.092a3.659,3.659,0,0,1,2.946,3.589" transform="translate(395.656 64.917)" fill="#c8effe"/>
          </g>
          <g id="g10775" transform="translate(24.424 31.367)">
            <path id="path10777" d="M-148.746-21.785l-5.505-1.092-5.021-1H-163l5.021,1,5.506,1.092a3.659,3.659,0,0,1,2.946,3.589V-7.634h3.723V-18.2a3.659,3.659,0,0,0-2.946-3.589" transform="translate(162.996 23.872)" fill="#a0ecf9"/>
          </g>
          <g id="g10779" transform="translate(11.009 0.874)">
            <path id="path10781" d="M-260.554-265.177h-23.29a1.671,1.671,0,0,1-1.668-1.779l1.121-17.432a6.618,6.618,0,0,1,6.6-6.193h11.174a6.618,6.618,0,0,1,6.6,6.193l1.121,17.432a1.672,1.672,0,0,1-1.668,1.779" transform="translate(285.516 290.581)" fill="#8d9ca8"/>
          </g>
          <g id="g10783" transform="translate(26.189 0.874)">
            <path id="path10785" d="M-119.51-246.609l-1.121-17.432a6.618,6.618,0,0,0-6.6-6.193h-3.723a6.618,6.618,0,0,1,6.6,6.193l1.121,17.432a1.672,1.672,0,0,1-1.668,1.779h3.723a1.671,1.671,0,0,0,1.668-1.779" transform="translate(130.96 270.234)" fill="#7a8d98"/>
          </g>
          <g id="g10787" transform="translate(7.03 47.605)">
            <path id="path10789" d="M-361.066,0V9.664A1.539,1.539,0,0,1-362.6,11.2h-31.513a1.539,1.539,0,0,1-1.539-1.539V0Z" transform="translate(395.656)" fill="#ffcebf"/>
          </g>
          <g id="g10791" transform="translate(36.358 47.605)">
            <path id="path10793" d="M-16.062,0V9.664A1.539,1.539,0,0,1-17.6,11.2h3.723a1.539,1.539,0,0,0,1.539-1.539V0Z" transform="translate(17.601)" fill="#ffaf9e"/>
          </g>
          <g id="g10795" transform="translate(15.471 6.938)">
            <path id="path10797" d="M-184.839-75.975v4.668a7.393,7.393,0,0,1-7.394,7.394h-2.92a7.394,7.394,0,0,1-7.394-7.394v-4.668l8.854-7.278Z" transform="translate(202.546 83.253)" fill="#ffcebf"/>
          </g>
          <g id="g10799" transform="translate(22.463 6.938)">
            <path id="path10801" d="M-19.438,0-21.3,1.53l6.992,5.748v4.668A7.393,7.393,0,0,1-21.3,19.33c.133.007.267.011.4.011h2.92a7.393,7.393,0,0,0,7.394-7.394V7.278Z" transform="translate(21.3)" fill="#ffaf9e"/>
          </g>
          <g id="g10803" transform="translate(11.526 14.217)">
            <path id="path10805" d="M-41.183-48.284h-2.694a1.251,1.251,0,0,1-1.251-1.251v-2.124a1.251,1.251,0,0,1,1.251-1.251h2.694Z" transform="translate(45.128 52.909)" fill="#ffaf9e"/>
          </g>
          <g id="g10807" transform="translate(33.179 14.217)">
            <path id="path10809" d="M0-48.284H2.694a1.251,1.251,0,0,0,1.251-1.251v-2.124a1.251,1.251,0,0,0-1.251-1.251H0Z" transform="translate(0 52.909)" fill="#ffaf9e"/>
          </g>
          <path id="path10811" d="M242.163-405.348h-7.645v7.123h7.645Z" transform="translate(-214.015 429.593)" fill="#ffcebf"/>
          <path id="path10813" d="M279.374-398.224H283.1v-7.123h-3.723Z" transform="translate(-254.95 429.592)" fill="#ffaf9e"/>
          <g id="g10815" transform="translate(13.967 42.219)">
            <path id="path10817" d="M-216.252-173.16h-20.717l1.515-16.589h17.686Z" transform="translate(236.969 189.749)" fill="#bbec6c"/>
          </g>
          <g id="g10819" transform="translate(30.378 42.219)">
            <path id="path10821" d="M-29.129,0H-31.92L-30.4,16.589h2.791Z" transform="translate(31.92)" fill="#a2e62e"/>
          </g>
          <g id="g10823" transform="translate(15.482 31.367)">
            <path id="path10825" d="M-52.412,0V10.852h-5.021V1Z" transform="translate(57.433)" fill="#bbec6c"/>
          </g>
          <g id="g10827" transform="translate(17.712 31.367)">
            <path id="path10829" d="M0-5.775v10.3H2.791V-6.328Z" transform="translate(0 6.328)" fill="#a2e62e"/>
          </g>
          <g id="g10831" transform="translate(28.147 31.367)">
            <path id="path10833" d="M-52.413-10.389V-.532h-5.021V-11.384Z" transform="translate(57.435 11.384)" fill="#bbec6c"/>
          </g>
          <g id="g10835" transform="translate(28.147 31.367)">
            <path id="path10837" d="M0,0V.553L2.231,1v9.857H5.021V1Z" fill="#a2e62e"/>
          </g>
          <g id="g10839" transform="translate(47.042 28.823)">
            <path id="path10841" d="M-29.582-313h-2.241a.593.593,0,0,1-.593-.593V-342.98h3.427v29.392a.593.593,0,0,1-.593.593" transform="translate(32.416 342.98)" fill="#8379c1"/>
          </g>
          <g id="g10843" transform="translate(42.394 23.575)">
            <path id="path10845" d="M-113.96-54.781h-8.876a2.041,2.041,0,0,1-2.041-2.041v-3.207h12.959v3.207a2.041,2.041,0,0,1-2.041,2.041" transform="translate(124.877 60.029)" fill="#aca5d6"/>
          </g>
          <g id="g10847" transform="translate(49.821 23.575)">
            <path id="path10849" d="M-21.308,0V3.207a2.041,2.041,0,0,1-2.041,2.041h3.49a2.041,2.041,0,0,0,2.041-2.041V0Z" transform="translate(23.349)" fill="#978ecb"/>
          </g>
          <g id="g10851" transform="translate(40.778 14.598)">
            <path id="path10853" d="M-159.949,0h-14.456a.867.867,0,0,0-.85,1.038l1.6,7.939H-160.7l1.6-7.939A.867.867,0,0,0-159.949,0" transform="translate(175.273)" fill="#ffdfcf"/>
          </g>
          <g id="g10855" transform="translate(51.862 14.598)">
            <path id="path10857" d="M-44.245,0h-3.49a.867.867,0,0,1,.85,1.038l-1.6,7.939h3.49l1.6-7.939A.867.867,0,0,0-44.245,0" transform="translate(48.484)" fill="#ffcebf"/>
          </g>
          <g id="g10859" transform="translate(15.471 16.608)">
            <path id="path10861" d="M-184.839-23.314v.043a7.393,7.393,0,0,1-7.394,7.394h-2.92a7.394,7.394,0,0,1-7.394-7.394v-.043l8.854-2.234Z" transform="translate(202.546 25.548)" fill="#e8edf1"/>
          </g>
          <g id="g10863" transform="translate(22.463 16.608)">
            <path id="path10865" d="M-19.434,0-21.3.47-14.3,2.233v.043A7.393,7.393,0,0,1-21.3,9.659c.133.007.267.011.4.011h2.92a7.393,7.393,0,0,0,7.394-7.394V2.233Z" transform="translate(21.296)" fill="#d1e1e5"/>
          </g>
          <g id="g10867" transform="translate(6.156 30.493)">
            <path id="path10869" d="M25.465-177.754a.874.874,0,0,1-.874-.874v-10.563a2.791,2.791,0,0,0-2.242-2.731l-10.442-2.07H4.433l-10.443,2.07a2.791,2.791,0,0,0-2.242,2.731v10.563a.874.874,0,0,1-.874.874.874.874,0,0,1-.874-.874v-10.563a4.544,4.544,0,0,1,3.65-4.446l10.527-2.087a.874.874,0,0,1,.17-.017h7.644a.876.876,0,0,1,.17.017l10.527,2.087a4.544,4.544,0,0,1,3.65,4.446v10.563A.874.874,0,0,1,25.465-177.754Z" transform="translate(10 195.741)"/>
          </g>
          <g id="g10871" transform="translate(6.156 46.73)">
            <path id="path10873" d="M23.926-44.335H-7.587A2.416,2.416,0,0,1-10-46.748v-5.531a.874.874,0,0,1,.874-.874.874.874,0,0,1,.874.874v5.531a.665.665,0,0,0,.664.665H23.926a.665.665,0,0,0,.664-.665v-8.79H17.5a.874.874,0,0,1-.874-.874.874.874,0,0,1,.874-.874h7.96a.874.874,0,0,1,.874.874v9.665A2.416,2.416,0,0,1,23.926-44.335Z" transform="translate(10 57.287)"/>
          </g>
          <g id="g10875" transform="translate(6.156 46.73)">
            <path id="path10877" d="M-92.206-8.251h-7.959a.874.874,0,0,1-.874-.874.874.874,0,0,1,.874-.874h7.959a.874.874,0,0,1,.874.874A.874.874,0,0,1-92.206-8.251Z" transform="translate(101.04 10)"/>
          </g>
          <g id="g10879" transform="translate(14.597 6.064)">
            <path id="path10881" d="M-202.818-93.253a.873.873,0,0,1,.555.2l8.853,7.278a.874.874,0,0,1,.319.675v4.668a8.277,8.277,0,0,1-8.268,8.268h-2.92a8.277,8.277,0,0,1-8.268-8.268V-85.1a.874.874,0,0,1,.319-.675l8.854-7.278A.873.873,0,0,1-202.818-93.253Zm7.979,8.566-7.979-6.56-7.98,6.56v4.255a6.527,6.527,0,0,0,6.52,6.519h2.92a6.527,6.527,0,0,0,6.52-6.519Z" transform="translate(212.546 93.253)"/>
          </g>
          <g id="g10883" transform="translate(10.651 13.342)">
            <path id="path10885" d="M-50.308-56.535H-53a2.127,2.127,0,0,1-2.125-2.125v-2.124A2.128,2.128,0,0,1-53-62.909h2.694a.874.874,0,0,1,.874.874v4.626A.874.874,0,0,1-50.308-56.535ZM-53-61.161a.377.377,0,0,0-.377.377v2.124a.377.377,0,0,0,.377.377h1.82v-2.877Z" transform="translate(55.128 62.909)"/>
          </g>
          <g id="g10887" transform="translate(32.305 13.342)">
            <path id="path10889" d="M-6.431-56.535H-9.126A.874.874,0,0,1-10-57.409v-4.626a.874.874,0,0,1,.874-.874h2.694a2.128,2.128,0,0,1,2.125,2.125v2.124A2.128,2.128,0,0,1-6.431-56.535Zm-1.82-1.749h1.82a.377.377,0,0,0,.377-.377v-2.124a.377.377,0,0,0-.377-.377h-1.82Z" transform="translate(10 62.909)"/>
          </g>
          <g id="g10891" transform="translate(19.629 25.405)">
            <path id="path10893" d="M-88.921-3.163h-7.644a.874.874,0,0,1-.874-.874V-9.126A.874.874,0,0,1-96.566-10a.874.874,0,0,1,.874.874v4.214h5.9V-9.126A.874.874,0,0,1-88.921-10a.874.874,0,0,1,.874.874v5.088A.874.874,0,0,1-88.921-3.163Z" transform="translate(97.44 10)"/>
          </g>
          <g id="g10895" transform="translate(10.135 15.634)">
            <path id="path10897" d="M-282.882,1.519h-23.29a2.555,2.555,0,0,1-1.857-.8,2.555,2.555,0,0,1-.684-1.9l.513-7.973a.874.874,0,0,1,.929-.816.874.874,0,0,1,.816.929l-.513,7.973a.79.79,0,0,0,.214.6.789.789,0,0,0,.581.252h23.29a.789.789,0,0,0,.581-.252.79.79,0,0,0,.214-.6L-282.6-9.07a.874.874,0,0,1,.816-.929.874.874,0,0,1,.929.816l.514,7.992a2.556,2.556,0,0,1-.684,1.9A2.555,2.555,0,0,1-282.882,1.519Z" transform="translate(308.718 10)"/>
          </g>
          <g id="g10899" transform="translate(10.75 0)">
            <path id="path10901" d="M16.275-155.465a.874.874,0,0,1-.872-.818l-.509-7.913a5.757,5.757,0,0,0-5.732-5.375H-2.012A5.756,5.756,0,0,0-7.744-164.2l-.509,7.91a.874.874,0,0,1-.929.816A.874.874,0,0,1-10-156.4l.509-7.91a7.508,7.508,0,0,1,7.477-7.011H9.162a7.51,7.51,0,0,1,7.477,7.011l.509,7.913a.874.874,0,0,1-.816.929Z" transform="translate(10 171.32)"/>
          </g>
          <g id="g10903" transform="translate(13.092 41.345)">
            <path id="path10905" d="M-225.377-181.412h-20.717a.874.874,0,0,1-.646-.285.874.874,0,0,1-.225-.669l1.515-16.589a.874.874,0,0,1,.871-.795h17.686a.874.874,0,0,1,.871.795l1.515,16.589a.874.874,0,0,1-.225.669A.874.874,0,0,1-225.377-181.412Zm-19.759-1.749h18.8L-227.691-198h-16.09Z" transform="translate(246.969 199.749)"/>
          </g>
          <g id="g10907" transform="translate(14.608 30.493)">
            <path id="path10909" d="M-61.538-10a.874.874,0,0,1,.555.2.874.874,0,0,1,.319.676V1.726a.874.874,0,0,1-.874.874h-5.021a.874.874,0,0,1-.874-.874V-8.131a.874.874,0,0,1,.7-.858l5.021-1A.874.874,0,0,1-61.538-10ZM-62.412.852V-8.061l-3.273.649V.852Z" transform="translate(67.433 10)"/>
          </g>
          <g id="g10911" transform="translate(27.273 30.493)">
            <path id="path10913" d="M-66.56-21.384a.874.874,0,0,1,.17.017l5.021,1a.874.874,0,0,1,.7.858v9.857a.874.874,0,0,1-.874.874H-66.56a.874.874,0,0,1-.874-.874V-20.51a.874.874,0,0,1,.319-.676A.874.874,0,0,1-66.56-21.384Zm4.147,2.587-3.273-.649v8.913h3.273Z" transform="translate(67.434 21.384)"/>
          </g>
          <g id="g10915" transform="translate(23.451 13.724)">
            <path id="path10917" d="M-9.126-6.241A.874.874,0,0,1-10-7.115v-2.01A.874.874,0,0,1-9.126-10a.874.874,0,0,1,.874.874v2.01A.874.874,0,0,1-9.126-6.241Z" transform="translate(10 10)"/>
          </g>
          <g id="g10919" transform="translate(46.168 27.948)">
            <path id="path10921" d="M-45.493-24.992h-2.241A1.469,1.469,0,0,1-49.2-26.459V-55.851a.874.874,0,0,1,.874-.874H-44.9a.874.874,0,0,1,.874.874.874.874,0,0,1-.874.874h-2.553V-26.74h1.679V-51.766a.874.874,0,0,1,.874-.874.874.874,0,0,1,.874.874v25.307A1.469,1.469,0,0,1-45.493-24.992Z" transform="translate(49.201 56.725)"/>
          </g>
          <g id="g10923" transform="translate(41.519 22.7)">
            <path id="path10925" d="M-123.085-63.033h-8.876a2.919,2.919,0,0,1-2.916-2.916v-3.207a.874.874,0,0,1,.874-.874h12.959a.874.874,0,0,1,.874.874v3.207A2.919,2.919,0,0,1-123.085-63.033Zm-10.043-5.248v2.333a1.168,1.168,0,0,0,1.167,1.167h8.876a1.168,1.168,0,0,0,1.167-1.167v-2.333Z" transform="translate(134.877 70.029)"/>
          </g>
          <g id="g10927" transform="translate(39.903 13.724)">
            <path id="path10929" d="M-183.532-10h14.456a1.735,1.735,0,0,1,1.347.638,1.735,1.735,0,0,1,.36,1.447l-1.6,7.939a.874.874,0,0,1-.857.7h-12.959a.874.874,0,0,1-.857-.7l-1.6-7.939a1.735,1.735,0,0,1,.36-1.447A1.735,1.735,0,0,1-183.532-10Zm12.992,8.977,1.457-7.237-14.45.009,1.465,7.228Z" transform="translate(185.273 10)"/>
          </g>
          <g id="g10931" transform="translate(23.451 0)">
            <path id="path10933" d="M-9.126-71.552A.874.874,0,0,1-10-72.427v-6.064a.874.874,0,0,1,.874-.874.874.874,0,0,1,.874.874v6.064A.874.874,0,0,1-9.126-71.552Z" transform="translate(10 79.365)"/>
          </g>
          <g id="g10935" transform="translate(14.597 15.734)">
            <path id="path10937" d="M-202.818-35.548a.874.874,0,0,1,.214.027l8.854,2.234a.874.874,0,0,1,.66.848,8.287,8.287,0,0,1-8.268,8.311h-2.92a8.277,8.277,0,0,1-8.268-8.268.925.925,0,0,1,.66-.891l8.854-2.234A.874.874,0,0,1-202.818-35.548Zm7.949,3.781-7.949-2.005-7.946,2a6.531,6.531,0,0,0,6.486,5.89h2.92A6.529,6.529,0,0,0-194.869-31.767Z" transform="translate(212.546 35.548)"/>
          </g>
          <g id="g10939" transform="translate(44.509 13.724)">
            <path id="path10941" d="M-9.126-44.346A.874.874,0,0,1-10-45.22v-3.458a.874.874,0,0,1,.874-.874.874.874,0,0,1,.874.874v3.458A.874.874,0,0,1-9.126-44.346Z" transform="translate(10 49.552)"/>
          </g>
          <g id="g10943" transform="translate(48.115 13.724)">
            <path id="path10945" d="M-9.126-44.346A.874.874,0,0,1-10-45.22v-3.458a.874.874,0,0,1,.874-.874.874.874,0,0,1,.874.874v3.458A.874.874,0,0,1-9.126-44.346Z" transform="translate(10 49.552)"/>
          </g>
          <g id="g10947" transform="translate(51.978 2.301)">
            <path id="path10949" d="M-9.126-4.607A.874.874,0,0,1-10-5.481V-9.126A.874.874,0,0,1-9.126-10a.874.874,0,0,1,.874.874v3.644A.874.874,0,0,1-9.126-4.607Z" transform="translate(10 10)"/>
          </g>
          <g id="g10951" transform="translate(50.155 4.123)">
            <path id="path10953" d="M-47.167-8.251h-3.644a.874.874,0,0,1-.874-.874A.874.874,0,0,1-50.811-10h3.644a.874.874,0,0,1,.874.874A.874.874,0,0,1-47.167-8.251Z" transform="translate(51.685 10)"/>
          </g>
          <g id="g10955" transform="translate(3.662 23.668)">
            <path id="path10957" d="M-9.126-4.607A.874.874,0,0,1-10-5.481V-9.126A.874.874,0,0,1-9.126-10a.874.874,0,0,1,.874.874v3.644A.874.874,0,0,1-9.126-4.607Z" transform="translate(10 10)"/>
          </g>
          <g id="g10959" transform="translate(1.84 25.49)">
            <path id="path10961" d="M-47.167-8.251h-3.644a.874.874,0,0,1-.874-.874A.874.874,0,0,1-50.811-10h3.644a.874.874,0,0,1,.874.874A.874.874,0,0,1-47.167-8.251Z" transform="translate(51.685 10)"/>
          </g>
        </g>
      </g>
    </g>
  </g>
</svg>
