<svg xmlns="http://www.w3.org/2000/svg" width="129.063" height="62.579" viewBox="0 0 129.063 62.579">
  <g id="Group_1207337" data-name="Group 1207337" transform="translate(-735.051 -4631.759)">
    <g id="Group_1206751" data-name="Group 1206751" transform="translate(0.051 -835.956)">
      <g id="Group_1205223" data-name="Group 1205223" transform="translate(-52.781 2903.871)">
        <g id="Rectangle_410589" data-name="Rectangle 410589" transform="translate(787.781 2575.623)" fill="#ffc94a" stroke="#dfab32" stroke-width="1">
          <rect width="129.063" height="43.021" rx="8" stroke="none"/>
          <rect x="0.5" y="0.5" width="128.063" height="42.021" rx="7.5" fill="none"/>
        </g>
      </g>
    </g>
    <g id="mujer" transform="translate(711.922 4631.759)">
      <g id="Group_1207334" data-name="Group 1207334" transform="translate(65.052 0.917)">
        <path id="Path_1271868" data-name="Path 1271868" d="M136.413,7.628A16.652,16.652,0,0,0,119.761,24.28v7.51c0,15,9.8,20.881,9.8,20.881h6.857Z" transform="translate(-113.884 -7.612)" fill="#a46a5a"/>
        <path id="Path_1271869" data-name="Path 1271869" d="M112.814,301.315,102.7,297.745a3.918,3.918,0,0,1-2.614-3.695v-6.059H88.329v6.059a3.918,3.918,0,0,1-2.614,3.695L75.6,301.315a5.877,5.877,0,0,0-3.921,5.542h45.058A5.877,5.877,0,0,0,112.814,301.315Z" transform="translate(-71.677 -253.708)" fill="#fbbd80"/>
        <path id="Path_1271870" data-name="Path 1271870" d="M219.669,294.05v-6.059H207.915v4.67c.379.161.735.3,1.071.415a15.026,15.026,0,0,0,5.854.75,1.836,1.836,0,0,1,2.068,1.718,6.894,6.894,0,0,0,4.4,4.973l.978-2.771A3.918,3.918,0,0,1,219.669,294.05Z" transform="translate(-191.263 -253.708)" fill="#f4aa73"/>
        <path id="Path_1271871" data-name="Path 1271871" d="M112.814,376.948l-7.913-2.793a13.694,13.694,0,0,1-21.389,0L75.6,376.948a5.877,5.877,0,0,0-3.921,5.542v7.6H106.94l1.838-1.486,2.2,1.486H113.8l2.939-2.335V382.49A5.877,5.877,0,0,0,112.814,376.948Z" transform="translate(-71.677 -329.341)" fill="#fbf4db"/>
        <path id="Path_1271872" data-name="Path 1271872" d="M170.036,376.948l-7.913-2.793a13.694,13.694,0,0,1-21.389,0l-3.867,1.365A17.621,17.621,0,0,0,164,377.935l5.055,1.784a2.939,2.939,0,0,1,1.961,2.771v7.6h2.939v-7.6A5.877,5.877,0,0,0,170.036,376.948Z" transform="translate(-128.899 -329.341)" fill="#f8ebcc"/>
        <path id="Path_1271873" data-name="Path 1271873" d="M256,7.5V24.152h5.877v24.5c0,8.649,6.857,11.754,6.857,19.59l3.918-3V24.152h0A16.652,16.652,0,0,0,256,7.5Z" transform="translate(-233.471 -7.5)" fill="#c6805d"/>
        <path id="Path_1271874" data-name="Path 1271874" d="M336.14,154.174a29.923,29.923,0,0,0,1.281,8.282,41.23,41.23,0,0,1,1.657,11.308h.122l3.8-.006V129.67h0a16.767,16.767,0,0,0-.125-1.959H336.14Z" transform="translate(-303.816 -113.018)" fill="#a46a5a"/>
        <path id="Path_1271875" data-name="Path 1271875" d="M150.476,105.45h-.35a2.939,2.939,0,0,1-2.939-2.939V95.655H125.638v6.857a2.939,2.939,0,0,1-2.939,2.939h-.35a2.545,2.545,0,0,0-2.576,2.2,2.449,2.449,0,0,0,2.436,2.7h1.519a12.721,12.721,0,0,0,25.368,0h1.519a2.449,2.449,0,0,0,2.436-2.7A2.545,2.545,0,0,0,150.476,105.45Z" transform="translate(-113.884 -84.88)" fill="#ffd18d"/>
        <path id="Path_1271876" data-name="Path 1271876" d="M203.895,105.45h-.35a2.939,2.939,0,0,1-2.939-2.939V95.655H180.618l.843.737A29.933,29.933,0,0,0,196,103.252a1.984,1.984,0,0,1,1.666,1.934v4.183a11.677,11.677,0,0,1-9.95,11.6l-2.258.348a12.7,12.7,0,0,0,17.056-10.97h1.519a2.449,2.449,0,0,0,2.436-2.7A2.545,2.545,0,0,0,203.895,105.45Z" transform="translate(-167.303 -84.88)" fill="#fbbd80"/>
        <path id="Path_1271877" data-name="Path 1271877" d="M119.761,53.722v0a19.506,19.506,0,0,0,13.378-5.465l-7.645-7.092A16.6,16.6,0,0,0,119.761,53.722Z" transform="translate(-113.884 -37.055)" fill="#c6805d"/>
        <path id="Path_1271878" data-name="Path 1271878" d="M177.582,7.5v.016a16.57,16.57,0,0,0-10.919,4.1A26.586,26.586,0,0,0,189.222,23.46a28.733,28.733,0,0,0,4.955-.433A16.64,16.64,0,0,0,177.582,7.5Z" transform="translate(-155.053 -7.5)" fill="#a46a5a"/>
        <path id="Path_1271879" data-name="Path 1271879" d="M226.024,19.542a20.241,20.241,0,0,0,3.92-.385A16.621,16.621,0,0,0,214.093,7.5v.016a16.512,16.512,0,0,0-5.835,1.063A19.8,19.8,0,0,0,226.024,19.542Z" transform="translate(-191.564 -7.5)" fill="#845252"/>
      </g>
      <g id="Group_1207336" data-name="Group 1207336" transform="translate(64.129 0)">
        <path id="Trazado_1271880" data-name="Trazado 1271880" d="M228.308,235.28a5.181,5.181,0,0,1-3.583-1.244.917.917,0,1,1,1.288-1.305,4.039,4.039,0,0,0,4.591,0,.917.917,0,0,1,1.288,1.305A5.181,5.181,0,0,1,228.308,235.28Z" transform="translate(-204.857 -204.054)"/>
        <path id="Trazado_1271881" data-name="Trazado 1271881" d="M65.046,322.924a.917.917,0,0,1-.917-.917v-7.6A6.806,6.806,0,0,1,68.663,308l10.119-3.572a3.007,3.007,0,0,0,2-2.831v-4.086a.917.917,0,1,1,1.833,0V301.6a4.843,4.843,0,0,1-3.226,4.56L69.273,309.73a4.97,4.97,0,0,0-3.31,4.679v7.6A.917.917,0,0,1,65.046,322.924Z" transform="translate(-64.129 -260.345)"/>
        <path id="Trazado_1271882" data-name="Trazado 1271882" d="M391.563,399.492a.917.917,0,0,1-.917-.917v-7.6a4.97,4.97,0,0,0-3.31-4.679l-1.957-.691a.917.917,0,0,1,.61-1.729l1.957.691a6.806,6.806,0,0,1,4.534,6.408v7.6A.917.917,0,0,1,391.563,399.492Z" transform="translate(-345.577 -336.913)"/>
        <path id="Trazado_1271883" data-name="Trazado 1271883" d="M129.8,153.844a13.675,13.675,0,0,1-13.522-11.757H115.6a3.367,3.367,0,0,1-3.349-3.71,3.473,3.473,0,0,1,3.489-3.022h.35a2.025,2.025,0,0,0,2.023-2.023v-1.653a.917.917,0,0,1,1.833,0v1.653a3.86,3.86,0,0,1-3.856,3.856h-.35a1.626,1.626,0,0,0-1.665,1.371,1.533,1.533,0,0,0,1.525,1.694h.553v-.063a.917.917,0,0,1,1.833,0,11.82,11.82,0,0,0,23.64.009.917.917,0,1,1,1.833,0A13.671,13.671,0,0,1,129.8,153.844Z" transform="translate(-106.351 -114.78)"/>
        <path id="Trazado_1271884" data-name="Trazado 1271884" d="M304.371,322.812a.917.917,0,0,1-.917-.917c0-3.567-1.54-6.113-3.17-8.808-1.813-3-3.688-6.1-3.688-10.787v-4.914a.917.917,0,0,1,1.833,0V302.3c0,4.177,1.663,6.927,3.424,9.838,1.689,2.792,3.435,5.679,3.435,9.757A.917.917,0,0,1,304.371,322.812Z" transform="translate(-268.183 -260.233)"/>
        <path id="Trazado_1271885" data-name="Trazado 1271885" d="M146.455,62.579a.917.917,0,0,1-.917-.917V17.573a15.739,15.739,0,0,0-31.479,0v7.512c0,12.523,7.751,19.093,7.83,19.158a.917.917,0,0,1-1.166,1.414c-.347-.286-8.5-7.149-8.5-20.573V17.573a17.573,17.573,0,0,1,35.146,0v44.09A.917.917,0,0,1,146.455,62.579Z" transform="translate(-106.347 0)"/>
        <path id="Trazado_1271886" data-name="Trazado 1271886" d="M181.992,47.693c-9.567,0-18.36-4.684-22.948-12.224a.917.917,0,0,1,1.566-.953c4.258,7,12.451,11.344,21.382,11.344a27.4,27.4,0,0,0,4.937-.447.917.917,0,1,1,.331,1.8A29.236,29.236,0,0,1,181.992,47.693Z" transform="translate(-147.325 -29.911)"/>
        <path id="Trazado_1271887" data-name="Trazado 1271887" d="M341.024,144h-1.47a.917.917,0,0,1,0-1.833h1.47a1.533,1.533,0,0,0,1.525-1.694,1.626,1.626,0,0,0-1.665-1.371h-.35a3.86,3.86,0,0,1-3.856-3.856v-1.387a.917.917,0,1,1,1.833,0v1.387a2.025,2.025,0,0,0,2.023,2.023h.35a3.473,3.473,0,0,1,3.489,3.022,3.367,3.367,0,0,1-3.349,3.71Z" transform="translate(-303.366 -116.691)"/>
        <path id="Trazado_1271888" data-name="Trazado 1271888" d="M113.839,102.468a.917.917,0,0,1-.018-1.833,18.366,18.366,0,0,0,12.169-4.712.917.917,0,0,1,1.259,1.333,19.943,19.943,0,0,1-13.392,5.213Z" transform="translate(-106.959 -83.978)"/>
        <path id="Línea_256" data-name="Línea 256" d="M-6.583-4.687A.917.917,0,0,1-7.5-5.6v-.98A.917.917,0,0,1-6.583-7.5a.917.917,0,0,1,.917.917v.98A.917.917,0,0,1-6.583-4.687Z" transform="translate(24.156 29.055)"/>
        <path id="Línea_257" data-name="Línea 257" d="M-6.583-4.687A.917.917,0,0,1-7.5-5.6v-.98A.917.917,0,0,1-6.583-7.5a.917.917,0,0,1,.917.917v.98A.917.917,0,0,1-6.583-4.687Z" transform="translate(35.913 29.055)"/>
        <path id="Línea_258" data-name="Línea 258" d="M-6.585-5.386a.917.917,0,0,1-.908-.8A.917.917,0,0,1-6.7-7.212l2.2-.281A.917.917,0,0,1-3.473-6.7a.917.917,0,0,1-.793,1.025l-2.2.281A.926.926,0,0,1-6.585-5.386Z" transform="translate(23.177 25.835)"/>
        <path id="Línea_259" data-name="Línea 259" d="M-4.381-5.386A.925.925,0,0,1-4.5-5.393l-2.2-.281A.917.917,0,0,1-7.493-6.7a.917.917,0,0,1,1.025-.793l2.2.281a.917.917,0,0,1,.793,1.025A.917.917,0,0,1-4.381-5.386Z" transform="translate(34.692 25.835)"/>
        <path id="Trazado_1271889" data-name="Trazado 1271889" d="M254.414,67.651a20.52,20.52,0,0,1-13.15-4.753.917.917,0,1,1,1.176-1.406,18.683,18.683,0,0,0,11.974,4.326,19.022,19.022,0,0,0,3.712-.364.917.917,0,0,1,.359,1.8A20.86,20.86,0,0,1,254.414,67.651Z" transform="translate(-219.325 -53.788)"/>
        <path id="Trazado_1271890" data-name="Trazado 1271890" d="M203.733,14.489a.915.915,0,0,1-.717-.345,19.4,19.4,0,0,1-2.4-3.863.917.917,0,1,1,1.66-.778,17.561,17.561,0,0,0,2.173,3.5.917.917,0,0,1-.716,1.488Z" transform="translate(-183.858 -7.878)"/>
        <path id="Trazado_1271891" data-name="Trazado 1271891" d="M332.517,297.327a.917.917,0,0,1-.917-.917,40.449,40.449,0,0,0-1.628-11.081,30.672,30.672,0,0,1-1.311-8.515v-8.463a.917.917,0,1,1,1.833,0v8.463a29.187,29.187,0,0,0,1.252,8.054,42.016,42.016,0,0,1,1.687,11.542A.917.917,0,0,1,332.517,297.327Z" transform="translate(-296.329 -234.748)"/>
        <g id="Group_1207335" data-name="Group 1207335" transform="translate(8.042 44.858)">
          <path id="Trazado_1271892" data-name="Trazado 1271892" d="M145.335,388.126a18.575,18.575,0,0,1-15.245-7.978.917.917,0,1,1,1.506-1.046,16.741,16.741,0,0,0,13.74,7.19,17.766,17.766,0,0,0,5.182-.826.917.917,0,0,1,.551,1.749A19.649,19.649,0,0,1,145.335,388.126Z" transform="translate(-129.925 -377.279)"/>
          <path id="Trazado_1271893" data-name="Trazado 1271893" d="M172.8,373.939a14.58,14.58,0,0,1-11.381-5.435.917.917,0,1,1,1.425-1.153,12.805,12.805,0,0,0,16.706,2.832.917.917,0,0,1,.968,1.557A14.6,14.6,0,0,1,172.8,373.939Z" transform="translate(-157.388 -367.011)"/>
        </g>
      </g>
    </g>
  </g>
</svg>
